<svg width="30" height="8" fill="none" xmlns="http://www.w3.org/2000/svg"><path d="M.333.133h3.192c1.118 0 1.95.232 2.493.696.544.456.816 1.072.816 1.845 0 .774-.272 1.392-.816 1.856-.543.457-1.375.685-2.493.685H2.106v2.652H.333V.133zm3.014 3.712c.63 0 1.072-.1 1.324-.298.26-.199.39-.49.39-.873 0-.376-.13-.663-.39-.862-.252-.206-.693-.31-1.324-.31h-1.24v2.343h1.24zM10.779 8c-1.095 0-1.923-.21-2.482-.63-.56-.42-.855-.972-.886-1.657h1.772c.032.147.08.276.142.386.063.11.158.203.284.277.126.073.284.132.473.176.189.037.421.056.697.056.567 0 .973-.07 1.217-.21.252-.148.379-.354.379-.619 0-.324-.166-.567-.497-.73-.323-.169-.843-.32-1.56-.452a6.907 6.907 0 01-1.135-.288 3.06 3.06 0 01-.839-.464 1.887 1.887 0 01-.52-.685 2.322 2.322 0 01-.177-.95c0-.332.07-.634.213-.906.15-.273.358-.505.626-.696.276-.2.607-.35.993-.453.386-.103.82-.155 1.3-.155.52 0 .97.052 1.347.155.379.103.694.25.946.442.26.191.457.42.59.685.135.265.218.563.25.895h-1.774c-.055-.265-.181-.46-.378-.586-.197-.132-.524-.199-.981-.199-.465 0-.808.07-1.028.21-.22.14-.331.328-.331.564 0 .28.15.504.449.674.307.162.788.302 1.442.42.449.08.847.18 1.194.298.354.118.65.269.886.453.244.184.43.413.556.685.134.265.2.586.2.961 0 .715-.295 1.286-.886 1.713-.583.42-1.41.63-2.482.63zm7.433 0c-1.095 0-1.922-.21-2.482-.63-.56-.42-.855-.972-.886-1.657h1.773c.031.147.078.276.141.386.063.11.158.203.284.277.126.073.284.132.473.176.189.037.421.056.697.056.567 0 .973-.07 1.218-.21.252-.148.378-.354.378-.619 0-.324-.166-.567-.497-.73-.323-.169-.843-.32-1.56-.452a6.905 6.905 0 01-1.134-.288 3.042 3.042 0 01-.84-.464 1.887 1.887 0 01-.52-.685 2.322 2.322 0 01-.177-.95c0-.332.071-.634.213-.906.15-.273.358-.505.626-.696.276-.2.607-.35.993-.453a5.04 5.04 0 011.3-.155c.52 0 .97.052 1.348.155.378.103.693.25.945.442.26.191.457.42.591.685.134.265.217.563.248.895h-1.773c-.055-.265-.18-.46-.378-.586-.197-.132-.524-.199-.98-.199-.466 0-.809.07-1.03.21-.22.14-.33.328-.33.564 0 .28.15.504.45.674.306.162.787.302 1.441.42.45.08.847.18 1.194.298.354.118.65.269.886.453.244.184.43.413.556.685.134.265.2.586.2.961 0 .715-.295 1.286-.886 1.713-.583.42-1.41.63-2.482.63zm8.949-1.713H24.1l-.627 1.58h-1.725L24.82.133h1.773l3.073 7.734h-1.868l-.638-1.58zm-2.518-1.37h1.986l-.993-2.685-.992 2.685z" fill="#fff"/></svg>