<svg width="30" height="30" fill="none" xmlns="http://www.w3.org/2000/svg"><path d="M13 19.1c0 3.645-6 9.4-6 9.4s-6-5.755-6-9.4c0-3.645 2.686-6.6 6-6.6s6 2.955 6 6.6z" stroke="#fff" stroke-width="1.5" stroke-linecap="round" stroke-linejoin="round"/><path d="M10 18.9c0 1.767-1.343 3.2-3 3.2s-3-1.433-3-3.2c0-1.767 1.343-3.2 3-3.2s3 1.433 3 3.2zM29 6.862c0 2.962-4.5 7.638-4.5 7.638S20 9.824 20 6.862C20 3.901 22.015 1.5 24.5 1.5S29 3.9 29 6.862z" stroke="#fff" stroke-width="1.5" stroke-linecap="round" stroke-linejoin="round"/><path d="M26.75 6.7c0 1.436-1.007 2.6-2.25 2.6s-2.25-1.164-2.25-2.6c0-1.436 1.007-2.6 2.25-2.6s2.25 1.164 2.25 2.6z" stroke="#fff" stroke-width="1.5" stroke-linecap="round" stroke-linejoin="round"/><path d="M7 28.5h18a4 4 0 004-4v0a4 4 0 00-4-4h-3.857m3.357-6H20a3 3 0 00-3 3v0a3 3 0 003 3h4" stroke="#fff" stroke-width="1.5"/></svg>