<svg width="32" height="32" fill="none" xmlns="http://www.w3.org/2000/svg"><path d="M6.5 25.334c0-1.473 1.268-2.667 2.833-2.667 1.565 0 2.833 1.194 2.833 2.666 0-1.472 1.269-2.666 2.834-2.666 1.564 0 2.833 1.194 2.833 2.666 0-1.472 1.269-2.666 2.833-2.666 1.565 0 2.834 1.194 2.834 2.666m5.666 0c0-1.472-1.268-2.666-2.833-2.666-1.565 0-2.833 1.194-2.833 2.666" stroke="#fff" stroke-width="1.5" stroke-linecap="round" stroke-linejoin="round"/><mask id="a" fill="#fff"><path fill-rule="evenodd" clip-rule="evenodd" d="M19.944 16.344c-.716-1.45-.523-3.206.471-4.27.428-.457 1.333-.656 1.974-.435.483.166.816.346 1.11.79.166.25.286.714.286.714s1.143-1.363 1.143-3.175C24.928 7.706 22.717 6 19.785 6c-4.991 0-6.265 2.55-7.536 5.095-.245.492-.491.984-.763 1.457-.986 1.712-1.916 3.132-3.353 3.879a3.607 3.607 0 00-5.383 3.14.75.75 0 001.5 0 2.107 2.107 0 014.214 0 .75.75 0 001.5 0 2.107 2.107 0 014.215 0 .75.75 0 001.5 0 2.107 2.107 0 014.214 0 .75.75 0 001.5 0 2.107 2.107 0 014.214 0 .75.75 0 001.5 0 3.607 3.607 0 00-6.38-2.305c-.22-.126-.498-.345-.783-.922z"/></mask><path d="M20.415 12.075L19.32 11.05l1.095 1.025zm-.47 4.269l-1.346.664 1.345-.664zm2.444-4.705l.488-1.419-.488 1.419zm1.11.79l1.25-.829-1.25.829zm.286.714l-1.452.375.73 2.822 1.871-2.233-1.15-.964zm-11.536-2.048l-1.342-.67 1.342.67zm-.763 1.457l-1.3-.749 1.3.749zM8.133 16.43l-.74 1.305.709.401.723-.375-.692-1.331zm12.593.835l-.746 1.301 1.093.627.806-.969-1.153-.96zM19.32 11.05c-1.48 1.582-1.671 4.029-.72 5.957l2.69-1.328c-.48-.973-.286-2.037.222-2.58l-2.192-2.05zm3.558-.83c-.635-.22-1.31-.209-1.878-.083-.56.123-1.2.4-1.68.912l2.192 2.05c-.033.035-.045.034-.012.017a.765.765 0 01.329-.068c.054.001.078.01.073.008l.976-2.837zm1.873 1.38c-.547-.826-1.225-1.157-1.873-1.38l-.977 2.836c.194.067.257.103.278.118l.02.015a.453.453 0 01.05.067L24.75 11.6zm-.965 1.542l1.452-.376v-.002a.161.161 0 01-.004-.013 2.687 2.687 0 00-.03-.106 5.718 5.718 0 00-.08-.255 3.58 3.58 0 00-.373-.79l-2.502 1.656c-.027-.042-.006-.016.038.111a2.618 2.618 0 01.048.155v-.003h-.001v-.001l1.452-.376zm-.357-3.175c0 .597-.191 1.155-.411 1.592a4.295 4.295 0 01-.374.609c-.008.01-.014.017-.015.02v-.002l.003-.003.002-.002.001-.001v-.001l1.15.963 1.151.963v-.001l.002-.002.003-.003.008-.01.02-.024.057-.073a7.278 7.278 0 00.671-1.083c.351-.698.732-1.727.732-2.942h-3zM19.785 7.5c2.488 0 3.643 1.373 3.643 2.468h3c0-3.43-3.268-5.468-6.643-5.468v3zm-6.194 4.265c.658-1.316 1.175-2.31 2.014-3.039.772-.67 1.962-1.226 4.18-1.226v-3c-2.773 0-4.715.719-6.146 1.96-1.363 1.184-2.118 2.737-2.732 3.965l2.684 1.34zm-.805 1.535c.298-.518.563-1.05.805-1.535l-2.684-1.34c-.249.499-.475.95-.721 1.378l2.6 1.497zm-3.961 4.462c1.875-.975 2.993-2.78 3.96-4.462l-2.6-1.497C9.183 13.546 8.442 14.58 7.442 15.1l1.384 2.662zm-2.468-.297c.38 0 .732.099 1.036.271l1.48-2.61a5.091 5.091 0 00-2.516-.662v3zM4.25 19.572c0-1.164.944-2.107 2.107-2.107v-3a5.107 5.107 0 00-5.107 5.107h3zm-.75-.75a.75.75 0 01.75.75h-3a2.25 2.25 0 002.25 2.25v-3zm-.75.75a.75.75 0 01.75-.75v3a2.25 2.25 0 002.25-2.25h-3zm3.607-3.607a3.607 3.607 0 00-3.607 3.607h3c0-.336.272-.607.607-.607v-3zm3.607 3.607a3.607 3.607 0 00-3.607-3.607v3c.336 0 .607.271.607.607h3zm-.75-.75a.75.75 0 01.75.75h-3a2.25 2.25 0 002.25 2.25v-3zm-.75.75a.75.75 0 01.75-.75v3a2.25 2.25 0 002.25-2.25h-3zm3.608-3.607a3.607 3.607 0 00-3.608 3.607h3c0-.336.272-.607.608-.607v-3zm3.607 3.607a3.607 3.607 0 00-3.607-3.607v3c.335 0 .607.271.607.607h3zm-.75-.75a.75.75 0 01.75.75h-3a2.25 2.25 0 002.25 2.25v-3zm-.75.75a.75.75 0 01.75-.75v3a2.25 2.25 0 002.25-2.25h-3zm3.607-3.607a3.607 3.607 0 00-3.607 3.607h3c0-.336.272-.607.607-.607v-3zm3.607 3.607a3.607 3.607 0 00-3.607-3.607v3c.335 0 .607.271.607.607h3zm-.75-.75a.75.75 0 01.75.75h-3a2.25 2.25 0 002.25 2.25v-3zm-.75.75a.75.75 0 01.75-.75v3a2.25 2.25 0 002.25-2.25h-3zm3.607-3.607a3.607 3.607 0 00-3.607 3.607h3c0-.336.272-.607.607-.607v-3zm3.607 3.607a3.607 3.607 0 00-3.607-3.607v3c.335 0 .607.271.607.607h3zm-.75-.75a.75.75 0 01.75.75h-3a2.25 2.25 0 002.25 2.25v-3zm-.75.75a.75.75 0 01.75-.75v3a2.25 2.25 0 002.25-2.25h-3zM23.5 17.465c1.164 0 2.107.943 2.107 2.107h3a5.107 5.107 0 00-5.107-5.107v3zm-1.62.76a2.1 2.1 0 011.62-.76v-3a5.1 5.1 0 00-3.927 1.841l2.306 1.92zm-3.28-1.217c.41.832.89 1.279 1.38 1.56l1.492-2.604-.006-.003-.007-.007a1.185 1.185 0 01-.17-.274l-2.69 1.328z" fill="#fff" mask="url(#a)"/></svg>