<svg width="32" height="32" fill="none" xmlns="http://www.w3.org/2000/svg"><path d="M26.666 10.167a2.667 2.667 0 00-5.333 0 2.667 2.667 0 00-5.333 0 2.667 2.667 0 00-5.334 0m-5.333 0a2.667 2.667 0 015.333 0M5.333 16.5a2.667 2.667 0 015.334 0 2.667 2.667 0 015.333 0 2.667 2.667 0 015.333 0m5.334 0a2.667 2.667 0 00-5.334 0m-4 5.667h9.334m0 0l-2.667 2m2.667-2l-2.667-2m-18.667 2h9.334m0 0l-2.667 2m2.667-2l-2.667-2" stroke="#fff" stroke-width="1.5" stroke-linecap="round" stroke-linejoin="round"/></svg>