<svg xmlns="http://www.w3.org/2000/svg" width="386" height="70"><path fill-rule="evenodd" fill="#2C2C2C" d="M373.167 52.862C368.964 64.797 362.283 69.525 351.774 69V58.491c5.255 0 7.732-1.651 9.383-6.23L346.22 16.456h12.385l8.332 22.969 7.056-22.969h12.01l-12.836 36.406zm-43.009-10.305c2.665-1.539 4.34-3.892 4.814-6.073l10.391-.018c-.633 6.259-4.13 11.312-10.306 14.877-11.116 6.418-22.322 2.92-27.915-6.765-5.592-9.686-2.887-21.215 7.384-27.145 9.491-5.48 20.752-2.188 26.419 7.628a21.77 21.77 0 0 1 1.862 4.126L319.73 42.51c3.187 2.668 6.853 2.111 10.428.047zm-.85-15.284c-3.217-3.17-6.93-2.846-9.856-1.157-3.705 2.139-5.124 5.386-4.12 9.226l13.976-8.069zm-22.633 26.715h-13.661L276.2 29.667v24.321h-12.01V1.444h12.01v22.819l16.063-22.819h13.662L288.21 27.04l18.465 26.948zM225.458 69V58.491c5.254 0 7.731-1.651 9.383-6.23L220.04 16.784l-13.422 18.438 14.036 18.766h-12.76l-12.01-16.589v16.589h-11.26V1.444h11.26v31.451l11.259-16.439h25.145l8.332 22.969 7.056-22.969h12.01l-12.835 36.406C242.647 64.797 235.967 69.525 225.458 69zm-62.452-25.071c3.303 0 6.08-1.576 7.281-4.203l9.833 5.629c-3.227 5.855-9.608 9.683-16.964 9.683-11.409 0-19.891-8.632-19.891-19.816s8.482-19.817 19.891-19.817c7.281 0 13.737 3.829 16.964 9.608l-9.833 5.705c-1.276-2.627-3.978-4.203-7.281-4.203-4.879 0-8.482 3.528-8.482 8.707s3.603 8.707 8.482 8.707zm-37.621-1.372c2.665-1.539 4.34-3.892 4.814-6.073l10.391-.018c-.633 6.259-4.13 11.312-10.306 14.877-11.116 6.418-22.323 2.92-27.915-6.765-5.592-9.686-2.887-21.215 7.384-27.145 9.491-5.48 20.752-2.188 26.419 7.628a21.77 21.77 0 0 1 1.862 4.126L114.957 42.51c3.187 2.668 6.853 2.111 10.428.047zm-.85-15.284c-3.217-3.17-6.93-2.846-9.856-1.157-3.705 2.139-5.124 5.386-4.12 9.226l13.976-8.069zm-43.81 5.322c0-4.654-2.928-6.831-6.531-6.831-4.128 0-6.981 2.402-6.981 7.731v20.493H55.954V1.444h11.259v18.54c2.027-2.777 5.78-4.579 10.734-4.579 7.582 0 14.037 5.405 14.037 15.538v23.045H80.725V32.595zM27.431 43.329c5.329 0 9.908-2.402 12.16-6.456l10.359 6.005c-4.504 7.431-12.911 12.16-22.519 12.16C11.593 55.038.108 43.179.108 27.716S11.593.393 27.431.393c9.533 0 17.94 4.729 22.519 12.16l-10.359 6.005c-2.327-4.053-6.831-6.455-12.16-6.455-9.308 0-15.313 6.23-15.313 15.613 0 9.382 6.005 15.613 15.313 15.613z"/></svg>