<svg width="21" height="14" fill="none" xmlns="http://www.w3.org/2000/svg"><path d="M.004 6.549C-.053 9.277 1.863 11.88 4.5 12.73c2.482.818 5.535.206 7.187-1.88 1.206-1.461 1.48-3.41 1.35-5.23-2.127-.018-4.253-.012-6.376-.009-.003.743 0 1.483.003 2.226 1.273.035 2.547.019 3.82.044-.321 1.08-1.054 2.086-2.165 2.476-2.145.927-4.882-.284-5.557-2.492-.815-2.114.519-4.665 2.721-5.28 1.366-.47 2.773.06 3.941.756a29.866 29.866 0 0 0 1.69-1.71C9.786.541 8.08-.127 6.326.02 2.885.06-.126 3.177.004 6.55zm17.17-2.81c-.007.62-.013 1.245-.017 1.866-.636.007-1.27.01-1.903.013v1.86c.634.004 1.27.007 1.903.013.007.622.007 1.243.013 1.867.63 0 1.264-.003 1.897 0 .004-.624.007-1.245.013-1.87l1.904-.009v-1.86c-.634-.004-1.27-.007-1.904-.013-.003-.622-.01-1.246-.013-1.867h-1.893z" fill="#BEC7D1" style="mix-blend-mode:darken"/><path d="M.004 6.549C-.126 3.177 2.884.06 6.326.02c1.753-.147 3.46.521 4.787 1.611a29.946 29.946 0 0 1-1.69 1.711c-1.169-.696-2.575-1.227-3.941-.756-2.203.616-3.536 3.166-2.721 5.28.675 2.207 3.412 3.419 5.557 2.492 1.11-.39 1.843-1.396 2.165-2.476-1.273-.025-2.547-.01-3.82-.044-.003-.743-.006-1.483-.003-2.226 2.123-.003 4.25-.01 6.375.01.131 1.82-.143 3.768-1.35 5.229-1.651 2.086-4.704 2.698-7.187 1.88C1.863 11.88-.053 9.276.004 6.548zm17.17-2.81h1.893c.004.62.01 1.245.013 1.866.634.007 1.27.01 1.904.013v1.86l-1.904.01c-.006.625-.01 1.246-.013 1.87-.633-.003-1.267 0-1.897 0-.006-.624-.006-1.245-.013-1.867-.633-.006-1.27-.01-1.903-.013v-1.86c.634-.004 1.267-.007 1.903-.013.004-.62.01-1.245.017-1.867z" fill="#BEC7D1" style="mix-blend-mode:darken"/></svg>