<svg width="22" height="21" fill="none" xmlns="http://www.w3.org/2000/svg"><path d="M7.778 1.806l-1.074-.343a1.394 1.394 0 0 0-1.018.063c-.644.304-1.712.937-2.263 1.983-.822 1.56-.758 3.75.256 6.19 1.013 2.439 3.042 6.448 7.775 9.174 1.525.879 2.896.916 4.055.562a3.506 3.506 0 0 0 2.094-1.751l.38-.738a.557.557 0 0 0-.157-.69l-3.252-2.602a.597.597 0 0 0-.726-.017l-1.918 1.428a.437.437 0 0 1-.5.011c-.902-.595-3.866-2.802-4.799-6.658a.405.405 0 0 1 .17-.435l1.785-1.179a.547.547 0 0 0 .242-.545l-.649-3.996a.583.583 0 0 0-.401-.457z" fill="#BEC7D1" style="mix-blend-mode:darken"/></svg>