<svg width="85" height="85" fill="none" xmlns="http://www.w3.org/2000/svg"><path stroke="#fff" stroke-width="2" d="M1 1h83v83H1z"/><g clip-path="url(#clip0)"><path d="M45.176 25.28c-6.025 0-11.358 3.007-14.586 7.597.668.436 1.32 1.034 1.95 1.802 2.407-3.6 6.301-6.127 10.806-6.67l1.83 3.096 1.83-3.096c6.925.834 12.43 6.339 13.264 13.264l-3.097 1.83 3.097 1.83c-.558 4.63-3.21 8.616-6.971 11.005.24.546.374 1.104.398 1.68.018.42-.025.819-.113 1.196 5.6-3.009 9.416-8.922 9.416-15.71 0-9.83-7.995-17.825-17.824-17.825zm4.549 29.353c-4.11-3.302-5.258-1.679-7.122.185-1.302 1.302-4.596-1.416-7.44-4.26-2.844-2.845-5.562-6.138-4.26-7.44 1.864-1.864 3.486-3.014.183-7.122-3.302-4.109-5.503-.954-7.309.852-2.085 2.084-.11 9.852 7.567 17.53 7.677 7.676 15.444 9.65 17.528 7.566 1.806-1.806 4.962-4.007.853-7.31zm-12.514-8.74c0-3.653 4.276-4.303 4.276-5.729 0-.691-.554-.982-1.066-.982-.94 0-1.466 1.051-1.466 1.051l-1.799-1.203s.913-2.13 3.487-2.13c1.618 0 3.376.926 3.376 3.03 0 3.085-3.985 3.68-4.055 4.953h4.207v2.075h-6.85a6.039 6.039 0 0 1-.11-1.066zm7.971-2.795l3.82-6.033h2.96v5.493h1.176v2.006h-1.175v2.394h-2.395v-2.394h-4.386v-1.466zm4.386-.54v-2.214c0-.54.084-1.107.084-1.107h-.028s-.207.61-.484 1.024l-1.494 2.27v.027h1.922z" fill="#fff"/></g><defs><clipPath id="clip0"><path fill="#fff" transform="translate(23 24)" d="M0 0h40v40H0z"/></clipPath></defs></svg>