<svg width="64" height="64" viewBox="0 0 64 64" fill="none" xmlns="http://www.w3.org/2000/svg">
<rect width="64" height="64" rx="15" fill="#00CCFF"/>
<path d="M39.4988 17.0062L35.6085 17C31.2379 17 28.4134 19.8978 28.4134 24.383V27.7871H24.5019C24.1639 27.7871 23.8902 28.0611 23.8902 28.3991V33.3313C23.8902 33.6693 24.1642 33.943 24.5019 33.943H28.4134V46.3883C28.4134 46.7263 28.6871 47 29.0251 47H34.1285C34.4665 47 34.7402 46.726 34.7402 46.3883V33.943H39.3137C39.6517 33.943 39.9254 33.6693 39.9254 33.3313L39.9273 28.3991C39.9273 28.2369 39.8627 28.0814 39.7481 27.9666C39.6336 27.8517 39.4775 27.7871 39.3152 27.7871H34.7402V24.9014C34.7402 23.5145 35.0707 22.8104 36.8775 22.8104L39.4981 22.8094C39.8358 22.8094 40.1095 22.5354 40.1095 22.1977V17.618C40.1095 17.2806 39.8361 17.0069 39.4988 17.0062Z" fill="white"/>
</svg>
