<svg width="64" height="64" viewBox="0 0 64 64" fill="none" xmlns="http://www.w3.org/2000/svg">
<rect width="64" height="64" rx="15" fill="#00CCFF"/>
<g clip-path="url(#clip0)">
<path d="M48.8198 39.8198C48.7786 39.7311 48.7402 39.6575 48.7046 39.5985C48.1147 38.5361 46.9874 37.232 45.3234 35.686L45.2882 35.6506L45.2706 35.6332L45.2528 35.6154H45.235C44.4798 34.8955 44.0015 34.4114 43.8013 34.1636C43.4348 33.6915 43.3527 33.2136 43.553 32.7295C43.6945 32.3636 44.226 31.5911 45.1463 30.4107C45.6303 29.7852 46.0137 29.2838 46.2968 28.9061C48.3386 26.1916 49.2238 24.457 48.9523 23.7016L48.8468 23.5251C48.7759 23.4188 48.593 23.3216 48.2983 23.2329C48.0029 23.1444 47.6254 23.1298 47.165 23.1888L42.0669 23.224C41.9843 23.1947 41.8663 23.1974 41.7127 23.2329C41.5592 23.2684 41.4825 23.2862 41.4825 23.2862L41.3937 23.3305L41.3233 23.3838C41.2643 23.419 41.1994 23.4809 41.1285 23.5695C41.058 23.6577 40.999 23.7612 40.9519 23.8792C40.3969 25.3072 39.7658 26.6349 39.0575 27.8622C38.6208 28.594 38.2198 29.2283 37.8535 29.7653C37.4878 30.3021 37.1809 30.6976 36.9333 30.9511C36.6853 31.2049 36.4614 31.4082 36.2604 31.5618C36.0597 31.7155 35.9065 31.7804 35.8004 31.7566C35.6941 31.7329 35.594 31.7093 35.4992 31.6858C35.334 31.5795 35.2012 31.435 35.1011 31.252C35.0005 31.0691 34.9328 30.8389 34.8974 30.5616C34.8622 30.2841 34.8414 30.0453 34.8354 29.8446C34.8299 29.6442 34.8324 29.3606 34.8444 28.9948C34.8567 28.6288 34.8622 28.3812 34.8622 28.2513C34.8622 27.8028 34.8709 27.316 34.8885 26.7909C34.9063 26.2657 34.9208 25.8496 34.9329 25.543C34.9449 25.2362 34.9505 24.9115 34.9505 24.5693C34.9505 24.227 34.9297 23.9586 34.8885 23.7638C34.8478 23.5692 34.7854 23.3804 34.7031 23.1973C34.6203 23.0144 34.4992 22.8729 34.3402 22.7724C34.1809 22.6721 33.9829 22.5925 33.7472 22.5333C33.1216 22.3918 32.3251 22.3152 31.3572 22.3033C29.1622 22.2797 27.7518 22.4215 27.1263 22.7283C26.8785 22.858 26.6542 23.0351 26.4537 23.2592C26.2412 23.5189 26.2116 23.6607 26.365 23.684C27.0732 23.7901 27.5745 24.0439 27.8696 24.4451L27.9759 24.6577C28.0586 24.8111 28.1412 25.0827 28.2239 25.472C28.3064 25.8614 28.3597 26.2922 28.3831 26.764C28.442 27.6257 28.442 28.3633 28.3831 28.9768C28.324 29.5907 28.2682 30.0685 28.2149 30.4108C28.1617 30.753 28.0821 31.0304 27.9759 31.2427C27.8696 31.4552 27.7988 31.585 27.7634 31.6321C27.728 31.6793 27.6985 31.709 27.675 31.7206C27.5216 31.7794 27.3621 31.8093 27.197 31.8093C27.0316 31.8093 26.8311 31.7266 26.5951 31.5613C26.3592 31.396 26.1143 31.169 25.8606 30.8798C25.6068 30.5905 25.3206 30.1863 25.0018 29.6671C24.6833 29.1479 24.3528 28.5343 24.0106 27.8262L23.7274 27.3127C23.5504 26.9823 23.3086 26.5013 23.0017 25.87C22.6947 25.2385 22.4233 24.6277 22.1874 24.0376C22.0931 23.7898 21.9514 23.6011 21.7626 23.4713L21.674 23.418C21.6151 23.3709 21.5205 23.3208 21.3908 23.2675C21.2609 23.2143 21.1254 23.1761 20.9836 23.1526L16.1332 23.1878C15.6375 23.1878 15.3012 23.3001 15.1241 23.5243L15.0533 23.6304C15.0179 23.6895 15 23.7839 15 23.9138C15 24.0436 15.0354 24.203 15.1063 24.3916C15.8144 26.0558 16.5844 27.6608 17.4163 29.2067C18.2483 30.7527 18.9712 31.9981 19.5848 32.9416C20.1984 33.8859 20.8239 34.7771 21.4612 35.6147C22.0986 36.4527 22.5204 36.9897 22.7269 37.2256C22.9335 37.462 23.0958 37.6387 23.2138 37.7567L23.6565 38.1815C23.9397 38.4648 24.3556 38.8041 24.9044 39.1993C25.4533 39.5948 26.061 39.9842 26.7278 40.3681C27.3947 40.7513 28.1706 41.0641 29.0558 41.3059C29.9409 41.5481 30.8023 41.6452 31.6403 41.5984H33.6761C34.089 41.5627 34.4018 41.4329 34.6144 41.2088L34.6849 41.1201C34.7322 41.0496 34.7766 40.9402 34.8175 40.7929C34.8589 40.6454 34.8795 40.4829 34.8795 40.3061C34.8674 39.7988 34.906 39.3415 34.9943 38.9344C35.0826 38.5274 35.1831 38.2205 35.2956 38.0139C35.408 37.8074 35.5349 37.6332 35.6761 37.4919C35.8175 37.3504 35.9184 37.2646 35.9775 37.2351C36.0363 37.2054 36.0832 37.1853 36.1186 37.1732C36.4019 37.0788 36.7352 37.1702 37.1191 37.4478C37.5027 37.7251 37.8625 38.0676 38.1991 38.4746C38.5355 38.8819 38.9396 39.339 39.4116 39.8463C39.8838 40.3539 40.2968 40.7312 40.6507 40.9794L41.0046 41.1918C41.241 41.3335 41.5478 41.4634 41.9256 41.5814C42.3026 41.6993 42.6329 41.7288 42.9166 41.6698L47.4482 41.5992C47.8965 41.5992 48.2452 41.5249 48.4926 41.3777C48.7405 41.2302 48.8878 41.0677 48.9353 40.8909C48.9826 40.7139 48.9852 40.5132 48.9443 40.2887C48.9023 40.0648 48.8609 39.9083 48.8198 39.8198Z" fill="white"/>
</g>
<defs>
<clipPath id="clip0">
<rect width="34" height="34" fill="white" transform="translate(15 15)"/>
</clipPath>
</defs>
</svg>
