<svg xmlns="http://www.w3.org/2000/svg" width="30.833cm" height="192"><defs><filter id="a"><feFlood flood-color="#B1B1B1" flood-opacity="1" result="floodOut"/><feComposite operator="atop" in="floodOut" in2="SourceGraphic" result="compOut"/><feBlend in="compOut" in2="SourceGraphic"/></filter></defs><path fill-rule="evenodd" fill="#212121" d="M806.459 143.222c-36.87 0-66.76-29.594-66.76-66.101 0-20.308 9.276-38.444 23.832-50.567 2.3-3.084 6.426-5.163 8.266-5.466 5.395-.89 9.903 4.39 9.903 9.805 0 3.918-2.189 5.928-5.691 8.844-11.043 8.823-18.183 22.239-18.183 37.384 0 26.594 21.774 48.153 48.633 48.153s48.633-21.559 48.633-48.153c0-14.706-6.737-27.779-17.236-36.606-4.62-3.42-8.053-4.833-8.053-9.622 0-5.415 4.433-9.805 9.903-9.805a9.9 9.9 0 0 1 8.064 4.146c15.489 12.103 25.448 30.834 25.448 51.887 0 36.507-29.889 66.101-66.759 66.101zm-.007-63.892a8.342 8.342 0 0 1-8.342-8.342V23.8a8.342 8.342 0 0 1 16.684 0v47.188a8.342 8.342 0 0 1-8.342 8.342zm-88.305 8.809h-55.282c3.365 9.601 12.338 16.481 23.074 16.481 3.686 0 10.255-.319 17.947-5.28 3.685-2.4 8.652-.16 10.575 3.68 1.923 4.001-.16 8.161-3.845 10.561-10.576 7.041-18.748 6.881-24.677 6.881-22.273 0-40.219-18.082-40.219-40.164 0-22.242 17.946-40.163 40.219-40.163 19.389 0 40.22 14.081 40.22 40.163 0 4.321-3.526 7.841-8.012 7.841zm-32.208-32.163c-10.736 0-19.709 6.881-23.074 16.322h46.308c-3.364-11.201-13.62-16.322-23.234-16.322zm-62.321 12.321c-4.326-7.52-12.338-12.161-21.151-12.161-13.3 0-24.356 10.881-24.356 24.322 0 13.281 11.056 24.323 24.356 24.323 8.332 0 16.023-4.161 20.51-11.201 2.404-3.681 7.371-4.641 11.057-2.401 3.685 2.401 4.646 7.361 2.243 11.041-7.371 11.521-20.03 18.402-33.81 18.402-22.113 0-40.059-18.082-40.059-40.164 0-22.242 17.946-40.163 40.059-40.163 14.421 0 27.721 7.68 34.931 20.002 2.244 3.84.802 8.64-2.884 10.881-3.845 2.08-8.653.8-10.896-2.881zm-78.192 52.325c-4.487 0-8.012-3.521-8.012-8.001V48.136c0-4.321 3.525-7.841 8.012-7.841 4.326 0 7.851 3.52 7.851 7.841v64.485c0 4.48-3.525 8.001-7.851 8.001zm0-96.328c-2.083 0-4.166-.801-5.609-2.241-1.442-1.44-2.403-3.52-2.403-5.6 0-2.08.961-4.161 2.403-5.601 1.443-1.44 3.526-2.4 5.609-2.4s4.166.96 5.608 2.4c1.442 1.44 2.243 3.521 2.243 5.601s-.801 4.16-2.243 5.6c-1.442 1.44-3.525 2.241-5.608 2.241zm-42.456 90.887c-1.281 3.201-4.326 5.281-7.531 5.281h-.16c-3.365 0-6.409-2.24-7.531-5.281l-24.036-64.005c-1.602-4.161.481-8.801 4.647-10.241 4.166-1.6 8.653.48 10.255 4.64l16.825 44.644 16.665-44.644c1.602-4.16 6.089-6.24 10.255-4.64 4.166 1.44 6.249 6.08 4.647 10.241l-24.036 64.005zm-50.943-27.042h-55.281c3.364 9.601 12.338 16.481 23.074 16.481 3.685 0 10.255-.319 17.946-5.28 3.686-2.4 8.653-.16 10.576 3.68 1.923 4.001-.16 8.161-3.846 10.561-10.576 7.041-18.748 6.881-24.676 6.881-22.273 0-40.22-18.082-40.22-40.164 0-22.242 17.947-40.163 40.22-40.163 19.388 0 40.219 14.081 40.219 40.163 0 4.321-3.525 7.841-8.012 7.841zM419.82 55.976c-10.736 0-19.71 6.881-23.074 16.322h46.308c-3.365-11.201-13.62-16.322-23.234-16.322zm-89.724 64.166c-22.273 0-40.219-18.082-40.219-40.164 0-22.242 17.946-40.163 40.219-40.163 9.134 0 17.626 3.04 24.356 8.16V8.132c0-4.32 3.525-7.841 7.852-7.841 4.486 0 8.012 3.521 8.012 7.841v71.846c0 22.082-18.107 40.164-40.22 40.164zm24.356-40.324c0-13.281-10.896-24.162-24.356-24.162S305.74 66.537 305.74 79.978c0 13.281 10.896 24.323 24.356 24.323s24.356-10.881 24.356-24.323v-.16zm-92.286 35.363c-1.282 3.041-4.327 5.281-7.692 5.281s-6.409-2.08-7.531-5.281l-16.664-44.324-16.505 44.324c-1.281 3.041-4.326 5.281-7.691 5.281s-6.409-2.08-7.531-5.281l-24.036-64.005c-1.602-4.161.481-8.801 4.647-10.241 4.006-1.6 8.653.48 10.095 4.64l16.825 44.644 16.665-44.324c.801-2.24 2.403-4.16 4.807-4.96a6.435 6.435 0 0 1 2.403-.48H231.721s0 .16.16.16h.32c.161 0 .161 0 .321.16h.321c.16.16.16.16.32.16 2.243.8 4.006 2.72 4.647 4.96l16.664 44.324 16.825-44.644c1.603-4.16 6.089-6.24 10.256-4.64 4.005 1.44 6.088 6.08 4.646 10.241l-24.035 64.005zm-99.335-27.042h-55.282c3.365 9.601 12.339 16.481 23.075 16.481 3.685 0 10.255-.319 17.946-5.28 3.685-2.4 8.653-.16 10.576 3.68 1.923 4.001-.16 8.161-3.846 10.561-10.576 7.041-18.748 6.881-24.676 6.881-22.273 0-40.22-18.082-40.22-40.164 0-22.242 17.947-40.163 40.22-40.163 19.388 0 40.219 14.081 40.219 40.163 0 4.321-3.525 7.841-8.012 7.841zm-32.207-32.163c-10.736 0-19.71 6.881-23.075 16.322h46.309c-3.365-11.201-13.62-16.322-23.234-16.322zM72.95 120.462c-4.326 0-7.852-3.52-7.852-8.001V80.298c0-13.441-10.896-24.322-24.356-24.322S16.386 66.857 16.386 80.298v32.163c0 4.481-3.525 8.001-8.012 8.001-4.326 0-7.851-3.52-7.851-8.001V80.298c0-22.242 18.107-40.163 40.219-40.163 22.113 0 40.22 17.921 40.22 40.163v32.163c0 4.481-3.526 8.001-8.012 8.001z" filter="url(#a)"/></svg>