<svg 
 xmlns="http://www.w3.org/2000/svg"
 xmlns:xlink="http://www.w3.org/1999/xlink"
 width="10.125cm" height="2.858cm">
<path fill-rule="evenodd"  fill="rgb(3, 78, 162)"
 d="M286.201,11.176 L262.166,75.181 C260.884,78.222 257.839,80.462 254.474,80.462 C251.109,80.462 248.065,78.382 246.943,75.181 L230.279,30.857 L213.774,75.181 C212.493,78.222 209.448,80.462 206.083,80.462 C202.718,80.462 199.674,78.382 198.552,75.181 L174.516,11.176 C172.914,7.015 174.997,2.375 179.163,0.935 C183.169,-0.665 187.816,1.415 189.258,5.575 L206.083,50.219 L222.748,5.895 C223.549,3.655 225.151,1.735 227.555,0.935 C228.356,0.615 229.157,0.455 229.958,0.455 C230.118,0.455 230.279,0.455 230.279,0.455 C230.439,0.455 230.439,0.455 230.439,0.455 C230.599,0.455 230.599,0.455 230.759,0.455 C230.759,0.455 230.759,0.455 230.920,0.455 L231.080,0.455 C231.240,0.455 231.240,0.455 231.240,0.455 C231.400,0.455 231.400,0.455 231.400,0.455 C231.561,0.455 231.561,0.455 231.721,0.455 C231.721,0.455 231.721,0.615 231.881,0.615 L232.041,0.615 C232.201,0.615 232.201,0.615 232.201,0.615 C232.362,0.615 232.362,0.615 232.522,0.775 C232.682,0.775 232.843,0.775 232.843,0.775 C233.003,0.935 233.003,0.935 233.163,0.935 C235.406,1.735 237.169,3.655 237.810,5.895 L254.474,50.219 L271.299,5.575 C272.902,1.415 277.388,-0.665 281.555,0.935 C285.560,2.375 287.643,7.015 286.201,11.176 ZM162.831,48.139 L107.549,48.139 C110.914,57.740 119.888,64.620 130.624,64.620 C134.309,64.620 140.879,64.301 148.570,59.340 C152.255,56.940 157.223,59.180 159.146,63.020 C161.069,67.021 158.986,71.181 155.300,73.581 C144.724,80.622 136.552,80.462 130.624,80.462 C108.351,80.462 90.404,62.380 90.404,40.298 C90.404,18.056 108.351,0.135 130.624,0.135 C150.012,0.135 170.843,14.216 170.843,40.298 C170.843,44.619 167.318,48.139 162.831,48.139 ZM130.624,15.976 C119.888,15.976 110.914,22.857 107.549,32.298 L153.858,32.298 C150.493,21.097 140.238,15.976 130.624,15.976 ZM72.950,80.462 C68.624,80.462 65.098,76.942 65.098,72.461 L65.098,40.298 C65.098,26.857 54.202,15.976 40.742,15.976 C27.282,15.976 16.386,26.857 16.386,40.298 L16.386,72.461 C16.386,76.942 12.861,80.462 8.374,80.462 C4.048,80.462 0.523,76.942 0.523,72.461 L0.523,40.298 C0.523,18.056 18.630,0.135 40.742,0.135 C62.855,0.135 80.962,18.056 80.962,40.298 L80.962,72.461 C80.962,76.942 77.436,80.462 72.950,80.462 Z"/>
</svg>