<svg xmlns="http://www.w3.org/2000/svg" width="4.763cm" height="4.339cm"><path fill-rule="evenodd" fill="#034EA2" d="M134.218 56.121c0 36.507-29.889 66.101-66.759 66.101-36.87 0-66.76-29.594-66.76-66.101 0-20.308 9.276-38.444 23.832-50.567 2.3-3.084 6.426-5.163 8.266-5.466 5.395-.89 9.903 4.39 9.903 9.805 0 3.918-2.189 5.928-5.691 8.844-11.043 8.823-18.183 22.239-18.183 37.384 0 26.594 21.774 48.153 48.633 48.153s48.633-21.559 48.633-48.153c0-14.706-6.737-27.779-17.236-36.606-4.62-3.42-8.053-4.833-8.053-9.622 0-5.415 4.433-9.805 9.903-9.805a9.9 9.9 0 0 1 8.064 4.146c15.489 12.103 25.448 30.834 25.448 51.887z"/></svg>