<?xml version="1.0" standalone="no"?>
<!DOCTYPE svg PUBLIC "-//W3C//DTD SVG 1.1//EN" "http://www.w3.org/Graphics/SVG/1.1/DTD/svg11.dtd" >
<svg xmlns="http://www.w3.org/2000/svg" xmlns:xlink="http://www.w3.org/1999/xlink" version="1.1">
<metadata>
Created by FontForge 20170731 at Mon Jan 29 13:05:55 2018
 By Aleksey,,,
Modern and elegant sans serif font family.
</metadata>
<defs>
<font id="Mont-BookItalic" horiz-adv-x="0" >
  <font-face 
    font-family="Mont Book Italic"
    font-weight="500"
    font-style="italic"
    font-stretch="normal"
    units-per-em="1000"
    panose-1="0 0 6 0 0 0 0 0 0 0"
    ascent="800"
    descent="-200"
    x-height="540"
    cap-height="700"
    bbox="-745 -298 1125 980"
    underline-thickness="50"
    underline-position="-200"
    slope="-11.31"
    unicode-range="U+0020-25CA"
  />
<missing-glyph horiz-adv-x="460" 
d="M377 730v-920h-291v920h291zM306 668h-151v-30h59v-34h-60v-30h152v30h-60v34h60v30zM246 550h-92v-96h152v31h-60v65zM214 518v-33h-30v33h30zM306 429h-152v-30h60v-34h-60v-31h92v65h60v30zM306 374h-30v-61h-122v-31h152v92zM306 262h-92v-52h32v21h30v-43h-92v74
h-30v-104h152v104zM306 103h-152v-104h152v104zM276 72v-43h-92v43h92zM306 -23h-152v-30h64l-64 -43v-31h152v31h-93l64 43h29v30z" />
    <glyph glyph-name="f_f.liga" unicode="ff" horiz-adv-x="718" 
d="M735 703q-69 0 -101 -27.5t-46 -95.5l-9 -42h179l-10 -52h-177l-98 -486h-62l98 486h-278l-97 -486h-62l97 486h-111l10 52h111l9 45q19 92 65.5 131.5t139.5 39.5h60l-9 -51h-49q-69 0 -101 -27.5t-46 -95.5l-9 -42h280l9 45q19 92 65.5 131.5t139.5 39.5h67l-9 -51h-56
z" />
    <glyph glyph-name="f_f_t.liga" unicode="fft" horiz-adv-x="1050" 
d="M1072 485h-186q-9 -48 -24 -124q-40 -197 -40 -216q0 -28 11.5 -47.5t34 -29.5t53.5 -10h67l-11 -59h-70q-70 0 -109.5 35.5t-39.5 98.5q0 18 6.5 53.5t37.5 189.5q4 21 7 34t7 34.5t8 40.5h-122v1h-131l-98 -486h-62l98 486h-278l-97 -486h-62l97 486h-111l10 52h111
l9 45q19 92 65.5 131.5t139.5 39.5h67l-9 -51h-56q-69 0 -101 -27.5t-46 -95.5l-9 -42h280l9 45q19 92 65.5 131.5t139.5 39.5h67l-9 -51h-56q-69 0 -101 -27.5t-46 -95.5l-9 -42h256q14 69 32 159h62q-17 -84 -32 -159h185z" />
    <glyph glyph-name="f_t.liga" unicode="ft" horiz-adv-x="732" 
d="M754 485h-185q-10 -48 -25 -124q-40 -197 -40 -216q0 -42 26 -64.5t73 -22.5h68l-12 -59h-70q-70 0 -109.5 35.5t-39.5 98.5q0 18 6.5 53.5t37.5 190.5q14 67 22 108h-275l-97 -485h-62l97 485h-111l10 53h111l9 45q19 91 66 131t139 40h67l-9 -51h-56
q-68 0 -100.5 -27.5t-46.5 -95.5l-9 -42h278q17 86 32 159h62q-16 -78 -32 -159h185z" />
    <glyph glyph-name="f_t_t.liga" unicode="ftt" horiz-adv-x="1093" 
d="M1115 485h-187q-10 -48 -25 -124q-40 -197 -40 -216q0 -28 11.5 -47.5t34 -29.5t53.5 -10h68l-12 -59h-70q-70 0 -109.5 35.5t-39.5 98.5q0 18 6.5 53.5t37.5 189.5q5 21 7.5 34t7 34.5t7.5 40.5h-300q-9 -48 -25 -124q-39 -197 -39 -216q0 -28 11.5 -47.5t33.5 -29.5
t54 -10h67l-11 -59h-70q-70 0 -109.5 35.5t-39.5 98.5q0 18 6.5 53.5t37.5 189.5q14 67 22 109h-272l-97 -485h-62l97 485h-111l10 53h111l9 45q19 92 65.5 131.5t139.5 39.5h67l-9 -51h-56q-69 0 -101 -27.5t-46 -95.5l-9 -42h275q14 69 32 159h62q-17 -84 -32 -159h300
q14 69 32 159h62q-17 -84 -32 -159h187z" />
    <glyph glyph-name="r_t.liga" unicode="rt" horiz-adv-x="777" 
d="M798 485h-184q-10 -52 -26 -131q-38 -188 -38 -208q0 -29 11.5 -48.5t34 -30t54.5 -10.5h66l-11 -58h-73q-70 0 -108 34.5t-38 97.5q0 17 6 51.5t38 193.5q14 68 22 109h-113l11 54h113q14 72 32 158h62q-16 -77 -32 -158h184zM181 441q79 101 202 101h35l-12 -59h-40
q-75 0 -130 -47t-74 -127l-62 -309h-62l108 540h45z" />
    <glyph glyph-name="t_f.liga" unicode="tf" horiz-adv-x="706" 
d="M725 713q-46 0 -75 -12t-46 -38.5t-27 -72.5l-10 -52h179l-10 -53h-178l-97 -485h-62l97 485h-290q-15 -77 -36 -180q-28 -142 -28 -159q0 -28 11.5 -48t34 -30t54.5 -10h61l-12 -59h-64q-70 0 -109.5 35.5t-39.5 98.5v10t1.5 13t2.5 15.5t4 22.5t6 30.5t8.5 43l11 55
t14.5 72t18 89.5h-93l2 11l176 148h9l-21 -105h290l11 55q18 91 65.5 131t139.5 40h67l-10 -51h-55z" />
    <glyph glyph-name=".notdef" horiz-adv-x="460" 
d="M377 730v-920h-291v920h291zM306 668h-151v-30h59v-34h-60v-30h152v30h-60v34h60v30zM246 550h-92v-96h152v31h-60v65zM214 518v-33h-30v33h30zM306 429h-152v-30h60v-34h-60v-31h92v65h60v30zM306 374h-30v-61h-122v-31h152v92zM306 262h-92v-52h32v21h30v-43h-92v74
h-30v-104h152v104zM306 103h-152v-104h152v104zM276 72v-43h-92v43h92zM306 -23h-152v-30h64l-64 -43v-31h152v31h-93l64 43h29v30z" />
    <glyph glyph-name=".null" 
 />
    <glyph glyph-name="nonmarkingreturn" horiz-adv-x="333" 
 />
    <glyph glyph-name="space" unicode=" " horiz-adv-x="272" 
 />
    <glyph glyph-name="exclam" unicode="!" horiz-adv-x="266" 
d="M84 184l107 536h62l-107 -536h-62zM40 0l17 87h77l-18 -87h-76z" />
    <glyph glyph-name="quotedbl" unicode="&#x22;" horiz-adv-x="338" 
d="M108 465l47 237h58l-47 -237h-58zM244 465l48 237h58l-47 -237h-59z" />
    <glyph glyph-name="numbersign" unicode="#" horiz-adv-x="636" 
d="M631 446h-97l-62 -176h101l-11 -54h-109l-75 -215h-58l74 215h-216l-77 -215h-58l77 215h-90l11 54h99l63 176h-104l11 52h111l73 202h58l-72 -202h213l71 202h58l-71 -202h90zM414 270l61 176h-214l-63 -176h216z" />
    <glyph glyph-name="dollar" unicode="$" horiz-adv-x="551" 
d="M536 486h-60q12 64 -25.5 100t-105.5 36q-81 0 -134.5 -40t-53.5 -103q0 -20 9 -36t21 -25.5t35.5 -18t39.5 -13t47 -11.5q23 -5 39 -9t37.5 -11.5t36.5 -15t30.5 -19.5t25 -25.5t15.5 -32t6 -39.5q0 -99 -70 -163t-179 -70l-17 -83h-53l17 84q-82 7 -129 50.5t-47 115.5
q0 24 4 45h62q-14 -69 28 -110.5t120 -41.5q84 0 142 46t58 113q0 20 -9 36.5t-21.5 26.5t-36 19t-41 14t-47.5 12q-33 7 -54.5 13.5t-49 18.5t-43.5 26.5t-27.5 37t-11.5 51.5q0 94 65.5 152.5t171.5 64.5l16 80h54l-16 -81q72 -7 114 -47t42 -102q0 -22 -5 -45z" />
    <glyph glyph-name="percent" unicode="%" horiz-adv-x="743" 
d="M204 383q-56 0 -89.5 32t-33.5 84q0 73 50.5 124t125.5 51q55 0 88.5 -32.5t33.5 -84.5q0 -73 -50.5 -123.5t-124.5 -50.5zM81 0l535 665h63l-535 -665h-63zM210 431q49 0 84.5 35t35.5 86q0 33 -21.5 53.5t-57.5 20.5q-50 0 -85 -35t-35 -85q0 -23 9.5 -40t27.5 -26
t42 -9zM515 -4q-55 0 -89 32t-34 83q0 72 50 122.5t124 50.5q56 0 89.5 -32t33.5 -84q0 -72 -50 -122t-124 -50zM521 44q49 0 83.5 35t34.5 83q0 34 -21 54t-57 20q-50 0 -84 -34.5t-34 -84.5q0 -33 21 -53t57 -20z" />
    <glyph glyph-name="ampersand" unicode="&#x26;" horiz-adv-x="606" 
d="M563 304q-23 -114 -91 -194q36 -50 81 -110h-68q-29 39 -53 71q-95 -82 -225 -82q-83 0 -133 41t-50 109q0 28 7 54.5t21 49t31 41.5t40 37t45 32.5t50 29.5q-51 92 -51 152q0 80 54.5 128t142.5 48q66 0 105.5 -32t39.5 -83q0 -32 -13.5 -62t-32.5 -52t-49.5 -45.5
t-55.5 -38.5t-61 -34q48 -79 143 -210q52 64 69 150h54zM359 661q-60 0 -97.5 -32t-37.5 -83q0 -50 46 -135q26 14 36.5 20t34.5 20t35.5 23t29 24t25.5 28t14.5 30t6.5 34q0 21 -11 37t-32.5 25t-49.5 9zM216 46q104 0 184 68q-104 143 -154 223q-36 -20 -61.5 -37
t-50.5 -40.5t-37.5 -51.5t-12.5 -61q0 -46 35 -73.5t97 -27.5z" />
    <glyph glyph-name="quotesingle" unicode="'" horiz-adv-x="202" 
d="M108 465l47 237h58l-47 -237h-58z" />
    <glyph glyph-name="parenleft" unicode="(" horiz-adv-x="284" 
d="M113 -127q-65 131 -65 298q0 168 66 330.5t183 293.5h70q-117 -127 -187.5 -291.5t-70.5 -326.5q0 -169 73 -304h-69z" />
    <glyph glyph-name="parenright" unicode=")" horiz-adv-x="284" 
d="M-58 -127q58 62 105.5 135.5t81.5 152.5t52.5 163.5t18.5 165.5q0 168 -72 305h68q66 -134 66 -300q0 -167 -67 -330t-183 -292h-70z" />
    <glyph glyph-name="asterisk" unicode="*" horiz-adv-x="387" 
d="M403 581l-119 -37l52 -92l-41 -30l-53 96l-94 -98l-35 32l93 95l-102 37l25 45l101 -37l22 115h49l-23 -115l116 37z" />
    <glyph glyph-name="plus" unicode="+" horiz-adv-x="519" 
d="M507 374l-12 -57h-196l-41 -204h-61l41 204h-196l12 57h196l40 199h61l-40 -199h196z" />
    <glyph glyph-name="comma" unicode="," horiz-adv-x="217" 
d="M1 -121l8 38q47 20 60 83h-48l17 86h84l-17 -84q-19 -95 -104 -123z" />
    <glyph glyph-name="hyphen" unicode="-" horiz-adv-x="460" 
d="M69 249l12 60h315l-13 -60h-314z" />
    <glyph glyph-name="period" unicode="." horiz-adv-x="209" 
d="M22 0l17 87h76l-17 -87h-76z" />
    <glyph glyph-name="slash" unicode="/" horiz-adv-x="429" 
d="M-29 -64l452 825h65l-452 -825h-65z" />
    <glyph glyph-name="zero" unicode="0" horiz-adv-x="619" 
d="M257 -11q-46 0 -83.5 16.5t-62.5 47t-38 75t-13 99.5q0 83 21.5 162.5t61.5 144t104 103.5t141 39q94 0 146 -63t52 -174q0 -83 -22 -162.5t-62.5 -144t-104 -104t-140.5 -39.5zM265 48q61 0 112 35.5t82 92t48 123.5t17 135q0 57 -16.5 98.5t-49 63t-78.5 21.5
q-50 0 -93 -23t-73 -61.5t-51.5 -88.5t-31.5 -104t-10 -109q0 -87 37.5 -135t106.5 -48z" />
    <glyph glyph-name="one" unicode="1" horiz-adv-x="315" 
d="M97 665h196l-133 -665h-61l123 611h-135z" />
    <glyph glyph-name="two" unicode="2" horiz-adv-x="515" 
d="M497 525q0 -26 -6 -52t-21.5 -54t-30 -51t-45 -55t-51.5 -54t-63.5 -60t-67.5 -60t-77 -66q-15 -13 -23 -20h324l-10 -55h-440l4 23q21 18 61 52q62 52 92.5 78t80 70t73.5 69t56.5 61t47 61.5t25.5 54t11 53.5q0 45 -30 71.5t-82 26.5q-65 0 -108 -35t-56 -93l-4 -17
h-60l4 17q21 91 81 138.5t152 47.5q74 0 118.5 -42t44.5 -109z" />
    <glyph glyph-name="three" unicode="3" horiz-adv-x="523" 
d="M525 665l-3 -16l-223 -238q74 -6 118 -53.5t44 -117.5q0 -105 -74.5 -178t-185.5 -73q-82 0 -131.5 47.5t-49.5 123.5q0 9 2 29h59q-8 -63 28.5 -102.5t100.5 -39.5q82 0 137 56.5t55 133.5q0 36 -17.5 64.5t-49 44t-73.5 15.5h-66l2 15l221 234h-288l11 55h383z" />
    <glyph glyph-name="four" unicode="4" horiz-adv-x="530" 
d="M492 199l-11 -54h-77l-29 -145h-58l29 145h-348l3 17l341 505h63l-317 -468h270l54 223h48l-45 -223h77z" />
    <glyph glyph-name="five" unicode="5" horiz-adv-x="518" 
d="M498 610h-271l-61 -196h113q84 0 134.5 -49.5t50.5 -126.5q0 -102 -75 -175.5t-184 -73.5q-81 0 -131.5 47t-50.5 121q0 15 3 32h59q-10 -63 27 -103t101 -40q80 0 135.5 55.5t55.5 133.5q0 55 -38 90t-100 35h-163l-8 11l91 294h323z" />
    <glyph glyph-name="six" unicode="6" horiz-adv-x="543" 
d="M316 424q80 0 134 -50t54 -128q0 -108 -79.5 -182.5t-196.5 -74.5q-87 0 -140.5 51t-53.5 130q0 63 32 127t88 138l182 237h67q-196 -257 -213 -281q59 33 126 33zM236 46q89 0 149 58.5t60 138.5q0 58 -39.5 93.5t-104.5 35.5q-87 0 -148 -58t-61 -138q0 -58 39.5 -94
t104.5 -36z" />
    <glyph glyph-name="seven" unicode="7" horiz-adv-x="486" 
d="M99 665h440l-3 -12l-395 -653h-63l371 611h-361z" />
    <glyph glyph-name="eight" unicode="8" horiz-adv-x="568" 
d="M422 354q25 -11 42.5 -31t27 -45.5t9.5 -55.5q0 -69 -35.5 -122.5t-96.5 -82t-137 -28.5q-90 0 -143.5 45t-53.5 119q0 48 19 89.5t52 72t78 47.5q-59 35 -59 114q0 90 66.5 145t170.5 55q52 0 92 -18t61.5 -50.5t21.5 -75.5q0 -55 -32 -104.5t-83 -73.5zM355 624
q-50 0 -89 -18.5t-60.5 -51t-21.5 -73.5q0 -23 9 -41.5t25 -31t38.5 -19t49.5 -6.5q73 0 122.5 41.5t49.5 104.5q0 43 -33 69t-90 26zM238 43q89 0 145.5 48.5t56.5 123.5q0 54 -39 84.5t-104 30.5q-86 0 -144 -48.5t-58 -124.5q0 -52 38.5 -83t104.5 -31z" />
    <glyph glyph-name="nine" unicode="9" horiz-adv-x="542" 
d="M341 676q87 0 140.5 -50.5t53.5 -129.5q0 -108 -121 -266l-181 -234h-67q182 236 208 273q-56 -29 -122 -29q-82 0 -134 51t-52 128q0 109 79.5 183t195.5 74zM268 293q87 0 148 57t61 139q0 16 -3.5 31t-10 28t-15.5 24t-21.5 19.5t-26.5 14.5t-31 9.5t-35 3.5
q-89 0 -149.5 -58.5t-60.5 -138.5q0 -58 39.5 -93.5t104.5 -35.5z" />
    <glyph glyph-name="colon" unicode=":" horiz-adv-x="222" 
d="M96 384l18 87h76l-18 -87h-76zM20 0l17 87h76l-17 -87h-76z" />
    <glyph glyph-name="semicolon" unicode=";" horiz-adv-x="231" 
d="M102 384l17 88h76l-17 -88h-76zM0 -121l8 38q47 20 61 83h-48l17 86h83l-16 -84q-19 -95 -105 -123z" />
    <glyph glyph-name="less" unicode="&#x3c;" horiz-adv-x="523" 
d="M527 616l-14 -75l-374 -208l291 -205l-14 -64l-376 266l2 13z" />
    <glyph glyph-name="equal" unicode="=" horiz-adv-x="632" 
d="M105 427l12 56h480l-12 -56h-480zM61 206l12 56h480l-12 -56h-480z" />
    <glyph glyph-name="greater" unicode="&#x3e;" horiz-adv-x="523" 
d="M134 616l376 -273l-3 -13l-483 -266l15 76l371 204l-288 209z" />
    <glyph glyph-name="question" unicode="?" horiz-adv-x="501" 
d="M185 184q15 73 41 112t90 84q32 22 51.5 38t41.5 40.5t33 53t11 62.5q0 51 -34 79.5t-92 28.5q-66 0 -116 -36.5t-67 -96.5h-60q23 89 92 140t158 51q80 0 130 -43.5t50 -117.5q0 -41 -11.5 -75.5t-35 -63t-48 -49t-61.5 -45.5q-56 -40 -77.5 -71.5t-33.5 -90.5h-62z
M146 0l17 87h76l-17 -87h-76z" />
    <glyph glyph-name="at" unicode="@" horiz-adv-x="1017" 
d="M582 690q119 0 207.5 -42.5t135.5 -120.5t47 -181q0 -79 -23.5 -148t-72 -114t-112.5 -45q-44 0 -74.5 24t-36.5 64q-24 -31 -56 -54t-70.5 -35.5t-80.5 -12.5q-83 0 -134.5 51.5t-51.5 131.5q0 110 79 191.5t192 81.5q58 0 101 -26t64 -72l25 77h35q-8 -38 -15.5 -76
t-12 -61.5t-9.5 -47t-7.5 -36.5l-5 -26t-3.5 -19.5l-2 -13t-1 -10v-7.5q0 -35 18.5 -55.5t51.5 -20.5q24 0 46 11t38 30t29.5 44t21.5 54t12.5 59.5t4.5 60.5q0 89 -40 155.5t-116.5 103.5t-180.5 37t-197 -38t-159 -102.5t-105 -153.5t-39 -188q0 -134 86.5 -212t237.5 -78
q113 0 199 50l-10 -51q-90 -48 -195 -48q-169 0 -268 93t-99 248q0 110 42 208t114.5 168.5t174 111t215.5 40.5zM457 78q89 0 150.5 64.5t61.5 151.5q0 40 -17 70.5t-49 47.5t-74 17q-88 0 -150.5 -64.5t-62.5 -150.5q0 -40 17.5 -70.5t49.5 -48t74 -17.5z" />
    <glyph glyph-name="A" unicode="A" horiz-adv-x="690" 
d="M551 0l-41 183h-357l-113 -183h-72l432 700h58l159 -700h-66zM413 612l-226 -372h309z" />
    <glyph glyph-name="B" unicode="B" horiz-adv-x="648" 
d="M489 362q39 -17 61 -53t22 -83q0 -95 -70.5 -160.5t-173.5 -65.5h-281l140 700h272q70 0 114.5 -42t44.5 -105q0 -59 -37.5 -113t-91.5 -78zM549 542q0 42 -28.5 69.5t-74.5 27.5h-208l-49 -245h211q28 0 55.5 12t48 32t33 47.5t12.5 56.5zM333 61q73 0 122 48.5
t49 115.5q0 48 -31.5 79t-82.5 31h-213l-55 -274h211z" />
    <glyph glyph-name="C" unicode="C" horiz-adv-x="776" 
d="M356 -11q-135 0 -215.5 78t-80.5 205q0 118 57 218.5t157.5 160.5t220.5 60q115 0 192.5 -64t88.5 -172h-64q-9 54 -38 93t-76 60t-108 21q-101 0 -185.5 -51.5t-132 -136.5t-47.5 -184q0 -104 62.5 -165t172.5 -61q100 0 180.5 49t126.5 136h68q-36 -78 -93 -134
t-130 -84.5t-156 -28.5z" />
    <glyph glyph-name="D" unicode="D" horiz-adv-x="728" 
d="M404 700q134 0 215 -77.5t81 -202.5q0 -84 -33 -161.5t-89.5 -134t-136 -90.5t-167.5 -34h-227l140 700h217zM276 59q98 0 181.5 50t131 133t47.5 178q0 100 -64 161t-173 61h-159l-117 -583h153z" />
    <glyph glyph-name="E" unicode="E" horiz-adv-x="546" 
d="M563 640h-324l-50 -248h299l-12 -59h-298l-55 -272h335l-12 -61h-399l140 700h388z" />
    <glyph glyph-name="F" unicode="F" horiz-adv-x="520" 
d="M560 641h-320l-53 -264h294l-11 -57h-294l-64 -320h-64l139 700h385z" />
    <glyph glyph-name="G" unicode="G" horiz-adv-x="797" 
d="M378 279l12 59h375q-34 -158 -143.5 -253t-267.5 -95q-134 0 -213.5 79t-79.5 207q0 86 33 166t89 139t135 94t167 35q124 0 205.5 -71t83.5 -180h-64q-4 56 -33.5 98.5t-79.5 66.5t-114 24q-99 0 -182 -51.5t-129.5 -137.5t-46.5 -185q0 -51 16 -92.5t45.5 -70t73 -44
t96.5 -15.5q119 0 204 61.5t121 165.5h-303z" />
    <glyph glyph-name="H" unicode="H" horiz-adv-x="729" 
d="M650 700h64l-140 -700h-64l67 334h-399l-67 -334h-64l140 700h64l-62 -308h400z" />
    <glyph glyph-name="I" unicode="I" horiz-adv-x="266" 
d="M47 0l140 700h64l-140 -700h-64z" />
    <glyph glyph-name="J" unicode="J" horiz-adv-x="590" 
d="M212 -11q-90 0 -144 52.5t-54 138.5q0 25 7 60h62q-5 -28 -5 -49q0 -63 36.5 -101.5t101.5 -38.5q77 0 135 52.5t74 131.5l93 465h64l-94 -476q-20 -104 -95.5 -169.5t-180.5 -65.5z" />
    <glyph glyph-name="K" unicode="K" horiz-adv-x="618" 
d="M680 700l-336 -342l221 -358h-75l-205 333h-107l-67 -333h-64l140 700h64l-61 -307h104l301 307h85z" />
    <glyph glyph-name="L" unicode="L" horiz-adv-x="500" 
d="M123 59h322l-11 -59h-387l140 700h64z" />
    <glyph glyph-name="M" unicode="M" horiz-adv-x="951" 
d="M808 700h62l-21 -700h-63l17 585l-365 -561h-19l-140 562l-218 -586h-67l259 700h60l136 -555z" />
    <glyph glyph-name="N" unicode="N" horiz-adv-x="748" 
d="M668 700h65l-140 -700h-53l-311 587l-117 -587h-65l140 700h57l308 -583z" />
    <glyph glyph-name="O" unicode="O" horiz-adv-x="831" 
d="M364 -11q-137 0 -220 82.5t-83 211.5q0 115 56 213t157 156.5t224 58.5q137 0 220 -82.5t83 -211.5q0 -116 -55.5 -214t-156.5 -156t-225 -58zM374 51q101 0 185 49t131 132t47 180q0 106 -68 171.5t-180 65.5q-102 0 -186 -49t-130.5 -132t-46.5 -180
q0 -106 67.5 -171.5t180.5 -65.5z" />
    <glyph glyph-name="P" unicode="P" horiz-adv-x="605" 
d="M427 700q56 0 100 -23t67.5 -64t23.5 -92q0 -70 -35.5 -129t-97.5 -94t-136 -35h-185l-53 -263h-64l140 700h240zM351 324q84 0 143.5 58t59.5 136q0 55 -37 88t-99 33h-179l-63 -315h175z" />
    <glyph glyph-name="Q" unicode="Q" horiz-adv-x="831" 
d="M801 417q0 -111 -52 -206t-143 -153l103 -151h-72l-83 122q-88 -40 -190 -40q-137 0 -220 82.5t-83 211.5q0 115 56 213t157 156.5t224 58.5q137 0 220 -82.5t83 -211.5zM374 51q77 0 146 29l-139 204h71l120 -176q77 49 121 130t44 174q0 106 -68 171.5t-180 65.5
q-104 0 -188 -50.5t-129.5 -133t-45.5 -177.5q0 -105 67.5 -171t180.5 -66z" />
    <glyph glyph-name="R" unicode="R" horiz-adv-x="639" 
d="M631 531q0 -90 -59 -156.5t-150 -83.5l114 -291h-68l-113 287h-187l-57 -287h-64l140 700h256q84 0 136 -47t52 -122zM371 346q55 0 100 25t70 66.5t25 90.5q0 51 -35 81.5t-96 30.5h-196l-59 -294h191z" />
    <glyph glyph-name="S" unicode="S" horiz-adv-x="590" 
d="M245 -10q-99 0 -156 46t-57 129q0 23 4 46h65q-3 -18 -3 -34q0 -59 43.5 -92t114.5 -33q87 0 147 48t60 119q0 21 -9.5 38t-22.5 28t-37 20.5t-42.5 14.5t-49.5 12q-25 6 -40 10t-38 11.5t-37 15t-30.5 19t-26 25t-15.5 31.5t-6 40q0 102 76.5 164t196.5 62
q60 0 103.5 -19t66 -55t22.5 -84q0 -18 -5 -45h-63q3 16 3 31q0 52 -38 82t-102 30q-84 0 -139.5 -42.5t-55.5 -109.5q0 -20 9 -36t22 -26t37 -19.5t41.5 -14.5t48.5 -12q26 -6 41.5 -10t39 -12t37.5 -15.5t31 -19.5t26.5 -26t16 -33t6.5 -41q0 -108 -81.5 -175.5
t-203.5 -67.5z" />
    <glyph glyph-name="T" unicode="T" horiz-adv-x="539" 
d="M604 700l-12 -59h-220l-128 -641h-63l128 641h-220l12 59h503z" />
    <glyph glyph-name="U" unicode="U" horiz-adv-x="722" 
d="M310 -11q-101 0 -163.5 59t-62.5 154v15.5t1.5 17.5t3.5 21.5t6 32t8.5 43t12 60.5t15.5 78t21 102.5t26 127.5h64q-12 -64 -24.5 -126t-20 -101t-15.5 -77.5t-12.5 -60.5t-8.5 -43t-5.5 -32t-3 -21t-2 -16t-0.5 -12q0 -73 44 -116.5t120 -43.5q95 0 163.5 58.5
t87.5 153.5l87 437h64l-90 -444q-23 -120 -109.5 -193.5t-206.5 -73.5z" />
    <glyph glyph-name="V" unicode="V" horiz-adv-x="671" 
d="M660 700h74l-422 -700h-58l-148 700h67l125 -604z" />
    <glyph glyph-name="W" unicode="W" horiz-adv-x="1019" 
d="M1008 700h70l-362 -700h-55l-97 544l-311 -544h-56l-87 700h64l71 -594l329 575h25l104 -575z" />
    <glyph glyph-name="X" unicode="X" horiz-adv-x="590" 
d="M648 700l-293 -336l172 -364h-69l-149 314l-274 -314h-79l319 366l-159 334h70l135 -285l249 285h78z" />
    <glyph glyph-name="Y" unicode="Y" horiz-adv-x="648" 
d="M706 700l-348 -422l-55 -278h-66l55 278l-176 422h66l151 -362l299 362h74z" />
    <glyph glyph-name="Z" unicode="Z" horiz-adv-x="549" 
d="M601 700l-3 -13l-513 -628h401l-12 -59h-504l3 12l513 629h-372l12 59h475z" />
    <glyph glyph-name="bracketleft" unicode="[" horiz-adv-x="328" 
d="M401 737h-149l-162 -812h151l-11 -55h-209l183 920h208z" />
    <glyph glyph-name="backslash" unicode="\" horiz-adv-x="406" 
d="M248 -64l-122 825h64l123 -825h-65z" />
    <glyph glyph-name="bracketright" unicode="]" horiz-adv-x="329" 
d="M125 790h207l-184 -920h-209l11 55h151l163 812h-149z" />
    <glyph glyph-name="asciicircum" unicode="^" horiz-adv-x="522" 
d="M503 339h-66l-103 260l-208 -260h-75l293 363h13z" />
    <glyph glyph-name="underscore" unicode="_" horiz-adv-x="517" 
d="M-74 -112l12 59h516l-12 -59h-516z" />
    <glyph glyph-name="grave" unicode="`" horiz-adv-x="600" 
d="M312 605h-50l-58 152h66z" />
    <glyph glyph-name="a" unicode="a" horiz-adv-x="699" 
d="M612 540h50l-108 -540h-52l13 96q-46 -51 -108.5 -79t-134.5 -28q-68 0 -121 29t-81.5 81t-28.5 117q0 89 44 166t121 123t169 46q73 0 126.5 -32t80.5 -88zM283 48q73 0 135 38.5t97 101.5t35 134q0 77 -48.5 123.5t-129.5 46.5q-72 0 -134 -38t-98 -101t-36 -134
q0 -50 22 -89t63 -60.5t94 -21.5z" />
    <glyph glyph-name="b" unicode="b" horiz-adv-x="695" 
d="M425 551q104 0 167 -63t63 -162q0 -91 -43.5 -168t-120 -123t-168.5 -46q-71 0 -124.5 30.5t-81.5 84.5l-30 -104h-49l147 732h62l-56 -281q46 47 106 73.5t128 26.5zM325 48q72 0 134 38.5t97 101.5t35 134q0 38 -12.5 69.5t-35.5 53.5t-56 34.5t-73 12.5
q-72 0 -134.5 -39t-98 -101.5t-35.5 -132.5q0 -76 49 -123.5t130 -47.5z" />
    <glyph glyph-name="c" unicode="c" horiz-adv-x="617" 
d="M273 -11q-68 0 -121 29t-81.5 81t-28.5 118q0 88 44 165t121.5 123t169.5 46t152 -49.5t71 -133.5h-60q-15 58 -59 91t-109 33q-72 0 -134 -38.5t-97.5 -101.5t-35.5 -134q0 -75 47.5 -122.5t125.5 -47.5q70 0 127.5 33t95.5 93h65q-41 -85 -119 -135t-174 -50z" />
    <glyph glyph-name="d" unicode="d" horiz-adv-x="695" 
d="M634 732h62l-146 -732h-49l9 90q-46 -47 -107 -74t-131 -27q-68 0 -121 29t-81.5 81t-28.5 117q0 89 44 166t121 123t169 46q69 0 121 -29t80 -80zM283 50q110 0 188.5 81.5t78.5 190.5q0 76 -48.5 122t-129.5 46q-72 0 -134.5 -38.5t-98 -100.5t-35.5 -132
q0 -76 49 -122.5t130 -46.5z" />
    <glyph glyph-name="e" unicode="e" horiz-adv-x="631" 
d="M584 247h-481q-2 -16 -2 -33q0 -50 20.5 -87.5t59.5 -58t91 -20.5q133 0 212 112h70q-105 -171 -284 -171q-67 0 -119.5 29t-80.5 81t-28 118q0 87 43 164t119 123.5t166 46.5q103 0 163.5 -63t60.5 -164q0 -37 -10 -77zM367 493q-87 0 -155 -53t-96 -135h418q1 10 1 18
q0 78 -44 124t-124 46z" />
    <glyph glyph-name="f" unicode="f" horiz-adv-x="378" 
d="M395 703q-69 0 -101 -27.5t-46 -95.5l-9 -42h179l-10 -52h-177l-97 -486h-62l97 486h-111l10 52h111l9 45q19 92 65.5 131.5t139.5 39.5h67l-9 -51h-56z" />
    <glyph glyph-name="g" unicode="g" horiz-adv-x="674" 
d="M594 540h43l-93 -466q-18 -87 -60.5 -149t-107 -95t-146.5 -33q-94 0 -150.5 46t-65.5 129h62q9 -56 52 -87t110 -31q61 0 112 26.5t85 76.5t48 117l7 38q-93 -94 -225 -94q-98 0 -159 61t-61 155q0 83 42 156t115 117t159 44q69 0 121.5 -31.5t78.5 -86.5zM277 78
q52 0 99 21.5t80.5 57t52.5 82t19 95.5q0 71 -45.5 114.5t-121.5 43.5q-69 0 -128 -36.5t-92.5 -95.5t-33.5 -124q0 -71 46.5 -114.5t123.5 -43.5z" />
    <glyph glyph-name="h" unicode="h" horiz-adv-x="642" 
d="M403 551q55 0 94 -20.5t59 -59.5t20 -92q0 -8 -0.5 -16t-1.5 -17t-3.5 -24.5t-5.5 -30.5t-9 -45.5t-12 -60t-17 -82t-21 -103.5h-62q10 47 19.5 94.5t15 76.5t11.5 58t9 44.5t6 32t4 24.5t2.5 16.5t1.5 14v11.5q0 119 -127 119q-82 0 -146 -55t-80 -135l-60 -301h-62
l147 732h62l-56 -277q39 46 93.5 71t118.5 25z" />
    <glyph glyph-name="i" unicode="i" horiz-adv-x="245" 
d="M160 645l16 79h72l-16 -79h-72zM38 0l108 540h62l-108 -540h-62z" />
    <glyph glyph-name="j" unicode="j" horiz-adv-x="257" 
d="M169 645l17 79h72l-16 -79h-73zM-133 -192l11 57h24q57 0 95.5 32.5t50.5 89.5l110 553h62l-112 -563q-8 -39 -26 -70.5t-44 -53t-60 -33.5t-73 -12h-38z" />
    <glyph glyph-name="k" unicode="k" horiz-adv-x="524" 
d="M558 540l-260 -259l172 -281h-70l-155 253h-94l-51 -253h-62l147 732h62l-85 -422h83l232 230h81z" />
    <glyph glyph-name="l" unicode="l" horiz-adv-x="245" 
d="M38 0l147 732h62l-147 -732h-62z" />
    <glyph glyph-name="m" unicode="m" horiz-adv-x="952" 
d="M738 551q70 0 111.5 -42.5t41.5 -112.5q-1 -26 -36 -204q-23 -112 -39 -192h-62q16 79 38 188q24 117 29 145t5 46q0 28 -7 49t-20.5 35.5t-33.5 22.5t-45 8q-71 0 -126 -50.5t-73 -128.5q-4 -22 -12 -62t-22.5 -111t-28.5 -142h-61q16 79 38 188q23 117 28 145t5 46
q0 55 -27.5 85t-78.5 30q-71 0 -127 -51.5t-73 -131.5l-62 -311h-62l108 540h46l-7 -81q37 44 87.5 68t108.5 24t96.5 -30t50.5 -83q37 54 91.5 83.5t118.5 29.5z" />
    <glyph glyph-name="n" unicode="n" horiz-adv-x="642" 
d="M402 551q82 0 128 -46t46 -126q0 -8 -0.5 -16t-1.5 -17t-3.5 -24.5t-5.5 -30.5t-9 -45.5t-12 -60t-17 -82t-21 -103.5h-62q14 70 35 170q23 118 28.5 147.5t5.5 49.5q0 62 -33.5 94.5t-97.5 32.5q-78 0 -141 -54.5t-80 -134.5l-61 -305h-62l108 540h45l-7 -95
q39 50 95.5 78t122.5 28z" />
    <glyph glyph-name="o" unicode="o" horiz-adv-x="658" 
d="M278 -11q-70 0 -124.5 29t-83.5 81t-29 119q0 90 45.5 166.5t123.5 121.5t171 45q106 0 171 -64t65 -165q0 -90 -45 -166.5t-123.5 -121.5t-170.5 -45zM284 48q113 0 191.5 81t78.5 192q0 77 -49 124t-131 47q-74 0 -136 -37.5t-98 -100t-36 -135.5q0 -77 49.5 -124
t130.5 -47z" />
    <glyph glyph-name="p" unicode="p" horiz-adv-x="696" 
d="M426 551q104 0 166.5 -63t62.5 -163q0 -90 -43 -167t-119.5 -123t-168.5 -46q-69 0 -122 30t-81 83l-59 -294h-62l146 732h44l-7 -99q46 51 109 80.5t134 29.5zM323 48q73 0 135.5 38.5t98 101.5t35.5 134q0 76 -48 123t-128 47q-111 0 -190 -82.5t-79 -192.5
q0 -75 48 -122t128 -47z" />
    <glyph glyph-name="q" unicode="q" horiz-adv-x="696" 
d="M615 540h44l-147 -732h-62l56 279q-95 -98 -232 -98q-104 0 -168 64t-64 164q0 88 43.5 165t120.5 123t168 46q73 0 126.5 -32t79.5 -88zM283 48q73 0 134.5 38.5t96.5 101.5t35 134q0 77 -48 123.5t-128 46.5q-73 0 -135 -38.5t-97.5 -101.5t-35.5 -133q0 -50 22 -88.5
t62.5 -60.5t93.5 -22z" />
    <glyph glyph-name="r" unicode="r" horiz-adv-x="390" 
d="M383 542h47l-12 -59h-52q-75 0 -130 -47t-74 -127l-62 -309h-62l108 540h45l-10 -99q79 101 202 101z" />
    <glyph glyph-name="s" unicode="s" horiz-adv-x="508" 
d="M202 -11q-85 0 -134 37.5t-49 103.5q0 15 2 28h61q-2 -12 -2 -17q0 -47 37 -71t94 -24q74 0 121.5 33t47.5 89q0 17 -8 30t-19 21.5t-31.5 15t-36.5 10t-41 8.5q-31 5 -49 9t-44 13.5t-39.5 21t-24 31t-10.5 44.5q0 82 63.5 130.5t163.5 48.5q79 0 126.5 -35.5
t47.5 -96.5q0 -12 -3 -28h-59q2 12 2 19q0 29 -17 49t-44 28.5t-61 8.5q-71 0 -114.5 -30.5t-43.5 -79.5q0 -11 4 -20.5t9.5 -16t16.5 -12.5t20.5 -9.5t25 -7.5t26.5 -6t29 -5q26 -4 42 -7.5t39 -10t37 -15t28 -21t21 -31t7 -40.5q0 -91 -68 -143t-173 -52z" />
    <glyph glyph-name="t" unicode="t" horiz-adv-x="366" 
d="M385 484h-177q-16 -77 -36 -180q-29 -141 -29 -158q0 -43 26 -65.5t73 -22.5h64l-11 -59h-67q-70 0 -109.5 35.5t-39.5 98.5q0 5 0.5 10t1.5 13t2 15.5t4 22.5t6 30.5t8.5 43t11.5 55t15 72t18 89.5h-93l3 12l173 147h11l-21 -103h177z" />
    <glyph glyph-name="u" unicode="u" horiz-adv-x="631" 
d="M266 -11q-92 0 -145 49.5t-54 134.5q0 5 0.5 10.5t1 11.5t2 15t3 18.5t5 26.5t6.5 33t8.5 44t11 55t14 69.5t17.5 83.5h62q-9 -43 -17.5 -85t-14 -69.5t-10.5 -54.5t-8.5 -43.5t-6.5 -32t-4.5 -24l-3 -17t-2 -13.5t-0.5 -9.5v-9.5q0 -42 16.5 -72t48 -46t75.5 -16
q83 0 138 50t73 138l60 304h62l-63 -316q-22 -110 -93.5 -172.5t-181.5 -62.5z" />
    <glyph glyph-name="v" unicode="v" horiz-adv-x="565" 
d="M533 540h66l-341 -540h-55l-131 540h62l110 -458z" />
    <glyph glyph-name="w" unicode="w" horiz-adv-x="844" 
d="M815 540h63l-294 -540h-50l-84 408l-248 -408h-50l-76 540h61l61 -435l260 423h24l90 -426z" />
    <glyph glyph-name="x" unicode="x" horiz-adv-x="500" 
d="M530 540l-240 -260l149 -280h-67l-124 235l-216 -235h-76l260 282l-134 258h67l110 -215l197 215h74z" />
    <glyph glyph-name="y" unicode="y" horiz-adv-x="578" 
d="M544 540h69l-381 -576q-40 -62 -73.5 -95t-69.5 -47t-86 -14h-49l11 56h39q58 0 91 23.5t81 94.5l38 55l-143 503h65l122 -437z" />
    <glyph glyph-name="z" unicode="z" horiz-adv-x="468" 
d="M490 540l-2 -12l-404 -471h313l-11 -57h-415l3 11l404 473h-292l11 56h393z" />
    <glyph glyph-name="braceleft" unicode="{" horiz-adv-x="338" 
d="M325 783h95l-11 -55h-71q-26 0 -46 -10t-32 -27t-17 -41l-45 -226q-7 -31 -27.5 -54.5t-47.5 -32.5q18 -10 29 -30t11 -45q0 -22 -25 -138t-25 -134q0 -29 17 -44.5t48 -15.5h73l-11 -55h-90q-44 0 -72 28.5t-28 71.5q0 23 26.5 149t26.5 139q0 21 -14 35t-37 14h-11
l10 52h11q26 0 48 18.5t27 44.5l48 241q11 51 49 83t91 32z" />
    <glyph glyph-name="bar" unicode="|" horiz-adv-x="260" 
d="M9 -190l206 1030h58l-206 -1030h-58z" />
    <glyph glyph-name="braceright" unicode="}" horiz-adv-x="337" 
d="M312 358h11l-10 -52h-11q-18 0 -34 -8.5t-27 -22.5t-14 -31l-51 -253q-11 -52 -49 -84t-91 -32h-96l11 55h73q25 0 45 9.5t32.5 27t16.5 41.5l48 239q6 31 27.5 55t47.5 33q-18 8 -29 28.5t-11 44.5q0 23 23.5 134t23.5 128q0 27 -16.5 42.5t-47.5 15.5h-72l10 55h89
q44 0 72.5 -28.5t28.5 -71.5q0 -17 -25.5 -140t-25.5 -135q0 -22 14 -36t37 -14z" />
    <glyph glyph-name="asciitilde" unicode="~" horiz-adv-x="574" 
d="M388 240q-33 0 -57 15.5t-49 45.5q-22 28 -39 40t-39 12q-66 0 -84 -109h-52q30 164 144 164q35 0 60 -16.5t50 -49.5q20 -25 36 -36.5t37 -11.5q31 0 51 26.5t31 80.5h52q-11 -54 -29 -89t-46 -53.5t-66 -18.5z" />
    <glyph glyph-name="uni00A0" unicode="&#xa0;" horiz-adv-x="272" 
 />
    <glyph glyph-name="exclamdown" unicode="&#xa1;" horiz-adv-x="235" 
d="M210 540l-17 -87h-77l18 87h76zM166 356l-107 -536h-62l107 536h62z" />
    <glyph glyph-name="cent" unicode="&#xa2;" horiz-adv-x="597" 
d="M268 48q65 0 119.5 31.5t92.5 88.5h60q-10 -22 -23.5 -41.5t-29.5 -37t-33.5 -32t-37.5 -26t-41.5 -20t-44 -14t-46.5 -7.5l-17 -83h-51l17 84q-86 9 -139 68t-53 145q0 125 86.5 218.5t212.5 102.5l18 87h50l-17 -88q77 -8 126.5 -54.5t58.5 -120.5h-59
q-9 37 -31.5 63.5t-56 40.5t-75.5 14q-69 0 -128 -37t-92 -96.5t-33 -124.5q0 -72 46 -116.5t121 -44.5z" />
    <glyph glyph-name="sterling" unicode="&#xa3;" horiz-adv-x="586" 
d="M561 480l-56 1q4 19 4 32q0 51 -32 82t-84 31q-43 0 -80 -20t-61.5 -54.5t-33.5 -77.5l-25 -128h198l-11 -51h-198l-48 -243h310l19 97h55l-29 -149h-499l9 43l75 8l48 244h-64l10 51h64l28 138q12 59 46 104.5t84.5 70.5t109.5 25q50 0 87.5 -20t58 -56t20.5 -83
q0 -21 -5 -45z" />
    <glyph glyph-name="currency" unicode="&#xa4;" horiz-adv-x="592" 
d="M486 422q24 -40 24 -90q0 -92 -70 -164l65 -82l-41 -36l-66 84q-62 -41 -133 -41t-119 44l-102 -86l-30 37l102 87q-22 39 -22 87q0 95 72 167l-65 81l41 36l67 -82q60 38 130 38q68 0 116 -42l104 87l31 -37zM272 145q73 0 129.5 57t56.5 129q0 52 -35 85.5t-90 33.5
q-74 0 -131 -57t-57 -128q0 -52 36 -86t91 -34z" />
    <glyph glyph-name="yen" unicode="&#xa5;" horiz-adv-x="628" 
d="M347 297l-5 -24h204l-9 -42h-203l-16 -80h203l-8 -42h-203l-22 -109h-61l21 109h-202l8 42h203l16 80h-203l8 42h203l5 25l-175 367h62l151 -316l279 316h69z" />
    <glyph glyph-name="brokenbar" unicode="&#xa6;" horiz-adv-x="260" 
d="M127 400l88 440h58l-88 -440h-58zM9 -190l90 450h58l-90 -450h-58z" />
    <glyph glyph-name="section" unicode="&#xa7;" horiz-adv-x="502" 
d="M485 560h-53q9 51 -22 76.5t-87 25.5q-57 0 -93 -29.5t-36 -77.5q0 -34 27.5 -51.5t82.5 -33.5q28 -8 45 -13.5t41 -17.5t37.5 -25t23.5 -34t10 -47q0 -107 -118 -158q44 -31 44 -84q0 -74 -53.5 -116.5t-141.5 -42.5q-73 0 -116 32.5t-43 91.5q0 14 3 29h52
q-8 -51 23 -77t88 -26q60 0 97.5 28.5t37.5 75.5q0 18 -8.5 32t-26.5 24.5t-35.5 16.5t-45.5 14q-21 5 -37.5 10.5t-35.5 14t-33 19t-26.5 24.5t-18.5 32t-6 39q0 111 123 158q-43 30 -43 82q0 74 52 117t137 43q72 0 115 -33t43 -89q0 -15 -3 -30zM407 326q0 18 -7 32
t-16 23t-27.5 18t-30.5 13l-36 12l-4.5 1.5t-4 1.5t-4.5 1q-26 9 -44 16q-56 -15 -87 -48.5t-31 -78.5q0 -18 7.5 -32.5t17 -23.5t30 -18t33.5 -13l39 -12q31 -9 52 -17q53 15 83 48t30 77z" />
    <glyph glyph-name="dieresis" unicode="&#xa8;" horiz-adv-x="600" 
d="M63 645l16 79h77l-16 -79h-77zM247 645l17 79h76l-16 -79h-77z" />
    <glyph glyph-name="copyright" unicode="&#xa9;" horiz-adv-x="844" 
d="M369 -11q-141 0 -225 79t-84 206q0 89 35 169t94.5 138.5t142.5 93t175 34.5q141 0 225 -79t84 -206q0 -89 -35 -169t-94.5 -138.5t-142.5 -93t-175 -34.5zM374 30q83 0 157.5 31.5t127.5 84t84 124.5t31 151q0 74 -32.5 129.5t-94 86.5t-144.5 31t-157.5 -31.5
t-127.5 -84t-84.5 -124.5t-31.5 -150q0 -112 73.5 -180t198.5 -68zM403 168q-67 0 -109 41t-42 105q0 89 64 154t157 65q29 0 54.5 -9t44.5 -24.5t31 -38t15 -47.5h-43q-10 36 -38 56.5t-70 20.5q-72 0 -122 -52t-50 -120q0 -48 31.5 -78.5t83.5 -30.5q87 0 138 78h45
q-8 -15 -18 -29.5t-22 -26.5t-25 -22t-27.5 -18t-30 -13.5t-32.5 -8t-35 -2.5z" />
    <glyph glyph-name="ordfeminine" unicode="&#xaa;" horiz-adv-x="466" 
d="M437 706h39l-66 -333h-41l6 58q-60 -63 -144 -63q-60 0 -98 40t-38 99q0 41 16 78.5t43.5 65t64.5 44t77 16.5q42 0 73.5 -18t48.5 -49zM243 413q41 0 76 20.5t55.5 56.5t20.5 78q0 29 -12 51t-34.5 34t-52.5 12q-61 0 -106.5 -45t-45.5 -108q0 -44 27.5 -71.5
t71.5 -27.5z" />
    <glyph glyph-name="guillemotleft" unicode="&#xab;" horiz-adv-x="571" 
d="M334 474l-223 -210l135 -204h-69l-135 204l2 13l209 197h81zM560 474l-223 -210l135 -204h-69l-135 204l2 13l209 197h81z" />
    <glyph glyph-name="logicalnot" unicode="&#xac;" horiz-adv-x="578" 
d="M80 389h444l-53 -265h-62l42 208h-383z" />
    <glyph glyph-name="registered" unicode="&#xae;" horiz-adv-x="464" 
d="M314 710q67 0 110 -42.5t43 -107.5q0 -41 -17.5 -81t-47 -69.5t-70.5 -48t-85 -18.5q-66 0 -109.5 43.5t-43.5 107.5q0 86 66 151t154 65zM249 372q76 0 133 57t57 129q0 53 -35.5 88t-91.5 35q-75 0 -132.5 -56.5t-57.5 -129.5q0 -54 35.5 -88.5t91.5 -34.5zM314 626
q15 0 27 -7t18.5 -19t6.5 -26q0 -25 -14.5 -42t-38.5 -22l30 -78h-31l-29 76h-39l-15 -76h-29l39 194h75zM295 534q19 0 31 11t12 28q0 12 -8 19t-22 7h-45l-13 -65h45z" />
    <glyph glyph-name="macron" unicode="&#xaf;" horiz-adv-x="507" 
d="M175 660l11 50h312l-10 -50h-313z" />
    <glyph glyph-name="degree" unicode="&#xb0;" horiz-adv-x="373" 
d="M238 552q-52 0 -85 33t-33 84q0 70 53 120.5t123 50.5q34 0 62 -16t43 -43t15 -60q0 -68 -54.5 -118.5t-123.5 -50.5zM246 594q49 0 88 36.5t39 85.5q0 35 -23.5 58.5t-60.5 23.5q-50 0 -88 -37.5t-38 -86.5q0 -23 10.5 -41.5t29 -28.5t43.5 -10z" />
    <glyph glyph-name="plusminus" unicode="&#xb1;" horiz-adv-x="605" 
d="M367 442h209l-11 -57h-210l-39 -194h-61l40 194h-210l12 57h209l39 195h61zM16 26l11 58h480l-11 -58h-480z" />
    <glyph glyph-name="acute" unicode="&#xb4;" horiz-adv-x="400" 
d="M167 605l102 152h67l-118 -152h-51z" />
    <glyph glyph-name="paragraph" unicode="&#xb6;" horiz-adv-x="596" 
d="M643 700l-11 -54h-93l-141 -706h-56l140 706h-138l-140 -706h-57l73 367q-68 6 -107 46t-39 104q0 102 72 172.5t179 70.5h318z" />
    <glyph glyph-name="periodcentered" unicode="&#xb7;" horiz-adv-x="221" 
d="M73 273l17 87h76l-17 -87h-76z" />
    <glyph glyph-name="cedilla" unicode="&#xb8;" horiz-adv-x="389" 
d="M122 -49q37 -4 58.5 -25.5t21.5 -52.5t-16 -55t-45 -37.5t-67 -13.5h-72l7 39h63q36 0 59 19t23 47q0 20 -16 32t-43 12h-24l-5 7l44 97h46z" />
    <glyph glyph-name="ordmasculine" unicode="&#xba;" horiz-adv-x="441" 
d="M240 368q-64 0 -104.5 38.5t-40.5 98.5q0 85 61 145t148 60q42 0 75 -18t51 -49t18 -71q0 -85 -61 -144.5t-147 -59.5zM246 415q64 0 108.5 44t44.5 108q0 43 -27.5 69.5t-73.5 26.5q-64 0 -109 -44t-45 -108q0 -44 28 -70t74 -26z" />
    <glyph glyph-name="guillemotright" unicode="&#xbb;" horiz-adv-x="572" 
d="M303 270l-2 -13l-208 -197h-83l225 213l-134 201h67zM394 474l134 -204l-2 -13l-207 -197h-84l225 213l-133 201h67z" />
    <glyph glyph-name="onequarter" unicode="&#xbc;" horiz-adv-x="828" 
d="M614 730h52l-556 -760h-52zM108 327l65 329h-67l9 44h118l-75 -373h-50zM770 121l-9 -43h-39l-16 -78h-48l16 78h-190l3 12l187 283h53l-168 -252h124l31 114h39l-22 -114h39z" />
    <glyph glyph-name="onehalf" unicode="&#xbd;" horiz-adv-x="807" 
d="M613 730h52l-556 -760h-52zM106 327l66 329h-67l9 44h118l-75 -373h-51zM760 288q0 -22 -9.5 -45.5t-22 -41.5t-40 -46t-47 -45.5t-58.5 -51.5q-8 -7 -12 -11h155l-10 -47h-249l2 14q12 10 36 31q38 34 56.5 50.5t48 43.5t43 43t29.5 36t22 36t6 31q0 24 -14.5 37
t-38.5 13q-66 0 -82 -74h-49q24 120 137 120q44 0 70.5 -26t26.5 -67z" />
    <glyph glyph-name="threequarters" unicode="&#xbe;" horiz-adv-x="950" 
d="M737 730h52l-556 -760h-52zM321 460q0 -39 -18.5 -71t-52 -51t-75.5 -19q-52 0 -82 32t-25 85h49q-2 -21 4.5 -36.5t21 -24.5t34.5 -9q42 0 68.5 28t26.5 66q0 27 -19 43.5t-49 16.5h-46l3 13l111 122h-148l9 45h224l-2 -12l-120 -128q19 -3 35.5 -11.5t27.5 -22
t17 -30.5t6 -36zM893 121l-9 -43h-39l-16 -78h-48l16 78h-190l3 12l187 283h53l-168 -252h124l30 114h40l-23 -114h40z" />
    <glyph glyph-name="questiondown" unicode="&#xbf;" horiz-adv-x="492" 
d="M257 453l17 87h76l-17 -87h-76zM160 -203q-80 0 -129.5 43.5t-49.5 117.5q0 34 8.5 63t21 51t34.5 44.5t42 38.5t49 36q59 42 80 73t31 90h62q-13 -72 -39.5 -111.5t-91.5 -85.5q-32 -22 -51 -38t-41.5 -40.5t-33 -53t-10.5 -62.5q0 -50 34 -79t93 -29q65 0 114.5 36
t68.5 97h58q-23 -89 -91.5 -140t-158.5 -51z" />
    <glyph glyph-name="Agrave" unicode="&#xc0;" horiz-adv-x="690" 
d="M456 780h-50l-67 142h66zM551 0l-41 183h-357l-113 -183h-72l432 700h58l159 -700h-66zM413 612l-226 -372h309z" />
    <glyph glyph-name="Aacute" unicode="&#xc1;" horiz-adv-x="690" 
d="M574 922l-123 -142h-51l107 142h67zM551 0l-41 183h-357l-113 -183h-72l432 700h58l159 -700h-66zM413 612l-226 -372h309z" />
    <glyph glyph-name="Acircumflex" unicode="&#xc2;" horiz-adv-x="690" 
d="M456 885l-118 -105h-62l147 142h70l92 -142h-51zM551 0l-41 183h-357l-113 -183h-72l432 700h58l159 -700h-66zM413 612l-226 -372h309z" />
    <glyph glyph-name="Atilde" unicode="&#xc3;" horiz-adv-x="690" 
d="M377 875q-52 0 -69 -84h-41q26 129 118 129q27 0 44 -12t35 -37q15 -21 27.5 -30.5t30.5 -9.5q51 0 67 82h42q-8 -42 -25 -70.5t-39.5 -42.5t-51.5 -14q-27 0 -45 12t-37 37q-7 11 -13 17.5t-13 12t-14 8t-16 2.5zM400 700h58l159 -700h-66l-41 183h-357l-113 -183h-72z
M413 612l-226 -372h309z" />
    <glyph glyph-name="Adieresis" unicode="&#xc4;" horiz-adv-x="690" 
d="M389 887l-16 -79h-76l15 79h77zM600 887l-16 -79h-76l16 79h76zM551 0l-41 183h-357l-113 -183h-72l432 700h58l159 -700h-66zM413 612l-226 -372h309z" />
    <glyph glyph-name="Aring" unicode="&#xc5;" horiz-adv-x="690" 
d="M437 763q-29 0 -50 11.5t-32.5 31.5t-11.5 46q0 56 37.5 92t94.5 36q28 0 50 -11.5t33.5 -31.5t11.5 -46q0 -55 -39 -91.5t-94 -36.5zM469 942q-37 0 -62 -24.5t-25 -61.5q0 -17 7 -29t20.5 -18.5t32.5 -6.5q37 0 62.5 25t25.5 61q0 16 -7.5 28.5t-21 19t-32.5 6.5z
M551 0l-41 183h-357l-113 -183h-72l432 700h58l159 -700h-66zM413 612l-226 -372h309z" />
    <glyph glyph-name="AE" unicode="&#xc6;" horiz-adv-x="884" 
d="M900 640h-324l-50 -251h298l-12 -58h-298l-54 -271h336l-12 -60h-400l33 167h-268l-134 -167h-78l565 700h410zM194 224h235l77 388z" />
    <glyph glyph-name="Ccedilla" unicode="&#xc7;" horiz-adv-x="776" 
d="M360 51q100 0 180.5 49t126.5 136h68q-52 -114 -147.5 -178.5t-216.5 -67.5l-19 -40q36 -4 57 -24t21 -50q0 -46 -40 -77.5t-96 -31.5h-65l8 40h64q33 0 55.5 18t22.5 45q0 20 -15.5 32t-41.5 12h-21l-6 10l31 66q-123 10 -194.5 86.5t-71.5 195.5q0 118 57 218.5
t157.5 160.5t220.5 60q115 0 192.5 -64t88.5 -172h-64q-9 54 -38 93t-76 60t-108 21q-101 0 -185.5 -51.5t-132 -136.5t-47.5 -184q0 -104 62.5 -165t172.5 -61z" />
    <glyph glyph-name="Egrave" unicode="&#xc8;" horiz-adv-x="546" 
d="M414 780h-50l-67 142h67zM563 640h-324l-50 -248h299l-12 -59h-298l-55 -272h335l-12 -61h-399l140 700h388z" />
    <glyph glyph-name="Eacute" unicode="&#xc9;" horiz-adv-x="546" 
d="M533 922l-123 -142h-51l107 142h67zM563 640h-324l-50 -248h299l-12 -59h-298l-55 -272h335l-12 -61h-399l140 700h388z" />
    <glyph glyph-name="Ecircumflex" unicode="&#xca;" horiz-adv-x="546" 
d="M414 885l-118 -105h-61l147 142h70l92 -142h-52zM563 640h-324l-50 -248h299l-12 -59h-298l-55 -272h335l-12 -61h-399l140 700h388z" />
    <glyph glyph-name="Edieresis" unicode="&#xcb;" horiz-adv-x="546" 
d="M348 887l-16 -79h-76l15 79h77zM559 887l-16 -79h-76l15 79h77zM563 640h-324l-50 -248h299l-12 -59h-298l-55 -272h335l-12 -61h-399l140 700h388z" />
    <glyph glyph-name="Igrave" unicode="&#xcc;" horiz-adv-x="266" 
d="M255 780h-51l-38 142h65zM47 0l140 700h64l-140 -700h-64z" />
    <glyph glyph-name="Iacute" unicode="&#xcd;" horiz-adv-x="266" 
d="M197 781l82 142h64l-97 -142h-49zM47 0l140 700h64l-140 -700h-64z" />
    <glyph glyph-name="Icircumflex" unicode="&#xce;" horiz-adv-x="266" 
d="M362 780h-50l-61 104l-102 -104h-57l132 142h62zM47 0l140 700h64l-140 -700h-64z" />
    <glyph glyph-name="Idieresis" unicode="&#xcf;" horiz-adv-x="266" 
d="M144 807l15 73h73l-15 -73h-73zM262 807l15 73h73l-14 -73h-74zM47 0l140 700h64l-140 -700h-64z" />
    <glyph glyph-name="Eth" unicode="&#xd0;" horiz-adv-x="758" 
d="M434 700q134 0 215 -77.5t81 -202.5q0 -84 -33 -161.5t-90 -134t-136 -90.5t-167 -34h-227l65 326h-119l11 52h118l65 322h217zM305 59q99 0 182.5 50t131 133t47.5 178q0 100 -64 161t-173 61h-160l-52 -264h207l-11 -52h-207l-53 -267h152z" />
    <glyph glyph-name="Ntilde" unicode="&#xd1;" horiz-adv-x="748" 
d="M419 875q-52 0 -69 -84h-41q26 129 118 129q19 0 33.5 -6.5t24.5 -16t22 -26.5q14 -21 26.5 -30.5t30.5 -9.5q51 0 67 82h42q-8 -42 -24.5 -70.5t-39.5 -42.5t-52 -14q-27 0 -45 12t-37 37q-15 21 -27 30.5t-29 9.5zM668 700h65l-140 -700h-53l-311 587l-117 -587h-65
l140 700h57l308 -583z" />
    <glyph glyph-name="Ograve" unicode="&#xd2;" horiz-adv-x="831" 
d="M491 780l-67 142h66l50 -142h-49zM364 -11q-137 0 -220 82.5t-83 211.5q0 115 56 213t157 156.5t224 58.5q137 0 220 -82.5t83 -211.5q0 -116 -55.5 -214t-156.5 -156t-225 -58zM374 51q101 0 185 49t131 132t47 180q0 106 -68 171.5t-180 65.5q-102 0 -186 -49
t-130.5 -132t-46.5 -180q0 -106 67.5 -171.5t180.5 -65.5z" />
    <glyph glyph-name="Oacute" unicode="&#xd3;" horiz-adv-x="831" 
d="M485 780l107 142h67l-123 -142h-51zM364 -11q-137 0 -220 82.5t-83 211.5q0 115 56 213t157 156.5t224 58.5q137 0 220 -82.5t83 -211.5q0 -116 -55.5 -214t-156.5 -156t-225 -58zM374 51q101 0 185 49t131 132t47 180q0 106 -68 171.5t-180 65.5q-102 0 -186 -49
t-130.5 -132t-46.5 -180q0 -106 67.5 -171.5t180.5 -65.5z" />
    <glyph glyph-name="Ocircumflex" unicode="&#xd4;" horiz-adv-x="831" 
d="M541 885l-119 -105h-61l147 142h70l92 -142h-52zM498 711q137 0 220 -82.5t83 -211.5q0 -116 -55.5 -214t-156.5 -156t-225 -58q-137 0 -220 82.5t-83 211.5q0 115 56 213t157 156.5t224 58.5zM374 51q101 0 185 49t131 132t47 180q0 106 -68 171.5t-180 65.5
q-102 0 -186 -49t-130.5 -132t-46.5 -180q0 -106 67.5 -171.5t180.5 -65.5z" />
    <glyph glyph-name="Otilde" unicode="&#xd5;" horiz-adv-x="831" 
d="M600 786q-27 0 -45 12t-37 37q-10 14 -18 22t-17.5 13t-20.5 5q-52 0 -69 -84h-41q26 129 118 129q27 0 44 -12t35 -37q15 -21 27.5 -30.5t30.5 -9.5q51 0 67 82h42q-13 -63 -43 -95t-73 -32zM364 -11q-137 0 -220 82.5t-83 211.5q0 115 56 213t157 156.5t224 58.5
q137 0 220 -82.5t83 -211.5q0 -116 -55.5 -214t-156.5 -156t-225 -58zM374 51q101 0 185 49t131 132t47 180q0 106 -68 171.5t-180 65.5q-102 0 -186 -49t-130.5 -132t-46.5 -180q0 -106 67.5 -171.5t180.5 -65.5z" />
    <glyph glyph-name="Odieresis" unicode="&#xd6;" horiz-adv-x="831" 
d="M382 808l15 79h77l-16 -79h-76zM593 808l15 79h77l-16 -79h-76zM364 -11q-137 0 -220 82.5t-83 211.5q0 115 56 213t157 156.5t224 58.5q137 0 220 -82.5t83 -211.5q0 -116 -55.5 -214t-156.5 -156t-225 -58zM374 51q101 0 185 49t131 132t47 180q0 106 -68 171.5
t-180 65.5q-102 0 -186 -49t-130.5 -132t-46.5 -180q0 -106 67.5 -171.5t180.5 -65.5z" />
    <glyph glyph-name="multiply" unicode="&#xd7;" horiz-adv-x="502" 
d="M491 497l-186 -157l124 -156l-45 -38l-123 156l-185 -156l-37 45l186 157l-124 156l46 36l122 -154l184 154z" />
    <glyph glyph-name="Oslash" unicode="&#xd8;" horiz-adv-x="836" 
d="M708 642q47 -39 73 -96.5t26 -127.5q0 -86 -34 -165t-92 -137t-139.5 -92.5t-171.5 -34.5q-88 0 -157 34l-68 -85h-70l92 114q-51 38 -79 97t-28 131q0 85 34.5 164.5t92.5 138t139.5 93.5t171.5 35q93 0 165 -39l72 90h70zM125 284q0 -116 85 -180l412 515
q-57 30 -131 30q-99 0 -184 -51t-133.5 -135t-48.5 -179zM375 51q101 0 186.5 50.5t133 134t47.5 178.5q0 110 -77 175l-410 -513q54 -25 120 -25z" />
    <glyph glyph-name="Ugrave" unicode="&#xd9;" horiz-adv-x="722" 
d="M423 780l-67 142h66l51 -142h-50zM310 -11q-101 0 -163.5 59t-62.5 154v15.5t1.5 17.5t3.5 21.5t6 32t8.5 43t12 60.5t15.5 78t21 102.5t26 127.5h64q-12 -64 -24.5 -126t-20 -101t-15.5 -77.5t-12.5 -60.5t-8.5 -43t-5.5 -32t-3 -21t-2 -16t-0.5 -12q0 -73 44 -116.5
t120 -43.5q95 0 163.5 58.5t87.5 153.5l87 437h64l-90 -444q-23 -120 -109.5 -193.5t-206.5 -73.5z" />
    <glyph glyph-name="Uacute" unicode="&#xda;" horiz-adv-x="722" 
d="M418 780l107 142h67l-123 -142h-51zM310 -11q-101 0 -163.5 59t-62.5 154v15.5t1.5 17.5t3.5 21.5t6 32t8.5 43t12 60.5t15.5 78t21 102.5t26 127.5h64q-12 -64 -24.5 -126t-20 -101t-15.5 -77.5t-12.5 -60.5t-8.5 -43t-5.5 -32t-3 -21t-2 -16t-0.5 -12q0 -73 44 -116.5
t120 -43.5q95 0 163.5 58.5t87.5 153.5l87 437h64l-90 -444q-23 -120 -109.5 -193.5t-206.5 -73.5z" />
    <glyph glyph-name="Ucircumflex" unicode="&#xdb;" horiz-adv-x="722" 
d="M473 885l-118 -105h-62l148 142h70l91 -142h-51zM652 700h64l-90 -444q-23 -120 -109.5 -193.5t-206.5 -73.5q-101 0 -163.5 59t-62.5 154v15.5t1.5 17.5t3.5 21.5t6 32t8.5 43t12 60.5t15.5 78t21 102.5t26 127.5h64q-12 -64 -24.5 -126t-20 -101t-15.5 -77.5
t-12.5 -60.5t-8.5 -43t-5.5 -32t-3 -21t-2 -16t-0.5 -12q0 -73 44 -116.5t120 -43.5q95 0 163.5 58.5t87.5 153.5z" />
    <glyph glyph-name="Udieresis" unicode="&#xdc;" horiz-adv-x="722" 
d="M314 808l16 79h76l-15 -79h-77zM526 808l15 79h76l-15 -79h-76zM310 -11q-101 0 -163.5 59t-62.5 154v15.5t1.5 17.5t3.5 21.5t6 32t8.5 43t12 60.5t15.5 78t21 102.5t26 127.5h64q-12 -64 -24.5 -126t-20 -101t-15.5 -77.5t-12.5 -60.5t-8.5 -43t-5.5 -32t-3 -21t-2 -16
t-0.5 -12q0 -73 44 -116.5t120 -43.5q95 0 163.5 58.5t87.5 153.5l87 437h64l-90 -444q-23 -120 -109.5 -193.5t-206.5 -73.5z" />
    <glyph glyph-name="Yacute" unicode="&#xdd;" horiz-adv-x="648" 
d="M558 922l-124 -142h-51l107 142h68zM706 700l-348 -422l-55 -278h-66l55 278l-176 422h66l151 -362l299 362h74z" />
    <glyph glyph-name="Thorn" unicode="&#xde;" horiz-adv-x="618" 
d="M400 569q86 0 139 -50.5t53 -128.5q0 -110 -76.5 -184.5t-192.5 -74.5h-186l-26 -131h-64l140 700h64l-26 -131h175zM327 190q85 0 142.5 57.5t57.5 138.5q0 55 -37 89.5t-99 34.5h-178l-64 -320h178z" />
    <glyph glyph-name="germandbls" unicode="&#xdf;" horiz-adv-x="606" 
d="M465 379q40 -15 62.5 -51t22.5 -84q0 -110 -79.5 -178t-202.5 -68h-71l12 60h71q90 0 150 51.5t60 130.5q0 50 -34.5 80.5t-93.5 30.5h-85l11 59h78q66 0 115.5 50t49.5 113q0 51 -35.5 81.5t-95.5 30.5q-80 0 -131.5 -49.5t-69.5 -141.5l-99 -494h-62l100 501
q24 119 92.5 181t177.5 62q82 0 131.5 -46.5t49.5 -117.5q0 -61 -35.5 -117.5t-88.5 -83.5z" />
    <glyph glyph-name="agrave" unicode="&#xe0;" horiz-adv-x="699" 
d="M421 605h-50l-58 152h66zM612 540h50l-108 -540h-52l13 96q-46 -51 -108.5 -79t-134.5 -28q-68 0 -121 29t-81.5 81t-28.5 117q0 89 44 166t121 123t169 46q73 0 126.5 -32t80.5 -88zM283 48q73 0 135 38.5t97 101.5t35 134q0 77 -48.5 123.5t-129.5 46.5q-72 0 -134 -38
t-98 -101t-36 -134q0 -50 22 -89t63 -60.5t94 -21.5z" />
    <glyph glyph-name="aacute" unicode="&#xe1;" horiz-adv-x="699" 
d="M528 757l-119 -152h-50l102 152h67zM612 540h50l-108 -540h-52l13 96q-46 -51 -108.5 -79t-134.5 -28q-68 0 -121 29t-81.5 81t-28.5 117q0 89 44 166t121 123t169 46q73 0 126.5 -32t80.5 -88zM283 48q73 0 135 38.5t97 101.5t35 134q0 77 -48.5 123.5t-129.5 46.5
q-72 0 -134 -38t-98 -101t-36 -134q0 -50 22 -89t63 -60.5t94 -21.5z" />
    <glyph glyph-name="acircumflex" unicode="&#xe2;" horiz-adv-x="699" 
d="M423 717l-120 -112h-61l149 152h70l90 -152h-52zM612 540h50l-108 -540h-52l13 96q-46 -51 -108.5 -79t-134.5 -28q-68 0 -121 29t-81.5 81t-28.5 117q0 89 44 166t121 123t169 46q73 0 126.5 -32t80.5 -88zM283 48q73 0 135 38.5t97 101.5t35 134q0 77 -48.5 123.5
t-129.5 46.5q-72 0 -134 -38t-98 -101t-36 -134q0 -50 22 -89t63 -60.5t94 -21.5z" />
    <glyph glyph-name="atilde" unicode="&#xe3;" horiz-adv-x="699" 
d="M342 701q-52 0 -67 -81h-42q26 126 116 126q28 0 44.5 -11.5t34.5 -36.5q15 -21 27 -29.5t30 -8.5q52 0 65 78h42q-8 -40 -24 -67.5t-38.5 -41.5t-51.5 -14t-47 12t-36 36q-14 20 -25.5 29t-27.5 9zM612 540h50l-108 -540h-52l13 96q-46 -51 -108.5 -79t-134.5 -28
q-68 0 -121 29t-81.5 81t-28.5 117q0 89 44 166t121 123t169 46q73 0 126.5 -32t80.5 -88zM283 48q73 0 135 38.5t97 101.5t35 134q0 77 -48.5 123.5t-129.5 46.5q-72 0 -134 -38t-98 -101t-36 -134q0 -50 22 -89t63 -60.5t94 -21.5z" />
    <glyph glyph-name="adieresis" unicode="&#xe4;" horiz-adv-x="699" 
d="M368 724l-16 -79h-76l16 79h76zM553 724l-17 -79h-76l16 79h77zM612 540h50l-108 -540h-52l13 96q-46 -51 -108.5 -79t-134.5 -28q-68 0 -121 29t-81.5 81t-28.5 117q0 89 44 166t121 123t169 46q73 0 126.5 -32t80.5 -88zM283 48q73 0 135 38.5t97 101.5t35 134
q0 77 -48.5 123.5t-129.5 46.5q-72 0 -134 -38t-98 -101t-36 -134q0 -50 22 -89t63 -60.5t94 -21.5z" />
    <glyph glyph-name="aring" unicode="&#xe5;" horiz-adv-x="699" 
d="M401 592q-27 0 -47.5 10.5t-31 29.5t-10.5 43q0 35 16 63t45 43.5t64 15.5q41 0 65 -24t24 -61q0 -51 -36 -85.5t-89 -34.5zM432 760q-35 0 -58.5 -22.5t-23.5 -58.5q0 -23 15 -36.5t41 -13.5q35 0 59 23t24 57q0 24 -15.5 37.5t-41.5 13.5zM612 540h50l-108 -540h-52
l13 96q-46 -51 -108.5 -79t-134.5 -28q-68 0 -121 29t-81.5 81t-28.5 117q0 89 44 166t121 123t169 46q73 0 126.5 -32t80.5 -88zM283 48q73 0 135 38.5t97 101.5t35 134q0 77 -48.5 123.5t-129.5 46.5q-72 0 -134 -38t-98 -101t-36 -134q0 -50 22 -89t63 -60.5t94 -21.5z
" />
    <glyph glyph-name="ae" unicode="&#xe6;" horiz-adv-x="1125" 
d="M1078 247h-480q-2 -16 -2 -33q0 -76 46 -121t125 -45q130 0 212 112h69q-110 -171 -285 -171q-45 0 -83.5 14t-67 40t-46.5 61l-23 -104h-47l14 91q-46 -48 -107.5 -75t-131.5 -27q-103 0 -166.5 63t-63.5 161q0 89 44.5 167t122 124.5t169.5 46.5q69 0 121.5 -29
t79.5 -81l22 99h48l-15 -94q45 50 105 77.5t128 27.5t119 -29t77.5 -79t26.5 -115q0 -40 -11 -81zM862 493q-88 0 -156 -53t-95 -135h418q1 10 1 18q0 78 -44.5 124t-123.5 46zM283 48q74 0 136 38.5t97 101.5t35 134q0 77 -48.5 123.5t-129.5 46.5q-73 0 -135 -38t-98 -101
t-36 -134q0 -50 22 -89t63 -60.5t94 -21.5z" />
    <glyph glyph-name="ccedilla" unicode="&#xe7;" horiz-adv-x="617" 
d="M278 48q70 0 127.5 33t95.5 93h65q-16 -32 -38 -60.5t-49 -51t-57.5 -38.5t-65.5 -25t-72 -10l-19 -38q37 -4 59 -25.5t22 -52.5t-16.5 -55t-45.5 -37t-66 -13h-72l7 38h62q24 0 43 9t29 24t10 33q0 20 -15.5 32t-43.5 12h-23l-6 8l31 67q-90 10 -144 72t-54 154
q0 88 44 165t121.5 123t169.5 46t152 -49.5t71 -133.5h-60q-15 58 -59 91t-109 33q-72 0 -134 -38.5t-97.5 -101.5t-35.5 -134q0 -75 47.5 -122.5t125.5 -47.5z" />
    <glyph glyph-name="egrave" unicode="&#xe8;" horiz-adv-x="631" 
d="M404 605h-50l-58 152h66zM584 247h-481q-2 -16 -2 -33q0 -50 20.5 -87.5t59.5 -58t91 -20.5q133 0 212 112h70q-105 -171 -284 -171q-67 0 -119.5 29t-80.5 81t-28 118q0 87 43 164t119 123.5t166 46.5q103 0 163.5 -63t60.5 -164q0 -37 -10 -77zM367 493q-87 0 -155 -53
t-96 -135h418q1 10 1 18q0 78 -44 124t-124 46z" />
    <glyph glyph-name="eacute" unicode="&#xe9;" horiz-adv-x="631" 
d="M510 757l-118 -152h-50l102 152h66zM584 247h-481q-2 -16 -2 -33q0 -50 20.5 -87.5t59.5 -58t91 -20.5q133 0 212 112h70q-105 -171 -284 -171q-67 0 -119.5 29t-80.5 81t-28 118q0 87 43 164t119 123.5t166 46.5q103 0 163.5 -63t60.5 -164q0 -37 -10 -77zM367 493
q-87 0 -155 -53t-96 -135h418q1 10 1 18q0 78 -44 124t-124 46z" />
    <glyph glyph-name="ecircumflex" unicode="&#xea;" horiz-adv-x="631" 
d="M405 717l-120 -112h-60l149 152h70l90 -152h-52zM584 247h-481q-2 -16 -2 -33q0 -50 20.5 -87.5t59.5 -58t91 -20.5q133 0 212 112h70q-105 -171 -284 -171q-67 0 -119.5 29t-80.5 81t-28 118q0 87 43 164t119 123.5t166 46.5q103 0 163.5 -63t60.5 -164q0 -37 -10 -77z
M367 493q-87 0 -155 -53t-96 -135h418q1 10 1 18q0 78 -44 124t-124 46z" />
    <glyph glyph-name="edieresis" unicode="&#xeb;" horiz-adv-x="631" 
d="M351 724l-16 -79h-76l16 79h76zM535 724l-16 -79h-76l16 79h76zM583 247h-480q-2 -16 -2 -33q0 -76 46 -121t125 -45q133 0 212 112h70q-105 -171 -284 -171q-67 0 -119.5 29t-80.5 81t-28 117q0 88 43 165t119 123.5t166 46.5q103 0 163.5 -63t60.5 -164q0 -37 -11 -77z
M367 493q-87 0 -155 -53t-96 -135h418q1 10 1 18q0 78 -44 124t-124 46z" />
    <glyph glyph-name="igrave" unicode="&#xec;" horiz-adv-x="245" 
d="M216 605h-51l-37 152h65zM38 0l108 540h62l-108 -540h-62z" />
    <glyph glyph-name="iacute" unicode="&#xed;" horiz-adv-x="245" 
d="M162 605l83 152h65l-97 -152h-51zM38 0l108 540h62l-108 -540h-62z" />
    <glyph glyph-name="icircumflex" unicode="&#xee;" horiz-adv-x="245" 
d="M323 605h-49l-65 111l-101 -111h-59l136 152h62zM38 0l108 540h62l-108 -540h-62z" />
    <glyph glyph-name="idieresis" unicode="&#xef;" horiz-adv-x="245" 
d="M76 645l17 79h73l-16 -79h-74zM250 645l16 79h73l-16 -79h-73zM38 0l108 540h62l-108 -540h-62z" />
    <glyph glyph-name="eth" unicode="&#xf0;" horiz-adv-x="642" 
d="M466 703q65 -48 99 -124t34 -171q0 -83 -17 -152q-27 -121 -110.5 -194t-207.5 -73q-68 0 -119 27.5t-78.5 76.5t-27.5 111q0 83 40.5 154t112.5 112.5t159 41.5q41 0 77.5 -11t65.5 -32.5t48 -51.5v5q0 79 -32 142t-91 103l-146 -115l-28 35l133 103q-73 35 -167 35
l10 51q119 -1 206 -48l93 72l26 -34zM267 47q105 0 181.5 76.5t76.5 176.5q0 35 -12.5 64.5t-34.5 50.5t-54 32.5t-70 11.5q-70 0 -129 -35.5t-92.5 -93.5t-33.5 -125q0 -71 45.5 -114.5t122.5 -43.5z" />
    <glyph glyph-name="ntilde" unicode="&#xf1;" horiz-adv-x="642" 
d="M335 701q-52 0 -67 -81h-42q26 126 116 126q28 0 44.5 -11.5t34.5 -36.5q15 -21 27 -29.5t30 -8.5q52 0 65 78h41q-7 -40 -23 -67.5t-38.5 -41.5t-51.5 -14t-47 12t-36 36q-14 20 -25.5 29t-27.5 9zM402 551q82 0 128 -46t46 -126q0 -8 -0.5 -16t-1.5 -17t-3.5 -24.5
t-5.5 -30.5t-9 -45.5t-12 -60t-17 -82t-21 -103.5h-62q14 70 35 170q23 118 28.5 147.5t5.5 49.5q0 62 -33.5 94.5t-97.5 32.5q-78 0 -141 -54.5t-80 -134.5l-61 -305h-62l108 540h45l-7 -95q39 50 95.5 78t122.5 28z" />
    <glyph glyph-name="ograve" unicode="&#xf2;" horiz-adv-x="658" 
d="M416 605h-50l-58 152h66zM278 -11q-70 0 -124.5 29t-83.5 81t-29 119q0 90 45.5 166.5t123.5 121.5t171 45q106 0 171 -64t65 -165q0 -90 -45 -166.5t-123.5 -121.5t-170.5 -45zM284 48q113 0 191.5 81t78.5 192q0 77 -49 124t-131 47q-74 0 -136 -37.5t-98 -100
t-36 -135.5q0 -77 49.5 -124t130.5 -47z" />
    <glyph glyph-name="oacute" unicode="&#xf3;" horiz-adv-x="658" 
d="M354 605l102 152h66l-118 -152h-50zM278 -11q-70 0 -124.5 29t-83.5 81t-29 119q0 90 45.5 166.5t123.5 121.5t171 45q106 0 171 -64t65 -165q0 -90 -45 -166.5t-123.5 -121.5t-170.5 -45zM284 48q113 0 191.5 81t78.5 192q0 77 -49 124t-131 47q-74 0 -136 -37.5
t-98 -100t-36 -135.5q0 -77 49.5 -124t130.5 -47z" />
    <glyph glyph-name="ocircumflex" unicode="&#xf4;" horiz-adv-x="658" 
d="M546 605h-52l-77 112l-120 -112h-61l150 152h69zM278 -11q-70 0 -124.5 29t-83.5 81t-29 119q0 90 45.5 166.5t123.5 121.5t171 45q106 0 171 -64t65 -165q0 -90 -45 -166.5t-123.5 -121.5t-170.5 -45zM284 48q113 0 191.5 81t78.5 192q0 77 -49 124t-131 47
q-74 0 -136 -37.5t-98 -100t-36 -135.5q0 -77 49.5 -124t130.5 -47z" />
    <glyph glyph-name="otilde" unicode="&#xf5;" horiz-adv-x="658" 
d="M472 615q-29 0 -47 12t-36 36q-14 20 -25.5 29t-27.5 9q-51 0 -67 -81h-41q25 126 116 126q28 0 44.5 -11.5t34.5 -36.5q15 -21 26.5 -29.5t29.5 -8.5q52 0 66 78h41q-8 -40 -23.5 -67.5t-38.5 -41.5t-52 -14zM278 -11q-70 0 -124.5 29t-83.5 81t-29 119q0 90 45.5 166.5
t123.5 121.5t171 45q106 0 171 -64t65 -165q0 -90 -45 -166.5t-123.5 -121.5t-170.5 -45zM284 48q113 0 191.5 81t78.5 192q0 77 -49 124t-131 47q-74 0 -136 -37.5t-98 -100t-36 -135.5q0 -77 49.5 -124t130.5 -47z" />
    <glyph glyph-name="odieresis" unicode="&#xf6;" horiz-adv-x="658" 
d="M271 645l16 79h76l-16 -79h-76zM455 645l16 79h76l-16 -79h-76zM278 -11q-70 0 -124.5 29t-83.5 81t-29 119q0 90 45.5 166.5t123.5 121.5t171 45q106 0 171 -64t65 -165q0 -90 -45 -166.5t-123.5 -121.5t-170.5 -45zM284 48q113 0 191.5 81t78.5 192q0 77 -49 124
t-131 47q-74 0 -136 -37.5t-98 -100t-36 -135.5q0 -77 49.5 -124t130.5 -47z" />
    <glyph glyph-name="divide" unicode="&#xf7;" horiz-adv-x="604" 
d="M342 476q-15 0 -23.5 9t-8.5 22q0 12 7 23t18 17.5t23 6.5q7 0 13 -2.5t10 -6.5t6.5 -10t2.5 -12q0 -20 -15 -33.5t-33 -13.5zM70 315l11 56h480l-11 -56h-480zM273 132q-15 0 -23.5 9t-8.5 23q0 18 15 32t33 14q14 0 23 -8.5t9 -21.5q0 -20 -14.5 -34t-33.5 -14z" />
    <glyph glyph-name="oslash" unicode="&#xf8;" horiz-adv-x="662" 
d="M532 507q43 -29 66 -77.5t23 -107.5q0 -89 -45.5 -166t-124 -122t-169.5 -45q-67 0 -119 26l-57 -76h-61l76 101q-38 30 -58.5 76t-20.5 101q0 54 17.5 105t49 92t73.5 72t93.5 48t106.5 17q59 0 106 -21l52 71h62zM102 220q0 -84 57 -131l295 393q-37 12 -81 12
q-74 0 -137 -38.5t-98.5 -101.5t-35.5 -134zM291 46q73 0 136 38t99 100.5t36 133.5q0 90 -68 138l-295 -392q41 -18 92 -18z" />
    <glyph glyph-name="ugrave" unicode="&#xf9;" horiz-adv-x="631" 
d="M402 605h-50l-58 152h66zM266 -11q-92 0 -145 49.5t-54 134.5q0 5 0.5 10.5t1 11.5t2 15t3 18.5t5 26.5t6.5 33t8.5 44t11 55t14 69.5t17.5 83.5h62q-9 -43 -17.5 -85t-14 -69.5t-10.5 -54.5t-8.5 -43.5t-6.5 -32t-4.5 -24l-3 -17t-2 -13.5t-0.5 -9.5v-9.5
q0 -42 16.5 -72t48 -46t75.5 -16q83 0 138 50t73 138l60 304h62l-63 -316q-22 -110 -93.5 -172.5t-181.5 -62.5z" />
    <glyph glyph-name="uacute" unicode="&#xfa;" horiz-adv-x="631" 
d="M340 605l102 152h66l-118 -152h-50zM266 -11q-92 0 -145 49.5t-54 134.5q0 5 0.5 10.5t1 11.5t2 15t3 18.5t5 26.5t6.5 33t8.5 44t11 55t14 69.5t17.5 83.5h62q-9 -43 -17.5 -85t-14 -69.5t-10.5 -54.5t-8.5 -43.5t-6.5 -32t-4.5 -24l-3 -17t-2 -13.5t-0.5 -9.5v-9.5
q0 -42 16.5 -72t48 -46t75.5 -16q83 0 138 50t73 138l60 304h62l-63 -316q-22 -110 -93.5 -172.5t-181.5 -62.5z" />
    <glyph glyph-name="ucircumflex" unicode="&#xfb;" horiz-adv-x="631" 
d="M532 605h-52l-77 112l-120 -112h-61l150 152h69zM266 -11q-92 0 -145 49.5t-54 134.5q0 5 0.5 10.5t1 11.5t2 15t3 18.5t5 26.5t6.5 33t8.5 44t11 55t14 69.5t17.5 83.5h62q-9 -43 -17.5 -85t-14 -69.5t-10.5 -54.5t-8.5 -43.5t-6.5 -32t-4.5 -24l-3 -17t-2 -13.5
t-0.5 -9.5v-9.5q0 -42 16.5 -72t48 -46t75.5 -16q83 0 138 50t73 138l60 304h62l-63 -316q-22 -110 -93.5 -172.5t-181.5 -62.5z" />
    <glyph glyph-name="udieresis" unicode="&#xfc;" horiz-adv-x="631" 
d="M257 645l16 79h76l-16 -79h-76zM441 645l16 79h76l-16 -79h-76zM266 -11q-92 0 -145 49.5t-54 134.5q0 5 0.5 10.5t1 11.5t2 15t3 18.5t5 26.5t6.5 33t8.5 44t11 55t14 69.5t17.5 83.5h62q-9 -43 -17.5 -85t-14 -69.5t-10.5 -54.5t-8.5 -43.5t-6.5 -32t-4.5 -24l-3 -17
t-2 -13.5t-0.5 -9.5v-9.5q0 -42 16.5 -72t48 -46t75.5 -16q83 0 138 50t73 138l60 304h62l-63 -316q-22 -110 -93.5 -172.5t-181.5 -62.5z" />
    <glyph glyph-name="yacute" unicode="&#xfd;" horiz-adv-x="578" 
d="M484 757l-118 -152h-50l102 152h66zM544 540h69l-381 -576q-40 -62 -73.5 -95t-69.5 -47t-86 -14h-49l11 56h39q58 0 91 23.5t81 94.5l38 55l-143 503h65l122 -437z" />
    <glyph glyph-name="thorn" unicode="&#xfe;" horiz-adv-x="696" 
d="M426 551q104 0 166.5 -63t62.5 -163q0 -90 -43 -167t-119.5 -123t-168.5 -46q-46 0 -86 14t-69.5 39t-47.5 60l-59 -294h-62l184 922h62l-56 -282q46 49 107 76t129 27zM323 48q73 0 135.5 38.5t98 101.5t35.5 134q0 76 -48 123t-128 47q-110 0 -189 -82.5t-79 -192.5
q0 -75 47.5 -122t127.5 -47z" />
    <glyph glyph-name="ydieresis" unicode="&#xff;" horiz-adv-x="578" 
d="M325 724l-16 -79h-76l16 79h76zM509 724l-16 -79h-76l16 79h76zM544 540h69l-381 -576q-40 -62 -73.5 -95t-69.5 -47t-86 -14h-49l11 56h39q58 0 91 23.5t81 94.5l38 55l-143 503h65l122 -437z" />
    <glyph glyph-name="Amacron" unicode="&#x100;" horiz-adv-x="690" 
d="M611 876l-11 -54h-313l11 54h313zM551 0l-41 183h-357l-113 -183h-72l432 700h58l159 -700h-66zM413 612l-226 -372h309z" />
    <glyph glyph-name="amacron" unicode="&#x101;" horiz-adv-x="699" 
d="M580 710l-10 -50h-314l11 50h313zM612 540h50l-108 -540h-52l13 96q-46 -51 -108.5 -79t-134.5 -28q-68 0 -121 29t-81.5 81t-28.5 117q0 89 44 166t121 123t169 46q73 0 126.5 -32t80.5 -88zM283 48q73 0 135 38.5t97 101.5t35 134q0 77 -48.5 123.5t-129.5 46.5
q-72 0 -134 -38t-98 -101t-36 -134q0 -50 22 -89t63 -60.5t94 -21.5z" />
    <glyph glyph-name="Abreve" unicode="&#x102;" horiz-adv-x="690" 
d="M438 774q-58 0 -92.5 30.5t-34.5 83.5q0 17 3 34h50q-3 -12 -3 -29q0 -37 21 -56.5t60 -19.5q48 0 79.5 27.5t42.5 77.5h50q-13 -70 -60.5 -109t-115.5 -39zM551 0l-41 183h-357l-113 -183h-72l432 700h58l159 -700h-66zM413 612l-226 -372h309z" />
    <glyph glyph-name="abreve" unicode="&#x103;" horiz-adv-x="699" 
d="M404 600q-59 0 -94 32t-35 88q0 13 4 37h50q-4 -19 -4 -33q0 -39 22 -60t61 -21q52 0 83.5 29.5t42.5 84.5h51q-14 -76 -61.5 -116.5t-119.5 -40.5zM612 540h50l-108 -540h-52l13 96q-46 -51 -108.5 -79t-134.5 -28q-68 0 -121 29t-81.5 81t-28.5 117q0 89 44 166
t121 123t169 46q73 0 126.5 -32t80.5 -88zM283 48q73 0 135 38.5t97 101.5t35 134q0 77 -48.5 123.5t-129.5 46.5q-72 0 -134 -38t-98 -101t-36 -134q0 -50 22 -89t63 -60.5t94 -21.5z" />
    <glyph glyph-name="Aogonek" unicode="&#x104;" horiz-adv-x="690" 
d="M482 -138q0 -14 6.5 -24.5t19.5 -16t30 -5.5q28 0 54 8l-9 -42q-31 -11 -68 -11q-39 0 -63 19.5t-24 51.5q0 44 34 87.5t89 73.5l-41 180h-357l-113 -183h-72l432 700h58l159 -700q-55 -25 -95 -63.5t-40 -74.5zM415 612l-226 -370h308z" />
    <glyph glyph-name="aogonek" unicode="&#x105;" horiz-adv-x="699" 
d="M554 0q-62 -34 -95 -71t-33 -70q0 -43 53 -43q32 0 57 8l-9 -42q-31 -11 -68 -11q-39 0 -63 19.5t-24 51.5q0 91 132 173l11 81q-46 -51 -108.5 -79t-134.5 -28q-68 0 -121 29t-81.5 81t-28.5 117q0 89 44 166t121 123t169 46q73 0 126.5 -32t80.5 -88l30 109h50zM283 48
q73 0 135 38.5t97 101.5t35 134q0 77 -48.5 123.5t-129.5 46.5q-72 0 -134 -38t-98 -101t-36 -134q0 -50 22 -89t63 -60.5t94 -21.5z" />
    <glyph glyph-name="Cacute" unicode="&#x106;" horiz-adv-x="776" 
d="M474 780l107 142h67l-123 -142h-51zM356 -11q-135 0 -215.5 78t-80.5 205q0 118 57 218.5t157.5 160.5t220.5 60q115 0 192.5 -64t88.5 -172h-64q-9 54 -38 93t-76 60t-108 21q-101 0 -185.5 -51.5t-132 -136.5t-47.5 -184q0 -104 62.5 -165t172.5 -61q100 0 180.5 49
t126.5 136h68q-36 -78 -93 -134t-130 -84.5t-156 -28.5z" />
    <glyph glyph-name="cacute" unicode="&#x107;" horiz-adv-x="617" 
d="M348 605l102 152h66l-118 -152h-50zM273 -11q-68 0 -121 29t-81.5 81t-28.5 118q0 88 44 165t121.5 123t169.5 46t152 -49.5t71 -133.5h-60q-15 58 -59 91t-109 33q-72 0 -134 -38.5t-97.5 -101.5t-35.5 -134q0 -75 47.5 -122.5t125.5 -47.5q70 0 127.5 33t95.5 93h65
q-41 -85 -119 -135t-174 -50z" />
    <glyph glyph-name="Ccircumflex" unicode="&#x108;" horiz-adv-x="776" 
d="M529 885l-118 -105h-62l148 142h69l92 -142h-51zM360 51q100 0 180.5 49t126.5 136h68q-36 -78 -93 -134t-130 -84.5t-156 -28.5q-135 0 -215.5 78t-80.5 205q0 118 57 218.5t157.5 160.5t220.5 60q115 0 192.5 -64t88.5 -172h-64q-9 54 -38 93t-76 60t-108 21
q-101 0 -185.5 -51.5t-132 -136.5t-47.5 -184q0 -104 62.5 -165t172.5 -61z" />
    <glyph glyph-name="ccircumflex" unicode="&#x109;" horiz-adv-x="617" 
d="M411 717l-120 -112h-61l150 152h69l91 -152h-52zM278 48q70 0 127.5 33t95.5 93h65q-41 -85 -119 -135t-174 -50q-68 0 -121 29t-81.5 81t-28.5 118q0 88 44 165t121.5 123t169.5 46t152 -49.5t71 -133.5h-60q-15 58 -59 91t-109 33q-72 0 -134 -38.5t-97.5 -101.5
t-35.5 -134q0 -75 47.5 -122.5t125.5 -47.5z" />
    <glyph glyph-name="Cdotaccent" unicode="&#x10a;" horiz-adv-x="776" 
d="M476 808l16 79h76l-15 -79h-77zM356 -11q-135 0 -215.5 78t-80.5 205q0 118 57 218.5t157.5 160.5t220.5 60q115 0 192.5 -64t88.5 -172h-64q-9 54 -38 93t-76 60t-108 21q-101 0 -185.5 -51.5t-132 -136.5t-47.5 -184q0 -104 62.5 -165t172.5 -61q100 0 180.5 49
t126.5 136h68q-36 -78 -93 -134t-130 -84.5t-156 -28.5z" />
    <glyph glyph-name="cdotaccent" unicode="&#x10b;" horiz-adv-x="617" 
d="M360 645l16 79h72l-16 -79h-72zM273 -11q-68 0 -121 29t-81.5 81t-28.5 118q0 88 44 165t121.5 123t169.5 46t152 -49.5t71 -133.5h-60q-15 58 -59 91t-109 33q-72 0 -134 -38.5t-97.5 -101.5t-35.5 -134q0 -75 47.5 -122.5t125.5 -47.5q70 0 127.5 33t95.5 93h65
q-41 -85 -119 -135t-174 -50z" />
    <glyph glyph-name="Ccaron" unicode="&#x10c;" horiz-adv-x="776" 
d="M543 780h-69l-92 142h53l77 -104l117 104h61zM360 51q100 0 180.5 49t126.5 136h68q-36 -78 -93 -134t-130 -84.5t-156 -28.5q-135 0 -215.5 78t-80.5 205q0 118 57 218.5t157.5 160.5t220.5 60q115 0 192.5 -64t88.5 -172h-64q-9 54 -38 93t-76 60t-108 21
q-101 0 -185.5 -51.5t-132 -136.5t-47.5 -184q0 -104 62.5 -165t172.5 -61z" />
    <glyph glyph-name="ccaron" unicode="&#x10d;" horiz-adv-x="617" 
d="M424 605h-70l-89 152h56l72 -113l119 113h62zM278 48q70 0 127.5 33t95.5 93h65q-41 -85 -119 -135t-174 -50q-68 0 -121 29t-81.5 81t-28.5 118q0 88 44 165t121.5 123t169.5 46t152 -49.5t71 -133.5h-60q-15 58 -59 91t-109 33q-72 0 -134 -38.5t-97.5 -101.5
t-35.5 -134q0 -75 47.5 -122.5t125.5 -47.5z" />
    <glyph glyph-name="Dcaron" unicode="&#x10e;" horiz-adv-x="728" 
d="M433 780h-70l-91 142h53l76 -104l117 104h62zM404 700q134 0 215 -77.5t81 -202.5q0 -84 -33 -161.5t-89.5 -134t-136 -90.5t-167.5 -34h-227l140 700h217zM276 59q98 0 181.5 50t131 133t47.5 178q0 100 -64 161t-173 61h-159l-117 -583h153z" />
    <glyph glyph-name="dcaron" unicode="&#x10f;" horiz-adv-x="695" 
d="M577 445l58 287h62l-147 -732h-49l10 95q-47 -50 -109.5 -78t-132.5 -28q-104 0 -166 62t-62 161q0 89 44.5 167.5t122 125t169.5 46.5q69 0 120.5 -28t79.5 -78zM760 732h71l-12 -61q-5 -30 -29 -53.5t-56 -29.5l7 33q34 9 43 44h-37zM282 49q112 0 190 80.5t78 190.5
q0 76 -48 124t-129 48q-112 0 -190.5 -80.5t-78.5 -190.5q0 -77 49 -124.5t129 -47.5z" />
    <glyph glyph-name="Dcroat" unicode="&#x110;" horiz-adv-x="758" 
d="M434 700q134 0 215 -77.5t81 -202.5q0 -84 -33 -161.5t-90 -134t-136 -90.5t-167 -34h-227l65 326h-119l11 52h118l65 322h217zM305 59q99 0 182.5 50t131 133t47.5 178q0 100 -64 161t-173 61h-160l-52 -264h207l-11 -52h-207l-53 -267h152z" />
    <glyph glyph-name="dcroat" unicode="&#x111;" horiz-adv-x="695" 
d="M762 653l-10 -51h-82l-120 -602h-49l9 90q-46 -47 -107 -74t-131 -27q-68 0 -121 29t-81.5 81t-28.5 117q0 89 44 166t121 123t169 46q69 0 121 -29t80 -80l32 160h-209l10 51h209l16 79h62l-16 -79h82zM283 50q110 0 188.5 81.5t78.5 190.5q0 76 -48.5 122t-129.5 46
q-72 0 -134.5 -38.5t-98 -100.5t-35.5 -132q0 -76 49 -122.5t130 -46.5z" />
    <glyph glyph-name="Emacron" unicode="&#x112;" horiz-adv-x="546" 
d="M570 876l-11 -54h-313l11 54h313zM563 640h-324l-50 -248h299l-12 -59h-298l-55 -272h335l-12 -61h-399l140 700h388z" />
    <glyph glyph-name="emacron" unicode="&#x113;" horiz-adv-x="631" 
d="M563 710l-11 -50h-313l11 50h313zM584 247h-481q-2 -16 -2 -33q0 -76 46 -121t125 -45q133 0 212 112h70q-105 -171 -284 -171q-67 0 -119.5 29t-80.5 81t-28 117q0 88 43 165t119 123.5t166 46.5q103 0 163.5 -63t60.5 -164q0 -37 -10 -77zM367 493q-87 0 -155 -53
t-96 -135h418q1 10 1 18q0 78 -44 124t-124 46z" />
    <glyph glyph-name="Ebreve" unicode="&#x114;" horiz-adv-x="546" 
d="M397 774q-58 0 -92.5 30.5t-34.5 83.5q0 17 3 34h50q-3 -12 -3 -29q0 -37 21 -56.5t60 -19.5q48 0 79.5 27.5t41.5 77.5h51q-14 -70 -61 -109t-115 -39zM563 640h-324l-50 -248h299l-12 -59h-298l-55 -272h335l-12 -61h-399l140 700h388z" />
    <glyph glyph-name="ebreve" unicode="&#x115;" horiz-adv-x="631" 
d="M387 600q-59 0 -94 32t-35 88q0 13 4 37h49q-3 -19 -3 -33q0 -39 21.5 -60t61.5 -21q51 0 83 29.5t43 84.5h51q-15 -76 -62 -116.5t-119 -40.5zM584 247h-481q-2 -16 -2 -33q0 -50 20.5 -87.5t59.5 -58t91 -20.5q133 0 212 112h70q-105 -171 -284 -171q-102 0 -165 64
t-63 164q0 87 43 164t119 123.5t166 46.5q103 0 163.5 -63t60.5 -164q0 -37 -10 -77zM367 493q-87 0 -155 -53t-96 -135h419v18q0 78 -44 124t-124 46z" />
    <glyph glyph-name="Edotaccent" unicode="&#x116;" horiz-adv-x="546" 
d="M454 887l-16 -79h-76l15 79h77zM563 640h-324l-50 -248h299l-12 -59h-298l-55 -272h335l-12 -61h-399l140 700h388z" />
    <glyph glyph-name="edotaccent" unicode="&#x117;" horiz-adv-x="631" 
d="M443 724l-17 -79h-72l16 79h73zM584 247h-481q-2 -16 -2 -33q0 -76 46 -121t125 -45q133 0 212 112h70q-105 -171 -284 -171q-67 0 -119.5 29t-80.5 81t-28 117q0 88 43 165t119 123.5t166 46.5q103 0 163.5 -63t60.5 -164q0 -37 -10 -77zM367 493q-87 0 -155 -53
t-96 -135h418q1 10 1 18q0 78 -44 124t-124 46z" />
    <glyph glyph-name="Eogonek" unicode="&#x118;" horiz-adv-x="546" 
d="M563 640h-324l-50 -248h299l-12 -59h-298l-55 -272h335l-12 -61q-57 -28 -93 -65.5t-36 -72.5q0 -21 15 -33.5t42 -12.5q29 0 53 8l-8 -42q-31 -11 -70 -11q-20 0 -35.5 5t-26.5 14t-17.5 22.5t-6.5 29.5q0 43 32.5 86t84.5 72h-333l140 700h388z" />
    <glyph glyph-name="eogonek" unicode="&#x119;" horiz-adv-x="630" 
d="M583 247h-480q-2 -16 -2 -33q0 -76 46 -121t125 -45q62 0 117.5 29.5t96.5 82.5h66q-65 -102 -179 -156q-52 -23 -90 -62t-38 -80q0 -21 15 -33.5t42 -12.5q32 0 59 11l-8 -42q-34 -14 -70 -14q-40 0 -65 22t-25 56q0 36 25 74t63 66h-13q-101 0 -164 63t-63 161
q0 88 44.5 166t121 125t164.5 47q102 0 162.5 -62t60.5 -161q0 -40 -11 -81zM367 493q-85 0 -153.5 -53.5t-97.5 -134.5h418q1 10 1 19q0 78 -45 123.5t-123 45.5z" />
    <glyph glyph-name="Ecaron" unicode="&#x11a;" horiz-adv-x="546" 
d="M429 780h-70l-91 142h52l77 -104l117 104h62zM47 0l140 700h388l-12 -60h-324l-50 -248h299l-12 -59h-298l-55 -272h335l-12 -61h-399z" />
    <glyph glyph-name="ecaron" unicode="&#x11b;" horiz-adv-x="631" 
d="M418 605h-69l-90 152h56l73 -113l118 113h62zM584 247h-481q-2 -16 -2 -33q0 -50 20.5 -87.5t59.5 -58t91 -20.5q133 0 212 112h70q-105 -171 -284 -171q-67 0 -119.5 29t-80.5 81t-28 118q0 87 43 164t119 123.5t166 46.5q103 0 163.5 -63t60.5 -164q0 -37 -10 -77z
M367 493q-87 0 -155 -53t-96 -135h418q1 10 1 18q0 78 -44 124t-124 46z" />
    <glyph glyph-name="Gcircumflex" unicode="&#x11c;" horiz-adv-x="797" 
d="M531 885l-118 -105h-62l147 142h70l92 -142h-52zM378 279l12 59h375q-34 -158 -143.5 -253t-267.5 -95q-134 0 -213.5 79t-79.5 207q0 86 33 166t89 139t135 94t167 35q124 0 205.5 -71t83.5 -180h-64q-4 56 -33.5 98.5t-79.5 66.5t-114 24q-99 0 -182 -51.5
t-129.5 -137.5t-46.5 -185q0 -51 16 -92.5t45.5 -70t73 -44t96.5 -15.5q119 0 204 61.5t121 165.5h-303z" />
    <glyph glyph-name="gcircumflex" unicode="&#x11d;" horiz-adv-x="674" 
d="M408 717l-120 -112h-61l150 152h69l91 -152h-53zM594 540h43l-93 -466q-18 -87 -60.5 -149t-107 -95t-146.5 -33q-94 0 -150.5 46t-65.5 129h62q9 -56 52 -87t110 -31q61 0 112 26.5t85 76.5t48 117l7 38q-93 -94 -225 -94q-98 0 -159 61t-61 155q0 83 42 156t115 117
t159 44q69 0 121.5 -31.5t78.5 -86.5zM277 78q52 0 99 21.5t80.5 57t52.5 82t19 95.5q0 71 -45.5 114.5t-121.5 43.5q-69 0 -128 -36.5t-92.5 -95.5t-33.5 -124q0 -71 46.5 -114.5t123.5 -43.5z" />
    <glyph glyph-name="Gbreve" unicode="&#x11e;" horiz-adv-x="797" 
d="M513 774q-58 0 -92.5 30.5t-34.5 83.5q0 17 4 34h49q-3 -12 -3 -29q0 -37 21 -56.5t61 -19.5q47 0 78.5 27.5t41.5 77.5h51q-13 -70 -60.5 -109t-115.5 -39zM378 279l12 59h375q-34 -158 -143.5 -253t-267.5 -95q-134 0 -213.5 79t-79.5 207q0 86 33 166t89 139t135 94
t167 35q124 0 205.5 -71t83.5 -180h-64q-4 56 -33.5 98.5t-79.5 66.5t-114 24q-99 0 -182 -51.5t-129.5 -137.5t-46.5 -185q0 -51 16 -92.5t45.5 -70t73 -44t96.5 -15.5q119 0 204 61.5t121 165.5h-303z" />
    <glyph glyph-name="gbreve" unicode="&#x11f;" horiz-adv-x="674" 
d="M389 600q-59 0 -94 32t-35 88q0 13 4 37h50q-4 -19 -4 -33q0 -26 10 -44.5t28.5 -27.5t45.5 -9q51 0 83 29.5t43 84.5h50q-14 -76 -61.5 -116.5t-119.5 -40.5zM594 540h43l-93 -466q-18 -87 -60.5 -149t-107 -95t-146.5 -33q-94 0 -150.5 46t-65.5 129h62q9 -56 52 -87
t110 -31q61 0 112 26.5t85 76.5t48 117l7 38q-93 -94 -225 -94q-98 0 -159 61t-61 155q0 83 42 156t115 117t159 44q69 0 121.5 -31.5t78.5 -86.5zM277 78q52 0 99 21.5t80.5 57t52.5 82t19 95.5q0 71 -45.5 114.5t-121.5 43.5q-69 0 -128 -36.5t-92.5 -95.5t-33.5 -124
q0 -71 46.5 -114.5t123.5 -43.5z" />
    <glyph glyph-name="Gdotaccent" unicode="&#x120;" horiz-adv-x="797" 
d="M570 887l-16 -79h-76l16 79h76zM378 279l12 59h375q-34 -158 -143.5 -253t-267.5 -95q-134 0 -213.5 79t-79.5 207q0 86 33 166t89 139t135 94t167 35q124 0 205.5 -71t83.5 -180h-64q-4 56 -33.5 98.5t-79.5 66.5t-114 24q-99 0 -182 -51.5t-129.5 -137.5t-46.5 -185
q0 -51 16 -92.5t45.5 -70t73 -44t96.5 -15.5q119 0 204 61.5t121 165.5h-303z" />
    <glyph glyph-name="gdotaccent" unicode="&#x121;" horiz-adv-x="674" 
d="M445 724l-16 -79h-72l16 79h72zM594 540h43l-93 -466q-18 -87 -60.5 -149t-107 -95t-146.5 -33q-94 0 -150.5 46t-65.5 129h62q9 -56 52 -87t110 -31q61 0 112 26.5t85 76.5t48 117l7 38q-93 -94 -225 -94q-98 0 -159 61t-61 155q0 83 42 156t115 117t159 44
q69 0 121.5 -31.5t78.5 -86.5zM277 78q52 0 99 21.5t80.5 57t52.5 82t19 95.5q0 71 -45.5 114.5t-121.5 43.5q-69 0 -128 -36.5t-92.5 -95.5t-33.5 -124q0 -71 46.5 -114.5t123.5 -43.5z" />
    <glyph glyph-name="uni0122" unicode="&#x122;" horiz-adv-x="797" 
d="M378 279l12 59h375q-34 -158 -143.5 -253t-267.5 -95q-134 0 -213.5 79t-79.5 207q0 86 33 166t89 139t135 94t167 35q124 0 205.5 -71t83.5 -180h-64q-4 56 -33.5 98.5t-79.5 66.5t-114 24q-99 0 -182 -51.5t-129.5 -137.5t-46.5 -185q0 -51 16 -92.5t45.5 -70t73 -44
t96.5 -15.5q119 0 204 61.5t121 165.5h-303zM294 -128l14 66h71l-12 -60q-4 -23 -16 -40t-30 -28t-40 -16l7 32q36 10 43 46h-37z" />
    <glyph glyph-name="uni0123" unicode="&#x123;" horiz-adv-x="674" 
d="M436 709l-14 -67h-71l12 61q6 30 29.5 53.5t55.5 30.5l-7 -34q-34 -9 -41 -44h36zM594 540h43l-93 -466q-18 -87 -60.5 -149t-107 -95t-146.5 -33q-94 0 -150.5 46t-65.5 129h62q9 -56 52 -87t110 -31q61 0 112 26.5t85 76.5t48 117l7 38q-93 -94 -225 -94q-98 0 -159 61
t-61 155q0 83 42 156t115 117t159 44q69 0 121.5 -31.5t78.5 -86.5zM277 78q52 0 99 21.5t80.5 57t52.5 82t19 95.5q0 71 -45.5 114.5t-121.5 43.5q-69 0 -128 -36.5t-92.5 -95.5t-33.5 -124q0 -71 46.5 -114.5t123.5 -43.5z" />
    <glyph glyph-name="Hcircumflex" unicode="&#x124;" horiz-adv-x="729" 
d="M491 885l-118 -105h-62l147 142h70l92 -142h-51zM650 700h64l-140 -700h-64l67 334h-399l-67 -334h-64l140 700h64l-62 -308h400z" />
    <glyph glyph-name="hcircumflex" unicode="&#x125;" horiz-adv-x="642" 
d="M247 897l-118 -105h-61l147 142h70l92 -142h-52zM403 551q55 0 94 -20.5t59 -59.5t20 -92q0 -8 -0.5 -16t-1.5 -17t-3.5 -24.5t-5.5 -30.5t-9 -45.5t-12 -60t-17 -82t-21 -103.5h-62q10 47 19.5 94.5t15 76.5t11.5 58t9 44.5t6 32t4 24.5t2.5 16.5t1.5 14v11.5
q0 119 -127 119q-82 0 -146 -55t-80 -135l-60 -301h-62l147 732h62l-56 -277q39 46 93.5 71t118.5 25z" />
    <glyph glyph-name="Hbar" unicode="&#x126;" horiz-adv-x="744" 
d="M788 594l-11 -50h-88l-109 -544h-64l67 332h-400l-66 -332h-64l109 544h-85l11 50h84l21 106h64l-21 -106h399l21 106h64l-21 -106h89zM595 392l30 152h-399l-31 -152h400z" />
    <glyph glyph-name="hbar" unicode="&#x127;" horiz-adv-x="642" 
d="M403 551q82 0 127.5 -46t45.5 -126v-13.5t-1.5 -16t-2.5 -18t-4.5 -25.5t-6.5 -33t-9 -45.5t-11.5 -58t-15 -76t-19.5 -93.5h-62q10 47 19.5 94.5t15 76.5t11.5 58t9 44.5t6 32t4 24.5t2.5 16.5t1.5 14v11.5q0 119 -127 119q-82 0 -146 -55t-80 -135l-60 -301h-62
l121 602h-97l10 51h97l16 79h62l-16 -79h194l-10 -51h-194l-30 -147q39 46 93.5 71t118.5 25z" />
    <glyph glyph-name="Itilde" unicode="&#x128;" horiz-adv-x="266" 
d="M308 786q-19 0 -34 9t-22 17t-18 25q-14 20 -25 29.5t-25 9.5q-26 0 -39 -19t-22 -62h-42q22 129 108 129q19 0 35 -9.5t22.5 -17.5t17.5 -25q8 -13 13.5 -19.5t15 -13t20.5 -6.5q24 0 36.5 19t21.5 60l42 -1q-20 -125 -105 -125zM47 0l140 700h64l-140 -700h-64z" />
    <glyph glyph-name="itilde" unicode="&#x129;" horiz-adv-x="245" 
d="M265 613q-14 0 -26 4t-21.5 13t-15 16t-13.5 19q-9 13 -14 19.5t-14 12.5t-20 6q-17 0 -29 -9.5t-19 -26t-13 -45.5h-42q14 66 39.5 97t68.5 31q19 0 34.5 -8.5t23 -17.5t17.5 -25q8 -13 13.5 -20t15 -13t20.5 -6q25 0 38 19t20 59h42q-22 -125 -105 -125zM38 0l108 540
h62l-108 -540h-62z" />
    <glyph glyph-name="Imacron" unicode="&#x12a;" horiz-adv-x="266" 
d="M112 815l11 56h255l-11 -56h-255zM47 0l140 700h64l-140 -700h-64z" />
    <glyph glyph-name="imacron" unicode="&#x12b;" horiz-adv-x="245" 
d="M78 660l11 51h245l-10 -51h-246zM38 0l108 540h62l-108 -540h-62z" />
    <glyph glyph-name="Ibreve" unicode="&#x12c;" horiz-adv-x="266" 
d="M236 774q-64 0 -94.5 42t-18.5 106h50q-6 -23 -3.5 -42t11 -33t24 -22t35.5 -8q90 0 110 105h51q-9 -47 -31 -80t-56.5 -50.5t-77.5 -17.5zM47 0l140 700h64l-140 -700h-64z" />
    <glyph glyph-name="ibreve" unicode="&#x12d;" horiz-adv-x="245" 
d="M190 600q-66 0 -96.5 43.5t-17.5 113.5h49q-5 -25 -3 -46t10.5 -36t24.5 -23.5t38 -8.5q47 0 76.5 29.5t39.5 84.5h51q-14 -76 -59 -116.5t-113 -40.5zM38 0l108 540h62l-108 -540h-62z" />
    <glyph glyph-name="Iogonek" unicode="&#x12e;" horiz-adv-x="266" 
d="M111 0q-37 -18 -66 -41t-46 -48.5t-17 -48.5q0 -21 15.5 -33.5t41.5 -12.5q29 0 53 7l-8 -41q-31 -11 -68 -11q-40 0 -63.5 19.5t-23.5 51.5q0 44 33 87.5t85 71.5l140 699h64z" />
    <glyph glyph-name="iogonek" unicode="&#x12f;" horiz-adv-x="245" 
d="M176 724h72l-16 -79h-72zM39 2l107 538h62l-108 -540q-37 -18 -65.5 -41t-45.5 -48.5t-17 -48.5q0 -21 15 -33.5t41 -12.5q29 0 53 8l-8 -42q-31 -11 -68 -11q-40 0 -63.5 19.5t-23.5 51.5q0 44 33.5 88t87.5 72z" />
    <glyph glyph-name="Idotaccent" unicode="&#x130;" horiz-adv-x="266" 
d="M200 808l16 79h76l-16 -79h-76zM47 0l140 700h64l-140 -700h-64z" />
    <glyph glyph-name="dotlessi" unicode="&#x131;" horiz-adv-x="245" 
d="M38 0l108 540h62l-108 -540h-62z" />
    <glyph glyph-name="IJ" unicode="&#x132;" horiz-adv-x="807" 
d="M47 0l140 700h64l-140 -700h-64zM429 -11q-90 0 -144.5 52.5t-54.5 138.5q0 25 7 60h63q-6 -28 -6 -49q0 -63 37 -101.5t102 -38.5q77 0 135 52.5t74 131.5l92 465h65l-94 -476q-21 -104 -96 -169.5t-180 -65.5z" />
    <glyph glyph-name="ij" unicode="&#x133;" horiz-adv-x="565" 
d="M160 645l16 79h72l-16 -79h-72zM477 645l16 79h73l-16 -79h-73zM38 0l108 540h62l-108 -540h-62zM175 -192l11 57h23q58 0 96.5 32.5t49.5 89.5l111 553h62l-113 -563q-7 -39 -25 -70.5t-44 -53t-60 -33.5t-74 -12h-37z" />
    <glyph glyph-name="Jcircumflex" unicode="&#x134;" horiz-adv-x="590" 
d="M694 780h-50l-61 104l-101 -104h-58l132 142h62zM425 235l93 465h65l-95 -476q-20 -104 -95.5 -169.5t-179.5 -65.5q-91 0 -145 52.5t-54 138.5q0 25 7 60h62q-5 -28 -5 -49q0 -63 36.5 -101.5t101.5 -38.5q77 0 135 52.5t74 131.5z" />
    <glyph glyph-name="jcircumflex" unicode="&#x135;" horiz-adv-x="257" 
d="M331 605h-49l-65 111l-102 -111h-58l135 152h63zM-132 -192l11 57h22q57 0 96 33t51 89l110 553h62l-112 -563q-16 -78 -70.5 -123.5t-133.5 -45.5h-36z" />
    <glyph glyph-name="uni0136" unicode="&#x136;" horiz-adv-x="618" 
d="M680 700l-336 -342l221 -358h-75l-205 333h-107l-67 -333h-64l140 700h64l-61 -307h104l301 307h85zM227 -128l14 66h71l-12 -60q-6 -34 -29 -55.5t-56 -28.5l6 32q36 10 43 46h-37z" />
    <glyph glyph-name="uni0137" unicode="&#x137;" horiz-adv-x="524" 
d="M558 540l-260 -259l172 -281h-70l-155 253h-94l-51 -253h-62l147 732h62l-85 -422h83l232 230h81zM166 -128l13 66h72l-12 -60q-7 -32 -30.5 -56.5t-55.5 -31.5l7 34q35 10 42 48h-36z" />
    <glyph glyph-name="kgreenlandic" unicode="&#x138;" horiz-adv-x="524" 
d="M559 540l-261 -259l172 -281h-70l-155 253h-94l-51 -253h-62l108 540h62l-46 -230h83l232 230h82z" />
    <glyph glyph-name="Lacute" unicode="&#x139;" horiz-adv-x="500" 
d="M386 922l-123 -142h-51l107 142h67zM123 59h322l-11 -59h-387l140 700h64z" />
    <glyph glyph-name="lacute" unicode="&#x13a;" horiz-adv-x="245" 
d="M197 812l107 142h67l-123 -142h-51zM38 0l147 732h62l-147 -732h-62z" />
    <glyph glyph-name="uni013B" unicode="&#x13b;" horiz-adv-x="500" 
d="M123 59h322l-11 -59h-387l140 700h64zM173 -128l13 66h71l-12 -60q-6 -34 -29 -55.5t-56 -28.5l7 32q35 10 43 46h-37z" />
    <glyph glyph-name="uni013C" unicode="&#x13c;" horiz-adv-x="245" 
d="M38 0l147 732h62l-147 -732h-62zM-7 -210l7 34q36 10 43 48h-36l13 66h71l-12 -60q-6 -32 -29.5 -56.5t-56.5 -31.5z" />
    <glyph glyph-name="Lcaron" unicode="&#x13d;" horiz-adv-x="508" 
d="M463 732h72l-13 -61q-6 -30 -29.5 -53.5t-55.5 -29.5l7 33q34 9 42 45h-36zM251 700l-128 -640h323l-12 -60h-387l140 700h64z" />
    <glyph glyph-name="lcaron" unicode="&#x13e;" horiz-adv-x="246" 
d="M38 0l147 732h62l-147 -732h-62zM313 732h71l-12 -61q-6 -30 -29.5 -53.5t-55.5 -30.5l6 33q17 3 28.5 15.5t14.5 30.5h-36z" />
    <glyph glyph-name="Ldot" unicode="&#x13f;" horiz-adv-x="503" 
d="M123 60h323l-12 -60h-387l140 700h64zM434 396l-18 -88h-76l17 88h77z" />
    <glyph glyph-name="ldot" unicode="&#x140;" horiz-adv-x="311" 
d="M38 0l147 732h62l-147 -732h-62zM250 319l18 87h76l-17 -87h-77z" />
    <glyph glyph-name="Lslash" unicode="&#x141;" horiz-adv-x="516" 
d="M136 59h322l-12 -59h-386l52 260l-98 -47l11 57l98 47l77 383h64l-70 -349l259 124l-12 -59l-259 -123z" />
    <glyph glyph-name="lslash" unicode="&#x142;" horiz-adv-x="334" 
d="M356 519l-12 -61l-121 -65l-79 -393h-62l71 356l-121 -65l12 61l122 65l63 315h62l-56 -278z" />
    <glyph glyph-name="Nacute" unicode="&#x143;" horiz-adv-x="748" 
d="M617 922l-123 -142h-51l107 142h67zM668 700h65l-140 -700h-53l-311 587l-117 -587h-65l140 700h57l308 -583z" />
    <glyph glyph-name="nacute" unicode="&#x144;" horiz-adv-x="642" 
d="M521 757l-119 -152h-50l102 152h67zM402 551q82 0 128 -46t46 -126q0 -8 -0.5 -16t-1.5 -17t-3.5 -24.5t-5.5 -30.5t-9 -45.5t-12 -60t-17 -82t-21 -103.5h-62q14 70 35 170q23 118 28.5 147.5t5.5 49.5q0 62 -33.5 94.5t-97.5 32.5q-78 0 -141 -54.5t-80 -134.5
l-61 -305h-62l108 540h45l-7 -95q39 50 95.5 78t122.5 28z" />
    <glyph glyph-name="uni0145" unicode="&#x145;" horiz-adv-x="748" 
d="M668 700h65l-140 -700h-53l-311 587l-117 -587h-65l140 700h57l308 -583zM259 -128l13 66h72l-12 -60q-7 -34 -30 -55.5t-56 -28.5l7 32q35 10 43 46h-37z" />
    <glyph glyph-name="uni0146" unicode="&#x146;" horiz-adv-x="642" 
d="M402 551q82 0 128 -46t46 -126q0 -8 -0.5 -16t-1.5 -17t-3.5 -24.5t-5.5 -30.5t-9 -45.5t-12 -60t-17 -82t-21 -103.5h-62q14 70 35 170q23 118 28.5 147.5t5.5 49.5q0 62 -33.5 94.5t-97.5 32.5q-78 0 -141 -54.5t-80 -134.5l-61 -305h-62l108 540h45l-7 -95
q39 50 95.5 78t122.5 28zM216 -128l14 66h71l-12 -60q-6 -32 -30 -56.5t-56 -31.5l7 34q35 10 42 48h-36z" />
    <glyph glyph-name="Ncaron" unicode="&#x147;" horiz-adv-x="748" 
d="M512 780h-70l-91 142h53l77 -104l117 104h61zM668 700h65l-140 -700h-53l-311 587l-117 -587h-65l140 700h57l308 -583z" />
    <glyph glyph-name="ncaron" unicode="&#x148;" horiz-adv-x="642" 
d="M428 605h-69l-89 152h55l73 -113l118 113h62zM402 551q82 0 128 -46t46 -126q0 -8 -0.5 -16t-1.5 -17t-3.5 -24.5t-5.5 -30.5t-9 -45.5t-12 -60t-17 -82t-21 -103.5h-62q14 70 35 170q23 118 28.5 147.5t5.5 49.5q0 62 -33.5 94.5t-97.5 32.5q-78 0 -141 -54.5
t-80 -134.5l-61 -305h-62l108 540h45l-7 -95q39 50 95.5 78t122.5 28z" />
    <glyph glyph-name="Eng" unicode="&#x14a;" horiz-adv-x="748" 
d="M670 700h63l-139 -690q-19 -95 -82.5 -148.5t-157.5 -53.5h-18l12 60h23q61 0 106.5 37.5t56.5 98.5l-306 584l-118 -588h-63l140 700h58l308 -586z" />
    <glyph glyph-name="eng" unicode="&#x14b;" horiz-adv-x="642" 
d="M403 551q82 0 127.5 -46t45.5 -126v-14t-1.5 -16t-2.5 -18t-4.5 -25.5t-6.5 -33.5t-9 -46.5t-12 -58.5t-15.5 -76.5t-19.5 -95.5q-17 -88 -76.5 -136.5t-148.5 -48.5h-27l11 57h16q64 0 108 35.5t56 97.5q9 45 18.5 92t15 75t11.5 57t9 44.5t6.5 32t4.5 24.5t2 16.5
t1.5 13.5t0.5 12q0 60 -33 92t-97 32q-75 0 -139.5 -54t-82.5 -130l-61 -307h-62l108 540h45l-7 -96q40 50 97.5 78.5t121.5 28.5z" />
    <glyph glyph-name="Omacron" unicode="&#x14c;" horiz-adv-x="831" 
d="M372 822l11 54h313l-11 -54h-313zM364 -11q-137 0 -220 82.5t-83 211.5q0 115 56 213t157 156.5t224 58.5q137 0 220 -82.5t83 -211.5q0 -116 -55.5 -214t-156.5 -156t-225 -58zM374 51q101 0 185 49t131 132t47 180q0 106 -68 171.5t-180 65.5q-102 0 -186 -49
t-130.5 -132t-46.5 -180q0 -106 67.5 -171.5t180.5 -65.5z" />
    <glyph glyph-name="omacron" unicode="&#x14d;" horiz-adv-x="658" 
d="M251 660l11 50h312l-10 -50h-313zM278 -11q-70 0 -124.5 29t-83.5 81t-29 119q0 90 45.5 166.5t123.5 121.5t171 45q106 0 171 -64t65 -165q0 -90 -45 -166.5t-123.5 -121.5t-170.5 -45zM284 48q113 0 191.5 81t78.5 192q0 77 -49 124t-131 47q-74 0 -136 -37.5t-98 -100
t-36 -135.5q0 -77 49.5 -124t130.5 -47z" />
    <glyph glyph-name="Obreve" unicode="&#x14e;" horiz-adv-x="831" 
d="M523 774q-58 0 -92.5 30.5t-34.5 83.5q0 17 3 34h50q-3 -12 -3 -29q0 -37 21 -56.5t60 -19.5q32 0 57 12.5t41.5 36t22.5 56.5h51q-13 -70 -60.5 -109t-115.5 -39zM364 -11q-137 0 -220 82.5t-83 211.5q0 115 56 213t157 156.5t224 58.5q137 0 220 -82.5t83 -211.5
q0 -116 -55.5 -214t-156.5 -156t-225 -58zM374 51q101 0 185 49t131 132t47 180q0 106 -68 171.5t-180 65.5q-102 0 -186 -49t-130.5 -132t-46.5 -180q0 -106 67.5 -171.5t180.5 -65.5z" />
    <glyph glyph-name="obreve" unicode="&#x14f;" horiz-adv-x="658" 
d="M398 600q-59 0 -94 32t-35 88q0 13 5 37h49q-4 -19 -4 -33q0 -39 22 -60t62 -21q51 0 83 29.5t43 84.5h51q-15 -76 -62.5 -116.5t-119.5 -40.5zM278 -11q-70 0 -124.5 29t-83.5 81t-29 119q0 90 45.5 166.5t123.5 121.5t171 45q106 0 171 -64t65 -165q0 -90 -45 -166.5
t-123.5 -121.5t-170.5 -45zM284 48q113 0 191.5 81t78.5 192q0 77 -49 124t-131 47q-74 0 -136 -37.5t-98 -100t-36 -135.5q0 -77 49.5 -124t130.5 -47z" />
    <glyph glyph-name="Ohungarumlaut" unicode="&#x150;" horiz-adv-x="831" 
d="M407 780l97 142h59l-108 -142h-48zM567 780l109 142h62l-123 -142h-48zM364 -11q-137 0 -220 82.5t-83 211.5q0 115 56 213t157 156.5t224 58.5q137 0 220 -82.5t83 -211.5q0 -116 -55.5 -214t-156.5 -156t-225 -58zM374 51q101 0 185 49t131 132t47 180q0 106 -68 171.5
t-180 65.5q-102 0 -186 -49t-130.5 -132t-46.5 -180q0 -106 67.5 -171.5t180.5 -65.5z" />
    <glyph glyph-name="ohungarumlaut" unicode="&#x151;" horiz-adv-x="658" 
d="M282 605l99 152h63l-113 -152h-49zM448 605l108 152h62l-122 -152h-48zM278 -11q-70 0 -124.5 29t-83.5 81t-29 119q0 90 45.5 166.5t123.5 121.5t171 45q106 0 171 -64t65 -165q0 -90 -45 -166.5t-123.5 -121.5t-170.5 -45zM284 48q113 0 191.5 81t78.5 192
q0 77 -49 124t-131 47q-74 0 -136 -37.5t-98 -100t-36 -135.5q0 -77 49.5 -124t130.5 -47z" />
    <glyph glyph-name="OE" unicode="&#x152;" horiz-adv-x="963" 
d="M980 640h-343l-51 -255h317l-12 -58h-317l-53 -267h354l-12 -60h-405q-52 -11 -107 -11q-130 0 -210 82t-80 209q0 85 33 164t89 138t135 94t167 35q51 0 100 -11h407zM126 286q0 -69 28.5 -122t82 -83t123.5 -30q49 0 97 11l115 575q-46 12 -96 12q-97 0 -178.5 -52
t-126.5 -135t-45 -176z" />
    <glyph glyph-name="oe" unicode="&#x153;" horiz-adv-x="1132" 
d="M1085 247h-481q-2 -16 -2 -32q0 -30 8 -56t22.5 -46.5t35 -35t47.5 -22t58 -7.5q134 0 213 112h67q-50 -82 -123.5 -126.5t-159.5 -44.5q-80 0 -136.5 40t-77.5 109q-47 -68 -120.5 -108.5t-158.5 -40.5q-70 0 -124 29t-83 81t-29 119q0 89 45.5 166t124 122t169.5 45
q82 0 140.5 -40.5t80.5 -109.5q30 45 71.5 78.5t93.5 52.5t107 19q102 0 162 -62.5t60 -163.5q0 -36 -10 -78zM868 492q-85 0 -153.5 -53t-96.5 -134h418q1 10 1 19q0 77 -45.5 122.5t-123.5 45.5zM284 48q110 0 190 82t80 191q0 77 -49.5 123.5t-130.5 46.5
q-110 0 -190 -81.5t-80 -190.5q0 -77 49 -124t131 -47z" />
    <glyph glyph-name="Racute" unicode="&#x154;" horiz-adv-x="639" 
d="M539 922l-123 -142h-52l107 142h68zM631 531q0 -90 -59 -156.5t-150 -83.5l114 -291h-68l-113 287h-187l-57 -287h-64l140 700h256q84 0 136 -47t52 -122zM371 346q55 0 100 25t70 66.5t25 90.5q0 51 -35 81.5t-96 30.5h-196l-59 -294h191z" />
    <glyph glyph-name="racute" unicode="&#x155;" horiz-adv-x="390" 
d="M424 758l-118 -152h-51l102 152h67zM383 542h47l-12 -59h-52q-75 0 -130 -47t-74 -127l-62 -309h-62l108 540h45l-10 -99q79 101 202 101z" />
    <glyph glyph-name="uni0156" unicode="&#x156;" horiz-adv-x="639" 
d="M631 531q0 -90 -59 -156.5t-150 -83.5l114 -291h-68l-113 287h-187l-57 -287h-64l140 700h256q84 0 136 -47t52 -122zM371 346q55 0 100 25t70 66.5t25 90.5q0 51 -35 81.5t-96 30.5h-196l-59 -294h191zM218 -128l14 66h71l-12 -60q-6 -34 -29 -55.5t-56 -28.5l6 32
q36 10 44 46h-38z" />
    <glyph glyph-name="uni0157" unicode="&#x157;" horiz-adv-x="390" 
d="M383 542h47l-12 -59h-52q-75 0 -130 -47t-74 -127l-62 -309h-62l108 540h45l-10 -99q79 101 202 101zM8 -128l13 66h71l-12 -60q-6 -32 -30 -56.5t-56 -31.5l7 34q35 10 42 48h-35z" />
    <glyph glyph-name="Rcaron" unicode="&#x158;" horiz-adv-x="639" 
d="M434 780h-70l-91 142h53l76 -104l118 104h61zM631 531q0 -90 -59 -156.5t-150 -83.5l114 -291h-68l-113 287h-187l-57 -287h-64l140 700h256q84 0 136 -47t52 -122zM371 346q55 0 100 25t70 66.5t25 90.5q0 51 -35 81.5t-96 30.5h-196l-59 -294h191z" />
    <glyph glyph-name="rcaron" unicode="&#x159;" horiz-adv-x="390" 
d="M331 606h-69l-89 152h55l73 -114l118 114h62zM181 441q79 101 202 101h47l-12 -59h-52q-75 0 -130 -47t-74 -127l-62 -309h-62l108 540h45z" />
    <glyph glyph-name="Sacute" unicode="&#x15a;" horiz-adv-x="590" 
d="M355 780l107 142h67l-123 -142h-51zM245 -10q-99 0 -156 46t-57 129q0 23 4 46h65q-3 -18 -3 -34q0 -59 43.5 -92t114.5 -33q87 0 147 48t60 119q0 21 -9.5 38t-22.5 28t-37 20.5t-42.5 14.5t-49.5 12q-25 6 -40 10t-38 11.5t-37 15t-30.5 19t-26 25t-15.5 31.5t-6 40
q0 102 76.5 164t196.5 62q60 0 103.5 -19t66 -55t22.5 -84q0 -18 -5 -45h-63q3 16 3 31q0 52 -38 82t-102 30q-84 0 -139.5 -42.5t-55.5 -109.5q0 -20 9 -36t22 -26t37 -19.5t41.5 -14.5t48.5 -12q26 -6 41.5 -10t39 -12t37.5 -15.5t31 -19.5t26.5 -26t16 -33t6.5 -41
q0 -108 -81.5 -175.5t-203.5 -67.5z" />
    <glyph glyph-name="sacute" unicode="&#x15b;" horiz-adv-x="508" 
d="M278 605l102 152h66l-118 -152h-50zM202 -11q-85 0 -134 37.5t-49 103.5q0 15 2 28h61q-2 -12 -2 -17q0 -47 37 -71t94 -24q74 0 121.5 33t47.5 89q0 17 -8 30t-19 21.5t-31.5 15t-36.5 10t-41 8.5q-31 5 -49 9t-44 13.5t-39.5 21t-24 31t-10.5 44.5q0 82 63.5 130.5
t163.5 48.5q79 0 126.5 -35.5t47.5 -96.5q0 -12 -3 -28h-59q2 12 2 19q0 29 -17 49t-44 28.5t-61 8.5q-71 0 -114.5 -30.5t-43.5 -79.5q0 -11 4 -20.5t9.5 -16t16.5 -12.5t20.5 -9.5t25 -7.5t26.5 -6t29 -5q26 -4 42 -7.5t39 -10t37 -15t28 -21t21 -31t7 -40.5
q0 -91 -68 -143t-173 -52z" />
    <glyph glyph-name="Scircumflex" unicode="&#x15c;" horiz-adv-x="590" 
d="M410 885l-118 -105h-62l148 142h70l92 -142h-52zM569 507h-63q3 16 3 31q0 34 -17.5 59.5t-49 39t-73.5 13.5q-84 0 -139.5 -42.5t-55.5 -109.5q0 -20 9 -36t22 -26t37 -19.5t41.5 -14.5t48.5 -12q26 -6 41.5 -10t39 -12t37.5 -15.5t31 -19.5t26.5 -26t16 -33t6.5 -41
q0 -71 -37.5 -127t-102.5 -86.5t-145 -30.5q-99 0 -156 46.5t-57 129.5q0 23 4 46h65q-3 -18 -3 -34q0 -59 43.5 -92t114.5 -33q87 0 147 48t60 119q0 21 -9.5 38t-22.5 28t-37 20.5t-42.5 14.5t-49.5 12q-25 6 -40 10t-38 11.5t-37 15t-30.5 19t-26 25t-15.5 31.5t-6 40
q0 102 76.5 164t196.5 62q60 0 103.5 -19t66 -55t22.5 -84q0 -18 -5 -45z" />
    <glyph glyph-name="scircumflex" unicode="&#x15d;" horiz-adv-x="508" 
d="M470 605h-52l-77 112l-120 -112h-60l149 152h70zM202 -11q-85 0 -134 37.5t-49 103.5q0 15 2 28h61q-2 -12 -2 -17q0 -47 37 -71t94 -24q74 0 121.5 33t47.5 89q0 17 -8 30t-19 21.5t-31.5 15t-36.5 10t-41 8.5q-31 5 -49 9t-44 13.5t-39.5 21t-24 31t-10.5 44.5
q0 82 63.5 130.5t163.5 48.5q79 0 126.5 -35.5t47.5 -96.5q0 -12 -3 -28h-59q2 12 2 19q0 29 -17 49t-44 28.5t-61 8.5q-71 0 -114.5 -30.5t-43.5 -79.5q0 -11 4 -20.5t9.5 -16t16.5 -12.5t20.5 -9.5t25 -7.5t26.5 -6t29 -5q26 -4 42 -7.5t39 -10t37 -15t28 -21t21 -31
t7 -40.5q0 -91 -68 -143t-173 -52z" />
    <glyph glyph-name="Scedilla" unicode="&#x15e;" horiz-adv-x="590" 
d="M569 507h-63q3 16 3 31q0 34 -17.5 59.5t-49 39t-73.5 13.5q-84 0 -139.5 -42.5t-55.5 -109.5q0 -20 9 -36t22 -26t37 -19.5t41.5 -14.5t48.5 -12q26 -6 41.5 -10t39 -12t37.5 -15.5t31 -19.5t26.5 -26t16 -33t6.5 -41q0 -102 -73.5 -168.5t-186.5 -74.5l-21 -43
q24 -2 41.5 -12t27 -26t9.5 -36q0 -47 -39.5 -78t-95.5 -31h-66l8 40h65q32 0 55 18t23 45q0 20 -16 32t-42 12h-21l-6 10l32 69q-90 5 -141 51t-51 124q0 23 4 46h65q-3 -18 -3 -34q0 -59 43.5 -92t114.5 -33q87 0 147 48t60 119q0 21 -9.5 38t-22.5 28t-37 20.5
t-42.5 14.5t-49.5 12q-25 6 -40 10t-38 11.5t-37 15t-30.5 19t-26 25t-15.5 31.5t-6 40q0 102 76.5 164t196.5 62q60 0 103.5 -19t66 -55t22.5 -84q0 -18 -5 -45z" />
    <glyph glyph-name="scedilla" unicode="&#x15f;" horiz-adv-x="508" 
d="M475 391h-59q2 12 2 19q0 43 -34.5 64.5t-87.5 21.5q-71 0 -114.5 -30.5t-43.5 -79.5q0 -13 4.5 -23.5t14.5 -18t20 -12.5t27.5 -9.5t30.5 -7t34 -6.5q26 -4 42 -7.5t39 -10t37 -15t28 -21t21 -31t7 -41.5q0 -85 -61 -136.5t-158 -57.5l-21 -43q37 -4 59 -25.5t22 -51.5
q0 -48 -36 -77t-92 -29h-73l7 39h63q24 0 43 9t29 24t10 32q0 21 -16 33t-43 12h-23l-6 7l32 70q-74 5 -117 42.5t-43 98.5q0 15 2 28h61q-2 -12 -2 -17q0 -47 37 -71t94 -24q74 0 121.5 33t47.5 89q0 17 -8 30t-19 21.5t-31.5 15t-36.5 10t-41 8.5q-31 5 -49 9t-44 13.5
t-39.5 21t-24 31t-10.5 44.5q0 82 63.5 130.5t163.5 48.5q79 0 126.5 -35.5t47.5 -96.5q0 -12 -3 -28z" />
    <glyph glyph-name="Scaron" unicode="&#x160;" horiz-adv-x="590" 
d="M424 780h-69l-92 142h53l77 -104l117 104h61zM569 507h-63q3 16 3 31q0 34 -17.5 59.5t-49 39t-73.5 13.5q-84 0 -139.5 -42.5t-55.5 -109.5q0 -20 9 -36t22 -26t37 -19.5t41.5 -14.5t48.5 -12q26 -6 41.5 -10t39 -12t37.5 -15.5t31 -19.5t26.5 -26t16 -33t6.5 -41
q0 -71 -37.5 -127t-102.5 -86.5t-145 -30.5q-99 0 -156 46.5t-57 129.5q0 23 4 46h65q-3 -18 -3 -34q0 -59 43.5 -92t114.5 -33q87 0 147 48t60 119q0 21 -9.5 38t-22.5 28t-37 20.5t-42.5 14.5t-49.5 12q-25 6 -40 10t-38 11.5t-37 15t-30.5 19t-26 25t-15.5 31.5t-6 40
q0 102 76.5 164t196.5 62q60 0 103.5 -19t66 -55t22.5 -84q0 -18 -5 -45z" />
    <glyph glyph-name="scaron" unicode="&#x161;" horiz-adv-x="508" 
d="M442 757h62l-150 -152h-69l-90 152h56l73 -113zM202 -11q-85 0 -134 37.5t-49 103.5q0 15 2 28h61q-2 -12 -2 -17q0 -47 37 -71t94 -24q74 0 121.5 33t47.5 89q0 17 -8 30t-19 21.5t-31.5 15t-36.5 10t-41 8.5q-31 5 -49 9t-44 13.5t-39.5 21t-24 31t-10.5 44.5
q0 82 63.5 130.5t163.5 48.5q79 0 126.5 -35.5t47.5 -96.5q0 -12 -3 -28h-59q2 12 2 19q0 29 -17 49t-44 28.5t-61 8.5q-71 0 -114.5 -30.5t-43.5 -79.5q0 -11 4 -20.5t9.5 -16t16.5 -12.5t20.5 -9.5t25 -7.5t26.5 -6t29 -5q26 -4 42 -7.5t39 -10t37 -15t28 -21t21 -31
t7 -40.5q0 -91 -68 -143t-173 -52z" />
    <glyph glyph-name="uni0162" unicode="&#x162;" horiz-adv-x="539" 
d="M244 0h-7l-24 -50q35 -4 56 -26.5t21 -53.5q0 -48 -38 -75t-94 -27h-67l7 39h65q21 0 39 8t28.5 23t10.5 32q0 20 -15.5 32t-42.5 12h-20l-7 10l35 76h-10l128 641h-220l12 59h503l-12 -59h-220z" />
    <glyph glyph-name="uni0163" unicode="&#x163;" horiz-adv-x="372" 
d="M385 484h-178q-8 -41 -16 -81t-13.5 -66.5t-10.5 -52t-8 -41t-6 -30.5t-4.5 -23t-3 -15.5t-2 -12.5t-0.5 -8.5v-7.5q0 -43 25.5 -65.5t75.5 -22.5h59l-11 -58h-67h-6l-24 -49q37 -4 58.5 -24.5t21.5 -51.5q0 -45 -40 -76t-94 -31h-65l7 36h63q22 0 41 9t29.5 24.5
t10.5 34.5q0 13 -7 23t-20.5 16t-30.5 6h-22l-5 7l37 80q-48 11 -74 44t-26 84q0 6 0.5 10.5t1.5 12.5t2 15.5t4 23t6 30.5l8.5 42.5l11 55t14.5 72t18 90.5h-92l3 12l173 147h11l-21 -103h177z" />
    <glyph glyph-name="Tcaron" unicode="&#x164;" horiz-adv-x="539" 
d="M403 780h-70l-91 142h52l77 -104l117 104h62zM604 700l-12 -59h-220l-128 -641h-63l128 641h-220l12 59h503z" />
    <glyph glyph-name="tcaron" unicode="&#x165;" horiz-adv-x="380" 
d="M460 732h71l-13 -61q-4 -20 -16 -38.5t-30.5 -32.5t-39.5 -19l6 33q9 1 16.5 6t13 12t9.5 15.5t6 18.5h-37zM240 643l-21 -103h170l-12 -56h-170q-15 -77 -36 -179q-28 -142 -28 -159q0 -42 26 -65t74 -23h63l-12 -59h-66q-70 0 -109.5 35.5t-39.5 98.5q0 5 0.5 10
t1.5 13t2 15.5t4 22.5t6 30.5t8.5 43l11 55t14.5 72t18 89.5h-92l2 12l174 147h11z" />
    <glyph glyph-name="Tbar" unicode="&#x166;" horiz-adv-x="570" 
d="M608 641h-219l-51 -256h164l-12 -56h-164l-66 -329h-63l65 329h-162l12 56h162l51 256h-220l12 59h503z" />
    <glyph glyph-name="tbar" unicode="&#x167;" horiz-adv-x="386" 
d="M398 484h-177q-17 -82 -34 -169h179l-11 -56h-179q-20 -97 -20 -113q0 -29 11.5 -48.5t34 -29.5t54.5 -10h63l-11 -59h-67q-70 0 -109 35.5t-39 98.5q0 23 20 126h-91l12 56h91q18 89 34 169h-93l3 12l173 147h11l-20 -103h177z" />
    <glyph glyph-name="Utilde" unicode="&#x168;" horiz-adv-x="722" 
d="M532 786q-18 0 -33 6.5t-25.5 16.5t-22.5 26q-16 21 -28 30.5t-28 9.5q-53 0 -69 -84h-42q26 129 118 129q19 0 34 -6.5t24.5 -16t21.5 -26.5q15 -21 27 -30.5t30 -9.5q51 0 67 82h42q-8 -42 -24.5 -70.5t-39.5 -42.5t-52 -14zM310 -11q-101 0 -163.5 59t-62.5 154v15.5
t1.5 17.5t3.5 21.5t6 32t8.5 43t12 60.5t15.5 78t21 102.5t26 127.5h64q-12 -64 -24.5 -126t-20 -101t-15.5 -77.5t-12.5 -60.5t-8.5 -43t-5.5 -32t-3 -21t-2 -16t-0.5 -12q0 -73 44 -116.5t120 -43.5q95 0 163.5 58.5t87.5 153.5l87 437h64l-90 -444
q-23 -120 -109.5 -193.5t-206.5 -73.5z" />
    <glyph glyph-name="utilde" unicode="&#x169;" horiz-adv-x="631" 
d="M458 615q-28 0 -46.5 12t-36.5 36q-9 14 -16.5 21.5t-16.5 12t-20 4.5q-51 0 -67 -81h-41q25 126 116 126q28 0 44.5 -11.5t34.5 -36.5q15 -21 27 -29.5t29 -8.5q52 0 66 78h41q-11 -60 -40.5 -91.5t-73.5 -31.5zM266 -11q-92 0 -145 49.5t-54 134.5q0 5 0.5 10.5t1 11.5
t2 15t3 18.5t5 26.5t6.5 33t8.5 44t11 55t14 69.5t17.5 83.5h62q-9 -43 -17.5 -85t-14 -69.5t-10.5 -54.5t-8.5 -43.5t-6.5 -32t-4.5 -24l-3 -17t-2 -13.5t-0.5 -9.5v-9.5q0 -42 16.5 -72t48 -46t75.5 -16q83 0 138 50t73 138l60 304h62l-63 -316q-22 -110 -93.5 -172.5
t-181.5 -62.5z" />
    <glyph glyph-name="Umacron" unicode="&#x16a;" horiz-adv-x="722" 
d="M304 822l12 54h312l-11 -54h-313zM310 -11q-101 0 -163.5 59t-62.5 154v15.5t1.5 17.5t3.5 21.5t6 32t8.5 43t12 60.5t15.5 78t21 102.5t26 127.5h64q-12 -64 -24.5 -126t-20 -101t-15.5 -77.5t-12.5 -60.5t-8.5 -43t-5.5 -32t-3 -21t-2 -16t-0.5 -12q0 -73 44 -116.5
t120 -43.5q95 0 163.5 58.5t87.5 153.5l87 437h64l-90 -444q-23 -120 -109.5 -193.5t-206.5 -73.5z" />
    <glyph glyph-name="umacron" unicode="&#x16b;" horiz-adv-x="631" 
d="M237 660l11 50h313l-11 -50h-313zM266 -11q-92 0 -145 49.5t-54 134.5q0 5 0.5 10.5t1 11.5t2 15t3 18.5t5 26.5t6.5 33t8.5 44t11 55t14 69.5t17.5 83.5h62q-9 -43 -17.5 -85t-14 -69.5t-10.5 -54.5t-8.5 -43.5t-6.5 -32t-4.5 -24l-3 -17t-2 -13.5t-0.5 -9.5v-9.5
q0 -42 16.5 -72t48 -46t75.5 -16q83 0 138 50t73 138l60 304h62l-63 -316q-22 -110 -93.5 -172.5t-181.5 -62.5z" />
    <glyph glyph-name="Ubreve" unicode="&#x16c;" horiz-adv-x="722" 
d="M456 774q-59 0 -93 30.5t-34 83.5q0 17 3 34h50q-3 -12 -3 -29q0 -37 21 -56.5t60 -19.5q48 0 79.5 27.5t41.5 77.5h51q-14 -70 -61 -109t-115 -39zM310 -11q-101 0 -163.5 59t-62.5 154v15.5t1.5 17.5t3.5 21.5t6 32t8.5 43t12 60.5t15.5 78t21 102.5t26 127.5h64
q-12 -64 -24.5 -126t-20 -101t-15.5 -77.5t-12.5 -60.5t-8.5 -43t-5.5 -32t-3 -21t-2 -16t-0.5 -12q0 -73 44 -116.5t120 -43.5q95 0 163.5 58.5t87.5 153.5l87 437h64l-90 -444q-23 -120 -109.5 -193.5t-206.5 -73.5z" />
    <glyph glyph-name="ubreve" unicode="&#x16d;" horiz-adv-x="631" 
d="M384 600q-58 0 -93.5 32t-35.5 88q0 13 5 37h49q-3 -19 -3 -33q0 -26 9.5 -44.5t28.5 -27.5t45 -9q51 0 83 29.5t43 84.5h51q-15 -76 -62 -116.5t-120 -40.5zM266 -11q-92 0 -145 49.5t-54 134.5q0 5 0.5 10.5t1 11.5t2 15t3 18.5t5 26.5t6.5 33t8.5 44t11 55t14 69.5
t17.5 83.5h62q-9 -43 -17.5 -85t-14 -69.5t-10.5 -54.5t-8.5 -43.5t-6.5 -32t-4.5 -24l-3 -17t-2 -13.5t-0.5 -9.5v-9.5q0 -42 16.5 -72t48 -46t75.5 -16q83 0 138 50t73 138l60 304h62l-63 -316q-22 -110 -93.5 -172.5t-181.5 -62.5z" />
    <glyph glyph-name="Uring" unicode="&#x16e;" horiz-adv-x="722" 
d="M454 763q-28 0 -49.5 11.5t-33 31.5t-11.5 46q0 56 37.5 92t94.5 36q29 0 50.5 -11.5t33 -31.5t11.5 -46q0 -55 -38.5 -91.5t-94.5 -36.5zM459 802q38 0 63.5 25t25.5 61q0 16 -7.5 28.5t-21.5 19t-32 6.5q-38 0 -62.5 -24.5t-24.5 -61.5q0 -25 16 -39.5t43 -14.5z
M310 -11q-101 0 -163.5 59t-62.5 154v15.5t1.5 17.5t3.5 21.5t6 32t8.5 43t12 60.5t15.5 78t21 102.5t26 127.5h64q-12 -64 -24.5 -126t-20 -101t-15.5 -77.5t-12.5 -60.5t-8.5 -43t-5.5 -32t-3 -21t-2 -16t-0.5 -12q0 -73 44 -116.5t120 -43.5q95 0 163.5 58.5t87.5 153.5
l87 437h64l-90 -444q-23 -120 -109.5 -193.5t-206.5 -73.5z" />
    <glyph glyph-name="uring" unicode="&#x16f;" horiz-adv-x="631" 
d="M381 592q-40 0 -64 23t-24 60q0 53 35.5 87.5t89.5 34.5q40 0 64.5 -24t24.5 -61q0 -34 -16.5 -61.5t-45 -43t-64.5 -15.5zM386 629q36 0 60 23t24 57q0 24 -15.5 37.5t-41.5 13.5q-36 0 -59.5 -22.5t-23.5 -58.5q0 -23 15.5 -36.5t40.5 -13.5zM266 -11q-92 0 -145 49.5
t-54 134.5q0 5 0.5 10.5t1 11.5t2 15t3 18.5t5 26.5t6.5 33t8.5 44t11 55t14 69.5t17.5 83.5h62q-9 -43 -17.5 -85t-14 -69.5t-10.5 -54.5t-8.5 -43.5t-6.5 -32t-4.5 -24l-3 -17t-2 -13.5t-0.5 -9.5v-9.5q0 -42 16.5 -72t48 -46t75.5 -16q83 0 138 50t73 138l60 304h62
l-63 -316q-22 -110 -93.5 -172.5t-181.5 -62.5z" />
    <glyph glyph-name="Uhungarumlaut" unicode="&#x170;" horiz-adv-x="722" 
d="M340 780l96 142h60l-109 -142h-47zM499 780l110 142h62l-123 -142h-49zM310 -11q-101 0 -163.5 59t-62.5 154v15.5t1.5 17.5t3.5 21.5t6 32t8.5 43t12 60.5t15.5 78t21 102.5t26 127.5h64q-12 -64 -24.5 -126t-20 -101t-15.5 -77.5t-12.5 -60.5t-8.5 -43t-5.5 -32t-3 -21
t-2 -16t-0.5 -12q0 -73 44 -116.5t120 -43.5q95 0 163.5 58.5t87.5 153.5l87 437h64l-90 -444q-23 -120 -109.5 -193.5t-206.5 -73.5z" />
    <glyph glyph-name="uhungarumlaut" unicode="&#x171;" horiz-adv-x="631" 
d="M268 605l99 152h63l-113 -152h-49zM434 605l108 152h62l-122 -152h-48zM266 -11q-92 0 -145 49.5t-54 134.5q0 5 0.5 10.5t1 11.5t2 15t3 18.5t5 26.5t6.5 33t8.5 44t11 55t14 69.5t17.5 83.5h62q-9 -43 -17.5 -85t-14 -69.5t-10.5 -54.5t-8.5 -43.5t-6.5 -32t-4.5 -24
l-3 -17t-2 -13.5t-0.5 -9.5v-9.5q0 -42 16.5 -72t48 -46t75.5 -16q83 0 138 50t73 138l60 304h62l-63 -316q-22 -110 -93.5 -172.5t-181.5 -62.5z" />
    <glyph glyph-name="Uogonek" unicode="&#x172;" horiz-adv-x="722" 
d="M652 700h64l-88 -439q-36 -180 -224 -263q-46 -23 -84.5 -58.5t-38.5 -75.5q0 -22 15 -35t42 -13q32 0 59 10l-8 -42q-33 -13 -72 -13q-40 0 -65 21t-25 56q0 40 29 78.5t74 65.5q-13 -1 -31 -1q-97 1 -156 59t-59 150q0 9 0.5 15.5t2 18t3 22t6 32.5t8.5 43t12 60.5
t16 78.5t20.5 102.5t25.5 127.5h64q-23 -115 -54 -266q-39 -196 -39 -220q0 -73 45.5 -117t122.5 -44q90 0 159 58.5t88 151.5z" />
    <glyph glyph-name="uogonek" unicode="&#x173;" horiz-adv-x="630" 
d="M542 540h62l-64 -318q-16 -82 -60.5 -135.5t-121.5 -83.5q-48 -18 -83.5 -55.5t-35.5 -73.5q0 -25 18 -39t50 -14q22 0 50 8l-8 -38q-31 -14 -66 -14q-42 0 -68.5 21.5t-26.5 57.5q0 35 21.5 71.5t53.5 61.5h-8q-85 0 -136 50.5t-51 133.5v12t0.5 12t2 15.5t3 18.5t5 26
t6.5 33t8.5 43.5t11 54t14 69t16.5 83.5h62q-12 -61 -30 -150q-25 -126 -30.5 -156t-5.5 -49q0 -64 36.5 -99.5t102.5 -35.5q80 0 137 50t74 137z" />
    <glyph glyph-name="Wcircumflex" unicode="&#x174;" horiz-adv-x="1019" 
d="M630 885l-118 -105h-62l147 142h70l92 -142h-51zM1008 700h70l-362 -700h-55l-97 544l-311 -544h-56l-87 700h64l71 -594l329 575h25l104 -575z" />
    <glyph glyph-name="wcircumflex" unicode="&#x175;" horiz-adv-x="844" 
d="M507 717l-119 -112h-61l149 152h70l90 -152h-52zM815 540h63l-294 -540h-50l-84 408l-248 -408h-50l-76 540h61l61 -435l260 423h24l90 -426z" />
    <glyph glyph-name="Ycircumflex" unicode="&#x176;" horiz-adv-x="648" 
d="M439 885l-118 -105h-62l147 142h70l92 -142h-52zM706 700l-348 -422l-55 -278h-66l55 278l-176 422h66l151 -362l299 362h74z" />
    <glyph glyph-name="ycircumflex" unicode="&#x177;" horiz-adv-x="578" 
d="M379 717l-120 -112h-61l150 152h69l91 -152h-52zM544 540h69l-381 -576q-40 -62 -73.5 -95t-69.5 -47t-86 -14h-49l11 56h39q58 0 91 23.5t81 94.5l38 55l-143 503h65l122 -437z" />
    <glyph glyph-name="Ydieresis" unicode="&#x178;" horiz-adv-x="648" 
d="M372 887l-16 -79h-76l16 79h76zM583 887l-16 -79h-76l16 79h76zM706 700l-348 -422l-55 -278h-66l55 278l-176 422h66l151 -362l299 362h74z" />
    <glyph glyph-name="Zacute" unicode="&#x179;" horiz-adv-x="549" 
d="M530 922l-123 -142h-51l107 142h67zM601 700l-3 -13l-513 -628h401l-12 -59h-504l3 12l513 629h-372l12 59h475z" />
    <glyph glyph-name="zacute" unicode="&#x17a;" horiz-adv-x="468" 
d="M438 757l-119 -152h-50l102 152h67zM490 540l-2 -12l-404 -471h313l-11 -57h-415l3 11l404 473h-292l11 56h393z" />
    <glyph glyph-name="Zdotaccent" unicode="&#x17b;" horiz-adv-x="549" 
d="M450 887l-15 -79h-76l15 79h76zM601 700l-3 -13l-513 -628h401l-12 -59h-504l3 12l513 629h-372l12 59h475z" />
    <glyph glyph-name="zdotaccent" unicode="&#x17c;" horiz-adv-x="468" 
d="M370 724l-16 -79h-73l16 79h73zM490 540l-2 -12l-404 -471h313l-11 -57h-415l3 11l404 473h-292l11 56h393z" />
    <glyph glyph-name="Zcaron" unicode="&#x17d;" horiz-adv-x="549" 
d="M426 780h-70l-92 142h53l77 -104l117 104h61zM601 700l-3 -13l-513 -628h401l-12 -59h-504l3 12l513 629h-372l12 59h475z" />
    <glyph glyph-name="zcaron" unicode="&#x17e;" horiz-adv-x="468" 
d="M345 605h-69l-90 152h56l73 -113l118 113h62zM86 484l11 56h393l-2 -12l-404 -471h313l-11 -57h-415l3 11l404 473h-292z" />
    <glyph glyph-name="longs" unicode="&#x17f;" horiz-adv-x="265" 
d="M39 2l119 593q9 46 29.5 76.5t54.5 45.5t82 15h87l-12 -57h-67q-51 0 -78.5 -23t-37.5 -73l-115 -577h-62z" />
    <glyph glyph-name="florin" unicode="&#x192;" horiz-adv-x="430" 
d="M408 620q-31 0 -57 -11.5t-44 -32t-27 -47.5l-29 -85h158l-16 -48h-158l-161 -466q-21 -61 -66.5 -96t-108.5 -35h-45l18 55h29q87 0 119 89l155 453h-103l16 48h103l33 93q20 59 69 95t113 36h79l-15 -48h-62z" />
    <glyph glyph-name="AEacute" unicode="&#x1fc;" horiz-adv-x="884" 
d="M737 922l-123 -142h-51l107 142h67zM900 640h-324l-50 -251h298l-12 -58h-298l-54 -271h336l-12 -60h-400l33 167h-268l-134 -167h-78l565 700h410zM194 224h235l77 388z" />
    <glyph glyph-name="aeacute" unicode="&#x1fd;" horiz-adv-x="1125" 
d="M766 757l-118 -152h-50l102 152h66zM1078 247h-480q-2 -16 -2 -33q0 -76 46 -121t125 -45q130 0 212 112h69q-110 -171 -285 -171q-45 0 -83.5 14t-67 40t-46.5 61l-23 -104h-47l14 91q-46 -48 -107.5 -75t-131.5 -27q-103 0 -166.5 63t-63.5 161q0 89 44.5 167
t122 124.5t169.5 46.5q69 0 121.5 -29t79.5 -81l22 99h48l-15 -94q45 50 105 77.5t128 27.5t119 -29t77.5 -79t26.5 -115q0 -40 -11 -81zM862 493q-88 0 -156 -53t-95 -135h418q1 10 1 18q0 78 -44.5 124t-123.5 46zM283 48q74 0 136 38.5t97 101.5t35 134q0 77 -48.5 123.5
t-129.5 46.5q-73 0 -135 -38t-98 -101t-36 -134q0 -50 22 -89t63 -60.5t94 -21.5z" />
    <glyph glyph-name="Oslashacute" unicode="&#x1fe;" horiz-adv-x="836" 
d="M657 922l-123 -142h-51l107 142h67zM708 642q47 -39 73 -96.5t26 -127.5q0 -86 -34 -165t-92 -137t-139.5 -92.5t-171.5 -34.5q-88 0 -157 34l-68 -85h-70l92 114q-51 38 -79 97t-28 131q0 85 34.5 164.5t92.5 138t139.5 93.5t171.5 35q93 0 165 -39l72 90h70zM125 284
q0 -116 85 -180l412 515q-57 30 -131 30q-99 0 -184 -51t-133.5 -135t-48.5 -179zM375 51q101 0 186.5 50.5t133 134t47.5 178.5q0 110 -77 175l-410 -513q54 -25 120 -25z" />
    <glyph glyph-name="oslashacute" unicode="&#x1ff;" horiz-adv-x="662" 
d="M523 757l-118 -152h-50l102 152h66zM532 507q43 -29 66 -77.5t23 -107.5q0 -89 -45.5 -166t-124 -122t-169.5 -45q-67 0 -119 26l-56 -76h-62l76 101q-26 20 -43.5 47.5t-26.5 60.5t-9 69q0 54 17.5 105t49 92t73.5 72t93.5 48t106.5 17q59 0 106 -21l52 71h62zM102 220
q0 -84 57 -131l295 393q-37 12 -81 12q-74 0 -137 -38.5t-98.5 -101.5t-35.5 -134zM291 46q73 0 136 38t99 100.5t36 133.5q0 90 -68 138l-295 -392q41 -18 92 -18z" />
    <glyph glyph-name="uni0218" unicode="&#x218;" horiz-adv-x="590" 
d="M245 -10q-99 0 -156 46t-57 129q0 23 4 46h65q-3 -18 -3 -34q0 -59 43.5 -92t114.5 -33q87 0 147 48t60 119q0 21 -9.5 38t-22.5 28t-37 20.5t-42.5 14.5t-49.5 12q-25 6 -40 10t-38 11.5t-37 15t-30.5 19t-26 25t-15.5 31.5t-6 40q0 102 76.5 164t196.5 62
q60 0 103.5 -19t66 -55t22.5 -84q0 -18 -5 -45h-63q3 16 3 31q0 52 -38 82t-102 30q-84 0 -139.5 -42.5t-55.5 -109.5q0 -20 9 -36t22 -26t37 -19.5t41.5 -14.5t48.5 -12q26 -6 41.5 -10t39 -12t37.5 -15.5t31 -19.5t26.5 -26t16 -33t6.5 -41q0 -108 -81.5 -175.5
t-203.5 -67.5zM181 -209l7 32q36 9 43 46h-37l14 66h71l-12 -61q-5 -22 -17 -39.5t-29.5 -28.5t-39.5 -15z" />
    <glyph glyph-name="uni0219" unicode="&#x219;" horiz-adv-x="508" 
d="M202 -11q-85 0 -134 37.5t-49 103.5q0 15 2 28h61q-2 -12 -2 -17q0 -47 37 -71t94 -24q74 0 121.5 33t47.5 89q0 17 -8 30t-19 21.5t-31.5 15t-36.5 10t-41 8.5q-31 5 -49 9t-44 13.5t-39.5 21t-24 31t-10.5 44.5q0 82 63.5 130.5t163.5 48.5q79 0 126.5 -35.5
t47.5 -96.5q0 -12 -3 -28h-59q2 12 2 19q0 29 -17 49t-44 28.5t-61 8.5q-71 0 -114.5 -30.5t-43.5 -79.5q0 -11 4 -20.5t9.5 -16t16.5 -12.5t20.5 -9.5t25 -7.5t26.5 -6t29 -5q26 -4 42 -7.5t39 -10t37 -15t28 -21t21 -31t7 -40.5q0 -91 -68 -143t-173 -52zM137 -214l7 34
q35 10 42 48h-36l14 66h71l-12 -61q-6 -31 -30 -55.5t-56 -31.5z" />
    <glyph glyph-name="uni021A" unicode="&#x21a;" horiz-adv-x="539" 
d="M604 700l-12 -59h-220l-128 -641h-63l128 641h-220l12 59h503zM154 -128l13 66h72l-12 -60q-5 -23 -17 -40t-29.5 -28t-39.5 -16l7 32q35 10 43 46h-37z" />
    <glyph glyph-name="uni021B" unicode="&#x21b;" horiz-adv-x="383" 
d="M385 484h-177q-16 -77 -36 -180q-29 -141 -29 -158q0 -43 26 -65.5t73 -22.5h64l-11 -59h-67q-70 0 -109.5 35.5t-39.5 98.5q0 5 0.5 10t1.5 13t2 15.5t4 22.5t6 30.5t8.5 43t11.5 55t15 72t18 89.5h-93l3 12l173 147h11l-21 -103h177zM145 -128l13 66h71l-12 -60
q-6 -32 -29.5 -56.5t-56.5 -31.5l7 34q36 10 43 48h-36z" />
    <glyph glyph-name="circumflex" unicode="&#x2c6;" horiz-adv-x="599" 
d="M522 605h-52l-77 112l-119 -112h-61l149 152h70z" />
    <glyph glyph-name="caron" unicode="&#x2c7;" horiz-adv-x="597" 
d="M474 757h62l-150 -152h-69l-89 152h56l72 -113z" />
    <glyph glyph-name="breve" unicode="&#x2d8;" horiz-adv-x="600" 
d="M340 600q-59 0 -94 32t-35 88q0 13 4 37h50q-4 -19 -4 -33q0 -39 22 -60t61 -21q52 0 84 29.5t43 84.5h50q-14 -76 -61.5 -116.5t-119.5 -40.5z" />
    <glyph glyph-name="dotaccent" unicode="&#x2d9;" horiz-adv-x="274" 
d="M120 645l16 79h73l-17 -79h-72z" />
    <glyph glyph-name="ring" unicode="&#x2da;" horiz-adv-x="410" 
d="M271 592q-27 0 -47 10.5t-31 29.5t-11 43q0 35 16.5 63t45 43.5t63.5 15.5q41 0 65.5 -24t24.5 -61q0 -51 -36 -85.5t-90 -34.5zM276 629q36 0 59.5 23t23.5 57q0 24 -15 37.5t-42 13.5q-35 0 -58.5 -22.5t-23.5 -58.5q0 -23 15 -36.5t41 -13.5z" />
    <glyph glyph-name="ogonek" unicode="&#x2db;" horiz-adv-x="433" 
d="M128 -226q-44 0 -69.5 21.5t-25.5 56.5q0 56 55 110t135 79l-3 -34q-55 -17 -96 -56t-41 -79q0 -25 18.5 -40t50.5 -15q24 0 49 10l-8 -40q-33 -13 -65 -13z" />
    <glyph glyph-name="tilde" unicode="&#x2dc;" horiz-adv-x="600" 
d="M444 615q-29 0 -47 12t-37 36q-14 20 -25.5 29t-26.5 9q-52 0 -68 -81h-41q25 126 116 126q28 0 44.5 -11.5t34.5 -36.5q15 -21 27 -29.5t29 -8.5q52 0 66 78h41q-7 -40 -23 -67.5t-38.5 -41.5t-51.5 -14z" />
    <glyph glyph-name="hungarumlaut" unicode="&#x2dd;" horiz-adv-x="504" 
d="M164 605l98 152h64l-113 -152h-49zM330 605l108 152h62l-122 -152h-48z" />
    <glyph glyph-name="gravecomb" unicode="&#x300;" 
d="M-26 605h-50l-58 152h66z" />
    <glyph glyph-name="acutecomb" unicode="&#x301;" 
d="M-171 605l102 152h66l-118 -152h-50z" />
    <glyph glyph-name="uni0302" unicode="&#x302;" 
d="M-109 605h-52l-77 112l-120 -112h-60l149 152h69z" />
    <glyph glyph-name="tildecomb" unicode="&#x303;" 
d="M-156 615q-29 0 -47 12t-37 36q-14 20 -25.5 29t-26.5 9q-52 0 -68 -81h-41q25 126 116 126q28 0 44.5 -11.5t34.5 -36.5q15 -21 27 -29.5t29 -8.5q52 0 66 78h41q-7 -40 -23 -67.5t-38.5 -41.5t-51.5 -14z" />
    <glyph glyph-name="uni0304" unicode="&#x304;" 
d="M-332 660l10 50h314l-11 -50h-313z" />
    <glyph glyph-name="uni0306" unicode="&#x306;" 
d="M-199 600q-59 0 -94 32t-35 88q0 13 4 37h50q-4 -19 -4 -33q0 -39 22 -60t62 -21q51 0 83 29.5t43 84.5h50q-14 -76 -61.5 -116.5t-119.5 -40.5z" />
    <glyph glyph-name="uni0307" unicode="&#x307;" 
d="M-154 645l16 79h72l-16 -79h-72z" />
    <glyph glyph-name="uni0308" unicode="&#x308;" 
d="M-340 645l16 79h77l-16 -79h-77zM-156 645l17 79h76l-16 -79h-77z" />
    <glyph glyph-name="uni030A" unicode="&#x30a;" 
d="M-139 592q-41 0 -65 23t-24 60q0 26 9.5 49t26 39t39.5 25t50 9q40 0 64.5 -24t24.5 -61q0 -34 -16.5 -61.5t-45 -43t-63.5 -15.5zM-134 629q35 0 59 23t24 57q0 24 -15.5 37.5t-41.5 13.5q-35 0 -58.5 -22.5t-23.5 -58.5q0 -23 15 -36.5t41 -13.5z" />
    <glyph glyph-name="uni030B" unicode="&#x30b;" 
d="M-356 605l99 152h63l-113 -152h-49zM-190 605l108 152h62l-122 -152h-48z" />
    <glyph glyph-name="uni030C" unicode="&#x30c;" 
d="M-123 757h62l-150 -152h-69l-90 152h56l73 -113z" />
    <glyph glyph-name="uni0312" unicode="&#x312;" 
d="M-286 642l12 61q5 30 29 53.5t56 30.5l-7 -34q-35 -9 -42 -44h36l-13 -67h-71z" />
    <glyph glyph-name="uni0326" unicode="&#x326;" 
d="M-202 -210l7 34q35 10 42 48h-35l13 66h71l-12 -60q-6 -32 -30 -56.5t-56 -31.5z" />
    <glyph glyph-name="uni0327" unicode="&#x327;" 
d="M-267 -49q37 -4 59 -25.5t22 -52.5t-16.5 -55t-45.5 -37.5t-66 -13.5h-73l7 39h63q36 0 59 19t23 47q0 20 -16 32t-43 12h-24l-5 7l44 97h46z" />
    <glyph glyph-name="uni0328" unicode="&#x328;" 
d="M-305 -226q-44 0 -69.5 21.5t-25.5 56.5q0 56 55 110t135 79l-4 -34q-35 -11 -66 -32t-50.5 -49t-19.5 -54q0 -17 8 -29t23.5 -19t37.5 -7q24 0 49 10l-8 -40q-33 -13 -65 -13z" />
    <glyph glyph-name="uni0335" unicode="&#x335;" 
d="M-423 620l11 52h353l-10 -52h-354z" />
    <glyph glyph-name="uni0337" unicode="&#x337;" 
d="M-402 248l12 62l312 166l-12 -61z" />
    <glyph glyph-name="tonos" unicode="&#x384;" horiz-adv-x="339" 
d="M167 605l102 152h67l-118 -152h-51z" />
    <glyph glyph-name="dieresistonos" unicode="&#x385;" horiz-adv-x="432" 
d="M161 605l83 152h59l-93 -152h-49zM68 654l13 64h64l-12 -64h-65zM320 654l13 64h64l-12 -64h-65z" />
    <glyph glyph-name="Alphatonos" unicode="&#x386;" horiz-adv-x="708" 
d="M569 0l-41 183h-357l-113 -183h-71l431 700h59l159 -700h-67zM284 700l-124 -142h-50l106 142h68zM431 612l-226 -372h310z" />
    <glyph glyph-name="Epsilontonos" unicode="&#x388;" horiz-adv-x="657" 
d="M160 700h68l-124 -142h-50zM674 640h-324l-50 -248h298l-12 -59h-297l-55 -272h335l-12 -61h-399l140 700h388z" />
    <glyph glyph-name="Etatonos" unicode="&#x389;" horiz-adv-x="840" 
d="M160 700h68l-124 -142h-50zM761 700h64l-140 -700h-64l67 334h-399l-67 -334h-64l140 700h64l-62 -308h400z" />
    <glyph glyph-name="Iotatonos" unicode="&#x38a;" horiz-adv-x="377" 
d="M54 558l106 142h68l-124 -142h-50zM158 0l140 700h64l-140 -700h-64z" />
    <glyph glyph-name="Omicrontonos" unicode="&#x38c;" horiz-adv-x="914" 
d="M448 -11q-137 0 -220.5 82.5t-83.5 211.5q0 115 56 213t157 156.5t225 58.5q137 0 220 -82.5t83 -211.5q0 -116 -56 -214t-157 -156t-224 -58zM66 558l106 142h67l-123 -142h-50zM457 51q102 0 186 49t130.5 132t46.5 180q0 106 -68 171.5t-180 65.5q-101 0 -185 -49
t-131 -132t-47 -180q0 -106 68 -171.5t180 -65.5z" />
    <glyph glyph-name="Upsilontonos" unicode="&#x38e;" horiz-adv-x="827" 
d="M112 558l106 142h67l-123 -142h-50zM885 700l-348 -422l-55 -278h-66l56 278l-177 422h66l152 -362l298 362h74z" />
    <glyph glyph-name="Omegatonos" unicode="&#x38f;" horiz-adv-x="904" 
d="M860 420q0 -111 -60 -207t-161 -154h159l-12 -59h-307l11 58q131 30 218.5 133t87.5 229q0 100 -68.5 164.5t-178.5 64.5q-73 0 -140 -29t-115.5 -77.5t-77 -113t-28.5 -132.5q0 -87 48 -151.5t132 -87.5l-11 -58h-307l12 59h176q-54 42 -84.5 103.5t-30.5 134.5
q0 83 34 159.5t91.5 132.5t137.5 89t167 33q135 0 221 -82.5t86 -208.5zM258 700l-123 -142h-50l106 142h67z" />
    <glyph glyph-name="iotadieresistonos" unicode="&#x390;" horiz-adv-x="332" 
d="M157 605l69 152h55l-82 -152h-42zM65 655l13 63h65l-13 -63h-65zM298 655l13 63h65l-13 -63h-65zM212 -3q-47 0 -81.5 16t-52.5 46.5t-18 71.5q0 21 42 230q22 107 36 179h62q-16 -79 -38 -190q-38 -188 -38 -208q0 -42 26 -64.5t76 -22.5h58l-12 -58h-60z" />
    <glyph glyph-name="Alpha" unicode="&#x391;" horiz-adv-x="690" 
d="M551 0l-41 183h-357l-113 -183h-72l432 700h58l159 -700h-66zM413 612l-226 -372h309z" />
    <glyph glyph-name="Beta" unicode="&#x392;" horiz-adv-x="648" 
d="M489 362q39 -17 61 -53t22 -83q0 -95 -70.5 -160.5t-173.5 -65.5h-281l140 700h272q70 0 114.5 -42t44.5 -105q0 -59 -37.5 -113t-91.5 -78zM549 542q0 42 -28.5 69.5t-74.5 27.5h-208l-49 -245h211q28 0 55.5 12t48 32t33 47.5t12.5 56.5zM333 61q73 0 122 48.5
t49 115.5q0 48 -31.5 79t-82.5 31h-213l-55 -274h211z" />
    <glyph glyph-name="Gamma" unicode="&#x393;" horiz-adv-x="492" 
d="M555 700l-12 -56h-303l-129 -644h-64l140 700h368z" />
    <glyph glyph-name="uni0394" unicode="&#x394;" horiz-adv-x="688" 
d="M455 700l161 -700h-648l430 700h57zM413 608l-333 -550h453z" />
    <glyph glyph-name="Epsilon" unicode="&#x395;" horiz-adv-x="546" 
d="M563 640h-324l-50 -248h299l-12 -59h-298l-55 -272h335l-12 -61h-399l140 700h388z" />
    <glyph glyph-name="Zeta" unicode="&#x396;" horiz-adv-x="549" 
d="M601 700l-3 -13l-513 -628h401l-12 -59h-504l3 12l513 629h-372l12 59h475z" />
    <glyph glyph-name="Eta" unicode="&#x397;" horiz-adv-x="729" 
d="M650 700h64l-140 -700h-64l67 334h-399l-67 -334h-64l140 700h64l-62 -308h400z" />
    <glyph glyph-name="Theta" unicode="&#x398;" horiz-adv-x="831" 
d="M364 -11q-137 0 -220 82.5t-83 211.5q0 115 56 213t157 156.5t224 58.5q137 0 220 -82.5t83 -211.5q0 -116 -55.5 -214t-156.5 -156t-225 -58zM374 51q103 0 187.5 50.5t130 132.5t45.5 178q0 106 -68 171.5t-180 65.5q-104 0 -188 -50.5t-129.5 -133t-45.5 -177.5
q0 -105 67.5 -171t180.5 -66zM214 320l12 60h419l-12 -60h-419z" />
    <glyph glyph-name="Iota" unicode="&#x399;" horiz-adv-x="266" 
d="M47 0l140 700h64l-140 -700h-64z" />
    <glyph glyph-name="Kappa" unicode="&#x39a;" horiz-adv-x="618" 
d="M680 700l-336 -342l221 -358h-75l-205 333h-107l-67 -333h-64l140 700h64l-61 -307h104l301 307h85z" />
    <glyph glyph-name="Lambda" unicode="&#x39b;" horiz-adv-x="661" 
d="M586 0h-65l-120 606l-359 -606h-71l417 700h58z" />
    <glyph glyph-name="Mu" unicode="&#x39c;" horiz-adv-x="951" 
d="M808 700h62l-21 -700h-63l17 585l-365 -561h-19l-140 562l-218 -586h-67l259 700h60l136 -555z" />
    <glyph glyph-name="Nu" unicode="&#x39d;" horiz-adv-x="748" 
d="M668 700h65l-140 -700h-53l-311 587l-117 -587h-65l140 700h57l308 -583z" />
    <glyph glyph-name="Xi" unicode="&#x39e;" horiz-adv-x="580" 
d="M142 645l13 61h446l-13 -61h-446zM119 331l13 62h368l-13 -62h-368zM7 6l13 62h461l-13 -62h-461z" />
    <glyph glyph-name="Omicron" unicode="&#x39f;" horiz-adv-x="831" 
d="M364 -11q-137 0 -220 82.5t-83 211.5q0 115 56 213t157 156.5t224 58.5q137 0 220 -82.5t83 -211.5q0 -116 -55.5 -214t-156.5 -156t-225 -58zM374 51q101 0 185 49t131 132t47 180q0 106 -68 171.5t-180 65.5q-102 0 -186 -49t-130.5 -132t-46.5 -180
q0 -106 67.5 -171.5t180.5 -65.5z" />
    <glyph glyph-name="Pi" unicode="&#x3a0;" horiz-adv-x="699" 
d="M187 700h497l-140 -700h-65l129 641h-369l-128 -641h-64z" />
    <glyph glyph-name="Rho" unicode="&#x3a1;" horiz-adv-x="605" 
d="M427 700q56 0 100 -23t67.5 -64t23.5 -92q0 -70 -35.5 -129t-97.5 -94t-136 -35h-185l-53 -263h-64l140 700h240zM351 324q84 0 143.5 58t59.5 136q0 55 -37 88t-99 33h-179l-63 -315h175z" />
    <glyph glyph-name="Sigma" unicode="&#x3a3;" horiz-adv-x="553" 
d="M599 700l-12 -60h-381l158 -275l-3 -16l-262 -289h381l-12 -60h-498l3 18l317 350l-178 314l4 18h483z" />
    <glyph glyph-name="Tau" unicode="&#x3a4;" horiz-adv-x="539" 
d="M604 700l-12 -59h-220l-128 -641h-63l128 641h-220l12 59h503z" />
    <glyph glyph-name="Upsilon" unicode="&#x3a5;" horiz-adv-x="648" 
d="M706 700l-348 -422l-55 -278h-66l55 278l-176 422h66l151 -362l299 362h74z" />
    <glyph glyph-name="Phi" unicode="&#x3a6;" horiz-adv-x="802" 
d="M775 406q0 -76 -30.5 -145t-83 -119.5t-124.5 -81t-152 -32.5l-17 -83h-64l17 83q-123 8 -192.5 83t-69.5 185q0 102 51.5 188t141.5 137t198 54l16 76h63l-15 -77q121 -5 191 -81t70 -187zM334 87l105 529q-85 -3 -158 -49t-115 -119t-42 -154q0 -89 56.5 -147
t153.5 -60zM396 87q86 3 159 48.5t114 118t41 155.5q0 89 -56 146.5t-152 60.5z" />
    <glyph glyph-name="Chi" unicode="&#x3a7;" horiz-adv-x="590" 
d="M648 700l-293 -336l172 -364h-69l-149 314l-274 -314h-79l319 366l-159 334h70l135 -285l249 285h78z" />
    <glyph glyph-name="Psi" unicode="&#x3a8;" horiz-adv-x="790" 
d="M757 700h64l-47 -237q-26 -132 -119 -209.5t-228 -77.5h-22l-35 -176h-64l35 176h-9q-113 0 -180.5 64t-67.5 168q0 10 0.5 18t2 21.5t3.5 24.5t7 35.5t9 45.5t13 64.5t17 82.5h63q-7 -39 -16 -82t-13 -63.5t-9 -44.5t-6.5 -34.5t-3.5 -23.5t-2.5 -20t-0.5 -16
q0 -81 50.5 -127.5t139.5 -46.5h17l92 458h62l-92 -458h16q109 0 183.5 63.5t96.5 171.5z" />
    <glyph glyph-name="uni03A9" unicode="&#x3a9;" horiz-adv-x="856" 
d="M812 420q0 -111 -59.5 -207t-161.5 -154h159l-12 -59h-307l11 58q87 20 157 73.5t109.5 129.5t39.5 159q0 100 -68.5 164.5t-178.5 64.5q-72 0 -139.5 -29t-115.5 -77.5t-77 -113t-29 -132.5q0 -87 48.5 -151.5t132.5 -87.5l-12 -58h-307l12 59h177q-55 42 -85 103.5
t-30 134.5q0 83 34 159.5t91.5 132.5t137 89t166.5 33q135 0 221 -82.5t86 -208.5z" />
    <glyph glyph-name="Iotadieresis" unicode="&#x3aa;" horiz-adv-x="266" 
d="M144 807l15 73h73l-15 -73h-73zM262 807l15 73h73l-14 -73h-74zM47 0l140 700h64l-140 -700h-64z" />
    <glyph glyph-name="Upsilondieresis" unicode="&#x3ab;" horiz-adv-x="648" 
d="M372 887l-16 -79h-76l16 79h76zM583 887l-16 -79h-76l16 79h76zM706 700l-348 -422l-55 -278h-66l55 278l-176 422h66l151 -362l299 362h74z" />
    <glyph glyph-name="alphatonos" unicode="&#x3ac;" horiz-adv-x="699" 
d="M535 757l-119 -152h-50l102 152h67zM612 540h50l-108 -540h-52l13 96q-46 -51 -108.5 -79t-134.5 -28q-68 0 -121 29t-81.5 81t-28.5 117q0 89 44 166t121 123t169 46q73 0 126.5 -32t80.5 -88zM283 48q73 0 135 38.5t97 101.5t35 134q0 77 -48.5 123.5t-129.5 46.5
q-72 0 -134 -38t-98 -101t-36 -134q0 -50 22 -89t63 -60.5t94 -21.5z" />
    <glyph glyph-name="epsilontonos" unicode="&#x3ad;" horiz-adv-x="484" 
d="M441 757l-118 -152h-51l102 152h67zM213 46q57 0 97.5 24t58.5 66h60q-18 -68 -76.5 -107.5t-141.5 -39.5q-80 0 -130 40.5t-50 104.5q0 51 30 92.5t81 61.5q-50 31 -50 95q0 50 27.5 88.5t75 59t106.5 20.5q75 0 120 -37.5t47 -99.5h-56q-1 39 -31 62.5t-79 23.5
q-44 0 -78.5 -15.5t-53.5 -42.5t-19 -61q0 -11 2.5 -20.5t7.5 -17.5t12.5 -14.5t17 -11t21.5 -7t26 -2.5h88l-9 -47h-89q-56 0 -96 -36.5t-40 -87.5q0 -42 33 -66.5t88 -24.5z" />
    <glyph glyph-name="etatonos" unicode="&#x3ae;" horiz-adv-x="642" 
d="M534 757l-118 -152h-51l102 152h67zM406 551q82 0 126.5 -44t44.5 -123q0 -23 -6 -59t-38 -191q-37 -182 -65 -326h-62q23 118 56 279q36 177 43 216t7 61q0 61 -34 94t-97 33q-78 0 -140 -53t-80 -131l-61 -307h-62l108 540h45l-7 -98q40 51 98 80t124 29z" />
    <glyph glyph-name="iotatonos" unicode="&#x3af;" horiz-adv-x="332" 
d="M148 605l102 152h66l-118 -152h-50zM212 -3q-47 0 -81.5 16t-52.5 46.5t-18 71.5q0 21 42 230q22 107 36 179h62q-16 -79 -38 -190q-38 -188 -38 -208q0 -42 26 -64.5t76 -22.5h58l-12 -58h-60z" />
    <glyph glyph-name="upsilondieresistonos" unicode="&#x3b0;" horiz-adv-x="631" 
d="M334 605l82 152h60l-93 -152h-49zM241 654l13 64h64l-12 -64h-65zM493 654l13 64h64l-12 -64h-65zM266 -11q-92 0 -145 49.5t-54 134.5q0 5 0.5 10.5t1 11.5t2 15t3 18.5t5 26.5t6.5 33t8.5 44t11 55t14 69.5t17.5 83.5h62q-9 -43 -17.5 -85t-14 -69.5t-10.5 -54.5
t-8.5 -43.5t-6.5 -32t-4.5 -24l-3 -17t-2 -13.5t-0.5 -9.5v-9.5q0 -42 16.5 -72t48 -46t75.5 -16q83 0 138 50t73 138l60 304h62l-63 -316q-22 -110 -93.5 -172.5t-181.5 -62.5z" />
    <glyph glyph-name="alpha" unicode="&#x3b1;" horiz-adv-x="699" 
d="M612 540h50l-108 -540h-52l13 96q-46 -51 -108.5 -79t-134.5 -28q-68 0 -121 29t-81.5 81t-28.5 117q0 89 44 166t121 123t169 46q73 0 126.5 -32t80.5 -88zM283 48q73 0 135 38.5t97 101.5t35 134q0 77 -48.5 123.5t-129.5 46.5q-72 0 -134 -38t-98 -101t-36 -134
q0 -50 22 -89t63 -60.5t94 -21.5z" />
    <glyph glyph-name="beta" unicode="&#x3b2;" horiz-adv-x="623" 
d="M478 377q43 -17 65.5 -52.5t22.5 -85.5q0 -109 -78.5 -179.5t-196.5 -70.5q-116 0 -182 62l-47 -235h-62l131 652q54 275 281 275q89 0 143 -46.5t54 -118.5q0 -42 -16.5 -82t-46 -71.5t-68.5 -47.5zM287 48q62 0 112 24t78 67.5t28 97.5q0 53 -35 84t-96 31h-114l11 56
h112q46 0 85.5 22t62 59.5t22.5 82.5q0 52 -37.5 83t-103.5 31q-176 0 -221 -224l-70 -350q56 -64 166 -64z" />
    <glyph glyph-name="gamma" unicode="&#x3b3;" horiz-adv-x="560" 
d="M594 540l-329 -513l-43 -217h-61l43 216l-132 514h62l112 -437l279 437h69z" />
    <glyph glyph-name="delta" unicode="&#x3b4;" horiz-adv-x="609" 
d="M620 708l-11 -56h-338q126 -58 208 -154.5t82 -208.5q1 -125 -86 -212.5t-217 -87.5q-64 0 -114.5 27t-78.5 75t-28 108q0 57 23 111t62 93.5t93 63.5t113 24q64 0 108 -27q-45 57 -120 105.5t-171 80.5l11 58h464zM261 46q101 0 171 71.5t70 166.5q0 69 -44.5 112
t-118.5 43q-67 0 -123 -33.5t-87 -88t-31 -116.5q0 -68 44.5 -111.5t118.5 -43.5z" />
    <glyph glyph-name="epsilon" unicode="&#x3b5;" horiz-adv-x="484" 
d="M213 46q57 0 97.5 24t58.5 66h60q-18 -68 -76.5 -107.5t-141.5 -39.5q-80 0 -130 40.5t-50 104.5q0 51 30 92.5t81 61.5q-50 31 -50 95q0 50 27.5 88.5t75 59t106.5 20.5q75 0 120 -37.5t47 -99.5h-56q-1 39 -31 62.5t-79 23.5q-44 0 -78.5 -15.5t-53.5 -42.5t-19 -61
q0 -11 2.5 -20.5t7.5 -17.5t12.5 -14.5t17 -11t21.5 -7t26 -2.5h88l-9 -47h-89q-56 0 -96 -36.5t-40 -87.5q0 -42 33 -66.5t88 -24.5z" />
    <glyph glyph-name="zeta" unicode="&#x3b6;" horiz-adv-x="499" 
d="M580 686q-93 -63 -159 -110.5t-131.5 -101t-105 -97.5t-64 -89.5t-24.5 -87.5q0 -38 23 -66t57 -43t74 -31.5t74 -30.5t57 -40.5t23 -61.5q0 -22 -11 -58t-24 -61h-61q11 22 20.5 51t9.5 45q0 22 -13 39.5t-34.5 29t-49 23.5t-56 22t-56.5 26t-49.5 33.5t-34.5 45.5
t-13 63q0 37 13 75.5t33.5 72t55.5 72t67 68.5t81 68.5t86 65.5t91 65h-305l12 59h423z" />
    <glyph glyph-name="eta" unicode="&#x3b7;" horiz-adv-x="642" 
d="M406 551q82 0 126.5 -44t44.5 -123q0 -23 -6 -59t-38 -191q-37 -182 -65 -326h-62q23 118 56 279q36 177 43 216t7 61q0 61 -34 94t-97 33q-78 0 -140 -53t-80 -131l-61 -307h-62l108 540h45l-7 -98q40 51 98 80t124 29z" />
    <glyph glyph-name="theta" unicode="&#x3b8;" horiz-adv-x="696" 
d="M434 739q111 0 171.5 -74.5t60.5 -198.5q0 -90 -26 -175.5t-72.5 -152.5t-117.5 -108t-154 -41q-111 0 -171 74t-60 197q0 91 26 176.5t72 153t117 108.5t154 41zM428 679q-71 0 -130.5 -40t-97 -103t-57.5 -142h456q5 37 5 74q0 101 -46 156t-130 55zM301 48
q71 0 131 40.5t98 104t58 143.5h-456q-5 -39 -5 -77q0 -100 45.5 -155.5t128.5 -55.5z" />
    <glyph glyph-name="iota" unicode="&#x3b9;" horiz-adv-x="332" 
d="M212 -3q-47 0 -81.5 16t-52.5 46.5t-18 71.5q0 21 42 230q22 107 36 179h62q-16 -79 -38 -190q-38 -188 -38 -208q0 -42 26 -64.5t76 -22.5h58l-12 -58h-60z" />
    <glyph glyph-name="kappa" unicode="&#x3ba;" horiz-adv-x="524" 
d="M559 540l-261 -259l172 -281h-70l-155 253h-94l-51 -253h-62l108 540h62l-46 -230h83l232 230h82z" />
    <glyph glyph-name="lambda" unicode="&#x3bb;" horiz-adv-x="558" 
d="M479 0h-64l-92 436l-293 -436h-71l346 514l-13 50q-13 54 -32 71.5t-62 17.5h-30l11 58h34q60 0 92 -33.5t49 -110.5z" />
    <glyph glyph-name="uni03BC" unicode="&#x3bc;" horiz-adv-x="648" 
d="M548 540h62l-108 -540h-43l8 101q-39 -49 -97.5 -80.5t-117.5 -31.5q-106 0 -142 65l-50 -246h-60l146 732h62q-10 -51 -20.5 -101.5t-16 -79.5t-11.5 -58.5t-9 -44.5t-5.5 -29.5t-3.5 -23t-1.5 -16t-0.5 -15.5q0 -122 126 -122q75 0 140.5 54.5t81.5 129.5z" />
    <glyph glyph-name="nu" unicode="&#x3bd;" horiz-adv-x="566" 
d="M533 540h66l-341 -540h-55l-131 540h62l110 -458z" />
    <glyph glyph-name="xi" unicode="&#x3be;" horiz-adv-x="510" 
d="M371 738q86 0 141.5 -52.5t48.5 -129.5h-60q0 40 -17.5 69t-47 43t-68.5 14q-40 0 -74.5 -12.5t-59 -34.5t-38.5 -52t-14 -64q0 -45 29.5 -73t78.5 -28h108l-11 -56h-110q-72 0 -125 -56t-53 -127q0 -21 5.5 -38t18.5 -30t24.5 -22.5t33.5 -19t35 -14.5t38 -13
q28 -10 43 -15.5t37 -16.5t33 -22t19.5 -27.5t8.5 -36.5q0 -45 -35 -116h-63q11 21 21 51t10 44q0 28 -26.5 46t-89.5 40q-88 29 -134 70t-46 108q0 76 44 137.5t116 86.5q-36 17 -55.5 50.5t-19.5 76.5q0 48 19.5 89t53.5 70t80.5 45t100.5 16z" />
    <glyph glyph-name="omicron" unicode="&#x3bf;" horiz-adv-x="658" 
d="M278 -11q-70 0 -124.5 29t-83.5 81t-29 119q0 90 45.5 166.5t123.5 121.5t171 45q106 0 171 -64t65 -165q0 -90 -45 -166.5t-123.5 -121.5t-170.5 -45zM284 48q113 0 191.5 81t78.5 192q0 77 -49 124t-131 47q-74 0 -136 -37.5t-98 -100t-36 -135.5q0 -77 49.5 -124
t130.5 -47z" />
    <glyph glyph-name="pi" unicode="&#x3c0;" horiz-adv-x="631" 
d="M146 540h448l-108 -540h-62l98 484h-325l-97 -484h-62z" />
    <glyph glyph-name="rho" unicode="&#x3c1;" horiz-adv-x="674" 
d="M405 551q102 0 165 -64.5t63 -163.5q0 -88 -43.5 -165t-120 -123t-166.5 -46q-66 0 -119.5 32t-77.5 83l-59 -296h-63l93 464q25 125 115 202t213 77zM308 48q73 0 134 39t95 101.5t34 132.5q0 76 -47.5 123t-126.5 47q-74 0 -135 -38.5t-95 -100.5t-34 -133
q0 -76 48 -123.5t127 -47.5z" />
    <glyph glyph-name="uni03C2" unicode="&#x3c2;" horiz-adv-x="596" 
d="M372 -192q30 63 30 97q0 17 -8 30t-18 21.5t-32 17.5t-36.5 13.5l-43.5 13.5q-27 7 -45 13t-43 16.5t-42 21t-35.5 27.5t-29.5 36.5t-18.5 46t-7.5 57.5q0 141 95 236.5t239 95.5q92 0 152.5 -49.5t73.5 -134.5h-62q-10 39 -33.5 67t-58.5 42.5t-79 14.5
q-111 0 -187 -76.5t-76 -184.5q0 -25 6.5 -46t15 -35.5t26 -28.5t30.5 -22t38 -17t38.5 -13.5t42.5 -12.5q35 -10 60.5 -20t50.5 -25.5t38.5 -36.5t13.5 -48q0 -20 -11.5 -55t-23.5 -62h-60z" />
    <glyph glyph-name="sigma" unicode="&#x3c3;" horiz-adv-x="691" 
d="M724 541l-11 -57h-190q20 -13 35.5 -31t26.5 -39.5t16.5 -47t5.5 -52.5q0 -88 -44 -162.5t-121 -118.5t-169 -44q-69 0 -122 29t-81.5 80.5t-28.5 115.5q0 90 44 165t121 118.5t170 43.5h348zM281 48q112 0 188.5 79.5t76.5 187.5q0 76 -48.5 122.5t-128.5 46.5
q-113 0 -189 -79t-76 -187q0 -76 48 -123t129 -47z" />
    <glyph glyph-name="tau" unicode="&#x3c4;" horiz-adv-x="473" 
d="M479 484h-186q-11 -53 -27 -134q-38 -188 -38 -208q0 -42 26 -64.5t76 -22.5h58l-11 -58h-61q-71 0 -111.5 36t-40.5 98q0 21 42 230q5 24 8 38t7.5 38.5t9.5 46.5h-180l11 56h428z" />
    <glyph glyph-name="upsilon" unicode="&#x3c5;" horiz-adv-x="631" 
d="M266 -11q-92 0 -145 49.5t-54 134.5q0 5 0.5 10.5t1 11.5t2 15t3 18.5t5 26.5t6.5 33t8.5 44t11 55t14 69.5t17.5 83.5h62q-9 -43 -17.5 -85t-14 -69.5t-10.5 -54.5t-8.5 -43.5t-6.5 -32t-4.5 -24l-3 -17t-2 -13.5t-0.5 -9.5v-9.5q0 -42 16.5 -72t48 -46t75.5 -16
q83 0 138 50t73 138l60 304h62l-63 -316q-22 -110 -93.5 -172.5t-181.5 -62.5z" />
    <glyph glyph-name="phi" unicode="&#x3c6;" horiz-adv-x="726" 
d="M684 318q0 -139 -98 -232t-248 -97l-36 -181h-61l37 181q-69 2 -123 32t-84 82t-30 116q0 110 70.5 198t184.5 121l7 -53q-91 -30 -145 -103t-54 -160q0 -75 50.5 -122.5t135.5 -49.5l97 490h52q73 0 129 -28t86 -78t30 -116zM349 50q77 2 139.5 37.5t98 95.5t35.5 130
q0 75 -50.5 120t-136.5 47z" />
    <glyph glyph-name="chi" unicode="&#x3c7;" horiz-adv-x="500" 
d="M530 540l-240 -260l149 -280h-67l-124 235l-216 -235h-76l260 282l-134 258h67l110 -215l197 215h74z" />
    <glyph glyph-name="psi" unicode="&#x3c8;" horiz-adv-x="779" 
d="M693 540h62l-58 -289q-23 -118 -107 -190t-201 -72h-23l-36 -181h-66l36 181h-14q-97 0 -156 60t-59 154q0 9 0.5 16.5t1.5 15.5t3.5 22t5 27.5t8 40.5t10.5 52t14.5 72t18.5 91h62q-10 -46 -24 -118q-26 -127 -31.5 -158.5t-5.5 -51.5q0 -73 44.5 -118t117.5 -45h19
l98 490h61l-97 -490h17q90 0 157.5 59.5t85.5 151.5z" />
    <glyph glyph-name="omega" unicode="&#x3c9;" horiz-adv-x="892" 
d="M826 540q16 -70 16 -149t-15.5 -149t-46 -127.5t-82 -91t-116.5 -33.5q-69 0 -113 33t-51 87q-29 -55 -85 -87.5t-126 -32.5q-76 0 -117 50t-41 140q0 83 34 177t89 183h65q-53 -81 -89 -177t-36 -172q0 -68 29 -105t83 -37q66 0 115.5 42.5t62.5 107.5l37 187h58
q-7 -36 -18 -89q-23 -112 -23 -129q0 -35 15.5 -62t43 -42.5t63.5 -15.5q52 0 92 30t63.5 80t35 108t11.5 121q0 79 -19 153h65z" />
    <glyph glyph-name="iotadieresis" unicode="&#x3ca;" horiz-adv-x="332" 
d="M58 645l16 79h76l-16 -79h-76zM242 645l16 79h76l-16 -79h-76zM212 -3q-47 0 -81.5 16t-52.5 46.5t-18 71.5q0 21 42 230q22 107 36 179h62q-16 -79 -38 -190q-38 -188 -38 -208q0 -42 26 -64.5t76 -22.5h58l-12 -58h-60z" />
    <glyph glyph-name="upsilondieresis" unicode="&#x3cb;" horiz-adv-x="631" 
d="M257 645l16 79h76l-16 -79h-76zM441 645l16 79h76l-16 -79h-76zM266 -11q-92 0 -145 49.5t-54 134.5q0 5 0.5 10.5t1 11.5t2 15t3 18.5t5 26.5t6.5 33t8.5 44t11 55t14 69.5t17.5 83.5h62q-9 -43 -17.5 -85t-14 -69.5t-10.5 -54.5t-8.5 -43.5t-6.5 -32t-4.5 -24l-3 -17
t-2 -13.5t-0.5 -9.5v-9.5q0 -42 16.5 -72t48 -46t75.5 -16q83 0 138 50t73 138l60 304h62l-63 -316q-22 -110 -93.5 -172.5t-181.5 -62.5z" />
    <glyph glyph-name="omicrontonos" unicode="&#x3cc;" horiz-adv-x="658" 
d="M361 605l102 152h66l-118 -152h-50zM278 -11q-70 0 -124.5 29t-83.5 81t-29 119q0 90 45.5 166.5t123.5 121.5t171 45q106 0 171 -64t65 -165q0 -90 -45 -166.5t-123.5 -121.5t-170.5 -45zM284 48q113 0 191.5 81t78.5 192q0 77 -49 124t-131 47q-74 0 -136 -37.5
t-98 -100t-36 -135.5q0 -77 49.5 -124t130.5 -47z" />
    <glyph glyph-name="upsilontonos" unicode="&#x3cd;" horiz-adv-x="631" 
d="M347 605l102 152h66l-118 -152h-50zM266 -11q-92 0 -145 49.5t-54 134.5q0 5 0.5 10.5t1 11.5t2 15t3 18.5t5 26.5t6.5 33t8.5 44t11 55t14 69.5t17.5 83.5h62q-9 -43 -17.5 -85t-14 -69.5t-10.5 -54.5t-8.5 -43.5t-6.5 -32t-4.5 -24l-3 -17t-2 -13.5t-0.5 -9.5v-9.5
q0 -42 16.5 -72t48 -46t75.5 -16q83 0 138 50t73 138l60 304h62l-63 -316q-22 -110 -93.5 -172.5t-181.5 -62.5z" />
    <glyph glyph-name="omegatonos" unicode="&#x3ce;" horiz-adv-x="892" 
d="M646 757l-118 -152h-50l102 152h66zM826 540q16 -70 16 -149t-15.5 -149t-46 -127.5t-82 -91t-116.5 -33.5q-69 0 -113 33t-51 87q-29 -55 -85 -87.5t-126 -32.5q-76 0 -117 50t-41 140q0 83 34 177t89 183h65q-53 -81 -89 -177t-36 -172q0 -68 29 -105t83 -37
q66 0 115.5 42.5t62.5 107.5l37 187h58q-7 -36 -18 -89q-23 -112 -23 -129q0 -35 15.5 -62t43 -42.5t63.5 -15.5q52 0 92 30t63.5 80t35 108t11.5 121q0 79 -19 153h65z" />
    <glyph glyph-name="uni0401" unicode="&#x401;" horiz-adv-x="546" 
d="M358 884l-16 -79h-76l16 79h76zM543 884l-17 -79h-76l16 79h77zM563 640h-324l-50 -248h299l-12 -59h-298l-55 -272h335l-12 -61h-399l140 700h388z" />
    <glyph glyph-name="uni0402" unicode="&#x402;" horiz-adv-x="731" 
d="M488 471q92 0 146 -52t54 -138q0 -126 -82.5 -208t-214.5 -82h-6l12 62h6q99 0 160 64.5t61 155.5q0 41 -17.5 71.5t-51 47t-80.5 16.5q-91 0 -164 -62l-69 -346h-64l128 640h-217l12 60h500l-12 -60h-219l-44 -221q77 52 162 52z" />
    <glyph glyph-name="uni0403" unicode="&#x403;" horiz-adv-x="492" 
d="M499 922l-123 -142h-51l107 142h67zM555 700l-12 -56h-303l-129 -644h-64l140 700h368z" />
    <glyph glyph-name="uni0404" unicode="&#x404;" horiz-adv-x="781" 
d="M365 51q101 0 181 48.5t130 137.5h65q-49 -115 -151 -181.5t-231 -66.5q-134 0 -216.5 82.5t-82.5 210.5q0 114 57 213t156.5 157.5t218.5 58.5q122 0 198 -64t93 -173h-64q-18 83 -79 129t-154 46q-123 0 -218.5 -76t-128.5 -191h361l-11 -59h-362q-2 -20 -2 -40
q0 -104 65.5 -168t174.5 -64z" />
    <glyph glyph-name="uni0405" unicode="&#x405;" horiz-adv-x="590" 
d="M245 -10q-99 0 -156 46t-57 129q0 23 4 46h65q-3 -18 -3 -34q0 -59 43.5 -92t114.5 -33q87 0 147 48t60 119q0 21 -9.5 38t-22.5 28t-37 20.5t-42.5 14.5t-49.5 12q-25 6 -40 10t-38 11.5t-37 15t-30.5 19t-26 25t-15.5 31.5t-6 40q0 102 76.5 164t196.5 62
q60 0 103.5 -19t66 -55t22.5 -84q0 -18 -5 -45h-63q3 16 3 31q0 52 -38 82t-102 30q-84 0 -139.5 -42.5t-55.5 -109.5q0 -20 9 -36t22 -26t37 -19.5t41.5 -14.5t48.5 -12q26 -6 41.5 -10t39 -12t37.5 -15.5t31 -19.5t26.5 -26t16 -33t6.5 -41q0 -108 -81.5 -175.5
t-203.5 -67.5z" />
    <glyph glyph-name="uni0406" unicode="&#x406;" horiz-adv-x="266" 
d="M47 0l140 700h64l-140 -700h-64z" />
    <glyph glyph-name="uni0407" unicode="&#x407;" horiz-adv-x="266" 
d="M144 807l15 73h73l-15 -73h-73zM262 807l15 73h73l-14 -73h-74zM47 0l140 700h64l-140 -700h-64z" />
    <glyph glyph-name="uni0408" unicode="&#x408;" horiz-adv-x="590" 
d="M212 -11q-90 0 -144 52.5t-54 138.5q0 25 7 60h62q-5 -28 -5 -49q0 -63 36.5 -101.5t101.5 -38.5q77 0 135 52.5t74 131.5l93 465h64l-94 -476q-20 -104 -95.5 -169.5t-180.5 -65.5z" />
    <glyph glyph-name="uni0409" unicode="&#x409;" horiz-adv-x="1081" 
d="M849 438q87 0 140 -50.5t53 -130.5q0 -109 -77 -183t-193 -74h-256l128 641h-295l-121 -434q-30 -104 -88.5 -156t-150.5 -52h-24l12 64h23q63 0 102.5 35t59.5 108l139 494h370l49 -1l-52 -261h181zM773 60q88 0 146.5 57t58.5 137q0 56 -38 90.5t-101 34.5h-183
l-64 -319h181z" />
    <glyph glyph-name="uni040A" unicode="&#x40a;" horiz-adv-x="1013" 
d="M783 409q88 0 138.5 -46.5t50.5 -120.5q0 -107 -72 -174.5t-189 -67.5h-250l69 346h-350l-69 -346h-64l140 700h64l-59 -296h350l59 296l63 -1l-57 -290h176zM714 60q89 0 141.5 50t52.5 128q0 53 -35 82t-99 29h-179l-59 -289h178z" />
    <glyph glyph-name="uni040B" unicode="&#x40b;" horiz-adv-x="747" 
d="M500 457q44 0 80 -12t61 -34.5t39 -56.5t14 -77q0 -10 -0.5 -18t-2.5 -20.5t-3.5 -23t-6.5 -34t-9 -43.5t-12 -61t-16 -77h-64q7 35 15 74.5t12 59t8.5 42t6 33t3.5 22.5t2.5 19t0.5 16q0 64 -38 97t-109 33q-69 0 -164 -32l-73 -364h-64l129 641h-220l12 59h503l-12 -59
h-219l-44 -217q92 33 171 33z" />
    <glyph glyph-name="uni040E" unicode="&#x40e;" horiz-adv-x="596" 
d="M531 817l-10 -49h-278l10 49h278zM588 700h75l-322 -495q-57 -88 -97 -130.5t-81.5 -59.5t-104.5 -17h-37l11 60h40q61 0 97 26t96 112l-171 504h69l146 -435z" />
    <glyph glyph-name="uni040F" unicode="&#x40f;" horiz-adv-x="725" 
d="M709 700l-140 -700h-230l-29 -145h-63l29 145h-229l140 700h64l-128 -641h393l129 641h64z" />
    <glyph glyph-name="uni0410" unicode="&#x410;" horiz-adv-x="690" 
d="M551 0l-41 183h-357l-113 -183h-72l432 700h58l159 -700h-66zM413 612l-226 -372h309z" />
    <glyph glyph-name="uni0411" unicode="&#x411;" horiz-adv-x="613" 
d="M596 640h-357l-43 -217h179q85 0 136.5 -48t51.5 -124q0 -106 -76 -178.5t-190 -72.5h-250l140 700h421zM364 362h-180l-61 -301h177q86 0 142.5 54t56.5 130q0 53 -36.5 85t-98.5 32z" />
    <glyph glyph-name="uni0412" unicode="&#x412;" horiz-adv-x="648" 
d="M489 362q39 -17 61 -53t22 -83q0 -95 -70.5 -160.5t-173.5 -65.5h-281l140 700h272q70 0 114.5 -42t44.5 -105q0 -59 -37.5 -113t-91.5 -78zM549 542q0 42 -28.5 69.5t-74.5 27.5h-208l-49 -245h211q28 0 55.5 12t48 32t33 47.5t12.5 56.5zM333 61q73 0 122 48.5
t49 115.5q0 48 -31.5 79t-82.5 31h-213l-55 -274h211z" />
    <glyph glyph-name="uni0413" unicode="&#x413;" horiz-adv-x="492" 
d="M555 700l-12 -56h-303l-129 -644h-64l140 700h368z" />
    <glyph glyph-name="uni0414" unicode="&#x414;" horiz-adv-x="753" 
d="M722 700l-129 -641h76l-41 -202h-59l28 143h-569l-28 -143h-60l40 202h51q26 12 45.5 34t40 59t46.5 113.5t55.5 173t76.5 261.5h427zM343 642q-92 -325 -135 -436t-95 -147h415l117 583h-302z" />
    <glyph glyph-name="uni0415" unicode="&#x415;" horiz-adv-x="546" 
d="M563 640h-324l-50 -248h299l-12 -59h-298l-55 -272h335l-12 -61h-399l140 700h388z" />
    <glyph glyph-name="uni0416" unicode="&#x416;" horiz-adv-x="929" 
d="M989 700l-323 -342l208 -358h-75l-193 333h-96l-66 -333h-64l66 333h-86l-323 -333h-88l354 364l-187 336h72l173 -307h97l62 307h64l-62 -307h93l289 307h85z" />
    <glyph glyph-name="uni0417" unicode="&#x417;" horiz-adv-x="572" 
d="M422 369q36 -18 55.5 -54.5t19.5 -82.5q0 -105 -78 -173.5t-194 -68.5q-60 0 -104.5 21.5t-69 62.5t-25.5 96q0 13 1 20h61q-1 -12 -1 -17q0 -54 40 -88.5t103 -34.5q89 0 146.5 51.5t57.5 128.5q0 50 -32 81t-84 31h-88l11 56h88q64 0 109.5 45t45.5 105q0 47 -36.5 76
t-97.5 29q-65 0 -112.5 -33.5t-68.5 -89.5h-63q22 81 90 131t159 50q86 0 138.5 -43.5t52.5 -113.5q0 -57 -35 -108.5t-89 -76.5z" />
    <glyph glyph-name="uni0418" unicode="&#x418;" horiz-adv-x="738" 
d="M676 700h46l-140 -700h-64l114 569l-541 -569h-44l140 700h64l-113 -566z" />
    <glyph glyph-name="uni0419" unicode="&#x419;" horiz-adv-x="738" 
d="M614 817l-10 -49h-277l10 49h277zM676 700h46l-140 -700h-64l114 569l-541 -569h-44l140 700h64l-113 -566z" />
    <glyph glyph-name="uni041A" unicode="&#x41a;" horiz-adv-x="618" 
d="M680 700l-336 -342l221 -358h-75l-205 333h-107l-67 -333h-64l140 700h64l-61 -307h104l301 307h85z" />
    <glyph glyph-name="uni041B" unicode="&#x41b;" horiz-adv-x="735" 
d="M300 700h420l-140 -700h-64l128 641h-296l-122 -433q-30 -107 -88 -158t-150 -51h-23l12 64h22q62 0 103 39.5t64 120.5z" />
    <glyph glyph-name="uni041C" unicode="&#x41c;" horiz-adv-x="951" 
d="M808 700h62l-21 -700h-63l17 585l-365 -561h-19l-140 562l-218 -586h-67l259 700h60l136 -555z" />
    <glyph glyph-name="uni041D" unicode="&#x41d;" horiz-adv-x="729" 
d="M650 700h64l-140 -700h-64l67 334h-399l-67 -334h-64l140 700h64l-62 -308h400z" />
    <glyph glyph-name="uni041E" unicode="&#x41e;" horiz-adv-x="831" 
d="M364 -11q-137 0 -220 82.5t-83 211.5q0 115 56 213t157 156.5t224 58.5q137 0 220 -82.5t83 -211.5q0 -116 -55.5 -214t-156.5 -156t-225 -58zM374 51q101 0 185 49t131 132t47 180q0 106 -68 171.5t-180 65.5q-102 0 -186 -49t-130.5 -132t-46.5 -180
q0 -106 67.5 -171.5t180.5 -65.5z" />
    <glyph glyph-name="uni041F" unicode="&#x41f;" horiz-adv-x="699" 
d="M187 700h497l-140 -700h-65l129 641h-369l-128 -641h-64z" />
    <glyph glyph-name="uni0420" unicode="&#x420;" horiz-adv-x="605" 
d="M427 700q56 0 100 -23t67.5 -64t23.5 -92q0 -70 -35.5 -129t-97.5 -94t-136 -35h-185l-53 -263h-64l140 700h240zM351 324q84 0 143.5 58t59.5 136q0 55 -37 88t-99 33h-179l-63 -315h175z" />
    <glyph glyph-name="uni0421" unicode="&#x421;" horiz-adv-x="776" 
d="M356 -11q-135 0 -215.5 78t-80.5 205q0 118 57 218.5t157.5 160.5t220.5 60q115 0 192.5 -64t88.5 -172h-64q-9 54 -38 93t-76 60t-108 21q-101 0 -185.5 -51.5t-132 -136.5t-47.5 -184q0 -104 62.5 -165t172.5 -61q100 0 180.5 49t126.5 136h68q-36 -78 -93 -134
t-130 -84.5t-156 -28.5z" />
    <glyph glyph-name="uni0422" unicode="&#x422;" horiz-adv-x="539" 
d="M604 700l-12 -59h-220l-128 -641h-63l128 641h-220l12 59h503z" />
    <glyph glyph-name="uni0423" unicode="&#x423;" horiz-adv-x="596" 
d="M588 700h75l-322 -495q-57 -88 -97 -130.5t-81.5 -59.5t-104.5 -17h-37l11 60h40q61 0 97 26t96 112l-171 504h69l146 -435z" />
    <glyph glyph-name="uni0424" unicode="&#x424;" horiz-adv-x="862" 
d="M833 417q0 -86 -33 -164t-90 -135t-136 -91.5t-167 -36.5l-22 -107h-62l21 107q-130 5 -206 88t-76 206q0 113 56.5 210t155 155.5t215.5 60.5l18 96h63l-19 -96q131 -5 206.5 -87.5t75.5 -205.5zM419 51q95 4 176 55.5t127 134t46 174.5q0 65 -26.5 116.5t-79 83
t-123.5 33.5zM356 51l120 597q-95 -4 -176 -55.5t-127.5 -133.5t-46.5 -173q0 -100 62 -165t168 -70z" />
    <glyph glyph-name="uni0425" unicode="&#x425;" horiz-adv-x="590" 
d="M648 700l-293 -336l172 -364h-69l-149 314l-274 -314h-79l319 366l-159 334h70l135 -285l249 285h78z" />
    <glyph glyph-name="uni0426" unicode="&#x426;" horiz-adv-x="710" 
d="M679 700l-128 -641h74l-40 -202h-60l29 143h-507l140 700h64l-128 -641h364l128 641h64z" />
    <glyph glyph-name="uni0427" unicode="&#x427;" horiz-adv-x="629" 
d="M549 700h65l-140 -700h-65l58 289q-96 -36 -177 -36q-95 0 -149.5 48.5t-54.5 135.5q0 8 0.5 15t2 18.5t3 21t6 31.5t8.5 41.5t12 59t15 76.5h65q-7 -34 -14 -68.5t-11 -53.5t-8 -39t-6 -30.5t-3.5 -21t-2.5 -16.5t-1 -11.5v-11.5q0 -64 38.5 -98t112.5 -34t177 38z" />
    <glyph glyph-name="uni0428" unicode="&#x428;" horiz-adv-x="971" 
d="M892 700h63l-140 -700h-768l140 700h64l-128 -641h288l129 641h62l-128 -641h289z" />
    <glyph glyph-name="uni0429" unicode="&#x429;" horiz-adv-x="987" 
d="M955 700l-128 -641h77l-41 -202h-59l28 143h-785l140 700h64l-128 -641h288l129 641h62l-128 -641h289l129 641h63z" />
    <glyph glyph-name="uni042A" unicode="&#x42a;" horiz-adv-x="706" 
d="M474 438q87 0 140 -50.5t53 -129.5q0 -110 -77 -184t-193 -74h-256l128 640h-183l12 60h247l-52 -262h181zM399 59q87 0 145.5 57t58.5 138q0 57 -38 91.5t-101 34.5h-183l-64 -321h182z" />
    <glyph glyph-name="uni042B" unicode="&#x42b;" horiz-adv-x="862" 
d="M380 438q35 0 65 -8.5t53.5 -24.5t40.5 -38t25.5 -50t8.5 -59q0 -110 -77 -184t-193 -74h-256l140 700h64l-52 -262h181zM783 700h64l-140 -700h-64zM304 59q88 0 146.5 57t58.5 138q0 57 -38 91.5t-101 34.5h-183l-64 -321h181z" />
    <glyph glyph-name="uni042C" unicode="&#x42c;" horiz-adv-x="612" 
d="M380 438q35 0 65 -8.5t53.5 -24.5t40.5 -38t25.5 -50t8.5 -59q0 -110 -77 -184t-193 -74h-256l140 700h64l-52 -262h181zM304 59q88 0 146.5 57t58.5 138q0 57 -38 91.5t-101 34.5h-183l-64 -321h181z" />
    <glyph glyph-name="uni042D" unicode="&#x42d;" horiz-adv-x="782" 
d="M455 711q133 0 215.5 -82.5t82.5 -210.5q0 -115 -56.5 -213.5t-156 -157t-219.5 -58.5q-121 0 -201 68.5t-92 179.5h64q10 -58 41 -100t80.5 -64t113.5 -22q126 0 222 77.5t127 194.5h-362l12 59h360q2 17 2 34q0 68 -29.5 121t-83.5 82.5t-126 29.5q-194 0 -305 -175
h-66q54 115 153 176t224 61z" />
    <glyph glyph-name="uni042E" unicode="&#x42e;" horiz-adv-x="1039" 
d="M710 711q135 0 217.5 -82.5t82.5 -211.5q0 -86 -34 -165t-91.5 -137t-138 -92t-170.5 -34q-134 0 -215.5 82.5t-81.5 210.5q0 20 2 39h-106l-64 -321h-64l140 700h64l-64 -320h103q34 143 150 237t270 94zM585 51q100 0 183.5 50t130 133t46.5 178q0 70 -30 123.5
t-85.5 83.5t-129.5 30t-140.5 -29.5t-113.5 -79t-74.5 -115.5t-27.5 -137q0 -69 29.5 -123t84.5 -84t127 -30z" />
    <glyph glyph-name="uni042F" unicode="&#x42f;" horiz-adv-x="642" 
d="M359 700h268l-140 -700h-65l58 286h-177l-231 -286h-77l239 293q-64 14 -100.5 58.5t-36.5 107.5q0 102 75.5 171.5t186.5 69.5zM292 344h199l60 296h-196q-84 0 -139 -52t-55 -127q0 -52 35.5 -84t95.5 -33z" />
    <glyph glyph-name="uni0430" unicode="&#x430;" horiz-adv-x="700" 
d="M612 540h50l-108 -540h-52l13 96q-46 -51 -108.5 -79t-134.5 -28q-68 0 -121 29t-81.5 81t-28.5 117q0 89 44 166t121 123t169 46q73 0 126.5 -32t80.5 -88zM283 48q73 0 135 38.5t97 101.5t35 134q0 77 -48.5 123.5t-129.5 46.5q-72 0 -134 -38t-98 -101t-36 -134
q0 -50 22 -89t63 -60.5t94 -21.5z" />
    <glyph glyph-name="uni0431" unicode="&#x431;" horiz-adv-x="656" 
d="M496 683q-134 -29 -219 -100.5t-120 -171.5q88 100 234 100q65 0 115 -26.5t76.5 -74t27.5 -108.5q1 -133 -90.5 -223t-230.5 -90q-98 0 -162 62.5t-65 171.5q0 87 24 167.5t71.5 150t126 121t179.5 73.5l201 45l-13 -62zM378 457q-104 0 -178 -71t-74 -172
q0 -73 46 -119.5t122 -46.5q107 0 179.5 74t72.5 175q0 71 -46.5 115.5t-121.5 44.5z" />
    <glyph glyph-name="uni0432" unicode="&#x432;" horiz-adv-x="575" 
d="M424 280q34 -12 53 -41.5t19 -67.5q0 -74 -52.5 -122.5t-134.5 -48.5h-271l108 540h251q59 0 94.5 -32.5t35.5 -83.5q0 -48 -28 -87.5t-75 -56.5zM466 414q0 32 -21.5 50.5t-57.5 18.5h-191l-35 -175h190q49 0 82 30t33 76zM305 58q56 0 92 33.5t36 83.5q0 35 -25 56.5
t-66 21.5h-192l-40 -195h195z" />
    <glyph glyph-name="uni0433" unicode="&#x433;" horiz-adv-x="440" 
d="M475 540l-10 -55h-269l-97 -485h-61l108 540h329z" />
    <glyph glyph-name="uni0434" unicode="&#x434;" horiz-adv-x="643" 
d="M585 540l-96 -482h75l-40 -201h-57l28 143h-472l-29 -143h-57l40 201h59q23 17 38.5 38.5t37 79t44 134t65.5 230.5h364zM266 485q-60 -224 -90 -307.5t-66 -119.5h318l85 427h-247z" />
    <glyph glyph-name="uni0435" unicode="&#x435;" horiz-adv-x="631" 
d="M584 247h-481q-2 -16 -2 -33q0 -50 20.5 -87.5t59.5 -58t91 -20.5q133 0 212 112h70q-105 -171 -284 -171q-67 0 -119.5 29t-80.5 81t-28 118q0 87 43 164t119 123.5t166 46.5q103 0 163.5 -63t60.5 -164q0 -37 -10 -77zM367 493q-87 0 -155 -53t-96 -135h418q1 10 1 18
q0 78 -44 124t-124 46z" />
    <glyph glyph-name="uni0436" unicode="&#x436;" horiz-adv-x="782" 
d="M813 540l-253 -257l165 -283h-71l-147 253h-87l-51 -253h-62l51 253h-78l-248 -253h-81l279 284l-151 256h67l137 -231h86l46 231h62l-46 -231h76l227 231h79z" />
    <glyph glyph-name="uni0437" unicode="&#x437;" horiz-adv-x="483" 
d="M351 280q57 -31 57 -104q0 -84 -65 -135.5t-165 -51.5q-77 0 -122.5 37t-51.5 112h56q3 -45 37 -67.5t85 -22.5q73 0 119.5 36t46.5 92q0 36 -26 59t-69 23h-88l10 51h87q52 0 87.5 31t35.5 75q0 37 -30 59t-81 22q-35 0 -63.5 -10t-48.5 -28.5t-32 -43.5h-59
q18 62 74.5 99.5t133.5 37.5q73 0 118.5 -37.5t45.5 -94.5q0 -45 -24.5 -81.5t-67.5 -57.5z" />
    <glyph glyph-name="uni0438" unicode="&#x438;" horiz-adv-x="617" 
d="M545 540h35l-108 -540h-59l84 419l-423 -419h-36l108 540h60l-84 -419z" />
    <glyph glyph-name="uni0439" unicode="&#x439;" horiz-adv-x="617" 
d="M514 664l-8 -48h-258l9 48h257zM545 540h35l-108 -540h-59l84 419l-423 -419h-36l108 540h60l-84 -419z" />
    <glyph glyph-name="uni043A" unicode="&#x43a;" horiz-adv-x="524" 
d="M559 540l-261 -259l172 -281h-70l-155 253h-94l-51 -253h-62l108 540h62l-46 -230h83l232 230h82z" />
    <glyph glyph-name="uni043B" unicode="&#x43b;" horiz-adv-x="613" 
d="M234 540h341l-108 -540h-61l97 486h-223l-95 -310q-31 -101 -76 -139.5t-130 -38.5h-17l12 58h13q54 0 84.5 28.5t51.5 96.5z" />
    <glyph glyph-name="uni043C" unicode="&#x43c;" horiz-adv-x="792" 
d="M696 0h-57l-1 436l-282 -420h-16l-113 421l-176 -437h-64l217 540h51l110 -413l278 413h52z" />
    <glyph glyph-name="uni043D" unicode="&#x43d;" horiz-adv-x="627" 
d="M529 540h61l-108 -540h-61l50 250h-322l-50 -250h-61l108 540h61l-47 -233h323z" />
    <glyph glyph-name="uni043E" unicode="&#x43e;" horiz-adv-x="658" 
d="M278 -11q-70 0 -124.5 29t-83.5 81t-29 119q0 90 45.5 166.5t123.5 121.5t171 45q106 0 171 -64t65 -165q0 -90 -45 -166.5t-123.5 -121.5t-170.5 -45zM284 48q113 0 191.5 81t78.5 192q0 77 -49 124t-131 47q-74 0 -136 -37.5t-98 -100t-36 -135.5q0 -77 49.5 -124
t130.5 -47z" />
    <glyph glyph-name="uni043F" unicode="&#x43f;" horiz-adv-x="631" 
d="M146 540h448l-108 -540h-62l98 484h-325l-97 -484h-62z" />
    <glyph glyph-name="uni0440" unicode="&#x440;" horiz-adv-x="696" 
d="M426 551q104 0 166.5 -63t62.5 -163q0 -90 -43 -167t-119.5 -123t-168.5 -46q-69 0 -122 30t-81 83l-59 -294h-62l146 732h44l-7 -99q46 51 109 80.5t134 29.5zM323 48q73 0 135.5 38.5t98 101.5t35.5 134q0 76 -48 123t-128 47q-111 0 -190 -82.5t-79 -192.5
q0 -75 48 -122t128 -47z" />
    <glyph glyph-name="uni0441" unicode="&#x441;" horiz-adv-x="617" 
d="M273 -11q-68 0 -121 29t-81.5 81t-28.5 118q0 88 44 165t121.5 123t169.5 46t152 -49.5t71 -133.5h-60q-15 58 -59 91t-109 33q-72 0 -134 -38.5t-97.5 -101.5t-35.5 -134q0 -75 47.5 -122.5t125.5 -47.5q70 0 127.5 33t95.5 93h65q-41 -85 -119 -135t-174 -50z" />
    <glyph glyph-name="uni0442" unicode="&#x442;" horiz-adv-x="510" 
d="M548 540l-11 -56h-209l-97 -484h-60l97 484h-212l11 56h481z" />
    <glyph glyph-name="uni0443" unicode="&#x443;" horiz-adv-x="578" 
d="M544 540h69l-381 -576q-40 -62 -73.5 -95t-69.5 -47t-86 -14h-49l11 56h39q58 0 91 23.5t81 94.5l38 55l-143 503h65l122 -437z" />
    <glyph glyph-name="uni0444" unicode="&#x444;" horiz-adv-x="723" 
d="M682 319q0 -140 -98.5 -234t-247.5 -96l-31 -159h-62l31 159q-103 4 -167.5 67.5t-64.5 162.5q0 140 98.5 235t246.5 97l30 151h62l-30 -151q103 -4 168 -68t65 -164zM349 50q116 4 193.5 81.5t77.5 185.5q0 76 -50 123t-134 50zM287 50l88 440q-116 -4 -193.5 -82
t-77.5 -187q0 -75 49 -121.5t134 -49.5z" />
    <glyph glyph-name="uni0445" unicode="&#x445;" horiz-adv-x="500" 
d="M530 540l-240 -260l149 -280h-67l-124 235l-216 -235h-76l260 282l-134 258h67l110 -215l197 215h74z" />
    <glyph glyph-name="uni0446" unicode="&#x446;" horiz-adv-x="632" 
d="M575 540l-97 -484h76l-39 -199h-57l28 143h-448l108 540h61l-97 -484h307l97 484h61z" />
    <glyph glyph-name="uni0447" unicode="&#x447;" horiz-adv-x="538" 
d="M441 540h60l-108 -540h-60l44 218q-70 -26 -142 -26q-80 0 -127.5 42t-47.5 117q0 7 0.5 13.5t2 16.5t2.5 17t4 24.5t5.5 29t8.5 39.5t10 49h61q-4 -16 -9 -44q-16 -78 -20 -99.5t-4 -36.5q0 -35 14.5 -59t43 -36.5t69.5 -12.5q68 0 142 32z" />
    <glyph glyph-name="uni0448" unicode="&#x448;" horiz-adv-x="844" 
d="M746 540h61l-108 -540h-661l108 540h61l-97 -483h240l97 483h59l-96 -483h239z" />
    <glyph glyph-name="uni0449" unicode="&#x449;" horiz-adv-x="865" 
d="M807 540l-97 -484h77l-40 -199h-57l28 143h-680l108 540h61l-97 -484h240l97 484h59l-96 -484h239l97 484h61z" />
    <glyph glyph-name="uni044A" unicode="&#x44a;" horiz-adv-x="603" 
d="M402 359q70 0 113 -41t43 -106q0 -91 -62.5 -151.5t-159.5 -60.5h-216l98 486h-163l11 54h223l-36 -181h149zM335 56q70 0 115 43.5t45 107.5q0 44 -29.5 70t-79.5 26h-144l-50 -247h143z" />
    <glyph glyph-name="uni044B" unicode="&#x44b;" horiz-adv-x="717" 
d="M318 359q35 0 64.5 -11t50 -30.5t32 -47t11.5 -60.5q0 -90 -62.5 -150t-158.5 -60h-217l108 540h61l-36 -181h147zM618 540h62l-108 -540h-62zM252 55q70 0 115 43.5t45 108.5q0 29 -13 51t-37.5 34t-57.5 12h-144l-50 -249h142z" />
    <glyph glyph-name="uni044C" unicode="&#x44c;" horiz-adv-x="521" 
d="M318 359q35 0 64.5 -11t50 -30.5t32 -47t11.5 -60.5q0 -90 -62.5 -150t-158.5 -60h-217l108 540h61l-36 -181h147zM252 55q70 0 115 43.5t45 108.5q0 29 -13 51t-37.5 34t-57.5 12h-144l-50 -249h142z" />
    <glyph glyph-name="uni044D" unicode="&#x44d;" horiz-adv-x="622" 
d="M349 551q104 0 168 -65t64 -165q0 -88 -44 -164.5t-121.5 -122t-168.5 -45.5q-94 0 -154.5 55.5t-72.5 146.5h60q9 -67 56 -107t117 -40q92 0 163 58t96 144h-262l11 52h261q1 12 1 25q0 77 -48.5 125t-129.5 48q-73 0 -133.5 -38t-96.5 -103h-61q36 89 116.5 142.5
t178.5 53.5z" />
    <glyph glyph-name="uni044E" unicode="&#x44e;" horiz-adv-x="853" 
d="M580 551q104 0 168 -64t64 -165q0 -89 -44.5 -165.5t-121.5 -122t-169 -45.5q-101 0 -163 64t-62 165q0 11 1 24h-104l-49 -243h-62l108 541h62l-48 -241h102q27 109 115.5 180.5t202.5 71.5zM484 50q110 0 187.5 81t77.5 190q0 76 -47.5 122.5t-127.5 46.5
q-108 0 -183.5 -81t-75.5 -190q0 -77 46 -123t123 -46z" />
    <glyph glyph-name="uni044F" unicode="&#x44f;" horiz-adv-x="555" 
d="M276 540h241l-108 -540h-60l43 215h-153l-181 -215h-73l188 224q-46 12 -72 46.5t-26 81.5q0 54 26 96.5t72 67t103 24.5zM229 273h174l42 209h-171q-61 0 -99 -37t-38 -89q0 -38 25 -60.5t67 -22.5z" />
    <glyph glyph-name="uni0451" unicode="&#x451;" horiz-adv-x="631" 
d="M351 724l-16 -79h-76l16 79h76zM535 724l-16 -79h-76l16 79h76zM583 247h-480q-2 -16 -2 -33q0 -76 46 -121t125 -45q133 0 212 112h70q-105 -171 -284 -171q-67 0 -119.5 29t-80.5 81t-28 117q0 88 43 165t119 123.5t166 46.5q103 0 163.5 -63t60.5 -164q0 -37 -11 -77z
M367 493q-87 0 -155 -53t-96 -135h418q1 10 1 18q0 78 -44 124t-124 46z" />
    <glyph glyph-name="uni0452" unicode="&#x452;" horiz-adv-x="642" 
d="M403 551q82 0 127.5 -46t45.5 -126v-14t-1.5 -16t-2.5 -18t-4 -25.5t-6.5 -33t-9.5 -45t-11.5 -57.5t-15 -75.5t-19.5 -93.5q-11 -57 -43 -100.5t-80.5 -67t-105.5 -23.5h-24l11 58h15q64 0 108.5 36.5t57.5 100.5q10 51 20.5 102.5t16.5 81t11.5 58.5t8.5 44t5.5 29.5
t3.5 22.5t1.5 14.5t0.5 14.5q0 119 -127 119q-77 0 -143.5 -55.5t-82.5 -134.5l-60 -301h-62l120 601h-94l10 52h95l16 79h62l-16 -79h197l-10 -52h-198l-29 -149q39 47 94.5 73t117.5 26z" />
    <glyph glyph-name="uni0453" unicode="&#x453;" horiz-adv-x="440" 
d="M448 757l-118 -152h-50l102 152h66zM475 540l-10 -55h-269l-97 -485h-61l108 540h329z" />
    <glyph glyph-name="uni0454" unicode="&#x454;" horiz-adv-x="622" 
d="M278 44q74 0 135 39.5t97 107.5h62q-36 -90 -117.5 -146t-180.5 -56q-103 0 -167.5 66.5t-64.5 166.5q0 88 44 164t121 120.5t169 44.5q94 0 154 -53.5t72 -142.5h-59q-7 43 -30 74.5t-60 49t-83 17.5q-92 0 -162.5 -56.5t-96.5 -141.5h263l-11 -52h-262q-1 -12 -1 -25
q0 -79 49 -128t129 -49z" />
    <glyph glyph-name="uni0455" unicode="&#x455;" horiz-adv-x="508" 
d="M202 -11q-85 0 -134 37.5t-49 103.5q0 15 2 28h61q-2 -12 -2 -17q0 -47 37 -71t94 -24q74 0 121.5 33t47.5 89q0 17 -8 30t-19 21.5t-31.5 15t-36.5 10t-41 8.5q-31 5 -49 9t-44 13.5t-39.5 21t-24 31t-10.5 44.5q0 82 63.5 130.5t163.5 48.5q79 0 126.5 -35.5
t47.5 -96.5q0 -12 -3 -28h-59q2 12 2 19q0 29 -17 49t-44 28.5t-61 8.5q-71 0 -114.5 -30.5t-43.5 -79.5q0 -11 4 -20.5t9.5 -16t16.5 -12.5t20.5 -9.5t25 -7.5t26.5 -6t29 -5q26 -4 42 -7.5t39 -10t37 -15t28 -21t21 -31t7 -40.5q0 -91 -68 -143t-173 -52z" />
    <glyph glyph-name="uni0456" unicode="&#x456;" horiz-adv-x="245" 
d="M160 645l16 79h72l-16 -79h-72zM38 0l108 540h62l-108 -540h-62z" />
    <glyph glyph-name="uni0457" unicode="&#x457;" horiz-adv-x="245" 
d="M76 645l17 79h73l-16 -79h-74zM250 645l16 79h73l-16 -79h-73zM38 0l108 540h62l-108 -540h-62z" />
    <glyph glyph-name="uni0458" unicode="&#x458;" horiz-adv-x="257" 
d="M169 645l17 79h72l-16 -79h-73zM-133 -192l11 57h24q57 0 95.5 32.5t50.5 89.5l110 553h62l-112 -563q-8 -39 -26 -70.5t-44 -53t-60 -33.5t-73 -12h-38z" />
    <glyph glyph-name="uni0459" unicode="&#x459;" horiz-adv-x="866" 
d="M665 359q70 0 113 -41t43 -106q0 -91 -62.5 -151.5t-159.5 -60.5h-215l97 487h-201l-96 -312q-31 -101 -75.5 -139t-129.5 -38h-18l12 58h15q53 0 83 28.5t51 95.5l111 360h318l-36 -181h150zM598 56q70 0 115 43.5t45 107.5q0 44 -29.5 70t-79.5 26h-145l-50 -247h144z
" />
    <glyph glyph-name="uni045A" unicode="&#x45a;" horiz-adv-x="848" 
d="M651 340q70 0 110.5 -38t40.5 -99q0 -90 -57.5 -146.5t-152.5 -56.5h-212l53 264h-281l-53 -264h-61l108 540h61l-44 -219h281l44 219h61l-40 -200h142zM590 57q68 0 108 40t40 101q0 39 -27 62t-75 23h-139l-45 -226h138z" />
    <glyph glyph-name="uni045B" unicode="&#x45b;" horiz-adv-x="642" 
d="M403 551q82 0 127.5 -46t45.5 -126v-13.5t-1.5 -16t-2.5 -18t-4.5 -25.5t-6.5 -33t-9 -45.5t-11.5 -58t-15 -76t-19.5 -93.5h-62q10 47 19.5 94.5t15 76.5t11.5 58t9 44.5t6 32t4 24.5t2.5 16.5t1.5 14v11.5q0 119 -127 119q-82 0 -146 -55t-80 -135l-60 -301h-62
l121 602h-97l10 51h97l16 79h62l-16 -79h194l-10 -51h-194l-30 -147q39 46 93.5 71t118.5 25z" />
    <glyph glyph-name="uni045C" unicode="&#x45c;" horiz-adv-x="524" 
d="M458 757l-118 -152h-50l102 152h66zM559 540l-261 -259l172 -281h-70l-155 253h-94l-51 -253h-62l108 540h62l-46 -230h83l232 230h82z" />
    <glyph glyph-name="uni045D" unicode="&#x45d;" horiz-adv-x="617" 
d="M394 605h-50l-58 152h66zM545 540h35l-108 -540h-59l84 419l-423 -419h-36l108 540h60l-84 -419z" />
    <glyph glyph-name="uni045E" unicode="&#x45e;" horiz-adv-x="578" 
d="M498 664l-8 -48h-258l9 48h257zM544 540h69l-381 -576q-40 -62 -73.5 -95t-69.5 -47t-86 -14h-49l11 56h39q58 0 91 23.5t81 94.5l38 55l-143 503h65l122 -437z" />
    <glyph glyph-name="uni045F" unicode="&#x45f;" horiz-adv-x="636" 
d="M599 540l-108 -540h-197l-28 -145h-60l29 145h-197l108 540h61l-97 -483h332l96 483h61z" />
    <glyph glyph-name="uni0490" unicode="&#x490;" horiz-adv-x="494" 
d="M576 805l-33 -163h-303l-129 -642h-64l140 700h307l22 105h60z" />
    <glyph glyph-name="uni0491" unicode="&#x491;" horiz-adv-x="440" 
d="M500 662l-35 -177h-269l-97 -485h-61l108 540h270l25 122h59z" />
    <glyph glyph-name="Wgrave" unicode="&#x1e80;" horiz-adv-x="1019" 
d="M630 780h-50l-67 142h66zM1008 700h70l-362 -700h-55l-97 544l-311 -544h-56l-87 700h64l71 -594l329 575h25l104 -575z" />
    <glyph glyph-name="wgrave" unicode="&#x1e81;" horiz-adv-x="844" 
d="M506 605h-50l-58 152h66zM815 540h63l-294 -540h-50l-84 408l-248 -408h-50l-76 540h61l61 -435l260 423h24l90 -426z" />
    <glyph glyph-name="Wacute" unicode="&#x1e82;" horiz-adv-x="1019" 
d="M748 922l-123 -142h-51l107 142h67zM1008 700h70l-362 -700h-55l-97 544l-311 -544h-56l-87 700h64l71 -594l329 575h25l104 -575z" />
    <glyph glyph-name="wacute" unicode="&#x1e83;" horiz-adv-x="844" 
d="M612 757l-118 -152h-50l102 152h66zM815 540h63l-294 -540h-50l-84 408l-248 -408h-50l-76 540h61l61 -435l260 423h24l90 -426z" />
    <glyph glyph-name="Wdieresis" unicode="&#x1e84;" horiz-adv-x="1019" 
d="M563 887l-16 -79h-76l15 79h77zM774 887l-16 -79h-76l16 79h76zM1008 700h70l-362 -700h-55l-97 544l-311 -544h-56l-87 700h64l71 -594l329 575h25l104 -575z" />
    <glyph glyph-name="wdieresis" unicode="&#x1e85;" horiz-adv-x="844" 
d="M453 724l-16 -79h-76l16 79h76zM638 724l-17 -79h-76l16 79h77zM815 540h63l-294 -540h-50l-84 408l-248 -408h-50l-76 540h61l61 -435l260 423h24l90 -426z" />
    <glyph glyph-name="uni1E9E" unicode="&#x1e9e;" horiz-adv-x="672" 
d="M654 700l-3 -14l-197 -242q78 -8 122 -54.5t44 -119.5q0 -119 -82 -194.5t-213 -75.5h-97l12 61h91q98 0 161 58t63 144q0 59 -41.5 94t-114.5 35h-51l2 15l190 233h-131q-177 0 -213 -178l-93 -462h-64l95 475q22 109 92 167t182 58h246z" />
    <glyph glyph-name="Ygrave" unicode="&#x1ef2;" horiz-adv-x="648" 
d="M439 780h-50l-67 142h66zM706 700l-348 -422l-55 -278h-66l55 278l-176 422h66l151 -362l299 362h74z" />
    <glyph glyph-name="ygrave" unicode="&#x1ef3;" horiz-adv-x="578" 
d="M378 605h-50l-58 152h66zM544 540h69l-381 -576q-40 -62 -73.5 -95t-69.5 -47t-86 -14h-49l11 56h39q58 0 91 23.5t81 94.5l38 55l-143 503h65l122 -437z" />
    <glyph glyph-name="endash" unicode="&#x2013;" horiz-adv-x="642" 
d="M69 249l12 60h497l-11 -60h-498z" />
    <glyph glyph-name="emdash" unicode="&#x2014;" horiz-adv-x="898" 
d="M69 249l12 60h752l-12 -60h-752z" />
    <glyph glyph-name="quoteleft" unicode="&#x2018;" horiz-adv-x="209" 
d="M115 544l16 84q19 96 104 124l-7 -38q-48 -20 -61 -83h48l-17 -87h-83z" />
    <glyph glyph-name="quoteright" unicode="&#x2019;" horiz-adv-x="204" 
d="M113 508l8 38q47 20 60 83h-48l17 87h84l-17 -84q-19 -96 -104 -124z" />
    <glyph glyph-name="quotesinglbase" unicode="&#x201a;" horiz-adv-x="218" 
d="M1 -121l8 38q47 20 61 83h-48l17 86h83l-16 -81q-20 -97 -105 -126z" />
    <glyph glyph-name="quotedblleft" unicode="&#x201c;" horiz-adv-x="359" 
d="M115 547l16 84q19 96 105 123l-8 -38q-47 -19 -61 -83h48l-17 -86h-83zM265 547l16 84q19 96 105 123l-8 -38q-47 -19 -61 -83h48l-17 -86h-83z" />
    <glyph glyph-name="quotedblright" unicode="&#x201d;" horiz-adv-x="354" 
d="M113 508l8 38q47 20 60 83h-48l17 87h84l-17 -84q-19 -96 -104 -124zM263 508l8 38q47 20 61 83h-48l17 87h83l-17 -84q-19 -96 -104 -124z" />
    <glyph glyph-name="quotedblbase" unicode="&#x201e;" horiz-adv-x="368" 
d="M1 -121l8 38q47 20 60 83h-48l17 86h84l-17 -84q-19 -95 -104 -123zM151 -121l8 38q47 20 61 83h-48l17 86h83l-17 -84q-19 -95 -104 -123z" />
    <glyph glyph-name="dagger" unicode="&#x2020;" horiz-adv-x="509" 
d="M525 496l-12 -55h-197l-96 -481h-61l97 481h-193l12 55h192l40 204h61l-41 -204h198z" />
    <glyph glyph-name="daggerdbl" unicode="&#x2021;" horiz-adv-x="544" 
d="M531 441h-194l-45 -222h195l-11 -55h-194l-41 -204h-61l41 204h-195l11 55h195l44 222h-195l12 55h194l41 204h61l-41 -204h195z" />
    <glyph glyph-name="bullet" unicode="&#x2022;" horiz-adv-x="322" 
d="M150 220q-26 0 -42 17t-16 43q0 37 26 61.5t62 24.5q27 0 43.5 -17t16.5 -44q0 -36 -27 -60.5t-63 -24.5z" />
    <glyph glyph-name="ellipsis" unicode="&#x2026;" horiz-adv-x="497" 
d="M22 0l17 87h76l-17 -87h-76zM166 0l17 87h76l-17 -87h-76zM310 0l17 87h77l-18 -87h-76z" />
    <glyph glyph-name="perthousand" unicode="&#x2030;" horiz-adv-x="1095" 
d="M204 383q-56 0 -89.5 32t-33.5 84q0 73 50.5 124t125.5 51q55 0 88.5 -32.5t33.5 -84.5q0 -73 -50.5 -123.5t-124.5 -50.5zM81 0l535 665h63l-535 -665h-63zM210 431q49 0 84.5 35t35.5 86q0 33 -21.5 53.5t-57.5 20.5q-50 0 -85 -35t-35 -85q0 -23 9.5 -40t27.5 -26
t42 -9zM515 -4q-55 0 -89 32t-34 83q0 72 50 122.5t124 50.5q56 0 89.5 -32t33.5 -84q0 -72 -50 -122t-124 -50zM867 -4q-37 0 -64.5 14.5t-43 40.5t-15.5 60q0 72 50.5 122.5t124.5 50.5q36 0 64 -14.5t43 -41t15 -60.5q0 -72 -50 -122t-124 -50zM521 44q49 0 83.5 35
t34.5 83q0 34 -21 54t-57 20q-50 0 -84 -34.5t-34 -84.5q0 -33 21 -53t57 -20zM873 44q49 0 83.5 35t34.5 83q0 22 -9.5 39t-27 26t-41.5 9q-32 0 -59 -15.5t-43 -43t-16 -60.5t21 -53t57 -20z" />
    <glyph glyph-name="guilsinglleft" unicode="&#x2039;" horiz-adv-x="346" 
d="M334 474l-223 -210l135 -204h-69l-135 204l2 13l209 197h81z" />
    <glyph glyph-name="guilsinglright" unicode="&#x203a;" horiz-adv-x="346" 
d="M168 474l135 -204l-2 -13l-208 -197h-83l225 213l-134 201h67z" />
    <glyph glyph-name="fraction" unicode="&#x2044;" horiz-adv-x="153" 
d="M-211 -30l557 760h51l-556 -760h-52z" />
    <glyph glyph-name="Euro" unicode="&#x20ac;" horiz-adv-x="651" 
d="M544 627q-96 0 -179 -51t-130 -134h360l-24 -52h-361q-21 -55 -23 -112h333l-24 -52h-306q14 -84 78 -133t158 -49q57 0 113 19l-12 -56q-57 -19 -113 -19q-114 0 -192.5 65.5t-92.5 172.5h-103l23 52h78q2 57 20 112h-86l24 52h82q51 107 152 174t223 67q85 0 150 -29
l-24 -53q-54 26 -124 26z" />
    <glyph glyph-name="uni20BD" unicode="&#x20bd;" horiz-adv-x="597" 
d="M363 274h-173l-18 -89h242l-9 -46h-242l-28 -139h-61l28 139h-78l9 46h78l19 91h-78l10 49h77l68 340h227q77 0 124 -44t47 -113q0 -98 -70 -166t-172 -68zM258 612l-58 -285h164q49 0 90.5 24.5t66 64.5t24.5 86q0 33 -15 58t-43 38.5t-65 13.5h-164z" />
    <glyph glyph-name="uni2113" unicode="&#x2113;" horiz-adv-x="450" 
d="M211 38q48 0 79 29t42 81h49q-15 -75 -59.5 -117.5t-112.5 -42.5q-40 0 -69.5 15t-45 43.5t-15.5 66.5q0 21 14 92q-38 -16 -77 -29l10 52q40 14 78 31q4 20 23 113.5t34 170.5q17 81 62.5 124.5t117.5 43.5q58 0 91 -32t33 -87q0 -52 -25.5 -105.5t-70 -99.5t-100 -85.5
t-120.5 -71.5q-19 -96 -19 -111q0 -39 21 -60t60 -21zM211 541q-13 -63 -29.5 -146t-21.5 -108q113 60 184 138.5t71 161.5q0 24 -9 40.5t-27 25.5t-44 9q-99 0 -124 -121z" />
    <glyph glyph-name="uni2116" unicode="&#x2116;" horiz-adv-x="1094" 
d="M639 666h62l-133 -666h-50l-296 559l-112 -559h-62l134 666h52l294 -555zM886 289q-56 0 -91 34t-35 87q0 74 55 126t131 52q56 0 91 -34t35 -87q0 -75 -55 -126.5t-131 -51.5zM938 542q-53 0 -91.5 -37.5t-38.5 -89.5q0 -36 23.5 -58t62.5 -22q55 0 92.5 38t37.5 88
q0 36 -24 58.5t-62 22.5zM690 123l11 52h324l-11 -52h-324z" />
    <glyph glyph-name="uni2117" unicode="&#x2117;" horiz-adv-x="844" 
d="M506 709q141 0 225.5 -79t84.5 -207q0 -70 -22 -136.5t-63.5 -119.5t-96.5 -93.5t-123.5 -62.5t-142.5 -22q-140 0 -224 78.5t-84 206.5q0 88 34.5 168.5t94 139t142.5 93t175 34.5zM371 29q110 0 203 53t146.5 143.5t53.5 195.5q0 112 -73.5 180t-197.5 68
q-83 0 -157.5 -31.5t-128 -84.5t-84.5 -125.5t-31 -150.5q0 -113 72.5 -180.5t196.5 -67.5zM526 561q55 0 88.5 -32.5t33.5 -82.5q0 -72 -52 -120.5t-128 -48.5h-123l-34 -170h-43l91 454h167zM474 315q37 0 67.5 17t48 46.5t17.5 65.5t-24.5 58t-64.5 22h-124l-42 -209h122
z" />
    <glyph glyph-name="trademark" unicode="&#x2122;" horiz-adv-x="858" 
d="M430 671h-87l-44 -221h-32l45 221h-92l6 29h210zM700 700h31l-9 -250h-31l7 198l-132 -198h-8l-53 198l-73 -198h-31l92 250h27l51 -196z" />
    <glyph glyph-name="estimated" unicode="&#x212e;" horiz-adv-x="765" 
d="M735 301h-521v-182q79 -72 187 -72q61 0 118.5 23t96.5 63l72 -2q-46 -66 -124.5 -103.5t-162.5 -37.5q-91 0 -168 44.5t-121.5 121t-44.5 168.5q0 90 45.5 167t122.5 122t166 45q88 0 166 -45t124 -120t46 -159q0 -14 -2 -33zM401 601q-106 0 -187 -74v-171h375v171
q-82 74 -188 74z" />
    <glyph glyph-name="uni2150" unicode="&#x2150;" horiz-adv-x="812" 
d="M614 730h52l-556 -760h-52zM108 327l65 329h-67l9 44h118l-75 -373h-50zM547 373h254l-1 -7l-220 -366h-52l200 330h-189z" />
    <glyph glyph-name="uni2151" unicode="&#x2151;" horiz-adv-x="834" 
d="M613 730h52l-556 -760h-52zM106 327l66 329h-67l9 44h118l-75 -373h-51zM687 381q50 0 81 -30.5t31 -76.5q0 -58 -67 -143l-103 -134h-55l97 128q10 12 18 24q-25 -13 -55 -13q-46 0 -75 28.5t-29 71.5q0 61 45 103t112 42zM648 175q43 0 72.5 27.5t29.5 69.5
q0 28 -19 45t-50 17q-44 0 -73 -29t-29 -68q0 -28 19 -45t50 -17z" />
    <glyph glyph-name="uni2152" unicode="&#x2152;" horiz-adv-x="1026" 
d="M57 -30l556 760h52l-556 -760h-52zM106 327l66 329h-67l9 44h118l-75 -373h-51zM862 380q54 0 84 -36.5t30 -100.5t-21.5 -120.5t-65 -94t-99.5 -37.5q-55 0 -84.5 37.5t-29.5 101.5t21 120t64.5 93t100.5 37zM537 329l9 44h118l-75 -373h-50l65 329h-67zM796 42
q40 0 71 32t45.5 76.5t14.5 90.5q0 43 -18.5 66t-52.5 23q-40 0 -70.5 -32t-45 -76.5t-14.5 -89.5q0 -44 18 -67t52 -23z" />
    <glyph glyph-name="uni2153" unicode="&#x2153;" horiz-adv-x="813" 
d="M613 730h52l-556 -760h-52zM106 327l66 329h-67l9 44h118l-75 -373h-51zM779 373l-2 -11l-120 -129q19 -3 35 -11.5t27 -21.5t17.5 -30t6.5 -36q0 -60 -41.5 -100.5t-105.5 -40.5q-52 0 -82 31.5t-25 84.5h49q-2 -20 4.5 -36t21.5 -24.5t35 -8.5q41 0 68 27.5t27 65.5
q0 27 -19 43.5t-50 16.5h-45l2 13l112 123h-148l9 44h224z" />
    <glyph glyph-name="uni2154" unicode="&#x2154;" horiz-adv-x="931" 
d="M737 730h52l-556 -760h-52zM306 374l-10 -47h-250l3 14q12 11 35 31q29 26 43.5 38.5t38.5 34t36 33.5t29 30t25.5 29.5t17.5 26t12.5 26t3.5 22.5q0 24 -14.5 37t-39.5 13q-66 0 -81 -73h-50q24 119 137 119q44 0 71 -26t27 -67q0 -22 -10 -45t-22.5 -41.5t-40 -46.5
t-46.5 -45t-59 -52l-2 -2t-2.5 -2t-2.5 -2l-2.5 -2.5l-2.5 -2.5h156zM903 373l-2 -11l-120 -129q38 -5 62 -33t24 -66q0 -60 -41.5 -100.5t-104.5 -40.5q-53 0 -82.5 31.5t-24.5 84.5h49q-3 -20 4 -36t21.5 -24.5t34.5 -8.5q41 0 68 27.5t27 65.5q0 27 -19 43.5t-49 16.5
h-46l2 13l112 123h-148l9 44h224z" />
    <glyph glyph-name="uni2155" unicode="&#x2155;" horiz-adv-x="824" 
d="M613 730h52l-556 -760h-52zM106 327l66 329h-67l9 44h118l-75 -373h-51zM772 329h-147l-29 -96h50q49 0 79.5 -28.5t30.5 -72.5q0 -59 -41.5 -99t-104.5 -40q-54 0 -84.5 34t-20.5 81h50q-6 -29 11.5 -49t49.5 -20q38 0 64 26.5t26 64.5q0 27 -18 43.5t-48 16.5h-97l-6 8
l55 175h189z" />
    <glyph glyph-name="uni2156" unicode="&#x2156;" horiz-adv-x="943" 
d="M738 730h52l-557 -760h-52zM306 374l-10 -47h-249l2 14q12 11 36 31q38 34 56.5 50.5t48 43.5t43 43t29.5 36.5t22 36.5t6 30q0 24 -14.5 37t-38.5 13q-66 0 -82 -73h-49q24 119 137 119q44 0 70.5 -26t26.5 -67q0 -22 -9.5 -45t-22 -41.5t-40 -46.5t-47 -45t-58.5 -52
q-8 -7 -12 -11h155zM897 329h-147l-30 -96h51q48 0 78.5 -28.5t30.5 -72.5q0 -59 -41.5 -99t-103.5 -40q-54 0 -84.5 34t-20.5 81h49q-5 -29 12.5 -49t48.5 -20q39 0 65 26.5t26 64.5q0 18 -8.5 31.5t-23.5 21t-35 7.5h-97l-5 8l55 175h188z" />
    <glyph glyph-name="uni2157" unicode="&#x2157;" horiz-adv-x="941" 
d="M733 730h52l-556 -760h-52zM317 460q0 -39 -18.5 -71t-52 -51t-75.5 -19q-52 0 -82 32t-25 85h49q-2 -21 4.5 -36.5t21 -24.5t34.5 -9q42 0 68.5 28t26.5 66q0 27 -19 43.5t-49 16.5h-46l3 13l111 122h-148l9 45h224l-2 -12l-120 -128q16 -2 29 -8t23.5 -15.5t18 -21
t11.5 -26t4 -29.5zM893 329h-148l-29 -96h50q49 0 79.5 -28.5t30.5 -73.5q0 -58 -41.5 -98t-104.5 -40q-54 0 -84.5 34t-20.5 81h50q-4 -19 3 -35t22 -25t36 -9q38 0 64 26.5t26 64.5q0 18 -8 31.5t-23 20.5t-35 7h-97l-6 9l55 175h189z" />
    <glyph glyph-name="uni2158" unicode="&#x2158;" horiz-adv-x="977" 
d="M765 730h51l-556 -760h-52zM229 327l16 77h-190l3 13l187 283h53l-169 -252h125l30 113h40l-23 -113h39l-8 -44h-40l-15 -77h-48zM924 329h-147l-30 -96h50q49 0 79.5 -28.5t30.5 -72.5q0 -59 -41.5 -99t-103.5 -40q-55 0 -85 34t-20 81h49q-5 -29 12.5 -49t48.5 -20
q39 0 65 26.5t26 64.5q0 27 -18.5 43.5t-48.5 16.5h-97l-6 8l56 175h188z" />
    <glyph glyph-name="uni2159" unicode="&#x2159;" horiz-adv-x="833" 
d="M614 730h52l-556 -760h-52zM108 327l65 329h-67l9 44h118l-75 -373h-50zM670 237q45 0 74 -28.5t29 -71.5q0 -61 -45 -102.5t-112 -41.5q-50 0 -81 29.5t-31 75.5q0 35 17 68.5t49 75.5l104 135h56l-98 -129q-11 -13 -20 -26q27 15 58 15zM622 40q44 0 73 27.5t29 68.5
q0 28 -19 45t-51 17q-43 0 -72 -28t-29 -68q0 -28 19 -45t50 -17z" />
    <glyph glyph-name="uni215A" unicode="&#x215a;" horiz-adv-x="963" 
d="M746 730h52l-557 -760h-52zM320 458q0 -58 -41.5 -98.5t-104.5 -40.5q-54 0 -84.5 34.5t-19.5 81.5h49q-5 -29 12 -49t49 -20q38 0 64 26.5t26 64.5q0 27 -18 43t-48 16h-97l-6 8l55 176h189l-8 -44h-148l-29 -96h50q32 0 57.5 -13.5t39 -36.5t13.5 -52zM802 237
q45 0 74 -28.5t29 -71.5q0 -61 -45.5 -102.5t-112.5 -41.5q-49 0 -80 29.5t-31 75.5q0 35 17 68.5t49 75.5l103 135h56l-98 -129q-10 -13 -19 -26q26 15 58 15zM754 40q43 0 72 27.5t29 68.5q0 18 -8.5 32.5t-24 22t-36.5 7.5q-43 0 -72.5 -28t-29.5 -68q0 -28 19 -45
t51 -17z" />
    <glyph glyph-name="oneeighth" unicode="&#x215b;" horiz-adv-x="844" 
d="M613 730h52l-556 -760h-52zM106 327l66 329h-67l9 44h118l-75 -373h-51zM734 197q41 -24 41 -74q0 -58 -43.5 -94.5t-110.5 -36.5q-51 0 -82.5 27.5t-31.5 70.5q0 39 21 68.5t58 45.5q-30 22 -30 62q0 35 18 61t48.5 40t69.5 14q31 0 55 -11.5t36.5 -31.5t12.5 -44
q0 -66 -62 -97zM687 339q-36 0 -59.5 -20.5t-23.5 -50.5q0 -22 16.5 -35t43.5 -13q36 0 59.5 20.5t23.5 50.5q0 14 -7 25t-20.5 17t-32.5 6zM627 37q44 0 71.5 24.5t27.5 58.5q0 26 -18.5 42t-51.5 16q-44 0 -72 -24.5t-28 -60.5q0 -26 19.5 -41t51.5 -15z" />
    <glyph glyph-name="threeeighths" unicode="&#x215c;" horiz-adv-x="961" 
d="M733 730h52l-556 -760h-52zM317 460q0 -39 -18.5 -71t-52 -51t-75.5 -19q-52 0 -82 32t-25 85h49q-2 -21 4.5 -36.5t21 -24.5t34.5 -9q42 0 68.5 28t26.5 66q0 27 -19 43.5t-49 16.5h-46l3 13l111 122h-148l9 45h224l-2 -12l-120 -128q16 -2 29 -8t23.5 -15.5t18 -21
t11.5 -26t4 -29.5zM854 197q41 -24 41 -74q0 -58 -43.5 -94.5t-109.5 -36.5q-52 0 -83 27.5t-31 70.5q0 39 20.5 68.5t57.5 45.5q-30 22 -30 62q0 53 38 84t99 31q46 0 74.5 -24.5t28.5 -63.5q0 -65 -62 -96zM808 339q-36 0 -59.5 -20.5t-23.5 -50.5q0 -11 4 -20t11.5 -15
t19 -9.5t24.5 -3.5q36 0 59.5 20.5t23.5 50.5q0 21 -16 34.5t-43 13.5zM747 36q45 0 72 25t27 59q0 17 -8 29.5t-24 20.5t-38 8q-43 0 -71.5 -24.5t-28.5 -60.5q0 -26 19.5 -41.5t51.5 -15.5z" />
    <glyph glyph-name="fiveeighths" unicode="&#x215d;" horiz-adv-x="967" 
d="M741 730h52l-557 -760h-51zM315 458q0 -58 -41.5 -98.5t-103.5 -40.5q-55 0 -85 34.5t-20 81.5h49q-5 -29 12.5 -49t48.5 -20q39 0 65 26.5t26 64.5q0 27 -18.5 43t-48.5 16h-97l-6 8l56 176h188l-8 -44h-147l-30 -96h51q32 0 57 -13.5t38.5 -36.5t13.5 -52zM862 197
q41 -24 41 -74q0 -58 -43.5 -94.5t-110.5 -36.5q-51 0 -82.5 27.5t-31.5 70.5q0 39 21 68.5t58 45.5q-30 22 -30 62q0 53 38 84t98 31q47 0 75 -24.5t28 -62.5q0 -66 -61 -97zM815 339q-36 0 -59.5 -20.5t-23.5 -50.5q0 -11 4.5 -20t12 -15t18.5 -9.5t25 -3.5
q36 0 59.5 20.5t23.5 50.5q0 14 -7 25t-21 17t-32 6zM755 37q44 0 71 24.5t27 58.5q0 17 -7.5 29.5t-23.5 20.5t-38 8q-44 0 -72 -24.5t-28 -60.5q0 -26 19 -41t52 -15z" />
    <glyph glyph-name="seveneighths" unicode="&#x215e;" horiz-adv-x="957" 
d="M723 730h52l-557 -760h-52zM365 700l-1 -8l-220 -365h-52l200 330h-189l8 43h254zM844 197q40 -24 40 -74q0 -58 -43 -94.5t-110 -36.5q-51 0 -82.5 27.5t-31.5 70.5q0 26 9.5 48.5t27 39t42.5 26.5q-30 22 -30 62q0 26 10 48t28.5 36.5t43.5 22.5t54 8q47 0 75 -24.5
t28 -62.5q0 -66 -61 -97zM797 339q-36 0 -59.5 -20.5t-23.5 -50.5q0 -15 7.5 -25.5t21 -16.5t31.5 -6q35 0 59 20.5t24 50.5q0 21 -16 34.5t-44 13.5zM737 37q44 0 71 24.5t27 58.5q0 26 -18 42t-51 16q-44 0 -72 -24.5t-28 -60.5q0 -26 19 -41t52 -15z" />
    <glyph glyph-name="uni215F" unicode="&#x215f;" horiz-adv-x="493" 
d="M701 730h52l-557 -760h-52zM194 327l66 329h-67l9 44h117l-74 -373h-51z" />
    <glyph glyph-name="uni2189" unicode="&#x2189;" horiz-adv-x="972" 
d="M776 730h52l-556 -760h-52zM376 571q0 -48 -12.5 -92.5t-36 -80.5t-59 -57.5t-78.5 -21.5q-55 0 -84.5 37.5t-29.5 101.5t21.5 120t65 93t99.5 37q36 0 62 -16.5t39 -47.5t13 -73zM196 370q40 0 71 32t45.5 76.5t14.5 90.5q0 28 -8 48t-24 30.5t-39 10.5q-39 0 -70 -32
t-45.5 -76.5t-14.5 -89.5q0 -44 18 -67t52 -23zM942 373l-2 -11l-120 -129q39 -5 62.5 -33t23.5 -66q0 -60 -41 -100.5t-105 -40.5q-53 0 -82.5 31.5t-24.5 84.5h49q-4 -31 13 -50t47 -19q42 0 68.5 27.5t26.5 65.5q0 27 -19 43.5t-49 16.5h-46l2 13l112 123h-148l9 44h224z
" />
    <glyph glyph-name="arrowleft" unicode="&#x2190;" horiz-adv-x="662" 
d="M634 337v-56h-492l213 -207l-39 -35l-271 265v10l271 265l39 -35l-213 -207h492z" />
    <glyph glyph-name="arrowup" unicode="&#x2191;" horiz-adv-x="595" 
d="M591 386l-35 -39l-207 213v-492h-56v492l-207 -213l-35 39l265 271h10z" />
    <glyph glyph-name="arrowright" unicode="&#x2192;" horiz-adv-x="663" 
d="M361 579l271 -265v-10l-271 -265l-39 35l213 207h-492v56h492l-213 207z" />
    <glyph glyph-name="arrowdown" unicode="&#x2193;" horiz-adv-x="595" 
d="M543 365l35 -39l-264 -271h-11l-265 271l36 39l206 -213v492h56v-492z" />
    <glyph glyph-name="uni2196" unicode="&#x2196;" horiz-adv-x="637" 
d="M586 144l-40 -40l-383 388v-319h-52v401l9 9h401v-52h-319z" />
    <glyph glyph-name="uni2197" unicode="&#x2197;" horiz-adv-x="573" 
d="M497 583l9 -9v-401h-52v319l-384 -388l-39 40l384 387h-319v52h401z" />
    <glyph glyph-name="uni2198" unicode="&#x2198;" horiz-adv-x="653" 
d="M496 484h52v-402l-9 -8h-401v52h319l-384 387l39 40l384 -388v319z" />
    <glyph glyph-name="uni2199" unicode="&#x2199;" horiz-adv-x="589" 
d="M574 513l-383 -387h319v-52h-402l-8 8v402h52v-319l383 388z" />
    <glyph glyph-name="partialdiff" unicode="&#x2202;" horiz-adv-x="608" 
d="M330 714q63 0 110.5 -16.5t78.5 -47t46.5 -75t15.5 -102.5q0 -120 -44 -239q-43 -111 -129 -178t-200 -67q-89 0 -139.5 48.5t-50.5 125.5q0 81 44 152t119.5 112.5t162.5 41.5q127 0 171 -90q10 54 10 94q0 187 -207 187q-48 0 -113 -11l11 54q68 11 114 11zM219 44
q69 0 130 36t96.5 94t35.5 121q0 57 -37.5 90t-104.5 33q-106 0 -183.5 -75.5t-77.5 -173.5q0 -58 37.5 -91.5t103.5 -33.5z" />
    <glyph glyph-name="emptyset" unicode="&#x2205;" horiz-adv-x="667" 
d="M550 493q73 -62 73 -169q0 -89 -45 -166t-122.5 -122.5t-169.5 -45.5q-70 0 -127 30l-46 -56h-61l69 82q-76 62 -76 170q0 90 45 167t123 122t169 45q74 0 129 -30l45 54h61zM107 221q0 -79 55 -127l309 376q-42 23 -97 23q-73 0 -135 -38t-97 -100.5t-35 -133.5zM294 47
q110 0 188.5 81.5t78.5 190.5q0 78 -53 126l-308 -376q40 -22 94 -22z" />
    <glyph glyph-name="product" unicode="&#x220f;" horiz-adv-x="731" 
d="M783 700l-12 -60h-111l-160 -800h-66l161 800h-312l-161 -800h-65l161 800h-113l12 60h666z" />
    <glyph glyph-name="summation" unicode="&#x2211;" horiz-adv-x="583" 
d="M630 700l-12 -58h-407l186 -366l-4 -21l-316 -357h397l-12 -59h-515l2 14l373 424l-206 409l3 14h511z" />
    <glyph glyph-name="minus" unicode="&#x2212;" horiz-adv-x="626" 
d="M80 315l12 56h480l-12 -56h-480z" />
    <glyph glyph-name="radical" unicode="&#x221a;" horiz-adv-x="659" 
d="M693 750h66l-478 -750h-28l-90 406h-129l11 54h165l76 -352z" />
    <glyph glyph-name="infinity" unicode="&#x221e;" horiz-adv-x="982" 
d="M780 527q38 0 69 -11t52.5 -31t33 -48.5t11.5 -62.5q0 -98 -67 -164.5t-169 -66.5q-68 0 -116 36t-94 112q-78 -76 -140 -112t-132 -36q-75 0 -120.5 43t-45.5 111q0 97 67 163.5t168 66.5q69 0 116 -36.5t95 -114.5q81 79 142 115t130 36zM117 302q0 -32 14.5 -56
t41.5 -37t64 -13q58 0 105.5 31.5t128.5 111.5q-43 71 -82.5 103t-94.5 32q-52 0 -92.5 -23.5t-62.5 -62.5t-22 -86zM714 196q79 0 127.5 49.5t48.5 123.5q0 49 -31 77t-87 28q-57 0 -104 -31t-131 -115q42 -69 82 -100.5t95 -31.5z" />
    <glyph glyph-name="integral" unicode="&#x222b;" horiz-adv-x="378" 
d="M-125 -298l11 57h17q76 0 124 40.5t63 115.5l161 803q12 59 41.5 101.5t76.5 65t108 22.5h39l-11 -57h-19q-72 0 -117 -38t-60 -110l-160 -802q-19 -94 -80 -146t-156 -52h-38z" />
    <glyph glyph-name="approxequal" unicode="&#x2248;" horiz-adv-x="576" 
d="M416 372q-33 0 -56.5 15.5t-48.5 45.5q-23 27 -40 39.5t-38 12.5q-66 0 -85 -109h-52q30 163 144 163q35 0 60 -16t50 -49q21 -26 36.5 -37t36.5 -11q32 0 51.5 26.5t30.5 80.5h52q-16 -81 -50 -121t-91 -40zM372 152q-33 0 -56.5 15.5t-48.5 45.5q-15 18 -26 28.5
t-24.5 17t-27.5 6.5q-66 0 -84 -109h-52q30 163 143 163q36 0 60.5 -16t49.5 -49q21 -26 36.5 -37t36.5 -11q32 0 51.5 26.5t30.5 80.5h52q-15 -81 -49.5 -121t-91.5 -40z" />
    <glyph glyph-name="notequal" unicode="&#x2260;" horiz-adv-x="632" 
d="M586 428h-188l-75 -165h231l-12 -57h-244l-74 -162h-58l73 162h-177l12 57h191l74 165h-233l12 56h246l71 156h58l-70 -156h175z" />
    <glyph glyph-name="lessequal" unicode="&#x2264;" horiz-adv-x="555" 
d="M567 658l-14 -71l-388 -192l312 -186l-12 -62l-398 240l5 25zM13 19l11 58h429l-11 -58h-429z" />
    <glyph glyph-name="greaterequal" unicode="&#x2265;" horiz-adv-x="549" 
d="M145 658l396 -246l-5 -25l-494 -240l15 73l381 187l-306 188zM15 19l11 58h429l-11 -58h-429z" />
    <glyph glyph-name="lozenge" unicode="&#x25ca;" horiz-adv-x="560" 
d="M371 698l171 -341l-3 -13l-307 -343h-12l-171 345l2 12l307 340h13zM490 356l-136 271l-253 -281l135 -273z" />
    <glyph glyph-name="K.ss01" horiz-adv-x="603" 
d="M187 700h64l-140 -700h-64zM671 700l-390 -336l276 -364h-72l-278 366l2 10l376 324h86z" />
    <glyph glyph-name="K.ss03" horiz-adv-x="603" 
d="M187 700h64l-140 -700h-64zM671 700l-390 -336l276 -364h-72l-278 366l2 10l376 324h86z" />
    <glyph glyph-name="K.ss04" horiz-adv-x="603" 
d="M187 700h64l-140 -700h-64zM671 700l-390 -336l276 -364h-72l-278 366l2 10l376 324h86z" />
    <glyph glyph-name="germandbls.calt" horiz-adv-x="667" 
d="M652 700l-2 -14l-197 -242q78 -8 121.5 -54.5t43.5 -119.5q0 -119 -82 -194.5t-212 -75.5h-98l12 61h92q97 0 160.5 58t63.5 144q0 59 -42 94t-114 35h-51l2 15l190 233h-131q-178 0 -214 -178l-92 -462h-64l95 475q22 109 92 167t181 58h246z" />
    <glyph glyph-name="i.loclTRK" horiz-adv-x="245" 
d="M160 645l16 79h72l-16 -79h-72zM38 0l108 540h62l-108 -540h-62z" />
    <glyph glyph-name="k.ss01" horiz-adv-x="506" 
d="M185 732h62l-147 -732h-62zM548 540l-287 -261l196 -279h-71l-193 277l4 18l271 245h80z" />
    <glyph glyph-name="k.ss03" horiz-adv-x="506" 
d="M185 732h62l-147 -732h-62zM548 540l-287 -261l196 -279h-71l-193 277l4 18l271 245h80z" />
    <glyph glyph-name="k.ss04" horiz-adv-x="506" 
d="M185 732h62l-147 -732h-62zM548 540l-287 -261l196 -279h-71l-193 277l4 18l271 245h80z" />
    <glyph glyph-name="uni0414.loclBGR" horiz-adv-x="757" 
d="M626 60l59 -1l-40 -202h-60l28 143h-573l-29 -143h-59l40 202l60 1l382 640h57zM447 606l-323 -546h439z" />
    <glyph glyph-name="uni041B.loclBGR" horiz-adv-x="660" 
d="M584 0h-65l-120 606l-358 -606h-72l417 700h59z" />
    <glyph glyph-name="uni0416.ss01" horiz-adv-x="885" 
d="M406 377l-2 -15l-372 -362h-86l388 377l-222 323h73zM497 700h64l-140 -700h-64zM948 700l-355 -336l241 -364h-75l-239 362l3 14l339 324h86z" />
    <glyph glyph-name="uni041A.ss01" horiz-adv-x="603" 
d="M187 700h64l-140 -700h-64zM671 700l-390 -336l276 -364h-72l-278 366l2 10l376 324h86z" />
    <glyph glyph-name="uni0424.ss01" horiz-adv-x="862" 
d="M833 417q0 -86 -33 -164t-90 -135t-136 -91.5t-167 -36.5l-22 -107h-62l21 107q-130 5 -206 88t-76 206q0 113 56.5 210t155 155.5t215.5 60.5l18 96h63l-19 -96q131 -5 206.5 -87.5t75.5 -205.5zM419 51q95 4 176 55.5t127 134t46 174.5q0 65 -26.5 116.5t-79 83
t-123.5 33.5zM356 51l120 597q-95 -4 -176 -55.5t-127.5 -133.5t-46.5 -173q0 -100 62 -165t168 -70z" />
    <glyph glyph-name="uni0414.ss02" horiz-adv-x="757" 
d="M626 60l59 -1l-40 -202h-60l28 143h-573l-29 -143h-59l40 202l60 1l382 640h57zM447 606l-323 -546h439z" />
    <glyph glyph-name="uni041B.ss02" horiz-adv-x="660" 
d="M584 0h-65l-120 606l-358 -606h-72l417 700h59z" />
    <glyph glyph-name="uni0414.ss03" horiz-adv-x="757" 
d="M626 60l59 -1l-40 -202h-60l28 143h-573l-29 -143h-59l40 202l60 1l382 640h57zM447 606l-323 -546h439z" />
    <glyph glyph-name="uni0416.ss03" horiz-adv-x="885" 
d="M406 377l-2 -15l-372 -362h-86l388 377l-222 323h73zM497 700h64l-140 -700h-64zM948 700l-355 -336l241 -364h-75l-239 362l3 14l339 324h86z" />
    <glyph glyph-name="uni041A.ss03" horiz-adv-x="603" 
d="M187 700h64l-140 -700h-64zM671 700l-390 -336l276 -364h-72l-278 366l2 10l376 324h86z" />
    <glyph glyph-name="uni041B.ss03" horiz-adv-x="660" 
d="M584 0h-65l-120 606l-358 -606h-72l417 700h59z" />
    <glyph glyph-name="uni0416.ss04" horiz-adv-x="885" 
d="M406 377l-2 -15l-372 -362h-86l388 377l-222 323h73zM497 700h64l-140 -700h-64zM948 700l-355 -336l241 -364h-75l-239 362l3 14l339 324h86z" />
    <glyph glyph-name="uni041A.ss04" horiz-adv-x="603" 
d="M187 700h64l-140 -700h-64zM671 700l-390 -336l276 -364h-72l-278 366l2 10l376 324h86z" />
    <glyph glyph-name="uni0424.ss04" horiz-adv-x="802" 
d="M775 406q0 -76 -30.5 -145t-83 -119.5t-124.5 -81t-152 -32.5l-17 -83h-64l17 83q-123 8 -192.5 83t-69.5 185q0 102 51.5 188t141.5 137t198 54l16 76h63l-15 -77q121 -5 191 -81t70 -187zM334 87l105 529q-85 -3 -158 -49t-115 -119t-42 -154q0 -89 56.5 -147
t153.5 -60zM396 87q86 3 159 48.5t114 118t41 155.5q0 89 -56 146.5t-152 60.5z" />
    <glyph glyph-name="uni0424.ss05" horiz-adv-x="802" 
d="M775 406q0 -76 -30.5 -145t-83 -119.5t-124.5 -81t-152 -32.5l-17 -83h-64l17 83q-123 8 -192.5 83t-69.5 185q0 102 51.5 188t141.5 137t198 54l16 76h63l-15 -77q121 -5 191 -81t70 -187zM334 87l105 529q-85 -3 -158 -49t-115 -119t-42 -154q0 -89 56.5 -147
t153.5 -60zM396 87q86 3 159 48.5t114 118t41 155.5q0 89 -56 146.5t-152 60.5z" />
    <glyph glyph-name="uni0432.loclBGR" horiz-adv-x="622" 
d="M477 377q41 -19 63.5 -57.5t22.5 -87.5q0 -107 -79.5 -175t-196.5 -68q-102 0 -158.5 54.5t-58.5 152.5q0 7 0.5 14t1 13t2 16t2 17t3.5 21.5t5 24.5t6 31.5t7 36.5t9.5 46t10.5 54q55 274 289 274q59 0 105 -21.5t70.5 -59t24.5 -86.5q0 -61 -36 -116t-93 -84zM400 685
q-180 0 -223 -222q-5 -23 -11 -52h205q28 0 55.5 8t49.5 23t39 35t26 45t9 51q0 51 -40 81.5t-110 30.5zM292 49q90 0 149.5 52t59.5 132q0 54 -37.5 86.5t-101.5 32.5h-208q-23 -116 -23 -152q0 -50 18.5 -83.5t54 -50.5t88.5 -17z" />
    <glyph glyph-name="uni0433.loclBGR" horiz-adv-x="513" 
d="M208 -6q-86 0 -137 37.5t-51 98.5q0 27 7.5 49.5t18 38.5t29.5 29t36.5 21.5t43.5 16t46.5 11.5t50.5 10q33 5 52 9t45.5 13.5t41 20t25 28.5t10.5 42q0 34 -32 54.5t-88 20.5q-141 0 -162 -111h-60q10 80 70.5 123t155.5 43q80 0 127 -36t47 -93q0 -26 -7 -47t-17 -36
t-28.5 -27.5t-34.5 -20.5t-42.5 -15t-45 -11t-48.5 -9q-33 -6 -53.5 -10.5t-47.5 -14t-42 -21t-26 -31t-11 -44.5q0 -37 35.5 -58t97.5 -21q75 0 119 30t56 87h61q-15 -85 -78.5 -131t-163.5 -46z" />
    <glyph glyph-name="uni0434.loclBGR" horiz-adv-x="674" 
d="M594 540h43l-93 -466q-18 -87 -60.5 -149t-107 -95t-146.5 -33q-94 0 -150.5 46t-65.5 129h62q9 -56 52 -87t110 -31q61 0 112 26.5t85 76.5t48 117l7 38q-93 -94 -225 -94q-98 0 -159 61t-61 155q0 83 42 156t115 117t159 44q69 0 121.5 -31.5t78.5 -86.5zM277 78
q52 0 99 21.5t80.5 57t52.5 82t19 95.5q0 71 -45.5 114.5t-121.5 43.5q-69 0 -128 -36.5t-92.5 -95.5t-33.5 -124q0 -71 46.5 -114.5t123.5 -43.5z" />
    <glyph glyph-name="uni0436.loclBGR" horiz-adv-x="775" 
d="M806 540l-250 -257l162 -283h-71l-144 253h-87l-50 -253h-62l50 253h-77l-245 -253h-81l276 284l-147 256h67l133 -231h85l85 424h62l-85 -424h76l225 231h78z" />
    <glyph glyph-name="uni0437.loclBGR" horiz-adv-x="557" 
d="M372 186q47 -18 71.5 -57.5t24.5 -93.5q0 -108 -80.5 -173t-198.5 -65q-65 0 -113.5 23t-75 66t-26.5 100h60q1 -61 44.5 -95.5t115.5 -34.5q44 0 83 13.5t67 36.5t44.5 55.5t16.5 69.5q0 57 -39 93t-102 36h-107l10 60h108q67 0 120.5 47.5t53.5 112.5q0 51 -37 81.5
t-97 30.5q-45 0 -84 -16t-66 -45t-41 -67h-62q23 85 93 136t165 51q84 0 137.5 -47.5t53.5 -123.5q0 -43 -18 -81.5t-49 -67t-72 -45.5z" />
    <glyph glyph-name="uni0438.loclBGR" horiz-adv-x="641" 
d="M542 540h62l-108 -540h-47l9 95q-39 -50 -96 -78t-123 -28q-54 0 -93.5 20.5t-59.5 59.5t-20 92q0 24 6.5 61t37.5 191q16 78 26 127h62q-9 -42 -23 -112q-32 -161 -39 -198t-7 -57q0 -62 33.5 -94.5t96.5 -32.5q77 0 140 53t81 131z" />
    <glyph glyph-name="uni0439.loclBGR" horiz-adv-x="641" 
d="M515 664l-9 -48h-257l9 48h257zM542 540h62l-108 -540h-47l9 95q-39 -50 -96 -78t-123 -28q-54 0 -93.5 20.5t-59.5 59.5t-20 92q0 24 6.5 61t37.5 191q16 78 26 127h62q-9 -42 -23 -112q-32 -161 -39 -198t-7 -57q0 -62 33.5 -94.5t96.5 -32.5q77 0 140 53t81 131z" />
    <glyph glyph-name="uni043A.loclBGR" horiz-adv-x="524" 
d="M558 540l-260 -259l172 -281h-70l-155 253h-94l-51 -253h-62l147 732h62l-85 -422h83l232 230h81z" />
    <glyph glyph-name="uni043B.loclBGR" horiz-adv-x="525" 
d="M450 0h-60l-85 454l-270 -454h-67l322 540h55z" />
    <glyph glyph-name="uni043F.loclBGR" horiz-adv-x="642" 
d="M402 551q82 0 128 -46t46 -126q0 -8 -0.5 -16t-1.5 -17t-3.5 -24.5t-5.5 -30.5t-9 -45.5t-12 -60t-17 -82t-21 -103.5h-62q14 70 35 170q23 118 28.5 147.5t5.5 49.5q0 62 -33.5 94.5t-97.5 32.5q-78 0 -141 -54.5t-80 -134.5l-61 -305h-62l108 540h45l-7 -95
q39 50 95.5 78t122.5 28z" />
    <glyph glyph-name="uni0442.loclBGR" horiz-adv-x="952" 
d="M738 551q70 0 111.5 -42.5t41.5 -112.5q-1 -26 -36 -204q-23 -112 -39 -192h-62q16 79 38 188q24 117 29 145t5 46q0 28 -7 49t-20.5 35.5t-33.5 22.5t-45 8q-71 0 -126 -50.5t-73 -128.5q-4 -22 -12 -62t-22.5 -111t-28.5 -142h-61q16 79 38 188q23 117 28 145t5 46
q0 55 -27.5 85t-78.5 30q-71 0 -127 -51.5t-73 -131.5l-62 -311h-62l108 540h46l-7 -81q37 44 87.5 68t108.5 24t96.5 -30t50.5 -83q37 54 91.5 83.5t118.5 29.5z" />
    <glyph glyph-name="uni0446.loclBGR" horiz-adv-x="670" 
d="M523 117q0 -40 20.5 -57t63.5 -17l-37 -185h-58l29 147q-76 8 -77 91q-42 -49 -101 -78t-126 -29q-82 0 -127 44.5t-45 124.5q0 8 0.5 15t1.5 15t3.5 23t5.5 30.5t9 45.5t12 60.5t17 84.5l22 108h62q-14 -70 -34 -168q-23 -117 -28.5 -146t-5.5 -48q0 -62 34.5 -95
t98.5 -33q38 0 74.5 13.5t65 37.5t49 57.5t28.5 70.5l62 311h62q-13 -68 -26 -132.5t-20.5 -101t-14.5 -71t-10 -51.5t-5.5 -32t-3.5 -22t-1 -13z" />
    <glyph glyph-name="uni0448.loclBGR" horiz-adv-x="952" 
d="M853 540h62l-108 -540h-47l7 81q-77 -92 -195 -92q-58 0 -96.5 30t-50.5 83q-37 -54 -91.5 -83.5t-118.5 -29.5q-70 0 -111.5 42.5t-41.5 112.5q0 19 5.5 48.5t30.5 153.5q22 113 39 194h62q-16 -78 -37 -185q-25 -120 -30 -148.5t-5 -45.5q0 -55 28 -85t79 -30
q70 0 125.5 51t73.5 131q4 22 12 62l22 110t29 140h60q-15 -78 -37 -185q-24 -120 -29 -148.5t-5 -45.5q0 -55 27.5 -85t78.5 -30q71 0 126.5 51t73.5 130z" />
    <glyph glyph-name="uni0449.loclBGR" horiz-adv-x="980" 
d="M834 116q0 -73 83 -73l-37 -186h-57l29 148q-70 10 -78 84q-37 -48 -89.5 -74t-112.5 -26q-38 0 -69 13.5t-50.5 39t-27.5 60.5q-37 -54 -91.5 -83.5t-118.5 -29.5q-46 0 -80 19t-52.5 54.5t-18.5 81.5q0 25 10 79.5t63 316.5l62 -1q-17 -86 -40 -199q-32 -155 -32 -179
q0 -55 28 -85t78 -30q71 0 126.5 51t73.5 130q4 22 12 62t22 110.5t29 140.5h60q-9 -45 -18 -89.5t-14.5 -73.5t-11.5 -58t-9.5 -46t-6.5 -34t-5 -26t-3.5 -18t-2 -14.5t-0.5 -10v-9.5q0 -55 27.5 -85t78.5 -30q48 0 90 24.5t71 67t40 95.5v-1q11 58 61 308h62
q-15 -74 -37 -183q-44 -222 -44 -241z" />
    <glyph glyph-name="uni044E.loclBGR" horiz-adv-x="857" 
d="M583 551q69 0 122.5 -29t82 -81t28.5 -119q0 -89 -44.5 -166t-122 -122t-169.5 -45q-102 0 -164 64t-62 165v24h-106l-48 -243h-62l146 733h62l-86 -433h103q28 110 116.5 181t203.5 71zM487 50q110 0 188 80.5t78 190.5q0 76 -48 122.5t-129 46.5q-108 0 -184 -80.5
t-76 -190.5q0 -77 46.5 -123t124.5 -46z" />
    <glyph glyph-name="uni0436.ss01" horiz-adv-x="766" 
d="M328 284l-2 -8l-302 -276h-82l313 287l-175 253h71zM409 540h61l-108 -540h-61zM807 540l-288 -265l193 -275h-72l-192 276l1 8l278 256h80z" />
    <glyph glyph-name="uni043A.ss01" horiz-adv-x="508" 
d="M146 540h62l-108 -540h-62zM554 540l-294 -264l196 -276h-72l-193 277l1 8l283 255h79z" />
    <glyph glyph-name="uni0432.ss02" horiz-adv-x="622" 
d="M477 377q41 -19 63.5 -57.5t22.5 -87.5q0 -107 -79.5 -175t-196.5 -68q-102 0 -158.5 54.5t-58.5 152.5q0 7 0.5 14t1 13t2 16t2 17t3.5 21.5t5 24.5t6 31.5t7 36.5t9.5 46t10.5 54q55 274 289 274q59 0 105 -21.5t70.5 -59t24.5 -86.5q0 -61 -36 -116t-93 -84zM400 685
q-180 0 -223 -222q-5 -23 -11 -52h205q28 0 55.5 8t49.5 23t39 35t26 45t9 51q0 51 -40 81.5t-110 30.5zM292 49q90 0 149.5 52t59.5 132q0 54 -37.5 86.5t-101.5 32.5h-208q-23 -116 -23 -152q0 -50 18.5 -83.5t54 -50.5t88.5 -17z" />
    <glyph glyph-name="uni0433.ss02" horiz-adv-x="513" 
d="M208 -6q-86 0 -137 37.5t-51 98.5q0 27 7.5 49.5t18 38.5t29.5 29t36.5 21.5t43.5 16t46.5 11.5t50.5 10q33 5 52 9t45.5 13.5t41 20t25 28.5t10.5 42q0 34 -32 54.5t-88 20.5q-141 0 -162 -111h-60q10 80 70.5 123t155.5 43q80 0 127 -36t47 -93q0 -26 -7 -47t-17 -36
t-28.5 -27.5t-34.5 -20.5t-42.5 -15t-45 -11t-48.5 -9q-33 -6 -53.5 -10.5t-47.5 -14t-42 -21t-26 -31t-11 -44.5q0 -37 35.5 -58t97.5 -21q75 0 119 30t56 87h61q-15 -85 -78.5 -131t-163.5 -46z" />
    <glyph glyph-name="uni0434.ss02" horiz-adv-x="674" 
d="M594 540h43l-93 -466q-18 -87 -60.5 -149t-107 -95t-146.5 -33q-94 0 -150.5 46t-65.5 129h62q9 -56 52 -87t110 -31q61 0 112 26.5t85 76.5t48 117l7 38q-93 -94 -225 -94q-98 0 -159 61t-61 155q0 83 42 156t115 117t159 44q69 0 121.5 -31.5t78.5 -86.5zM277 78
q52 0 99 21.5t80.5 57t52.5 82t19 95.5q0 71 -45.5 114.5t-121.5 43.5q-69 0 -128 -36.5t-92.5 -95.5t-33.5 -124q0 -71 46.5 -114.5t123.5 -43.5z" />
    <glyph glyph-name="uni0436.ss02" horiz-adv-x="775" 
d="M806 540l-250 -257l162 -283h-71l-144 253h-87l-50 -253h-62l50 253h-77l-245 -253h-81l276 284l-147 256h67l133 -231h85l85 424h62l-85 -424h76l225 231h78z" />
    <glyph glyph-name="uni0437.ss02" horiz-adv-x="557" 
d="M372 186q47 -18 71.5 -57.5t24.5 -93.5q0 -108 -80.5 -173t-198.5 -65q-65 0 -113.5 23t-75 66t-26.5 100h60q1 -61 44.5 -95.5t115.5 -34.5q44 0 83 13.5t67 36.5t44.5 55.5t16.5 69.5q0 57 -39 93t-102 36h-107l10 60h108q67 0 120.5 47.5t53.5 112.5q0 51 -37 81.5
t-97 30.5q-45 0 -84 -16t-66 -45t-41 -67h-62q23 85 93 136t165 51q84 0 137.5 -47.5t53.5 -123.5q0 -43 -18 -81.5t-49 -67t-72 -45.5z" />
    <glyph glyph-name="uni0438.ss02" horiz-adv-x="641" 
d="M542 540h62l-108 -540h-47l9 95q-39 -50 -96 -78t-123 -28q-54 0 -93.5 20.5t-59.5 59.5t-20 92q0 24 6.5 61t37.5 191q16 78 26 127h62q-9 -42 -23 -112q-32 -161 -39 -198t-7 -57q0 -62 33.5 -94.5t96.5 -32.5q77 0 140 53t81 131z" />
    <glyph glyph-name="uni0439.ss02" horiz-adv-x="641" 
d="M515 664l-9 -48h-257l9 48h257zM542 540h62l-108 -540h-47l9 95q-39 -50 -96 -78t-123 -28q-54 0 -93.5 20.5t-59.5 59.5t-20 92q0 24 6.5 61t37.5 191q16 78 26 127h62q-9 -42 -23 -112q-32 -161 -39 -198t-7 -57q0 -62 33.5 -94.5t96.5 -32.5q77 0 140 53t81 131z" />
    <glyph glyph-name="uni043A.ss02" horiz-adv-x="524" 
d="M558 540l-260 -259l172 -281h-70l-155 253h-94l-51 -253h-62l147 732h62l-85 -422h83l232 230h81z" />
    <glyph glyph-name="uni043B.ss02" horiz-adv-x="525" 
d="M450 0h-60l-85 454l-270 -454h-67l322 540h55z" />
    <glyph glyph-name="uni043F.ss02" horiz-adv-x="642" 
d="M402 551q82 0 128 -46t46 -126q0 -8 -0.5 -16t-1.5 -17t-3.5 -24.5t-5.5 -30.5t-9 -45.5t-12 -60t-17 -82t-21 -103.5h-62q14 70 35 170q23 118 28.5 147.5t5.5 49.5q0 62 -33.5 94.5t-97.5 32.5q-78 0 -141 -54.5t-80 -134.5l-61 -305h-62l108 540h45l-7 -95
q39 50 95.5 78t122.5 28z" />
    <glyph glyph-name="uni0442.ss02" horiz-adv-x="952" 
d="M738 551q70 0 111.5 -42.5t41.5 -112.5q-1 -26 -36 -204q-23 -112 -39 -192h-62q16 79 38 188q24 117 29 145t5 46q0 28 -7 49t-20.5 35.5t-33.5 22.5t-45 8q-71 0 -126 -50.5t-73 -128.5q-4 -22 -12 -62t-22.5 -111t-28.5 -142h-61q16 79 38 188q23 117 28 145t5 46
q0 55 -27.5 85t-78.5 30q-71 0 -127 -51.5t-73 -131.5l-62 -311h-62l108 540h46l-7 -81q37 44 87.5 68t108.5 24t96.5 -30t50.5 -83q37 54 91.5 83.5t118.5 29.5z" />
    <glyph glyph-name="uni0446.ss02" horiz-adv-x="670" 
d="M523 117q0 -40 20.5 -57t63.5 -17l-37 -185h-58l29 147q-76 8 -77 91q-42 -49 -101 -78t-126 -29q-82 0 -127 44.5t-45 124.5q0 8 0.5 15t1.5 15t3.5 23t5.5 30.5t9 45.5t12 60.5t17 84.5l22 108h62q-14 -70 -34 -168q-23 -117 -28.5 -146t-5.5 -48q0 -62 34.5 -95
t98.5 -33q38 0 74.5 13.5t65 37.5t49 57.5t28.5 70.5l62 311h62q-13 -68 -26 -132.5t-20.5 -101t-14.5 -71t-10 -51.5t-5.5 -32t-3.5 -22t-1 -13z" />
    <glyph glyph-name="uni0448.ss02" horiz-adv-x="952" 
d="M853 540h62l-108 -540h-47l7 81q-77 -92 -195 -92q-58 0 -96.5 30t-50.5 83q-37 -54 -91.5 -83.5t-118.5 -29.5q-70 0 -111.5 42.5t-41.5 112.5q0 19 5.5 48.5t30.5 153.5q22 113 39 194h62q-16 -78 -37 -185q-25 -120 -30 -148.5t-5 -45.5q0 -55 28 -85t79 -30
q70 0 125.5 51t73.5 131q4 22 12 62l22 110t29 140h60q-15 -78 -37 -185q-24 -120 -29 -148.5t-5 -45.5q0 -55 27.5 -85t78.5 -30q71 0 126.5 51t73.5 130z" />
    <glyph glyph-name="uni0449.ss02" horiz-adv-x="980" 
d="M834 116q0 -73 83 -73l-37 -186h-57l29 148q-70 10 -78 84q-37 -48 -89.5 -74t-112.5 -26q-38 0 -69 13.5t-50.5 39t-27.5 60.5q-37 -54 -91.5 -83.5t-118.5 -29.5q-46 0 -80 19t-52.5 54.5t-18.5 81.5q0 25 10 79.5t63 316.5l62 -1q-17 -86 -40 -199q-32 -155 -32 -179
q0 -55 28 -85t78 -30q71 0 126.5 51t73.5 130q4 22 12 62t22 110.5t29 140.5h60q-9 -45 -18 -89.5t-14.5 -73.5t-11.5 -58t-9.5 -46t-6.5 -34t-5 -26t-3.5 -18t-2 -14.5t-0.5 -10v-9.5q0 -55 27.5 -85t78.5 -30q48 0 90 24.5t71 67t40 95.5v-1q11 58 61 308h62
q-15 -74 -37 -183q-44 -222 -44 -241z" />
    <glyph glyph-name="uni044E.ss02" horiz-adv-x="857" 
d="M583 551q69 0 122.5 -29t82 -81t28.5 -119q0 -89 -44.5 -166t-122 -122t-169.5 -45q-102 0 -164 64t-62 165v24h-106l-48 -243h-62l146 733h62l-86 -433h103q28 110 116.5 181t203.5 71zM487 50q110 0 188 80.5t78 190.5q0 76 -48 122.5t-129 46.5q-108 0 -184 -80.5
t-76 -190.5q0 -77 46.5 -123t124.5 -46z" />
    <glyph glyph-name="uni0432.ss03" horiz-adv-x="622" 
d="M477 377q41 -19 63.5 -57.5t22.5 -87.5q0 -107 -79.5 -175t-196.5 -68q-102 0 -158.5 54.5t-58.5 152.5q0 7 0.5 14t1 13t2 16t2 17t3.5 21.5t5 24.5t6 31.5t7 36.5t9.5 46t10.5 54q55 274 289 274q59 0 105 -21.5t70.5 -59t24.5 -86.5q0 -61 -36 -116t-93 -84zM400 685
q-180 0 -223 -222q-5 -23 -11 -52h205q28 0 55.5 8t49.5 23t39 35t26 45t9 51q0 51 -40 81.5t-110 30.5zM292 49q90 0 149.5 52t59.5 132q0 54 -37.5 86.5t-101.5 32.5h-208q-23 -116 -23 -152q0 -50 18.5 -83.5t54 -50.5t88.5 -17z" />
    <glyph glyph-name="uni0433.ss03" horiz-adv-x="513" 
d="M208 -6q-86 0 -137 37.5t-51 98.5q0 27 7.5 49.5t18 38.5t29.5 29t36.5 21.5t43.5 16t46.5 11.5t50.5 10q33 5 52 9t45.5 13.5t41 20t25 28.5t10.5 42q0 34 -32 54.5t-88 20.5q-141 0 -162 -111h-60q10 80 70.5 123t155.5 43q80 0 127 -36t47 -93q0 -26 -7 -47t-17 -36
t-28.5 -27.5t-34.5 -20.5t-42.5 -15t-45 -11t-48.5 -9q-33 -6 -53.5 -10.5t-47.5 -14t-42 -21t-26 -31t-11 -44.5q0 -37 35.5 -58t97.5 -21q75 0 119 30t56 87h61q-15 -85 -78.5 -131t-163.5 -46z" />
    <glyph glyph-name="uni0434.ss03" horiz-adv-x="674" 
d="M594 540h43l-93 -466q-18 -87 -60.5 -149t-107 -95t-146.5 -33q-94 0 -150.5 46t-65.5 129h62q9 -56 52 -87t110 -31q61 0 112 26.5t85 76.5t48 117l7 38q-93 -94 -225 -94q-98 0 -159 61t-61 155q0 83 42 156t115 117t159 44q69 0 121.5 -31.5t78.5 -86.5zM277 78
q52 0 99 21.5t80.5 57t52.5 82t19 95.5q0 71 -45.5 114.5t-121.5 43.5q-69 0 -128 -36.5t-92.5 -95.5t-33.5 -124q0 -71 46.5 -114.5t123.5 -43.5z" />
    <glyph glyph-name="uni0436.ss03" horiz-adv-x="770" 
d="M447 732h62l-146 -732h-62zM328 287l-3 -12l-297 -275h-84l310 289l-181 251h68zM807 540l-286 -263l198 -277h-72l-199 275l2 12l277 253h80z" />
    <glyph glyph-name="uni0437.ss03" horiz-adv-x="557" 
d="M372 186q47 -18 71.5 -57.5t24.5 -93.5q0 -108 -80.5 -173t-198.5 -65q-65 0 -113.5 23t-75 66t-26.5 100h60q1 -61 44.5 -95.5t115.5 -34.5q44 0 83 13.5t67 36.5t44.5 55.5t16.5 69.5q0 57 -39 93t-102 36h-107l10 60h108q67 0 120.5 47.5t53.5 112.5q0 51 -37 81.5
t-97 30.5q-45 0 -84 -16t-66 -45t-41 -67h-62q23 85 93 136t165 51q84 0 137.5 -47.5t53.5 -123.5q0 -43 -18 -81.5t-49 -67t-72 -45.5z" />
    <glyph glyph-name="uni0438.ss03" horiz-adv-x="641" 
d="M542 540h62l-108 -540h-47l9 95q-39 -50 -96 -78t-123 -28q-54 0 -93.5 20.5t-59.5 59.5t-20 92q0 24 6.5 61t37.5 191q16 78 26 127h62q-9 -42 -23 -112q-32 -161 -39 -198t-7 -57q0 -62 33.5 -94.5t96.5 -32.5q77 0 140 53t81 131z" />
    <glyph glyph-name="uni0439.ss03" horiz-adv-x="641" 
d="M515 664l-9 -48h-257l9 48h257zM542 540h62l-108 -540h-47l9 95q-39 -50 -96 -78t-123 -28q-54 0 -93.5 20.5t-59.5 59.5t-20 92q0 24 6.5 61t37.5 191q16 78 26 127h62q-9 -42 -23 -112q-32 -161 -39 -198t-7 -57q0 -62 33.5 -94.5t96.5 -32.5q77 0 140 53t81 131z" />
    <glyph glyph-name="uni043A.ss03" horiz-adv-x="506" 
d="M185 732h62l-147 -732h-62zM548 540l-287 -261l196 -279h-71l-193 277l4 18l271 245h80z" />
    <glyph glyph-name="uni043B.ss03" horiz-adv-x="525" 
d="M450 0h-60l-85 454l-270 -454h-67l322 540h55z" />
    <glyph glyph-name="uni043F.ss03" horiz-adv-x="642" 
d="M402 551q82 0 128 -46t46 -126q0 -8 -0.5 -16t-1.5 -17t-3.5 -24.5t-5.5 -30.5t-9 -45.5t-12 -60t-17 -82t-21 -103.5h-62q14 70 35 170q23 118 28.5 147.5t5.5 49.5q0 62 -33.5 94.5t-97.5 32.5q-78 0 -141 -54.5t-80 -134.5l-61 -305h-62l108 540h45l-7 -95
q39 50 95.5 78t122.5 28z" />
    <glyph glyph-name="uni0442.ss03" horiz-adv-x="952" 
d="M738 551q70 0 111.5 -42.5t41.5 -112.5q-1 -26 -36 -204q-23 -112 -39 -192h-62q16 79 38 188q24 117 29 145t5 46q0 28 -7 49t-20.5 35.5t-33.5 22.5t-45 8q-71 0 -126 -50.5t-73 -128.5q-4 -22 -12 -62t-22.5 -111t-28.5 -142h-61q16 79 38 188q23 117 28 145t5 46
q0 55 -27.5 85t-78.5 30q-71 0 -127 -51.5t-73 -131.5l-62 -311h-62l108 540h46l-7 -81q37 44 87.5 68t108.5 24t96.5 -30t50.5 -83q37 54 91.5 83.5t118.5 29.5z" />
    <glyph glyph-name="uni0446.ss03" horiz-adv-x="670" 
d="M523 117q0 -40 20.5 -57t63.5 -17l-37 -185h-58l29 147q-76 8 -77 91q-42 -49 -101 -78t-126 -29q-82 0 -127 44.5t-45 124.5q0 8 0.5 15t1.5 15t3.5 23t5.5 30.5t9 45.5t12 60.5t17 84.5l22 108h62q-14 -70 -34 -168q-23 -117 -28.5 -146t-5.5 -48q0 -62 34.5 -95
t98.5 -33q38 0 74.5 13.5t65 37.5t49 57.5t28.5 70.5l62 311h62q-13 -68 -26 -132.5t-20.5 -101t-14.5 -71t-10 -51.5t-5.5 -32t-3.5 -22t-1 -13z" />
    <glyph glyph-name="uni0448.ss03" horiz-adv-x="952" 
d="M853 540h62l-108 -540h-47l7 81q-77 -92 -195 -92q-58 0 -96.5 30t-50.5 83q-37 -54 -91.5 -83.5t-118.5 -29.5q-70 0 -111.5 42.5t-41.5 112.5q0 19 5.5 48.5t30.5 153.5q22 113 39 194h62q-16 -78 -37 -185q-25 -120 -30 -148.5t-5 -45.5q0 -55 28 -85t79 -30
q70 0 125.5 51t73.5 131q4 22 12 62l22 110t29 140h60q-15 -78 -37 -185q-24 -120 -29 -148.5t-5 -45.5q0 -55 27.5 -85t78.5 -30q71 0 126.5 51t73.5 130z" />
    <glyph glyph-name="uni0449.ss03" horiz-adv-x="980" 
d="M834 116q0 -73 83 -73l-37 -186h-57l29 148q-70 10 -78 84q-37 -48 -89.5 -74t-112.5 -26q-38 0 -69 13.5t-50.5 39t-27.5 60.5q-37 -54 -91.5 -83.5t-118.5 -29.5q-46 0 -80 19t-52.5 54.5t-18.5 81.5q0 25 10 79.5t63 316.5l62 -1q-17 -86 -40 -199q-32 -155 -32 -179
q0 -55 28 -85t78 -30q71 0 126.5 51t73.5 130q4 22 12 62t22 110.5t29 140.5h60q-9 -45 -18 -89.5t-14.5 -73.5t-11.5 -58t-9.5 -46t-6.5 -34t-5 -26t-3.5 -18t-2 -14.5t-0.5 -10v-9.5q0 -55 27.5 -85t78.5 -30q48 0 90 24.5t71 67t40 95.5v-1q11 58 61 308h62
q-15 -74 -37 -183q-44 -222 -44 -241z" />
    <glyph glyph-name="uni044E.ss03" horiz-adv-x="857" 
d="M583 551q69 0 122.5 -29t82 -81t28.5 -119q0 -89 -44.5 -166t-122 -122t-169.5 -45q-102 0 -164 64t-62 165v24h-106l-48 -243h-62l146 733h62l-86 -433h103q28 110 116.5 181t203.5 71zM487 50q110 0 188 80.5t78 190.5q0 76 -48 122.5t-129 46.5q-108 0 -184 -80.5
t-76 -190.5q0 -77 46.5 -123t124.5 -46z" />
    <glyph glyph-name="uni0436.ss04" horiz-adv-x="766" 
d="M328 284l-2 -8l-302 -276h-82l313 287l-175 253h71zM409 540h61l-108 -540h-61zM807 540l-288 -265l193 -275h-72l-192 276l1 8l278 256h80z" />
    <glyph glyph-name="uni043A.ss04" horiz-adv-x="508" 
d="M146 540h62l-108 -540h-62zM554 540l-294 -264l196 -276h-72l-193 277l1 8l283 255h79z" />
    <glyph glyph-name="zero.sinf" horiz-adv-x="367" 
d="M116 -84q-54 0 -84 37t-30 101t21.5 120.5t65 93t99.5 36.5q55 0 84.5 -36.5t29.5 -100.5t-21 -120.5t-64.5 -93.5t-100.5 -37zM122 -34q40 0 71 32t45.5 76.5t14.5 90.5q0 43 -18 66t-53 23q-39 0 -70 -32t-45.5 -76.5t-14.5 -89.5q0 -43 18 -66.5t52 -23.5z" />
    <glyph glyph-name="one.sinf" horiz-adv-x="194" 
d="M24 297h118l-74 -373h-51l65 329h-66z" />
    <glyph glyph-name="two.sinf" horiz-adv-x="312" 
d="M258 212q0 -22 -9.5 -45t-22 -41.5t-40 -46.5t-46.5 -45t-59 -52q-8 -7 -12 -11h155l-10 -47h-249l2 14q12 11 36 31q38 34 56.5 50.5t48 43.5t43.5 43t29.5 36.5t21.5 36.5t6 30q0 24 -14.5 37t-38.5 13q-66 0 -82 -73h-49q24 119 137 119q44 0 70.5 -26t26.5 -67z" />
    <glyph glyph-name="three.sinf" horiz-adv-x="315" 
d="M273 296l-2 -11l-120 -129q38 -5 62 -33t24 -66q0 -60 -41.5 -100.5t-104.5 -40.5q-53 0 -82.5 31.5t-24.5 84.5h49q-4 -31 12.5 -50t47.5 -19q42 0 68.5 28t26.5 65q0 27 -19 43.5t-49 16.5h-46l2 13l112 123h-148l9 44h224z" />
    <glyph glyph-name="four.sinf" horiz-adv-x="323" 
d="M256 45l-9 -44h-39l-16 -77h-48l16 77h-190l3 13l187 283h53l-169 -252h125l30 113h40l-23 -113h40z" />
    <glyph glyph-name="five.sinf" horiz-adv-x="311" 
d="M252 252h-147l-30 -95h51q48 0 78.5 -29t30.5 -73q0 -58 -41.5 -98.5t-103.5 -40.5q-54 0 -84.5 34.5t-20.5 81.5h49q-5 -29 12.5 -49t48.5 -20q39 0 65 26.5t26 64.5q0 27 -18.5 43t-48.5 16h-97l-5 8l55 176h188z" />
    <glyph glyph-name="six.sinf" horiz-adv-x="324" 
d="M154 161q45 0 74 -28.5t29 -71.5q0 -62 -45.5 -103.5t-112.5 -41.5q-49 0 -80.5 30t-31.5 76q0 35 17 68.5t50 75.5l103 134h56l-98 -128q-11 -13 -20 -26q27 15 59 15zM106 -37q28 0 51.5 13t36.5 35t13 48q0 29 -19 46t-51 17q-42 0 -71.5 -28t-29.5 -68
q0 -28 19 -45.5t51 -17.5z" />
    <glyph glyph-name="seven.sinf" horiz-adv-x="294" 
d="M26 297h254l-2 -8l-220 -365h-52l200 330h-188z" />
    <glyph glyph-name="eight.sinf" horiz-adv-x="338" 
d="M216 121q40 -24 40 -74q0 -59 -43.5 -95t-109.5 -36q-51 0 -82.5 27.5t-31.5 70.5q0 39 20.5 68.5t58.5 45.5q-30 22 -30 62q0 35 17.5 61t48.5 39.5t70 13.5q47 0 75 -24.5t28 -62.5q0 -66 -61 -96zM169 262q-36 0 -59.5 -20t-23.5 -50q0 -22 16 -35t44 -13q35 0 59 20
t24 51q0 21 -16.5 34t-43.5 13zM109 -40q44 0 71 24.5t27 59.5q0 25 -18 41t-52 16q-43 0 -71 -24.5t-28 -60.5q0 -25 19 -40.5t52 -15.5z" />
    <glyph glyph-name="nine.sinf" horiz-adv-x="324" 
d="M163 305q50 0 81 -30t31 -76q0 -59 -67 -143l-103 -135h-55l97 129q10 11 18 23q-25 -12 -55 -12q-46 0 -75 28.5t-29 70.5q0 62 45 103.5t112 41.5zM124 100q43 0 72.5 27.5t29.5 68.5q0 28 -19 45t-50 17q-29 0 -53 -13.5t-36.5 -35.5t-12.5 -47q0 -19 8.5 -33
t24 -21.5t36.5 -7.5z" />
    <glyph glyph-name="zero.tf" horiz-adv-x="562" 
d="M228 -11q-94 0 -146 63.5t-52 175.5q0 67 14 132t42 122.5t67 101.5t92.5 69.5t114.5 25.5q94 0 146 -63.5t52 -175.5q0 -67 -14 -132t-42.5 -122.5t-67 -101.5t-92 -69.5t-114.5 -25.5zM236 50q61 0 111.5 35t82.5 91.5t49.5 124t17.5 135.5q0 87 -37.5 134.5
t-107.5 47.5q-61 0 -112 -35t-82.5 -91.5t-49 -124t-17.5 -135.5q0 -87 37.5 -134.5t107.5 -47.5z" />
    <glyph glyph-name="one.tf" horiz-adv-x="562" 
d="M286 54h162l-10 -54h-394l10 54h172l111 556h-145l10 55h206z" />
    <glyph glyph-name="two.tf" horiz-adv-x="562" 
d="M524 528q0 -29 -10.5 -60t-24 -57.5t-44 -62.5t-53.5 -60.5t-69 -66.5t-74.5 -66.5t-86.5 -73.5q-18 -16 -28 -24h332l-12 -57h-448l5 23q20 17 61 51l93 78t81 70.5t75 69.5t58 61t48 61.5t26 54.5t11 55q0 30 -13.5 52t-39.5 34t-62 12q-43 0 -79 -16.5t-58.5 -45.5
t-30.5 -66l-3 -18h-60l3 18q16 84 80 135t157 51q76 0 121 -42.5t45 -109.5z" />
    <glyph glyph-name="three.tf" horiz-adv-x="562" 
d="M549 665l-4 -16l-227 -237q75 -5 120.5 -53.5t45.5 -118.5q0 -68 -34.5 -126t-95.5 -91.5t-134 -33.5q-83 0 -132.5 48t-49.5 126q0 17 1 27h59q-9 -65 29 -104t102 -39q81 0 138.5 57t57.5 133q0 56 -39.5 91t-103.5 35h-66l2 15l222 232h-293l10 55h392z" />
    <glyph glyph-name="four.tf" horiz-adv-x="562" 
d="M497 199l-11 -54h-77l-29 -145h-58l29 145h-348l3 17l340 503h63l-316 -466h270l54 223h48l-45 -223h77z" />
    <glyph glyph-name="five.tf" horiz-adv-x="562" 
d="M524 610h-280l-59 -194h113q85 0 138.5 -51t53.5 -127q0 -103 -77 -176t-186 -73q-84 0 -134.5 48t-50.5 125q0 9 2 28h59q-9 -64 29 -104t103 -40q53 0 98 25.5t71 69t26 93.5q0 28 -10 51.5t-28.5 40.5t-45 26.5t-58.5 9.5h-166l-9 11l91 292h331z" />
    <glyph glyph-name="six.tf" horiz-adv-x="562" 
d="M326 426q82 0 134.5 -50.5t52.5 -127.5q0 -108 -80 -183t-195 -75q-87 0 -140.5 51.5t-53.5 130.5q0 107 120 265l182 239h67q-180 -237 -211 -283q58 33 124 33zM246 48q87 0 148 58.5t61 137.5q0 58 -39.5 94t-104.5 36q-87 0 -148 -58t-61 -139q0 -58 39.5 -93.5
t104.5 -35.5z" />
    <glyph glyph-name="seven.tf" horiz-adv-x="562" 
d="M135 665h443l-2 -13l-399 -652h-64l374 610h-363z" />
    <glyph glyph-name="eight.tf" horiz-adv-x="562" 
d="M419 356q26 -11 44 -31.5t26.5 -46t8.5 -56.5q0 -103 -77 -168t-193 -65q-90 0 -143.5 45.5t-53.5 119.5q0 70 40.5 127t109.5 84q-19 11 -32 28.5t-20 39t-7 46.5q0 90 67 145.5t170 55.5q80 0 127.5 -40.5t47.5 -105.5q0 -54 -32.5 -104t-82.5 -74zM352 628
q-49 0 -88 -19t-61 -52.5t-22 -74.5q0 -30 15 -52t42.5 -33.5t65.5 -11.5q71 0 121.5 42t50.5 104q0 21 -8.5 39t-24.5 31t-39 20t-52 7zM235 43q87 0 145 49t58 124q0 54 -38 85t-107 31q-87 0 -144.5 -49.5t-57.5 -124.5q0 -53 38.5 -84t105.5 -31z" />
    <glyph glyph-name="nine.tf" horiz-adv-x="562" 
d="M351 680q43 0 79.5 -13.5t61.5 -37.5t39 -57.5t14 -72.5q0 -107 -121 -265l-181 -238h-67q179 235 209 279q-55 -31 -123 -31q-79 0 -133 50.5t-54 128.5q0 108 80 182.5t196 74.5zM278 297q86 0 147 57t61 139q0 57 -39 93t-104 36q-87 0 -148 -58t-61 -139
q0 -57 39.5 -92.5t104.5 -35.5z" />
    <glyph glyph-name="zero.dnom" horiz-adv-x="367" 
d="M131 -9q-54 0 -84 37.5t-30 101.5t21.5 120t65 93t100.5 37q54 0 84 -36.5t30 -100.5t-21.5 -120.5t-65 -94t-100.5 -37.5zM138 42q39 0 70 32t45.5 76.5t14.5 90.5q0 43 -18 66t-53 23q-39 0 -70 -32t-45.5 -76.5t-14.5 -89.5q0 -44 18 -67t53 -23z" />
    <glyph glyph-name="one.dnom" horiz-adv-x="194" 
d="M40 373h118l-74 -373h-51l65 329h-67z" />
    </font>
</defs>
</svg>
