<?xml version="1.0" standalone="no"?>
<!DOCTYPE svg PUBLIC "-//W3C//DTD SVG 1.1//EN" "http://www.w3.org/Graphics/SVG/1.1/DTD/svg11.dtd" >
<svg xmlns="http://www.w3.org/2000/svg" xmlns:xlink="http://www.w3.org/1999/xlink" version="1.1">
<metadata>
Created by FontForge 20170731 at Mon Jan 29 13:05:57 2018
 By Aleksey,,,
Modern and elegant sans serif font family.
</metadata>
<defs>
<font id="Mont-HeavyItalic" horiz-adv-x="0" >
  <font-face 
    font-family="Mont Heavy Italic"
    font-weight="900"
    font-style="italic"
    font-stretch="normal"
    units-per-em="1000"
    panose-1="0 0 10 0 0 0 0 0 0 0"
    ascent="800"
    descent="-200"
    x-height="540"
    cap-height="700"
    bbox="-759 -320 1293 1006"
    underline-thickness="50"
    underline-position="-200"
    slope="-11.31"
    unicode-range="U+0020-25CA"
  />
<missing-glyph horiz-adv-x="461" 
d="M378 730v-922h-292v922h292zM307 668h-152v-30h60v-34h-61v-31h153v31h-61v34h61v30zM246 549h-92v-95h153v31h-61v64zM215 518v-33h-31v33h31zM307 429h-153v-31h61v-34h-61v-30h92v64h61v31zM307 373h-31v-60h-122v-32h153v92zM307 261h-92v-52h31v22h30v-44h-92v74
h-30v-104h153v104zM307 101h-153v-104h153v104zM276 71v-43h-92v43h92zM307 -24h-153v-30h64l-64 -44v-30h153v30h-94l64 44h30v30z" />
    <glyph glyph-name="f_f.liga" unicode="ff" horiz-adv-x="815" 
d="M788 614q-14 0 -25.5 -5.5t-19 -15.5t-9.5 -24l-8 -37h129l-29 -144h-123l-77 -388h-179l77 388h-209l-78 -388h-179l78 388h-90l29 144h92l10 54q10 53 36.5 90.5t69 57.5t98.5 20h119l-28 -140h-72q-22 0 -36.5 -12t-18.5 -33l-7 -37h217l11 54q10 53 36 90.5
t68.5 57.5t98.5 20h130l-29 -140h-82z" />
    <glyph glyph-name="f_f_t.liga" unicode="fft" horiz-adv-x="1233" 
d="M1227 388h-140q-32 -159 -32 -171q0 -55 66 -55h61l-32 -162h-95q-61 0 -103 18t-63 53t-21 87q0 23 6.5 60t33.5 170h-205l-77 -388h-179l77 388h-209l-78 -388h-179l78 388h-90l29 144h92l10 54q10 53 36.5 90.5t69 57.5t98.5 20h129l-29 -140h-81q-22 0 -36.5 -12
t-18.5 -33l-7 -37h217l11 54q7 40 24 71t42.5 52.5t60 33t76.5 11.5h124l-28 -140h-77q-21 0 -35.5 -12t-19.5 -33l-7 -37h211q16 79 31 157h179q-18 -89 -31 -157h140z" />
    <glyph glyph-name="f_t.liga" unicode="ft" horiz-adv-x="862" 
d="M857 395h-141q-33 -166 -33 -178q0 -55 67 -55h61l-32 -162h-96q-61 0 -102.5 18t-63 53t-21.5 87q0 23 7 60.5t34 176.5h-221l-78 -395h-179l78 395h-90l28 137h92l10 54q16 80 68 124t136 44h129l-28 -142h-82q-22 0 -36.5 -12t-18.5 -33l-7 -35h227q15 75 31 157h179
q-18 -92 -31 -157h140z" />
    <glyph glyph-name="f_t_t.liga" unicode="ftt" horiz-adv-x="1271" 
d="M1266 395h-140q-33 -166 -33 -178q0 -55 67 -55h61l-33 -162h-95q-92 0 -139.5 40t-47.5 118q0 23 6.5 60.5t34.5 176.5h-243q-34 -166 -34 -178q0 -55 67 -55h61l-32 -162h-95q-92 0 -139.5 40t-47.5 118q0 23 6.5 60.5t34.5 176.5h-209l-79 -395h-179l79 395h-90
l28 137h92l10 54q10 53 36.5 90.5t69 57.5t98.5 20h129l-28 -138h-82q-22 0 -36.5 -12t-18.5 -34l-7 -38h214q19 92 32 157h179q-13 -64 -32 -157h244q15 77 31 157h179q-15 -76 -31 -157h139z" />
    <glyph glyph-name="r_t.liga" unicode="rt" horiz-adv-x="895" 
d="M888 394h-138q-33 -166 -33 -177q0 -55 67 -55h61l-32 -162h-93q-91 0 -139.5 42.5t-48.5 122.5q0 16 3 37.5t10 59t26 132.5h-108l28 141h108q17 82 31 154h179q-13 -68 -31 -154h139zM248 484q67 59 161 59h42l-33 -165h-60q-35 0 -58 -10.5t-37.5 -32.5t-21.5 -59
l-55 -276h-179l108 540h118z" />
    <glyph glyph-name="t_f.liga" unicode="tf" horiz-adv-x="826" 
d="M800 620q-10 0 -19.5 -3t-16.5 -8.5t-11.5 -14t-6.5 -19.5l-9 -43h129l-28 -137h-123l-79 -395h-179l79 395h-232q-35 -175 -35 -184q0 -50 61 -50h65l-32 -161h-101q-84 0 -131 43.5t-47 119.5q0 27 28 166q2 10 3 15.5t3 15t3.5 18t3.5 17.5h-102l6 27l310 278h23
l-33 -168h237l12 59q16 80 67.5 123.5t135.5 43.5h130l-28 -138h-83z" />
    <glyph glyph-name=".notdef" horiz-adv-x="461" 
d="M378 730v-922h-292v922h292zM307 668h-152v-30h60v-34h-61v-31h153v31h-61v34h61v30zM246 549h-92v-95h153v31h-61v64zM215 518v-33h-31v33h31zM307 429h-153v-31h61v-34h-61v-30h92v64h61v31zM307 373h-31v-60h-122v-32h153v92zM307 261h-92v-52h31v22h30v-44h-92v74
h-30v-104h153v104zM307 101h-153v-104h153v104zM276 71v-43h-92v43h92zM307 -24h-153v-30h64l-64 -44v-30h153v30h-94l64 44h30v30z" />
    <glyph glyph-name=".null" 
 />
    <glyph glyph-name="nonmarkingreturn" horiz-adv-x="333" 
 />
    <glyph glyph-name="space" unicode=" " horiz-adv-x="222" 
 />
    <glyph glyph-name="exclam" unicode="!" horiz-adv-x="314" 
d="M65 233l97 487h170l-97 -487h-170zM14 0l34 171h177l-34 -171h-177z" />
    <glyph glyph-name="quotedbl" unicode="&#x22;" horiz-adv-x="484" 
d="M84 432l54 270h155l-54 -270h-155zM306 432l54 270h155l-54 -270h-155z" />
    <glyph glyph-name="numbersign" unicode="#" horiz-adv-x="658" 
d="M644 404h-81l-38 -111h74l-28 -140h-97l-53 -152h-153l54 152h-92l-55 -152h-154l55 152h-58l28 140h81l40 111h-76l27 135h97l57 161h154l-57 -161h87l57 161h153l-57 -161h62zM373 293l38 111h-92l-40 -111h94z" />
    <glyph glyph-name="dollar" unicode="$" horiz-adv-x="606" 
d="M590 469h-178q6 30 -12.5 46t-51.5 16q-32 0 -56 -14t-24 -40q0 -12 7 -21t23 -16.5t30 -12t40 -11.5q31 -8 53.5 -16t50.5 -23t45.5 -32.5t30 -45t12.5 -61.5q0 -100 -60.5 -162.5t-163.5 -81.5l-14 -70h-143l14 68q-81 13 -126.5 59.5t-45.5 120.5q0 20 5 45h182
q-7 -34 14 -53t57 -19t65 19t29 48q0 11 -5.5 19.5t-13 14t-23 11.5t-27 9.5t-33.5 9.5q-41 10 -71 22.5t-58.5 32.5t-43 51t-14.5 72q0 92 59 150.5t158 74.5l13 65h144l-14 -66q73 -13 111.5 -55.5t38.5 -108.5q0 -24 -4 -45z" />
    <glyph glyph-name="percent" unicode="%" horiz-adv-x="864" 
d="M217 347q-65 0 -105.5 38.5t-40.5 97.5q0 81 59 137.5t144 56.5q65 0 105.5 -38.5t40.5 -98.5q0 -81 -59 -137t-144 -56zM106 0l534 665h139l-534 -665h-139zM236 463q24 0 42 17.5t18 42.5q0 17 -11 27.5t-30 10.5q-24 0 -42 -17.5t-18 -42.5q0 -17 11.5 -27.5
t29.5 -10.5zM614 -12q-65 0 -105.5 38.5t-40.5 97.5q0 82 59 138.5t144 56.5q65 0 106 -39t41 -98q0 -82 -59 -138t-145 -56zM633 104q24 0 41.5 17.5t17.5 43.5q0 17 -10.5 27t-28.5 10q-24 0 -42.5 -17t-18.5 -42q0 -7 2 -13t5.5 -10.5t8.5 -8t11 -5.5t14 -2z" />
    <glyph glyph-name="ampersand" unicode="&#x26;" horiz-adv-x="651" 
d="M628 335q-24 -122 -107 -212q24 -35 84 -123h-177q-13 19 -23 34q-92 -49 -195 -49q-87 0 -140 50t-53 127q0 54 23 99.5t56 75t83 58.5q-37 79 -37 132q0 90 65 142t165 52q81 0 135 -43.5t54 -112.5q0 -41 -14.5 -74.5t-43.5 -60t-57 -45t-70 -40.5q26 -43 65 -102
q30 43 40 92h147zM362 594q-28 0 -47 -18t-19 -47q0 -26 17 -66q46 22 70 42t24 49q0 19 -12.5 29.5t-32.5 10.5zM240 130q42 0 85 18q-47 71 -81 127q-65 -44 -65 -92q0 -24 16.5 -38.5t44.5 -14.5z" />
    <glyph glyph-name="quotesingle" unicode="'" horiz-adv-x="262" 
d="M84 432l54 270h155l-54 -270h-155z" />
    <glyph glyph-name="parenleft" unicode="(" horiz-adv-x="363" 
d="M98 -157q-68 137 -68 311q0 172 67 342.5t184 301.5h195q-121 -125 -196 -294.5t-75 -338.5q0 -96 22 -180.5t54 -141.5h-183z" />
    <glyph glyph-name="parenright" unicode=")" horiz-adv-x="367" 
d="M-93 -157q121 121 196 291.5t75 338.5q0 97 -22 181.5t-54 143.5h184q67 -140 67 -312q0 -178 -60.5 -346.5t-175.5 -296.5h-210z" />
    <glyph glyph-name="asterisk" unicode="*" horiz-adv-x="434" 
d="M456 539l-88 -29l43 -65l-104 -78l-52 82l-85 -84l-82 80l75 71l-80 30l65 113l77 -31l18 90h123l-18 -90l90 30z" />
    <glyph glyph-name="plus" unicode="+" horiz-adv-x="544" 
d="M540 399l-30 -147h-159l-35 -173h-164l34 173h-159l29 147h160l35 173h164l-35 -173h160z" />
    <glyph glyph-name="comma" unicode="," horiz-adv-x="282" 
d="M-22 -172l18 88q40 4 64.5 27t31.5 57h-87l33 171h179l-33 -165q-16 -80 -71 -126.5t-135 -51.5z" />
    <glyph glyph-name="hyphen" unicode="-" horiz-adv-x="467" 
d="M42 199l32 161h356l-32 -161h-356z" />
    <glyph glyph-name="period" unicode="." horiz-adv-x="280" 
d="M5 0l33 171h177l-34 -171h-176z" />
    <glyph glyph-name="slash" unicode="/" horiz-adv-x="549" 
d="M-44 -84l476 845h188l-476 -845h-188z" />
    <glyph glyph-name="zero" unicode="0" horiz-adv-x="654" 
d="M276 -16q-107 0 -168.5 71.5t-61.5 190.5q0 70 15.5 134t46 118.5t73 95t99.5 63.5t122 23q108 0 169.5 -71.5t61.5 -190.5q0 -87 -25 -165.5t-70 -138t-113 -95t-149 -35.5zM302 141q36 0 66.5 25.5t49.5 66t29.5 86.5t10.5 90q0 55 -21 84.5t-61 29.5q-48 0 -85 -44.5
t-54 -104.5t-17 -120q0 -37 9 -62t27.5 -38t45.5 -13z" />
    <glyph glyph-name="one" unicode="1" horiz-adv-x="375" 
d="M111 665h271l-133 -665h-174l104 521h-96z" />
    <glyph glyph-name="two" unicode="2" horiz-adv-x="560" 
d="M546 503q0 -37 -12 -72.5t-29 -64.5t-51.5 -68.5t-62.5 -67t-80 -75.5h184l-31 -155h-489l7 38q28 26 71 67t68 64t60 57t55.5 55t46 48.5t39.5 46t28 39t19.5 36.5t5.5 30q0 22 -13.5 35t-36.5 13q-30 0 -51 -18.5t-28 -49.5l-3 -14h-167l2 13q11 54 36.5 96.5t61 69.5
t78.5 41.5t90 14.5q86 0 144 -48.5t58 -130.5z" />
    <glyph glyph-name="three" unicode="3" horiz-adv-x="559" 
d="M577 665l-6 -30l-177 -217q56 -18 87.5 -63.5t31.5 -106.5q0 -112 -84 -187.5t-205 -75.5q-95 0 -150.5 52t-55.5 139q0 19 3 39h165q-6 -37 11 -58t51 -21q41 0 70 31t29 73q0 29 -19.5 46t-54.5 17h-105l6 32l148 187h-223l28 143h450z" />
    <glyph glyph-name="four" unicode="4" horiz-adv-x="578" 
d="M554 265l-29 -144h-59l-24 -121h-164l24 121h-318l6 31l316 513h176l-247 -400h105l66 148h119l-30 -148h59z" />
    <glyph glyph-name="five" unicode="5" horiz-adv-x="557" 
d="M528 525h-252l-27 -88h54q95 0 153.5 -55t58.5 -139q0 -113 -82.5 -185.5t-203.5 -72.5q-95 0 -152.5 50.5t-57.5 134.5q0 19 5 44h165q-5 -24 2.5 -42.5t23 -27.5t37.5 -9q38 0 67 29t29 70q0 30 -19 47.5t-51 17.5h-199l-15 24l105 342h387z" />
    <glyph glyph-name="six" unicode="6" horiz-adv-x="578" 
d="M365 447q85 0 136.5 -52t51.5 -132q0 -121 -87.5 -199.5t-217.5 -78.5q-101 0 -162 59t-61 149q0 68 30 125.5t91 135.5l167 210h187q-32 -39 -91 -113t-85 -107q20 3 41 3zM270 137q48 0 81.5 33.5t33.5 81.5q0 34 -21 53.5t-56 19.5q-48 0 -81.5 -33t-33.5 -81
q0 -34 21 -54t56 -20z" />
    <glyph glyph-name="seven" unicode="7" horiz-adv-x="543" 
d="M100 665h504l-5 -24l-380 -641h-177l312 522h-282z" />
    <glyph glyph-name="eight" unicode="8" horiz-adv-x="599" 
d="M485 344q62 -47 62 -121q0 -72 -42 -126.5t-109.5 -83t-149.5 -28.5q-101 0 -161.5 51.5t-60.5 131.5q0 123 121 191q-45 44 -45 105q0 66 38.5 116t101.5 75.5t139 25.5q63 0 110.5 -22t72 -60t24.5 -87q0 -101 -101 -168zM329 416q38 0 65 23.5t27 57.5q0 25 -17 40
t-48 15q-38 0 -65 -23.5t-27 -57.5q0 -25 17.5 -40t47.5 -15zM270 121q46 0 77.5 27.5t31.5 69.5q0 20 -9 34t-26 22t-41 8q-31 0 -56 -12.5t-39 -35t-14 -49.5q0 -19 9 -33.5t26.5 -22.5t40.5 -8z" />
    <glyph glyph-name="nine" unicode="9" horiz-adv-x="578" 
d="M358 681q100 0 161 -57t61 -146q0 -68 -30 -127.5t-91 -138.5l-169 -212h-185q31 39 91 114t87 108q-21 -3 -42 -3q-86 0 -138 51t-52 130q0 121 89 201t218 80zM297 338q49 0 84.5 34.5t35.5 83.5q0 23 -10.5 40t-29 26.5t-43.5 9.5q-50 0 -85 -33.5t-35 -83.5
q0 -23 10 -40.5t29 -27t44 -9.5z" />
    <glyph glyph-name="colon" unicode=":" horiz-adv-x="290" 
d="M76 361l34 171h176l-34 -171h-176zM3 0l34 171h177l-34 -171h-177z" />
    <glyph glyph-name="semicolon" unicode=";" horiz-adv-x="291" 
d="M76 361l34 171h176l-34 -171h-176zM-24 -172l18 88q40 4 65 27t32 57h-88l34 171h178l-32 -165q-11 -53 -40 -92t-71.5 -61t-95.5 -25z" />
    <glyph glyph-name="less" unicode="&#x3c;" horiz-adv-x="525" 
d="M525 621l-39 -194l-219 -106l177 -104l-37 -188l-376 272l9 43z" />
    <glyph glyph-name="equal" unicode="=" horiz-adv-x="592" 
d="M79 364l29 146h472l-29 -146h-472zM34 140l29 146h472l-29 -146h-472z" />
    <glyph glyph-name="greater" unicode="&#x3e;" horiz-adv-x="526" 
d="M141 621l375 -277l-9 -43l-484 -272l41 205l217 104l-176 107z" />
    <glyph glyph-name="question" unicode="?" horiz-adv-x="555" 
d="M169 223q15 79 45 120.5t99 84.5q27 17 42 28.5t27.5 31.5t12.5 43q0 26 -17 41.5t-43 15.5q-21 0 -40 -8.5t-34 -26.5t-20 -42h-168q12 73 53.5 126t101 78t130.5 25q91 0 151.5 -51.5t60.5 -134.5q0 -39 -9.5 -71t-29.5 -57t-42.5 -44t-55.5 -40q-54 -35 -69.5 -54.5
t-24.5 -64.5h-170zM121 0l34 171h177l-34 -171h-177z" />
    <glyph glyph-name="at" unicode="@" horiz-adv-x="1009" 
d="M573 676q82 0 155.5 -25t128.5 -70.5t87 -113.5t32 -149q0 -133 -68.5 -220.5t-187.5 -87.5q-42 0 -75.5 15.5t-50.5 44.5q-69 -61 -161 -61q-84 0 -136 52.5t-52 134.5q0 111 78.5 188.5t191.5 77.5q82 0 130 -57l24 28h79q-49 -243 -49 -251q0 -15 6 -25.5t16 -15.5
t23 -5q31 0 54.5 27.5t34.5 66t11 78.5q0 107 -77.5 173t-204.5 66q-83 0 -158 -28.5t-129.5 -77t-86.5 -117t-32 -146.5q0 -72 33 -126.5t93 -84t138 -29.5q85 0 157 27l-25 -126q-89 -29 -174 -29q-158 0 -257.5 99t-99.5 256q0 110 43 206t117 162.5t175.5 104.5
t216.5 38zM470 147q46 0 77.5 33t31.5 75q0 32 -20 51.5t-55 19.5q-29 0 -54.5 -15t-39.5 -40t-14 -53q0 -21 9 -37t26 -25t39 -9z" />
    <glyph glyph-name="A" unicode="A" horiz-adv-x="737" 
d="M488 0l-16 117h-253l-63 -117h-208l414 700h181l141 -700h-196zM417 487l-125 -229h161z" />
    <glyph glyph-name="B" unicode="B" horiz-adv-x="648" 
d="M527 366q36 -20 55 -55.5t19 -79.5q0 -101 -77.5 -166t-184.5 -65h-323l140 700h301q55 0 98.5 -21t66.5 -57t23 -80q0 -37 -15.5 -71.5t-41.5 -60.5t-61 -44zM380 423q35 0 58 23t23 59q0 17 -6.5 29t-19.5 18.5t-31 6.5h-99l-27 -136h102zM333 150q18 0 34 6.5t28 18
t18.5 27.5t6.5 34q0 26 -15.5 41.5t-43.5 15.5h-109l-29 -143h110z" />
    <glyph glyph-name="C" unicode="C" horiz-adv-x="781" 
d="M357 -17q-138 0 -225 87.5t-87 220.5q0 119 58 217t157.5 153.5t219.5 55.5q131 0 219 -85.5t84 -209.5h-188q-6 37 -24.5 64t-48 42t-67.5 15q-90 0 -154 -72t-64 -166q0 -44 18 -77.5t51.5 -52t77.5 -18.5q62 0 112 35.5t75 95.5h189q-45 -147 -152.5 -226t-250.5 -79z
" />
    <glyph glyph-name="D" unicode="D" horiz-adv-x="743" 
d="M428 700q136 0 219 -81t83 -208q0 -114 -55.5 -208.5t-152.5 -148.5t-215 -54h-291l140 700h272zM319 164q93 0 157.5 71t64.5 165q0 64 -39.5 100t-110.5 36h-83l-75 -372h86z" />
    <glyph glyph-name="E" unicode="E" horiz-adv-x="563" 
d="M567 546h-257l-24 -120h231l-29 -148h-232l-25 -122h267l-31 -156h-451l140 700h442z" />
    <glyph glyph-name="F" unicode="F" horiz-adv-x="544" 
d="M564 539h-253l-26 -130h227l-31 -154h-227l-51 -255h-187l140 700h440z" />
    <glyph glyph-name="G" unicode="G" horiz-adv-x="804" 
d="M455 543q-64 0 -115 -33.5t-78.5 -87.5t-27.5 -118q0 -67 40 -107t110 -40q132 0 182 97h-181l25 118h381q-27 -186 -139 -287.5t-289 -101.5q-140 0 -229 87t-89 220q0 118 56.5 215.5t156 154.5t220.5 57q134 0 226.5 -81.5t91.5 -193.5h-194q-11 46 -50.5 73.5
t-96.5 27.5z" />
    <glyph glyph-name="H" unicode="H" horiz-adv-x="732" 
d="M561 700h187l-140 -700h-187l56 280h-218l-56 -280h-187l140 700h187l-53 -262h219z" />
    <glyph glyph-name="I" unicode="I" horiz-adv-x="327" 
d="M16 0l140 700h187l-140 -700h-187z" />
    <glyph glyph-name="J" unicode="J" horiz-adv-x="617" 
d="M244 -17q-109 0 -173.5 57.5t-65.5 154.5q0 36 7 70h188q-5 -23 -5 -40q0 -69 68 -69q37 0 64 25.5t36 68.5l90 450h186l-96 -477q-22 -113 -100.5 -176.5t-198.5 -63.5z" />
    <glyph glyph-name="K" unicode="K" horiz-adv-x="670" 
d="M749 700l-296 -342l178 -358h-207l-157 328l-66 -328h-185l140 700h185l-57 -288l241 288h224z" />
    <glyph glyph-name="L" unicode="L" horiz-adv-x="523" 
d="M235 161h253l-33 -161h-439l140 700h187z" />
    <glyph glyph-name="M" unicode="M" horiz-adv-x="980" 
d="M744 700h188l-34 -700h-183l26 405l-272 -406h-52l-108 408l-140 -407h-193l246 700h183l93 -380z" />
    <glyph glyph-name="N" unicode="N" horiz-adv-x="757" 
d="M591 700h183l-140 -700h-154l-203 395l-79 -395h-182l140 700h160l198 -387z" />
    <glyph glyph-name="O" unicode="O" horiz-adv-x="831" 
d="M374 -17q-147 0 -238 87.5t-91 223.5q0 121 59.5 218.5t161.5 151t225 53.5q146 0 236.5 -87.5t90.5 -222.5q0 -122 -59.5 -219.5t-160.5 -151t-224 -53.5zM399 156q97 0 161.5 70t64.5 163q0 47 -20 82t-56.5 54t-84.5 19q-95 0 -160.5 -70t-65.5 -163q0 -70 44 -112.5
t117 -42.5z" />
    <glyph glyph-name="P" unicode="P" horiz-adv-x="639" 
d="M440 700q96 0 156.5 -60t60.5 -152q0 -122 -88 -206t-214 -84h-114l-39 -198h-186l140 700h284zM356 355q48 0 79.5 35t31.5 84q0 32 -19 50.5t-54 18.5h-84l-37 -188h83z" />
    <glyph glyph-name="Q" unicode="Q" horiz-adv-x="852" 
d="M818 412q1 -100 -37.5 -184t-108.5 -142l131 -173h-215l-69 91q-69 -21 -145 -21q-146 0 -236.5 86t-92.5 220q-1 122 57.5 220.5t161 153t227.5 54.5q96 0 170.5 -39.5t115 -109t41.5 -156.5zM238 311q0 -70 44 -112.5t117 -42.5q96 0 161 70.5t65 162.5q0 47 -19.5 82
t-56.5 54t-85 19q-94 0 -160 -70.5t-66 -162.5z" />
    <glyph glyph-name="R" unicode="R" horiz-adv-x="671" 
d="M666 495q0 -54 -19.5 -101.5t-54 -83t-82.5 -58.5l90 -252h-197l-74 219h-84l-44 -219h-185l140 700h291q98 0 158.5 -57.5t60.5 -147.5zM309 539l-33 -166h93q48 0 77.5 30.5t29.5 73.5q-1 29 -20 45.5t-55 16.5h-92z" />
    <glyph glyph-name="S" unicode="S" horiz-adv-x="625" 
d="M264 -17q-113 0 -178.5 52.5t-65.5 143.5q0 23 5 48h191q-2 -8 -2 -16q0 -31 20 -48.5t56 -17.5q26 0 48 8.5t36 26.5t14 43q0 15 -8.5 26t-26.5 19t-33.5 13t-43.5 12q-24 7 -38 11t-36.5 12t-36.5 16t-30.5 21.5t-26 28t-16 36t-6.5 45.5q0 83 39 140.5t106.5 85.5
t157.5 28q70 0 121 -21t78.5 -62.5t27.5 -99.5q0 -24 -4 -46h-185q1 8 1 14q0 27 -17.5 42.5t-49.5 15.5q-37 0 -60 -16.5t-23 -47.5q0 -13 7.5 -23t25 -18t32 -13t42.5 -13q19 -5 30 -8t30 -9.5t30.5 -11.5t28 -14t26.5 -18t21 -21.5t17.5 -26t10.5 -31.5t4 -38
q0 -127 -88 -197.5t-231 -70.5z" />
    <glyph glyph-name="T" unicode="T" horiz-adv-x="600" 
d="M667 700l-30 -155h-188l-109 -545h-186l108 545h-192l30 155h567z" />
    <glyph glyph-name="U" unicode="U" horiz-adv-x="728" 
d="M317 -17q-116 0 -188.5 66.5t-72.5 171.5q0 10 1.5 21.5t5 33t7 42t12 62.5t16 79.5t22 107.5t26.5 133h189q-19 -94 -45 -227q-31 -150 -37.5 -185t-6.5 -48q0 -40 25 -62t69 -22q52 0 89.5 33.5t47.5 87.5l85 423h189l-91 -452q-17 -85 -64.5 -144.5t-118.5 -90
t-160 -30.5z" />
    <glyph glyph-name="V" unicode="V" horiz-adv-x="717" 
d="M585 700h214l-406 -700h-173l-134 700h205l60 -447z" />
    <glyph glyph-name="W" unicode="W" horiz-adv-x="1046" 
d="M924 700h202l-356 -700h-159l-69 346l-204 -346h-168l-80 700h189l37 -412l254 411h58l93 -416z" />
    <glyph glyph-name="X" unicode="X" horiz-adv-x="650" 
d="M727 700l-269 -343l140 -357h-203l-73 208l-157 -208h-221l288 370l-133 330h199l68 -187l140 187h221z" />
    <glyph glyph-name="Y" unicode="Y" horiz-adv-x="693" 
d="M771 700l-329 -424l-55 -276h-189l55 277l-158 423h194l82 -258l186 258h214z" />
    <glyph glyph-name="Z" unicode="Z" horiz-adv-x="598" 
d="M647 700l-9 -48l-371 -491h284l-32 -161h-549l9 43l373 496h-259l31 161h523z" />
    <glyph glyph-name="bracketleft" unicode="[" horiz-adv-x="359" 
d="M405 676h-93l-140 -698h96l-27 -135h-255l193 966h253z" />
    <glyph glyph-name="backslash" unicode="\" horiz-adv-x="524" 
d="M252 -84l-138 845h186l138 -845h-186z" />
    <glyph glyph-name="bracketright" unicode="]" horiz-adv-x="359" 
d="M143 809h252l-193 -966h-255l27 135h96l141 698h-95z" />
    <glyph glyph-name="asciicircum" unicode="^" horiz-adv-x="582" 
d="M570 339h-177l-48 136l-101 -136h-201l313 363h46z" />
    <glyph glyph-name="underscore" unicode="_" horiz-adv-x="522" 
d="M-90 -196l31 157h522l-31 -157h-522z" />
    <glyph glyph-name="grave" unicode="`" horiz-adv-x="551" 
d="M413 601h-132l-76 162h185z" />
    <glyph glyph-name="a" unicode="a" horiz-adv-x="692" 
d="M549 540h137l-108 -540h-128l-9 41q-81 -58 -178 -58q-103 0 -170.5 66.5t-67.5 174.5q0 94 45 171t119.5 119.5t161.5 42.5q102 0 165 -69zM310 144q59 0 103.5 46t44.5 107q0 45 -29 72.5t-75 27.5q-60 0 -103.5 -45.5t-43.5 -107.5q0 -22 7.5 -41t20.5 -31.5t32.5 -20
t42.5 -7.5z" />
    <glyph glyph-name="b" unicode="b" horiz-adv-x="683" 
d="M424 557q103 0 169 -66t66 -172q0 -91 -44.5 -168.5t-120.5 -122.5t-167 -45q-98 0 -158 65l-30 -48h-132l147 735h177l-43 -213q65 35 136 35zM330 144q59 0 103 45.5t44 107.5q0 44 -29 71.5t-76 27.5q-59 0 -102.5 -45t-43.5 -107q0 -45 28.5 -72.5t75.5 -27.5z" />
    <glyph glyph-name="c" unicode="c" horiz-adv-x="626" 
d="M275 -17q-110 0 -179.5 69.5t-69.5 175.5q0 140 98.5 235t243.5 95q109 0 177 -68t67 -169h-176q-7 35 -31.5 54.5t-61.5 19.5q-58 0 -98 -46.5t-39 -107.5q0 -44 25.5 -70t66.5 -26q25 0 48 9.5t42 27.5t32 44h176q-35 -115 -121 -179t-200 -64z" />
    <glyph glyph-name="d" unicode="d" horiz-adv-x="682" 
d="M538 735h178l-147 -735h-123l-13 46q-83 -63 -179 -63q-101 0 -165 68t-64 172q0 91 43.5 168t120 121.5t167.5 44.5q80 0 137 -48zM208 247q0 -46 28.5 -75t76.5 -29q59 0 101.5 44t42.5 106q0 46 -29 75t-77 29q-38 0 -71 -20t-52.5 -55t-19.5 -75z" />
    <glyph glyph-name="e" unicode="e" horiz-adv-x="634" 
d="M612 320q0 -42 -14 -94h-404q0 -24 6.5 -42t19.5 -30t31 -18t42 -6q70 0 109 53h181q-41 -94 -125 -147t-189 -53q-107 0 -175 70t-68 174q0 141 94.5 236t240.5 95q112 0 181.5 -68t69.5 -170zM344 415q-43 0 -75.5 -23.5t-51.5 -62.5h227q-11 86 -100 86z" />
    <glyph glyph-name="f" unicode="f" horiz-adv-x="427" 
d="M400 614q-22 0 -36.5 -12t-18.5 -33l-7 -37h129l-29 -144h-123l-78 -388h-179l78 388h-90l29 144h92l10 54q10 53 36.5 90.5t69 57.5t98.5 20h129l-28 -140h-82z" />
    <glyph glyph-name="g" unicode="g" horiz-adv-x="671" 
d="M548 540h118l-98 -488q-17 -85 -62.5 -145t-114.5 -90.5t-157 -30.5q-113 0 -179 57.5t-69 152.5h174q3 -30 30.5 -47t64.5 -17q49 0 88 30.5t50 81.5l2 7q-68 -37 -142 -37q-98 0 -161.5 63t-63.5 164q0 85 43 158t114.5 115.5t152.5 42.5q107 0 172 -75zM209 259
q0 -43 25.5 -68t70.5 -25q27 0 52.5 11.5t44.5 31t30.5 46.5t11.5 57q0 43 -25.5 68t-70.5 25q-57 0 -98 -43t-41 -103z" />
    <glyph glyph-name="h" unicode="h" horiz-adv-x="642" 
d="M436 557q79 0 124.5 -47.5t45.5 -125.5q0 -8 -0.5 -15.5t-1.5 -16.5t-4 -24.5t-6 -31.5t-9 -46.5l-12 -61t-16.5 -83t-21.5 -105.5h-179q16 77 36 180q29 141 29 156q0 62 -60 62q-23 0 -42.5 -8t-34.5 -23t-26 -36.5t-16 -49.5l-56 -281h-179l147 735h179l-45 -223
q67 45 148 45z" />
    <glyph glyph-name="i" unicode="i" horiz-adv-x="299" 
d="M126 607l31 155h180l-31 -155h-180zM7 0l108 540h179l-108 -540h-179z" />
    <glyph glyph-name="j" unicode="j" horiz-adv-x="311" 
d="M136 607l31 155h180l-31 -155h-180zM-138 -203l32 159h47q34 0 55 18.5t29 53.5l102 512h179l-109 -543q-40 -200 -252 -200h-83z" />
    <glyph glyph-name="k" unicode="k" horiz-adv-x="581" 
d="M629 540l-225 -264l135 -276h-191l-114 242l-48 -242h-179l147 735h179l-79 -393l162 198h213z" />
    <glyph glyph-name="l" unicode="l" horiz-adv-x="299" 
d="M7 0l147 735h179l-147 -735h-179z" />
    <glyph glyph-name="m" unicode="m" horiz-adv-x="938" 
d="M750 557q70 0 111.5 -47t41.5 -122q0 -23 -6 -56.5t-33 -165.5q-6 -31 -9.5 -49.5t-10.5 -52t-13 -64.5h-179q10 53 27 135q39 191 39 209q0 55 -51 55q-77 0 -101 -99q-5 -27 -25 -124t-36 -176h-174q16 79 37 184q20 100 24.5 123.5t4.5 34.5q0 57 -50 57
q-79 0 -103 -104l-58 -295h-179l108 540h125l14 -53q74 70 175 70q46 0 81 -21t53 -58q74 79 187 79z" />
    <glyph glyph-name="n" unicode="n" horiz-adv-x="642" 
d="M438 557q78 0 122.5 -48t44.5 -129q0 -9 -0.5 -17t-1.5 -16.5t-4 -24.5t-5.5 -31t-9 -46t-12 -60t-16.5 -81.5t-21 -103.5h-179l37 185q27 133 27 148q0 65 -59 65q-45 0 -75.5 -28.5t-42.5 -80.5l-57 -289h-179l108 540h125l14 -55q77 72 184 72z" />
    <glyph glyph-name="o" unicode="o" horiz-adv-x="653" 
d="M287 -17q-113 0 -187 69t-74 177q0 92 45.5 167.5t123.5 118.5t172 43q113 0 187 -69t74 -178q0 -92 -45.5 -167.5t-124 -118t-171.5 -42.5zM303 145q61 0 103 45.5t42 108.5q0 44 -26.5 70t-70.5 26q-62 0 -103.5 -45.5t-41.5 -107.5q0 -29 11.5 -51t33.5 -34t52 -12z
" />
    <glyph glyph-name="p" unicode="p" horiz-adv-x="682" 
d="M421 558q103 0 170 -68.5t67 -174.5q0 -91 -43 -167t-118 -120.5t-166 -44.5q-82 0 -141 47l-45 -225h-177l147 735h120l14 -42q80 60 172 60zM329 144q60 0 103.5 45.5t43.5 108.5q0 45 -28.5 72.5t-74.5 27.5q-60 0 -104 -46t-44 -109q0 -44 29 -71.5t75 -27.5z" />
    <glyph glyph-name="q" unicode="q" horiz-adv-x="683" 
d="M558 540h119l-147 -735h-178l42 211q-62 -33 -130 -33q-107 0 -173 68t-66 173q0 140 94.5 236.5t233.5 96.5q102 0 165 -70zM207 243q0 -21 8 -40t21.5 -31.5t33 -20t42.5 -7.5q60 0 103 45.5t43 108.5q0 45 -29 72.5t-76 27.5q-59 0 -102.5 -46t-43.5 -109z" />
    <glyph glyph-name="r" unicode="r" horiz-adv-x="420" 
d="M409 543h53l-33 -165h-71q-50 0 -77 -22t-38 -71l-57 -285h-179l108 540h118l15 -56q67 59 161 59z" />
    <glyph glyph-name="s" unicode="s" horiz-adv-x="530" 
d="M215 -17q-93 0 -150 44t-57 117q0 17 3 34h171q-1 -7 -1 -14q0 -22 15.5 -34t41.5 -12t46 13.5t20 37.5q0 11 -6 18t-20 12.5t-25.5 8.5t-34.5 7q-18 4 -27.5 6t-27.5 7t-28 9.5t-24.5 12t-22.5 16.5t-16.5 21t-12 27.5t-3.5 33.5q0 99 72 154t186 55q91 0 146 -43.5
t55 -110.5q0 -13 -3 -28h-167q1 5 1 10q0 42 -52 42q-27 0 -45 -13t-18 -35q0 -10 5.5 -17.5t21 -13t26 -8t35.5 -7.5q21 -4 32.5 -6.5t31.5 -8t31.5 -11.5t26.5 -16.5t23 -22.5t14 -29.5t6 -38.5q0 -68 -36 -118t-96.5 -74.5t-136.5 -24.5z" />
    <glyph glyph-name="t" unicode="t" horiz-adv-x="449" 
d="M442 390h-137q-34 -166 -34 -177q0 -52 61 -52h65l-32 -161h-101q-83 0 -130.5 44t-47.5 120q0 26 28 165q8 38 12 61h-101l8 41l294 267h37l-31 -158h139z" />
    <glyph glyph-name="u" unicode="u" horiz-adv-x="634" 
d="M268 -17q-68 0 -120 26t-79.5 72.5t-27.5 107.5q0 6 0.5 12l1 12t2 16t3 18.5l4.5 25.5t6 31.5t8.5 41.5t10.5 51.5t13.5 65t15.5 77.5h179q-14 -73 -34 -172q-29 -144 -29 -161q0 -62 69 -62q39 0 67.5 28.5t37.5 74.5l59 292h179l-64 -321q-22 -112 -102.5 -174
t-199.5 -62z" />
    <glyph glyph-name="v" unicode="v" horiz-adv-x="599" 
d="M461 540h191l-323 -540h-163l-111 540h188l42 -329z" />
    <glyph glyph-name="w" unicode="w" horiz-adv-x="861" 
d="M726 540h185l-281 -540h-141l-55 245l-161 -245h-147l-69 540h183l28 -286l188 285h47l78 -295z" />
    <glyph glyph-name="x" unicode="x" horiz-adv-x="571" 
d="M620 540l-221 -262l125 -278h-189l-61 154l-119 -154h-213l236 287l-116 253h189l56 -138l108 138h205z" />
    <glyph glyph-name="y" unicode="y" horiz-adv-x="615" 
d="M474 540h196l-336 -538q-74 -117 -136.5 -159t-163.5 -42h-74l31 155h46q53 0 81.5 18t59.5 71l-125 495h186l62 -308z" />
    <glyph glyph-name="z" unicode="z" horiz-adv-x="511" 
d="M536 540l-7 -31l-272 -351h204l-32 -158h-462l6 32l275 351h-185l31 157h442z" />
    <glyph glyph-name="braceleft" unicode="{" horiz-adv-x="384" 
d="M452 813l-27 -141h-73l-44 -215q-8 -44 -37 -77t-68 -46q27 -14 42 -41t15 -61q0 -19 -29 -165q-10 -51 -16 -82h73l-29 -142h-100q-49 0 -82.5 34t-33.5 83q0 20 49 262q3 21 -9.5 36t-34.5 15h-21l26 130h21q15 0 29 7t24 20t13 28l47 239q11 53 50.5 84.5t94.5 31.5
h120z" />
    <glyph glyph-name="bar" unicode="|" horiz-adv-x="312" 
d="M-20 -190l206 1030h169l-206 -1030h-169z" />
    <glyph glyph-name="braceright" unicode="}" horiz-adv-x="382" 
d="M359 386h21l-26 -130h-21q-23 0 -42 -16t-24 -39l-48 -241q-7 -36 -25.5 -62.5t-47 -40.5t-64.5 -14h-128l28 141h73l46 225q9 45 37 77.5t67 45.5q-26 13 -41 39.5t-15 62.5q0 18 26 143q3 18 5.5 29t6 29.5t7.5 36.5h-74l28 141h100q49 0 82.5 -34t33.5 -82
q0 -21 -25 -138t-25 -130q0 -19 12.5 -31t32.5 -12z" />
    <glyph glyph-name="asciitilde" unicode="~" horiz-adv-x="596" 
d="M394 223q-24 0 -49 7t-37.5 13.5t-35.5 18.5q-37 22 -54 22q-40 0 -53 -59h-121q22 106 63.5 151.5t120.5 45.5q17 0 33.5 -3t32 -10t25 -12.5t24.5 -14.5q38 -24 58 -24q24 0 35.5 15.5t18.5 47.5h121q-22 -106 -63 -152t-119 -46z" />
    <glyph glyph-name="uni00A0" unicode="&#xa0;" horiz-adv-x="222" 
 />
    <glyph glyph-name="exclamdown" unicode="&#xa1;" horiz-adv-x="306" 
d="M297 540l-34 -171h-177l34 171h177zM247 307l-97 -487h-170l97 487h170z" />
    <glyph glyph-name="cent" unicode="&#xa2;" horiz-adv-x="614" 
d="M293 140q35 0 66 20.5t49 54.5h169q-26 -86 -92 -145t-153 -76l-14 -70h-143l15 74q-73 22 -115.5 81.5t-42.5 138.5q0 116 73.5 199.5t189.5 104.5l16 80h143l-17 -83q73 -20 114.5 -76t41.5 -137h-168q-7 31 -31 49.5t-59 18.5q-53 0 -91.5 -41t-38.5 -99
q0 -42 23.5 -68t64.5 -26z" />
    <glyph glyph-name="sterling" unicode="&#xa3;" horiz-adv-x="608" 
d="M588 467h-156q5 18 5 31q0 16 -6.5 26.5t-18 16t-27.5 5.5q-19 0 -34.5 -8t-26.5 -23.5t-15 -36.5l-19 -96h121l-24 -123h-122l-26 -126h158l15 74h149l-41 -207h-532l19 100l65 26l27 133h-47l25 123h47l22 114q18 90 87 139t174 49q88 0 138 -43.5t50 -117.5
q0 -25 -7 -56z" />
    <glyph glyph-name="currency" unicode="&#xa4;" horiz-adv-x="621" 
d="M551 339q0 -79 -50 -147l57 -73l-110 -91l-58 72q-55 -26 -113 -26q-53 0 -98 26l-84 -72l-83 102l83 70q-13 34 -13 70q0 82 53 152l-53 69l111 93l57 -72q52 23 107 23q50 0 94 -24l87 73l81 -103l-82 -69q14 -35 14 -73zM224 288q0 -20 9.5 -37.5t26.5 -27t38 -9.5
q44 0 77 32t33 76q0 32 -21.5 53.5t-53.5 21.5q-45 0 -77 -32t-32 -77z" />
    <glyph glyph-name="yen" unicode="&#xa5;" horiz-adv-x="691" 
d="M742 665l-309 -373h157l-19 -91h-157l-9 -46h157l-17 -88h-158l-13 -67h-171l13 67h-157l17 88h158l9 46h-157l18 91h154l-157 373h176l88 -242l187 242h190z" />
    <glyph glyph-name="brokenbar" unicode="&#xa6;" horiz-adv-x="312" 
d="M98 400l88 440h169l-88 -440h-169zM-20 -190l90 450h169l-90 -450h-169z" />
    <glyph glyph-name="section" unicode="&#xa7;" horiz-adv-x="541" 
d="M531 535h-147q4 23 -10.5 37.5t-43.5 14.5q-25 0 -43.5 -12t-18.5 -32q0 -7 3 -13t9.5 -11t13 -8.5t18.5 -7t20.5 -6t23.5 -6.5q158 -41 158 -151q0 -97 -91 -153q23 -32 23 -73q0 -61 -29.5 -103t-80.5 -62t-121 -20q-88 0 -139 39.5t-51 107.5q0 10 3 32h148
q-5 -23 10.5 -37.5t45.5 -14.5q25 0 44 11.5t19 32.5q0 10 -6 18t-21 14t-26 9.5t-34 9.5q-159 40 -159 151q0 56 23.5 92t70.5 63q-25 32 -25 74q0 90 61.5 137t166.5 47q87 0 137.5 -39.5t50.5 -108.5q0 -13 -3 -32zM361 320q0 24 -24 37.5t-74 26.5q-4 2 -9 3
q-11 -4 -20.5 -10t-16.5 -14t-11 -17.5t-4 -20.5q0 -15 13.5 -26.5t31.5 -18.5t48 -15q9 -3 17 -6q49 20 49 61z" />
    <glyph glyph-name="dieresis" unicode="&#xa8;" horiz-adv-x="623" 
d="M83 608l30 152h168l-30 -152h-168zM332 608l30 152h168l-30 -152h-168z" />
    <glyph glyph-name="copyright" unicode="&#xa9;" horiz-adv-x="831" 
d="M375 -14q-143 0 -234 86.5t-91 219.5q0 119 57 215.5t157 150.5t223 54q143 0 234.5 -86.5t91.5 -219.5q0 -119 -57 -215t-157.5 -150.5t-223.5 -54.5zM384 83q90 0 164.5 42.5t116.5 115.5t42 159q0 96 -63 156t-166 60q-90 0 -164.5 -43t-116.5 -116t-42 -159
q0 -96 63 -155.5t166 -59.5zM399 162q-73 0 -119 45.5t-46 113.5q0 93 67 155.5t165 62.5q73 0 117.5 -42t41.5 -112h-116q-4 22 -20 34.5t-41 12.5q-39 0 -67 -29.5t-28 -69.5q0 -18 8 -32.5t22.5 -22.5t33.5 -8q52 0 80 51h117q-26 -72 -84 -115.5t-131 -43.5z" />
    <glyph glyph-name="ordfeminine" unicode="&#xaa;" horiz-adv-x="454" 
d="M398 706h85l-67 -331h-87l-5 26q-49 -34 -106 -34q-61 0 -100 41.5t-39 102.5q0 87 58 145t143 58q60 0 97 -41zM190 525q0 -27 16.5 -43t44.5 -16q36 0 63.5 26.5t27.5 64.5q0 17 -7.5 30.5t-21.5 21t-32 7.5q-37 0 -64 -27t-27 -64z" />
    <glyph glyph-name="guillemotleft" unicode="&#xab;" horiz-adv-x="707" 
d="M424 487l-197 -214l120 -226h-200l-119 222l3 18l187 200h206zM719 487l-203 -219l118 -221h-200l-117 218l3 16l192 206h207z" />
    <glyph glyph-name="logicalnot" unicode="&#xac;" horiz-adv-x="605" 
d="M77 443h500l-64 -322h-168l34 170h-333z" />
    <glyph glyph-name="registered" unicode="&#xae;" horiz-adv-x="507" 
d="M336 713q81 0 131.5 -52t50.5 -131q0 -105 -76.5 -180t-184.5 -75q-53 0 -95 24.5t-64.5 66t-22.5 92.5q0 106 76.5 180.5t184.5 74.5zM266 341q50 0 93 26t68.5 69t25.5 92q0 53 -34.5 86.5t-91.5 33.5q-76 0 -131.5 -56t-55.5 -131q0 -26 9 -48.5t25.5 -38t40 -24.5
t51.5 -9zM395 535q0 -51 -43 -74l23 -67h-66l-19 56h-20l-11 -56h-64l41 204h93q29 0 47.5 -18t18.5 -45zM289 543l-8 -39h24q12 0 19 6.5t7 17.5q0 15 -18 15h-24z" />
    <glyph glyph-name="macron" unicode="&#xaf;" horiz-adv-x="509" 
d="M161 618l25 124h323l-25 -124h-323z" />
    <glyph glyph-name="degree" unicode="&#xb0;" horiz-adv-x="383" 
d="M238 519q-61 0 -99.5 37t-38.5 94q0 76 61.5 133t140.5 57q61 0 100.5 -37.5t39.5 -95.5q0 -76 -62.5 -132t-141.5 -56zM260 626q27 0 46.5 19t19.5 45q0 19 -12.5 30.5t-33.5 11.5q-26 0 -45.5 -18.5t-19.5 -44.5q0 -19 12.5 -31t32.5 -12z" />
    <glyph glyph-name="plusminus" unicode="&#xb1;" horiz-adv-x="579" 
d="M420 504h153l-30 -154h-154l-28 -139h-165l28 139h-153l30 154h154l29 144h164zM-2 0l29 141h476l-28 -141h-477z" />
    <glyph glyph-name="acute" unicode="&#xb4;" horiz-adv-x="554" 
d="M162 600l87 162h184l-139 -162h-132z" />
    <glyph glyph-name="paragraph" unicode="&#xb6;" horiz-adv-x="715" 
d="M760 700l-31 -152h-77l-126 -630h-161l126 630h-71l-126 -630h-160l68 339q-42 11 -73.5 35t-48 59t-16.5 77q0 74 42 137t111.5 99t148.5 36h394z" />
    <glyph glyph-name="periodcentered" unicode="&#xb7;" horiz-adv-x="290" 
d="M57 273l33 171h177l-34 -171h-176z" />
    <glyph glyph-name="cedilla" unicode="&#xb8;" horiz-adv-x="455" 
d="M149 -28q36 -6 56 -26.5t20 -50.5q0 -55 -42.5 -90.5t-102.5 -35.5h-82l16 80h63q10 0 19 4.5t14 12.5t5 18t-7.5 16t-19.5 6h-46l-5 12l66 138h87z" />
    <glyph glyph-name="ordmasculine" unicode="&#xba;" horiz-adv-x="421" 
d="M228 367q-68 0 -109.5 37.5t-41.5 98.5q0 87 65 148.5t155 61.5q69 0 109.5 -37.5t40.5 -98.5q0 -87 -64.5 -148.5t-154.5 -61.5zM249 470q24 0 43.5 12t30 32t10.5 42q0 12 -3.5 22.5t-11 17.5t-18 11t-23.5 4q-36 0 -60.5 -26t-24.5 -61q0 -25 15 -39.5t42 -14.5z" />
    <glyph glyph-name="guillemotright" unicode="&#xbb;" horiz-adv-x="716" 
d="M389 276l-3 -18l-199 -211h-201l202 220l-115 220h202zM575 487l115 -211l-3 -18l-199 -211h-202l203 220l-115 220h201z" />
    <glyph glyph-name="onequarter" unicode="&#xbc;" horiz-adv-x="962" 
d="M660 730h124l-556 -760h-124zM214 298h-117l63 313h-67l17 89h185zM915 158l-17 -87h-37l-15 -71h-107l14 71h-193l4 23l190 307h113l-149 -243h59l47 95h73l-19 -95h37z" />
    <glyph glyph-name="onehalf" unicode="&#xbd;" horiz-adv-x="945" 
d="M660 730h124l-556 -760h-124zM214 298h-117l63 313h-67l17 89h185zM909 300q0 -49 -34 -93t-108 -110h111l-19 -97h-306l7 30q18 18 52 49.5t51 47.5t42 40.5t38 39t27 32t19.5 29.5t5.5 22q0 12 -7 19t-20 7q-35 0 -44 -48h-110q9 71 53 108.5t114 37.5q57 0 92.5 -32.5
t35.5 -81.5z" />
    <glyph glyph-name="threequarters" unicode="&#xbe;" horiz-adv-x="1056" 
d="M754 730h124l-556 -760h-124zM365 445q0 -46 -23 -81.5t-63 -54.5t-89 -19q-65 0 -101.5 38t-26.5 102h101q-2 -19 8 -33.5t30 -14.5q24 0 41.5 17.5t17.5 43.5q0 17 -11.5 26.5t-30.5 9.5h-65l4 23l86 110h-135l18 88h279l-4 -19l-106 -131q32 -12 51 -40.5t19 -64.5z
M1009 158l-17 -87h-38l-14 -71h-107l14 71h-194l5 24l190 306h113l-149 -243h58l48 95h73l-19 -95h37z" />
    <glyph glyph-name="questiondown" unicode="&#xbf;" horiz-adv-x="547" 
d="M218 369l34 171h177l-34 -171h-177zM192 -202q-91 0 -151 51.5t-60 135.5q0 73 34 120.5t102 90.5q55 35 70 54t24 65h170q-15 -79 -44.5 -121t-99.5 -84q-41 -25 -61.5 -47t-20.5 -56q0 -26 17 -41t43 -15q32 0 59.5 20t34.5 56h168q-9 -55 -35 -99t-64.5 -72t-85.5 -43
t-100 -15z" />
    <glyph glyph-name="Agrave" unicode="&#xc0;" horiz-adv-x="737" 
d="M522 762h-132l-92 152h188zM488 0l-16 117h-253l-63 -117h-208l414 700h181l141 -700h-196zM417 487l-125 -229h161z" />
    <glyph glyph-name="Aacute" unicode="&#xc1;" horiz-adv-x="737" 
d="M670 914l-151 -152h-132l96 152h187zM488 0l-16 117h-253l-63 -117h-208l414 700h181l141 -700h-196zM417 487l-125 -229h161z" />
    <glyph glyph-name="Acircumflex" unicode="&#xc2;" horiz-adv-x="737" 
d="M474 831l-84 -69h-152l147 152h192l88 -152h-133zM488 0l-16 117h-253l-63 -117h-208l414 700h181l141 -700h-196zM417 487l-125 -230h161z" />
    <glyph glyph-name="Atilde" unicode="&#xc3;" horiz-adv-x="737" 
d="M391 807q-11 0 -19 -5t-13 -15.5t-6 -24.5h-101q13 78 54.5 117.5t102.5 39.5q46 0 85 -32q25 -20 44 -20q31 0 38 48h102q-13 -77 -55 -117t-102 -40q-44 0 -89 32q-25 17 -41 17zM488 0l-16 117h-253l-63 -117h-208l415 700h180l141 -700h-196zM417 487l-125 -230h161z
" />
    <glyph glyph-name="Adieresis" unicode="&#xc4;" horiz-adv-x="737" 
d="M455 917l-31 -155h-171l31 155h171zM708 917l-31 -155h-172l31 155h172zM363 700h180l141 -700h-196l-16 117h-253l-63 -117h-208zM417 487l-125 -230h161z" />
    <glyph glyph-name="Aring" unicode="&#xc5;" horiz-adv-x="737" 
d="M463 740q-54 0 -86.5 29.5t-32.5 78.5q0 66 48.5 112t118.5 46q54 0 86 -29.5t32 -77.5q0 -70 -47.5 -114.5t-118.5 -44.5zM498 926q-18 0 -33.5 -8.5t-24.5 -23.5t-9 -33q0 -19 12.5 -30.5t33.5 -11.5q27 0 46.5 19t19.5 46q0 12 -5.5 21.5t-16 15t-23.5 5.5zM488 0
l-16 117h-253l-63 -117h-208l415 700h180l141 -700h-196zM417 487l-125 -229h161z" />
    <glyph glyph-name="AE" unicode="&#xc6;" horiz-adv-x="946" 
d="M949 544l-250 1l-23 -119h223l-29 -149h-224l-25 -120h260l-31 -157h-434l23 116h-211l-88 -116h-211l544 700h508zM334 256h133l47 236z" />
    <glyph glyph-name="Ccedilla" unicode="&#xc7;" horiz-adv-x="781" 
d="M455 543q-59 0 -109.5 -33.5t-79.5 -88.5t-29 -116q0 -44 18 -77.5t51.5 -52t77.5 -18.5q62 0 112 35.5t75 95.5h189q-41 -133 -133.5 -210.5t-216.5 -91.5l-7 -16q34 -8 52 -28.5t18 -49.5q0 -53 -45.5 -89.5t-111.5 -36.5h-87l17 82h75q17 0 28.5 10.5t11.5 25.5
q0 11 -7.5 17t-20.5 6h-51l-5 8l31 71q-78 10 -138 52.5t-92.5 108t-32.5 144.5q0 119 58 217t157.5 153.5t219.5 55.5q131 0 219 -85.5t84 -209.5h-188q-6 37 -24.5 64t-48 42t-67.5 15z" />
    <glyph glyph-name="Egrave" unicode="&#xc8;" horiz-adv-x="563" 
d="M448 762h-132l-91 152h187zM567 546h-257l-24 -120h231l-29 -148h-232l-25 -122h267l-31 -156h-451l140 700h442z" />
    <glyph glyph-name="Eacute" unicode="&#xc9;" horiz-adv-x="563" 
d="M597 914l-152 -152h-132l96 152h188zM567 546h-257l-24 -120h231l-29 -148h-232l-25 -122h267l-31 -156h-451l140 700h442z" />
    <glyph glyph-name="Ecircumflex" unicode="&#xca;" horiz-adv-x="563" 
d="M401 831l-85 -69h-152l148 152h191l88 -152h-132zM567 546h-257l-24 -120h231l-29 -148h-232l-25 -123h267l-31 -155h-451l140 700h442z" />
    <glyph glyph-name="Edieresis" unicode="&#xcb;" horiz-adv-x="563" 
d="M382 917l-31 -155h-172l31 155h172zM462 917h172l-31 -155h-172zM16 0l140 700h442l-31 -154h-257l-24 -120h231l-29 -148h-232l-25 -122h267l-31 -156h-451z" />
    <glyph glyph-name="Igrave" unicode="&#xcc;" horiz-adv-x="327" 
d="M327 763h-135l-54 152h183zM16 0l140 700h187l-140 -700h-187z" />
    <glyph glyph-name="Iacute" unicode="&#xcd;" horiz-adv-x="327" 
d="M188 763l82 152h182l-134 -152h-130zM16 0l140 700h187l-140 -700h-187z" />
    <glyph glyph-name="Icircumflex" unicode="&#xce;" horiz-adv-x="327" 
d="M264 826l-68 -63h-147l134 153h178l74 -153h-129zM16 0l140 700h187l-140 -700h-187z" />
    <glyph glyph-name="Idieresis" unicode="&#xcf;" horiz-adv-x="327" 
d="M55 762l31 155h167l-31 -155h-167zM301 762l31 155h166l-31 -155h-166zM16 0l140 700h187l-140 -700h-187z" />
    <glyph glyph-name="Eth" unicode="&#xd0;" horiz-adv-x="767" 
d="M452 700q136 0 219 -81t83 -208q0 -114 -55.5 -208.5t-152.5 -148.5t-215 -54h-291l56 280h-77l29 144h76l56 276h272zM343 164q93 0 157.5 71t64.5 165q0 64 -39.5 100t-110.5 36h-83l-22 -112h127l-29 -144h-128l-23 -116h86z" />
    <glyph glyph-name="Ntilde" unicode="&#xd1;" horiz-adv-x="757" 
d="M405 807q-16 0 -26 -12t-12 -33h-101q13 78 54.5 117.5t103.5 39.5q45 0 84 -32q25 -20 44 -20q31 0 38 48h102q-13 -77 -55 -117t-102 -40q-43 0 -89 32q-25 17 -41 17zM591 700h183l-140 -700h-154l-203 395l-79 -395h-182l140 700h160l198 -387z" />
    <glyph glyph-name="Ograve" unicode="&#xd2;" horiz-adv-x="831" 
d="M444 762l-92 152h188l36 -152h-132zM374 -17q-147 0 -238 87.5t-91 223.5q0 121 59.5 218.5t161.5 151t225 53.5q146 0 236.5 -87.5t90.5 -222.5q0 -122 -59.5 -219.5t-160.5 -151t-224 -53.5zM399 156q97 0 161.5 70t64.5 164q0 46 -20 81t-56.5 54t-84.5 19
q-95 0 -160.5 -70t-65.5 -163q0 -70 44 -112.5t117 -42.5z" />
    <glyph glyph-name="Oacute" unicode="&#xd3;" horiz-adv-x="831" 
d="M441 762l95 152h188l-152 -152h-131zM374 -17q-147 0 -238 87.5t-91 223.5q0 121 59.5 218.5t161.5 151t225 53.5q146 0 236.5 -87.5t90.5 -222.5q0 -122 -59.5 -219.5t-160.5 -151t-224 -53.5zM399 156q97 0 161.5 70t64.5 164q0 46 -20 81t-56.5 54t-84.5 19
q-95 0 -160.5 -70t-65.5 -163q0 -70 44 -112.5t117 -42.5z" />
    <glyph glyph-name="Ocircumflex" unicode="&#xd4;" horiz-adv-x="831" 
d="M528 831l-84 -69h-152l147 152h192l88 -152h-133zM491 717q146 0 236.5 -87.5t90.5 -222.5q0 -122 -59.5 -219.5t-160.5 -151t-224 -53.5q-147 0 -238 87.5t-91 223.5q0 121 59.5 218.5t161.5 151t225 53.5zM399 156q97 0 161.5 70t64.5 163q0 47 -20 82t-56.5 54
t-84.5 19q-95 0 -160.5 -70t-65.5 -163q0 -70 44 -112.5t117 -42.5z" />
    <glyph glyph-name="Otilde" unicode="&#xd5;" horiz-adv-x="831" 
d="M574 758q-43 0 -88 32q-26 17 -41 17q-8 0 -14.5 -3t-11.5 -8.5t-8.5 -14t-3.5 -19.5h-102q14 78 55.5 117.5t102.5 39.5q46 0 85 -32q25 -20 43 -20q32 0 39 48h101q-13 -77 -54.5 -117t-102.5 -40zM374 -17q-147 0 -238 87.5t-91 223.5q0 121 59.5 218.5t161.5 151
t225 53.5q146 0 236.5 -87.5t90.5 -222.5q0 -122 -59.5 -219.5t-160.5 -151t-224 -53.5zM399 156q97 0 161.5 70t64.5 163q0 71 -44 113t-117 42q-95 0 -160.5 -70t-65.5 -163q0 -70 44 -112.5t117 -42.5z" />
    <glyph glyph-name="Odieresis" unicode="&#xd6;" horiz-adv-x="831" 
d="M306 762l31 155h172l-31 -155h-172zM559 762l31 155h171l-31 -155h-171zM374 -17q-147 0 -238 87.5t-91 223.5q0 121 59.5 218.5t161.5 151t225 53.5q146 0 236.5 -87.5t90.5 -222.5q0 -122 -59.5 -219.5t-160.5 -151t-224 -53.5zM399 156q97 0 161.5 70t64.5 164
q0 46 -20 81t-56.5 54t-84.5 19q-95 0 -160.5 -70t-65.5 -163q0 -70 44 -112.5t117 -42.5z" />
    <glyph glyph-name="multiply" unicode="&#xd7;" horiz-adv-x="560" 
d="M560 456l-158 -132l105 -133l-133 -109l-104 131l-157 -131l-91 110l158 134l-104 131l135 109l102 -129l156 131z" />
    <glyph glyph-name="Oslash" unicode="&#xd8;" horiz-adv-x="843" 
d="M741 624q91 -86 91 -218q0 -119 -61 -216.5t-164.5 -152t-226.5 -54.5q-68 0 -129 22l-51 -64h-186l116 139q-87 86 -87 215q0 118 61.5 215.5t165 152t226.5 54.5q64 0 123 -19l47 60h185zM466 550q-96 0 -165.5 -70.5t-69.5 -160.5q0 -52 26 -91l249 318q-20 4 -40 4z
M410 150q97 0 165.5 70.5t68.5 162.5q0 54 -28 93l-252 -321q22 -5 46 -5z" />
    <glyph glyph-name="Ugrave" unicode="&#xd9;" horiz-adv-x="728" 
d="M384 762l-92 152h188l35 -152h-131zM317 -17q-116 0 -188.5 66.5t-72.5 171.5q0 8 1 16.5t3 22t4 27.5t6.5 37.5t9 46.5t12 60t15 72.5t18.5 90t21 106.5h189q-19 -94 -45 -227q-31 -150 -37.5 -185t-6.5 -48q0 -40 25 -62t69 -22q52 0 89.5 33.5t47.5 87.5l85 423h189
l-91 -452q-26 -127 -117 -196t-226 -69z" />
    <glyph glyph-name="Uacute" unicode="&#xda;" horiz-adv-x="728" 
d="M380 762l96 152h188l-152 -152h-132zM317 -17q-116 0 -188.5 66.5t-72.5 171.5q0 8 1 16.5t3 22t4 27.5t6.5 37.5t9 46.5t12 60t15 72.5t18.5 90t21 106.5h189q-19 -94 -45 -227q-31 -150 -37.5 -185t-6.5 -48q0 -40 25 -62t69 -22q52 0 89.5 33.5t47.5 87.5l85 423h189
l-91 -452q-26 -127 -117 -196t-226 -69z" />
    <glyph glyph-name="Ucircumflex" unicode="&#xdb;" horiz-adv-x="728" 
d="M468 831l-84 -69h-152l147 152h191l89 -152h-133zM562 700h189l-91 -452q-17 -85 -64.5 -144.5t-118.5 -90t-160 -30.5q-116 0 -188.5 66.5t-72.5 171.5q0 8 1 16.5t3 22t4 27.5t6.5 37.5t9 46.5t12 60t15 72.5t18.5 90t21 106.5h189q-19 -94 -45 -227
q-31 -150 -37.5 -185t-6.5 -48q0 -40 25 -62t69 -22q52 0 89.5 33.5t47.5 87.5z" />
    <glyph glyph-name="Udieresis" unicode="&#xdc;" horiz-adv-x="728" 
d="M246 762l31 155h172l-31 -155h-172zM498 762l31 155h172l-31 -155h-172zM317 -17q-116 0 -188.5 66.5t-72.5 171.5q0 8 1 16.5t3 22t4 27.5t6.5 37.5t9 46.5t12 60t15 72.5t18.5 90t21 106.5h189q-19 -94 -45 -227q-31 -150 -37.5 -185t-6.5 -48q0 -40 25 -62t69 -22
q52 0 89.5 33.5t47.5 87.5l85 423h189l-91 -452q-26 -127 -117 -196t-226 -69z" />
    <glyph glyph-name="Yacute" unicode="&#xdd;" horiz-adv-x="693" 
d="M648 914l-151 -152h-132l96 152h187zM771 700l-329 -424l-55 -276h-189l55 277l-158 423h194l82 -258l186 258h214z" />
    <glyph glyph-name="Thorn" unicode="&#xde;" horiz-adv-x="647" 
d="M422 601q64 0 113 -28.5t75 -77.5t26 -109q0 -124 -87 -206t-217 -82h-111l-19 -98h-186l140 700h186l-20 -99h100zM337 256q48 0 78.5 33.5t30.5 80.5q0 34 -19 54t-54 20h-83l-37 -188h84z" />
    <glyph glyph-name="germandbls" unicode="&#xdf;" horiz-adv-x="637" 
d="M526 379q74 -47 74 -135q0 -75 -43 -131.5t-113 -84.5t-155 -28h-55l30 152h47q50 0 82 26.5t32 67.5q0 31 -21.5 47.5t-64.5 16.5h-37l28 141h28q46 0 77.5 27t31.5 67q0 14 -5 25t-14.5 19t-23 12t-29.5 4q-21 0 -39.5 -7.5t-32.5 -21.5t-24 -34t-14 -44l-99 -498h-179
l98 494q25 126 103.5 190.5t200.5 64.5q98 0 161 -51.5t63 -134.5q0 -112 -107 -184z" />
    <glyph glyph-name="agrave" unicode="&#xe0;" horiz-adv-x="692" 
d="M466 601h-132l-75 162h184zM549 540h137l-108 -540h-128l-9 41q-81 -58 -178 -58q-103 0 -170.5 66.5t-67.5 174.5q0 94 45 171t119.5 119.5t161.5 42.5q102 0 165 -69zM310 144q59 0 103.5 46t44.5 107q0 45 -29 72.5t-75 27.5q-60 0 -103.5 -45.5t-43.5 -107.5
q0 -22 7.5 -41t20.5 -31.5t32.5 -20t42.5 -7.5z" />
    <glyph glyph-name="aacute" unicode="&#xe1;" horiz-adv-x="692" 
d="M591 762l-140 -162h-131l87 162h184zM549 540h137l-108 -540h-128l-9 41q-81 -58 -178 -58q-103 0 -170.5 66.5t-67.5 174.5q0 94 45 171t119.5 119.5t161.5 42.5q102 0 165 -69zM310 144q59 0 103.5 46t44.5 107q0 29 -13 52t-37 35.5t-54 12.5q-60 0 -103.5 -45.5
t-43.5 -107.5q0 -22 7.5 -41t20.5 -31.5t32.5 -20t42.5 -7.5z" />
    <glyph glyph-name="acircumflex" unicode="&#xe2;" horiz-adv-x="692" 
d="M423 674l-85 -74h-154l150 162h191l87 -162h-132zM549 540h137l-108 -540h-128l-9 41q-81 -58 -178 -58q-103 0 -170.5 66.5t-67.5 174.5q0 94 45 171t119.5 119.5t161.5 42.5q102 0 165 -69zM310 144q59 0 103.5 46t44.5 107q0 29 -13 52t-37 35.5t-54 12.5
q-60 0 -103.5 -45.5t-43.5 -107.5q0 -22 7.5 -41t20.5 -31.5t32.5 -20t42.5 -7.5z" />
    <glyph glyph-name="atilde" unicode="&#xe3;" horiz-adv-x="692" 
d="M346 651q-29 0 -38 -45h-102q17 77 57 116t101 39q46 0 86 -31q24 -19 42 -19t26.5 12t12.5 35h101q-10 -51 -32 -86t-53 -52t-71 -17q-12 0 -23.5 2t-19 4.5t-18 7.5t-15 8l-13.5 9q-28 17 -41 17zM549 540h137l-108 -540h-128l-9 41q-81 -58 -178 -58
q-103 0 -170.5 66.5t-67.5 174.5q0 94 45 171t119.5 119.5t161.5 42.5q102 0 165 -69zM310 144q59 0 103.5 46t44.5 107q0 45 -29 72.5t-75 27.5q-60 0 -103.5 -45.5t-43.5 -107.5q0 -22 7.5 -41t20.5 -31.5t32.5 -20t42.5 -7.5z" />
    <glyph glyph-name="adieresis" unicode="&#xe4;" horiz-adv-x="692" 
d="M397 760l-30 -152h-168l30 152h168zM647 760l-31 -152h-168l30 152h169zM549 540h137l-108 -540h-128l-9 41q-81 -58 -178 -58q-103 0 -170.5 66.5t-67.5 174.5q0 94 45 171t119.5 119.5t161.5 42.5q102 0 165 -69zM310 144q59 0 103.5 46t44.5 107q0 45 -29 72.5
t-75 27.5q-60 0 -103.5 -45.5t-43.5 -107.5q0 -22 7.5 -41t20.5 -31.5t32.5 -20t42.5 -7.5z" />
    <glyph glyph-name="aring" unicode="&#xe5;" horiz-adv-x="692" 
d="M405 582q-51 0 -81.5 28t-30.5 73q0 42 21 76t57 53.5t79 19.5q51 0 81 -27.5t30 -72.5q0 -65 -44.5 -107.5t-111.5 -42.5zM438 757q-26 0 -45 -17.5t-19 -42.5q0 -12 5.5 -21t15.5 -14t23 -5q25 0 43.5 17.5t18.5 42.5q0 7 -2 13.5t-5.5 11t-8.5 8.5t-12 5.5t-14 1.5z
M549 540h137l-108 -540h-128l-9 41q-81 -58 -178 -58q-103 0 -170.5 66.5t-67.5 174.5q0 94 45 171t119.5 119.5t161.5 42.5q102 0 165 -69zM310 144q59 0 103.5 46t44.5 107q0 45 -29 72.5t-75 27.5q-60 0 -103.5 -45.5t-43.5 -107.5q0 -22 7.5 -41t20.5 -31.5t32.5 -20
t42.5 -7.5z" />
    <glyph glyph-name="ae" unicode="&#xe6;" horiz-adv-x="1053" 
d="M1031 318q1 -41 -14 -92h-406q1 -47 27 -71.5t74 -24.5q71 0 110 54h181q-42 -92 -124 -146.5t-177 -54.5q-96 0 -158 62l-14 -45h-98l-1 37q-78 -54 -174 -54q-102 0 -166.5 69t-64.5 172q0 90 42.5 167t115.5 121.5t158 44.5q103 0 166 -66l15 49h98l1 -38
q77 54 165 54q106 0 175 -67.5t69 -170.5zM763 414q-43 0 -76.5 -23t-52.5 -62h230q-6 42 -32 63.5t-69 21.5zM310 144q60 0 104.5 46t44.5 107q0 45 -29 72.5t-76 27.5q-60 0 -103.5 -45.5t-43.5 -108.5q0 -45 28 -72t75 -27z" />
    <glyph glyph-name="ccedilla" unicode="&#xe7;" horiz-adv-x="626" 
d="M343 395q-58 0 -98 -46.5t-39 -107.5q0 -44 25.5 -70t66.5 -26q38 0 70.5 21t51.5 60h176q-32 -105 -106 -167.5t-174 -73.5l-7 -13q36 -6 56 -26.5t20 -50.5q0 -36 -19.5 -65.5t-53 -45t-72.5 -15.5h-82l16 80h63q16 0 27.5 10t11.5 25q0 10 -7.5 16t-20.5 6h-46l-5 12
l33 68q-92 14 -148 81t-56 161q0 140 98.5 235t243.5 95q109 0 177 -68t67 -169h-176q-7 35 -31.5 54.5t-61.5 19.5z" />
    <glyph glyph-name="egrave" unicode="&#xe8;" horiz-adv-x="634" 
d="M444 601h-132l-76 162h184zM612 320q0 -42 -14 -94h-404q0 -24 6.5 -42t19.5 -30t31 -18t42 -6q70 0 109 53h181q-41 -94 -125 -147t-189 -53q-107 0 -175 70t-68 174q0 141 94.5 236t240.5 95q112 0 181.5 -68t69.5 -170zM344 415q-43 0 -75.5 -23.5t-51.5 -62.5h227
q-11 86 -100 86z" />
    <glyph glyph-name="eacute" unicode="&#xe9;" horiz-adv-x="634" 
d="M568 762l-139 -162h-132l87 162h184zM612 320q0 -42 -14 -94h-404q0 -24 6.5 -42t19.5 -30t31 -18t42 -6q70 0 109 53h181q-41 -94 -125 -147t-189 -53q-107 0 -175 70t-68 174q0 141 94.5 236t240.5 95q112 0 181.5 -68t69.5 -170zM344 415q-43 0 -75.5 -23.5
t-51.5 -62.5h227q-11 86 -100 86z" />
    <glyph glyph-name="ecircumflex" unicode="&#xea;" horiz-adv-x="634" 
d="M401 674l-86 -74h-153l149 162h192l87 -162h-132zM612 320q0 -42 -14 -94h-404q0 -24 6.5 -42t19.5 -30t31 -18t42 -6q70 0 109 53h181q-41 -94 -125 -147t-189 -53q-107 0 -175 70t-68 174q0 141 94.5 236t240.5 95q112 0 181.5 -68t69.5 -170zM344 415
q-43 0 -75.5 -23.5t-51.5 -62.5h227q-11 86 -100 86z" />
    <glyph glyph-name="edieresis" unicode="&#xeb;" horiz-adv-x="634" 
d="M375 760l-30 -152h-169l31 152h168zM624 760l-30 -152h-168l30 152h168zM361 558q112 0 181.5 -68t69.5 -171q0 -41 -14 -93h-404q0 -24 6.5 -42t19.5 -30t31 -18t42 -6q70 0 109 53h181q-41 -94 -125 -147t-189 -53q-107 0 -175 70t-68 174q0 141 94.5 236t240.5 95z
M344 415q-43 0 -75.5 -23.5t-51.5 -62.5h227q-11 86 -100 86z" />
    <glyph glyph-name="igrave" unicode="&#xec;" horiz-adv-x="299" 
d="M280 600h-135l-53 162h183zM7 0l108 540h179l-108 -540h-179z" />
    <glyph glyph-name="iacute" unicode="&#xed;" horiz-adv-x="299" 
d="M141 600l68 162h184l-117 -162h-135zM7 0l108 540h179l-108 -540h-179z" />
    <glyph glyph-name="icircumflex" unicode="&#xee;" horiz-adv-x="299" 
d="M416 600h-132l-55 68l-73 -68h-153l143 162h191zM7 0l108 540h179l-108 -540h-179z" />
    <glyph glyph-name="idieresis" unicode="&#xef;" horiz-adv-x="299" 
d="M16 607l31 155h165l-30 -155h-166zM257 607l30 155h166l-31 -155h-165zM7 0l108 540h179l-108 -540h-179z" />
    <glyph glyph-name="eth" unicode="&#xf0;" horiz-adv-x="651" 
d="M513 720q122 -91 122 -277q0 -90 -21 -166q-35 -136 -121 -215t-219 -79q-112 0 -181 64.5t-69 167.5q0 133 86 220.5t220 87.5q88 0 151 -61q1 9 1 16q0 94 -91 140l-103 -87l-50 57l68 57q-40 8 -86 8l29 141q112 0 194 -34l76 64l49 -57zM296 142q57 0 97 42.5
t40 99.5q0 43 -26.5 70t-70.5 27q-37 0 -68.5 -18.5t-50.5 -51t-19 -71.5q0 -43 27 -70.5t71 -27.5z" />
    <glyph glyph-name="ntilde" unicode="&#xf1;" horiz-adv-x="642" 
d="M346 651q-29 0 -38 -45h-102q16 77 56.5 116t101.5 39q46 0 85 -31q25 -19 43 -19t26.5 12t12.5 35h101q-16 -77 -56 -116t-100 -39q-19 0 -37.5 5.5t-27.5 10.5t-24 15q-28 17 -41 17zM438 557q78 0 122.5 -48t44.5 -129q0 -9 -0.5 -17t-1.5 -16.5t-4 -24.5t-5.5 -31
t-9 -46t-12 -60t-16.5 -81.5t-21 -103.5h-179l37 185q27 133 27 148q0 65 -59 65q-45 0 -75.5 -28.5t-42.5 -80.5l-57 -289h-179l108 540h125l14 -55q77 72 184 72z" />
    <glyph glyph-name="ograve" unicode="&#xf2;" horiz-adv-x="653" 
d="M452 601h-132l-76 162h184zM287 -17q-113 0 -187 69t-74 177q0 92 45.5 167.5t123.5 118.5t172 43q113 0 187 -69t74 -178q0 -92 -45.5 -167.5t-124 -118t-171.5 -42.5zM303 145q40 0 74 21.5t52.5 56.5t18.5 76q0 44 -26.5 70t-70.5 26q-62 0 -103.5 -45.5t-41.5 -107.5
q0 -29 11.5 -51t33.5 -34t52 -12z" />
    <glyph glyph-name="oacute" unicode="&#xf3;" horiz-adv-x="653" 
d="M305 600l88 162h183l-139 -162h-132zM287 -17q-113 0 -187 69t-74 177q0 92 45.5 167.5t123.5 118.5t172 43q113 0 187 -69t74 -178q0 -92 -45.5 -167.5t-124 -118t-171.5 -42.5zM303 145q61 0 103 45.5t42 108.5q0 44 -26.5 70t-70.5 26q-62 0 -103.5 -45.5
t-41.5 -108.5q0 -28 11.5 -50t33.5 -34t52 -12z" />
    <glyph glyph-name="ocircumflex" unicode="&#xf4;" horiz-adv-x="653" 
d="M598 600h-132l-57 74l-86 -74h-153l149 162h192zM287 -17q-113 0 -187 69t-74 177q0 92 45.5 167.5t123.5 118.5t172 43q113 0 187 -69t74 -178q0 -92 -45.5 -167.5t-124 -118t-171.5 -42.5zM303 145q40 0 74 21.5t52.5 56.5t18.5 76q0 44 -26.5 70t-70.5 26
q-62 0 -103.5 -45.5t-41.5 -107.5q0 -29 11.5 -51t33.5 -34t52 -12z" />
    <glyph glyph-name="otilde" unicode="&#xf5;" horiz-adv-x="653" 
d="M461 603q-18 0 -36.5 5.5t-27.5 10.5t-25 15q-28 17 -40 17q-29 0 -38 -45h-102q16 77 56.5 116t101.5 39q46 0 85 -31q25 -19 43 -19q17 0 25.5 12t12.5 35h102q-16 -77 -56 -116t-101 -39zM287 -17q-113 0 -187 69t-74 177q0 92 45.5 167.5t123.5 118.5t172 43
q113 0 187 -69t74 -178q0 -92 -45.5 -167.5t-124 -118t-171.5 -42.5zM303 145q40 0 74 21.5t52.5 56.5t18.5 76q0 44 -26.5 70t-70.5 26q-62 0 -103.5 -45.5t-41.5 -107.5q0 -29 11.5 -51t33.5 -34t52 -12z" />
    <glyph glyph-name="odieresis" unicode="&#xf6;" horiz-adv-x="653" 
d="M184 608l31 152h168l-30 -152h-169zM434 608l30 152h168l-30 -152h-168zM287 -17q-113 0 -187 69t-74 177q0 92 45.5 167.5t123.5 118.5t172 43q113 0 187 -69t74 -178q0 -92 -45.5 -167.5t-124 -118t-171.5 -42.5zM303 145q61 0 103 45.5t42 108.5q0 44 -26.5 70
t-70.5 26q-62 0 -103.5 -45.5t-41.5 -107.5q0 -29 11.5 -51t33.5 -34t52 -12z" />
    <glyph glyph-name="divide" unicode="&#xf7;" horiz-adv-x="541" 
d="M307 446q-31 0 -50.5 19.5t-19.5 48.5q0 41 31 71.5t72 30.5q32 0 51 -19t19 -49q0 -41 -31.5 -71.5t-71.5 -30.5zM29 254l29 145h477l-29 -145h-477zM225 36q-31 0 -50.5 19t-19.5 49q0 41 31 71t72 30q31 0 50.5 -19t19.5 -49q0 -27 -14.5 -50.5t-38.5 -37t-50 -13.5z
" />
    <glyph glyph-name="oslash" unicode="&#xf8;" horiz-adv-x="661" 
d="M564 489q72 -65 72 -177q0 -96 -46.5 -171.5t-126 -116.5t-176.5 -41q-50 0 -94 13l-44 -57h-141l87 114q-69 63 -69 175q0 143 100 236t250 93q48 0 89 -13l42 57h140zM351 400q-66 0 -110.5 -47t-44.5 -110q0 -29 12 -51l157 208h-14zM312 139q65 0 109.5 47t44.5 110
q0 29 -15 51l-157 -207q8 -1 18 -1z" />
    <glyph glyph-name="ugrave" unicode="&#xf9;" horiz-adv-x="634" 
d="M442 601h-132l-76 162h185zM268 -17q-68 0 -120 26t-79.5 72.5t-27.5 107.5q0 6 0.5 12l1 12t2 16t3 18.5l4.5 25.5t6 31.5t8.5 41.5t10.5 51.5t13.5 65t15.5 77.5h179q-14 -73 -34 -172q-29 -144 -29 -161q0 -62 69 -62q39 0 67.5 28.5t37.5 74.5l59 292h179l-64 -321
q-22 -112 -102.5 -174t-199.5 -62z" />
    <glyph glyph-name="uacute" unicode="&#xfa;" horiz-adv-x="634" 
d="M295 600l88 162h184l-140 -162h-132zM268 -17q-68 0 -120 26t-79.5 72.5t-27.5 107.5q0 6 0.5 12l1 12t2 16t3 18.5l4.5 25.5t6 31.5t8.5 41.5t10.5 51.5t13.5 65t15.5 77.5h179q-14 -73 -34 -172q-29 -144 -29 -161q0 -62 69 -62q39 0 67.5 28.5t37.5 74.5l59 292h179
l-64 -321q-22 -112 -102.5 -174t-199.5 -62z" />
    <glyph glyph-name="ucircumflex" unicode="&#xfb;" horiz-adv-x="634" 
d="M588 600h-132l-57 74l-86 -74h-153l150 162h191zM268 -17q-68 0 -120 26t-79.5 72.5t-27.5 107.5q0 6 0.5 12l1 12t2 16t3 18.5l4.5 25.5t6 31.5t8.5 41.5t10.5 51.5t13.5 65t15.5 77.5h179q-14 -73 -34 -172q-29 -144 -29 -161q0 -62 69 -62q39 0 67.5 28.5t37.5 74.5
l59 292h179l-64 -321q-22 -112 -102.5 -174t-199.5 -62z" />
    <glyph glyph-name="udieresis" unicode="&#xfc;" horiz-adv-x="634" 
d="M175 608l30 152h168l-30 -152h-168zM424 608l30 152h169l-31 -152h-168zM268 -17q-68 0 -120 26t-79.5 72.5t-27.5 107.5q0 6 0.5 12l1 12t2 16t3 18.5l4.5 25.5t6 31.5t8.5 41.5t10.5 51.5t13.5 65t15.5 77.5h179q-14 -73 -34 -172q-29 -144 -29 -161q0 -62 69 -62
q39 0 67.5 28.5t37.5 74.5l59 292h179l-64 -321q-22 -112 -102.5 -174t-199.5 -62z" />
    <glyph glyph-name="yacute" unicode="&#xfd;" horiz-adv-x="615" 
d="M559 762l-139 -162h-132l88 162h183zM474 540h196l-336 -538q-74 -117 -136.5 -159t-163.5 -42h-74l31 155h46q53 0 81.5 18t59.5 71l-125 495h186l62 -308z" />
    <glyph glyph-name="thorn" unicode="&#xfe;" horiz-adv-x="683" 
d="M423 557q103 0 169 -68.5t66 -172.5q0 -92 -44 -169t-118 -120.5t-160 -43.5t-146 47l-45 -225h-177l185 927h177l-41 -209q64 34 134 34zM331 143q59 0 102 45.5t43 107.5q0 46 -28.5 73.5t-76.5 27.5q-58 0 -101.5 -46t-43.5 -108q0 -45 28.5 -72.5t76.5 -27.5z" />
    <glyph glyph-name="ydieresis" unicode="&#xff;" horiz-adv-x="615" 
d="M366 760l-30 -152h-169l31 152h168zM615 760l-30 -152h-168l30 152h168zM474 540h196l-336 -538q-74 -117 -136.5 -159t-163.5 -42h-74l31 155h46q53 0 81.5 18t59.5 71l-125 495h186l62 -308z" />
    <glyph glyph-name="Amacron" unicode="&#x100;" horiz-adv-x="737" 
d="M655 906l-26 -134h-330l27 134h329zM488 0l-16 117h-253l-63 -117h-208l414 700h181l141 -700h-196zM417 487l-125 -229h161z" />
    <glyph glyph-name="amacron" unicode="&#x101;" horiz-adv-x="692" 
d="M595 742l-25 -124h-323l25 124h323zM549 540h137l-108 -540h-128l-9 41q-81 -58 -178 -58q-103 0 -170.5 66.5t-67.5 174.5q0 94 45 171t119.5 119.5t161.5 42.5q102 0 165 -69zM310 144q59 0 103.5 46t44.5 107q0 45 -29 72.5t-75 27.5q-60 0 -103.5 -45.5t-43.5 -107.5
q0 -22 7.5 -41t20.5 -31.5t32.5 -20t42.5 -7.5z" />
    <glyph glyph-name="Abreve" unicode="&#x102;" horiz-adv-x="737" 
d="M449 754q-36 0 -65 9t-49.5 25.5t-31.5 40t-11 52.5q0 17 3 34h128q-2 -9 -2 -15q0 -38 44 -38q17 0 30 6t22 18t12 29h129q-15 -73 -71.5 -117t-137.5 -44zM488 0l-16 117h-253l-63 -117h-208l415 700h180l141 -700h-196zM417 487l-125 -229h161z" />
    <glyph glyph-name="abreve" unicode="&#x103;" horiz-adv-x="692" 
d="M409 591q-75 0 -120 39t-45 100q0 14 4 32h129q-3 -11 -3 -17q0 -44 51 -44q29 0 47.5 16t23.5 45h131q-15 -81 -73.5 -126t-144.5 -45zM549 540h137l-108 -540h-128l-9 41q-81 -58 -178 -58q-103 0 -170.5 66.5t-67.5 174.5q0 94 45 171t119.5 119.5t161.5 42.5
q102 0 165 -69zM310 144q59 0 103.5 46t44.5 107q0 45 -29 72.5t-75 27.5q-60 0 -103.5 -45.5t-43.5 -107.5q0 -22 7.5 -41t20.5 -31.5t32.5 -20t42.5 -7.5z" />
    <glyph glyph-name="Aogonek" unicode="&#x104;" horiz-adv-x="737" 
d="M515 -109q0 -14 10.5 -22.5t28.5 -8.5q27 0 57 10l-18 -93q-54 -22 -105 -22q-49 0 -79.5 22.5t-30.5 62.5q0 42 29 84.5t82 76.5l-16 116h-254l-63 -117h-208l414 700h181l141 -700q-36 -4 -65.5 -13.5t-48.5 -21t-31.5 -25t-18 -26t-5.5 -23.5zM419 486l-122 -221h155z
" />
    <glyph glyph-name="aogonek" unicode="&#x105;" horiz-adv-x="692" 
d="M578 0q-49 -21 -79.5 -51.5t-30.5 -56.5q0 -15 10.5 -23.5t28.5 -8.5q25 0 55 10l-18 -93q-56 -22 -104 -22q-24 0 -44 6t-34.5 16.5t-23 26.5t-8.5 36q0 48 31.5 92.5t86.5 76.5l-7 32q-81 -58 -178 -58q-103 0 -170.5 66.5t-67.5 174.5q0 94 45 171t119.5 119.5
t161.5 42.5q102 0 165 -69l33 52h137zM310 144q59 0 103.5 46t44.5 107q0 45 -29 72.5t-75 27.5q-60 0 -103.5 -45.5t-43.5 -107.5q0 -22 7.5 -41t20.5 -31.5t32.5 -20t42.5 -7.5z" />
    <glyph glyph-name="Cacute" unicode="&#x106;" horiz-adv-x="781" 
d="M421 762l95 152h188l-152 -152h-131zM357 -17q-138 0 -225 87.5t-87 220.5q0 119 58 217t157.5 153.5t219.5 55.5q131 0 219 -85.5t84 -209.5h-188q-6 37 -24.5 64t-48 42t-67.5 15q-90 0 -154 -72t-64 -166q0 -44 18 -77.5t51.5 -52t77.5 -18.5q62 0 112 35.5t75 95.5
h189q-45 -147 -152.5 -226t-250.5 -79z" />
    <glyph glyph-name="cacute" unicode="&#x107;" horiz-adv-x="626" 
d="M293 600l87 162h184l-139 -162h-132zM275 -17q-110 0 -179.5 69.5t-69.5 175.5q0 140 98.5 235t243.5 95q109 0 177 -68t67 -169h-176q-7 35 -31.5 54.5t-61.5 19.5q-58 0 -98 -46.5t-39 -107.5q0 -44 25.5 -70t66.5 -26q25 0 48 9.5t42 27.5t32 44h176
q-35 -115 -121 -179t-200 -64z" />
    <glyph glyph-name="Ccircumflex" unicode="&#x108;" horiz-adv-x="781" 
d="M508 831l-84 -69h-152l147 152h192l88 -152h-133zM455 543q-90 0 -154 -72t-64 -166q0 -44 18 -77.5t51.5 -52t77.5 -18.5q62 0 112 35.5t75 95.5h189q-45 -147 -152.5 -226t-250.5 -79q-138 0 -225 87.5t-87 220.5q0 119 58 217t157.5 153.5t219.5 55.5q131 0 219 -85.5
t84 -209.5h-188q-6 37 -24.5 64t-48 42t-67.5 15z" />
    <glyph glyph-name="ccircumflex" unicode="&#x109;" horiz-adv-x="626" 
d="M396 674l-85 -74h-153l149 162h192l86 -162h-132zM343 395q-58 0 -98 -46.5t-39 -107.5q0 -44 25.5 -70t66.5 -26q25 0 48 9.5t42 27.5t32 44h176q-35 -115 -121 -179t-200 -64q-110 0 -179.5 69.5t-69.5 175.5q0 140 98.5 235t243.5 95q109 0 177 -68t67 -169h-176
q-7 35 -31.5 54.5t-61.5 19.5z" />
    <glyph glyph-name="Cdotaccent" unicode="&#x10a;" horiz-adv-x="781" 
d="M406 763l31 154h183l-31 -154h-183zM357 -17q-138 0 -225 87.5t-87 220.5q0 119 58 217t157.5 153.5t219.5 55.5q131 0 219 -85.5t84 -209.5h-188q-6 37 -24.5 64t-48 42t-67.5 15q-90 0 -154 -72t-64 -166q0 -44 18 -77.5t51.5 -52t77.5 -18.5q62 0 112 35.5t75 95.5
h189q-45 -147 -152.5 -226t-250.5 -79z" />
    <glyph glyph-name="cdotaccent" unicode="&#x10b;" horiz-adv-x="626" 
d="M290 607l31 155h180l-31 -155h-180zM275 -17q-110 0 -179.5 69.5t-69.5 175.5q0 140 98.5 235t243.5 95q109 0 177 -68t67 -169h-176q-7 35 -31.5 54.5t-61.5 19.5q-58 0 -98 -46.5t-39 -107.5q0 -44 25.5 -70t66.5 -26q38 0 70.5 21t51.5 60h176q-35 -115 -121 -179
t-200 -64z" />
    <glyph glyph-name="Ccaron" unicode="&#x10c;" horiz-adv-x="781" 
d="M584 762h-192l-87 152h140l57 -69l85 69h145zM455 543q-90 0 -154 -72t-64 -166q0 -44 18 -77.5t51.5 -52t77.5 -18.5q62 0 112 35.5t75 95.5h189q-45 -147 -152.5 -226t-250.5 -79q-138 0 -225 87.5t-87 220.5q0 119 58 217t157.5 153.5t219.5 55.5q131 0 219 -85.5
t84 -209.5h-188q-6 37 -24.5 64t-48 42t-67.5 15z" />
    <glyph glyph-name="ccaron" unicode="&#x10d;" horiz-adv-x="626" 
d="M474 600h-192l-85 162h143l56 -73l86 73h143zM368 558q109 0 177 -68t67 -169h-176q-7 35 -31.5 54.5t-61.5 19.5q-58 0 -98 -46.5t-39 -107.5q0 -44 25.5 -70t66.5 -26q25 0 48 9.5t42 27.5t32 44h176q-35 -115 -121 -179t-200 -64q-110 0 -179.5 69.5t-69.5 175.5
q0 140 98.5 235t243.5 95z" />
    <glyph glyph-name="Dcaron" unicode="&#x10e;" horiz-adv-x="743" 
d="M477 762h-191l-88 152h140l57 -69l85 69h145zM428 700q136 0 219 -81t83 -208q0 -114 -55.5 -208.5t-152.5 -148.5t-215 -54h-291l140 700h272zM319 164q93 0 157.5 71t64.5 165q0 64 -39.5 100t-110.5 36h-83l-75 -372h86z" />
    <glyph glyph-name="dcaron" unicode="&#x10f;" horiz-adv-x="776" 
d="M539 735h177l-147 -735h-128l-13 46q-83 -63 -177 -63q-100 0 -163.5 64.5t-63.5 165.5q0 93 45 172.5t123 125.5t171 46q77 0 132 -43zM756 735h151l-25 -121q-12 -62 -58.5 -100.5t-114.5 -43.5l15 72q30 2 50 17.5t25 42.5h-70zM208 246q0 -46 28.5 -74.5t76.5 -28.5
q58 0 101.5 45t43.5 106q0 46 -29 74.5t-77 28.5q-57 0 -100.5 -45t-43.5 -106z" />
    <glyph glyph-name="Dcroat" unicode="&#x110;" horiz-adv-x="767" 
d="M452 700q136 0 219 -81t83 -208q0 -114 -55.5 -208.5t-152.5 -148.5t-215 -54h-291l56 280h-77l29 144h76l56 276h272zM343 164q93 0 157.5 71t64.5 165q0 64 -39.5 100t-110.5 36h-83l-22 -112h127l-29 -144h-128l-23 -116h86z" />
    <glyph glyph-name="dcroat" unicode="&#x111;" horiz-adv-x="682" 
d="M778 692l-20 -99h-71l-118 -593h-123l-13 46q-83 -63 -179 -63q-101 0 -165 68t-64 172q0 91 43.5 168t120 121.5t167.5 44.5q80 0 137 -48l17 84h-160l20 99h160l8 43h178l-9 -43h71zM208 247q0 -46 28.5 -74.5t76.5 -28.5q59 0 101.5 43.5t42.5 105.5q0 30 -13 54
t-37 37t-56 13q-38 0 -71 -20t-52.5 -55t-19.5 -75z" />
    <glyph glyph-name="Emacron" unicode="&#x112;" horiz-adv-x="563" 
d="M581 906l-26 -134h-329l26 134h329zM567 546h-257l-24 -120h231l-29 -148h-232l-25 -122h267l-31 -156h-451l140 700h442z" />
    <glyph glyph-name="emacron" unicode="&#x113;" horiz-adv-x="634" 
d="M572 742l-25 -124h-323l26 124h322zM612 320q0 -42 -14 -94h-404q0 -24 6.5 -42t19.5 -30t31 -18t42 -6q70 0 109 53h181q-41 -94 -125 -147t-189 -53q-107 0 -175 70t-68 174q0 141 94.5 236t240.5 95q112 0 181.5 -68t69.5 -170zM344 415q-43 0 -75.5 -23.5
t-51.5 -62.5h227q-11 86 -100 86z" />
    <glyph glyph-name="Ebreve" unicode="&#x114;" horiz-adv-x="563" 
d="M375 754q-72 0 -114.5 34.5t-42.5 92.5q0 17 4 34h127q-2 -9 -2 -15q0 -38 44 -38q26 0 42.5 13.5t21.5 39.5h129q-14 -73 -71 -117t-138 -44zM567 546h-257l-24 -120h231l-29 -147h-232l-25 -123h267l-31 -156h-451l140 700h442z" />
    <glyph glyph-name="ebreve" unicode="&#x115;" horiz-adv-x="634" 
d="M386 591q-74 0 -119 39t-45 100q0 14 3 32h129q-2 -11 -2 -17q0 -44 51 -44q29 0 47 16t24 45h131q-16 -81 -74 -126t-145 -45zM612 319q0 -41 -14 -93h-404q0 -24 6.5 -42t19.5 -30t31 -18t42 -6q70 0 109 53h181q-41 -94 -125 -147t-189 -53q-107 0 -175 70t-68 174
q0 141 94.5 236t240.5 95q112 0 181.5 -68t69.5 -171zM344 415q-43 0 -75.5 -23.5t-51.5 -62.5h227q-11 86 -100 86z" />
    <glyph glyph-name="Edotaccent" unicode="&#x116;" horiz-adv-x="563" 
d="M512 917l-30 -154h-184l31 154h183zM567 546h-257l-24 -120h231l-29 -148h-232l-25 -122h267l-31 -156h-451l140 700h442z" />
    <glyph glyph-name="edotaccent" unicode="&#x117;" horiz-adv-x="634" 
d="M505 762l-31 -155h-180l31 155h180zM612 320q0 -42 -14 -94h-404q0 -24 6.5 -42t19.5 -30t31 -18t42 -6q70 0 109 53h181q-41 -94 -125 -147t-189 -53q-107 0 -175 70t-68 174q0 141 94.5 236t240.5 95q112 0 181.5 -68t69.5 -170zM344 415q-43 0 -75.5 -23.5
t-51.5 -62.5h227q-11 86 -100 86z" />
    <glyph glyph-name="Eogonek" unicode="&#x118;" horiz-adv-x="563" 
d="M567 546h-257l-24 -120h231l-29 -148h-232l-25 -122h267l-31 -156q-47 -21 -77 -51.5t-30 -56.5q0 -15 10.5 -23.5t28.5 -8.5q25 0 55 10l-18 -93q-55 -22 -104 -22q-24 0 -44 6t-34.5 16.5t-22.5 26.5t-8 36q0 28 12.5 56.5t37 55t58.5 48.5h-315l140 700h442z" />
    <glyph glyph-name="eogonek" unicode="&#x119;" horiz-adv-x="635" 
d="M599 226h-403v-4q0 -92 96 -92q71 0 111 53h179q-14 -32 -33.5 -58.5t-46 -50t-41.5 -34.5t-46 -32q-108 -66 -108 -117q0 -7 2.5 -12.5t7.5 -10t12.5 -6.5t16.5 -2q27 0 60 12l-19 -93q-50 -24 -106 -24q-49 0 -79.5 26t-30.5 67q0 34 22 70t62 66q-103 7 -165.5 76.5
t-62.5 170.5q0 138 97 232t239 94q115 0 182 -68.5t67 -173.5q0 -38 -13 -89zM349 415q-43 0 -75.5 -23.5t-52.5 -62.5h225q-4 42 -29 64t-68 22z" />
    <glyph glyph-name="Ecaron" unicode="&#x11a;" horiz-adv-x="563" 
d="M476 762h-191l-88 152h140l57 -69l85 69h145zM16 0l140 700h442l-31 -154h-257l-24 -120h231l-29 -148h-232l-25 -122h267l-31 -156h-451z" />
    <glyph glyph-name="ecaron" unicode="&#x11b;" horiz-adv-x="634" 
d="M478 600h-191l-86 162h143l56 -73l86 73h143zM361 558q112 0 181.5 -68t69.5 -171q0 -41 -14 -93h-404q0 -24 6.5 -42t19.5 -30t31 -18t42 -6q70 0 109 53h181q-41 -94 -125 -147t-189 -53q-107 0 -175 70t-68 174q0 141 94.5 236t240.5 95zM344 415q-43 0 -75.5 -23.5
t-51.5 -62.5h227q-11 86 -100 86z" />
    <glyph glyph-name="Gcircumflex" unicode="&#x11c;" horiz-adv-x="804" 
d="M514 831l-84 -69h-152l147 152h191l89 -152h-133zM455 543q-64 0 -115 -33.5t-78.5 -87.5t-27.5 -118q0 -67 40 -107t110 -40q132 0 182 97h-181l25 118h381q-27 -186 -139 -287.5t-289 -101.5q-140 0 -229 87t-89 220q0 118 56.5 215.5t156 154.5t220.5 57
q134 0 226.5 -81.5t91.5 -193.5h-194q-7 30 -27.5 53t-51 35.5t-68.5 12.5z" />
    <glyph glyph-name="gcircumflex" unicode="&#x11d;" horiz-adv-x="671" 
d="M397 674l-85 -74h-154l150 162h191l87 -162h-132zM548 540h118l-98 -488q-17 -85 -62.5 -145t-114.5 -90.5t-157 -30.5q-113 0 -179 57.5t-69 152.5h174q3 -30 30.5 -47t64.5 -17q49 0 88 30.5t50 81.5l2 7q-68 -37 -142 -37q-98 0 -161.5 63t-63.5 164q0 85 43 158
t114.5 115.5t152.5 42.5q107 0 172 -75zM209 259q0 -43 25.5 -68t70.5 -25q27 0 52.5 11.5t44.5 31t30.5 46.5t11.5 57q0 43 -25.5 68t-70.5 25q-57 0 -98 -43t-41 -103z" />
    <glyph glyph-name="Gbreve" unicode="&#x11e;" horiz-adv-x="804" 
d="M488 754q-47 0 -82.5 15.5t-55 44.5t-19.5 67q0 17 4 34h127q-2 -9 -2 -15q0 -38 45 -38q25 0 41.5 13.5t21.5 39.5h129q-14 -73 -70.5 -117t-138.5 -44zM455 543q-96 0 -158.5 -70.5t-62.5 -168.5q0 -67 40 -107t110 -40q132 0 182 98h-181l25 118h381
q-27 -187 -139 -288.5t-289 -101.5q-140 0 -229 87t-89 220q0 118 56.5 215.5t156 154.5t220.5 57q134 0 226.5 -81.5t91.5 -193.5h-194q-11 46 -50.5 73.5t-96.5 27.5z" />
    <glyph glyph-name="gbreve" unicode="&#x11f;" horiz-adv-x="671" 
d="M383 591q-75 0 -120 39t-45 100q0 14 4 32h129q-3 -11 -3 -17q0 -44 51 -44q29 0 47.5 16t23.5 45h131q-16 -81 -74 -126t-144 -45zM548 540h118l-98 -488q-17 -85 -62.5 -145t-114.5 -90.5t-157 -30.5q-113 0 -179 57.5t-69 152.5h174q3 -30 30.5 -47t64.5 -17
q49 0 88 30.5t50 81.5l2 7q-68 -37 -142 -37q-98 0 -161.5 63t-63.5 164q0 85 43 158t114.5 115.5t152.5 42.5q107 0 172 -75zM209 259q0 -43 25.5 -68t70.5 -25q27 0 52.5 11.5t44.5 31t30.5 46.5t11.5 57q0 43 -25.5 68t-70.5 25q-57 0 -98 -43t-41 -103z" />
    <glyph glyph-name="Gdotaccent" unicode="&#x120;" horiz-adv-x="804" 
d="M625 917l-30 -154h-184l31 154h183zM455 543q-64 0 -115 -33.5t-78.5 -87.5t-27.5 -118q0 -67 40 -107t110 -40q132 0 182 97h-181l25 118h381q-27 -186 -139 -287.5t-289 -101.5q-140 0 -229 87t-89 220q0 118 56.5 215.5t156 154.5t220.5 57q134 0 226.5 -81.5
t91.5 -193.5h-194q-11 46 -50.5 73.5t-96.5 27.5z" />
    <glyph glyph-name="gdotaccent" unicode="&#x121;" horiz-adv-x="671" 
d="M502 762l-32 -155h-180l32 155h180zM548 540h118l-98 -488q-17 -85 -62.5 -145t-114.5 -90.5t-157 -30.5q-113 0 -179 57.5t-69 152.5h174q3 -30 30.5 -47t64.5 -17q49 0 88 30.5t50 81.5l2 7q-68 -37 -142 -37q-98 0 -161.5 63t-63.5 164q0 85 43 158t114.5 115.5
t152.5 42.5q107 0 172 -75zM209 259q0 -43 25.5 -68t70.5 -25q27 0 52.5 11.5t44.5 31t30.5 46.5t11.5 57q0 43 -25.5 68t-70.5 25q-57 0 -98 -43t-41 -103z" />
    <glyph glyph-name="uni0122" unicode="&#x122;" horiz-adv-x="804" 
d="M455 543q-64 0 -115 -33.5t-78.5 -87.5t-27.5 -118q0 -67 40 -107t110 -40q132 0 182 97h-181l25 118h381q-27 -186 -139 -287.5t-289 -101.5q-140 0 -229 87t-89 220q0 118 56.5 215.5t156 154.5t220.5 57q134 0 226.5 -81.5t91.5 -193.5h-194q-11 46 -50.5 73.5
t-96.5 27.5zM252 -181l27 133h151l-25 -121q-12 -62 -58.5 -100.5t-114.5 -43.5l14 73q31 1 51 17t25 42h-70z" />
    <glyph glyph-name="uni0123" unicode="&#x123;" horiz-adv-x="671" 
d="M476 733l-27 -133h-151l25 121q12 62 58.5 100.5t114.5 43.5l-14 -73q-30 -1 -50 -17t-26 -42h70zM548 540h118l-98 -488q-17 -85 -62.5 -145t-114.5 -90.5t-157 -30.5q-113 0 -179 57.5t-69 152.5h174q3 -30 30.5 -47t64.5 -17q49 0 88 30.5t50 81.5l2 7
q-68 -37 -142 -37q-98 0 -161.5 63t-63.5 164q0 85 43 158t114.5 115.5t152.5 42.5q107 0 172 -75zM209 259q0 -43 25.5 -68t70.5 -25q27 0 52.5 11.5t44.5 31t30.5 46.5t11.5 57q0 43 -25.5 68t-70.5 25q-57 0 -98 -43t-41 -103z" />
    <glyph glyph-name="Hcircumflex" unicode="&#x124;" horiz-adv-x="732" 
d="M474 831l-84 -69h-152l147 152h192l88 -152h-133zM561 700h187l-140 -700h-187l56 280h-218l-56 -280h-187l140 700h187l-53 -262h219z" />
    <glyph glyph-name="hcircumflex" unicode="&#x125;" horiz-adv-x="642" 
d="M265 865l-84 -69h-152l147 152h191l89 -152h-133zM436 557q79 0 124.5 -47.5t45.5 -125.5q0 -8 -0.5 -15.5t-1.5 -16.5t-4 -24.5t-6 -31.5t-9 -46.5l-12 -61t-16.5 -83t-21.5 -105.5h-179q16 77 36 180q29 141 29 156q0 62 -60 62q-23 0 -42.5 -8t-34.5 -23t-26 -36.5
t-16 -49.5l-56 -281h-179l147 735h179l-45 -223q67 45 148 45z" />
    <glyph glyph-name="Hbar" unicode="&#x126;" horiz-adv-x="755" 
d="M807 642l-24 -124h-60l-104 -518h-187l55 274h-219l-54 -274h-187l103 518h-60l25 124h60l12 58h187l-12 -58h219l11 58h187l-12 -58h60zM520 439l16 79h-219l-16 -79h219z" />
    <glyph glyph-name="hbar" unicode="&#x127;" horiz-adv-x="642" 
d="M436 557q52 0 91 -21.5t59 -60.5t20 -91q0 -8 -0.5 -15.5t-1.5 -16.5t-4 -24.5t-6 -31.5t-9 -46.5l-12 -61t-16.5 -83t-21.5 -105.5h-179q16 77 36 180q29 141 29 155q0 63 -60 63q-31 0 -55 -14t-40.5 -40t-23.5 -63l-56 -281h-179l118 593h-84l19 99h85l9 43h179
l-9 -43h144l-19 -99h-145l-16 -81q67 45 148 45z" />
    <glyph glyph-name="Itilde" unicode="&#x128;" horiz-adv-x="327" 
d="M328 760q-38 0 -82 31q-23 17 -34 17q-31 0 -35 -44h-99q14 75 52 113.5t96 38.5q36 0 76 -31q24 -19 40 -19q27 0 34 46h99q-12 -75 -51 -113.5t-96 -38.5zM16 0l140 700h187l-140 -700h-187z" />
    <glyph glyph-name="itilde" unicode="&#x129;" horiz-adv-x="299" 
d="M283 601q-36 0 -84 32q-24 17 -35 17q-28 0 -35 -45h-102q11 52 32 86.5t51 51.5t68 17q18 0 34 -5.5t23 -10t22 -15.5q24 -19 39 -19q17 0 24.5 11.5t10.5 35.5h102q-16 -77 -54.5 -116.5t-95.5 -39.5zM7 0l108 540h179l-108 -540h-179z" />
    <glyph glyph-name="Imacron" unicode="&#x12a;" horiz-adv-x="327" 
d="M106 765l27 133h306l-27 -133h-306zM16 0l140 700h187l-140 -700h-187z" />
    <glyph glyph-name="imacron" unicode="&#x12b;" horiz-adv-x="299" 
d="M77 614l26 128h283l-25 -128h-284zM7 0l108 540h179l-108 -540h-179z" />
    <glyph glyph-name="Ibreve" unicode="&#x12c;" horiz-adv-x="327" 
d="M265 754q-77 0 -117 44.5t-27 116.5h128q-5 -25 4 -39t28 -14q22 0 36 13.5t18 39.5h129q-14 -73 -68 -117t-131 -44zM16 0l140 700h187l-140 -700h-187z" />
    <glyph glyph-name="ibreve" unicode="&#x12d;" horiz-adv-x="299" 
d="M219 591q-80 0 -124.5 48.5t-30.5 122.5h129q-11 -61 43 -61q53 0 65 61h131q-11 -54 -40 -92.5t-73 -58.5t-100 -20zM7 0l108 540h179l-108 -540h-179z" />
    <glyph glyph-name="Iogonek" unicode="&#x12e;" horiz-adv-x="327" 
d="M203 0q-31 -14 -55.5 -33t-38 -38.5t-13.5 -36.5q0 -15 10.5 -23.5t28.5 -8.5q26 0 56 10l-19 -93q-55 -22 -103 -22q-50 0 -80 22.5t-30 62.5q0 42 28.5 84t79.5 76h-51l140 700h187z" />
    <glyph glyph-name="iogonek" unicode="&#x12f;" horiz-adv-x="299" 
d="M157 762h180l-31 -155h-180zM7 0l108 540h179l-108 -540q-48 -21 -78 -51.5t-30 -56.5q0 -15 11 -23.5t29 -8.5q25 0 55 10l-19 -93q-55 -22 -103 -22q-24 0 -44 6t-35 16.5t-23 26.5t-8 36q0 42 28.5 84t80.5 76h-43z" />
    <glyph glyph-name="Idotaccent" unicode="&#x130;" horiz-adv-x="327" 
d="M169 763l32 154h183l-31 -154h-184zM16 0l140 700h187l-140 -700h-187z" />
    <glyph glyph-name="dotlessi" unicode="&#x131;" horiz-adv-x="299" 
d="M7 0l108 540h179l-108 -540h-179z" />
    <glyph glyph-name="IJ" unicode="&#x132;" horiz-adv-x="923" 
d="M16 0l140 700h187l-140 -700h-187zM549 -17q-108 0 -172.5 57.5t-65.5 154.5q0 37 7 70h188q-5 -23 -5 -40q0 -69 68 -69q36 0 63.5 25.5t36.5 68.5l90 450h186l-96 -477q-22 -113 -101 -176.5t-199 -63.5z" />
    <glyph glyph-name="ij" unicode="&#x133;" horiz-adv-x="637" 
d="M126 607l31 155h180l-31 -155h-180zM461 607l31 155h180l-31 -155h-180zM7 0l108 540h179l-108 -540h-179zM188 -203l32 159h47q69 0 83 72l102 512h179l-108 -543q-40 -200 -253 -200h-82z" />
    <glyph glyph-name="Jcircumflex" unicode="&#x134;" horiz-adv-x="617" 
d="M556 826l-67 -63h-148l134 153h179l74 -153h-129zM363 250l90 450h186l-96 -477q-22 -113 -100.5 -176.5t-198.5 -63.5q-109 0 -173.5 57.5t-65.5 154.5q0 36 7 70h188q-5 -23 -5 -40q0 -69 68 -69q37 0 64 25.5t36 68.5z" />
    <glyph glyph-name="jcircumflex" unicode="&#x135;" horiz-adv-x="311" 
d="M431 600h-132l-55 68l-73 -68h-153l142 162h192zM-144 -201l32 159h50q35 0 57.5 18.5t29.5 53.5l102 510h179l-107 -535q-14 -66 -47 -112t-84.5 -70t-117.5 -24h-94z" />
    <glyph glyph-name="uni0136" unicode="&#x136;" horiz-adv-x="670" 
d="M749 700l-296 -342l178 -358h-207l-157 328l-66 -328h-185l140 700h185l-57 -288l241 288h224zM193 -181l27 133h151l-25 -121q-12 -62 -58.5 -100.5t-114.5 -43.5l14 73q31 1 51 17t25 42h-70z" />
    <glyph glyph-name="uni0137" unicode="&#x137;" horiz-adv-x="581" 
d="M629 540l-225 -264l135 -276h-191l-114 242l-48 -242h-179l147 735h179l-79 -393l162 198h213zM144 -178l27 133h151l-25 -121q-12 -62 -58.5 -100.5t-114.5 -43.5l15 72q30 2 50 17.5t25 42.5h-70z" />
    <glyph glyph-name="kgreenlandic" unicode="&#x138;" horiz-adv-x="581" 
d="M629 540l-225 -263l135 -277h-191l-114 242l-48 -242h-179l108 540h179l-40 -198l162 198h213z" />
    <glyph glyph-name="Lacute" unicode="&#x139;" horiz-adv-x="523" 
d="M477 914l-152 -152h-131l95 152h188zM235 161h253l-33 -161h-439l140 700h187z" />
    <glyph glyph-name="lacute" unicode="&#x13a;" horiz-adv-x="299" 
d="M180 797l95 152h188l-152 -152h-131zM7 0l147 735h179l-147 -735h-179z" />
    <glyph glyph-name="uni013B" unicode="&#x13b;" horiz-adv-x="523" 
d="M235 161h253l-33 -161h-439l140 700h187zM135 -181l27 133h151l-25 -121q-12 -62 -58.5 -100.5t-114.5 -43.5l14 73q31 1 51 17t25 42h-70z" />
    <glyph glyph-name="uni013C" unicode="&#x13c;" horiz-adv-x="299" 
d="M7 0l147 735h179l-147 -735h-179zM-35 -310l14 72q30 2 50 17.5t25 42.5h-69l27 133h150l-24 -121q-13 -62 -59 -100.5t-114 -43.5z" />
    <glyph glyph-name="Lcaron" unicode="&#x13d;" horiz-adv-x="537" 
d="M433 735h151l-25 -121q-12 -62 -58.5 -100.5t-114.5 -43.5l15 72q30 2 50 17.5t25 42.5h-70zM343 700l-106 -530h252l-34 -170h-439l140 700h187z" />
    <glyph glyph-name="lcaron" unicode="&#x13e;" horiz-adv-x="403" 
d="M7 0l147 735h179l-147 -735h-179zM388 735h150l-24 -121q-13 -62 -59 -100.5t-114 -43.5l14 72q31 2 51 17.5t25 42.5h-70z" />
    <glyph glyph-name="Ldot" unicode="&#x13f;" horiz-adv-x="538" 
d="M343 700l-106 -530h252l-34 -170h-439l140 700h187zM359 420h170l-34 -169h-170z" />
    <glyph glyph-name="ldot" unicode="&#x140;" horiz-adv-x="481" 
d="M7 0l147 735h179l-147 -735h-179zM303 273l34 171h177l-34 -171h-177z" />
    <glyph glyph-name="Lslash" unicode="&#x141;" horiz-adv-x="547" 
d="M259 161h253l-33 -161h-439l44 219l-76 -32l31 152l75 33l66 328h187l-48 -239l147 65l-30 -155l-147 -63z" />
    <glyph glyph-name="lslash" unicode="&#x142;" horiz-adv-x="390" 
d="M418 569l-32 -158l-83 -39l-75 -372h-179l56 278l-82 -38l33 158l80 38l60 299h179l-41 -205z" />
    <glyph glyph-name="Nacute" unicode="&#x143;" horiz-adv-x="757" 
d="M685 914l-152 -152h-132l96 152h188zM591 700h183l-140 -700h-154l-203 395l-79 -395h-182l140 700h160l198 -387z" />
    <glyph glyph-name="nacute" unicode="&#x144;" horiz-adv-x="642" 
d="M591 762l-140 -162h-132l88 162h184zM438 557q78 0 122.5 -48t44.5 -129q0 -9 -0.5 -17t-1.5 -16.5t-4 -24.5t-5.5 -31t-9 -46t-12 -60t-16.5 -81.5t-21 -103.5h-179l37 185q27 133 27 148q0 65 -59 65q-45 0 -75.5 -28.5t-42.5 -80.5l-57 -289h-179l108 540h125l14 -55
q77 72 184 72z" />
    <glyph glyph-name="uni0145" unicode="&#x145;" horiz-adv-x="757" 
d="M591 700h183l-140 -700h-154l-203 395l-79 -395h-182l140 700h160l198 -387zM236 -181l27 133h150l-24 -121q-13 -62 -59 -100.5t-114 -43.5l14 73q30 1 50 17t26 42h-70z" />
    <glyph glyph-name="uni0146" unicode="&#x146;" horiz-adv-x="642" 
d="M438 557q78 0 122.5 -48t44.5 -129q0 -9 -0.5 -17t-1.5 -16.5t-4 -24.5t-5.5 -31t-9 -46t-12 -60t-16.5 -81.5t-21 -103.5h-179l37 185q27 133 27 148q0 65 -59 65q-45 0 -75.5 -28.5t-42.5 -80.5l-57 -289h-179l108 540h125l14 -55q77 72 184 72zM154 -178l28 133h150
l-25 -121q-12 -62 -58.5 -100.5t-114.5 -43.5l15 72q30 2 50 17.5t25 42.5h-70z" />
    <glyph glyph-name="Ncaron" unicode="&#x147;" horiz-adv-x="757" 
d="M564 762h-191l-88 152h140l57 -69l85 69h145zM591 700h183l-140 -700h-154l-203 395l-79 -395h-182l140 700h160l198 -387z" />
    <glyph glyph-name="ncaron" unicode="&#x148;" horiz-adv-x="642" 
d="M501 600h-192l-85 162h142l56 -73l87 73h142zM438 557q78 0 122.5 -48t44.5 -129q0 -8 -0.5 -14t-1.5 -16t-2.5 -18.5t-4.5 -26t-6 -33t-9 -45.5t-11.5 -58t-15.5 -75.5t-19 -93.5h-179l37 185q27 133 27 148q0 65 -59 65q-45 0 -75.5 -28.5t-42.5 -80.5l-57 -289h-179
l108 540h125l14 -55q77 72 184 72z" />
    <glyph glyph-name="Eng" unicode="&#x14a;" horiz-adv-x="758" 
d="M593 700h181l-136 -681q-20 -104 -90.5 -161.5t-174.5 -57.5h-46l32 157h41q30 0 49.5 17t25.5 47l-201 368l-78 -389h-180l140 700h163l199 -378z" />
    <glyph glyph-name="eng" unicode="&#x14b;" horiz-adv-x="642" 
d="M440 555q78 0 122 -45.5t44 -122.5v-13.5t-1 -13t-2.5 -17t-3 -20t-5 -27.5t-6.5 -34.5t-9 -45.5t-11.5 -56t-14.5 -71t-17 -84q-19 -95 -84 -148t-160 -53h-61l30 149h26q28 0 47 16t25 45q8 41 22 107q28 140 33.5 170t5.5 43q0 61 -58 61q-44 0 -75 -27.5t-44 -77.5
l-57 -290h-179l108 540h125l15 -58q78 73 185 73z" />
    <glyph glyph-name="Omacron" unicode="&#x14c;" horiz-adv-x="831" 
d="M353 772l26 134h329l-26 -134h-329zM374 -17q-147 0 -238 87.5t-91 223.5q0 121 59.5 218.5t161.5 151t225 53.5q146 0 236.5 -87.5t90.5 -222.5q0 -122 -59.5 -219.5t-160.5 -151t-224 -53.5zM399 156q97 0 161.5 70t64.5 164q0 46 -20 81t-56.5 54t-84.5 19
q-95 0 -160.5 -70t-65.5 -163q0 -70 44 -112.5t117 -42.5z" />
    <glyph glyph-name="omacron" unicode="&#x14d;" horiz-adv-x="653" 
d="M232 618l26 124h323l-26 -124h-323zM287 -17q-113 0 -187 69t-74 177q0 92 45.5 167.5t123.5 118.5t172 43q113 0 187 -69t74 -178q0 -92 -45.5 -167.5t-124 -118t-171.5 -42.5zM303 145q40 0 74 21.5t52.5 56.5t18.5 76q0 44 -26.5 70t-70.5 26q-62 0 -103.5 -45.5
t-41.5 -107.5q0 -29 11.5 -51t33.5 -34t52 -12z" />
    <glyph glyph-name="Obreve" unicode="&#x14e;" horiz-adv-x="831" 
d="M502 754q-71 0 -113.5 34.5t-42.5 92.5q0 17 3 34h127q-1 -9 -1 -15q0 -38 44 -38q17 0 30 6t21.5 18t12.5 29h129q-15 -73 -71.5 -117t-138.5 -44zM374 -17q-147 0 -238 87.5t-91 223.5q0 121 59.5 218.5t161.5 151t225 53.5q146 0 236.5 -87.5t90.5 -222.5
q0 -122 -59.5 -219.5t-160.5 -151t-224 -53.5zM399 156q97 0 161.5 70t64.5 164q0 70 -44 112t-117 42q-95 0 -160.5 -70t-65.5 -163q0 -70 44 -112.5t117 -42.5z" />
    <glyph glyph-name="obreve" unicode="&#x14f;" horiz-adv-x="653" 
d="M394 591q-74 0 -119 39t-45 100q0 14 3 32h129q-2 -11 -2 -17q0 -44 51 -44q29 0 47 16t24 45h131q-11 -54 -40.5 -92.5t-75 -58.5t-103.5 -20zM287 -17q-113 0 -187 69t-74 177q0 92 45.5 167.5t123.5 118.5t172 43q113 0 187 -69t74 -178q0 -92 -45.5 -167.5t-124 -118
t-171.5 -42.5zM303 145q61 0 103 45.5t42 108.5q0 44 -26.5 70t-70.5 26q-62 0 -103.5 -45.5t-41.5 -107.5q0 -29 11.5 -51t33.5 -34t52 -12z" />
    <glyph glyph-name="Ohungarumlaut" unicode="&#x150;" horiz-adv-x="831" 
d="M342 762l78 152h164l-118 -152h-124zM546 762l104 152h171l-149 -152h-126zM374 -17q-147 0 -238 87.5t-91 223.5q0 121 59.5 218.5t161.5 151t225 53.5q146 0 236.5 -87.5t90.5 -222.5q0 -122 -59.5 -219.5t-160.5 -151t-224 -53.5zM399 156q97 0 161.5 70t64.5 164
q0 46 -20 81t-56.5 54t-84.5 19q-95 0 -160.5 -70t-65.5 -163q0 -70 44 -112.5t117 -42.5z" />
    <glyph glyph-name="ohungarumlaut" unicode="&#x151;" horiz-adv-x="653" 
d="M211 600l79 162h171l-119 -162h-131zM420 600l107 162h169l-144 -162h-132zM287 -17q-113 0 -187 69t-74 177q0 92 45.5 167.5t123.5 118.5t172 43q113 0 187 -69t74 -178q0 -92 -45.5 -167.5t-124 -118t-171.5 -42.5zM303 145q61 0 103 45.5t42 108.5q0 44 -26.5 70
t-70.5 26q-62 0 -103.5 -45.5t-41.5 -108.5q0 -28 11.5 -50t33.5 -34t52 -12z" />
    <glyph glyph-name="OE" unicode="&#x152;" horiz-adv-x="969" 
d="M972 546h-252l-24 -120h227l-29 -148h-228l-24 -122h262l-31 -156h-368q-62 -17 -131 -17q-146 0 -237 87.5t-91 223.5q0 92 33.5 170.5t92 134t141.5 87t179 31.5q61 0 114 -17h397zM238 311q0 -70 44.5 -112.5t116.5 -42.5q32 0 62 9l74 367q-31 12 -69 12
q-98 0 -163 -68t-65 -165z" />
    <glyph glyph-name="oe" unicode="&#x153;" horiz-adv-x="1047" 
d="M1010 226h-405v-4q0 -92 96 -92q71 0 111 53h183q-35 -93 -120 -146.5t-187 -53.5q-113 0 -180 85q-92 -85 -224 -85q-114 0 -186 70t-72 176q0 140 99 234t244 94q119 0 188 -85q90 85 218 85q114 0 181.5 -68.5t67.5 -173.5q0 -38 -14 -89zM760 415q-43 0 -76 -23.5
t-54 -62.5h227q-3 42 -28.5 64t-68.5 22zM303 145q61 0 103 45.5t42 107.5q0 44 -26.5 70.5t-70.5 26.5q-62 0 -103.5 -45.5t-41.5 -108.5q0 -29 11.5 -50.5t33.5 -33.5t52 -12z" />
    <glyph glyph-name="Racute" unicode="&#x154;" horiz-adv-x="671" 
d="M613 914l-151 -152h-132l96 152h187zM666 495q0 -54 -19.5 -101.5t-54 -83t-82.5 -58.5l90 -252h-197l-74 219h-84l-44 -219h-185l140 700h291q98 0 158.5 -57.5t60.5 -147.5zM309 539l-33 -166h93q48 0 77.5 30.5t29.5 73.5q-1 29 -20 45.5t-55 16.5h-92z" />
    <glyph glyph-name="racute" unicode="&#x155;" horiz-adv-x="420" 
d="M487 763l-139 -162h-132l87 162h184zM248 484q67 59 161 59h53l-33 -165h-71q-50 0 -77 -22t-38 -71l-57 -285h-179l108 540h118z" />
    <glyph glyph-name="uni0156" unicode="&#x156;" horiz-adv-x="671" 
d="M666 495q0 -54 -19.5 -101.5t-54 -83t-82.5 -58.5l90 -252h-197l-74 219h-84l-44 -219h-185l140 700h291q98 0 158.5 -57.5t60.5 -147.5zM309 539l-33 -166h93q48 0 77.5 30.5t29.5 73.5q-1 29 -20 45.5t-55 16.5h-92zM191 -181l28 133h150l-25 -121
q-12 -62 -58.5 -100.5t-114.5 -43.5l15 73q30 1 50 17t25 42h-70z" />
    <glyph glyph-name="uni0157" unicode="&#x157;" horiz-adv-x="420" 
d="M409 543h53l-33 -165h-71q-50 0 -77 -22t-38 -71l-57 -285h-179l108 540h118l15 -56q67 59 161 59zM-14 -178l27 133h150l-24 -121q-13 -62 -59 -100.5t-114 -43.5l14 72q30 2 50 17.5t26 42.5h-70z" />
    <glyph glyph-name="Rcaron" unicode="&#x158;" horiz-adv-x="671" 
d="M493 762h-191l-88 152h140l57 -69l85 69h145zM666 495q0 -54 -19.5 -101.5t-54 -83t-82.5 -58.5l90 -252h-197l-74 219h-84l-44 -219h-185l140 700h291q98 0 158.5 -57.5t60.5 -147.5zM309 539l-33 -166h93q48 0 77.5 30.5t29.5 73.5q-1 29 -20 45.5t-55 16.5h-92z" />
    <glyph glyph-name="rcaron" unicode="&#x159;" horiz-adv-x="420" 
d="M397 601h-192l-85 162h142l57 -74l86 74h143zM248 484q67 59 161 59h53l-33 -165h-71q-50 0 -77 -22t-38 -71l-57 -285h-179l108 540h118z" />
    <glyph glyph-name="Sacute" unicode="&#x15a;" horiz-adv-x="625" 
d="M322 762l96 152h188l-152 -152h-132zM264 -17q-113 0 -178.5 52.5t-65.5 143.5q0 23 5 48h191q-2 -8 -2 -16q0 -31 20 -48.5t56 -17.5q41 0 69 20.5t28 57.5q0 15 -8 26t-26 19t-33.5 13t-43.5 12q-24 7 -38 11t-36.5 12t-36.5 16t-30.5 21.5t-26 28t-16 36t-6.5 45.5
q0 83 39 140.5t106.5 85.5t157.5 28q70 0 121 -21t78.5 -62.5t27.5 -99.5q0 -24 -4 -46h-185q1 8 1 14q0 27 -17.5 42.5t-49.5 15.5q-37 0 -60 -16.5t-23 -47.5q0 -13 7.5 -23t25 -18t32 -13t42.5 -13q25 -6 39.5 -10.5t38 -13.5t38 -17t32 -22t27 -29.5t16.5 -37.5t7 -48
q0 -127 -88 -197.5t-231 -70.5z" />
    <glyph glyph-name="sacute" unicode="&#x15b;" horiz-adv-x="530" 
d="M242 600l87 162h184l-139 -162h-132zM215 -17q-93 0 -150 44t-57 117q0 17 3 34h171q-1 -7 -1 -14q0 -22 15.5 -34t41.5 -12t46 13.5t20 37.5q0 11 -6 18t-20 12.5t-25.5 8.5t-34.5 7q-18 4 -27.5 6t-27.5 7t-28 9.5t-24.5 12t-22.5 16.5t-16.5 21t-12 27.5t-3.5 33.5
q0 99 72 154t186 55q91 0 146 -43.5t55 -110.5q0 -13 -3 -28h-167q1 5 1 10q0 42 -52 42q-27 0 -45 -13t-18 -35q0 -10 5.5 -17.5t21 -13t26 -8t35.5 -7.5q21 -4 32.5 -6.5t31.5 -8t31.5 -11.5t26.5 -16.5t23 -22.5t14 -29.5t6 -38.5q0 -68 -36 -118t-96.5 -74.5
t-136.5 -24.5z" />
    <glyph glyph-name="Scircumflex" unicode="&#x15c;" horiz-adv-x="625" 
d="M410 831l-84 -69h-152l147 152h191l89 -152h-133zM612 488h-185q1 8 1 14q0 27 -17.5 42.5t-49.5 15.5q-37 0 -60 -16.5t-23 -47.5q0 -10 6 -19t14 -15t24.5 -12.5t28.5 -10t34 -10.5q25 -6 39.5 -10.5t38 -13.5t38 -17t32 -22t27 -29.5t16.5 -37.5t7 -48
q0 -127 -88 -197.5t-231 -70.5q-113 0 -178.5 52.5t-65.5 143.5q0 23 5 48h191q-2 -8 -2 -16q0 -31 20 -48.5t56 -17.5q41 0 69.5 20.5t28.5 57.5q0 15 -8.5 26t-26.5 19t-33.5 13t-43.5 12q-24 7 -38 11t-36.5 12t-36.5 16t-30.5 21.5t-26 28t-16 36t-6.5 45.5
q0 83 39 140.5t106.5 85.5t157.5 28q70 0 121 -21t78.5 -62.5t27.5 -99.5q0 -24 -4 -46z" />
    <glyph glyph-name="scircumflex" unicode="&#x15d;" horiz-adv-x="530" 
d="M534 600h-131l-57 74l-86 -74h-153l149 162h192zM215 -17q-93 0 -150 44t-57 117q0 17 3 34h171q-1 -7 -1 -14q0 -22 15.5 -34t41.5 -12t46 13.5t20 37.5q0 11 -6 18t-20 12.5t-25.5 8.5t-34.5 7q-18 4 -27.5 6t-27.5 7t-28 9.5t-24.5 12t-22.5 16.5t-16.5 21t-12 27.5
t-3.5 33.5q0 99 72 154t186 55q91 0 146 -43.5t55 -110.5q0 -13 -3 -28h-167q1 5 1 10q0 42 -52 42q-27 0 -45 -13t-18 -35q0 -10 5.5 -17.5t21 -13t26 -8t35.5 -7.5q21 -4 32.5 -6.5t31.5 -8t31.5 -11.5t26.5 -16.5t23 -22.5t14 -29.5t6 -38.5q0 -68 -36 -118t-96.5 -74.5
t-136.5 -24.5z" />
    <glyph glyph-name="Scedilla" unicode="&#x15e;" horiz-adv-x="625" 
d="M612 488h-185q1 8 1 14q0 27 -17.5 42.5t-49.5 15.5q-37 0 -60 -16.5t-23 -47.5q0 -13 7.5 -23t25 -18t32 -13t42.5 -13q19 -5 30 -8t30 -9.5t30.5 -11.5t28 -14t26.5 -18t21 -21.5t17.5 -26t10.5 -31.5t4 -38q0 -116 -74.5 -185.5t-198.5 -80.5l-10 -22q34 -8 52.5 -28
t18.5 -49q0 -54 -45.5 -90.5t-111.5 -36.5h-87l17 83h75q17 0 28.5 10t11.5 25q0 11 -7.5 17t-20.5 6h-51l-5 8l34 78q-89 13 -139 63.5t-50 129.5q0 23 5 48h191q-2 -8 -2 -16q0 -31 20 -48.5t56 -17.5q41 0 69.5 20.5t28.5 57.5q0 15 -8.5 26t-26.5 19t-33.5 13t-43.5 12
q-24 7 -38 11t-36.5 12t-36.5 16t-30.5 21.5t-26 28t-16 36t-6.5 45.5q0 83 39 140.5t106.5 85.5t157.5 28q70 0 121 -21t78.5 -62.5t27.5 -99.5q0 -24 -4 -46z" />
    <glyph glyph-name="scedilla" unicode="&#x15f;" horiz-adv-x="530" 
d="M512 375h-167q1 5 1 10q0 42 -52 42q-27 0 -45 -13t-18 -35q0 -10 5.5 -17.5t21 -13t26 -8t35.5 -7.5q21 -4 32.5 -6.5t31.5 -8t31.5 -11.5t26.5 -16.5t23 -22.5t14 -29.5t6 -38.5q0 -92 -63.5 -148.5t-164.5 -66.5l-11 -21q36 -6 56 -26.5t20 -50.5q0 -55 -42.5 -90.5
t-102.5 -35.5h-82l16 80h63q16 0 27.5 10t11.5 25q0 10 -7.5 16t-20.5 6h-46l-5 12l37 76q-75 10 -118.5 52.5t-43.5 105.5q0 17 3 34h171q-1 -7 -1 -14q0 -22 15.5 -34t41.5 -12t46 13.5t20 37.5q0 11 -6 18t-20 12.5t-25.5 8.5t-34.5 7q-21 4 -32 6.5t-31 8.5t-31.5 12
t-26 16.5t-22.5 22.5t-13.5 29t-5.5 38q0 99 72 154t186 55q91 0 146 -43.5t55 -110.5q0 -13 -3 -28z" />
    <glyph glyph-name="Scaron" unicode="&#x160;" horiz-adv-x="625" 
d="M486 762h-192l-87 152h140l57 -69l84 69h146zM389 717q106 0 166.5 -48t60.5 -135q0 -24 -4 -46h-185q1 8 1 14q0 27 -17.5 42.5t-49.5 15.5q-37 0 -60 -16.5t-23 -47.5q0 -13 7.5 -23t25 -18t32 -13t42.5 -13q25 -6 39.5 -10.5t38 -13.5t38 -17t32 -22t27 -29.5
t16.5 -37.5t7 -48q0 -85 -41.5 -146.5t-113 -91.5t-164.5 -30q-113 0 -178.5 52.5t-65.5 143.5q0 23 5 48h191q-2 -8 -2 -16q0 -31 20 -48.5t56 -17.5q41 0 69 20.5t28 57.5q0 15 -8 26t-26 19t-33.5 13t-43.5 12q-24 7 -38 11t-36.5 12t-36.5 16t-30.5 21.5t-26 28t-16 36
t-6.5 45.5q0 83 39 140.5t106.5 85.5t157.5 28z" />
    <glyph glyph-name="scaron" unicode="&#x161;" horiz-adv-x="530" 
d="M431 762h143l-151 -162h-191l-86 162h143l56 -73zM215 -17q-93 0 -150 44t-57 117q0 17 3 34h171q-1 -7 -1 -14q0 -22 15.5 -34t41.5 -12t46 13.5t20 37.5q0 11 -6 18t-20 12.5t-25.5 8.5t-34.5 7q-18 4 -27.5 6t-27.5 7t-28 9.5t-24.5 12t-22.5 16.5t-16.5 21t-12 27.5
t-3.5 33.5q0 99 72 154t186 55q91 0 146 -43.5t55 -110.5q0 -13 -3 -28h-167q1 5 1 10q0 42 -52 42q-27 0 -45 -13t-18 -35q0 -10 5.5 -17.5t21 -13t26 -8t35.5 -7.5q21 -4 32.5 -6.5t31.5 -8t31.5 -11.5t26.5 -16.5t23 -22.5t14 -29.5t6 -38.5q0 -68 -36 -118t-96.5 -74.5
t-136.5 -24.5z" />
    <glyph glyph-name="uni0162" unicode="&#x162;" horiz-adv-x="600" 
d="M340 0h-39l-15 -31q33 -10 51 -33.5t18 -53.5q0 -54 -42.5 -85t-107.5 -31h-91l17 82h75q17 0 28.5 10.5t11.5 25.5q0 11 -8 17t-20 6h-53l-5 8l37 85h-43l108 545h-192l30 155h567l-30 -155h-188z" />
    <glyph glyph-name="uni0163" unicode="&#x163;" horiz-adv-x="449" 
d="M442 390h-137q-34 -170 -34 -179q0 -50 61 -50h65l-32 -161h-84l-15 -29q33 -8 51.5 -27.5t18.5 -48.5q0 -56 -44.5 -91t-107.5 -35h-76l17 80h63q16 0 27 10t11 25q0 10 -7.5 16t-19.5 6h-46l-5 12l44 92q-51 16 -78.5 55.5t-27.5 96.5q0 6 0.5 11t1 12t1.5 12.5t3 17
t3.5 20.5t5 27t6.5 33t8.5 43t10.5 52h-101l8 41l294 267h37l-31 -158h139z" />
    <glyph glyph-name="Tcaron" unicode="&#x164;" horiz-adv-x="600" 
d="M489 762h-191l-88 152h140l57 -69l85 69h145zM667 700l-30 -155h-188l-109 -545h-186l108 545h-192l30 155h567z" />
    <glyph glyph-name="tcaron" unicode="&#x165;" horiz-adv-x="517" 
d="M521 735h151l-25 -121q-12 -62 -58.5 -100.5t-114.5 -43.5l15 73q31 1 50.5 16.5t24.5 42.5h-69zM364 698l-31 -158h124l-30 -150h-122q-34 -166 -34 -177q0 -52 61 -52h65l-32 -161h-101q-83 0 -130.5 44t-47.5 120q0 26 28 165q8 38 12 61h-101l8 41l294 267h37z" />
    <glyph glyph-name="Tbar" unicode="&#x166;" horiz-adv-x="614" 
d="M643 545h-188l-28 -142h116l-30 -145h-115l-52 -258h-186l51 258h-114l29 145h114l29 142h-193l31 155h567z" />
    <glyph glyph-name="tbar" unicode="&#x167;" horiz-adv-x="465" 
d="M456 390h-137q-10 -47 -13 -60h139l-22 -111h-138q-1 -5 -1 -9q0 -52 61 -52h65l-31 -158h-101q-83 0 -130.5 44t-47.5 120q0 20 6 56h-101l22 110h101q9 46 12 60h-101l8 41l294 267h37l-31 -158h139z" />
    <glyph glyph-name="Utilde" unicode="&#x168;" horiz-adv-x="728" 
d="M514 758q-43 0 -89 32q-25 17 -41 17q-10 0 -18 -5t-13 -15.5t-7 -24.5h-101q14 78 55.5 117.5t102.5 39.5q45 0 84 -32q26 -20 44 -20q31 0 39 48h101q-13 -77 -54.5 -117t-102.5 -40zM317 -17q-116 0 -188.5 66.5t-72.5 171.5q0 8 1 16.5t3 22t4 27.5t6.5 37.5t9 46.5
t12 60t15 72.5t18.5 90t21 106.5h189q-19 -94 -45 -227q-31 -150 -37.5 -185t-6.5 -48q0 -40 25 -62t69 -22q52 0 89.5 33.5t47.5 87.5l85 423h189l-91 -453q-17 -84 -64.5 -143.5t-118.5 -90t-160 -30.5z" />
    <glyph glyph-name="utilde" unicode="&#x169;" horiz-adv-x="634" 
d="M452 603q-15 0 -27.5 2.5t-25 8t-19 9t-18.5 11.5q-28 17 -40 17q-29 0 -38 -45h-102q16 77 56.5 116t101.5 39q46 0 85 -31q25 -19 43 -19q12 0 20 6t12 16t7 25h101q-16 -77 -56 -116t-100 -39zM268 -17q-68 0 -120 26t-79.5 72.5t-27.5 107.5q0 6 0.5 12l1 12t2 16
t3 18.5l4.5 25.5t6 31.5t8.5 41.5t10.5 51.5t13.5 65t15.5 77.5h179q-14 -73 -34 -172q-29 -144 -29 -161q0 -62 69 -62q39 0 67.5 28.5t37.5 74.5l59 292h179l-64 -321q-22 -112 -102.5 -174t-199.5 -62z" />
    <glyph glyph-name="Umacron" unicode="&#x16a;" horiz-adv-x="728" 
d="M293 772l26 134h329l-26 -134h-329zM317 -17q-116 0 -188.5 66.5t-72.5 171.5q0 7 1 15.5t2 18t3.5 24t5 29.5t7.5 38.5t9.5 46.5t11.5 58t14 69t17 83.5t19 96.5h189q-19 -94 -45 -227q-31 -150 -37.5 -185t-6.5 -48q0 -40 25 -62t69 -22q52 0 89.5 33.5t47.5 87.5
l85 423h189l-91 -452q-26 -127 -117 -196t-226 -69z" />
    <glyph glyph-name="umacron" unicode="&#x16b;" horiz-adv-x="634" 
d="M223 618l25 124h323l-26 -124h-322zM268 -17q-68 0 -120 26t-79.5 72.5t-27.5 107.5q0 6 0.5 12l1 12t2 16t3 18.5l4.5 25.5t6 31.5t8.5 41.5t10.5 51.5t13.5 65t15.5 77.5h179q-14 -73 -34 -172q-29 -144 -29 -161q0 -62 69 -62q39 0 67.5 28.5t37.5 74.5l59 292h179
l-64 -321q-22 -112 -102.5 -174t-199.5 -62z" />
    <glyph glyph-name="Ubreve" unicode="&#x16c;" horiz-adv-x="728" 
d="M442 754q-47 0 -82.5 15.5t-55 44.5t-19.5 67q0 17 4 34h127q-2 -9 -2 -15q0 -38 45 -38q25 0 41.5 13.5t21.5 39.5h129q-14 -73 -70.5 -117t-138.5 -44zM317 -17q-116 0 -188.5 66.5t-72.5 171.5q0 7 1 15.5t2 18t3.5 24t5 29.5t7.5 38.5t9.5 46.5t11.5 58t14 69
t17 83.5t19 96.5h189q-87 -436 -88 -453q-1 -4 -1 -7q0 -40 25 -62t69 -22q52 0 89.5 33.5t47.5 87.5l85 423h189l-91 -452q-26 -127 -117 -196t-226 -69z" />
    <glyph glyph-name="ubreve" unicode="&#x16d;" horiz-adv-x="634" 
d="M385 591q-75 0 -120 39t-45 100q0 14 3 32h130q-3 -11 -3 -17q0 -44 51 -44q29 0 47.5 16t23.5 45h131q-16 -81 -74 -126t-144 -45zM268 -17q-68 0 -120 26t-79.5 72.5t-27.5 107.5q0 6 0.5 12l1 12t2 16t3 18.5l4.5 25.5t6 31.5t8.5 41.5t10.5 51.5t13.5 65t15.5 77.5
h179q-14 -73 -34 -172q-29 -144 -29 -161q0 -62 69 -62q39 0 67.5 28.5t37.5 74.5l59 292h179l-64 -321q-22 -112 -102.5 -174t-199.5 -62z" />
    <glyph glyph-name="Uring" unicode="&#x16e;" horiz-adv-x="728" 
d="M457 740q-54 0 -86.5 29.5t-32.5 78.5q0 66 48 112t119 46q53 0 85.5 -29.5t32.5 -77.5q0 -70 -48 -114.5t-118 -44.5zM470 819q13 0 25.5 5t21.5 14t14 21t5 25q0 19 -12 30.5t-33 11.5q-27 0 -47 -18.5t-20 -46.5q0 -19 12.5 -30.5t33.5 -11.5zM317 -17
q-116 0 -188.5 66.5t-72.5 171.5q0 8 1 16.5t3 22t4 27.5t6.5 37.5t9 46.5t12 60t15 72.5t18.5 90t21 106.5h189q-19 -94 -45 -227q-31 -150 -37.5 -185t-6.5 -48q0 -40 25 -62t69 -22q52 0 89.5 33.5t47.5 87.5l85 423h189l-91 -452q-17 -85 -64.5 -144.5t-118.5 -90
t-160 -30.5z" />
    <glyph glyph-name="uring" unicode="&#x16f;" horiz-adv-x="634" 
d="M381 582q-51 0 -81.5 28t-30.5 73q0 63 45.5 106t112.5 43q50 0 80 -27.5t30 -72.5q0 -65 -44.5 -107.5t-111.5 -42.5zM394 657q25 0 43.5 17.5t18.5 42.5q0 18 -11.5 29t-30.5 11q-26 0 -45 -17.5t-19 -42.5q0 -18 12 -29t32 -11zM268 -17q-68 0 -120 26t-79.5 72.5
t-27.5 107.5q0 6 0.5 12l1 12t2 16t3 18.5l4.5 25.5t6 31.5t8.5 41.5t10.5 51.5t13.5 65t15.5 77.5h179q-14 -73 -34 -172q-29 -144 -29 -161q0 -62 69 -62q39 0 67.5 28.5t37.5 74.5l59 292h179l-64 -321q-22 -112 -102.5 -174t-199.5 -62z" />
    <glyph glyph-name="Uhungarumlaut" unicode="&#x170;" horiz-adv-x="728" 
d="M282 762l78 152h164l-118 -152h-124zM486 762l104 152h171l-150 -152h-125zM317 -17q-116 0 -188.5 66.5t-72.5 171.5q0 7 1 15.5t2 18t3.5 24t5 29.5t7.5 38.5t9.5 46.5t11.5 58t14 69t17 83.5t19 96.5h189q-19 -94 -45 -227q-31 -150 -37.5 -185t-6.5 -48q0 -40 25 -62
t69 -22q52 0 89.5 33.5t47.5 87.5l85 423h189l-91 -452q-26 -127 -117 -196t-226 -69z" />
    <glyph glyph-name="uhungarumlaut" unicode="&#x171;" horiz-adv-x="634" 
d="M201 600l79 162h171l-119 -162h-131zM410 600l107 162h169l-143 -162h-133zM268 -17q-68 0 -120 26t-79.5 72.5t-27.5 107.5q0 6 0.5 12l1 12t2 16t3 18.5l4.5 25.5t6 31.5t8.5 41.5t10.5 51.5t13.5 65t15.5 77.5h179q-14 -73 -34 -172q-29 -144 -29 -161q0 -62 69 -62
q39 0 67.5 28.5t37.5 74.5l59 292h179l-64 -321q-22 -112 -102.5 -174t-199.5 -62z" />
    <glyph glyph-name="Uogonek" unicode="&#x172;" horiz-adv-x="728" 
d="M563 700h188l-85 -428q-9 -46 -28.5 -85t-39 -64t-52 -49.5t-52 -36t-53.5 -30.5q-114 -60 -114 -116q0 -14 10.5 -22.5t29.5 -8.5q29 0 62 12l-19 -93q-52 -24 -108 -24q-33 0 -58 10.5t-39 31t-14 47.5q0 39 21.5 76.5t60.5 66.5q-67 6 -116 35t-75.5 77t-26.5 110
q0 25 6 58.5t33 165.5q30 150 53 267h189q-23 -115 -52 -261q-36 -174 -36 -192q0 -41 25 -64.5t68 -23.5q50 0 88 32t49 85z" />
    <glyph glyph-name="uogonek" unicode="&#x173;" horiz-adv-x="633" 
d="M454 540h179l-63 -319q-14 -73 -48.5 -115.5t-109.5 -93.5q-48 -33 -76 -61t-28 -58q0 -15 10.5 -24t29.5 -9q24 0 54 10l-19 -93q-55 -22 -103 -22q-50 0 -80 23t-30 63q0 37 23.5 75t65.5 70q-99 2 -158 59.5t-59 147.5v13t1.5 15.5t2.5 17t4 24t6 30.5t8.5 41.5
l10.5 52.5t14 68.5t17 84.5h179q-9 -43 -17 -85t-13.5 -69t-11 -53t-8 -40.5t-5.5 -29t-4 -21.5t-2 -13.5t-1.5 -10t-0.5 -7.5q0 -63 70 -63q39 0 67.5 29t37.5 74z" />
    <glyph glyph-name="Wcircumflex" unicode="&#x174;" horiz-adv-x="1046" 
d="M620 831l-84 -69h-152l147 152h192l88 -152h-133zM924 700h202l-356 -700h-159l-69 346l-204 -346h-168l-80 700h189l37 -412l254 411h58l93 -416z" />
    <glyph glyph-name="wcircumflex" unicode="&#x175;" horiz-adv-x="861" 
d="M512 674l-85 -74h-154l150 162h191l87 -162h-132zM726 540h185l-281 -540h-141l-55 245l-161 -245h-147l-69 540h183l28 -286l188 285h47l78 -295z" />
    <glyph glyph-name="Ycircumflex" unicode="&#x176;" horiz-adv-x="693" 
d="M452 831l-84 -69h-152l147 152h192l88 -152h-133zM771 700l-329 -424l-55 -276h-189l55 277l-158 423h194l82 -258l186 258h214z" />
    <glyph glyph-name="ycircumflex" unicode="&#x177;" horiz-adv-x="615" 
d="M392 674l-86 -74h-153l149 162h192l87 -162h-132zM474 540h196l-336 -538q-74 -117 -136.5 -159t-163.5 -42h-74l31 155h46q53 0 81.5 18t59.5 71l-125 495h186l62 -308z" />
    <glyph glyph-name="Ydieresis" unicode="&#x178;" horiz-adv-x="693" 
d="M433 917l-31 -155h-171l31 155h171zM686 917l-31 -155h-172l31 155h172zM771 700l-329 -424l-55 -276h-189l55 277l-158 423h194l82 -258l186 258h214z" />
    <glyph glyph-name="Zacute" unicode="&#x179;" horiz-adv-x="598" 
d="M615 914l-151 -152h-132l96 152h187zM647 700l-9 -48l-371 -491h284l-32 -161h-549l9 43l373 496h-259l31 161h523z" />
    <glyph glyph-name="zacute" unicode="&#x17a;" horiz-adv-x="511" 
d="M511 762l-139 -162h-132l87 162h184zM536 540l-7 -31l-272 -351h204l-32 -158h-462l6 32l275 351h-185l31 157h442z" />
    <glyph glyph-name="Zdotaccent" unicode="&#x17b;" horiz-adv-x="598" 
d="M531 917l-31 -154h-183l31 154h183zM647 700l-9 -48l-371 -491h284l-32 -161h-549l9 43l373 496h-259l31 161h523z" />
    <glyph glyph-name="zdotaccent" unicode="&#x17c;" horiz-adv-x="511" 
d="M448 762l-31 -155h-180l31 155h180zM536 540l-7 -31l-272 -351h204l-32 -158h-462l6 32l275 351h-185l31 157h442z" />
    <glyph glyph-name="Zcaron" unicode="&#x17d;" horiz-adv-x="598" 
d="M495 762h-191l-88 152h140l57 -69l85 69h145zM647 700l-9 -48l-371 -491h284l-32 -161h-549l9 43l373 496h-259l31 161h523z" />
    <glyph glyph-name="zcaron" unicode="&#x17e;" horiz-adv-x="511" 
d="M421 600h-191l-86 162h143l56 -73l86 73h143zM63 383l31 157h442l-7 -31l-272 -351h204l-32 -158h-462l6 32l275 351h-185z" />
    <glyph glyph-name="longs" unicode="&#x17f;" horiz-adv-x="320" 
d="M7 0l115 575q33 162 199 162h135l-31 -155h-74q-48 0 -58 -48l-107 -534h-179z" />
    <glyph glyph-name="florin" unicode="&#x192;" horiz-adv-x="472" 
d="M421 541q-47 0 -63 -47l-18 -50h117l-44 -131h-114l-133 -388q-27 -76 -82 -117t-132 -41h-109l51 147h40q31 0 54 17.5t33 48.5l114 333h-87l45 131h87l33 94q22 65 69.5 99t116.5 34h134l-43 -130h-69z" />
    <glyph glyph-name="AEacute" unicode="&#x1fc;" horiz-adv-x="946" 
d="M859 914l-152 -152h-132l96 152h188zM949 544l-250 1l-23 -119h223l-29 -149h-224l-25 -120h260l-31 -157h-434l23 116h-211l-88 -116h-211l544 700h508zM334 256h133l47 236z" />
    <glyph glyph-name="aeacute" unicode="&#x1fd;" horiz-adv-x="1053" 
d="M782 762l-140 -162h-131l87 162h184zM1031 318q1 -41 -14 -92h-406q1 -47 27 -71.5t74 -24.5q71 0 110 54h181q-42 -92 -124 -146.5t-177 -54.5q-96 0 -158 62l-14 -45h-98l-1 37q-78 -54 -174 -54q-102 0 -166.5 69t-64.5 172q0 90 42.5 167t115.5 121.5t158 44.5
q103 0 166 -66l15 49h98l1 -38q77 54 165 54q106 0 175 -67.5t69 -170.5zM763 414q-43 0 -76.5 -23t-52.5 -62h230q-6 42 -32 63.5t-69 21.5zM310 144q60 0 104.5 46t44.5 107q0 45 -29 72.5t-76 27.5q-60 0 -103.5 -45.5t-43.5 -108.5q0 -45 28 -72t75 -27z" />
    <glyph glyph-name="Oslashacute" unicode="&#x1fe;" horiz-adv-x="843" 
d="M719 914l-152 -152h-131l95 152h188zM741 624q91 -86 91 -218q0 -119 -61 -216.5t-164.5 -152t-225.5 -54.5q-69 0 -130 22l-51 -64h-186l116 139q-87 86 -87 215q0 118 61.5 215.5t165 152t226.5 54.5q64 0 123 -19l48 60h184zM466 550q-96 0 -165.5 -70.5t-69.5 -160.5
q0 -52 26 -91l249 318q-20 4 -40 4zM410 150q97 0 165.5 70.5t68.5 162.5q0 54 -28 93l-252 -321q22 -5 46 -5z" />
    <glyph glyph-name="oslashacute" unicode="&#x1ff;" horiz-adv-x="661" 
d="M579 762l-139 -162h-132l87 162h184zM564 489q72 -65 72 -177q0 -96 -46.5 -171.5t-126 -116.5t-176.5 -41q-50 0 -94 13l-44 -57h-141l87 114q-69 63 -69 175q0 143 100 236t250 93q48 0 89 -13l42 57h140zM351 400q-66 0 -110.5 -47t-44.5 -110q0 -29 12 -51l157 208
h-14zM312 139q65 0 109.5 47t44.5 110q0 29 -15 51l-157 -207q8 -1 18 -1z" />
    <glyph glyph-name="uni0218" unicode="&#x218;" horiz-adv-x="625" 
d="M264 -17q-113 0 -178.5 52.5t-65.5 143.5q0 23 5 48h191q-2 -8 -2 -16q0 -31 20 -48.5t56 -17.5q26 0 48 8.5t36 26.5t14 43q0 15 -8.5 26t-26.5 19t-33.5 13t-43.5 12q-24 7 -38 11t-36.5 12t-36.5 16t-30.5 21.5t-26 28t-16 36t-6.5 45.5q0 83 39 140.5t106.5 85.5
t157.5 28q70 0 121 -21t78.5 -62.5t27.5 -99.5q0 -24 -4 -46h-185q1 8 1 14q0 27 -17.5 42.5t-49.5 15.5q-37 0 -60 -16.5t-23 -47.5q0 -13 7.5 -23t25 -18t32 -13t42.5 -13q19 -5 30 -8t30 -9.5t30.5 -11.5t28 -14t26.5 -18t21 -21.5t17.5 -26t10.5 -31.5t4 -38
q0 -127 -88 -197.5t-231 -70.5zM154 -320l14 73q20 1 36 8.5t26 20.5t13 30h-69l27 134h150l-24 -122q-13 -61 -59 -100t-114 -44z" />
    <glyph glyph-name="uni0219" unicode="&#x219;" horiz-adv-x="530" 
d="M215 -17q-93 0 -150 44t-57 117q0 17 3 34h171q-1 -7 -1 -14q0 -22 15.5 -34t41.5 -12t46 13.5t20 37.5q0 11 -6 18t-20 12.5t-25.5 8.5t-34.5 7q-18 4 -27.5 6t-27.5 7t-28 9.5t-24.5 12t-22.5 16.5t-16.5 21t-12 27.5t-3.5 33.5q0 99 72 154t186 55q91 0 146 -43.5
t55 -110.5q0 -13 -3 -28h-167q1 5 1 10q0 42 -52 42q-27 0 -45 -13t-18 -35q0 -10 5.5 -17.5t21 -13t26 -8t35.5 -7.5q21 -4 32.5 -6.5t31.5 -8t31.5 -11.5t26.5 -16.5t23 -22.5t14 -29.5t6 -38.5q0 -68 -36 -118t-96.5 -74.5t-136.5 -24.5zM97 -319l14 73q31 2 51 17.5
t25 41.5h-70l27 134h151l-25 -121q-12 -62 -58.5 -100.5t-114.5 -44.5z" />
    <glyph glyph-name="uni021A" unicode="&#x21a;" horiz-adv-x="600" 
d="M667 700l-30 -155h-188l-109 -545h-186l108 545h-192l30 155h567zM140 -181l27 133h151l-25 -121q-13 -62 -59 -100.5t-114 -43.5l14 73q30 1 50 17t26 42h-70z" />
    <glyph glyph-name="uni021B" unicode="&#x21b;" horiz-adv-x="449" 
d="M442 390h-137q-34 -166 -34 -177q0 -52 61 -52h65l-32 -161h-101q-83 0 -130.5 44t-47.5 120q0 26 28 165q8 38 12 61h-101l8 41l294 267h37l-31 -158h139zM71 -178l28 133h150l-24 -121q-13 -62 -59 -100.5t-114 -43.5l14 72q20 1 36 8.5t26 20.5t13 31h-70z" />
    <glyph glyph-name="circumflex" unicode="&#x2c6;" horiz-adv-x="600" 
d="M596 600h-132l-57 74l-86 -74h-153l150 162h191z" />
    <glyph glyph-name="caron" unicode="&#x2c7;" horiz-adv-x="600" 
d="M454 762h143l-151 -162h-191l-86 162h143l56 -73z" />
    <glyph glyph-name="breve" unicode="&#x2d8;" horiz-adv-x="600" 
d="M345 591q-74 0 -119 39t-45 100q0 14 3 32h129q-2 -11 -2 -17q0 -44 51 -44q29 0 47 16t24 45h131q-11 -54 -41 -92.5t-75 -58.5t-103 -20z" />
    <glyph glyph-name="dotaccent" unicode="&#x2d9;" horiz-adv-x="379" 
d="M111 607l31 155h180l-31 -155h-180z" />
    <glyph glyph-name="ring" unicode="&#x2da;" horiz-adv-x="471" 
d="M282 582q-51 0 -81.5 28t-30.5 73q0 63 45.5 106t111.5 43q50 0 80.5 -27.5t30.5 -72.5q0 -65 -45 -107.5t-111 -42.5zM294 657q26 0 44.5 17.5t18.5 42.5q0 18 -11.5 29t-31.5 11q-25 0 -44 -17.5t-19 -42.5q0 -18 12 -29t31 -11z" />
    <glyph glyph-name="ogonek" unicode="&#x2db;" horiz-adv-x="486" 
d="M131 -238q-34 0 -59.5 11t-39 31.5t-13.5 48.5q0 71 74 133.5t180 95.5l11 -68q-58 -17 -95.5 -47t-37.5 -63q0 -17 13 -26t35 -9q27 0 60 13l-18 -90q-54 -30 -110 -30z" />
    <glyph glyph-name="tilde" unicode="&#x2dc;" horiz-adv-x="600" 
d="M434 603q-19 0 -37.5 5.5t-27.5 10.5t-25 15q-28 17 -40 17q-29 0 -38 -45h-102q16 77 56.5 116t101.5 39q46 0 85 -31q25 -19 43 -19q17 0 26 12t13 35h101q-16 -77 -56 -116t-100 -39z" />
    <glyph glyph-name="hungarumlaut" unicode="&#x2dd;" horiz-adv-x="633" 
d="M151 600l79 162h171l-119 -162h-131zM360 600l107 162h169l-144 -162h-132z" />
    <glyph glyph-name="gravecomb" unicode="&#x300;" 
d="M-19 601h-131l-76 162h184z" />
    <glyph glyph-name="acutecomb" unicode="&#x301;" 
d="M-270 600l88 162h184l-140 -162h-132z" />
    <glyph glyph-name="uni0302" unicode="&#x302;" 
d="M-26 600h-132l-57 74l-85 -74h-154l150 162h191z" />
    <glyph glyph-name="tildecomb" unicode="&#x303;" 
d="M-166 603q-15 0 -28 2.5t-25 8t-18.5 9t-18.5 11.5q-28 17 -40 17q-29 0 -38 -45h-102q16 77 56.5 116t101.5 39q46 0 85 -31q25 -19 43 -19q17 0 26 12t13 35h101q-16 -77 -56 -116t-100 -39z" />
    <glyph glyph-name="uni0304" unicode="&#x304;" 
d="M-348 618l26 124h322l-25 -124h-323z" />
    <glyph glyph-name="uni0306" unicode="&#x306;" 
d="M-207 591q-49 0 -87 18.5t-57.5 49.5t-19.5 71q0 14 3 32h129q-2 -11 -2 -17q0 -44 51 -44q29 0 47 16t24 45h131q-16 -81 -74 -126t-145 -45z" />
    <glyph glyph-name="uni0307" unicode="&#x307;" 
d="M-250 607l32 155h180l-32 -155h-180z" />
    <glyph glyph-name="uni0308" unicode="&#x308;" 
d="M-540 608l30 152h168l-30 -152h-168zM-291 608l30 152h168l-30 -152h-168z" />
    <glyph glyph-name="uni030A" unicode="&#x30a;" 
d="M-151 582q-51 0 -81.5 28t-30.5 73q0 63 45.5 106t111.5 43q51 0 81 -27.5t30 -72.5q0 -65 -44.5 -107.5t-111.5 -42.5zM-138 657q25 0 43.5 17.5t18.5 42.5q0 9 -3 16.5t-8.5 12.5t-13.5 8t-17 3q-17 0 -31.5 -7.5t-23.5 -21.5t-9 -31q0 -18 12 -29t32 -11z" />
    <glyph glyph-name="uni030B" unicode="&#x30b;" 
d="M-514 600l79 162h171l-119 -162h-131zM-306 600l108 162h169l-144 -162h-133z" />
    <glyph glyph-name="uni030C" unicode="&#x30c;" 
d="M-146 762h143l-151 -162h-191l-86 162h143l56 -73z" />
    <glyph glyph-name="uni0312" unicode="&#x312;" 
d="M-262 600l25 121q12 62 58.5 100.5t114.5 43.5l-15 -73q-30 -1 -50 -17t-25 -42h70l-27 -133h-151z" />
    <glyph glyph-name="uni0326" unicode="&#x326;" 
d="M-294 -310l15 72q20 1 36 8.5t26 20.5t13 31h-70l28 133h150l-24 -121q-13 -62 -59 -100.5t-115 -43.5z" />
    <glyph glyph-name="uni0327" unicode="&#x327;" 
d="M-306 -28q35 -6 55 -26.5t20 -50.5q0 -36 -19.5 -65.5t-52.5 -45t-73 -15.5h-82l16 80h63q16 0 27.5 10t11.5 25q0 10 -7.5 16t-19.5 6h-47l-5 12l67 138h87z" />
    <glyph glyph-name="uni0328" unicode="&#x328;" 
d="M-308 -238q-51 0 -81.5 24.5t-30.5 66.5q0 71 74.5 133.5t179.5 95.5l12 -68q-59 -17 -96 -47t-37 -63q0 -17 12.5 -26t35.5 -9q27 0 59 13l-18 -90q-54 -30 -110 -30z" />
    <glyph glyph-name="uni0335" unicode="&#x335;" 
d="M-440 603l20 99h408l-20 -99h-408z" />
    <glyph glyph-name="uni0337" unicode="&#x337;" 
d="M-483 200l32 158l362 172l-31 -158z" />
    <glyph glyph-name="tonos" unicode="&#x384;" horiz-adv-x="431" 
d="M162 600l87 162h184l-139 -162h-132z" />
    <glyph glyph-name="dieresistonos" unicode="&#x385;" horiz-adv-x="579" 
d="M229 600l70 162h159l-106 -162h-123zM83 628l21 109h123l-21 -109h-123zM446 628l21 109h123l-22 -109h-122z" />
    <glyph glyph-name="Alphatonos" unicode="&#x386;" horiz-adv-x="804" 
d="M555 0l-16 117h-253l-64 -117h-207l414 700h180l141 -700h-195zM327 700l-148 -157h-127l94 157h181zM483 487l-124 -229h160z" />
    <glyph glyph-name="Epsilontonos" unicode="&#x388;" horiz-adv-x="768" 
d="M131 700h181l-148 -157h-127zM772 546h-257l-24 -120h231l-30 -148h-231l-25 -122h267l-31 -156h-452l140 700h443z" />
    <glyph glyph-name="Etatonos" unicode="&#x389;" horiz-adv-x="937" 
d="M131 700h181l-148 -157h-127zM766 700h187l-140 -700h-187l56 280h-219l-56 -280h-187l140 700h187l-52 -262h218z" />
    <glyph glyph-name="Iotatonos" unicode="&#x38a;" horiz-adv-x="531" 
d="M37 543l94 157h181l-148 -157h-127zM220 0l140 700h188l-140 -700h-188z" />
    <glyph glyph-name="Omicrontonos" unicode="&#x38c;" horiz-adv-x="1004" 
d="M546 -17q-146 0 -237 87.5t-91 223.5q0 91 35 170t95 134.5t142 87t174 31.5q145 0 236 -87.5t91 -222.5q0 -122 -59.5 -219.5t-160.5 -151t-225 -53.5zM38 543l94 157h181l-147 -157h-128zM572 156q97 0 161.5 70t64.5 164q0 46 -20 81t-56.5 54t-84.5 19
q-63 0 -116 -33t-82 -86.5t-29 -113.5q0 -70 44.5 -112.5t117.5 -42.5z" />
    <glyph glyph-name="Upsilontonos" unicode="&#x38e;" horiz-adv-x="962" 
d="M88 543l94 157h181l-148 -157h-127zM1040 700l-329 -424l-55 -276h-190l56 277l-158 423h193l83 -258l186 258h214z" />
    <glyph glyph-name="Omegatonos" unicode="&#x38f;" horiz-adv-x="964" 
d="M928 429q0 -150 -127 -270h93l-32 -159h-346l29 148q81 34 135 104t54 147q0 63 -43.5 104t-111.5 41q-93 0 -161 -66.5t-68 -157.5q0 -54 27 -99.5t76 -71.5l-29 -149h-337l32 159h104q-54 84 -54 180q0 81 36 153t96 121t138.5 77t162.5 28q139 0 232.5 -81t93.5 -208z
M329 700l-147 -157h-128l94 157h181z" />
    <glyph glyph-name="iotadieresistonos" unicode="&#x390;" horiz-adv-x="369" 
d="M147 600l63 162h152l-102 -162h-113zM6 628l22 109h124l-22 -109h-124zM347 628l22 109h123l-22 -109h-123zM225 -2q-89 0 -137.5 43.5t-48.5 121.5q0 7 0.5 13t1 12.5t2 16.5t3 19.5t5 27t7 34t9 45t11 55t14 70t17.5 84.5h179q-65 -321 -65 -333q0 -51 62 -51h51
l-31 -158h-80z" />
    <glyph glyph-name="Alpha" unicode="&#x391;" horiz-adv-x="737" 
d="M488 0l-16 117h-253l-63 -117h-208l414 700h181l141 -700h-196zM417 487l-125 -229h161z" />
    <glyph glyph-name="Beta" unicode="&#x392;" horiz-adv-x="648" 
d="M527 366q36 -20 55 -55.5t19 -79.5q0 -101 -77.5 -166t-184.5 -65h-323l140 700h301q55 0 98.5 -21t66.5 -57t23 -80q0 -37 -15.5 -71.5t-41.5 -60.5t-61 -44zM380 423q35 0 58 23t23 59q0 17 -6.5 29t-19.5 18.5t-31 6.5h-99l-27 -136h102zM333 150q18 0 34 6.5t28 18
t18.5 27.5t6.5 34q0 26 -15.5 41.5t-43.5 15.5h-109l-29 -143h110z" />
    <glyph glyph-name="Gamma" unicode="&#x393;" horiz-adv-x="510" 
d="M576 700l-32 -159h-233l-108 -541h-187l140 700h420z" />
    <glyph glyph-name="uni0394" unicode="&#x394;" horiz-adv-x="732" 
d="M533 700l146 -700h-730l418 700h166zM414 464l-171 -310h219z" />
    <glyph glyph-name="Epsilon" unicode="&#x395;" horiz-adv-x="563" 
d="M567 546h-257l-24 -120h231l-29 -148h-232l-25 -122h267l-31 -156h-451l140 700h442z" />
    <glyph glyph-name="Zeta" unicode="&#x396;" horiz-adv-x="598" 
d="M647 700l-9 -48l-371 -491h284l-32 -161h-549l9 43l373 496h-259l31 161h523z" />
    <glyph glyph-name="Eta" unicode="&#x397;" horiz-adv-x="732" 
d="M561 700h187l-140 -700h-187l56 280h-218l-56 -280h-187l140 700h187l-53 -262h219z" />
    <glyph glyph-name="Theta" unicode="&#x398;" horiz-adv-x="831" 
d="M374 -17q-147 0 -238 87.5t-91 223.5q0 121 59.5 218.5t161.5 151t225 53.5q146 0 236.5 -87.5t90.5 -222.5q0 -122 -59.5 -219.5t-160.5 -151t-224 -53.5zM399 156q98 0 163.5 70t65.5 163q0 70 -45 112.5t-119 42.5q-96 0 -162.5 -70t-66.5 -162q0 -46 20.5 -81.5
t57.5 -55t86 -19.5zM299 284l27 134h240l-27 -134h-240z" />
    <glyph glyph-name="Iota" unicode="&#x399;" horiz-adv-x="327" 
d="M16 0l140 700h187l-140 -700h-187z" />
    <glyph glyph-name="Kappa" unicode="&#x39a;" horiz-adv-x="670" 
d="M749 700l-296 -342l178 -358h-207l-157 328l-66 -328h-185l140 700h185l-57 -288l241 288h224z" />
    <glyph glyph-name="Lambda" unicode="&#x39b;" horiz-adv-x="701" 
d="M646 0h-198l-51 452l-235 -452h-211l400 700h174z" />
    <glyph glyph-name="Mu" unicode="&#x39c;" horiz-adv-x="980" 
d="M744 700h188l-34 -700h-183l26 405l-272 -406h-52l-108 408l-140 -407h-193l246 700h183l93 -380z" />
    <glyph glyph-name="Nu" unicode="&#x39d;" horiz-adv-x="757" 
d="M591 700h183l-140 -700h-154l-203 395l-79 -395h-182l140 700h160l198 -387z" />
    <glyph glyph-name="Xi" unicode="&#x39e;" horiz-adv-x="566" 
d="M103 532l34 168h465l-33 -168h-466zM91 276l30 154h388l-31 -154h-387zM-11 0l34 171h480l-34 -171h-480z" />
    <glyph glyph-name="Omicron" unicode="&#x39f;" horiz-adv-x="831" 
d="M374 -17q-147 0 -238 87.5t-91 223.5q0 121 59.5 218.5t161.5 151t225 53.5q146 0 236.5 -87.5t90.5 -222.5q0 -122 -59.5 -219.5t-160.5 -151t-224 -53.5zM399 156q97 0 161.5 70t64.5 163q0 47 -20 82t-56.5 54t-84.5 19q-95 0 -160.5 -70t-65.5 -163q0 -70 44 -112.5
t117 -42.5z" />
    <glyph glyph-name="Pi" unicode="&#x3a0;" horiz-adv-x="717" 
d="M156 700h577l-140 -700h-187l108 539h-203l-108 -539h-187z" />
    <glyph glyph-name="Rho" unicode="&#x3a1;" horiz-adv-x="639" 
d="M440 700q96 0 156.5 -60t60.5 -152q0 -122 -88 -206t-214 -84h-114l-39 -198h-186l140 700h284zM356 355q48 0 79.5 35t31.5 84q0 32 -19 50.5t-54 18.5h-84l-37 -188h83z" />
    <glyph glyph-name="Sigma" unicode="&#x3a3;" horiz-adv-x="576" 
d="M617 700l-31 -158h-243l108 -179l-4 -23l-156 -182h226l-31 -158h-528l8 38l297 338l-166 286l7 38h513z" />
    <glyph glyph-name="Tau" unicode="&#x3a4;" horiz-adv-x="600" 
d="M667 700l-30 -155h-188l-109 -545h-186l108 545h-192l30 155h567z" />
    <glyph glyph-name="Upsilon" unicode="&#x3a5;" horiz-adv-x="693" 
d="M771 700l-329 -424l-55 -276h-189l55 277l-158 423h194l82 -258l186 258h214z" />
    <glyph glyph-name="Phi" unicode="&#x3a6;" horiz-adv-x="868" 
d="M858 398q0 -98 -50.5 -179t-137.5 -128.5t-194 -56.5l-15 -74h-179l15 74q-119 14 -187 91t-68 182q0 99 51 180t137.5 128.5t194.5 56.5l14 68h177l-14 -68q121 -11 188.5 -89t67.5 -185zM502 198q37 4 69 20.5t54 42.5t35 58.5t13 67.5q0 32 -12 57.5t-36.5 43.5
t-59.5 23zM227 318q0 -31 12 -56.5t37 -42.5t60 -21l62 312q-74 -9 -122.5 -64.5t-48.5 -127.5z" />
    <glyph glyph-name="Chi" unicode="&#x3a7;" horiz-adv-x="650" 
d="M727 700l-269 -343l140 -357h-203l-73 208l-157 -208h-221l288 370l-133 330h199l68 -187l140 187h221z" />
    <glyph glyph-name="Psi" unicode="&#x3a8;" horiz-adv-x="838" 
d="M696 700h185l-55 -278q-24 -121 -117.5 -193.5t-220.5 -72.5l-31 -156h-187l32 156q-106 3 -169.5 65.5t-63.5 160.5v12.5t1 14t2 15.5t4 22t5.5 28t7.5 38.5t9.5 48l12.5 62.5t15 77h185q-10 -52 -26 -130q-21 -107 -25.5 -131t-4.5 -35q0 -19 5.5 -33.5t16 -24
t26.5 -15t37 -5.5l75 374h177l-75 -374h1q48 0 81 28t43 77z" />
    <glyph glyph-name="uni03A9" unicode="&#x3a9;" horiz-adv-x="868" 
d="M833 429q0 -150 -127 -270h93l-32 -159h-346l29 148q81 34 135 104t54 147q0 63 -43.5 104t-111.5 41q-61 0 -114 -30.5t-84 -82t-31 -111.5q0 -54 27 -99.5t76 -71.5l-29 -149h-337l32 159h104q-54 84 -54 180q0 81 36 153t96 121t138.5 77t162.5 28q139 0 232.5 -81
t93.5 -208z" />
    <glyph glyph-name="Iotadieresis" unicode="&#x3aa;" horiz-adv-x="327" 
d="M55 762l31 155h167l-31 -155h-167zM301 762l31 155h166l-31 -155h-166zM16 0l140 700h187l-140 -700h-187z" />
    <glyph glyph-name="Upsilondieresis" unicode="&#x3ab;" horiz-adv-x="693" 
d="M433 917l-31 -155h-171l31 155h171zM686 917l-31 -155h-172l31 155h172zM771 700l-329 -424l-55 -276h-189l55 277l-158 423h194l82 -258l186 258h214z" />
    <glyph glyph-name="alphatonos" unicode="&#x3ac;" horiz-adv-x="692" 
d="M595 762l-140 -162h-131l87 162h184zM549 540h137l-108 -540h-128l-9 41q-81 -58 -178 -58q-103 0 -170.5 66.5t-67.5 174.5q0 94 45 171t119.5 119.5t161.5 42.5q102 0 165 -69zM310 144q59 0 103.5 46t44.5 107q0 45 -29 72.5t-75 27.5q-60 0 -103.5 -45.5
t-43.5 -107.5q0 -22 7.5 -41t20.5 -31.5t32.5 -20t42.5 -7.5z" />
    <glyph glyph-name="epsilontonos" unicode="&#x3ad;" horiz-adv-x="514" 
d="M525 762l-139 -162h-132l87 162h184zM307 557q93 0 151.5 -49.5t48.5 -127.5h-160q2 51 -50 51q-31 0 -48 -14t-17 -37q0 -38 52 -38h56l-23 -119h-64q-30 0 -50.5 -15.5t-20.5 -41.5q0 -19 14 -30.5t39 -11.5q33 0 54 16.5t27 44.5h166q-16 -97 -88 -150t-176 -53
q-90 0 -149.5 46.5t-59.5 120.5q0 100 98 147q-40 35 -40 86q0 81 69 128t171 47z" />
    <glyph glyph-name="etatonos" unicode="&#x3ae;" horiz-adv-x="642" 
d="M609 762l-140 -162h-132l88 162h184zM438 557q78 0 122.5 -48t44.5 -129q0 -8 -0.5 -15t-2 -19.5t-3.5 -24.5t-6.5 -36.5t-9.5 -49.5l-14 -70t-18.5 -91t-24.5 -119.5t-30 -149.5h-179q27 133 61 303q42 209 42 225q0 65 -59 65q-45 0 -75.5 -28.5t-42.5 -80.5l-57 -289
h-179l108 540h125l14 -55q77 72 184 72z" />
    <glyph glyph-name="iotatonos" unicode="&#x3af;" horiz-adv-x="369" 
d="M129 600l87 162h184l-139 -162h-132zM225 -2q-89 0 -137.5 43.5t-48.5 121.5q0 7 0.5 13t1 12.5t2 16.5t3 19.5t5 27t7 34t9 45t11 55t14 70t17.5 84.5h179q-65 -321 -65 -333q0 -51 62 -51h51l-31 -158h-80z" />
    <glyph glyph-name="upsilondieresistonos" unicode="&#x3b0;" horiz-adv-x="634" 
d="M284 600l70 162h160l-106 -162h-124zM138 628l21 109h124l-22 -109h-123zM501 628l21 109h123l-21 -109h-123zM268 -17q-68 0 -120 26t-79.5 72.5t-27.5 107.5q0 6 0.5 12l1 12t2 16t3 18.5l4.5 25.5t6 31.5t8.5 41.5t10.5 51.5t13.5 65t15.5 77.5h179q-14 -73 -34 -172
q-29 -144 -29 -161q0 -62 69 -62q39 0 67.5 28.5t37.5 74.5l59 292h179l-64 -321q-22 -112 -102.5 -174t-199.5 -62z" />
    <glyph glyph-name="alpha" unicode="&#x3b1;" horiz-adv-x="692" 
d="M549 540h137l-108 -540h-128l-9 41q-81 -58 -178 -58q-103 0 -170.5 66.5t-67.5 174.5q0 94 45 171t119.5 119.5t161.5 42.5q102 0 165 -69zM310 144q59 0 103.5 46t44.5 107q0 45 -29 72.5t-75 27.5q-60 0 -103.5 -45.5t-43.5 -107.5q0 -22 7.5 -41t20.5 -31.5t32.5 -20
t42.5 -7.5z" />
    <glyph glyph-name="beta" unicode="&#x3b2;" horiz-adv-x="628" 
d="M519 380q71 -46 71 -132q0 -118 -85.5 -188t-216.5 -70q-64 0 -107 17l-40 -202h-174l138 685q25 127 103 193.5t201 66.5q94 0 155.5 -51.5t61.5 -132.5q0 -58 -28 -106.5t-79 -79.5zM360 450q45 0 76.5 27.5t31.5 67.5q0 29 -21 47t-52 18q-93 0 -118 -124l-65 -329
q42 -17 87 -17q56 0 90 29t34 75q0 33 -22.5 50t-64.5 17h-47l27 139h44z" />
    <glyph glyph-name="gamma" unicode="&#x3b3;" horiz-adv-x="596" 
d="M648 540l-308 -508l-45 -227h-177l46 228l-110 507h176l50 -329l175 329h193z" />
    <glyph glyph-name="delta" unicode="&#x3b4;" horiz-adv-x="621" 
d="M632 716l-28 -140h-222q102 -52 156 -126.5t54 -160.5q0 -85 -44 -156t-120 -110.5t-166 -39.5q-107 0 -174 65t-67 166q0 78 39 141.5t104.5 98.5t144.5 35h1q-84 54 -194 88l27 139h489zM423 278q0 27 -11.5 47.5t-32.5 32.5t-50 12q-28 0 -54 -12t-44 -31.5t-29 -45
t-11 -53.5q0 -41 26 -66.5t68 -25.5q38 0 69.5 18.5t50 51t18.5 72.5z" />
    <glyph glyph-name="epsilon" unicode="&#x3b5;" horiz-adv-x="514" 
d="M507 380h-160q2 51 -50 51q-31 0 -48 -14t-17 -37q0 -38 52 -38h56l-23 -119h-64q-30 0 -50.5 -15.5t-20.5 -41.5q0 -13 6 -22.5t18.5 -14.5t28.5 -5q33 0 54 16.5t27 44.5h166q-16 -97 -88 -150t-176 -53q-90 0 -149.5 46.5t-59.5 120.5q0 100 98 147q-40 35 -40 86
q0 81 69 128t171 47q93 0 151.5 -49.5t48.5 -127.5z" />
    <glyph glyph-name="zeta" unicode="&#x3b6;" horiz-adv-x="528" 
d="M603 634q-193 -125 -295.5 -227.5t-102.5 -184.5q0 -33 18 -55t45.5 -32t59.5 -23t59.5 -26.5t46 -42t18.5 -70.5q0 -65 -44 -168h-168q27 64 27 96q0 25 -14 43.5t-36.5 30t-49.5 22t-54 23.5t-49.5 30t-36.5 46.5t-14 68.5q0 208 302 412h-208l31 158h484z" />
    <glyph glyph-name="eta" unicode="&#x3b7;" horiz-adv-x="642" 
d="M438 557q78 0 122.5 -48t44.5 -129q0 -8 -0.5 -15t-2 -19.5t-3.5 -24.5t-6.5 -36.5t-9.5 -49.5l-14 -70t-18.5 -91t-24.5 -119.5t-30 -149.5h-179q27 133 61 303q42 209 42 225q0 65 -59 65q-45 0 -75.5 -28.5t-42.5 -80.5l-57 -289h-179l108 540h125l14 -55
q77 72 184 72z" />
    <glyph glyph-name="theta" unicode="&#x3b8;" horiz-adv-x="707" 
d="M694 434q1 -90 -26 -172t-76 -144t-123 -98.5t-161 -36.5q-125 0 -195 81t-70 213q0 89 27.5 169.5t76.5 141.5t122 96.5t159 35.5q123 0 194 -79t72 -207zM407 559q-58 0 -101 -39.5t-66 -103.5h280v6q0 66 -29 101.5t-84 35.5zM330 144q58 0 101 40t66 105h-280v-6
q0 -44 12.5 -75t37.5 -47.5t63 -16.5z" />
    <glyph glyph-name="iota" unicode="&#x3b9;" horiz-adv-x="369" 
d="M225 -2q-89 0 -137.5 43.5t-48.5 121.5q0 7 0.5 13t1 12.5t2 16.5t3 19.5t5 27t7 34t9 45t11 55t14 70t17.5 84.5h179q-65 -321 -65 -333q0 -51 62 -51h51l-31 -158h-80z" />
    <glyph glyph-name="kappa" unicode="&#x3ba;" horiz-adv-x="581" 
d="M629 540l-225 -263l135 -277h-191l-114 242l-48 -242h-179l108 540h179l-40 -198l162 198h213z" />
    <glyph glyph-name="lambda" unicode="&#x3bb;" horiz-adv-x="594" 
d="M538 0h-181l-43 298l-168 -298h-202l320 509q-9 42 -29 59.5t-63 17.5h-43l31 153h51q68 0 110.5 -21t68.5 -68.5t41 -131.5z" />
    <glyph glyph-name="uni03BC" unicode="&#x3bc;" horiz-adv-x="659" 
d="M474 540h179l-108 -540h-119l-20 65q-73 -74 -168 -74q-33 0 -59 13l-39 -199h-172l147 735h179q-9 -41 -22 -107q-39 -191 -39 -214q0 -64 60 -64q49 0 83 31t44 86z" />
    <glyph glyph-name="nu" unicode="&#x3bd;" horiz-adv-x="599" 
d="M459 540h192l-324 -540h-163l-111 540h188l42 -329z" />
    <glyph glyph-name="xi" unicode="&#x3be;" horiz-adv-x="545" 
d="M613 524h-180q4 20 -2.5 35.5t-21 23t-34.5 7.5q-18 0 -34 -6t-28 -17t-19 -26t-7 -33q0 -25 17 -40.5t47 -15.5h59l-29 -145h-60q-32 0 -56 -13t-37 -35t-13 -48q0 -15 6.5 -27.5t14.5 -21t25 -17.5t28 -13.5l33 -13.5q28 -10 45 -17.5t40 -21.5t36.5 -28.5t23 -37
t9.5 -49.5q0 -55 -43 -159h-175q28 59 28 95q0 20 -8.5 35t-28.5 27.5t-35 19.5t-45 19q-34 14 -58.5 28t-48 34t-35.5 48t-12 62q0 74 40.5 129t111.5 87q-65 46 -65 125q0 67 41.5 119.5t107.5 79.5t143 27q111 0 173.5 -59t45.5 -157z" />
    <glyph glyph-name="omicron" unicode="&#x3bf;" horiz-adv-x="653" 
d="M287 -17q-113 0 -187 69t-74 177q0 92 45.5 167.5t123.5 118.5t172 43q113 0 187 -69t74 -178q0 -92 -45.5 -167.5t-124 -118t-171.5 -42.5zM303 145q61 0 103 45.5t42 108.5q0 44 -26.5 70t-70.5 26q-62 0 -103.5 -45.5t-41.5 -107.5q0 -29 11.5 -51t33.5 -34t52 -12z
" />
    <glyph glyph-name="pi" unicode="&#x3c0;" horiz-adv-x="633" 
d="M115 540h512l-108 -540h-178l77 388h-156l-77 -388h-178z" />
    <glyph glyph-name="rho" unicode="&#x3c1;" horiz-adv-x="675" 
d="M390 558q112 0 186 -69t74 -178q0 -91 -45.5 -167t-122 -119t-164.5 -43q-78 0 -138 43l-44 -220h-178l91 459q28 140 118.5 217t222.5 77zM326 145q40 0 73.5 21.5t52.5 56.5t19 76q0 44 -26.5 70t-71.5 26q-61 0 -103 -45.5t-42 -108.5q0 -43 26.5 -69.5t71.5 -26.5z
" />
    <glyph glyph-name="uni03C2" unicode="&#x3c2;" horiz-adv-x="607" 
d="M304 -195q26 64 26 93q0 17 -7 30.5t-16 22t-27 17.5t-31 13.5t-37 12.5q-33 10 -54 19t-49 26.5t-44.5 38.5t-28.5 54.5t-12 76.5q0 150 98 249t250 99q110 0 176.5 -65t65.5 -171h-175q-8 37 -33 55.5t-61 18.5q-59 0 -98.5 -47.5t-39.5 -108.5q0 -25 10 -43.5
t31 -31.5t42 -21t55 -18q29 -8 49 -15t44.5 -20.5t39 -29t24.5 -39.5t10 -54q0 -57 -40 -162h-168z" />
    <glyph glyph-name="sigma" unicode="&#x3c3;" horiz-adv-x="701" 
d="M735 541l-31 -153h-106q22 -45 22 -99q0 -85 -46 -155.5t-124 -110.5t-169 -40q-114 0 -184.5 69t-70.5 175q0 136 95 225t240 89h374zM306 143q60 0 100 43t40 104q0 30 -11.5 52.5t-34 34.5t-53.5 12q-39 0 -71.5 -19.5t-50.5 -53t-18 -73.5q0 -45 26.5 -72.5
t72.5 -27.5z" />
    <glyph glyph-name="tau" unicode="&#x3c4;" horiz-adv-x="497" 
d="M485 387h-137q-34 -169 -34 -182q0 -51 62 -51h51l-31 -156h-80q-89 0 -137 43.5t-48 121.5q0 17 3 39.5t9.5 55.5t25.5 129h-134l31 153h450z" />
    <glyph glyph-name="upsilon" unicode="&#x3c5;" horiz-adv-x="634" 
d="M268 -17q-68 0 -120 26t-79.5 72.5t-27.5 107.5q0 6 0.5 12l1 12t2 16t3 18.5l4.5 25.5t6 31.5t8.5 41.5t10.5 51.5t13.5 65t15.5 77.5h179q-14 -73 -34 -172q-29 -144 -29 -161q0 -62 69 -62q39 0 67.5 28.5t37.5 74.5l59 292h179l-64 -321q-22 -112 -102.5 -174
t-199.5 -62z" />
    <glyph glyph-name="phi" unicode="&#x3c6;" horiz-adv-x="787" 
d="M761 310q0 -138 -94.5 -227t-242.5 -97l-34 -170h-171l34 171q-100 8 -164 75.5t-64 167.5q0 108 72 197.5t182 118.5l25 -144q-48 -21 -76.5 -64.5t-28.5 -92.5q0 -42 25 -69.5t67 -33.5l81 403h138q74 0 131.5 -30t88.5 -83.5t31 -121.5zM447 142q59 7 100 50t41 100
q0 40 -24.5 65.5t-67.5 30.5z" />
    <glyph glyph-name="chi" unicode="&#x3c7;" horiz-adv-x="571" 
d="M620 540l-221 -262l125 -278h-189l-61 154l-119 -154h-213l236 287l-116 253h189l56 -138l108 138h205z" />
    <glyph glyph-name="psi" unicode="&#x3c8;" horiz-adv-x="820" 
d="M649 540h172l-59 -298q-24 -118 -104 -187.5t-193 -69.5h-20l-35 -175h-186l35 175h-3q-97 0 -155 60t-58 155q0 8 0.5 15.5t1 15.5t3 21.5t5 27.5t8 41t11 53t15 73t18.5 93h172q-60 -299 -60 -312q0 -23 9.5 -41.5t28 -29.5t42.5 -11h1l79 393h172l-79 -393h2
q42 0 76 30t43 74z" />
    <glyph glyph-name="omega" unicode="&#x3c9;" horiz-adv-x="859" 
d="M816 540q18 -71 18 -164q0 -106 -29.5 -193.5t-90 -142.5t-141.5 -55q-69 0 -113 37t-52 102q-32 -64 -86 -101.5t-117 -37.5q-85 0 -132.5 57t-47.5 151q-1 153 124 347h180q-50 -73 -85.5 -160t-35.5 -152q0 -77 51 -77q31 0 53 27t32 76l35 179h165q-7 -36 -17 -90
q-16 -77 -19 -95.5t-3 -31.5q0 -31 12.5 -48t36.5 -17q22 0 40 14.5t30 38.5t20 55t11.5 62.5t3.5 63.5q0 76 -21 155h178z" />
    <glyph glyph-name="iotadieresis" unicode="&#x3ca;" horiz-adv-x="369" 
d="M4 608l30 152h169l-31 -152h-168zM254 608l30 152h168l-30 -152h-168zM225 -2q-89 0 -137.5 43.5t-48.5 121.5q0 7 0.5 13t1 12.5t2 16.5t3 19.5t5 27t7 34t9 45t11 55t14 70t17.5 84.5h179q-65 -321 -65 -333q0 -51 62 -51h51l-31 -158h-80z" />
    <glyph glyph-name="upsilondieresis" unicode="&#x3cb;" horiz-adv-x="634" 
d="M175 608l30 152h168l-30 -152h-168zM424 608l30 152h169l-31 -152h-168zM268 -17q-68 0 -120 26t-79.5 72.5t-27.5 107.5q0 6 0.5 12l1 12t2 16t3 18.5l4.5 25.5t6 31.5t8.5 41.5t10.5 51.5t13.5 65t15.5 77.5h179q-14 -73 -34 -172q-29 -144 -29 -161q0 -62 69 -62
q39 0 67.5 28.5t37.5 74.5l59 292h179l-64 -321q-22 -112 -102.5 -174t-199.5 -62z" />
    <glyph glyph-name="omicrontonos" unicode="&#x3cc;" horiz-adv-x="653" 
d="M309 600l88 162h184l-140 -162h-132zM287 -17q-113 0 -187 69t-74 177q0 92 45.5 167.5t123.5 118.5t172 43q113 0 187 -69t74 -178q0 -92 -45.5 -167.5t-124 -118t-171.5 -42.5zM303 145q61 0 103 45.5t42 108.5q0 44 -26.5 70t-70.5 26q-62 0 -103.5 -45.5
t-41.5 -108.5q0 -28 11.5 -50t33.5 -34t52 -12z" />
    <glyph glyph-name="upsilontonos" unicode="&#x3cd;" horiz-adv-x="634" 
d="M299 600l88 162h184l-140 -162h-132zM268 -17q-68 0 -120 26t-79.5 72.5t-27.5 107.5q0 6 0.5 12l1 12t2 16t3 18.5l4.5 25.5t6 31.5t8.5 41.5t10.5 51.5t13.5 65t15.5 77.5h179q-14 -73 -34 -172q-29 -144 -29 -161q0 -62 69 -62q39 0 67.5 28.5t37.5 74.5l59 292h179
l-64 -321q-22 -112 -102.5 -174t-199.5 -62z" />
    <glyph glyph-name="omegatonos" unicode="&#x3ce;" horiz-adv-x="859" 
d="M685 762l-140 -162h-131l87 162h184zM816 540q18 -71 18 -164q0 -106 -29.5 -193.5t-90 -142.5t-141.5 -55q-69 0 -113 37t-52 102q-32 -64 -86 -101.5t-117 -37.5q-85 0 -132.5 57t-47.5 151q-1 153 124 347h180q-50 -73 -85.5 -160t-35.5 -152q0 -77 51 -77q31 0 53 27
t32 76l35 179h165q-7 -36 -17 -90q-16 -77 -19 -95.5t-3 -31.5q0 -31 12.5 -48t36.5 -17q19 0 34.5 10.5t27 28t20 40.5t13.5 49.5t7.5 53t2.5 52.5q0 76 -21 155h178z" />
    <glyph glyph-name="uni0401" unicode="&#x401;" horiz-adv-x="563" 
d="M381 920l-30 -152h-168l30 152h168zM462 920h168l-30 -152h-168zM16 0l140 700h442l-31 -154h-257l-24 -120h231l-29 -148h-232l-25 -122h267l-31 -156h-451z" />
    <glyph glyph-name="uni0402" unicode="&#x402;" horiz-adv-x="766" 
d="M536 466q89 0 143.5 -54t54.5 -141q0 -124 -86.5 -202t-217.5 -78h-21l33 160h12q42 0 70 27.5t28 67.5q0 27 -18 44t-49 17q-28 0 -57.5 -14t-51.5 -38l-51 -255h-181l109 546h-183l30 154h556l-31 -154h-191l-22 -110q58 30 124 30z" />
    <glyph glyph-name="uni0403" unicode="&#x403;" horiz-adv-x="510" 
d="M557 914l-152 -152h-131l95 152h188zM576 700l-32 -159h-233l-108 -541h-187l140 700h420z" />
    <glyph glyph-name="uni0404" unicode="&#x404;" horiz-adv-x="784" 
d="M379 158q62 0 114 35t81 95h188q-43 -138 -153.5 -220.5t-253.5 -82.5q-139 0 -225.5 85.5t-86.5 216.5q0 117 57.5 215.5t157.5 155.5t219 57q135 0 219 -80t89 -212h-187q-8 55 -46 87t-97 32q-42 0 -80.5 -16t-67 -42.5t-47.5 -62.5h234l-28 -142h-235q8 -55 47.5 -88
t100.5 -33z" />
    <glyph glyph-name="uni0405" unicode="&#x405;" horiz-adv-x="625" 
d="M264 -17q-113 0 -178.5 52.5t-65.5 143.5q0 23 5 48h191q-2 -8 -2 -16q0 -31 20 -48.5t56 -17.5q26 0 48 8.5t36 26.5t14 43q0 15 -8.5 26t-26.5 19t-33.5 13t-43.5 12q-24 7 -38 11t-36.5 12t-36.5 16t-30.5 21.5t-26 28t-16 36t-6.5 45.5q0 83 39 140.5t106.5 85.5
t157.5 28q70 0 121 -21t78.5 -62.5t27.5 -99.5q0 -24 -4 -46h-185q1 8 1 14q0 27 -17.5 42.5t-49.5 15.5q-37 0 -60 -16.5t-23 -47.5q0 -13 7.5 -23t25 -18t32 -13t42.5 -13q19 -5 30 -8t30 -9.5t30.5 -11.5t28 -14t26.5 -18t21 -21.5t17.5 -26t10.5 -31.5t4 -38
q0 -127 -88 -197.5t-231 -70.5z" />
    <glyph glyph-name="uni0406" unicode="&#x406;" horiz-adv-x="327" 
d="M16 0l140 700h187l-140 -700h-187z" />
    <glyph glyph-name="uni0407" unicode="&#x407;" horiz-adv-x="327" 
d="M55 762l31 155h167l-31 -155h-167zM301 762l31 155h166l-31 -155h-166zM16 0l140 700h187l-140 -700h-187z" />
    <glyph glyph-name="uni0408" unicode="&#x408;" horiz-adv-x="617" 
d="M244 -17q-109 0 -173.5 57.5t-65.5 154.5q0 36 7 70h188q-5 -23 -5 -40q0 -69 68 -69q37 0 64 25.5t36 68.5l90 450h186l-96 -477q-22 -113 -100.5 -176.5t-198.5 -63.5z" />
    <glyph glyph-name="uni0409" unicode="&#x409;" horiz-adv-x="1085" 
d="M840 496q66 0 117 -28t78.5 -77t27.5 -110q0 -122 -84.5 -201.5t-213.5 -79.5h-301l108 541h-144l-86 -278q-42 -139 -116 -202t-192 -63h-62l34 173h36q43 0 71 26t46 83l134 420h491l-40 -204h96zM763 156q47 0 80 32.5t33 78.5q0 33 -21.5 53t-58.5 20h-84l-36 -184
h87z" />
    <glyph glyph-name="uni040A" unicode="&#x40a;" horiz-adv-x="1024" 
d="M788 468q94 0 153.5 -58t59.5 -146q0 -116 -80.5 -190t-202.5 -74h-309l57 284h-207l-56 -284h-187l140 700h187l-52 -259h206l52 259h186l-47 -232h100zM717 155q43 0 70.5 27.5t27.5 68.5q0 29 -18 45.5t-51 16.5h-90l-32 -158h93z" />
    <glyph glyph-name="uni040B" unicode="&#x40b;" horiz-adv-x="778" 
d="M526 461q95 0 152 -58t57 -153q0 -7 -0.5 -14l-1 -14t-2.5 -18.5t-4 -21.5t-6 -30.5t-7.5 -37.5t-10 -50.5t-12.5 -63.5h-189q42 208 42 224q0 37 -19.5 57t-57.5 20q-31 0 -75 -14l-57 -287h-187l109 548h-187l30 152h564l-30 -152h-190l-21 -103q55 16 103 16z" />
    <glyph glyph-name="uni040E" unicode="&#x40e;" horiz-adv-x="661" 
d="M598 868l-25 -128h-317l26 128h316zM532 700h207l-287 -478q-55 -91 -105 -139.5t-104.5 -67t-134.5 -18.5h-64l34 169h48q41 0 67 10.5t48 36.5l-157 487h203l81 -292z" />
    <glyph glyph-name="uni040F" unicode="&#x40f;" horiz-adv-x="709" 
d="M725 700l-140 -700h-193l-25 -127h-178l25 127h-198l140 700h187l-109 -539h196l108 539h187z" />
    <glyph glyph-name="uni0410" unicode="&#x410;" horiz-adv-x="737" 
d="M488 0l-16 117h-253l-63 -117h-208l414 700h181l141 -700h-196zM417 487l-125 -229h161z" />
    <glyph glyph-name="uni0411" unicode="&#x411;" horiz-adv-x="625" 
d="M593 545h-289l-20 -98h112q58 0 103 -24.5t68.5 -67t23.5 -96.5q0 -112 -75.5 -185.5t-191.5 -73.5h-308l140 700h468zM341 299h-87l-30 -150h90q37 0 62.5 26.5t25.5 65.5q0 26 -16 42t-45 16z" />
    <glyph glyph-name="uni0412" unicode="&#x412;" horiz-adv-x="648" 
d="M527 366q36 -20 55 -55.5t19 -79.5q0 -101 -77.5 -166t-184.5 -65h-323l140 700h301q55 0 98.5 -21t66.5 -57t23 -80q0 -37 -15.5 -71.5t-41.5 -60.5t-61 -44zM380 423q35 0 58 23t23 59q0 17 -6.5 29t-19.5 18.5t-31 6.5h-99l-27 -136h102zM333 150q18 0 34 6.5t28 18
t18.5 27.5t6.5 34q0 26 -15.5 41.5t-43.5 15.5h-109l-29 -143h110z" />
    <glyph glyph-name="uni0413" unicode="&#x413;" horiz-adv-x="510" 
d="M576 700l-32 -159h-233l-108 -541h-187l140 700h420z" />
    <glyph glyph-name="uni0414" unicode="&#x414;" horiz-adv-x="777" 
d="M759 700l-108 -541h69l-56 -282h-171l25 123h-377l-24 -123h-170l56 282h59q43 35 74 124.5t122 416.5h501zM394 543q-39 -160 -70 -249t-64 -135h208l77 384h-151z" />
    <glyph glyph-name="uni0415" unicode="&#x415;" horiz-adv-x="563" 
d="M567 546h-257l-24 -120h231l-29 -148h-232l-25 -122h267l-31 -156h-451l140 700h442z" />
    <glyph glyph-name="uni0416" unicode="&#x416;" horiz-adv-x="1001" 
d="M1082 700l-296 -351l165 -349h-192l-150 324l-64 -324h-183l63 319l-258 -319h-234l325 387l-144 313h197l132 -294l59 294h183l-58 -288l235 288h220z" />
    <glyph glyph-name="uni0417" unicode="&#x417;" horiz-adv-x="596" 
d="M481 360q72 -46 72 -129q0 -75 -42.5 -132.5t-111 -86.5t-151.5 -29q-65 0 -117.5 22t-85 66.5t-33.5 104.5q0 21 5 44h182q-1 -11 -1 -18q0 -29 19.5 -45.5t49.5 -16.5q42 0 71 25.5t29 63.5q0 25 -20.5 40t-56.5 15h-58l30 149h56q40 0 65.5 22.5t25.5 55.5
q0 14 -4.5 24.5t-12.5 17.5t-18.5 10.5t-23.5 3.5q-20 0 -38 -8t-31.5 -24.5t-17.5 -39.5h-181q12 72 57 124t105.5 75t129.5 23q90 0 154 -47.5t64 -129.5q1 -113 -111 -180z" />
    <glyph glyph-name="uni0418" unicode="&#x418;" horiz-adv-x="749" 
d="M622 700h144l-140 -700h-184l75 373l-361 -373h-140l140 700h183l-75 -372z" />
    <glyph glyph-name="uni0419" unicode="&#x419;" horiz-adv-x="749" 
d="M661 868l-26 -128h-316l25 128h317zM622 700h144l-140 -700h-184l75 373l-361 -373h-140l140 700h183l-75 -372z" />
    <glyph glyph-name="uni041A" unicode="&#x41a;" horiz-adv-x="670" 
d="M749 700l-296 -342l178 -358h-207l-157 328l-66 -328h-185l140 700h185l-57 -288l241 288h224z" />
    <glyph glyph-name="uni041B" unicode="&#x41b;" horiz-adv-x="768" 
d="M293 700h491l-140 -700h-185l108 541h-139l-86 -278q-43 -139 -116.5 -202t-191.5 -63h-62l34 173h36q43 0 71 26t46 83z" />
    <glyph glyph-name="uni041C" unicode="&#x41c;" horiz-adv-x="980" 
d="M744 700h188l-34 -700h-183l26 405l-272 -406h-52l-108 408l-140 -407h-193l246 700h183l93 -380z" />
    <glyph glyph-name="uni041D" unicode="&#x41d;" horiz-adv-x="732" 
d="M561 700h187l-140 -700h-187l56 280h-218l-56 -280h-187l140 700h187l-53 -262h219z" />
    <glyph glyph-name="uni041E" unicode="&#x41e;" horiz-adv-x="831" 
d="M374 -17q-147 0 -238 87.5t-91 223.5q0 121 59.5 218.5t161.5 151t225 53.5q146 0 236.5 -87.5t90.5 -222.5q0 -122 -59.5 -219.5t-160.5 -151t-224 -53.5zM399 156q97 0 161.5 70t64.5 163q0 47 -20 82t-56.5 54t-84.5 19q-95 0 -160.5 -70t-65.5 -163q0 -70 44 -112.5
t117 -42.5z" />
    <glyph glyph-name="uni041F" unicode="&#x41f;" horiz-adv-x="717" 
d="M156 700h577l-140 -700h-187l108 539h-203l-108 -539h-187z" />
    <glyph glyph-name="uni0420" unicode="&#x420;" horiz-adv-x="639" 
d="M440 700q96 0 156.5 -60t60.5 -152q0 -122 -88 -206t-214 -84h-114l-39 -198h-186l140 700h284zM356 355q48 0 79.5 35t31.5 84q0 32 -19 50.5t-54 18.5h-84l-37 -188h83z" />
    <glyph glyph-name="uni0421" unicode="&#x421;" horiz-adv-x="781" 
d="M357 -17q-138 0 -225 87.5t-87 220.5q0 119 58 217t157.5 153.5t219.5 55.5q131 0 219 -85.5t84 -209.5h-188q-6 37 -24.5 64t-48 42t-67.5 15q-90 0 -154 -72t-64 -166q0 -44 18 -77.5t51.5 -52t77.5 -18.5q62 0 112 35.5t75 95.5h189q-45 -147 -152.5 -226t-250.5 -79z
" />
    <glyph glyph-name="uni0422" unicode="&#x422;" horiz-adv-x="600" 
d="M667 700l-30 -155h-188l-109 -545h-186l108 545h-192l30 155h567z" />
    <glyph glyph-name="uni0423" unicode="&#x423;" horiz-adv-x="661" 
d="M532 700h207l-287 -478q-55 -91 -105 -139.5t-104.5 -67t-134.5 -18.5h-64l34 169h48q41 0 67 10.5t48 36.5l-157 487h203l81 -292z" />
    <glyph glyph-name="uni0424" unicode="&#x424;" horiz-adv-x="918" 
d="M906 410q0 -113 -54 -206.5t-147.5 -149t-210.5 -64.5l-21 -105h-182l21 106q-126 12 -196.5 97.5t-70.5 203.5q0 113 54 206t147.5 148t209.5 64l18 90h182l-18 -91q126 -12 197 -96.5t71 -202.5zM521 156q84 13 142 82t58 155q0 58 -32 99t-90 50zM230 306
q0 -58 31.5 -99t89.5 -51l78 386q-84 -13 -141.5 -81.5t-57.5 -154.5z" />
    <glyph glyph-name="uni0425" unicode="&#x425;" horiz-adv-x="650" 
d="M727 700l-269 -343l140 -357h-203l-73 208l-157 -208h-221l288 370l-133 330h199l68 -187l140 187h221z" />
    <glyph glyph-name="uni0426" unicode="&#x426;" horiz-adv-x="740" 
d="M722 700l-108 -539h68l-57 -284h-170l25 123h-464l140 700h187l-109 -539h193l108 539h187z" />
    <glyph glyph-name="uni0427" unicode="&#x427;" horiz-adv-x="666" 
d="M495 700h187l-140 -700h-187l45 224q-57 -16 -109 -16q-98 0 -158.5 57t-60.5 157q0 11 0.5 19t2.5 21.5t3.5 23.5t6 34t8.5 43t12.5 60t15.5 77h188q-8 -40 -20 -99q-26 -129 -26 -147q0 -38 21 -57.5t60 -19.5q37 0 90 18z" />
    <glyph glyph-name="uni0428" unicode="&#x428;" horiz-adv-x="985" 
d="M815 700h186l-140 -700h-845l140 700h186l-109 -539h149l108 539h177l-108 -539h148z" />
    <glyph glyph-name="uni0429" unicode="&#x429;" horiz-adv-x="1020" 
d="M1001 700l-108 -539h71l-57 -284h-170l25 123h-746l140 700h186l-109 -539h149l108 539h177l-108 -539h148l108 539h186z" />
    <glyph glyph-name="uni042A" unicode="&#x42a;" horiz-adv-x="766" 
d="M522 496q99 0 160.5 -61t61.5 -154q0 -122 -84 -201.5t-214 -79.5h-303l106 533h-181l33 167h365l-41 -204h97zM445 156q47 0 79.5 32.5t32.5 78.5q0 33 -21 53t-58 20h-84l-37 -184h88z" />
    <glyph glyph-name="uni042B" unicode="&#x42b;" horiz-adv-x="940" 
d="M394 496q100 0 161.5 -61t61.5 -154q0 -122 -84 -201.5t-214 -79.5h-303l140 700h183l-41 -204h96zM769 700h188l-140 -700h-188zM317 156q48 0 80.5 32.5t32.5 78.5q0 22 -9 38.5t-27 25.5t-43 9h-84l-37 -184h87z" />
    <glyph glyph-name="uni042C" unicode="&#x42c;" horiz-adv-x="639" 
d="M394 496q100 0 161.5 -61t61.5 -154q0 -122 -84 -201.5t-214 -79.5h-303l140 700h183l-41 -204h96zM317 156q48 0 80.5 32.5t32.5 78.5q0 33 -21 53t-58 20h-84l-37 -184h87z" />
    <glyph glyph-name="uni042D" unicode="&#x42d;" horiz-adv-x="782" 
d="M460 715q137 0 223.5 -87.5t86.5 -219.5q0 -116 -58 -213t-158 -153.5t-219 -56.5q-139 0 -222 83t-85 220h187q3 -40 21.5 -69t50 -45t72.5 -16q42 0 80 16t67 43t48 62h-234l28 142h235q-8 56 -47 88.5t-101 32.5q-58 0 -109 -32t-81 -87h-188q44 132 155 212t248 80z
" />
    <glyph glyph-name="uni042E" unicode="&#x42e;" horiz-adv-x="1088" 
d="M748 717q144 0 235.5 -86t91.5 -224q0 -122 -59.5 -219.5t-160.5 -151t-224 -53.5q-131 0 -217 77.5t-96 203.5h-64l-52 -264h-186l140 700h186l-54 -268h50q42 129 153 207t257 78zM656 157q95 0 160.5 70t65.5 163q0 69 -44 111.5t-116 42.5q-95 0 -161 -70.5
t-66 -162.5q0 -46 20 -81t56.5 -54t84.5 -19z" />
    <glyph glyph-name="uni042F" unicode="&#x42f;" horiz-adv-x="673" 
d="M371 700h318l-140 -700h-183l44 223h-62l-162 -223h-216l197 262q-28 18 -48.5 43.5t-31 57t-10.5 66.5q0 77 38.5 139t105.5 97t150 35zM343 369h97l34 172h-99q-46 0 -76 -29t-30 -73q0 -21 8.5 -37t25.5 -24.5t40 -8.5z" />
    <glyph glyph-name="uni0430" unicode="&#x430;" horiz-adv-x="692" 
d="M549 540h137l-108 -540h-128l-9 41q-81 -58 -178 -58q-103 0 -170.5 66.5t-67.5 174.5q0 94 45 171t119.5 119.5t161.5 42.5q102 0 165 -69zM310 144q59 0 103.5 46t44.5 107q0 45 -29 72.5t-75 27.5q-60 0 -103.5 -45.5t-43.5 -107.5q0 -22 7.5 -41t20.5 -31.5t32.5 -20
t42.5 -7.5z" />
    <glyph glyph-name="uni0431" unicode="&#x431;" horiz-adv-x="657" 
d="M400 517q102 0 165 -63t63 -162q0 -137 -93.5 -223t-234.5 -86q-122 0 -190 72.5t-68 199.5q0 82 21 156.5t64.5 138.5t115 111.5t165.5 68.5l240 56l-33 -168l-193 -45q-135 -32 -175 -105q74 49 153 49zM314 140q57 0 98 42.5t41 99.5q0 28 -11.5 49.5t-33.5 33.5
t-51 12q-57 0 -98.5 -41.5t-41.5 -101.5q0 -42 26.5 -68t70.5 -26z" />
    <glyph glyph-name="uni0432" unicode="&#x432;" horiz-adv-x="576" 
d="M463 276q30 -14 46 -41.5t16 -60.5q0 -74 -55.5 -124t-144.5 -50h-318l108 540h297q43 0 77 -17.5t51 -46t17 -62.5q0 -44 -25 -80.5t-69 -57.5zM327 329q16 0 29.5 7.5t21.5 20.5t8 29q0 18 -11.5 28.5t-31.5 10.5h-83l-19 -96h86zM294 123q14 0 25.5 4.5t19.5 12.5
t13 19.5t5 24.5q-1 39 -44 39h-93l-20 -100h94z" />
    <glyph glyph-name="uni0433" unicode="&#x433;" horiz-adv-x="449" 
d="M488 540l-29 -147h-198l-79 -393h-175l108 540h373z" />
    <glyph glyph-name="uni0434" unicode="&#x434;" horiz-adv-x="677" 
d="M630 540l-77 -389h67l-56 -274h-155l25 123h-312l-25 -123h-155l55 274h59q32 27 60.5 101t89.5 288h424zM330 393q-48 -182 -90 -242h144l48 242h-102z" />
    <glyph glyph-name="uni0435" unicode="&#x435;" horiz-adv-x="634" 
d="M612 320q0 -42 -14 -94h-404q0 -24 6.5 -42t19.5 -30t31 -18t42 -6q70 0 109 53h181q-41 -94 -125 -147t-189 -53q-107 0 -175 70t-68 174q0 141 94.5 236t240.5 95q112 0 181.5 -68t69.5 -170zM344 415q-43 0 -75.5 -23.5t-51.5 -62.5h227q-11 86 -100 86z" />
    <glyph glyph-name="uni0436" unicode="&#x436;" horiz-adv-x="850" 
d="M898 540l-226 -271l130 -269h-186l-112 241l-49 -241h-171l46 229l-181 -229h-211l242 297l-112 243h181l99 -221l44 221h171l-43 -217l171 217h207z" />
    <glyph glyph-name="uni0437" unicode="&#x437;" horiz-adv-x="515" 
d="M414 276q52 -35 52 -103q0 -91 -71 -140.5t-179 -49.5t-164.5 54.5t-51.5 145.5h165q-5 -29 11 -45t49 -16q21 0 37 7.5t24.5 20t8.5 28.5q0 20 -14.5 31.5t-41.5 11.5h-59l24 119h59q20 0 34 6t21 17.5t7 26.5q0 18 -12.5 28.5t-35.5 10.5q-17 0 -30.5 -6t-23 -18
t-13.5 -28h-162q5 40 25.5 74t53 57.5t76 36.5t93.5 13q84 0 140.5 -45.5t56.5 -113.5q0 -77 -79 -123z" />
    <glyph glyph-name="uni0438" unicode="&#x438;" horiz-adv-x="618" 
d="M509 540h104l-108 -540h-171l49 246l-270 -246h-106l108 540h170l-47 -242z" />
    <glyph glyph-name="uni0439" unicode="&#x439;" horiz-adv-x="618" 
d="M557 727l-24 -119h-284l24 119h284zM509 540h104l-108 -540h-171l49 246l-270 -246h-106l108 540h170l-47 -242z" />
    <glyph glyph-name="uni043A" unicode="&#x43a;" horiz-adv-x="581" 
d="M629 540l-225 -263l135 -277h-191l-114 242l-48 -242h-179l108 540h179l-40 -198l162 198h213z" />
    <glyph glyph-name="uni043B" unicode="&#x43b;" horiz-adv-x="635" 
d="M215 540h414l-108 -540h-176l78 392h-84l-53 -172q-37 -122 -99.5 -172t-165.5 -50h-56l30 150h28q69 0 95 83z" />
    <glyph glyph-name="uni043C" unicode="&#x43c;" horiz-adv-x="810" 
d="M593 540h161l-22 -540h-168l16 279l-202 -281h-43l-92 289l-99 -287h-171l192 540h151l83 -277z" />
    <glyph glyph-name="uni043D" unicode="&#x43d;" horiz-adv-x="631" 
d="M449 540h177l-108 -540h-177l39 195h-158l-39 -195h-176l108 540h176l-38 -190h158z" />
    <glyph glyph-name="uni043E" unicode="&#x43e;" horiz-adv-x="653" 
d="M287 -17q-113 0 -187 69t-74 177q0 92 45.5 167.5t123.5 118.5t172 43q113 0 187 -69t74 -178q0 -92 -45.5 -167.5t-124 -118t-171.5 -42.5zM303 145q61 0 103 45.5t42 108.5q0 44 -26.5 70t-70.5 26q-62 0 -103.5 -45.5t-41.5 -107.5q0 -29 11.5 -51t33.5 -34t52 -12z
" />
    <glyph glyph-name="uni043F" unicode="&#x43f;" horiz-adv-x="633" 
d="M115 540h512l-108 -540h-178l77 388h-156l-77 -388h-178z" />
    <glyph glyph-name="uni0440" unicode="&#x440;" horiz-adv-x="682" 
d="M421 558q103 0 170 -68.5t67 -174.5q0 -91 -43 -167t-118 -120.5t-166 -44.5q-82 0 -141 47l-45 -225h-177l147 735h120l14 -42q80 60 172 60zM329 144q60 0 103.5 45.5t43.5 108.5q0 45 -28.5 72.5t-74.5 27.5q-60 0 -104 -46t-44 -109q0 -44 29 -71.5t75 -27.5z" />
    <glyph glyph-name="uni0441" unicode="&#x441;" horiz-adv-x="626" 
d="M275 -17q-110 0 -179.5 69.5t-69.5 175.5q0 140 98.5 235t243.5 95q109 0 177 -68t67 -169h-176q-7 35 -31.5 54.5t-61.5 19.5q-58 0 -98 -46.5t-39 -107.5q0 -44 25.5 -70t66.5 -26q25 0 48 9.5t42 27.5t32 44h176q-35 -115 -121 -179t-200 -64z" />
    <glyph glyph-name="uni0442" unicode="&#x442;" horiz-adv-x="544" 
d="M583 540l-30 -149h-170l-78 -391h-175l78 391h-171l30 149h516z" />
    <glyph glyph-name="uni0443" unicode="&#x443;" horiz-adv-x="615" 
d="M474 540h196l-336 -538q-74 -117 -136.5 -159t-163.5 -42h-74l31 155h46q53 0 81.5 18t59.5 71l-125 495h186l62 -308z" />
    <glyph glyph-name="uni0444" unicode="&#x444;" horiz-adv-x="774" 
d="M750 311q0 -138 -96 -228t-242 -97l-31 -156h-162l31 156q-99 7 -161.5 74.5t-62.5 165.5q0 138 96 229.5t242 97.5l30 152h162l-30 -152q99 -7 161.5 -75.5t62.5 -166.5zM197 240q0 -44 24 -72.5t66 -33.5l54 271q-61 -5 -102.5 -54.5t-41.5 -110.5zM434 134
q60 5 102 53.5t42 110.5q0 44 -25 73t-68 34z" />
    <glyph glyph-name="uni0445" unicode="&#x445;" horiz-adv-x="571" 
d="M620 540l-221 -262l125 -278h-189l-61 154l-119 -154h-213l236 287l-116 253h189l56 -138l108 138h205z" />
    <glyph glyph-name="uni0446" unicode="&#x446;" horiz-adv-x="659" 
d="M612 540l-79 -391h70l-54 -272h-156l25 123h-411l108 540h177l-79 -391h144l78 391h177z" />
    <glyph glyph-name="uni0447" unicode="&#x447;" horiz-adv-x="582" 
d="M401 540h176l-108 -540h-176l33 163q-47 -12 -92 -12q-89 0 -139 47t-50 130v14t0.5 13t2.5 16.5t3.5 18.5t5 26t6 31t8.5 42t10 51h177q-34 -174 -34 -185q0 -55 62 -55q38 0 70 15z" />
    <glyph glyph-name="uni0448" unicode="&#x448;" horiz-adv-x="854" 
d="M674 540h174l-108 -540h-733l108 540h174l-79 -391h111l78 391h165l-78 -391h110z" />
    <glyph glyph-name="uni0449" unicode="&#x449;" horiz-adv-x="896" 
d="M848 540l-78 -391h70l-55 -272h-155l24 123h-647l108 540h174l-79 -391h111l78 391h165l-78 -391h110l78 391h174z" />
    <glyph glyph-name="uni044A" unicode="&#x44a;" horiz-adv-x="641" 
d="M426 400q85 0 135.5 -49t50.5 -125q0 -103 -67 -164.5t-176 -61.5h-263l80 398h-149l28 142h317l-28 -140h72zM363 134q37 0 59.5 23t22.5 58q0 25 -15 38.5t-43 13.5h-59l-27 -133h62z" />
    <glyph glyph-name="uni044B" unicode="&#x44b;" horiz-adv-x="815" 
d="M328 400q84 0 134.5 -48.5t50.5 -124.5q0 -103 -68 -165t-177 -62h-261l108 540h168l-28 -140h73zM631 540h178l-108 -540h-178zM263 134q25 0 43.5 10.5t28.5 29t10 41.5q0 25 -15 38.5t-42 13.5h-60l-27 -133h62z" />
    <glyph glyph-name="uni044C" unicode="&#x44c;" horiz-adv-x="541" 
d="M328 400q84 0 134.5 -48.5t50.5 -124.5q0 -103 -68 -165t-177 -62h-261l108 540h168l-28 -140h73zM263 134q25 0 43.5 10.5t28.5 29t10 41.5q0 25 -15 38.5t-42 13.5h-60l-27 -133h62z" />
    <glyph glyph-name="uni044D" unicode="&#x44d;" horiz-adv-x="623" 
d="M348 557q110 0 180 -70.5t70 -176.5q0 -139 -96.5 -233t-238.5 -94q-108 0 -176.5 64t-75.5 167h175q6 -38 31 -59.5t65 -21.5q42 0 74.5 22t52.5 59h-167l23 114h163q-6 37 -31 57.5t-66 20.5q-39 0 -72 -20t-53 -55h-171q30 103 116.5 164.5t196.5 61.5z" />
    <glyph glyph-name="uni044E" unicode="&#x44e;" horiz-adv-x="893" 
d="M609 557q112 0 185.5 -69t73.5 -176q0 -92 -45.5 -168t-123.5 -118.5t-172 -42.5q-99 0 -166 57.5t-79 151.5h-60l-38 -192h-177l108 540h177l-39 -193h48q24 62 69 109.5t107 74t132 26.5zM544 145q61 0 102.5 45.5t41.5 107.5q0 21 -7 39t-19.5 31t-31 20t-40.5 7
q-62 0 -103 -45t-41 -108q0 -44 26.5 -70.5t71.5 -26.5z" />
    <glyph glyph-name="uni044F" unicode="&#x44f;" horiz-adv-x="585" 
d="M275 540h304l-108 -540h-167l36 176h-60l-129 -176h-189l163 214q-30 22 -47 56t-17 73q0 85 61 141t153 56zM288 296h76l24 118h-78q-34 0 -54.5 -20t-20.5 -52q0 -21 13.5 -33.5t39.5 -12.5z" />
    <glyph glyph-name="uni0451" unicode="&#x451;" horiz-adv-x="634" 
d="M375 760l-30 -152h-169l31 152h168zM624 760l-30 -152h-168l30 152h168zM361 558q112 0 181.5 -68t69.5 -171q0 -41 -14 -93h-404q0 -24 6.5 -42t19.5 -30t31 -18t42 -6q70 0 109 53h181q-41 -94 -125 -147t-189 -53q-107 0 -175 70t-68 174q0 141 94.5 236t240.5 95z
M344 415q-43 0 -75.5 -23.5t-51.5 -62.5h227q-11 86 -100 86z" />
    <glyph glyph-name="uni0452" unicode="&#x452;" horiz-adv-x="643" 
d="M441 556q76 0 121 -47.5t45 -125.5q0 -32 -53 -289q-11 -57 -18 -90q-18 -91 -85.5 -145.5t-161.5 -54.5h-55l29 149h24q28 0 47 16t25 45q62 305 62 321q0 62 -60 62q-46 0 -77 -30.5t-42 -86.5l-56 -280h-179l117 588h-85l21 102h85l9 45h179l-9 -45h144l-21 -102h-144
l-16 -83q72 51 154 51z" />
    <glyph glyph-name="uni0453" unicode="&#x453;" horiz-adv-x="449" 
d="M509 762l-140 -162h-131l87 162h184zM7 0l108 540h373l-29 -147h-198l-79 -393h-175z" />
    <glyph glyph-name="uni0454" unicode="&#x454;" horiz-adv-x="625" 
d="M294 133q80 0 125 80h174q-31 -104 -118.5 -167t-197.5 -63t-180 71.5t-70 177.5q0 139 96 231.5t239 92.5q72 0 127 -29t87 -79.5t38 -117.5h-172q-5 24 -18.5 40.5t-34 25.5t-46.5 9q-42 0 -74 -20.5t-51 -55.5h165l-23 -115h-163q4 -25 16 -43t32.5 -28t48.5 -10z" />
    <glyph glyph-name="uni0455" unicode="&#x455;" horiz-adv-x="530" 
d="M215 -17q-93 0 -150 44t-57 117q0 17 3 34h171q-1 -7 -1 -14q0 -22 15.5 -34t41.5 -12t46 13.5t20 37.5q0 11 -6 18t-20 12.5t-25.5 8.5t-34.5 7q-18 4 -27.5 6t-27.5 7t-28 9.5t-24.5 12t-22.5 16.5t-16.5 21t-12 27.5t-3.5 33.5q0 99 72 154t186 55q91 0 146 -43.5
t55 -110.5q0 -13 -3 -28h-167q1 5 1 10q0 42 -52 42q-27 0 -45 -13t-18 -35q0 -10 5.5 -17.5t21 -13t26 -8t35.5 -7.5q21 -4 32.5 -6.5t31.5 -8t31.5 -11.5t26.5 -16.5t23 -22.5t14 -29.5t6 -38.5q0 -68 -36 -118t-96.5 -74.5t-136.5 -24.5z" />
    <glyph glyph-name="uni0456" unicode="&#x456;" horiz-adv-x="299" 
d="M126 607l31 155h180l-31 -155h-180zM7 0l108 540h179l-108 -540h-179z" />
    <glyph glyph-name="uni0457" unicode="&#x457;" horiz-adv-x="299" 
d="M12 607l31 155h165l-30 -155h-166zM253 607l30 155h166l-31 -155h-165zM7 0l108 540h179l-108 -540h-179z" />
    <glyph glyph-name="uni0458" unicode="&#x458;" horiz-adv-x="311" 
d="M136 607l31 155h180l-31 -155h-180zM-138 -203l32 159h47q34 0 55 18.5t29 53.5l102 512h179l-109 -543q-40 -200 -252 -200h-83z" />
    <glyph glyph-name="uni0459" unicode="&#x459;" horiz-adv-x="888" 
d="M673 400q85 0 136 -49t51 -125q0 -103 -67 -164.5t-177 -61.5h-262l79 393h-95l-51 -170q-36 -121 -101 -173t-168 -52h-53l30 150h28q69 0 95 83l97 309h412l-28 -140h74zM612 134q35 0 57.5 22t22.5 59q0 26 -14.5 40.5t-41.5 14.5h-63l-27 -136h66z" />
    <glyph glyph-name="uni045A" unicode="&#x45a;" horiz-adv-x="882" 
d="M669 396q85 0 135 -46t50 -120q0 -103 -69.5 -166.5t-178.5 -63.5h-265l39 199h-157l-40 -199h-176l108 540h176l-36 -182h157l37 182h175l-29 -144h74zM605 139q36 0 58 20.5t22 53.5q0 21 -14.5 33t-41.5 12h-62l-24 -119h62z" />
    <glyph glyph-name="uni045B" unicode="&#x45b;" horiz-adv-x="642" 
d="M436 557q52 0 91 -21.5t59 -60.5t20 -91q0 -8 -0.5 -15.5t-1.5 -16.5t-4 -24.5t-6 -31.5t-9 -46.5l-12 -61t-16.5 -83t-21.5 -105.5h-179q16 77 36 180q29 141 29 155q0 63 -60 63q-31 0 -55 -14t-40.5 -40t-23.5 -63l-56 -281h-179l118 593h-84l19 99h85l9 43h179
l-9 -43h144l-19 -99h-145l-16 -81q67 45 148 45z" />
    <glyph glyph-name="uni045C" unicode="&#x45c;" horiz-adv-x="581" 
d="M547 762l-140 -162h-131l87 162h184zM629 540l-225 -263l135 -277h-191l-114 242l-48 -242h-179l108 540h179l-40 -198l162 198h213z" />
    <glyph glyph-name="uni045D" unicode="&#x45d;" horiz-adv-x="618" 
d="M448 601h-131l-76 162h184zM509 540h104l-108 -540h-171l49 246l-270 -246h-106l108 540h170l-47 -242z" />
    <glyph glyph-name="uni045E" unicode="&#x45e;" horiz-adv-x="615" 
d="M543 727l-23 -119h-285l24 119h284zM474 540h196l-336 -538q-74 -117 -136.5 -159t-163.5 -42h-74l31 155h46q53 0 81.5 18t59.5 71l-125 495h186l62 -308z" />
    <glyph glyph-name="uni045F" unicode="&#x45f;" horiz-adv-x="618" 
d="M612 540l-108 -540h-163l-25 -127h-171l25 127h-163l108 540h177l-77 -384h144l76 384h177z" />
    <glyph glyph-name="uni0490" unicode="&#x490;" horiz-adv-x="510" 
d="M596 805l-53 -267h-232l-108 -538h-187l140 700h251l21 105h168z" />
    <glyph glyph-name="uni0491" unicode="&#x491;" horiz-adv-x="449" 
d="M509 645l-50 -252h-198l-79 -393h-175l108 540h216l21 105h157z" />
    <glyph glyph-name="Wgrave" unicode="&#x1e80;" horiz-adv-x="1046" 
d="M668 762h-132l-92 152h188zM924 700h202l-356 -700h-159l-69 346l-204 -346h-168l-80 700h189l37 -412l254 411h58l93 -416z" />
    <glyph glyph-name="wgrave" unicode="&#x1e81;" horiz-adv-x="861" 
d="M555 601h-132l-75 162h184zM726 540h185l-281 -540h-141l-55 245l-161 -245h-147l-69 540h183l28 -286l188 285h47l78 -295z" />
    <glyph glyph-name="Wacute" unicode="&#x1e82;" horiz-adv-x="1046" 
d="M816 914l-151 -152h-132l96 152h187zM924 700h202l-356 -700h-159l-69 346l-204 -346h-168l-80 700h189l37 -412l254 411h58l93 -416z" />
    <glyph glyph-name="wacute" unicode="&#x1e83;" horiz-adv-x="861" 
d="M680 762l-140 -162h-132l88 162h184zM726 540h185l-281 -540h-141l-55 245l-161 -245h-147l-69 540h183l28 -286l188 285h47l78 -295z" />
    <glyph glyph-name="Wdieresis" unicode="&#x1e84;" horiz-adv-x="1046" 
d="M601 917l-31 -155h-171l31 155h171zM854 917l-31 -155h-172l31 155h172zM924 700h202l-356 -700h-159l-69 346l-204 -346h-168l-80 700h189l37 -412l254 411h58l93 -416z" />
    <glyph glyph-name="wdieresis" unicode="&#x1e85;" horiz-adv-x="861" 
d="M486 760l-30 -152h-168l30 152h168zM736 760l-30 -152h-169l31 152h168zM726 540h185l-281 -540h-141l-55 245l-161 -245h-147l-69 540h183l28 -286l188 285h47l78 -295z" />
    <glyph glyph-name="uni1E9E" unicode="&#x1e9e;" horiz-adv-x="742" 
d="M747 700l-5 -25l-146 -224q52 -24 81.5 -71.5t29.5 -107.5q0 -121 -87 -196.5t-221 -75.5h-115l33 163h95q47 0 76.5 29t29.5 71q0 29 -20 46.5t-54 17.5h-83l6 30l119 183h-94q-84 0 -100 -83l-91 -457h-190l94 473q22 107 95.5 167t181.5 60h365z" />
    <glyph glyph-name="Ygrave" unicode="&#x1ef2;" horiz-adv-x="693" 
d="M500 762h-132l-92 152h188zM771 700l-329 -424l-55 -276h-189l55 277l-158 423h194l82 -258l186 258h214z" />
    <glyph glyph-name="ygrave" unicode="&#x1ef3;" horiz-adv-x="615" 
d="M435 601h-132l-76 162h184zM474 540h196l-336 -538q-74 -117 -136.5 -159t-163.5 -42h-74l31 155h46q53 0 81.5 18t59.5 71l-125 495h186l62 -308z" />
    <glyph glyph-name="endash" unicode="&#x2013;" horiz-adv-x="626" 
d="M42 199l33 161h513l-31 -161h-515z" />
    <glyph glyph-name="emdash" unicode="&#x2014;" horiz-adv-x="846" 
d="M42 199l32 161h735l-33 -161h-734z" />
    <glyph glyph-name="quoteleft" unicode="&#x2018;" horiz-adv-x="276" 
d="M76 419l31 160q16 80 72.5 128.5t135.5 54.5l-19 -88q-39 -3 -64 -26.5t-32 -57.5h88l-34 -171h-178z" />
    <glyph glyph-name="quoteright" unicode="&#x2019;" horiz-adv-x="269" 
d="M78 376l18 88q20 2 37 9.5t28.5 19t19.5 25.5t11 30h-88l35 171h178l-32 -160q-10 -53 -40 -93t-73 -62.5t-94 -27.5z" />
    <glyph glyph-name="quotesinglbase" unicode="&#x201a;" horiz-adv-x="282" 
d="M-22 -172l18 88q40 4 64.5 27t31.5 57h-87l33 171h179l-32 -160q-16 -79 -72.5 -127.5t-134.5 -55.5z" />
    <glyph glyph-name="quotedblleft" unicode="&#x201c;" horiz-adv-x="520" 
d="M76 419l31 160q16 80 72.5 128.5t135.5 54.5l-19 -88q-39 -3 -64 -26.5t-32 -57.5h88l-34 -171h-178zM320 419l31 160q16 80 72.5 128.5t135.5 54.5l-19 -88q-26 -2 -47 -14t-32.5 -30t-16.5 -40h88l-34 -171h-178z" />
    <glyph glyph-name="quotedblright" unicode="&#x201d;" horiz-adv-x="513" 
d="M78 376l18 88q20 2 37 9.5t28.5 19t19.5 25.5t11 30h-88l35 171h178l-32 -160q-10 -53 -40 -93t-73 -62.5t-94 -27.5zM322 376l18 88q20 2 37 9.5t28.5 19t19 25.5t11.5 30h-88l34 171h179l-32 -160q-16 -79 -72.5 -127.5t-134.5 -55.5z" />
    <glyph glyph-name="quotedblbase" unicode="&#x201e;" horiz-adv-x="526" 
d="M-22 -172l18 88q40 4 64.5 27t31.5 57h-87l33 171h179l-32 -160q-16 -79 -72.5 -127.5t-134.5 -55.5zM222 -172l18 88q40 4 64.5 27t31.5 57h-88l34 171h179l-32 -160q-11 -53 -40.5 -93t-72.5 -62.5t-94 -27.5z" />
    <glyph glyph-name="dagger" unicode="&#x2020;" horiz-adv-x="513" 
d="M538 542l-30 -152h-145l-87 -436h-168l87 436h-143l30 152h144l31 158h168l-32 -158h145z" />
    <glyph glyph-name="daggerdbl" unicode="&#x2021;" horiz-adv-x="544" 
d="M524 390h-144l-25 -125h145l-31 -153h-145l-32 -158h-167l31 158h-144l31 153h144l25 125h-144l30 152h144l32 158h168l-32 -158h145z" />
    <glyph glyph-name="bullet" unicode="&#x2022;" horiz-adv-x="404" 
d="M179 158q-34 0 -60.5 14t-41 39.5t-14.5 57.5q0 71 52 121.5t121 50.5q52 0 84.5 -31t32.5 -81q0 -68 -52 -119.5t-122 -51.5z" />
    <glyph glyph-name="ellipsis" unicode="&#x2026;" horiz-adv-x="746" 
d="M5 0l33 171h177l-34 -171h-176zM237 0l34 171h177l-34 -171h-177zM470 0l34 171h177l-34 -171h-177z" />
    <glyph glyph-name="perthousand" unicode="&#x2030;" horiz-adv-x="1272" 
d="M217 347q-65 0 -105.5 38.5t-40.5 97.5q0 81 59 137.5t144 56.5q65 0 105.5 -38.5t40.5 -98.5q0 -81 -59 -137t-144 -56zM106 0l534 665h139l-534 -665h-139zM236 463q24 0 42 17.5t18 42.5q0 17 -11 27.5t-30 10.5q-24 0 -42 -17.5t-18 -42.5q0 -17 11.5 -27.5
t29.5 -10.5zM614 -12q-65 0 -105.5 38.5t-40.5 97.5q0 82 59 138.5t144 56.5q65 0 106 -39t41 -98q0 -82 -59 -138t-145 -56zM1022 -12q-65 0 -105.5 38.5t-40.5 97.5q0 82 59 138.5t144 56.5q65 0 106 -39t41 -98q0 -82 -59 -138t-145 -56zM633 104q24 0 41.5 17.5
t17.5 43.5q0 17 -10.5 27t-28.5 10q-24 0 -42.5 -17t-18.5 -42q0 -17 11 -28t30 -11zM1041 104q24 0 41.5 17.5t17.5 43.5q0 17 -10.5 27t-28.5 10q-24 0 -42.5 -17t-18.5 -42q0 -17 11 -28t30 -11z" />
    <glyph glyph-name="guilsinglleft" unicode="&#x2039;" horiz-adv-x="416" 
d="M430 487l-204 -220l116 -220h-202l-114 211l3 18l199 211h202z" />
    <glyph glyph-name="guilsinglright" unicode="&#x203a;" horiz-adv-x="415" 
d="M275 487l114 -211l-3 -18l-199 -211h-201l202 220l-115 220h202z" />
    <glyph glyph-name="fraction" unicode="&#x2044;" horiz-adv-x="183" 
d="M-232 -30l556 760h125l-556 -760h-125z" />
    <glyph glyph-name="Euro" unicode="&#x20ac;" horiz-adv-x="659" 
d="M539 536q-98 0 -167 -69h244l-51 -107h-256q-9 -28 -11 -58h244l-51 -106h-170q42 -63 139 -63q62 0 110 20l-30 -150q-56 -18 -113 -18q-107 0 -181.5 57.5t-98.5 152.5h-131l51 107h71q2 30 8 58h-96l50 108h85q53 99 151.5 158.5t217.5 59.5q84 0 151 -29l-64 -140
q-42 19 -102 19z" />
    <glyph glyph-name="uni20BD" unicode="&#x20bd;" horiz-adv-x="628" 
d="M388 263h-97l-10 -49h151l-23 -112h-150l-21 -102h-167l21 102h-74l22 112h74l11 57h-73l25 123h73l55 272h257q84 0 131.5 -44.5t47.5 -118.5q0 -71 -32 -125.5t-89.5 -84.5t-131.5 -30zM474 477q0 16 -6.5 28t-19.5 19t-30 7h-74l-26 -132h76q22 0 40.5 10t29 28
t10.5 40z" />
    <glyph glyph-name="uni2113" unicode="&#x2113;" horiz-adv-x="482" 
d="M244 116q14 0 25.5 6t19 17.5t9.5 26.5h132q-15 -86 -69 -133t-135 -47q-70 0 -112 42t-42 107q0 16 4 37q-35 -12 -70 -21l27 136q36 12 70 26q28 136 47 232q16 80 69.5 123t133.5 43q70 0 111.5 -39.5t41.5 -103.5q0 -99 -78 -184.5t-205 -149.5q-15 -73 -15 -83
t4 -18t12.5 -12.5t19.5 -4.5zM284 538q-14 -70 -30 -148q117 77 117 162q0 16 -9 25.5t-26 9.5q-20 0 -33.5 -13.5t-18.5 -35.5z" />
    <glyph glyph-name="uni2116" unicode="&#x2116;" horiz-adv-x="1127" 
d="M568 666h173l-133 -666h-144l-197 372l-74 -372h-173l133 666h153l190 -358zM972 629q45 0 79.5 -19t52.5 -51.5t18 -74.5q0 -88 -63 -145.5t-155 -57.5q-68 0 -109.5 41.5t-41.5 104.5q0 87 63 144.5t156 57.5zM927 397q29 0 49.5 20.5t20.5 50.5q0 21 -13 33.5
t-35 12.5q-18 0 -34.5 -9.5t-26 -26t-9.5 -36.5t13 -32.5t35 -12.5zM696 74l28 137h330l-27 -137h-331z" />
    <glyph glyph-name="uni2117" unicode="&#x2117;" horiz-adv-x="831" 
d="M493 712q142 0 231 -85.5t89 -217.5q0 -120 -58 -217t-159.5 -151.5t-227.5 -54.5q-142 0 -230.5 85t-88.5 219q0 120 57.5 217t159 151t227.5 54zM380 83q90 0 165.5 43.5t118.5 117.5t43 160q0 47 -16 86.5t-45.5 67t-71.5 43t-93 15.5q-90 0 -165.5 -44t-118.5 -117.5
t-43 -160.5q0 -94 61.5 -152.5t164.5 -58.5zM501 530q55 0 89.5 -33.5t34.5 -84.5q0 -43 -22.5 -79.5t-61.5 -57t-86 -20.5h-63l-21 -100h-111l75 375h166zM456 347q16 0 29 7.5t20.5 20.5t7.5 29t-10 25.5t-28 9.5h-49l-19 -92h49z" />
    <glyph glyph-name="trademark" unicode="&#x2122;" horiz-adv-x="896" 
d="M440 634h-68l-37 -184h-76l37 184h-75l13 66h220zM706 700h69l-12 -250h-69l7 135l-96 -135h-18l-42 134l-46 -134h-78l89 250h68l37 -129z" />
    <glyph glyph-name="estimated" unicode="&#x212e;" horiz-adv-x="748" 
d="M726 301h-522v-182q79 -72 188 -72q61 0 118 23t96 63l72 -2q-45 -66 -124 -103.5t-162 -37.5q-92 0 -169 44.5t-121 121t-44 168.5q0 90 45 167t122 122t167 45q87 0 165 -45t124.5 -120t46.5 -159q0 -14 -2 -33zM392 601q-107 0 -188 -74v-171h376v171q-83 74 -188 74z
" />
    <glyph glyph-name="uni2150" unicode="&#x2150;" horiz-adv-x="932" 
d="M661 730h124l-556 -760h-124zM215 298h-117l63 313h-67l17 89h185zM636 401h298l-4 -18l-225 -384h-114l181 309h-155z" />
    <glyph glyph-name="uni2151" unicode="&#x2151;" horiz-adv-x="959" 
d="M660 730h124l-556 -760h-124zM214 298h-117l63 313h-67l17 89h185zM795 414q62 0 99.5 -34.5t37.5 -89.5q0 -42 -19.5 -80.5t-57.5 -87.5l-97 -122h-121l88 109q5 6 18 22q-10 -1 -21 -1q-53 0 -85 31.5t-32 80.5q0 74 55 123t135 49zM758 208q28 0 48 19.5t20 48.5
q0 19 -12.5 30.5t-34.5 11.5q-19 0 -35 -9t-25 -24.5t-9 -33.5q1 -20 13.5 -31.5t34.5 -11.5z" />
    <glyph glyph-name="uni2152" unicode="&#x2152;" horiz-adv-x="1252" 
d="M660 730h124l-556 -760h-124zM214 298h-117l63 313h-67l17 89h185zM1070 411q44 0 76.5 -20.5t49 -57t16.5 -84.5q0 -109 -60 -183.5t-159 -74.5q-66 0 -103.5 44t-37.5 117q0 109 59 184t159 75zM605 312l17 90h185l-81 -402h-117l63 312h-67zM1010 93q28 0 49 26
t30.5 60t9.5 67q0 62 -46 62q-28 0 -49 -26t-30.5 -60t-9.5 -67q0 -62 46 -62z" />
    <glyph glyph-name="uni2153" unicode="&#x2153;" horiz-adv-x="936" 
d="M660 730h124l-556 -760h-124zM214 298h-117l63 313h-67l17 89h185zM915 401l-4 -18l-105 -131q32 -12 50.5 -41t18.5 -64q0 -70 -49.5 -113t-125.5 -43q-65 0 -101 38t-27 102h102q-3 -19 7 -33t31 -14q24 0 41 17.5t17 43.5q0 17 -11 26t-31 9h-64l4 23l86 110h-135
l18 88h278z" />
    <glyph glyph-name="uni2154" unicode="&#x2154;" horiz-adv-x="1030" 
d="M759 730h124l-556 -760h-124zM360 395l-20 -96h-305l6 30q17 16 41.5 39t40 37.5t36 34t33.5 32.5t28 28.5t24 27t17.5 23.5t12 21t3.5 17q0 12 -7.5 19t-19.5 7q-36 0 -44 -48h-110q9 71 52.5 108t114.5 37q37 0 66.5 -15t45.5 -41t16 -58q0 -48 -34 -92.5t-109 -110.5
h112zM1014 401l-4 -18l-105 -131q32 -12 50.5 -41t18.5 -64q0 -70 -49.5 -113t-125.5 -43q-65 0 -101.5 38t-26.5 102h102q-3 -19 7 -33t31 -14q11 0 22 4.5t19 12.5t12.5 19.5t4.5 24.5q0 17 -11 26t-31 9h-65l4 23l87 110h-136l18 88h279z" />
    <glyph glyph-name="uni2155" unicode="&#x2155;" horiz-adv-x="949" 
d="M660 730h124l-556 -760h-124zM214 298h-117l63 313h-67l17 89h185zM897 315h-152l-15 -49h27q59 0 96 -33.5t37 -84.5q0 -68 -49 -111t-123 -43q-65 0 -101 37t-27 102h103q-4 -19 5.5 -33t30.5 -14q15 0 28 7.5t20.5 20.5t7.5 29t-10.5 26t-30.5 10l-125 -2l-9 15
l64 209h240z" />
    <glyph glyph-name="uni2156" unicode="&#x2156;" horiz-adv-x="1044" 
d="M760 730h124l-556 -760h-124zM361 395l-19 -96h-306l7 30q18 17 52 49l51 48t42.5 40.5t38 39t26.5 32t19.5 29.5t5.5 22q0 12 -7 19t-20 7q-35 0 -44 -48h-110q9 71 53 108t114 37q38 0 67 -15t45 -41t16 -58q0 -48 -34 -92.5t-108 -110.5h111zM997 315h-152l-15 -49h27
q59 0 96 -33.5t37 -84.5q0 -68 -49 -111t-123 -43q-65 0 -101 37t-27 102h103q-4 -19 5.5 -33t30.5 -14q23 0 39.5 16.5t16.5 40.5q0 16 -11 26t-30 10l-125 -2l-9 15l64 209h240z" />
    <glyph glyph-name="uni2157" unicode="&#x2157;" horiz-adv-x="1037" 
d="M751 730h125l-556 -760h-125zM362 445q0 -46 -23 -81.5t-62.5 -54.5t-89.5 -19q-65 0 -101 38t-27 102h102q-3 -19 7 -33.5t31 -14.5q16 0 29 8t21 22t8 31t-11 26.5t-31 9.5h-64l4 23l86 110h-135l18 88h278l-4 -19l-105 -131q32 -12 50.5 -40.5t18.5 -64.5zM988 315
h-152l-15 -49h28q59 0 96 -33.5t37 -84.5q0 -68 -49 -111t-124 -43q-65 0 -100.5 37t-27.5 102h103q-4 -19 6 -33t30 -14q15 0 28 7.5t21 20.5t8 29t-11 26t-30 10l-126 -2l-8 15l64 209h239z" />
    <glyph glyph-name="uni2158" unicode="&#x2158;" horiz-adv-x="1069" 
d="M778 730h125l-556 -760h-125zM223 298l14 72h-193l4 23l190 307h113l-148 -243h58l47 95h74l-20 -95h37l-17 -87h-37l-14 -72h-108zM1015 315h-152l-15 -49h28q59 0 96 -33.5t37 -84.5q0 -68 -49 -111t-124 -43q-65 0 -100.5 37t-27.5 102h103q-4 -19 6 -33t30 -14
q23 0 40 16.5t17 40.5q0 16 -11 26t-30 10l-126 -2l-8 15l64 209h239z" />
    <glyph glyph-name="uni2159" unicode="&#x2159;" horiz-adv-x="949" 
d="M660 730h124l-556 -760h-124zM214 298h-117l63 313h-67l17 89h185zM781 271q52 0 84.5 -33t32.5 -83q0 -74 -52.5 -120.5t-133.5 -46.5q-63 0 -100.5 36.5t-37.5 92.5q0 43 18 78t57 84l97 122h121l-91 -114q-2 -2 -7 -8t-7 -9q10 1 19 1zM726 82q28 0 48 19.5t20 49.5
q0 10 -3.5 18t-9.5 13.5t-15 8.5t-20 3q-27 0 -47.5 -19.5t-20.5 -48.5q1 -10 4 -18t9 -13.5t15 -9t20 -3.5z" />
    <glyph glyph-name="uni215A" unicode="&#x215a;" horiz-adv-x="1045" 
d="M756 730h124l-556 -760h-124zM364 447q0 -68 -49 -111.5t-123 -43.5q-66 0 -101.5 37.5t-27.5 102.5h103q-4 -19 6 -33t31 -14q22 0 39 16.5t17 39.5q0 17 -11 27t-30 10l-126 -2l-8 15l64 209h239l-17 -86h-152l-15 -49h28q59 0 96 -34t37 -84zM877 271q52 0 85 -33
t33 -83q0 -74 -53 -120.5t-134 -46.5q-63 0 -100.5 36.5t-37.5 92.5q0 43 18 78t57 84l97 122h122l-92 -114q-2 -2 -6.5 -8t-7.5 -9q10 1 19 1zM822 82q29 0 48.5 19.5t19.5 49.5q0 20 -12.5 31.5t-34.5 11.5q-28 0 -48 -19.5t-20 -48.5q0 -20 12.5 -32t34.5 -12z" />
    <glyph glyph-name="oneeighth" unicode="&#x215b;" horiz-adv-x="966" 
d="M660 730h124l-556 -760h-124zM214 298h-117l63 313h-67l17 89h185zM871 211q35 -28 35 -72q0 -66 -50 -104t-129 -38q-57 0 -95 30.5t-38 80.5q0 75 72 116q-27 27 -27 63q0 60 47.5 95t118.5 35q53 0 88.5 -28.5t35.5 -75.5q0 -63 -58 -102zM777 259q20 0 35.5 13
t15.5 35q0 13 -10 21t-25 8q-23 0 -37.5 -13.5t-14.5 -32.5q0 -15 10 -23t26 -8zM742 80q24 0 42 16t18 40q0 8 -3.5 15t-9.5 11.5t-14 7t-17 2.5q-16 0 -29.5 -7t-22 -19.5t-8.5 -28.5q0 -17 12.5 -27t31.5 -10z" />
    <glyph glyph-name="threeeighths" unicode="&#x215c;" horiz-adv-x="1055" 
d="M751 730h125l-556 -760h-125zM362 445q0 -46 -23 -81.5t-62.5 -54.5t-89.5 -19q-65 0 -101 38t-27 102h102q-3 -19 7 -33.5t31 -14.5q16 0 29 8t21 22t8 31t-11 26.5t-31 9.5h-64l4 23l86 110h-135l18 88h278l-4 -19l-105 -131q32 -12 50.5 -40.5t18.5 -64.5zM962 211
q35 -28 35 -72q0 -66 -50 -104t-128 -38q-58 0 -96 30.5t-38 80.5q0 75 72 116q-26 27 -26 63q0 60 47 95t118 35q54 0 89.5 -28.5t35.5 -75.5q0 -63 -59 -102zM868 259q21 0 36.5 13t15.5 35q0 13 -10.5 21t-25.5 8t-27 -6.5t-18.5 -17t-6.5 -22.5q0 -15 10.5 -23t25.5 -8z
M833 80q25 0 42.5 16t17.5 40q0 8 -3.5 15t-9.5 11.5t-14 7t-17 2.5q-24 0 -41.5 -15.5t-17.5 -39.5q0 -17 12 -27t31 -10z" />
    <glyph glyph-name="fiveeighths" unicode="&#x215d;" horiz-adv-x="1055" 
d="M752 730h125l-556 -760h-125zM360 447q0 -68 -49 -111.5t-123 -43.5q-65 0 -101 37.5t-27 102.5h102q-3 -19 6.5 -33t30.5 -14q23 0 39.5 16.5t16.5 39.5q0 17 -11 27t-30 10l-125 -2l-9 15l64 209h240l-17 -86h-152l-15 -49h27q59 0 96 -34t37 -84zM963 211
q36 -28 36 -72q0 -66 -50.5 -104t-128.5 -38q-58 0 -96 30.5t-38 80.5q0 75 73 116q-27 27 -27 63q0 60 47 95t118 35q54 0 89.5 -28.5t35.5 -75.5q0 -63 -59 -102zM870 259q20 0 35.5 13t15.5 35q0 13 -10.5 21t-25.5 8q-22 0 -37 -13.5t-15 -32.5q0 -10 5 -17t13 -10.5
t19 -3.5zM834 80q25 0 42.5 16t17.5 40q0 17 -12.5 26.5t-31.5 9.5q-16 0 -29.5 -7t-21.5 -19.5t-8 -28.5q0 -17 12 -27t31 -10z" />
    <glyph glyph-name="seveneighths" unicode="&#x215e;" horiz-adv-x="1032" 
d="M727 730h124l-556 -760h-124zM181 299h-114l181 309h-155l18 93h299l-4 -18zM938 211q35 -28 35 -72q0 -66 -50 -104t-129 -38q-57 0 -95 30.5t-38 80.5q0 75 72 116q-27 27 -27 63q0 60 47.5 95t118.5 35q53 0 88.5 -28.5t35.5 -75.5q0 -63 -58 -102zM844 259
q13 0 24.5 5t19 16.5t7.5 26.5q0 13 -10 21t-25 8q-22 0 -37 -13.5t-15 -32.5q0 -15 10.5 -23t25.5 -8zM809 80q24 0 42 16t18 40q0 17 -12.5 26.5t-31.5 9.5q-12 0 -23 -4t-19 -11.5t-13 -17.5t-5 -22q0 -17 12.5 -27t31.5 -10z" />
    <glyph glyph-name="uni215F" unicode="&#x215f;" horiz-adv-x="610" 
d="M746 730h124l-556 -760h-124zM300 298h-117l63 313h-68l18 89h184z" />
    <glyph glyph-name="uni2189" unicode="&#x2189;" horiz-adv-x="1086" 
d="M812 730h124l-556 -760h-124zM430 549q0 -108 -60 -183t-159 -75q-66 0 -103.5 44t-37.5 117q0 110 59 185t159 75q44 0 76.5 -21t49 -57.5t16.5 -84.5zM228 394q14 0 27 7t22.5 19t17 27t12.5 32.5t7.5 34.5t2.5 32q0 63 -46 63q-28 0 -49 -26t-30.5 -60t-9.5 -68
q0 -61 46 -61zM1067 401l-4 -18l-105 -131q32 -12 50.5 -41t18.5 -64q0 -70 -49.5 -113t-125.5 -43q-65 0 -101 38t-27 102h102q-3 -19 7 -33t31 -14q24 0 41 17.5t17 43.5q0 8 -2.5 15t-8 11.5t-13.5 6.5t-18 2h-64l4 23l86 110h-135l18 88h278z" />
    <glyph glyph-name="arrowleft" unicode="&#x2190;" horiz-adv-x="678" 
d="M645 396v-159h-344l127 -131l-107 -95l-282 296v19l282 297l107 -95l-128 -132h345z" />
    <glyph glyph-name="arrowup" unicode="&#x2191;" horiz-adv-x="654" 
d="M654 380l-95 -108l-131 128v-345h-159v345l-132 -128l-95 108l297 281h19z" />
    <glyph glyph-name="arrowright" unicode="&#x2192;" horiz-adv-x="677" 
d="M376 623l281 -297v-19l-281 -296l-108 95l127 131h-344v159h345l-128 132z" />
    <glyph glyph-name="arrowdown" unicode="&#x2193;" horiz-adv-x="656" 
d="M552 436l95 -108l-297 -282h-19l-296 282l95 108l131 -128v345h159v-345z" />
    <glyph glyph-name="uni2196" unicode="&#x2196;" horiz-adv-x="644" 
d="M606 176l-109 -109l-267 270v-179h-140v412l16 15h412v-140h-179z" />
    <glyph glyph-name="uni2197" unicode="&#x2197;" horiz-adv-x="580" 
d="M515 585l15 -15v-412h-139v179l-267 -270l-109 109l267 269h-179v140h412z" />
    <glyph glyph-name="uni2198" unicode="&#x2198;" horiz-adv-x="661" 
d="M438 499h140v-412l-16 -15h-412v140h180l-268 269l109 109l267 -270v179z" />
    <glyph glyph-name="uni2199" unicode="&#x2199;" horiz-adv-x="588" 
d="M596 481l-267 -269h179v-140h-412l-15 15v412h139v-179l268 270z" />
    <glyph glyph-name="partialdiff" unicode="&#x2202;" horiz-adv-x="648" 
d="M357 716q91 0 153.5 -26.5t95 -80t32.5 -131.5q0 -111 -35 -207q-31 -85 -84.5 -148.5t-130 -100.5t-165.5 -37q-104 0 -161 51.5t-57 132.5q0 85 48.5 158.5t129 116.5t171.5 43q81 0 132 -41q2 12 2 20q0 59 -43.5 84.5t-124.5 25.5q-46 0 -120 -9l27 138q77 11 130 11
zM261 129q63 0 111 46.5t48 104.5q0 16 -5.5 29.5t-16 23t-26 14.5t-34.5 5q-63 0 -111.5 -46t-48.5 -103q0 -34 22 -54t61 -20z" />
    <glyph glyph-name="emptyset" unicode="&#x2205;" horiz-adv-x="681" 
d="M585 475q63 -59 63 -159q0 -90 -45.5 -165.5t-124.5 -119.5t-174 -44q-58 0 -107 18l-43 -51h-150l94 113q-63 59 -63 159q0 90 45.5 165.5t125 119t173.5 43.5q59 0 105 -17l42 51h148zM353 405q-64 0 -108 -46t-44 -109q0 -30 13 -52l168 203q-14 4 -29 4zM330 136
q64 0 107.5 46.5t43.5 110.5q0 29 -12 50l-168 -204q14 -3 29 -3z" />
    <glyph glyph-name="product" unicode="&#x220f;" horiz-adv-x="769" 
d="M822 700l-32 -160h-86l-140 -700h-189l140 700h-154l-141 -700h-189l140 700h-85l31 160h705z" />
    <glyph glyph-name="summation" unicode="&#x2211;" horiz-adv-x="622" 
d="M662 700l-31 -152h-282l135 -275l-6 -26l-219 -256h265l-30 -152h-551l8 38l344 402l-187 383l7 38h547z" />
    <glyph glyph-name="minus" unicode="&#x2212;" horiz-adv-x="595" 
d="M55 252l30 148h477l-30 -148h-477z" />
    <glyph glyph-name="radical" unicode="&#x221a;" horiz-adv-x="712" 
d="M641 750h179l-468 -750h-88l-83 395h-145l29 145h245l49 -258z" />
    <glyph glyph-name="infinity" unicode="&#x221e;" horiz-adv-x="960" 
d="M752 545q81 0 133 -50.5t52 -127.5q0 -102 -74.5 -172t-181.5 -70q-66 0 -113.5 32t-87.5 88q-63 -57 -121 -88.5t-126 -31.5q-80 0 -132.5 50.5t-52.5 127.5q0 102 74.5 172t181.5 70q34 0 64.5 -9.5t55.5 -27.5t44 -37.5t38 -45.5q42 37 73.5 60t78.5 41.5t94 18.5z
M199 318q0 -26 17.5 -42t50.5 -16q35 0 69.5 20.5t77.5 60.5q-53 69 -117 69q-43 0 -70.5 -27t-27.5 -65zM690 260q28 0 50.5 13t34 34t11.5 45q0 10 -2.5 19t-8 16t-13 12t-18.5 8t-24 3q-25 0 -50.5 -11t-47 -27t-50.5 -42q26 -34 53.5 -52t64.5 -18z" />
    <glyph glyph-name="integral" unicode="&#x222b;" horiz-adv-x="428" 
d="M-113 -306l32 159h41q42 0 66.5 21t33.5 63l165 822q39 194 235 194h103l-33 -159h-40q-84 0 -100 -84l-166 -822q-18 -95 -78 -144.5t-156 -49.5h-103z" />
    <glyph glyph-name="approxequal" unicode="&#x2248;" horiz-adv-x="603" 
d="M431 385q-24 0 -48.5 7t-37.5 13t-35 18q-37 22 -54 22q-41 0 -53 -58h-121q14 71 36.5 113t58 63t88.5 21q23 0 46.5 -7t36.5 -14t33 -19q37 -24 57 -24q24 0 36 15t18 48h122q-22 -107 -63.5 -152.5t-119.5 -45.5zM378 122q-18 0 -35 3.5t-34 10.5t-26.5 11.5
t-25.5 13.5q-37 22 -54 22q-41 0 -53 -59h-122q22 106 63.5 151.5t120.5 45.5q23 0 46.5 -7t36.5 -13.5t33 -18.5q37 -25 57 -25q24 0 36 15.5t18 47.5h122q-22 -106 -63.5 -152t-119.5 -46z" />
    <glyph glyph-name="notequal" unicode="&#x2260;" horiz-adv-x="592" 
d="M552 363h-159l-35 -79h178l-29 -146h-215l-52 -113h-138l51 113h-121l29 146h158l35 79h-177l29 146h215l53 117h138l-53 -117h122z" />
    <glyph glyph-name="lessequal" unicode="&#x2264;" horiz-adv-x="545" 
d="M566 681l-33 -166l-236 -98l197 -93l-31 -155l-403 217l15 74zM-5 0l29 141h437l-29 -141h-437z" />
    <glyph glyph-name="greaterequal" unicode="&#x2265;" horiz-adv-x="545" 
d="M144 681l402 -221l-15 -74l-490 -217l34 172l234 93l-195 99zM5 0l28 141h441l-29 -141h-440z" />
    <glyph glyph-name="lozenge" unicode="&#x25ca;" horiz-adv-x="571" 
d="M383 699l177 -339l-4 -21l-312 -338h-25l-177 338l4 21l313 339h24zM191 338l72 -137l149 162l-71 137z" />
    <glyph glyph-name="K.ss01" horiz-adv-x="670" 
d="M749 700l-296 -341l178 -359h-207l-157 328l-66 -328h-185l140 700h185l-57 -287l239 287h226z" />
    <glyph glyph-name="K.ss03" horiz-adv-x="670" 
d="M749 700l-296 -341l178 -359h-207l-157 328l-66 -328h-185l140 700h185l-57 -287l239 287h226z" />
    <glyph glyph-name="K.ss04" horiz-adv-x="670" 
d="M749 700l-296 -341l178 -359h-207l-157 328l-66 -328h-185l140 700h185l-57 -287l239 287h226z" />
    <glyph glyph-name="germandbls.calt" horiz-adv-x="733" 
d="M743 700l-5 -25l-147 -224q35 -16 60 -43t38 -61.5t13 -74.5q0 -121 -86.5 -196.5t-220.5 -75.5h-116l33 163h95q47 0 77 29t30 71q0 29 -20 46.5t-55 17.5h-82l6 30l119 183h-94q-84 0 -100 -83l-92 -457h-189l94 473q22 107 95 167t182 60h365z" />
    <glyph glyph-name="i.loclTRK" horiz-adv-x="299" 
d="M126 607l31 155h180l-31 -155h-180zM7 0l108 540h179l-108 -540h-179z" />
    <glyph glyph-name="k.ss01" horiz-adv-x="581" 
d="M629 540l-225 -264l135 -276h-191l-114 242l-48 -242h-179l147 735h179l-79 -392l162 197h213z" />
    <glyph glyph-name="k.ss03" horiz-adv-x="581" 
d="M629 540l-225 -264l135 -276h-191l-114 242l-48 -242h-179l147 735h179l-79 -392l162 197h213z" />
    <glyph glyph-name="k.ss04" horiz-adv-x="581" 
d="M629 540l-225 -264l135 -276h-191l-114 242l-48 -242h-179l147 735h179l-79 -392l162 197h213z" />
    <glyph glyph-name="uni0414.loclBGR" horiz-adv-x="763" 
d="M666 155h52l-55 -277h-170l24 122h-378l-24 -122h-171l56 277h49l329 545h174zM424 469l-179 -316h233z" />
    <glyph glyph-name="uni041B.loclBGR" horiz-adv-x="701" 
d="M644 0h-198l-51 452l-235 -452h-211l400 700h174z" />
    <glyph glyph-name="uni0416.ss01" horiz-adv-x="1003" 
d="M1083 700l-298 -349l170 -351h-202l-144 321l-64 -321h-183l63 312l-261 -312h-230l324 370l-149 330h206l126 -305l61 305h183l-59 -298l237 298h220z" />
    <glyph glyph-name="uni041A.ss01" horiz-adv-x="670" 
d="M749 700l-296 -341l178 -359h-207l-157 328l-66 -328h-185l140 700h185l-57 -287l239 287h226z" />
    <glyph glyph-name="uni0424.ss01" horiz-adv-x="918" 
d="M906 410q0 -113 -54 -206.5t-147.5 -149t-210.5 -64.5l-21 -105h-182l21 106q-126 12 -196.5 97.5t-70.5 203.5q0 113 54 206t147.5 148t209.5 64l18 90h182l-18 -91q126 -12 197 -96.5t71 -202.5zM521 156q84 13 142 82t58 155q0 58 -32 99t-90 50zM230 306
q0 -58 31.5 -99t89.5 -51l78 386q-84 -13 -141.5 -81.5t-57.5 -154.5z" />
    <glyph glyph-name="uni0414.ss02" horiz-adv-x="763" 
d="M666 155h52l-55 -277h-170l24 122h-378l-24 -122h-171l56 277h49l329 545h174zM424 469l-179 -316h233z" />
    <glyph glyph-name="uni041B.ss02" horiz-adv-x="701" 
d="M644 0h-198l-51 452l-235 -452h-211l400 700h174z" />
    <glyph glyph-name="uni0414.ss03" horiz-adv-x="763" 
d="M666 155h52l-55 -277h-170l24 122h-378l-24 -122h-171l56 277h49l329 545h174zM424 469l-179 -316h233z" />
    <glyph glyph-name="uni0416.ss03" horiz-adv-x="1003" 
d="M1083 700l-298 -349l170 -351h-202l-144 321l-64 -321h-183l63 312l-261 -312h-230l324 370l-149 330h206l126 -305l61 305h183l-59 -298l237 298h220z" />
    <glyph glyph-name="uni041A.ss03" horiz-adv-x="670" 
d="M749 700l-296 -341l178 -359h-207l-157 328l-66 -328h-185l140 700h185l-57 -287l239 287h226z" />
    <glyph glyph-name="uni041B.ss03" horiz-adv-x="701" 
d="M644 0h-198l-51 452l-235 -452h-211l400 700h174z" />
    <glyph glyph-name="uni0416.ss04" horiz-adv-x="1003" 
d="M1083 700l-298 -349l170 -351h-202l-144 321l-64 -321h-183l63 312l-261 -312h-230l324 370l-149 330h206l126 -305l61 305h183l-59 -298l237 298h220z" />
    <glyph glyph-name="uni041A.ss04" horiz-adv-x="670" 
d="M749 700l-296 -341l178 -359h-207l-157 328l-66 -328h-185l140 700h185l-57 -287l239 287h226z" />
    <glyph glyph-name="uni0424.ss04" horiz-adv-x="868" 
d="M858 398q0 -98 -50.5 -179t-137.5 -128.5t-194 -56.5l-15 -74h-179l15 74q-119 14 -187 91t-68 182q0 99 51 180t137.5 128.5t194.5 56.5l14 68h177l-14 -68q121 -11 188.5 -89t67.5 -185zM502 198q37 4 69 20.5t54 42.5t35 58.5t13 67.5q0 32 -12 57.5t-36.5 43.5
t-59.5 23zM227 318q0 -31 12 -56.5t37 -42.5t60 -21l62 312q-74 -9 -122.5 -64.5t-48.5 -127.5z" />
    <glyph glyph-name="uni0424.ss05" horiz-adv-x="868" 
d="M858 398q0 -98 -50.5 -179t-137.5 -128.5t-194 -56.5l-15 -74h-179l15 74q-119 14 -187 91t-68 182q0 99 51 180t137.5 128.5t194.5 56.5l14 68h177l-14 -68q121 -11 188.5 -89t67.5 -185zM502 198q37 4 69 20.5t54 42.5t35 58.5t13 67.5q0 32 -12 57.5t-36.5 43.5
t-59.5 23zM227 318q0 -31 12 -56.5t37 -42.5t60 -21l62 312q-74 -9 -122.5 -64.5t-48.5 -127.5z" />
    <glyph glyph-name="uni0432.loclBGR" horiz-adv-x="632" 
d="M526 377q68 -44 68 -131q0 -79 -42 -139t-111.5 -91t-154.5 -31q-113 0 -178 60.5t-65 161.5v14t1 15.5t2 16.5t3.5 21.5t4.5 25.5t6.5 34t8 40l10.5 51t13 61q24 125 105 193.5t204 68.5q100 0 164 -51.5t64 -130.5q0 -54 -28 -103.5t-75 -85.5zM354 445q48 0 79.5 28
t31.5 73q0 28 -22 44.5t-60 16.5q-46 0 -76.5 -32t-42.5 -94q-3 -14 -7 -36h97zM305 140q32 0 58.5 13t42 37t15.5 55t-23 49t-63 18h-105q-14 -70 -14 -93q0 -79 89 -79z" />
    <glyph glyph-name="uni0433.loclBGR" horiz-adv-x="529" 
d="M223 -17q-96 0 -155.5 46t-59.5 118q0 39 13 69.5t32 49t52 32.5t60.5 21t71.5 15q2 1 8 2l31.5 6t26.5 7t23 10t12.5 13t5.5 18q0 16 -13 25.5t-37 9.5q-55 0 -65 -53h-163q17 90 80.5 137.5t161.5 47.5q92 0 148.5 -43.5t56.5 -111.5q0 -33 -7.5 -59t-24 -44.5t-35 -32
t-47 -23t-52.5 -15.5t-58 -12q-2 -1 -6 -1q-18 -3 -26.5 -5t-22.5 -5.5t-21 -7t-15 -9t-11 -12.5t-3 -16q0 -17 15.5 -27.5t40.5 -10.5q28 0 47.5 15.5t24.5 44.5h170q-16 -96 -84 -147.5t-175 -51.5z" />
    <glyph glyph-name="uni0434.loclBGR" horiz-adv-x="671" 
d="M548 540h118l-98 -488q-17 -85 -62.5 -145t-114.5 -90.5t-157 -30.5q-113 0 -179 57.5t-69 152.5h174q3 -30 30.5 -47t64.5 -17q49 0 88 30.5t50 81.5l2 7q-68 -37 -142 -37q-98 0 -161.5 63t-63.5 164q0 85 43 158t114.5 115.5t152.5 42.5q107 0 172 -75zM209 259
q0 -43 25.5 -68t70.5 -25q27 0 52.5 11.5t44.5 31t30.5 46.5t11.5 57q0 43 -25.5 68t-70.5 25q-57 0 -98 -43t-41 -103z" />
    <glyph glyph-name="uni0436.loclBGR" horiz-adv-x="850" 
d="M898 540l-226 -271l130 -269h-186l-112 241l-49 -241h-171l46 229l-181 -229h-211l242 297l-112 243h181l99 -221l83 416h171l-82 -412l171 217h207z" />
    <glyph glyph-name="uni0437.loclBGR" horiz-adv-x="580" 
d="M434 187q77 -51 77 -143q0 -113 -88 -185.5t-216 -72.5q-116 0 -183 68.5t-50 178.5h168q-6 -43 16.5 -65.5t63.5 -22.5q48 0 81 28.5t33 70.5q0 31 -26 50t-65 19h-72l28 151h69q41 0 72 23.5t31 58.5q0 25 -18 40t-48 15q-35 0 -60.5 -19.5t-33.5 -50.5h-170
q21 106 96.5 166t182.5 60q96 0 159.5 -55.5t63.5 -135.5q0 -105 -111 -179z" />
    <glyph glyph-name="uni0438.loclBGR" horiz-adv-x="642" 
d="M457 540h179l-108 -540h-126l-13 55q-77 -72 -184 -72q-78 0 -122.5 48t-44.5 129q0 9 0.5 17t1.5 16.5t3.5 24.5t5.5 31t9 46t12 60t17 81.5t21 103.5h179q-16 -77 -37 -180q-28 -141 -28 -156q0 -62 60 -62q45 0 75.5 29t42.5 82z" />
    <glyph glyph-name="uni0439.loclBGR" horiz-adv-x="642" 
d="M551 727l-24 -119h-284l23 119h285zM457 540h179l-108 -540h-126l-13 55q-77 -72 -184 -72q-78 0 -122.5 48t-44.5 129q0 9 0.5 17t1.5 16.5t3.5 24.5t5.5 31t9 46t12 60t17 81.5t21 103.5h179q-16 -77 -37 -180q-28 -141 -28 -156q0 -62 60 -62q45 0 75.5 29t42.5 82z
" />
    <glyph glyph-name="uni043A.loclBGR" horiz-adv-x="581" 
d="M629 540l-225 -264l135 -276h-191l-114 242l-48 -242h-179l147 735h179l-79 -393l162 198h213z" />
    <glyph glyph-name="uni043B.loclBGR" horiz-adv-x="574" 
d="M517 0h-176l-35 317l-164 -317h-193l310 540h165z" />
    <glyph glyph-name="uni043F.loclBGR" horiz-adv-x="642" 
d="M438 557q78 0 122.5 -48t44.5 -129q0 -9 -0.5 -17t-1.5 -16.5t-4 -24.5t-5.5 -31t-9 -46t-12 -60t-16.5 -81.5t-21 -103.5h-179l37 185q27 133 27 148q0 65 -59 65q-45 0 -75.5 -28.5t-42.5 -80.5l-57 -289h-179l108 540h125l14 -55q77 72 184 72z" />
    <glyph glyph-name="uni0442.loclBGR" horiz-adv-x="938" 
d="M750 557q70 0 111.5 -47t41.5 -122q0 -23 -6 -56.5t-33 -165.5q-6 -31 -9.5 -49.5t-10.5 -52t-13 -64.5h-179q10 53 27 135q39 191 39 209q0 55 -51 55q-77 0 -101 -99q-5 -27 -25 -124t-36 -176h-174q16 79 37 184q20 100 24.5 123.5t4.5 34.5q0 57 -50 57
q-79 0 -103 -104l-58 -295h-179l108 540h125l14 -53q74 70 175 70q46 0 81 -21t53 -58q74 79 187 79z" />
    <glyph glyph-name="uni0446.loclBGR" horiz-adv-x="690" 
d="M565 166q0 -33 17.5 -49t55.5 -16l-45 -224h-159l26 129q-42 17 -59 61q-37 -40 -88 -62t-108 -22q-78 0 -122.5 48t-44.5 129q0 9 0.5 17t1.5 16.5t3.5 24.5t5.5 31t9 45.5t12 59t16.5 81l20.5 102.5h179q-15 -76 -36 -179q-28 -139 -28 -154q0 -62 60 -62q46 0 77 30.5
t42 85.5l57 282h179q-18 -88 -41 -203q-31 -152 -31 -171z" />
    <glyph glyph-name="uni0448.loclBGR" horiz-adv-x="938" 
d="M753 541h179l-108 -540h-122l-16 56q-77 -74 -176 -74q-47 0 -82 21.5t-53 59.5q-36 -38 -84.5 -59.5t-101.5 -21.5q-70 0 -111 47.5t-41 122.5v12.5t1.5 15.5t2.5 18.5t4.5 26.5t6.5 34t9.5 47t12 60t15.5 78t19 96h180q-11 -51 -27 -130q-40 -200 -40 -217
q0 -52 51 -52q78 0 101 103q5 24 24.5 119t35.5 177h174q-14 -74 -35 -176q-31 -154 -31 -171q0 -52 50 -52q80 0 103 104z" />
    <glyph glyph-name="uni0449.loclBGR" horiz-adv-x="985" 
d="M861 166q0 -65 72 -65l-44 -224h-160l26 130q-40 15 -59 58q-76 -82 -186 -82q-46 0 -81 21t-53 58q-75 -79 -187 -79q-70 0 -111 47t-41 122v12.5t0.5 12t2.5 16.5t3.5 19.5t5 27.5t7 35t9.5 46.5t11.5 57.5t14.5 73t18 88h179q-11 -53 -28 -135q-39 -191 -39 -209
q0 -55 51 -55q76 0 100 98q5 22 13 62t21.5 106.5t26.5 132.5h174q-12 -60 -30 -149q-36 -177 -36 -194q0 -56 50 -56q79 0 103 102q4 21 25.5 130t33.5 167h179q-16 -81 -39 -191q-32 -162 -32 -183z" />
    <glyph glyph-name="uni044E.loclBGR" horiz-adv-x="893" 
d="M610 558q115 0 186.5 -69.5t71.5 -175.5q0 -93 -45.5 -168.5t-124.5 -118.5t-175 -43q-98 0 -164 58.5t-77 151.5h-60l-38 -193h-177l147 735h177l-78 -388h48q35 95 118.5 153t190.5 58zM544 145q61 0 102.5 45.5t41.5 107.5q0 44 -26.5 70.5t-71.5 26.5q-41 0 -74 -21
t-51.5 -56t-18.5 -76q0 -44 26.5 -70.5t71.5 -26.5z" />
    <glyph glyph-name="uni0436.ss01" horiz-adv-x="852" 
d="M898 540l-221 -258l132 -282h-203l-104 235l-47 -235h-171l46 231l-190 -231h-202l241 281l-114 259h196l88 -215l43 215h171l-44 -220l182 220h197z" />
    <glyph glyph-name="uni043A.ss01" horiz-adv-x="581" 
d="M629 540l-225 -261l135 -279h-198l-108 237l-47 -237h-179l108 540h179l-40 -200l165 200h210z" />
    <glyph glyph-name="uni0432.ss02" horiz-adv-x="632" 
d="M526 377q68 -44 68 -131q0 -79 -42 -139t-111.5 -91t-154.5 -31q-113 0 -178 60.5t-65 161.5v14t1 15.5t2 16.5t3.5 21.5t4.5 25.5t6.5 34t8 40l10.5 51t13 61q24 125 105 193.5t204 68.5q100 0 164 -51.5t64 -130.5q0 -54 -28 -103.5t-75 -85.5zM354 445q48 0 79.5 28
t31.5 73q0 28 -22 44.5t-60 16.5q-46 0 -76.5 -32t-42.5 -94q-3 -14 -7 -36h97zM305 140q32 0 58.5 13t42 37t15.5 55t-23 49t-63 18h-105q-14 -70 -14 -93q0 -79 89 -79z" />
    <glyph glyph-name="uni0433.ss02" horiz-adv-x="529" 
d="M223 -17q-96 0 -155.5 46t-59.5 118q0 39 13 69.5t32 49t52 32.5t60.5 21t71.5 15q2 1 8 2l31.5 6t26.5 7t23 10t12.5 13t5.5 18q0 16 -13 25.5t-37 9.5q-55 0 -65 -53h-163q17 90 80.5 137.5t161.5 47.5q92 0 148.5 -43.5t56.5 -111.5q0 -33 -7.5 -59t-24 -44.5t-35 -32
t-47 -23t-52.5 -15.5t-58 -12q-2 -1 -6 -1q-18 -3 -26.5 -5t-22.5 -5.5t-21 -7t-15 -9t-11 -12.5t-3 -16q0 -17 15.5 -27.5t40.5 -10.5q28 0 47.5 15.5t24.5 44.5h170q-16 -96 -84 -147.5t-175 -51.5z" />
    <glyph glyph-name="uni0434.ss02" horiz-adv-x="671" 
d="M548 540h118l-98 -488q-17 -85 -62.5 -145t-114.5 -90.5t-157 -30.5q-113 0 -179 57.5t-69 152.5h174q3 -30 30.5 -47t64.5 -17q49 0 88 30.5t50 81.5l2 7q-68 -37 -142 -37q-98 0 -161.5 63t-63.5 164q0 85 43 158t114.5 115.5t152.5 42.5q107 0 172 -75zM209 259
q0 -43 25.5 -68t70.5 -25q27 0 52.5 11.5t44.5 31t30.5 46.5t11.5 57q0 43 -25.5 68t-70.5 25q-57 0 -98 -43t-41 -103z" />
    <glyph glyph-name="uni0436.ss02" horiz-adv-x="850" 
d="M898 540l-226 -271l130 -269h-186l-112 241l-49 -241h-171l46 229l-181 -229h-211l242 297l-112 243h181l99 -221l83 416h171l-82 -412l171 217h207z" />
    <glyph glyph-name="uni0437.ss02" horiz-adv-x="580" 
d="M434 187q77 -51 77 -143q0 -113 -88 -185.5t-216 -72.5q-116 0 -183 68.5t-50 178.5h168q-6 -43 16.5 -65.5t63.5 -22.5q48 0 81 28.5t33 70.5q0 31 -26 50t-65 19h-72l28 151h69q41 0 72 23.5t31 58.5q0 25 -18 40t-48 15q-35 0 -60.5 -19.5t-33.5 -50.5h-170
q21 106 96.5 166t182.5 60q96 0 159.5 -55.5t63.5 -135.5q0 -105 -111 -179z" />
    <glyph glyph-name="uni0438.ss02" horiz-adv-x="642" 
d="M457 540h179l-108 -540h-126l-13 55q-77 -72 -184 -72q-78 0 -122.5 48t-44.5 129q0 9 0.5 17t1.5 16.5t3.5 24.5t5.5 31t9 46t12 60t17 81.5t21 103.5h179q-16 -77 -37 -180q-28 -141 -28 -156q0 -62 60 -62q45 0 75.5 29t42.5 82z" />
    <glyph glyph-name="uni0439.ss02" horiz-adv-x="642" 
d="M551 727l-24 -119h-284l23 119h285zM457 540h179l-108 -540h-126l-13 55q-77 -72 -184 -72q-78 0 -122.5 48t-44.5 129q0 9 0.5 17t1.5 16.5t3.5 24.5t5.5 31t9 46t12 60t17 81.5t21 103.5h179q-16 -77 -37 -180q-28 -141 -28 -156q0 -62 60 -62q45 0 75.5 29t42.5 82z
" />
    <glyph glyph-name="uni043A.ss02" horiz-adv-x="581" 
d="M629 540l-225 -264l135 -276h-191l-114 242l-48 -242h-179l147 735h179l-79 -393l162 198h213z" />
    <glyph glyph-name="uni043B.ss02" horiz-adv-x="574" 
d="M517 0h-176l-35 317l-164 -317h-193l310 540h165z" />
    <glyph glyph-name="uni043F.ss02" horiz-adv-x="642" 
d="M438 557q78 0 122.5 -48t44.5 -129q0 -9 -0.5 -17t-1.5 -16.5t-4 -24.5t-5.5 -31t-9 -46t-12 -60t-16.5 -81.5t-21 -103.5h-179l37 185q27 133 27 148q0 65 -59 65q-45 0 -75.5 -28.5t-42.5 -80.5l-57 -289h-179l108 540h125l14 -55q77 72 184 72z" />
    <glyph glyph-name="uni0442.ss02" horiz-adv-x="938" 
d="M750 557q70 0 111.5 -47t41.5 -122q0 -23 -6 -56.5t-33 -165.5q-6 -31 -9.5 -49.5t-10.5 -52t-13 -64.5h-179q10 53 27 135q39 191 39 209q0 55 -51 55q-77 0 -101 -99q-5 -27 -25 -124t-36 -176h-174q16 79 37 184q20 100 24.5 123.5t4.5 34.5q0 57 -50 57
q-79 0 -103 -104l-58 -295h-179l108 540h125l14 -53q74 70 175 70q46 0 81 -21t53 -58q74 79 187 79z" />
    <glyph glyph-name="uni0446.ss02" horiz-adv-x="690" 
d="M565 166q0 -33 17.5 -49t55.5 -16l-45 -224h-159l26 129q-42 17 -59 61q-37 -40 -88 -62t-108 -22q-78 0 -122.5 48t-44.5 129q0 9 0.5 17t1.5 16.5t3.5 24.5t5.5 31t9 45.5t12 59t16.5 81l20.5 102.5h179q-15 -76 -36 -179q-28 -139 -28 -154q0 -62 60 -62q46 0 77 30.5
t42 85.5l57 282h179q-18 -88 -41 -203q-31 -152 -31 -171z" />
    <glyph glyph-name="uni0448.ss02" horiz-adv-x="938" 
d="M753 540h179l-108 -540h-122l-16 56q-77 -73 -176 -73q-47 0 -82 21.5t-53 58.5q-36 -38 -84.5 -59t-101.5 -21q-70 0 -111 47t-41 122v13t1.5 15.5t2.5 18t4.5 26.5t6.5 34.5t9.5 47t12 59.5t15.5 78t19 96h180q-11 -51 -27 -130q-40 -200 -40 -217q0 -52 51 -52
q78 0 101 103q5 22 13 63t21 105l26 128h174q-14 -74 -35 -176q-31 -154 -31 -170q0 -53 50 -53q80 0 103 104z" />
    <glyph glyph-name="uni0449.ss02" horiz-adv-x="985" 
d="M861 166q0 -65 72 -65l-44 -224h-160l26 130q-40 15 -59 58q-76 -82 -186 -82q-46 0 -81 21t-53 58q-75 -79 -187 -79q-70 0 -111 47t-41 122v12.5t0.5 12t2.5 16.5t3.5 19.5t5 27.5t7 35t9.5 46.5t11.5 57.5t14.5 73t18 88h179q-11 -53 -28 -135q-39 -191 -39 -209
q0 -55 51 -55q76 0 100 98q5 22 13 62t21.5 106.5t26.5 132.5h174q-12 -60 -30 -149q-36 -177 -36 -194q0 -56 50 -56q79 0 103 102q4 21 25.5 130t33.5 167h179q-16 -81 -39 -191q-32 -162 -32 -183z" />
    <glyph glyph-name="uni044E.ss02" horiz-adv-x="893" 
d="M610 558q115 0 186.5 -69.5t71.5 -175.5q0 -93 -45.5 -168.5t-124.5 -118.5t-175 -43q-98 0 -164 58.5t-77 151.5h-60l-38 -193h-177l147 735h177l-78 -388h48q35 95 118.5 153t190.5 58zM544 145q61 0 102.5 45.5t41.5 107.5q0 44 -26.5 70.5t-71.5 26.5q-41 0 -74 -21
t-51.5 -56t-18.5 -76q0 -44 26.5 -70.5t71.5 -26.5z" />
    <glyph glyph-name="uni0432.ss03" horiz-adv-x="632" 
d="M526 377q68 -44 68 -131q0 -79 -42 -139t-111.5 -91t-154.5 -31q-113 0 -178 60.5t-65 161.5v14t1 15.5t2 16.5t3.5 21.5t4.5 25.5t6.5 34t8 40l10.5 51t13 61q24 125 105 193.5t204 68.5q100 0 164 -51.5t64 -130.5q0 -54 -28 -103.5t-75 -85.5zM354 445q48 0 79.5 28
t31.5 73q0 28 -22 44.5t-60 16.5q-46 0 -76.5 -32t-42.5 -94q-3 -14 -7 -36h97zM305 140q32 0 58.5 13t42 37t15.5 55t-23 49t-63 18h-105q-14 -70 -14 -93q0 -79 89 -79z" />
    <glyph glyph-name="uni0433.ss03" horiz-adv-x="529" 
d="M223 -17q-96 0 -155.5 46t-59.5 118q0 39 13 69.5t32 49t52 32.5t60.5 21t71.5 15q2 1 8 2l31.5 6t26.5 7t23 10t12.5 13t5.5 18q0 16 -13 25.5t-37 9.5q-55 0 -65 -53h-163q17 90 80.5 137.5t161.5 47.5q92 0 148.5 -43.5t56.5 -111.5q0 -33 -7.5 -59t-24 -44.5t-35 -32
t-47 -23t-52.5 -15.5t-58 -12q-2 -1 -6 -1q-18 -3 -26.5 -5t-22.5 -5.5t-21 -7t-15 -9t-11 -12.5t-3 -16q0 -17 15.5 -27.5t40.5 -10.5q28 0 47.5 15.5t24.5 44.5h170q-16 -96 -84 -147.5t-175 -51.5z" />
    <glyph glyph-name="uni0434.ss03" horiz-adv-x="671" 
d="M548 540h118l-98 -488q-17 -85 -62.5 -145t-114.5 -90.5t-157 -30.5q-113 0 -179 57.5t-69 152.5h174q3 -30 30.5 -47t64.5 -17q49 0 88 30.5t50 81.5l2 7q-68 -37 -142 -37q-98 0 -161.5 63t-63.5 164q0 85 43 158t114.5 115.5t152.5 42.5q107 0 172 -75zM209 259
q0 -43 25.5 -68t70.5 -25q27 0 52.5 11.5t44.5 31t30.5 46.5t11.5 57q0 43 -25.5 68t-70.5 25q-57 0 -98 -43t-41 -103z" />
    <glyph glyph-name="uni0436.ss03" horiz-adv-x="849" 
d="M897 540l-225 -271l130 -269h-186l-113 241l-48 -241h-172l46 229l-181 -229h-210l242 297l-113 243h181l99 -221l83 416h172l-83 -412l171 217h207z" />
    <glyph glyph-name="uni0437.ss03" horiz-adv-x="580" 
d="M434 187q77 -51 77 -143q0 -113 -88 -185.5t-216 -72.5q-116 0 -183 68.5t-50 178.5h168q-6 -43 16.5 -65.5t63.5 -22.5q48 0 81 28.5t33 70.5q0 31 -26 50t-65 19h-72l28 151h69q41 0 72 23.5t31 58.5q0 25 -18 40t-48 15q-35 0 -60.5 -19.5t-33.5 -50.5h-170
q21 106 96.5 166t182.5 60q96 0 159.5 -55.5t63.5 -135.5q0 -105 -111 -179z" />
    <glyph glyph-name="uni0438.ss03" horiz-adv-x="642" 
d="M457 540h179l-108 -540h-126l-13 55q-77 -72 -184 -72q-78 0 -122.5 48t-44.5 129q0 9 0.5 17t1.5 16.5t3.5 24.5t5.5 31t9 46t12 60t17 81.5t21 103.5h179q-16 -77 -37 -180q-28 -141 -28 -156q0 -62 60 -62q45 0 75.5 29t42.5 82z" />
    <glyph glyph-name="uni0439.ss03" horiz-adv-x="642" 
d="M551 727l-24 -119h-284l23 119h285zM457 540h179l-108 -540h-126l-13 55q-77 -72 -184 -72q-78 0 -122.5 48t-44.5 129q0 9 0.5 17t1.5 16.5t3.5 24.5t5.5 31t9 46t12 60t17 81.5t21 103.5h179q-16 -77 -37 -180q-28 -141 -28 -156q0 -62 60 -62q45 0 75.5 29t42.5 82z
" />
    <glyph glyph-name="uni043A.ss03" horiz-adv-x="581" 
d="M629 540l-225 -264l135 -276h-191l-114 242l-48 -242h-179l147 735h179l-79 -392l162 197h213z" />
    <glyph glyph-name="uni043B.ss03" horiz-adv-x="574" 
d="M517 0h-176l-35 317l-164 -317h-193l310 540h165z" />
    <glyph glyph-name="uni043F.ss03" horiz-adv-x="642" 
d="M438 557q78 0 122.5 -48t44.5 -129q0 -9 -0.5 -17t-1.5 -16.5t-4 -24.5t-5.5 -31t-9 -46t-12 -60t-16.5 -81.5t-21 -103.5h-179l37 185q27 133 27 148q0 65 -59 65q-45 0 -75.5 -28.5t-42.5 -80.5l-57 -289h-179l108 540h125l14 -55q77 72 184 72z" />
    <glyph glyph-name="uni0442.ss03" horiz-adv-x="938" 
d="M750 557q70 0 111.5 -47t41.5 -122q0 -23 -6 -56.5t-33 -165.5q-6 -31 -9.5 -49.5t-10.5 -52t-13 -64.5h-179q10 53 27 135q39 191 39 209q0 55 -51 55q-77 0 -101 -99q-5 -27 -25 -124t-36 -176h-174q16 79 37 184q20 100 24.5 123.5t4.5 34.5q0 57 -50 57
q-79 0 -103 -104l-58 -295h-179l108 540h125l14 -53q74 70 175 70q46 0 81 -21t53 -58q74 79 187 79z" />
    <glyph glyph-name="uni0446.ss03" horiz-adv-x="690" 
d="M565 166q0 -33 17.5 -49t55.5 -16l-45 -224h-159l26 129q-42 17 -59 61q-37 -40 -88 -62t-108 -22q-78 0 -122.5 48t-44.5 129q0 9 0.5 17t1.5 16.5t3.5 24.5t5.5 31t9 45.5t12 59t16.5 81l20.5 102.5h179q-15 -76 -36 -179q-28 -139 -28 -154q0 -62 60 -62q46 0 77 30.5
t42 85.5l57 282h179q-18 -88 -41 -203q-31 -152 -31 -171z" />
    <glyph glyph-name="uni0448.ss03" horiz-adv-x="938" 
d="M753 540h179l-108 -540h-122l-16 56q-77 -73 -176 -73q-47 0 -82 21.5t-53 58.5q-36 -38 -84.5 -59t-101.5 -21q-70 0 -111 47t-41 122v13t1.5 15.5t2.5 18t4.5 26.5t6.5 34.5t9.5 47t12 59.5t15.5 78t19 96h180q-11 -51 -27 -130q-40 -200 -40 -217q0 -52 51 -52
q78 0 101 103q5 22 13 63t21 105l26 128h174q-14 -74 -35 -176q-31 -154 -31 -170q0 -53 50 -53q80 0 103 104z" />
    <glyph glyph-name="uni0449.ss03" horiz-adv-x="985" 
d="M861 166q0 -65 72 -65l-44 -224h-160l26 130q-40 15 -59 58q-76 -82 -186 -82q-46 0 -81 21t-53 58q-75 -79 -187 -79q-70 0 -111 47t-41 122v12.5t0.5 12t2.5 16.5t3.5 19.5t5 27.5t7 35t9.5 46.5t11.5 57.5t14.5 73t18 88h179q-11 -53 -28 -135q-39 -191 -39 -209
q0 -55 51 -55q76 0 100 98q5 22 13 62t21.5 106.5t26.5 132.5h174q-12 -60 -30 -149q-36 -177 -36 -194q0 -56 50 -56q79 0 103 102q4 21 25.5 130t33.5 167h179q-16 -81 -39 -191q-32 -162 -32 -183z" />
    <glyph glyph-name="uni044E.ss03" horiz-adv-x="893" 
d="M610 558q115 0 186.5 -69.5t71.5 -175.5q0 -93 -45.5 -168.5t-124.5 -118.5t-175 -43q-98 0 -164 58.5t-77 151.5h-60l-38 -193h-177l147 735h177l-78 -388h48q35 95 118.5 153t190.5 58zM544 145q61 0 102.5 45.5t41.5 107.5q0 44 -26.5 70.5t-71.5 26.5q-41 0 -74 -21
t-51.5 -56t-18.5 -76q0 -44 26.5 -70.5t71.5 -26.5z" />
    <glyph glyph-name="uni0436.ss04" horiz-adv-x="852" 
d="M898 540l-221 -258l132 -282h-203l-104 235l-47 -235h-171l46 231l-190 -231h-202l241 281l-114 259h196l88 -215l43 215h171l-44 -220l182 220h197z" />
    <glyph glyph-name="uni043A.ss04" horiz-adv-x="581" 
d="M629 540l-225 -261l135 -279h-198l-108 237l-47 -237h-179l108 540h179l-40 -200l165 200h210z" />
    <glyph glyph-name="zero.sinf" horiz-adv-x="408" 
d="M136 -91q-66 0 -103.5 44t-37.5 117q0 109 59 184t159 75q66 0 104 -44.5t38 -117.5q0 -108 -60 -183t-159 -75zM153 12q28 0 49 25.5t30.5 59.5t9.5 67q0 63 -46 63q-28 0 -49 -26t-30.5 -60.5t-9.5 -67.5q0 -61 46 -61z" />
    <glyph glyph-name="one.sinf" horiz-adv-x="244" 
d="M25 318h184l-80 -402h-118l63 313h-67z" />
    <glyph glyph-name="two.sinf" horiz-adv-x="357" 
d="M310 216q0 -48 -34.5 -92.5t-108.5 -110.5h111l-19 -96h-306l7 30q19 17 52.5 49t50.5 48t42.5 40.5t38 39t26.5 32t19.5 29.5t5.5 22q0 6 -1.5 11t-5 8t-8.5 5t-11 2q-36 0 -45 -48h-110q10 71 53.5 108t114.5 37q56 0 92 -32.5t36 -81.5z" />
    <glyph glyph-name="three.sinf" horiz-adv-x="349" 
d="M321 318l-4 -19l-105 -131q32 -12 50.5 -40.5t18.5 -64.5q0 -69 -49.5 -112t-125.5 -43q-65 0 -101 38t-27 101h102q-3 -18 7 -32.5t31 -14.5q24 0 41 17.5t17 43.5q0 17 -11 26.5t-31 9.5h-64l4 22l86 111h-135l18 88h278z" />
    <glyph glyph-name="four.sinf" horiz-adv-x="369" 
d="M314 75l-18 -87h-37l-14 -72h-107l14 72h-194l4 23l191 307h113l-149 -243h58l47 95h74l-19 -95h37z" />
    <glyph glyph-name="five.sinf" horiz-adv-x="344" 
d="M288 232h-152l-15 -49h27q59 0 96 -34t37 -84q0 -68 -49 -111.5t-123 -43.5q-65 0 -101 37.5t-27 102.5h102q-3 -19 6.5 -33t30.5 -14q23 0 39.5 16.5t16.5 39.5q0 17 -11 27t-30 10l-125 -2l-9 15l64 209h240z" />
    <glyph glyph-name="six.sinf" horiz-adv-x="363" 
d="M190 188q51 0 84 -33t33 -83q0 -74 -53 -120.5t-134 -46.5q-63 0 -100.5 36.5t-37.5 92.5q0 43 18.5 78t57.5 84l97 123h121l-92 -114q-2 -3 -6.5 -9t-6.5 -9q9 1 19 1zM134 0q29 0 48.5 19.5t19.5 48.5q0 20 -12.5 32t-34.5 12q-28 0 -48 -20t-20 -49q0 -20 12.5 -31.5
t34.5 -11.5z" />
    <glyph glyph-name="seven.sinf" horiz-adv-x="328" 
d="M28 319h299l-4 -18l-225 -384h-114l181 309h-155z" />
    <glyph glyph-name="eight.sinf" horiz-adv-x="365" 
d="M258 123q35 -27 35 -71q0 -67 -50 -105t-128 -38q-58 0 -96 30.5t-38 80.5q0 75 72 116q-27 27 -27 64q0 60 47.5 94.5t118.5 34.5q53 0 89 -28.5t36 -74.5q0 -64 -59 -103zM164 171q21 0 36 13t15 35q0 7 -2.5 12.5t-7.5 9.5t-11.5 6t-13.5 2q-22 0 -37 -14t-15 -33
q0 -10 5 -17t13 -10.5t18 -3.5zM129 -7q25 0 42.5 16t17.5 39q0 12 -6 20t-16 12t-22 4q-24 0 -41.5 -15.5t-17.5 -38.5q0 -12 5.5 -20.5t15.5 -12.5t22 -4z" />
    <glyph glyph-name="nine.sinf" horiz-adv-x="364" 
d="M187 330q62 0 99.5 -34.5t37.5 -88.5q0 -43 -19.5 -81.5t-57.5 -86.5l-97 -122h-121l88 108q7 10 18 23q-10 -1 -21 -1q-53 0 -85 31.5t-32 79.5q0 74 55 123t135 49zM150 124q18 0 34 9t25 25t9 35t-12.5 30.5t-34.5 11.5q-19 0 -35 -9t-25 -24.5t-9 -33.5
q1 -20 13.5 -32t34.5 -12z" />
    <glyph glyph-name="zero.tf" horiz-adv-x="619" 
d="M260 -14q-108 0 -169.5 71.5t-61.5 190.5q0 87 25 165.5t69.5 138t112.5 94.5t150 35q107 0 168.5 -71.5t61.5 -190.5q0 -87 -25 -165t-70 -137.5t-113 -95t-148 -35.5zM285 143q48 0 85 44t54 103.5t17 119.5q0 55 -21 84.5t-60 29.5q-49 0 -86 -44t-54 -104t-17 -120
q0 -55 21 -84t61 -29z" />
    <glyph glyph-name="one.tf" horiz-adv-x="619" 
d="M388 148h154l-29 -148h-490l29 148h162l75 374h-140l28 143h315z" />
    <glyph glyph-name="two.tf" horiz-adv-x="619" 
d="M575 501q0 -36 -12 -72t-29 -64.5t-52 -68.5t-63 -67t-81 -77h186l-31 -152h-488l7 42q32 30 90.5 85t86 81t70.5 68t63 65t42.5 52t31.5 50t9 39q0 21 -14 34t-37 13q-11 0 -22 -3t-20 -9t-16 -14t-12 -18.5t-8 -22.5l-3 -14h-168l3 12q15 70 54.5 121t94 76t117.5 25
q86 0 143.5 -49t57.5 -132z" />
    <glyph glyph-name="three.tf" horiz-adv-x="619" 
d="M607 665l-6 -30l-177 -217q56 -18 87.5 -63.5t31.5 -106.5q0 -112 -84 -187.5t-205 -75.5q-93 0 -149.5 52.5t-56.5 137.5q0 21 4 40h164q-6 -37 11 -58t51 -21q41 0 70 31t29 73q0 29 -19.5 46t-54.5 17h-105l6 32l149 187h-224l29 143h449z" />
    <glyph glyph-name="four.tf" horiz-adv-x="619" 
d="M574 262l-29 -141h-58l-25 -121h-164l24 121h-318l6 31l317 513h175l-249 -403h106l67 151h119l-30 -151h59z" />
    <glyph glyph-name="five.tf" horiz-adv-x="619" 
d="M560 525h-253l-27 -88h55q95 0 153 -55t58 -139q0 -113 -82 -185.5t-203 -72.5q-95 0 -152.5 50.5t-57.5 134.5q0 19 4 44h165q-7 -37 11.5 -58t51.5 -21q39 0 67.5 29t28.5 70q0 30 -19 47.5t-51 17.5h-198l-15 24l105 342h387z" />
    <glyph glyph-name="six.tf" horiz-adv-x="619" 
d="M385 447q85 0 136.5 -52t51.5 -132q0 -121 -87 -199.5t-218 -78.5q-100 0 -161 59t-61 149q0 68 29.5 125t91.5 136l167 211h186q-31 -40 -90.5 -114t-85.5 -107q21 3 41 3zM291 137q47 0 80.5 33t33.5 82q0 33 -21 53t-56 20q-48 0 -81 -33t-33 -81q0 -23 9.5 -39.5
t26.5 -25.5t41 -9z" />
    <glyph glyph-name="seven.tf" horiz-adv-x="619" 
d="M138 665h504l-5 -24l-380 -641h-177l313 522h-283z" />
    <glyph glyph-name="eight.tf" horiz-adv-x="619" 
d="M496 345q61 -47 61 -121q0 -72 -41.5 -127t-109.5 -83.5t-150 -28.5q-101 0 -161.5 52t-60.5 133q0 122 120 189q-44 44 -44 106q0 100 80.5 158t198.5 58q94 0 150.5 -47.5t56.5 -120.5q0 -102 -100 -168zM340 416q38 0 64.5 23.5t26.5 57.5q0 24 -17.5 39.5t-47.5 15.5
q-38 0 -65 -23t-27 -57q0 -25 17.5 -40.5t48.5 -15.5zM281 121q30 0 54.5 12t39 34.5t14.5 50.5q0 29 -20.5 46.5t-56.5 17.5q-46 0 -77 -27.5t-31 -69.5q0 -29 20.5 -46.5t56.5 -17.5z" />
    <glyph glyph-name="nine.tf" horiz-adv-x="619" 
d="M381 681q100 0 160 -56.5t60 -145.5q0 -68 -31 -129t-91 -137l-169 -213h-185l92 115t86 108q-23 -3 -45 -3q-85 0 -136 50t-51 129q0 122 90 202t220 80zM317 339q49 0 84.5 34t35.5 83q0 35 -22.5 55.5t-60.5 20.5q-50 0 -85 -33t-35 -84q0 -23 10 -40t29 -26.5
t44 -9.5z" />
    <glyph glyph-name="zero.dnom" horiz-adv-x="408" 
d="M152 -9q-66 0 -104 44t-38 117q0 109 59.5 184t158.5 75q67 0 105 -44.5t38 -117.5q0 -109 -60.5 -183.5t-158.5 -74.5zM169 93q28 0 49 26t30 60t9 67q0 62 -45 62q-28 0 -49 -26t-30.5 -60t-9.5 -67q0 -62 46 -62z" />
    <glyph glyph-name="one.dnom" horiz-adv-x="244" 
d="M41 402h185l-81 -402h-117l63 312h-67z" />
    <glyph glyph-name="two.dnom" horiz-adv-x="357" 
d="M325 300q0 -49 -34 -93t-108 -110h111l-19 -97h-306l7 30q18 18 52 49.5t51 47.5t42 40.5t38 39t27 32t19.5 29.5t5.5 22q0 8 -3 14t-9 9t-15 3q-35 0 -44 -48h-110q9 71 53 108.5t114 37.5q38 0 67 -15t45 -41t16 -58z" />
    <glyph glyph-name="three.dnom" horiz-adv-x="349" 
d="M338 401l-4 -18l-106 -131q32 -12 51 -41t19 -64q0 -70 -50 -113t-126 -43q-64 0 -100.5 38t-27.5 102h102q-3 -19 7.5 -33t30.5 -14q24 0 41.5 17.5t17.5 43.5q0 17 -11.5 26t-31.5 9h-64l4 23l86 110h-135l18 88h279z" />
    <glyph glyph-name="four.dnom" horiz-adv-x="369" 
d="M329 158l-17 -87h-37l-14 -71h-108l14 71h-193l4 23l190 307h113l-148 -243h58l47 95h73l-19 -95h37z" />
    <glyph glyph-name="five.dnom" horiz-adv-x="344" 
d="M303 315h-152l-15 -49h28q59 0 96 -33.5t37 -84.5q0 -68 -49 -111t-124 -43q-65 0 -100.5 37t-27.5 102h103q-2 -12 1 -22.5t12.5 -17.5t23.5 -7q22 0 39 16.5t17 40.5q0 16 -11 26t-30 10l-126 -2l-8 15l64 209h239z" />
    <glyph glyph-name="six.dnom" horiz-adv-x="363" 
d="M205 271q52 0 84.5 -33t32.5 -83q0 -74 -52.5 -120.5t-133.5 -46.5q-63 0 -100.5 36.5t-37.5 92.5q0 43 18 78t57 84l97 122h121l-91 -114q-3 -2 -7.5 -8t-6.5 -9q10 1 19 1zM150 82q28 0 48 19.5t20 49.5q0 20 -13 31.5t-35 11.5q-18 0 -33.5 -8.5t-25 -24.5t-9.5 -35
q1 -14 6.5 -23.5t16 -15t25.5 -5.5z" />
    <glyph glyph-name="seven.dnom" horiz-adv-x="328" 
d="M44 401h298l-4 -18l-225 -384h-114l182 309h-156z" />
    <glyph glyph-name="eight.dnom" horiz-adv-x="365" 
d="M275 211q35 -28 35 -72q0 -66 -50 -104t-128 -38q-58 0 -96 30.5t-38 80.5q0 75 72 116q-27 27 -27 63q0 60 47.5 95t118.5 35q53 0 89 -28.5t36 -75.5q0 -63 -59 -102zM181 259q10 0 19 3t16.5 9t11.5 15t4 21q0 13 -10 21t-25 8q-22 0 -37 -13.5t-15 -32.5
q0 -15 10.5 -23t25.5 -8zM146 80q25 0 42.5 16t17.5 40q0 17 -12.5 26.5t-31.5 9.5q-24 0 -41.5 -15.5t-17.5 -39.5q0 -17 12 -27t31 -10z" />
    <glyph glyph-name="nine.dnom" horiz-adv-x="364" 
d="M203 414q62 0 100 -34.5t38 -89.5q0 -42 -19.5 -80.5t-57.5 -87.5l-98 -122h-121l88 109q7 8 18 22q-9 -1 -21 -1q-53 0 -85 31.5t-32 80.5q0 74 55 123t135 49zM167 208q27 0 47.5 19.5t20.5 48.5q0 10 -3.5 17.5t-9.5 13t-15 8.5t-19 3q-30 0 -49.5 -19.5t-19.5 -47.5
q0 -13 5.5 -23t16.5 -15t26 -5z" />
    <glyph glyph-name="zero.numr" horiz-adv-x="408" 
d="M210 291q-44 0 -76 20.5t-48.5 56.5t-16.5 84q0 110 59 185t159 75q66 0 104 -45t38 -118q0 -108 -60 -183t-159 -75zM227 394q21 0 39 15t28.5 38t16 49t5.5 50q0 63 -46 63q-28 0 -49 -26t-30.5 -60t-9.5 -68q0 -61 46 -61z" />
    <glyph glyph-name="one.numr" horiz-adv-x="244" 
d="M100 700h184l-80 -402h-118l63 313h-67z" />
    <glyph glyph-name="two.numr" horiz-adv-x="357" 
d="M384 598q0 -48 -34.5 -92.5t-108.5 -110.5h111l-19 -96h-306l7 30q19 17 52.5 49t50.5 48t42.5 40.5t38 39t26.5 32t19.5 29.5t5.5 22q0 8 -3 14t-9 9t-14 3q-36 0 -45 -48h-110q10 71 53.5 108t114.5 37q37 0 66.5 -15t45.5 -41t16 -58z" />
    <glyph glyph-name="three.numr" horiz-adv-x="349" 
d="M396 700l-4 -19l-105 -131q32 -12 50.5 -40.5t18.5 -64.5q0 -69 -49.5 -112t-125.5 -43q-65 0 -101.5 38t-26.5 102h102q-2 -12 1.5 -23t13 -18t23.5 -7q15 0 28.5 8t21.5 22t8 31t-11 26.5t-31 9.5h-65l4 23l87 110h-136l18 88h279z" />
    <glyph glyph-name="four.numr" horiz-adv-x="369" 
d="M388 457l-17 -87h-38l-14 -72h-107l14 72h-194l5 23l190 307h113l-149 -243h58l48 95h73l-19 -95h37z" />
    <glyph glyph-name="five.numr" horiz-adv-x="344" 
d="M362 614h-152l-15 -49h28q59 0 96 -34t37 -84q0 -68 -49.5 -111.5t-123.5 -43.5q-65 0 -101 37.5t-27 102.5h103q-4 -19 5.5 -33t30.5 -14q23 0 39.5 16.5t16.5 39.5q0 17 -10.5 27t-29.5 10l-126 -2l-8 15l63 209h240z" />
    <glyph glyph-name="six.numr" horiz-adv-x="363" 
d="M264 570q51 0 84 -33t33 -83q0 -75 -53 -121t-134 -46q-63 0 -100.5 36t-37.5 93q0 43 18.5 78t57.5 84l97 122h121l-92 -114q-2 -2 -4.5 -5.5t-4.5 -6.5t-4 -5q10 1 19 1zM208 381q19 0 34.5 9t24.5 24.5t9 35.5q0 19 -12.5 31t-34.5 12q-14 0 -26 -5.5t-21.5 -14.5
t-15 -21.5t-5.5 -27.5q0 -20 12.5 -31.5t34.5 -11.5z" />
    <glyph glyph-name="seven.numr" horiz-adv-x="328" 
d="M102 701h299l-4 -18l-225 -384h-114l181 309h-155z" />
    <glyph glyph-name="eight.numr" horiz-adv-x="365" 
d="M332 505q36 -27 36 -71q0 -67 -50.5 -104.5t-128.5 -37.5q-38 0 -68 13t-48 38.5t-18 58.5q0 76 73 116q-27 27 -27 64q0 60 47 94.5t118 34.5q54 0 89.5 -28.5t35.5 -74.5q0 -64 -59 -103zM239 553q20 0 35.5 13t15.5 35q0 14 -10 22t-26 8q-14 0 -26.5 -6.5t-19 -17
t-6.5 -23.5q0 -14 10.5 -22.5t26.5 -8.5zM203 375q25 0 42.5 16t17.5 40q0 17 -12.5 26.5t-31.5 9.5q-24 0 -41.5 -16t-17.5 -39q0 -17 12 -27t31 -10z" />
    <glyph glyph-name="nine.numr" horiz-adv-x="364" 
d="M262 712q62 0 99.5 -34.5t37.5 -88.5q0 -43 -19.5 -81.5t-57.5 -86.5l-97 -122h-121l87 108q8 10 18 23q-9 -1 -21 -1q-52 0 -84 31.5t-32 79.5q0 74 54.5 123t135.5 49zM225 506q28 0 48 20t20 49q0 19 -13 30.5t-34 11.5q-29 0 -49 -19.5t-20 -47.5q0 -20 13 -32
t35 -12z" />
    <glyph glyph-name="zero.sups" horiz-adv-x="408" 
d="M230 391q-44 0 -76 20.5t-49 56.5t-17 84q0 71 25.5 129.5t76 94.5t116.5 36q45 0 77.5 -21t49 -57.5t16.5 -84.5q0 -108 -60.5 -183t-158.5 -75zM247 494q21 0 38.5 15t28 38t16.5 49t6 50q0 63 -46 63q-28 0 -49 -26t-30.5 -60t-9.5 -68q0 -61 46 -61z" />
    <glyph glyph-name="one.sups" horiz-adv-x="244" 
d="M119 800h184l-80 -402h-118l63 313h-67z" />
    <glyph glyph-name="two.sups" horiz-adv-x="357" 
d="M403 698q0 -48 -34 -92.5t-109 -110.5h112l-20 -96h-305l6 30q19 17 53 49t50.5 48t42 40.5t38.5 39t26.5 32t19.5 29.5t6 22q0 12 -7.5 19t-19.5 7q-36 0 -45 -48h-110q10 71 53.5 108t114.5 37q37 0 66.5 -15t45.5 -41t16 -58z" />
    <glyph glyph-name="three.sups" horiz-adv-x="349" 
d="M415 800l-4 -19l-105 -131q32 -12 50.5 -40.5t18.5 -64.5q0 -46 -23 -81.5t-63 -54.5t-89 -19q-65 0 -101.5 38t-26.5 102h102q-3 -19 7 -33.5t31 -14.5q24 0 41 17.5t17 43.5q0 17 -11 26.5t-31 9.5h-65l4 23l87 110h-136l18 88h279z" />
    <glyph glyph-name="four.sups" horiz-adv-x="369" 
d="M407 557l-17 -87h-38l-14 -72h-107l14 72h-194l5 23l190 307h113l-149 -243h58l48 95h73l-19 -95h37z" />
    <glyph glyph-name="five.sups" horiz-adv-x="344" 
d="M381 714h-152l-15 -49h28q39 0 69.5 -15.5t47 -42.5t16.5 -60q0 -68 -49.5 -111.5t-123.5 -43.5q-65 0 -101 37.5t-27 102.5h103q-4 -19 5.5 -33t30.5 -14q23 0 39.5 16.5t16.5 39.5q0 11 -4.5 19.5t-14 13t-21.5 4.5l-126 -2l-9 15l64 209h240z" />
    <glyph glyph-name="six.sups" horiz-adv-x="363" 
d="M283 670q51 0 84 -33t33 -83q0 -75 -53 -121t-134 -46q-63 0 -100.5 36t-37.5 93q0 43 18.5 78t57.5 84l97 122h121l-92 -114q-2 -2 -4.5 -5.5t-4.5 -6.5t-4 -5q10 1 19 1zM227 481q29 0 48.5 19.5t19.5 49.5q0 19 -12.5 31t-34.5 12q-18 0 -33.5 -9t-25 -24.5
t-9.5 -35.5t12.5 -31.5t34.5 -11.5z" />
    <glyph glyph-name="seven.sups" horiz-adv-x="328" 
d="M121 800h299l-4 -18l-225 -384h-114l181 309h-155z" />
    <glyph glyph-name="eight.sups" horiz-adv-x="365" 
d="M352 605q35 -27 35 -71q0 -67 -50 -104.5t-128 -37.5q-58 0 -96 30t-38 80q0 76 72 116q-27 27 -27 64q0 60 47.5 94.5t118.5 34.5q53 0 89 -28.5t36 -74.5q0 -64 -59 -103zM258 653q21 0 36 13t15 35q0 14 -10 22t-25 8t-27 -6.5t-18.5 -17t-6.5 -23.5q0 -14 10.5 -22.5
t25.5 -8.5zM223 475q25 0 42.5 16t17.5 40q0 17 -12.5 26.5t-31.5 9.5q-24 0 -41.5 -16t-17.5 -39q0 -17 12 -27t31 -10z" />
    </font>
</defs>
</svg>
