<?xml version="1.0" standalone="no"?>
<!DOCTYPE svg PUBLIC "-//W3C//DTD SVG 1.1//EN" "http://www.w3.org/Graphics/SVG/1.1/DTD/svg11.dtd" >
<svg xmlns="http://www.w3.org/2000/svg" xmlns:xlink="http://www.w3.org/1999/xlink" version="1.1">
<metadata>
Created by FontForge 20170731 at Mon Jan 29 13:05:55 2018
 By Aleksey,,,
Modern and elegant sans serif font family.
</metadata>
<defs>
<font id="Mont-RegularItalic" horiz-adv-x="0" >
  <font-face 
    font-family="Mont Italic"
    font-weight="600"
    font-style="italic"
    font-stretch="normal"
    units-per-em="1000"
    panose-1="0 0 7 0 0 0 0 0 0 0"
    ascent="800"
    descent="-200"
    x-height="540"
    cap-height="700"
    bbox="-746 -301 1150 988"
    underline-thickness="50"
    underline-position="-200"
    slope="-11.31"
    unicode-range="U+0020-25CA"
  />
<missing-glyph horiz-adv-x="460" 
d="M377 730v-920h-291v920h291zM306 668h-151v-30h59v-34h-60v-30h152v30h-60v34h60v30zM246 550h-92v-96h152v31h-60v65zM214 518v-33h-30v33h30zM306 429h-152v-30h60v-34h-60v-31h92v65h60v30zM306 374h-30v-61h-122v-31h152v92zM306 262h-92v-52h32v21h30v-43h-92v74
h-30v-104h152v104zM306 103h-152v-104h152v104zM276 72v-43h-92v43h92zM306 -23h-152v-30h64l-64 -43v-31h152v31h-93l64 43h29v30z" />
    <glyph glyph-name="f_f.liga" unicode="ff" horiz-adv-x="732" 
d="M740 687q-59 0 -87.5 -24.5t-41.5 -83.5l-8 -42h169l-13 -67h-167l-94 -470h-81l94 470h-266l-95 -470h-81l95 470h-108l13 67h108l9 47q18 88 65.5 128.5t137.5 40.5h69l-12 -66h-53q-60 0 -88.5 -24.5t-40.5 -83.5l-9 -42h269l10 47q18 88 65.5 128.5t137.5 40.5h78
l-13 -66h-62z" />
    <glyph glyph-name="f_f_t.liga" unicode="fft" horiz-adv-x="1082" 
d="M1097 468h-178q-8 -39 -21 -102q-38 -192 -38 -209q0 -16 4 -28.5t12 -22.5t19 -17t26 -10.5t33 -3.5h66l-15 -76h-71q-73 0 -115.5 37.5t-42.5 103.5q0 18 6.5 54t39.5 196q3 16 5 25t5 24.5t6 28.5h-122v2h-124l-94 -470h-81l94 470h-266l-95 -470h-81l95 470h-108
l13 67h108l9 47q18 88 65.5 128.5t137.5 40.5h78l-12 -66h-62q-60 0 -88.5 -24.5t-40.5 -83.5l-9 -42h269l10 47q12 59 36 95.5t65 55t102 18.5h78l-13 -66h-62q-59 0 -87.5 -24.5t-41.5 -83.5l-8 -42h248q15 72 32 159h81q-14 -71 -31 -159h177z" />
    <glyph glyph-name="f_t.liga" unicode="ft" horiz-adv-x="756" 
d="M770 468h-177q-8 -39 -21 -102q-38 -192 -38 -209q0 -19 6 -34.5t18 -26t29.5 -16t40.5 -5.5h66l-15 -76h-71q-49 0 -84.5 17t-54.5 48.5t-19 75.5q0 18 6.5 54t39.5 196q3 16 5 25t5 24.5t5 28.5h-267l-94 -468h-81l94 468h-107l13 69h108l9 47q18 88 65.5 128.5
t137.5 40.5h78l-12 -66h-62q-59 0 -88 -24.5t-41 -83.5l-9 -42h270q17 81 32 159h81q-14 -73 -32 -159h178z" />
    <glyph glyph-name="f_t_t.liga" unicode="ftt" horiz-adv-x="1121" 
d="M1137 468h-180q-8 -39 -21 -102q-38 -192 -38 -209q0 -39 24.5 -60.5t69.5 -21.5h66l-15 -76h-71q-74 0 -116 37.5t-42 103.5q0 18 6.5 54t39.5 196q3 16 5 25t5 24.5t6 28.5h-290q-8 -39 -21 -102q-38 -192 -38 -209q0 -39 24.5 -60.5t69.5 -21.5h66l-15 -76h-71
q-74 0 -116 37.5t-42 103.5q0 18 6.5 54t39.5 196q3 16 5 25t5 24.5t6 28.5h-261l-94 -468h-81l94 468h-107l13 69h108l9 47q18 88 65.5 128.5t137.5 40.5h78l-12 -66h-62q-60 0 -88.5 -24.5t-40.5 -83.5l-9 -42h263q18 88 32 159h81q-16 -84 -31 -159h289q18 88 32 159h81
q-16 -84 -31 -159h179z" />
    <glyph glyph-name="r_t.liga" unicode="rt" horiz-adv-x="797" 
d="M811 468h-177q-9 -43 -22 -111q-27 -130 -32 -157.5t-5 -41.5q0 -20 6.5 -35.5t18 -26t29.5 -16t41 -5.5h65l-15 -76h-75q-73 0 -113 37t-40 103q0 19 7 58.5t54 270.5h-113l14 70h113q17 83 32 158h81q-16 -78 -32 -158h177zM195 454q77 89 192 89h35l-16 -77h-41
q-71 0 -120.5 -42t-68.5 -117l-61 -307h-81l108 540h57z" />
    <glyph glyph-name="t_f.liga" unicode="tf" horiz-adv-x="727" 
d="M736 697q-59 0 -87.5 -24.5t-40.5 -83.5l-11 -52h170l-13 -69h-168l-94 -468h-81l94 468h-281q-13 -66 -31 -157q-28 -138 -28 -153q0 -40 24.5 -61.5t70.5 -21.5h61l-15 -76h-66q-74 0 -116 37.5t-42 103.5v9.5t1 12t2 14.5t4 21.5t5.5 28.5t8 39.5t10.5 51t13.5 67
t16.5 83.5h-95l3 13l199 173h12l-24 -116h280l12 57q12 59 36.5 95.5t65 55t101.5 18.5h78l-12 -66h-63z" />
    <glyph glyph-name=".notdef" horiz-adv-x="460" 
d="M377 730v-920h-291v920h291zM306 668h-151v-30h59v-34h-60v-30h152v30h-60v34h60v30zM246 550h-92v-96h152v31h-60v65zM214 518v-33h-30v33h30zM306 429h-152v-30h60v-34h-60v-31h92v65h60v30zM306 374h-30v-61h-122v-31h152v92zM306 262h-92v-52h32v21h30v-43h-92v74
h-30v-104h152v104zM306 103h-152v-104h152v104zM276 72v-43h-92v43h92zM306 -23h-152v-30h64l-64 -43v-31h152v31h-93l64 43h29v30z" />
    <glyph glyph-name=".null" 
 />
    <glyph glyph-name="nonmarkingreturn" horiz-adv-x="333" 
 />
    <glyph glyph-name="space" unicode=" " horiz-adv-x="265" 
 />
    <glyph glyph-name="exclam" unicode="!" horiz-adv-x="277" 
d="M81 191l105 529h82l-105 -529h-82zM37 0l20 103h94l-20 -103h-94z" />
    <glyph glyph-name="quotedbl" unicode="&#x22;" horiz-adv-x="365" 
d="M104 459l49 243h75l-48 -243h-76zM256 459l48 243h76l-49 -243h-75z" />
    <glyph glyph-name="numbersign" unicode="#" horiz-adv-x="640" 
d="M631 438h-92l-57 -164h94l-14 -69h-105l-72 -204h-75l71 204h-192l-74 -204h-75l74 204h-85l14 69h96l58 164h-99l14 66h109l70 196h75l-69 -196h190l68 196h75l-69 -196h84zM406 274l57 164h-190l-59 -164h192z" />
    <glyph glyph-name="dollar" unicode="$" horiz-adv-x="559" 
d="M543 482h-78q12 57 -23.5 89.5t-96.5 32.5q-71 0 -121 -35t-50 -90q0 -15 5 -27t16 -21t21.5 -15.5t30 -12.5t32 -9.5t37.5 -8.5q33 -8 55.5 -14.5t50.5 -19.5t45 -29t29 -40.5t12 -55.5q0 -99 -69.5 -163.5t-177.5 -72.5l-15 -79h-68l15 80q-80 9 -126 52.5t-46 115.5
q0 25 4 46h81q-9 -41 6.5 -73t49.5 -48t80 -16q74 0 128 40.5t54 99.5q0 18 -8.5 33t-20.5 24.5t-34 18t-38.5 13t-44.5 11.5q-33 8 -54.5 14.5t-49 19t-43.5 27.5t-27.5 38t-11.5 53q0 94 65 153.5t168 67.5l16 76h70l-16 -78q71 -9 112.5 -49t41.5 -101q0 -23 -6 -47z" />
    <glyph glyph-name="percent" unicode="%" horiz-adv-x="755" 
d="M207 377q-38 0 -67 15t-45 42.5t-16 62.5q0 74 52 125.5t128 51.5q57 0 91.5 -33.5t34.5 -86.5q0 -75 -51.5 -126t-126.5 -51zM79 0l534 665h81l-534 -665h-81zM215 439q44 0 75 30.5t31 75.5q0 30 -19 48.5t-51 18.5q-43 0 -74.5 -31t-31.5 -75q-1 -31 18.5 -49
t51.5 -18zM524 -4q-57 0 -92 33t-35 86q0 73 51 124t126 51q57 0 92 -33.5t35 -86.5q0 -73 -51 -123.5t-126 -50.5zM532 58q44 0 74.5 31.5t30.5 72.5q0 20 -8.5 35t-24.5 23.5t-38 8.5q-28 0 -51.5 -14t-38 -38t-14.5 -54q0 -29 19 -47t51 -18z" />
    <glyph glyph-name="ampersand" unicode="&#x26;" horiz-adv-x="614" 
d="M574 310q-23 -116 -94 -198q34 -48 81 -112h-89q-24 33 -45 62q-94 -73 -217 -73q-84 0 -135.5 42.5t-51.5 111.5q0 42 14.5 78t42.5 66t58.5 52t71.5 45q-46 86 -46 143q0 85 56 134.5t147 49.5q46 0 80 -15.5t52.5 -42.5t18.5 -63q0 -39 -17 -74.5t-50 -64t-64 -48.5
t-75 -44q44 -73 127 -190q50 62 66 141h69zM360 647q-54 0 -88.5 -29t-34.5 -75q0 -45 40 -122q24 12 34 17.5t32.5 18t33 20.5t26 21.5t23 25t13.5 27t6 31.5q0 29 -23 47t-62 18zM222 62q89 0 164 57q-94 131 -141 205q-67 -37 -105 -76t-38 -93q0 -43 32 -68t88 -25z" />
    <glyph glyph-name="quotesingle" unicode="'" horiz-adv-x="214" 
d="M104 459l49 243h75l-48 -243h-76z" />
    <glyph glyph-name="parenleft" unicode="(" horiz-adv-x="299" 
d="M111 -132q-65 131 -65 301q0 168 65.5 330.5t183.5 292.5h90q-76 -81 -134.5 -182t-92 -214t-33.5 -220q0 -171 75 -308h-89z" />
    <glyph glyph-name="parenright" unicode=")" horiz-adv-x="299" 
d="M-62 -132q117 125 188.5 290t71.5 326q0 171 -75 308h90q65 -133 65 -300.5t-67 -331t-183 -292.5h-90z" />
    <glyph glyph-name="asterisk" unicode="*" horiz-adv-x="394" 
d="M412 572l-114 -36l51 -87l-53 -38l-52 92l-92 -96l-45 42l90 90l-98 35l32 59l96 -36l22 110h63l-22 -110l111 36z" />
    <glyph glyph-name="plus" unicode="+" horiz-adv-x="523" 
d="M513 380l-16 -74h-188l-40 -198h-79l39 198h-190l15 74h190l39 193h79l-39 -193h190z" />
    <glyph glyph-name="comma" unicode="," horiz-adv-x="234" 
d="M0 -131l9 46q54 19 68 85h-56l20 102h100l-19 -99q-22 -108 -122 -134z" />
    <glyph glyph-name="hyphen" unicode="-" horiz-adv-x="458" 
d="M65 240l16 78h317l-16 -78h-317z" />
    <glyph glyph-name="period" unicode="." horiz-adv-x="226" 
d="M21 0l20 103h94l-21 -103h-93z" />
    <glyph glyph-name="slash" unicode="/" horiz-adv-x="448" 
d="M-32 -68l457 829h84l-456 -829h-85z" />
    <glyph glyph-name="zero" unicode="0" horiz-adv-x="622" 
d="M260 -12q-96 0 -149.5 65t-53.5 178q0 55 10 109.5t29 104t48 92t65 73.5t82 49t98 18q63 0 108.5 -29.5t69 -83.5t23.5 -129q0 -55 -10 -109.5t-29 -104t-48 -92t-65 -74t-82 -49.5t-96 -18zM271 66q37 0 71 15.5t59.5 42t46.5 61.5t34.5 75.5t20.5 83t7 83.5
q0 83 -34.5 127.5t-98.5 44.5q-56 0 -102.5 -33t-76 -86t-45.5 -116.5t-16 -126.5q0 -82 35 -126.5t99 -44.5z" />
    <glyph glyph-name="one" unicode="1" horiz-adv-x="323" 
d="M99 665h207l-133 -665h-80l120 595h-128z" />
    <glyph glyph-name="two" unicode="2" horiz-adv-x="522" 
d="M505 519q0 -29 -9.5 -59.5t-22 -56t-40.5 -60t-49 -58t-64.5 -64t-70.5 -64.5t-82 -72q-10 -9 -16 -14h294l-14 -72h-446l5 26q22 20 65 57q52 44 77.5 66.5t68.5 60.5t64.5 60t53 53.5t46.5 53t31.5 47t22.5 47t6 42.5q0 41 -27 65t-74 24q-57 0 -96 -31.5t-52 -84.5
l-4 -16h-78l4 16q23 95 84 143.5t154 48.5q50 0 89 -20.5t59.5 -56.5t20.5 -81z" />
    <glyph glyph-name="three" unicode="3" horiz-adv-x="529" 
d="M533 665l-4 -19l-206 -233q67 -11 106.5 -58t39.5 -114q0 -106 -76 -179.5t-188 -73.5q-83 0 -133.5 48t-50.5 126q0 10 2 31h77q-8 -56 25.5 -92.5t92.5 -36.5q73 0 123.5 52t50.5 121q0 25 -9.5 46t-26 36t-40.5 23t-53 8h-73l3 16l202 228h-269l14 71h393z" />
    <glyph glyph-name="four" unicode="4" horiz-adv-x="536" 
d="M500 211l-14 -70h-73l-29 -141h-74l28 141h-342l4 19l336 506h81l-303 -455h239l55 209h61l-42 -209h73z" />
    <glyph glyph-name="five" unicode="5" horiz-adv-x="523" 
d="M501 594h-264l-54 -175h101q85 0 135.5 -51t50.5 -129q0 -103 -76.5 -177t-184.5 -74q-83 0 -135 48t-52 123q0 17 3 34h77q-6 -37 7 -67t42 -47t68 -17q70 0 121.5 50.5t51.5 121.5q0 51 -34.5 83t-91.5 32h-167l-10 13l94 303h332z" />
    <glyph glyph-name="six" unicode="6" horiz-adv-x="548" 
d="M322 431q38 0 73 -13.5t60.5 -37t40.5 -57.5t15 -74q0 -110 -81 -185.5t-198 -75.5q-90 0 -144.5 52.5t-54.5 134.5q0 62 31.5 125t87.5 136l180 236h87q-76 -101 -137.5 -181.5t-63.5 -82.5q51 23 104 23zM242 63q52 0 96.5 25t70 67t25.5 90q0 35 -16 62t-46 41.5
t-70 14.5q-79 0 -136 -53.5t-57 -126.5q0 -53 36.5 -86.5t96.5 -33.5z" />
    <glyph glyph-name="seven" unicode="7" horiz-adv-x="494" 
d="M100 665h448l-2 -14l-393 -651h-82l361 594h-346z" />
    <glyph glyph-name="eight" unicode="8" horiz-adv-x="572" 
d="M442 352q32 -18 49 -52t17 -76q0 -104 -78.5 -170t-194.5 -66q-92 0 -146.5 47t-54.5 123q0 67 36.5 121t96.5 83q-47 37 -47 109q0 93 68.5 149.5t174.5 56.5q82 0 131.5 -42t49.5 -109q0 -50 -28.5 -99.5t-73.5 -74.5zM354 610q-45 0 -80.5 -17t-56 -47t-20.5 -68
q0 -41 30.5 -65t82.5 -24q65 0 111 38t46 95q0 40 -30.5 64t-82.5 24zM243 58q80 0 133 45t53 113q0 48 -36 76.5t-97 28.5q-77 0 -131 -45t-54 -113q0 -48 35.5 -76.5t96.5 -28.5z" />
    <glyph glyph-name="nine" unicode="9" horiz-adv-x="548" 
d="M342 677q89 0 144 -52.5t55 -133.5q0 -62 -32 -125.5t-87 -136.5l-180 -230h-87q163 210 196 254q-48 -19 -99 -19q-55 0 -98.5 24t-67 66t-23.5 93q0 110 81 185t198 75zM273 302q78 0 135 52.5t57 127.5q0 53 -36 86.5t-96 33.5q-81 0 -137.5 -54t-56.5 -128
q0 -53 36.5 -85.5t97.5 -32.5z" />
    <glyph glyph-name="colon" unicode=":" horiz-adv-x="235" 
d="M93 379l21 103h94l-21 -103h-94zM17 0l21 103h93l-20 -103h-94z" />
    <glyph glyph-name="semicolon" unicode=";" horiz-adv-x="243" 
d="M98 380l20 103h94l-20 -103h-94zM-2 -131l9 46q54 19 68 85h-56l20 102h100l-20 -99q-21 -108 -121 -134z" />
    <glyph glyph-name="less" unicode="&#x3c;" horiz-adv-x="529" 
d="M528 619l-19 -98l-340 -190l264 -188l-17 -84l-377 270l3 15z" />
    <glyph glyph-name="equal" unicode="=" horiz-adv-x="627" 
d="M101 416l15 73h480l-15 -73h-480zM57 194l15 73h480l-15 -73h-480z" />
    <glyph glyph-name="greater" unicode="&#x3e;" horiz-adv-x="528" 
d="M141 619l375 -275l-3 -15l-484 -270l20 100l336 187l-261 191z" />
    <glyph glyph-name="question" unicode="?" horiz-adv-x="509" 
d="M182 191q15 76 40.5 116t87.5 81q30 20 48 34t40.5 36.5t33 49.5t10.5 59q0 46 -31 71.5t-84 25.5q-59 0 -106 -33.5t-62 -89.5h-77q23 94 94.5 146.5t160.5 52.5q81 0 133 -45t52 -121q0 -41 -11.5 -75t-35.5 -62t-48 -48t-61 -44q-52 -35 -71.5 -65t-31.5 -89h-81z
M141 0l21 103h94l-21 -103h-94z" />
    <glyph glyph-name="at" unicode="@" horiz-adv-x="1011" 
d="M576 683q178 0 284.5 -95t106.5 -252q0 -79 -24.5 -148t-74 -113t-115.5 -44q-43 0 -74 22t-41 58q-37 -43 -87.5 -67.5t-108.5 -24.5q-83 0 -134.5 52t-51.5 132q0 110 78.5 190.5t190.5 80.5q35 0 66 -10.5t54 -30t38 -46.5l25 65h43q-7 -34 -13.5 -66.5t-11 -54.5
t-9 -43.5t-7 -35.5t-5 -27t-4 -20.5t-2.5 -14.5t-1.5 -11.5t-1 -8t-0.5 -6.5q0 -21 7.5 -37t22.5 -25t35 -9q44 0 77.5 38t49.5 92t16 112q0 86 -38.5 150t-112.5 99.5t-174 35.5q-99 0 -188 -36.5t-153.5 -98.5t-102.5 -147.5t-38 -179.5q0 -128 82.5 -202t227.5 -74
q109 0 193 44l-14 -64q-89 -44 -188 -44q-166 0 -265.5 93.5t-99.5 248.5q0 109 42 206t114.5 166.5t173 110t213.5 40.5zM457 88q79 0 135.5 58t56.5 137q0 56 -34.5 89.5t-93.5 33.5q-78 0 -135 -58t-57 -136q0 -36 15.5 -64t44.5 -44t68 -16z" />
    <glyph glyph-name="A" unicode="A" horiz-adv-x="696" 
d="M539 0l-37 170h-339l-104 -170h-93l427 700h78l155 -700h-87zM411 586l-205 -342h279z" />
    <glyph glyph-name="B" unicode="B" horiz-adv-x="648" 
d="M500 359q36 -17 55.5 -52t19.5 -80q0 -96 -72.5 -161.5t-175.5 -65.5h-285l141 700h272q49 0 87 -20t58.5 -54.5t20.5 -77.5q0 -57 -35 -110t-86 -79zM531 533q0 39 -26 63.5t-67 24.5h-189l-44 -221h191q53 0 94 40t41 93zM334 80q64 0 108 43.5t44 102.5q0 21 -7 39
t-20.5 31t-33 20.5t-42.5 7.5h-193l-49 -244h193z" />
    <glyph glyph-name="C" unicode="C" horiz-adv-x="775" 
d="M355 -11q-136 0 -216.5 79t-80.5 206q0 87 34 168t92 140t138.5 94t169.5 35q117 0 196 -67t88 -179h-84q-12 78 -66 121.5t-140 43.5q-93 0 -172.5 -48t-125.5 -128.5t-46 -172.5q0 -98 58 -154.5t161 -56.5q92 0 169 46.5t119 128.5h89q-52 -122 -154 -189t-229 -67z
" />
    <glyph glyph-name="D" unicode="D" horiz-adv-x="731" 
d="M407 700q135 0 216.5 -78.5t81.5 -203.5q0 -84 -33.5 -161t-90 -133.5t-135.5 -90t-165 -33.5h-238l140 700h224zM283 77q91 0 169 46.5t123.5 125t45.5 168.5q0 62 -26.5 109t-76.5 72.5t-117 25.5h-150l-109 -547h141z" />
    <glyph glyph-name="E" unicode="E" horiz-adv-x="550" 
d="M562 622h-311l-45 -224h286l-16 -76h-285l-49 -243h322l-16 -79h-405l140 700h394z" />
    <glyph glyph-name="F" unicode="F" horiz-adv-x="523" 
d="M559 623h-307l-48 -240h282l-15 -75h-282l-62 -308h-84l140 700h391z" />
    <glyph glyph-name="G" unicode="G" horiz-adv-x="797" 
d="M377 268l16 77h375q-33 -162 -143.5 -259t-269.5 -97q-134 0 -215.5 80.5t-81.5 209.5q0 115 56 214t154 158.5t214 59.5q124 0 207 -71.5t85 -183.5h-84q-8 79 -65.5 126.5t-145.5 47.5q-91 0 -169 -49t-122.5 -130t-44.5 -175q0 -95 57 -150.5t159 -55.5
q106 0 184.5 53t113.5 145h-280z" />
    <glyph glyph-name="H" unicode="H" horiz-adv-x="729" 
d="M635 700h84l-140 -700h-84l65 323h-369l-65 -323h-83l140 700h83l-60 -301h369z" />
    <glyph glyph-name="I" unicode="I" horiz-adv-x="277" 
d="M43 0l140 700h83l-140 -700h-83z" />
    <glyph glyph-name="J" unicode="J" horiz-adv-x="593" 
d="M217 -12q-93 0 -148.5 53t-55.5 142q0 25 7 62h81q-5 -28 -5 -48q0 -59 33.5 -93.5t92.5 -34.5q68 0 122.5 49t68.5 122l92 460h84l-93 -475q-21 -106 -97.5 -171.5t-181.5 -65.5z" />
    <glyph glyph-name="K" unicode="K" horiz-adv-x="628" 
d="M693 700l-326 -345l209 -355h-98l-190 323h-97l-65 -323h-83l140 700h83l-60 -299h95l280 299h112z" />
    <glyph glyph-name="L" unicode="L" horiz-adv-x="504" 
d="M141 77h310l-15 -77h-393l140 700h83z" />
    <glyph glyph-name="M" unicode="M" horiz-adv-x="955" 
d="M797 700h83l-24 -700h-81l18 553l-350 -534h-23l-137 534l-204 -553h-88l258 700h79l130 -521z" />
    <glyph glyph-name="N" unicode="N" horiz-adv-x="749" 
d="M654 700h85l-140 -700h-69l-293 552l-110 -552h-84l140 700h74l288 -547z" />
    <glyph glyph-name="O" unicode="O" horiz-adv-x="829" 
d="M365 -12q-138 0 -222 84.5t-84 214.5q0 86 33.5 164.5t91 135.5t139 91t173.5 34q137 0 221.5 -84.5t84.5 -215.5q0 -68 -21 -132.5t-60.5 -117t-93 -91.5t-121 -61t-141.5 -22zM378 69q96 0 174 46.5t121.5 124t43.5 166.5q0 100 -64 162.5t-170 62.5
q-96 0 -174.5 -46.5t-121.5 -123.5t-43 -166q0 -100 64 -163t170 -63z" />
    <glyph glyph-name="P" unicode="P" horiz-adv-x="609" 
d="M426 700q87 0 142 -52t55 -133q0 -42 -14 -82t-39.5 -72t-59 -56.5t-75 -37.5t-85.5 -13h-173l-51 -254h-83l140 700h243zM352 333q50 0 92.5 24.5t68 65.5t25.5 88q0 50 -33.5 80t-90.5 30h-163l-58 -288h159z" />
    <glyph glyph-name="Q" unicode="Q" horiz-adv-x="830" 
d="M802 412q0 -70 -22.5 -136t-63.5 -119.5t-98 -92.5l100 -151h-92l-76 114q-86 -39 -185 -39q-138 0 -222 84.5t-84 214.5q0 86 33.5 164.5t91 135.5t139 91t173.5 34q137 0 221.5 -84.5t84.5 -215.5zM378 69q68 0 128 24l-129 194h93l104 -157q67 47 105 120.5t38 155.5
q0 100 -64 162.5t-170 62.5q-96 0 -174.5 -47t-121.5 -124t-43 -165q0 -100 64 -163t170 -63z" />
    <glyph glyph-name="R" unicode="R" horiz-adv-x="643" 
d="M635 525q0 -88 -56 -154t-143 -87l110 -284h-90l-106 276h-168l-56 -276h-83l140 700h258q86 0 140 -49t54 -126zM371 354q49 0 90.5 22.5t65 61t23.5 82.5q0 47 -32 74.5t-88 27.5h-179l-54 -268h174z" />
    <glyph glyph-name="S" unicode="S" horiz-adv-x="595" 
d="M247 -11q-101 0 -159 46.5t-58 131.5q0 25 4 48h85q-3 -16 -3 -30q0 -55 41 -85t105 -30q77 0 132.5 42.5t55.5 105.5q0 20 -8.5 35.5t-21 25.5t-35 19t-40.5 14.5t-47 12.5q-35 8 -56 14.5t-50.5 19t-46 27.5t-28.5 39t-12 54q0 106 79 169t200 63q93 0 144.5 -43
t51.5 -118q0 -20 -5 -48h-82q3 15 3 29q0 47 -35.5 74t-93.5 27q-48 0 -88.5 -16.5t-64.5 -47t-24 -69.5q0 -17 8.5 -31.5t20.5 -24t34 -18.5t39 -13.5t46 -11.5q27 -7 42 -11t39 -12.5t38 -16t31.5 -20t27 -26.5t16 -34t6.5 -43q0 -110 -84 -179t-207 -69z" />
    <glyph glyph-name="T" unicode="T" horiz-adv-x="548" 
d="M614 700l-16 -77h-214l-125 -623h-83l124 623h-214l16 77h512z" />
    <glyph glyph-name="U" unicode="U" horiz-adv-x="723" 
d="M312 -12q-103 0 -167.5 60.5t-64.5 156.5q0 8 0.5 14.5t2 18t3 22t5.5 32t8.5 42.5t12.5 60l16 78t20.5 101.5t25.5 126.5h85q-24 -119 -54 -272q-38 -188 -38 -211q0 -68 40.5 -108t111.5 -40q85 0 150 54.5t82 142.5l86 434h85l-91 -444q-22 -120 -110.5 -194
t-208.5 -74z" />
    <glyph glyph-name="V" unicode="V" horiz-adv-x="677" 
d="M647 700h97l-419 -700h-77l-144 700h87l115 -574z" />
    <glyph glyph-name="W" unicode="W" horiz-adv-x="1024" 
d="M993 700h93l-361 -700h-73l-93 506l-292 -506h-74l-86 700h84l64 -563l319 548h29l104 -549z" />
    <glyph glyph-name="X" unicode="X" horiz-adv-x="598" 
d="M657 700l-286 -336l166 -364h-90l-136 298l-253 -298h-103l312 367l-153 333h90l123 -269l230 269h100z" />
    <glyph glyph-name="Y" unicode="Y" horiz-adv-x="654" 
d="M716 700l-344 -421l-56 -279h-86l56 279l-173 421h86l140 -342l280 342h97z" />
    <glyph glyph-name="Z" unicode="Z" horiz-adv-x="559" 
d="M610 700l-4 -16l-485 -607h376l-16 -77h-510l3 15l487 608h-350l16 77h483z" />
    <glyph glyph-name="bracketleft" unicode="[" horiz-adv-x="332" 
d="M399 722h-136l-158 -788h138l-14 -71h-214l185 928h212z" />
    <glyph glyph-name="backslash" unicode="\" horiz-adv-x="425" 
d="M249 -68l-126 829h85l126 -829h-85z" />
    <glyph glyph-name="bracketright" unicode="]" horiz-adv-x="333" 
d="M128 791h212l-185 -928h-214l14 71h138l158 788h-136z" />
    <glyph glyph-name="asciicircum" unicode="^" horiz-adv-x="532" 
d="M514 339h-86l-94 228l-186 -228h-98l298 363h15z" />
    <glyph glyph-name="underscore" unicode="_" horiz-adv-x="517" 
d="M-76 -127l15 78h516l-15 -78h-516z" />
    <glyph glyph-name="grave" unicode="`" horiz-adv-x="600" 
d="M330 604h-64l-60 152h86z" />
    <glyph glyph-name="a" unicode="a" horiz-adv-x="698" 
d="M601 540h64l-108 -540h-67l8 79q-95 -91 -226 -91q-104 0 -168.5 65t-64.5 166q0 53 16.5 103t47.5 91.5t71.5 72.5t91.5 48.5t105 17.5q68 0 119.5 -28t80.5 -77zM287 66q99 0 172.5 76t73.5 176q0 71 -45 113.5t-120 42.5q-65 0 -122.5 -35t-91 -93t-33.5 -123
q0 -46 20.5 -82t58 -55.5t87.5 -19.5z" />
    <glyph glyph-name="b" unicode="b" horiz-adv-x="692" 
d="M421 552q70 0 123 -29.5t81.5 -81.5t28.5 -118q0 -90 -44 -167t-120.5 -122.5t-166.5 -45.5q-65 0 -116 26.5t-81 72.5l-30 -87h-62l146 733h81l-52 -262q93 81 212 81zM325 66q49 0 94.5 21t78.5 55.5t53 80.5t20 95q0 71 -45 113.5t-120 42.5q-99 0 -172.5 -77
t-73.5 -174q0 -70 45.5 -113.5t119.5 -43.5z" />
    <glyph glyph-name="c" unicode="c" horiz-adv-x="617" 
d="M273 -12q-104 0 -169 65t-65 166q0 88 45 165t122 122.5t167 45.5q95 0 156.5 -52.5t71.5 -139.5h-80q-13 54 -54 84t-101 30q-97 0 -170.5 -76.5t-73.5 -176.5q0 -34 11.5 -63t32 -49t50 -31.5t64.5 -11.5q62 0 116 30.5t90 86.5h85q-41 -89 -121.5 -142t-176.5 -53z
" />
    <glyph glyph-name="d" unicode="d" horiz-adv-x="691" 
d="M616 733h81l-147 -733h-62l4 73q-94 -85 -220 -85q-104 0 -168.5 65t-64.5 166q0 53 16.5 103t47.5 91.5t71.5 72.5t91.5 48.5t105 17.5q42 0 78.5 -11t64.5 -31.5t48 -48.5zM287 68q99 0 172.5 75.5t73.5 174.5q0 70 -45 112t-120 42q-100 0 -174 -76t-74 -173
q0 -70 46 -112.5t121 -42.5z" />
    <glyph glyph-name="e" unicode="e" horiz-adv-x="630" 
d="M583 239h-465q-1 -12 -1 -23q0 -70 41.5 -110t115.5 -40q58 0 108.5 25.5t84.5 72.5h91q-50 -84 -124 -130t-163 -46q-68 0 -121 30t-82 82.5t-29 118.5q0 88 43.5 164.5t119.5 122.5t164 46q52 0 95 -17.5t72 -48.5t45 -73.5t16 -92.5q0 -38 -11 -81zM363 476
q-77 0 -138 -45.5t-89 -116.5h382v5q0 73 -41 115t-114 42z" />
    <glyph glyph-name="f" unicode="f" horiz-adv-x="384" 
d="M393 687q-60 0 -88.5 -24.5t-40.5 -83.5l-9 -42h170l-13 -67h-167l-95 -470h-81l95 470h-108l13 67h108l9 47q18 88 65.5 128.5t137.5 40.5h78l-12 -66h-62z" />
    <glyph glyph-name="g" unicode="g" horiz-adv-x="673" 
d="M586 540h54l-94 -468q-17 -87 -60 -149t-108 -94.5t-147 -32.5q-98 0 -156 48t-66 134h81q8 -51 49 -79.5t103 -28.5q84 0 145.5 54.5t79.5 145.5l5 25q-90 -78 -208 -78q-98 0 -160 62t-62 158q0 82 42.5 155t115.5 116.5t156 43.5q66 0 117 -28t80 -78zM281 95
q94 0 162.5 71.5t68.5 163.5q0 65 -42.5 104.5t-112.5 39.5q-94 0 -163.5 -71.5t-69.5 -163.5q0 -64 43 -104t114 -40z" />
    <glyph glyph-name="h" unicode="h" horiz-adv-x="642" 
d="M408 552q81 0 127 -46.5t46 -126.5q0 -8 -0.5 -14t-1.5 -15.5t-2.5 -18t-4.5 -26t-6 -33t-9 -45.5t-12 -58t-15.5 -75.5t-18.5 -93.5h-81q9 47 18.5 94t15 76t11.5 58t9 44.5t6 31.5t4 24t2 16.5t1.5 13.5t0.5 11q0 104 -115 104q-73 0 -133.5 -51.5t-76.5 -128.5
l-58 -293h-81l146 733h81l-52 -263q79 82 199 82z" />
    <glyph glyph-name="i" unicode="i" horiz-adv-x="255" 
d="M154 636l19 94h89l-19 -94h-89zM34 0l108 540h81l-108 -540h-81z" />
    <glyph glyph-name="j" unicode="j" horiz-adv-x="267" 
d="M163 636l20 94h88l-19 -94h-89zM-134 -193l15 74h27q53 0 89.5 31t47.5 84l109 544h81l-112 -558q-16 -81 -72.5 -128t-137.5 -47h-47z" />
    <glyph glyph-name="k" unicode="k" horiz-adv-x="536" 
d="M571 540l-250 -259l162 -281h-91l-141 244h-87l-49 -244h-81l146 733h81l-82 -414h73l214 221h105z" />
    <glyph glyph-name="l" unicode="l" horiz-adv-x="255" 
d="M34 0l146 733h81l-146 -733h-81z" />
    <glyph glyph-name="m" unicode="m" horiz-adv-x="950" 
d="M736 552q71 0 114 -43.5t43 -113.5q-1 -24 -36 -199q-23 -114 -39 -196h-81q16 82 39 192q32 158 32 180q0 51 -25.5 78t-72.5 27q-61 0 -114 -48.5t-69 -120.5q-4 -23 -24 -121t-38 -187h-79q17 82 39 192q32 158 32 180q0 51 -25.5 78t-71.5 27q-62 0 -115 -49
t-69 -120l-61 -308h-81l108 540h58l-2 -71q79 83 187 83q56 0 94.5 -27.5t53.5 -75.5q25 32 57.5 55t69.5 35.5t76 12.5z" />
    <glyph glyph-name="n" unicode="n" horiz-adv-x="642" 
d="M406 552q54 0 93.5 -21t60.5 -60t21 -92q0 -8 -0.5 -14t-1.5 -15.5t-2.5 -18t-4.5 -26t-6 -33t-9.5 -45.5t-12 -58t-15 -75.5t-18.5 -93.5h-81q13 67 32 163q25 120 30.5 150.5t5.5 48.5q0 115 -120 115q-70 0 -128 -50.5t-75 -125.5l-60 -301h-81l108 540h57l-1 -83
q38 45 91.5 70t116.5 25z" />
    <glyph glyph-name="o" unicode="o" horiz-adv-x="656" 
d="M278 -12q-107 0 -173 65t-66 167q0 89 45.5 165.5t123.5 121.5t170 45q71 0 125.5 -30t84 -82.5t29.5 -119.5q0 -89 -45.5 -165.5t-124 -121.5t-169.5 -45zM287 66q102 0 174.5 75t72.5 177q0 71 -45 113.5t-121 42.5q-101 0 -174 -74.5t-73 -177.5q0 -71 45.5 -113.5
t120.5 -42.5z" />
    <glyph glyph-name="p" unicode="p" horiz-adv-x="693" 
d="M423 552q69 0 122 -29.5t81 -82t28 -118.5q0 -89 -43.5 -165.5t-119.5 -122.5t-166 -46q-63 0 -113 25.5t-81 70.5l-55 -277h-81l147 733h56l-1 -83q97 95 226 95zM323 66q100 0 174.5 76t74.5 176q0 70 -44.5 113t-118.5 43q-100 0 -174 -76t-74 -178q0 -69 44 -111.5
t118 -42.5z" />
    <glyph glyph-name="q" unicode="q" horiz-adv-x="693" 
d="M604 540h56l-147 -733h-81l53 260q-91 -79 -210 -79q-105 0 -170.5 65.5t-65.5 166.5q0 88 44.5 164t121 122t165.5 46q67 0 118.5 -27.5t80.5 -76.5zM288 66q98 0 170.5 76t72.5 176q0 71 -44 113.5t-119 42.5q-99 0 -172.5 -76t-73.5 -175q0 -70 45.5 -113.5
t120.5 -43.5z" />
    <glyph glyph-name="r" unicode="r" horiz-adv-x="394" 
d="M387 543h48l-16 -77h-54q-71 0 -120.5 -42t-68.5 -117l-61 -307h-81l108 540h57l-4 -86q77 89 192 89z" />
    <glyph glyph-name="s" unicode="s" horiz-adv-x="510" 
d="M204 -12q-85 0 -136 39t-51 106q0 16 3 31h79q-2 -11 -2 -17q0 -41 35 -63t85 -22q42 0 75.5 12.5t53.5 36.5t20 56q0 18 -9.5 31.5t-29.5 21.5t-38.5 13t-48.5 10q-25 4 -40.5 7.5t-37.5 10t-35.5 15t-27 21t-20 30t-6.5 39.5q0 85 65.5 135.5t166.5 50.5
q52 0 92.5 -16.5t62.5 -47.5t22 -72q0 -14 -2 -30h-77q2 12 2 18q0 37 -32 56.5t-80 19.5q-30 0 -56.5 -7t-44.5 -19.5t-28.5 -30t-10.5 -38.5q0 -13 7 -24t17 -17.5t27.5 -12t32 -8.5t38.5 -7q31 -5 49.5 -9t45 -13.5t41.5 -22t26 -34t11 -49.5q0 -93 -69 -146.5
t-175 -53.5z" />
    <glyph glyph-name="t" unicode="t" horiz-adv-x="385" 
d="M396 467h-171q-13 -66 -31 -157q-28 -137 -28 -152q0 -26 11 -45t32 -28.5t51 -9.5h65l-15 -76h-70q-48 0 -84 17t-54.5 48.5t-18.5 75.5q0 23 27 161q20 95 34 166h-95l4 15l197 171h13l-23 -113h171z" />
    <glyph glyph-name="u" unicode="u" horiz-adv-x="631" 
d="M268 -12q-94 0 -149 51t-56 137q0 6 0.5 11.5t1 11.5t2 15.5t3 18.5t5 26t6.5 33t9 44t11 54t13.5 68t16.5 82h81q-16 -83 -37 -190q-20 -98 -24 -121.5t-4 -39.5q0 -39 15 -66.5t43.5 -42t69.5 -14.5q74 0 125.5 46.5t67.5 125.5l60 302h81l-64 -317q-22 -109 -95 -172
t-182 -63z" />
    <glyph glyph-name="v" unicode="v" horiz-adv-x="568" 
d="M519 540h86l-336 -540h-74l-126 540h81l99 -435z" />
    <glyph glyph-name="w" unicode="w" horiz-adv-x="845" 
d="M799 540h82l-291 -540h-66l-80 375l-230 -375h-67l-74 540h80l56 -404l246 395h30l88 -399z" />
    <glyph glyph-name="x" unicode="x" horiz-adv-x="510" 
d="M543 540l-238 -261l145 -279h-86l-113 220l-198 -220h-99l255 281l-130 259h86l101 -202l180 202h97z" />
    <glyph glyph-name="y" unicode="y" horiz-adv-x="583" 
d="M531 540h90l-372 -569q-63 -95 -113.5 -129.5t-126.5 -34.5h-53l15 74h39q55 0 86.5 22t78.5 91l32 47l-139 499h85l112 -413z" />
    <glyph glyph-name="z" unicode="z" horiz-adv-x="478" 
d="M499 540l-3 -14l-378 -452h290l-15 -74h-422l3 12l379 455h-270l15 73h401z" />
    <glyph glyph-name="braceleft" unicode="{" horiz-adv-x="344" 
d="M330 784h92l-14 -72h-60q-35 0 -59 -20t-31 -54l-43 -215q-6 -32 -27 -56t-49 -34q18 -10 29 -31.5t11 -47.5q0 -23 -24 -133.5t-24 -126.5q0 -26 16 -40.5t46 -14.5h61l-14 -72h-84q-46 0 -76.5 31.5t-30.5 76.5q0 20 25.5 144.5t25.5 136.5q0 20 -13 32.5t-34 12.5h-14
l13 68h14q25 0 45 17t25 41l47 235q11 53 52.5 87.5t94.5 34.5z" />
    <glyph glyph-name="bar" unicode="|" horiz-adv-x="269" 
d="M4 -190l206 1030h76l-206 -1030h-76z" />
    <glyph glyph-name="braceright" unicode="}" horiz-adv-x="343" 
d="M314 361h15l-14 -68h-14q-24 0 -44 -17t-25 -41l-50 -246q-11 -53 -52 -87.5t-95 -34.5h-92l14 72h61q35 0 58.5 20t30.5 54l46 226q3 17 10.5 32t17.5 26.5t22.5 20t25.5 13.5q-18 9 -29 30t-11 47q0 24 22.5 129.5t22.5 119.5q0 26 -15.5 40.5t-46.5 14.5h-60l14 72h84
q46 0 76.5 -31.5t30.5 -76.5q0 -18 -25 -138t-25 -132q0 -20 13 -32.5t34 -12.5z" />
    <glyph glyph-name="asciitilde" unicode="~" horiz-adv-x="580" 
d="M390 237q-35 0 -59.5 15t-51.5 43q-22 23 -38 34t-35 11q-28 0 -47 -25.5t-26 -74.5h-67q30 170 150 170q16 0 30.5 -3.5t25.5 -8.5t22 -13.5t19 -16.5t17 -19q14 -15 22 -22.5t20.5 -13.5t26.5 -6q52 0 72 98h67q-32 -168 -148 -168z" />
    <glyph glyph-name="uni00A0" unicode="&#xa0;" horiz-adv-x="265" 
 />
    <glyph glyph-name="exclamdown" unicode="&#xa1;" horiz-adv-x="253" 
d="M228 540l-20 -103h-94l20 103h94zM185 349l-106 -529h-82l106 529h82z" />
    <glyph glyph-name="cent" unicode="&#xa2;" horiz-adv-x="598" 
d="M272 65q59 0 109.5 29.5t85.5 81.5h78q-35 -78 -103 -127.5t-151 -57.5l-16 -80h-65l16 81q-56 7 -98 36.5t-65 75.5t-23 102q0 122 85 215t207 104l18 85h65l-17 -87q76 -10 124 -58.5t55 -122.5h-77q-13 51 -53 79.5t-97 28.5q-47 0 -90 -20.5t-74 -53.5t-49.5 -76
t-18.5 -88q0 -65 42.5 -106t111.5 -41z" />
    <glyph glyph-name="sterling" unicode="&#xa3;" horiz-adv-x="591" 
d="M564 478h-72q3 17 3 31q0 46 -28.5 73t-75.5 27q-37 0 -70.5 -18t-56 -49t-29.5 -69l-24 -119h185l-15 -67h-183l-44 -220h281l18 92h73l-32 -159h-503l12 55l72 11l44 221h-61l15 67h59l27 132q12 59 46.5 104t85.5 69.5t110 24.5q51 0 89 -20t58.5 -56t20.5 -84
q0 -20 -5 -46z" />
    <glyph glyph-name="currency" unicode="&#xa4;" horiz-adv-x="596" 
d="M494 421q22 -40 22 -88q0 -89 -66 -160l62 -79l-53 -46l-63 80q-61 -38 -129 -38t-116 41l-97 -83l-40 48l98 84q-20 38 -20 83q0 93 69 165l-61 77l53 47l64 -79q59 34 124 34t112 -38l101 84l40 -48zM158 268q0 -48 33.5 -79t84.5 -31q66 0 119.5 53.5t53.5 119.5
q0 48 -32.5 78.5t-83.5 30.5q-43 0 -84 -24.5t-66 -64.5t-25 -83z" />
    <glyph glyph-name="yen" unicode="&#xa5;" horiz-adv-x="636" 
d="M360 296l-4 -22h194l-11 -54h-194l-13 -67h194l-11 -53h-194l-20 -100h-80l20 100h-193l10 53h194l13 67h-193l11 54h193l4 23l-171 368h81l139 -303l264 303h88z" />
    <glyph glyph-name="brokenbar" unicode="&#xa6;" horiz-adv-x="269" 
d="M122 400l88 440h76l-88 -440h-76zM4 -190l90 450h76l-90 -450h-76z" />
    <glyph glyph-name="section" unicode="&#xa7;" horiz-adv-x="510" 
d="M493 554h-68q8 48 -21 71.5t-80 23.5t-84.5 -26.5t-33.5 -68.5q0 -31 27 -48t78 -31q27 -8 45.5 -14t42 -18t38 -25.5t24.5 -35t10 -48.5q0 -103 -112 -156q39 -32 39 -83q0 -77 -56 -120t-145 -43q-74 0 -119 33.5t-45 94.5q0 15 3 31h68q-7 -48 21.5 -71.5t81.5 -23.5
q35 0 62.5 11t44 32.5t16.5 48.5q0 32 -27.5 49t-82.5 31q-25 7 -45 14t-42.5 19.5t-37.5 27t-25 36.5t-10 48q0 108 117 155q-39 31 -39 81q0 77 54 120.5t141 43.5q74 0 118.5 -34.5t44.5 -93.5q0 -15 -3 -31zM401 325q0 16 -6.5 29t-14.5 21t-25.5 16.5t-28.5 12.5
t-34 12q-11 3 -16 5q-23 8 -39 15q-25 -8 -45 -19.5t-33.5 -26t-21 -33t-7.5 -37.5q0 -17 7.5 -30.5t16.5 -22t28.5 -17t32 -13t37.5 -11.5q28 -8 48 -16q31 10 53.5 26t35 39t12.5 50z" />
    <glyph glyph-name="dieresis" unicode="&#xa8;" horiz-adv-x="600" 
d="M60 636l19 94h94l-19 -94h-94zM255 636l19 94h94l-19 -94h-94z" />
    <glyph glyph-name="copyright" unicode="&#xa9;" horiz-adv-x="840" 
d="M368 -11q-140 0 -225 79.5t-85 207.5q0 118 59.5 217.5t162.5 157.5t225 58q92 0 162.5 -36t108.5 -101t38 -149q0 -118 -59.5 -218t-162 -158t-224.5 -58zM375 41q106 0 195 51.5t140 138t51 187.5q0 109 -71 174t-191 65q-105 0 -194.5 -51t-141 -137.5t-51.5 -187.5
q0 -72 32 -126t92 -84t139 -30zM402 167q-68 0 -110.5 42t-42.5 106q0 89 65 154t156 65q61 0 103 -36t44 -89h-55q-8 34 -34.5 52.5t-64.5 18.5q-66 0 -112.5 -48t-46.5 -110q0 -44 29 -72t77 -28q82 0 128 72h56q-28 -58 -79 -92.5t-113 -34.5z" />
    <glyph glyph-name="ordfeminine" unicode="&#xaa;" horiz-adv-x="464" 
d="M427 706h49l-66 -333h-51l3 49q-59 -54 -134 -54q-59 0 -97.5 41t-38.5 101q0 54 28 100.5t74 73.5t98 27q78 0 116 -58zM245 427q55 0 95.5 40.5t40.5 97.5q0 39 -24 63.5t-65 24.5q-54 0 -95 -41t-41 -96q0 -26 11 -46.5t31.5 -31.5t46.5 -11z" />
    <glyph glyph-name="guillemotleft" unicode="&#xab;" horiz-adv-x="595" 
d="M351 475l-223 -212l133 -204h-90l-133 205l3 15l204 196h106zM588 475l-222 -212l133 -204h-90l-134 205l3 15l205 196h105z" />
    <glyph glyph-name="logicalnot" unicode="&#xac;" horiz-adv-x="582" 
d="M79 398h453l-55 -274h-80l40 200h-374z" />
    <glyph glyph-name="registered" unicode="&#xae;" horiz-adv-x="471" 
d="M317 710q68 0 113 -44.5t45 -111.5q0 -87 -67.5 -154.5t-157.5 -67.5q-69 0 -114 45t-45 111q0 89 68 155.5t158 66.5zM252 367q75 0 132 57t57 128q0 53 -35.5 88t-91.5 35q-74 0 -131.5 -56t-57.5 -130q0 -53 35.5 -87.5t91.5 -34.5zM317 621q23 0 38 -16t15 -39
q0 -25 -14 -42.5t-37 -23.5l29 -75h-37l-27 72h-35l-15 -72h-35l39 196h79zM297 529q11 0 20 4.5t14.5 12.5t5.5 19q0 24 -28 24h-42l-12 -60h42z" />
    <glyph glyph-name="macron" unicode="&#xaf;" horiz-adv-x="507" 
d="M173 651l13 64h313l-13 -64h-313z" />
    <glyph glyph-name="degree" unicode="&#xb0;" horiz-adv-x="372" 
d="M237 549q-53 0 -86.5 34t-33.5 85q0 71 54 121.5t124 50.5q53 0 88 -35t35 -86q0 -34 -15.5 -66t-40.5 -54.5t-58 -36t-67 -13.5zM248 602q21 0 42 9t37 24t26 35t10 42q0 32 -21.5 53t-55.5 21q-45 0 -79.5 -33t-34.5 -78q0 -21 9 -37.5t26.5 -26t40.5 -9.5z" />
    <glyph glyph-name="plusminus" unicode="&#xb1;" horiz-adv-x="603" 
d="M377 457h200l-15 -73h-200l-37 -186h-79l37 186h-200l15 73h200l38 187h79zM14 22l15 75h480l-15 -75h-480z" />
    <glyph glyph-name="acute" unicode="&#xb4;" horiz-adv-x="440" 
d="M167 604l98 152h87l-121 -152h-64z" />
    <glyph glyph-name="paragraph" unicode="&#xb6;" horiz-adv-x="613" 
d="M660 700l-15 -70h-92l-138 -691h-73l137 691h-123l-138 -691h-73l71 360q-44 5 -76.5 25t-50 53t-17.5 75q0 103 76 175.5t185 72.5h327z" />
    <glyph glyph-name="periodcentered" unicode="&#xb7;" horiz-adv-x="234" 
d="M70 273l21 103h93l-20 -103h-94z" />
    <glyph glyph-name="cedilla" unicode="&#xb8;" horiz-adv-x="389" 
d="M129 -44q36 -5 57 -27t21 -53q0 -49 -36 -78.5t-94 -29.5h-76l9 50h63q31 0 51 16.5t20 40.5q0 18 -13 28.5t-37 10.5h-29l-7 9l48 104h57z" />
    <glyph glyph-name="ordmasculine" unicode="&#xba;" horiz-adv-x="438" 
d="M239 368q-42 0 -76 18t-52.5 49.5t-18.5 70.5q0 84 61.5 144t147.5 60q65 0 105.5 -39t40.5 -100q0 -84 -61 -143.5t-147 -59.5zM248 428q56 0 96.5 39.5t40.5 96.5q0 39 -25 62.5t-67 23.5q-56 0 -96.5 -39.5t-40.5 -96.5q0 -39 25 -62.5t67 -23.5z" />
    <glyph glyph-name="guillemotright" unicode="&#xbb;" horiz-adv-x="595" 
d="M319 270l-3 -15l-204 -196h-108l226 216l-131 200h87zM423 475l133 -205l-3 -15l-204 -196h-108l226 216l-131 200h87z" />
    <glyph glyph-name="onequarter" unicode="&#xbc;" horiz-adv-x="845" 
d="M614 730h66l-556 -760h-66zM170 322h-66l64 321h-63l11 57h129zM790 131l-12 -55h-36l-16 -76h-62l16 76h-187l3 13l186 289h67l-160 -247h103l31 104h50l-20 -104h37z" />
    <glyph glyph-name="onehalf" unicode="&#xbd;" horiz-adv-x="823" 
d="M612 730h66l-556 -760h-66zM168 322h-66l64 321h-63l12 57h128zM778 286q0 -21 -9.5 -44t-20.5 -40.5t-38.5 -45.5t-44.5 -44t-57 -52h138l-13 -60h-259l3 16q14 12 40 35q54 49 80 73.5t58.5 58.5t45.5 57.5t13 42.5q0 13 -6 23t-16 15t-24 5q-56 0 -70 -65h-64
q26 124 142 124q46 0 74 -28t28 -71z" />
    <glyph glyph-name="threequarters" unicode="&#xbe;" horiz-adv-x="972" 
d="M742 730h65l-556 -760h-66zM328 458q0 -61 -42 -102t-107 -41q-55 0 -86.5 33.5t-24.5 88.5h63q-3 -17 2.5 -31t18.5 -22t31 -8q35 0 58.5 24.5t23.5 56.5q0 7 -1.5 13t-4 11.5t-6.5 9.5t-9 7.5t-11.5 6t-13.5 3.5t-14 1h-50l2 13l101 121h-138l11 57h234l-3 -14
l-110 -127q34 -9 55 -36.5t21 -64.5zM917 131l-12 -55h-36l-15 -76h-62l15 76h-187l3 13l186 289h68l-161 -247h104l31 104h50l-21 -104h37z" />
    <glyph glyph-name="questiondown" unicode="&#xbf;" horiz-adv-x="500" 
d="M248 437l20 103h94l-20 -103h-94zM165 -204q-81 0 -133 45t-52 121q0 33 8.5 62t21.5 51t34.5 44t42 37t49.5 35q37 25 56.5 45.5t29.5 44.5t17 64h81q-14 -75 -40 -115t-89 -82q-24 -17 -37.5 -26.5t-34 -28.5t-31.5 -35t-19.5 -40t-8.5 -49q0 -46 31 -71.5t84 -25.5
q59 0 105.5 33t62.5 89h77q-24 -93 -95 -145.5t-160 -52.5z" />
    <glyph glyph-name="Agrave" unicode="&#xc0;" horiz-adv-x="696" 
d="M465 779h-64l-68 142h86zM539 0l-37 170h-339l-104 -170h-93l427 700h78l155 -700h-87zM411 586l-205 -342h279z" />
    <glyph glyph-name="Aacute" unicode="&#xc1;" horiz-adv-x="696" 
d="M587 921l-124 -142h-65l102 142h87zM539 0l-37 170h-339l-104 -170h-93l427 700h78l155 -700h-87zM411 586l-205 -342h279z" />
    <glyph glyph-name="Acircumflex" unicode="&#xc2;" horiz-adv-x="696" 
d="M457 875l-112 -96h-78l147 142h92l90 -142h-65zM539 0l-37 170h-339l-104 -170h-93l427 700h78l155 -700h-87zM411 586l-205 -342h279z" />
    <glyph glyph-name="Atilde" unicode="&#xc3;" horiz-adv-x="696" 
d="M378 862q-47 0 -62 -77h-52q27 135 125 135q29 0 46 -11.5t35 -34.5q14 -18 25.5 -26.5t28.5 -8.5q46 0 61 75h54q-7 -33 -19 -58.5t-28 -42t-35.5 -24.5t-41.5 -8q-15 0 -27.5 3.5t-23 11t-17.5 14.5t-16 18q-15 17 -26.5 25.5t-26.5 8.5zM393 700h78l155 -700h-87
l-37 170h-339l-104 -170h-93zM411 586l-205 -342h279z" />
    <glyph glyph-name="Adieresis" unicode="&#xc4;" horiz-adv-x="696" 
d="M400 893l-19 -94h-93l18 94h94zM616 893l-19 -94h-93l18 94h94zM539 0l-37 170h-339l-104 -170h-93l427 700h78l155 -700h-87zM411 586l-205 -342h279z" />
    <glyph glyph-name="Aring" unicode="&#xc5;" horiz-adv-x="696" 
d="M441 762q-44 0 -71 26t-27 67q0 58 39 95.5t99 37.5q44 0 71 -26.5t27 -67.5q0 -28 -11 -52.5t-29.5 -42t-44 -27.5t-53.5 -10zM473 939q-34 0 -57 -22t-23 -57q0 -23 14.5 -36t40.5 -13q33 0 57 22.5t24 56.5q0 23 -15.5 36t-40.5 13zM539 0l-37 170h-339l-104 -170h-93
l427 700h78l155 -700h-87zM411 586l-205 -342h279z" />
    <glyph glyph-name="AE" unicode="&#xc6;" horiz-adv-x="895" 
d="M907 622h-311l-45 -225h286l-16 -75h-285l-49 -244h323l-16 -78h-406l31 157h-256l-126 -157h-101l561 700h426zM222 231h212l71 356z" />
    <glyph glyph-name="Ccedilla" unicode="&#xc7;" horiz-adv-x="775" 
d="M361 70q92 0 169 46.5t119 128.5h89q-50 -118 -147 -184.5t-219 -71.5l-16 -33q35 -5 55 -25t20 -50q0 -48 -41.5 -80.5t-99.5 -32.5h-67l10 50h66q28 0 47.5 16t19.5 39q0 17 -13.5 27.5t-35.5 10.5h-25l-8 12l31 68q-79 8 -137 45.5t-89 98.5t-31 139q0 87 34 168
t92 140t138.5 94t169.5 35q117 0 196 -67t88 -179h-84q-12 78 -66 121.5t-140 43.5q-93 0 -172.5 -48t-125.5 -128.5t-46 -172.5q0 -98 58 -154.5t161 -56.5z" />
    <glyph glyph-name="Egrave" unicode="&#xc8;" horiz-adv-x="550" 
d="M420 779h-64l-68 142h86zM562 622h-311l-45 -224h286l-16 -76h-285l-49 -243h322l-16 -79h-405l140 700h394z" />
    <glyph glyph-name="Eacute" unicode="&#xc9;" horiz-adv-x="550" 
d="M541 921l-124 -142h-64l102 142h86zM562 622h-311l-45 -224h286l-16 -76h-285l-49 -243h322l-16 -79h-405l140 700h394z" />
    <glyph glyph-name="Ecircumflex" unicode="&#xca;" horiz-adv-x="550" 
d="M411 875l-111 -96h-78l146 142h92l91 -142h-66zM562 622h-311l-45 -224h286l-16 -76h-285l-49 -243h322l-16 -79h-405l140 700h394z" />
    <glyph glyph-name="Edieresis" unicode="&#xcb;" horiz-adv-x="550" 
d="M354 893l-18 -94h-94l18 94h94zM570 893l-18 -94h-94l18 94h94zM562 622h-311l-45 -224h286l-16 -76h-285l-49 -243h322l-16 -79h-405l140 700h394z" />
    <glyph glyph-name="Igrave" unicode="&#xcc;" horiz-adv-x="277" 
d="M266 779h-65l-40 142h85zM43 0l140 700h83l-140 -700h-83z" />
    <glyph glyph-name="Iacute" unicode="&#xcd;" horiz-adv-x="277" 
d="M198 779l78 142h83l-99 -142h-62zM43 0l140 700h83l-140 -700h-83z" />
    <glyph glyph-name="Icircumflex" unicode="&#xce;" horiz-adv-x="277" 
d="M303 921l75 -142h-63l-57 95l-96 -95h-73l132 142h82zM43 0l140 700h83l-140 -700h-83z" />
    <glyph glyph-name="Idieresis" unicode="&#xcf;" horiz-adv-x="277" 
d="M133 798l18 86h89l-17 -86h-90zM265 798l18 86h89l-17 -86h-90zM43 0l140 700h83l-140 -700h-83z" />
    <glyph glyph-name="Eth" unicode="&#xd0;" horiz-adv-x="752" 
d="M429 700q134 0 216 -78.5t82 -203.5q0 -84 -33.5 -161t-90 -133.5t-135.5 -90t-165 -33.5h-239l64 317h-104l14 68h103l63 315h225zM305 77q91 0 169 46.5t123 125t45 168.5q0 94 -59 150.5t-160 56.5h-150l-48 -239h203l-14 -68h-203l-48 -240h142z" />
    <glyph glyph-name="Ntilde" unicode="&#xd1;" horiz-adv-x="749" 
d="M419 862q-47 0 -62 -77h-52q27 135 124 135q30 0 47 -11.5t35 -34.5q14 -18 25.5 -26.5t28.5 -8.5q46 0 61 75h53q-12 -66 -44.5 -99.5t-78.5 -33.5q-29 0 -47 12t-38 35q-14 17 -25.5 25.5t-26.5 8.5zM654 700h85l-140 -700h-69l-293 552l-110 -552h-84l140 700h74
l288 -547z" />
    <glyph glyph-name="Ograve" unicode="&#xd2;" horiz-adv-x="829" 
d="M479 779l-68 142h86l46 -142h-64zM365 -12q-138 0 -222 84.5t-84 214.5q0 86 33.5 164.5t91 135.5t139 91t173.5 34q137 0 221.5 -84.5t84.5 -215.5q0 -86 -33.5 -164t-91 -135t-139 -91t-173.5 -34zM378 69q96 0 174 46.5t121.5 124t43.5 166.5q0 100 -64 162.5
t-170 62.5q-96 0 -174.5 -46.5t-121.5 -123.5t-43 -166q0 -100 64 -163t170 -63z" />
    <glyph glyph-name="Oacute" unicode="&#xd3;" horiz-adv-x="829" 
d="M476 779l102 142h87l-124 -142h-65zM365 -12q-138 0 -222 84.5t-84 214.5q0 86 33.5 164.5t91 135.5t139 91t173.5 34q137 0 221.5 -84.5t84.5 -215.5q0 -86 -33.5 -164t-91 -135t-139 -91t-173.5 -34zM378 69q96 0 174 46.5t121.5 124t43.5 166.5q0 100 -64 162.5
t-170 62.5q-96 0 -174.5 -46.5t-121.5 -123.5t-43 -166q0 -100 64 -163t170 -63z" />
    <glyph glyph-name="Ocircumflex" unicode="&#xd4;" horiz-adv-x="829" 
d="M535 875l-112 -96h-78l147 142h92l90 -142h-65zM496 712q137 0 221.5 -84.5t84.5 -215.5q0 -86 -33.5 -164t-91 -135t-139 -91t-173.5 -34q-138 0 -222 84.5t-84 214.5q0 86 33.5 164.5t91 135.5t139 91t173.5 34zM378 69q96 0 174 46.5t121.5 124t43.5 166.5
q0 100 -64 162.5t-170 62.5q-96 0 -174.5 -46.5t-121.5 -123.5t-43 -166q0 -100 64 -163t170 -63z" />
    <glyph glyph-name="Otilde" unicode="&#xd5;" horiz-adv-x="829" 
d="M593 781q-29 0 -47 12t-37 35q-15 17 -26.5 25.5t-26.5 8.5q-47 0 -62 -77h-52q27 135 125 135q20 0 36 -7t24.5 -15.5t20.5 -23.5q4 -6 7.5 -9.5t7.5 -8t8 -7.5t9 -5.5t10.5 -3.5t11.5 -1q46 0 61 75h54q-13 -66 -45.5 -99.5t-78.5 -33.5zM365 -12q-138 0 -222 84.5
t-84 214.5q0 86 33.5 164.5t91 135.5t139 91t173.5 34q137 0 221.5 -84.5t84.5 -215.5q0 -68 -21 -132.5t-60.5 -117t-93 -91.5t-121 -61t-141.5 -22zM378 69q96 0 174 46.5t121.5 124t43.5 166.5q0 100 -64 162.5t-170 62.5q-96 0 -174 -46.5t-121.5 -123.5t-43.5 -166
q0 -100 64 -163t170 -63z" />
    <glyph glyph-name="Odieresis" unicode="&#xd6;" horiz-adv-x="829" 
d="M365 799l19 94h94l-19 -94h-94zM582 799l18 94h94l-19 -94h-93zM365 -12q-138 0 -222 84.5t-84 214.5q0 86 33.5 164.5t91 135.5t139 91t173.5 34q137 0 221.5 -84.5t84.5 -215.5q0 -86 -33.5 -164t-91 -135t-139 -91t-173.5 -34zM378 69q96 0 174 46.5t121.5 124
t43.5 166.5q0 100 -64 162.5t-170 62.5q-96 0 -174.5 -46.5t-121.5 -123.5t-43 -166q0 -100 64 -163t170 -63z" />
    <glyph glyph-name="multiply" unicode="&#xd7;" horiz-adv-x="508" 
d="M499 487l-178 -150l118 -150l-58 -48l-118 149l-177 -149l-48 58l178 150l-119 150l60 46l117 -147l174 147z" />
    <glyph glyph-name="Oslash" unicode="&#xd8;" horiz-adv-x="836" 
d="M713 637q46 -39 71 -96.5t25 -126.5q0 -85 -34.5 -164t-92.5 -136t-139 -91.5t-169 -34.5q-86 0 -154 33l-66 -83h-91l97 119q-49 39 -75.5 97.5t-26.5 128.5q0 85 35 164t93.5 137t139.5 92.5t169 34.5t159 -35l69 86h91zM486 630q-91 0 -170.5 -47.5t-126 -126
t-46.5 -167.5q0 -103 73 -163l384 480q-51 24 -114 24zM381 69q55 0 108 18t95 50.5t74 75t49.5 93.5t17.5 103q0 98 -68 160l-383 -479q50 -20 107 -21z" />
    <glyph glyph-name="Ugrave" unicode="&#xd9;" horiz-adv-x="723" 
d="M416 779l-68 142h86l46 -142h-64zM312 -12q-103 0 -167.5 60.5t-64.5 156.5q0 8 0.5 14.5t2 18t3 22t5.5 32t8.5 42.5t12.5 60l16 78t20.5 101.5t25.5 126.5h85q-13 -62 -25 -123t-19.5 -100t-15.5 -77t-12 -60t-8 -43t-6 -32t-3.5 -21t-2 -15.5t-0.5 -11.5q0 -45 18 -78
t52 -51.5t82 -18.5q85 0 150 54.5t82 142.5l86 434h85l-91 -444q-22 -120 -110.5 -194t-208.5 -74z" />
    <glyph glyph-name="Uacute" unicode="&#xda;" horiz-adv-x="723" 
d="M413 779l102 142h86l-124 -142h-64zM312 -12q-103 0 -167.5 60.5t-64.5 156.5q0 8 0.5 14.5t2 18t3 22t5.5 32t8.5 42.5t12.5 60l16 78t20.5 101.5t25.5 126.5h85q-13 -62 -25 -123t-19.5 -100t-15.5 -77t-12 -60t-8 -43t-6 -32t-3.5 -21t-2 -15.5t-0.5 -11.5
q0 -45 18 -78t52 -51.5t82 -18.5q85 0 150 54.5t82 142.5l86 434h85l-91 -444q-23 -120 -111 -194t-208 -74z" />
    <glyph glyph-name="Ucircumflex" unicode="&#xdb;" horiz-adv-x="723" 
d="M471 875l-111 -96h-78l146 142h92l91 -142h-66zM637 700h85l-91 -444q-23 -120 -111 -194t-208 -74q-103 0 -167.5 60.5t-64.5 156.5q0 8 0.5 14.5t1 14t2.5 19t4.5 24t7 34.5t9 45t12 59.5t15 74.5t19 95t23.5 115h85q-24 -119 -54 -272q-38 -188 -38 -211
q0 -68 40.5 -108t111.5 -40q85 0 150 54.5t82 142.5z" />
    <glyph glyph-name="Udieresis" unicode="&#xdc;" horiz-adv-x="723" 
d="M302 799l18 94h94l-18 -94h-94zM518 799l19 94h93l-18 -94h-94zM312 -12q-103 0 -167.5 60.5t-64.5 156.5q0 8 0.5 14.5t2 18t3 22t5.5 32t8.5 42.5t12.5 60l16 78t20.5 101.5t25.5 126.5h85q-13 -62 -25 -123t-19.5 -100t-15.5 -77t-12 -60t-8 -43t-6 -32t-3.5 -21
t-2 -15.5t-0.5 -11.5q0 -45 18 -78t52 -51.5t82 -18.5q85 0 150 54.5t82 142.5l86 434h85l-91 -444q-22 -120 -110.5 -194t-208.5 -74z" />
    <glyph glyph-name="Yacute" unicode="&#xdd;" horiz-adv-x="654" 
d="M568 921l-124 -142h-65l102 142h87zM716 700l-344 -421l-56 -279h-86l56 279l-173 421h86l140 -342l280 342h97z" />
    <glyph glyph-name="Thorn" unicode="&#xde;" horiz-adv-x="621" 
d="M400 574q88 0 142.5 -52t54.5 -133q0 -113 -77.5 -188t-194.5 -75h-174l-25 -126h-83l140 700h83l-25 -126h159zM330 203q77 0 130 53t53 127q0 34 -15.5 59.5t-44 40t-65.5 14.5h-162l-59 -294h163z" />
    <glyph glyph-name="germandbls" unicode="&#xdf;" horiz-adv-x="610" 
d="M477 379q38 -17 58.5 -51.5t20.5 -80.5q0 -111 -79.5 -179.5t-201.5 -68.5h-72l15 78h73q79 0 133 46.5t54 116.5q0 47 -34 75.5t-92 28.5h-71l15 75h62q65 0 113.5 44.5t48.5 104.5q0 46 -32.5 73t-87.5 27q-48 0 -86.5 -19.5t-63.5 -58t-36 -92.5l-99 -498h-81l101 507
q23 117 94 177.5t182 60.5q83 0 133.5 -47.5t50.5 -120.5q0 -38 -15 -77t-42 -70.5t-61 -50.5z" />
    <glyph glyph-name="agrave" unicode="&#xe0;" horiz-adv-x="698" 
d="M424 604h-64l-60 152h86zM601 540h64l-108 -540h-67l8 79q-95 -91 -226 -91q-104 0 -168.5 65t-64.5 166q0 53 16.5 103t47.5 91.5t71.5 72.5t91.5 48.5t105 17.5q68 0 119.5 -28t80.5 -77zM287 66q99 0 172.5 76t73.5 176q0 71 -45 113.5t-120 42.5q-65 0 -122.5 -35
t-91 -93t-33.5 -123q0 -46 20.5 -82t58 -55.5t87.5 -19.5z" />
    <glyph glyph-name="aacute" unicode="&#xe1;" horiz-adv-x="698" 
d="M539 756l-120 -152h-64l98 152h86zM601 540h64l-108 -540h-67l8 79q-95 -91 -226 -91q-104 0 -168.5 65t-64.5 166q0 53 16.5 103t47.5 91.5t71.5 72.5t91.5 48.5t105 17.5q68 0 119.5 -28t80.5 -77zM287 66q99 0 172.5 76t73.5 176q0 71 -45 113.5t-120 42.5
q-65 0 -122.5 -35t-91 -93t-33.5 -123q0 -46 20.5 -82t58 -55.5t87.5 -19.5z" />
    <glyph glyph-name="acircumflex" unicode="&#xe2;" horiz-adv-x="698" 
d="M422 706l-113 -102h-78l149 152h92l89 -152h-66zM601 540h64l-108 -540h-67l8 79q-95 -91 -226 -91q-104 0 -168.5 65t-64.5 166q0 53 16.5 103t47.5 91.5t71.5 72.5t91.5 48.5t105 17.5q68 0 119.5 -28t80.5 -77zM287 66q99 0 172.5 76t73.5 176q0 71 -45 113.5
t-120 42.5q-65 0 -122.5 -35t-91 -93t-33.5 -123q0 -46 20.5 -82t58 -55.5t87.5 -19.5z" />
    <glyph glyph-name="atilde" unicode="&#xe3;" horiz-adv-x="698" 
d="M343 689q-46 0 -59 -74h-53q26 132 123 132q20 0 36 -6.5t24 -15t20 -23.5q9 -11 15 -17t16 -11t22 -5q46 0 59 72h52q-12 -64 -43.5 -97t-77.5 -33q-21 0 -38.5 7.5t-26.5 15.5t-21 23q-13 16 -23 24t-25 8zM601 540h64l-108 -540h-67l8 79q-95 -91 -226 -91
q-104 0 -168.5 65t-64.5 166q0 53 16.5 103t47.5 91.5t71.5 72.5t91.5 48.5t105 17.5q68 0 119.5 -28t80.5 -77zM287 66q99 0 172.5 76t73.5 176q0 71 -45 113.5t-120 42.5q-99 0 -173 -76t-74 -175q0 -46 20.5 -82t58 -55.5t87.5 -19.5z" />
    <glyph glyph-name="adieresis" unicode="&#xe4;" horiz-adv-x="698" 
d="M373 730l-19 -94h-94l19 94h94zM568 730l-19 -94h-94l19 94h94zM601 540h64l-108 -540h-67l8 79q-95 -91 -226 -91q-104 0 -168.5 65t-64.5 166q0 53 16.5 103t47.5 91.5t71.5 72.5t91.5 48.5t105 17.5q68 0 119.5 -28t80.5 -77zM287 66q99 0 172.5 76t73.5 176
q0 71 -45 113.5t-120 42.5q-65 0 -122.5 -35t-91 -93t-33.5 -123q0 -46 20.5 -82t58 -55.5t87.5 -19.5z" />
    <glyph glyph-name="aring" unicode="&#xe5;" horiz-adv-x="698" 
d="M402 590q-41 0 -66.5 24.5t-25.5 63.5q0 54 37 89.5t93 35.5q28 0 49.5 -11.5t32.5 -31.5t11 -46q0 -53 -38 -88.5t-93 -35.5zM433 758q-32 0 -54 -21.5t-22 -53.5q0 -21 14 -34t38 -13q21 0 38.5 10t28 27t10.5 37q0 15 -6.5 25.5t-18.5 16.5t-28 6zM601 540h64
l-108 -540h-67l8 79q-95 -91 -226 -91q-104 0 -168.5 65t-64.5 166q0 53 16.5 103t47.5 91.5t71.5 72.5t91.5 48.5t105 17.5q68 0 119.5 -28t80.5 -77zM287 66q99 0 172.5 76t73.5 176q0 71 -45 113.5t-120 42.5q-65 0 -122.5 -35t-91 -93t-33.5 -123q0 -46 20.5 -82
t58 -55.5t87.5 -19.5z" />
    <glyph glyph-name="ae" unicode="&#xe6;" horiz-adv-x="1109" 
d="M1062 239h-465q-1 -12 -1 -23q0 -46 18.5 -80t54 -52t84.5 -18q58 0 108.5 25.5t84.5 72.5h90q-52 -84 -126 -130t-162 -46q-61 0 -109 26t-77 72l-20 -86h-61l10 73q-95 -85 -221 -85q-68 0 -121 29.5t-81.5 81t-28.5 116.5q0 89 44.5 166.5t122.5 124t169 46.5
q62 0 111.5 -24.5t79.5 -67.5l18 80h62l-11 -75q92 87 213 87q103 0 164.5 -63.5t61.5 -162.5q0 -43 -12 -87zM842 476q-77 0 -138 -45.5t-89 -116.5h382v5q0 48 -18.5 83.5t-53.5 54.5t-83 19zM288 66q100 0 173.5 76t73.5 176q0 47 -20.5 82t-58 54.5t-88.5 19.5
q-65 0 -122.5 -35t-91 -93t-33.5 -123q0 -70 45.5 -113.5t121.5 -43.5z" />
    <glyph glyph-name="ccedilla" unicode="&#xe7;" horiz-adv-x="617" 
d="M280 66q62 0 116 30.5t90 86.5h85q-26 -57 -69.5 -100t-99.5 -67.5t-117 -27.5l-16 -32q24 -3 42 -14.5t27 -28.5t9 -37q0 -32 -16.5 -57t-46 -38t-67.5 -13h-76l9 50h63q31 0 51 16.5t20 40.5q0 18 -13.5 28.5t-36.5 10.5h-29l-7 9l32 69q-87 13 -139 75t-52 152
q0 88 45 165t122 122.5t167 45.5q95 0 156.5 -52.5t71.5 -139.5h-80q-13 54 -54 84t-101 30q-97 0 -170.5 -76.5t-73.5 -176.5q0 -45 19.5 -80.5t55.5 -55t83 -19.5z" />
    <glyph glyph-name="egrave" unicode="&#xe8;" horiz-adv-x="630" 
d="M405 604h-64l-61 152h86zM583 239h-465q-1 -12 -1 -23q0 -46 18.5 -80t54 -52t84.5 -18q58 0 108.5 25.5t84.5 72.5h91q-50 -84 -124 -130t-163 -46q-68 0 -121 30t-82 82.5t-29 118.5q0 88 43.5 164.5t119.5 122.5t164 46q52 0 95 -17.5t72 -48.5t45 -73.5t16 -92.5
q0 -38 -11 -81zM363 476q-77 0 -138 -45.5t-89 -116.5h382v5q0 73 -41 115t-114 42z" />
    <glyph glyph-name="eacute" unicode="&#xe9;" horiz-adv-x="630" 
d="M520 756l-121 -152h-64l98 152h87zM583 239h-465q-1 -12 -1 -23q0 -46 18.5 -80t54 -52t84.5 -18q58 0 108.5 25.5t84.5 72.5h91q-50 -84 -124 -130t-163 -46q-103 0 -167.5 65t-64.5 166q0 88 43.5 164.5t119.5 122.5t164 46q52 0 95 -17.5t72 -48.5t45 -73.5t16 -92.5
q0 -38 -11 -81zM363 476q-77 0 -138 -45.5t-89 -116.5h382v5q0 73 -41 115t-114 42z" />
    <glyph glyph-name="ecircumflex" unicode="&#xea;" horiz-adv-x="630" 
d="M402 706l-113 -102h-77l148 152h92l90 -152h-67zM583 239h-465q-1 -12 -1 -23q0 -46 18.5 -80t54 -52t84.5 -18q58 0 108.5 25.5t84.5 72.5h91q-50 -84 -124 -130t-163 -46q-68 0 -121 30t-82 82.5t-29 118.5q0 88 43.5 164.5t119.5 122.5t164 46q52 0 95 -17.5t72 -48.5
t45 -73.5t16 -92.5q0 -38 -11 -81zM363 476q-77 0 -138 -45.5t-89 -116.5h382v5q0 73 -41 115t-114 42z" />
    <glyph glyph-name="edieresis" unicode="&#xeb;" horiz-adv-x="630" 
d="M354 730l-20 -94h-93l19 94h94zM548 730l-19 -94h-94l20 94h93zM583 239h-465q-1 -12 -1 -23q0 -70 41.5 -110t115.5 -40q58 0 108.5 25.5t84.5 72.5h91q-50 -84 -124 -130t-163 -46q-68 0 -121 30t-82 82.5t-29 118.5q0 88 43.5 164.5t119.5 122.5t164 46q52 0 95 -17.5
t72 -48.5t45 -73.5t16 -92.5q0 -38 -11 -81zM363 476q-77 0 -138 -45.5t-89 -116.5h382v5q0 73 -41 115t-114 42z" />
    <glyph glyph-name="igrave" unicode="&#xec;" horiz-adv-x="255" 
d="M227 604h-65l-40 152h85zM34 0l108 540h81l-108 -540h-81z" />
    <glyph glyph-name="iacute" unicode="&#xed;" horiz-adv-x="255" 
d="M159 604l80 152h85l-100 -152h-65zM34 0l108 540h81l-108 -540h-81z" />
    <glyph glyph-name="icircumflex" unicode="&#xee;" horiz-adv-x="255" 
d="M335 604h-61l-63 101l-92 -101h-74l134 152h82zM34 0l108 540h81l-108 -540h-81z" />
    <glyph glyph-name="idieresis" unicode="&#xef;" horiz-adv-x="255" 
d="M65 636l19 94h89l-19 -94h-89zM252 636l20 94h89l-19 -94h-90zM34 0l108 540h81l-108 -540h-81z" />
    <glyph glyph-name="eth" unicode="&#xf0;" horiz-adv-x="640" 
d="M473 699q62 -48 95 -121t33 -164q0 -85 -18 -156q-30 -123 -112.5 -196t-207.5 -73q-103 0 -165 60.5t-62 156.5q0 127 90 217t220 90q55 0 103 -20t78 -57q-1 46 -14.5 86.5t-38.5 73t-60 56.5l-137 -109l-36 43l119 95q-67 29 -149 29l13 65q114 0 199 -44l92 73
l34 -44zM268 64q94 0 166 71.5t72 163.5q0 43 -19.5 76t-55 51.5t-82.5 18.5q-95 0 -165 -71.5t-70 -166.5q0 -42 18.5 -74.5t53.5 -50.5t82 -18z" />
    <glyph glyph-name="ntilde" unicode="&#xf1;" horiz-adv-x="642" 
d="M336 689q-46 0 -59 -74h-53q26 132 123 132q20 0 36 -6.5t24 -15t20 -23.5q9 -11 15 -17t16 -11t22 -5q46 0 59 72h52q-12 -64 -43.5 -97t-77.5 -33q-21 0 -38.5 7.5t-26.5 15.5t-21 23q-8 11 -14.5 17t-15 10.5t-18.5 4.5zM406 552q54 0 93.5 -21t60.5 -60t21 -92
q0 -8 -0.5 -14t-1.5 -15.5t-2.5 -18t-4.5 -26t-6 -33t-9.5 -45.5t-12 -58t-15 -75.5t-18.5 -93.5h-81q13 67 32 163q25 120 30.5 150.5t5.5 48.5q0 115 -120 115q-70 0 -128 -50.5t-75 -125.5l-60 -301h-81l108 540h57l-1 -83q38 45 91.5 70t116.5 25z" />
    <glyph glyph-name="ograve" unicode="&#xf2;" horiz-adv-x="656" 
d="M416 604h-64l-61 152h87zM278 -12q-107 0 -173 65t-66 167q0 89 45.5 165.5t123.5 121.5t170 45q71 0 125.5 -30t84 -82.5t29.5 -119.5q0 -89 -45.5 -165.5t-124 -121.5t-169.5 -45zM287 66q102 0 174.5 75t72.5 177q0 71 -45 113.5t-121 42.5q-101 0 -174 -74.5
t-73 -177.5q0 -71 45.5 -113.5t120.5 -42.5z" />
    <glyph glyph-name="oacute" unicode="&#xf3;" horiz-adv-x="656" 
d="M346 604l98 152h87l-121 -152h-64zM278 -12q-107 0 -173 65t-66 167q0 89 45.5 165.5t123.5 121.5t170 45q71 0 125.5 -30t84 -82.5t29.5 -119.5q0 -89 -45.5 -165.5t-124 -121.5t-169.5 -45zM287 66q102 0 174.5 75t72.5 177q0 71 -45 113.5t-121 42.5
q-101 0 -174 -74.5t-73 -177.5q0 -71 45.5 -113.5t120.5 -42.5z" />
    <glyph glyph-name="ocircumflex" unicode="&#xf4;" horiz-adv-x="656" 
d="M553 604h-67l-73 102l-113 -102h-77l148 152h92zM278 -12q-71 0 -125.5 30t-84 82.5t-29.5 119.5q0 89 45.5 165.5t123.5 121.5t170 45q71 0 125.5 -30t84 -82.5t29.5 -119.5q0 -89 -45.5 -165.5t-124 -121.5t-169.5 -45zM287 66q102 0 174.5 75t72.5 177q0 71 -45 113.5
t-121 42.5q-101 0 -174 -74.5t-73 -177.5q0 -71 45.5 -113.5t120.5 -42.5z" />
    <glyph glyph-name="otilde" unicode="&#xf5;" horiz-adv-x="656" 
d="M469 611q-17 0 -30 3.5t-23.5 11t-17 14t-15.5 17.5q-13 16 -23.5 24t-24.5 8q-46 0 -60 -74h-52q26 132 122 132q21 0 37 -6.5t24 -15t19 -23.5l12 -13.5t11 -10t14 -7.5t16 -2q47 0 59 72h53q-13 -64 -44 -97t-77 -33zM278 -12q-107 0 -173 65t-66 167q0 89 45.5 165.5
t123.5 121.5t170 45q71 0 125.5 -30t84 -82.5t29.5 -119.5q0 -89 -45.5 -165.5t-124 -121.5t-169.5 -45zM287 66q102 0 174.5 75t72.5 177q0 71 -45 113.5t-121 42.5q-101 0 -174 -74.5t-73 -177.5q0 -71 45.5 -113.5t120.5 -42.5z" />
    <glyph glyph-name="odieresis" unicode="&#xf6;" horiz-adv-x="656" 
d="M252 636l19 94h94l-19 -94h-94zM447 636l19 94h94l-20 -94h-93zM278 -12q-107 0 -173 65t-66 167q0 89 45.5 165.5t123.5 121.5t170 45q71 0 125.5 -30t84 -82.5t29.5 -119.5q0 -89 -45.5 -165.5t-124 -121.5t-169.5 -45zM287 66q102 0 174.5 75t72.5 177q0 71 -45 113.5
t-121 42.5q-101 0 -174 -74.5t-73 -177.5q0 -71 45.5 -113.5t120.5 -42.5z" />
    <glyph glyph-name="divide" unicode="&#xf7;" horiz-adv-x="591" 
d="M334 471q-17 0 -27.5 10.5t-10.5 26.5q0 23 17.5 40t39.5 17q18 0 28.5 -11t10.5 -27q0 -24 -17.5 -40t-40.5 -16zM61 304l15 73h480l-15 -73h-480zM264 115q-18 0 -29 11t-11 28q0 23 18 39t41 16q11 0 19.5 -4.5t13.5 -13t5 -18.5q0 -23 -17.5 -40.5t-39.5 -17.5z" />
    <glyph glyph-name="oslash" unicode="&#xf8;" horiz-adv-x="661" 
d="M539 502q40 -29 61.5 -77t21.5 -105q0 -90 -45.5 -166.5t-123.5 -121t-169 -44.5q-64 0 -113 23l-54 -72h-79l78 104q-24 19 -41.5 47t-26.5 60.5t-9 69.5q0 90 46.5 166.5t124.5 121t170 44.5q56 0 103 -20l50 69h79zM367 478q-68 0 -126 -36t-90.5 -94.5t-32.5 -123.5
q0 -74 49 -117l270 361q-33 10 -70 10zM296 62q102 0 175.5 76t73.5 175q0 78 -56 122l-271 -360q35 -13 78 -13z" />
    <glyph glyph-name="ugrave" unicode="&#xf9;" horiz-adv-x="631" 
d="M403 604h-64l-60 152h86zM268 -12q-94 0 -149 51t-56 137q0 6 0.5 11.5t1 11.5t2 15.5t3 18.5t5 26t6.5 33t9 44t11 54t13.5 68t16.5 82h81q-16 -83 -37 -190q-20 -98 -24 -121.5t-4 -39.5q0 -39 15 -66.5t43.5 -42t69.5 -14.5q74 0 125.5 46.5t67.5 125.5l60 302h81
l-64 -317q-22 -109 -95 -172t-182 -63z" />
    <glyph glyph-name="uacute" unicode="&#xfa;" horiz-adv-x="631" 
d="M334 604l98 152h86l-120 -152h-64zM268 -12q-94 0 -148.5 51t-56.5 137q0 6 0.5 11.5t1 11.5t2 15.5t3 18.5t5 26t6.5 33t9 44t11 54t13.5 68t16.5 82h81q-8 -42 -16 -83.5t-13.5 -68.5t-11 -53.5t-8.5 -42.5t-6 -31.5t-4.5 -24t-3 -16.5t-2 -13t-0.5 -9v-9
q0 -39 15 -66.5t43.5 -42t69.5 -14.5q74 0 125.5 46.5t67.5 125.5l60 302h81l-64 -317q-22 -109 -95 -172t-182 -63z" />
    <glyph glyph-name="ucircumflex" unicode="&#xfb;" horiz-adv-x="631" 
d="M540 604h-66l-74 102l-112 -102h-78l149 152h92zM268 -12q-94 0 -149 51t-56 137q0 6 0.5 11.5t1 11.5t2 15.5t3 18.5t5 26t6.5 33t9 44t11 54t13.5 68t16.5 82h81q-16 -83 -37 -190q-20 -98 -24 -121.5t-4 -39.5q0 -39 15 -66.5t43.5 -42t69.5 -14.5q74 0 125.5 46.5
t67.5 125.5l60 302h81l-64 -317q-22 -109 -95 -172t-182 -63z" />
    <glyph glyph-name="udieresis" unicode="&#xfc;" horiz-adv-x="631" 
d="M239 636l19 94h94l-19 -94h-94zM434 636l19 94h94l-19 -94h-94zM268 -12q-94 0 -149 51t-56 137q0 6 0.5 11.5t1 11.5t2 15.5t3 18.5t5 26t6.5 33t9 44t11 54t13.5 68t16.5 82h81q-16 -83 -37 -190q-20 -98 -24 -121.5t-4 -39.5q0 -39 15 -66.5t43.5 -42t69.5 -14.5
q74 0 125.5 46.5t67.5 125.5l60 302h81l-64 -317q-22 -109 -95 -172t-182 -63z" />
    <glyph glyph-name="yacute" unicode="&#xfd;" horiz-adv-x="583" 
d="M496 756l-120 -152h-65l99 152h86zM531 540h90l-372 -569q-63 -95 -113.5 -129.5t-126.5 -34.5h-53l15 74h39q55 0 86.5 22t78.5 91l32 47l-139 499h85l112 -413z" />
    <glyph glyph-name="thorn" unicode="&#xfe;" horiz-adv-x="693" 
d="M423 552q69 0 122 -29.5t81 -82t28 -118.5q0 -89 -43.5 -165.5t-119.5 -122.5t-166 -46q-63 0 -113 25t-80 70l-56 -276h-81l185 923h81l-52 -262q94 84 214 84zM323 66q100 0 174.5 76t74.5 176q0 70 -44.5 113t-118.5 43q-100 0 -173 -76t-73 -178q0 -69 43 -111.5
t117 -42.5z" />
    <glyph glyph-name="ydieresis" unicode="&#xff;" horiz-adv-x="583" 
d="M330 730l-19 -94h-94l19 94h94zM525 730l-19 -94h-94l19 94h94zM531 540h90l-372 -569q-63 -95 -113.5 -129.5t-126.5 -34.5h-53l15 74h39q55 0 86.5 22t78.5 91l32 47l-139 499h85l112 -413z" />
    <glyph glyph-name="Amacron" unicode="&#x100;" horiz-adv-x="696" 
d="M617 884l-15 -70h-313l15 70h313zM539 0l-37 170h-339l-104 -170h-93l427 700h78l155 -700h-87zM411 586l-205 -342h279z" />
    <glyph glyph-name="amacron" unicode="&#x101;" horiz-adv-x="698" 
d="M582 715l-13 -64h-313l13 64h313zM601 540h64l-108 -540h-67l8 79q-95 -91 -226 -91q-104 0 -168.5 65t-64.5 166q0 53 16.5 103t47.5 91.5t71.5 72.5t91.5 48.5t105 17.5q68 0 119.5 -28t80.5 -77zM287 66q99 0 172.5 76t73.5 176q0 71 -45 113.5t-120 42.5
q-65 0 -122.5 -35t-91 -93t-33.5 -123q0 -46 20.5 -82t58 -55.5t87.5 -19.5z" />
    <glyph glyph-name="Abreve" unicode="&#x102;" horiz-adv-x="696" 
d="M443 773q-60 0 -96.5 31.5t-36.5 84.5q0 15 4 32h63q-2 -10 -2 -25q0 -67 74 -67q43 0 71 23.5t37 68.5h65q-13 -70 -61 -109t-118 -39zM539 0l-37 170h-339l-104 -170h-93l427 700h78l155 -700h-87zM411 586l-205 -342h279z" />
    <glyph glyph-name="abreve" unicode="&#x103;" horiz-adv-x="698" 
d="M406 599q-62 0 -99 33t-37 88q0 12 5 36h63q-3 -17 -3 -29q0 -15 3.5 -26.5t10 -20.5t16 -15t21.5 -8.5t27 -2.5q45 0 74.5 26.5t39.5 75.5h65q-14 -75 -63.5 -116t-122.5 -41zM601 540h64l-108 -540h-67l8 79q-95 -91 -226 -91q-104 0 -168.5 65t-64.5 166
q0 53 16.5 103t47.5 91.5t71.5 72.5t91.5 48.5t105 17.5q68 0 119.5 -28t80.5 -77zM287 66q99 0 172.5 76t73.5 176q0 71 -45 113.5t-120 42.5q-65 0 -122.5 -35t-91 -93t-33.5 -123q0 -46 20.5 -82t58 -55.5t87.5 -19.5z" />
    <glyph glyph-name="Aogonek" unicode="&#x104;" horiz-adv-x="696" 
d="M491 -130q0 -21 14 -32.5t39 -11.5q27 0 52 8l-10 -53q-35 -13 -74 -13q-20 0 -37 5.5t-29 14.5t-18.5 23t-6.5 31q0 45 32.5 88.5t85.5 71.5l-36 168h-340l-104 -170h-93l427 700h78l155 -700q-52 -21 -93.5 -58t-41.5 -72zM414 586l-205 -339h277z" />
    <glyph glyph-name="aogonek" unicode="&#x105;" horiz-adv-x="698" 
d="M557 0q-125 -66 -125 -135q0 -39 48 -39q32 0 57 8l-10 -53q-35 -13 -74 -13q-27 0 -47.5 9t-32 26t-11.5 39q0 94 130 176l6 61q-95 -91 -226 -91q-104 0 -168.5 65t-64.5 166q0 53 16.5 103t47.5 91.5t71.5 72.5t91.5 48.5t105 17.5q68 0 119.5 -28t80.5 -77l30 93h64z
M287 66q99 0 172.5 76t73.5 176q0 71 -45 113.5t-120 42.5q-65 0 -122.5 -35t-91 -93t-33.5 -123q0 -46 20.5 -82t58 -55.5t87.5 -19.5z" />
    <glyph glyph-name="Cacute" unicode="&#x106;" horiz-adv-x="775" 
d="M464 779l102 142h86l-124 -142h-64zM355 -11q-136 0 -216.5 79t-80.5 206q0 87 34 168t92 140t138.5 94t169.5 35q117 0 196 -67t88 -179h-84q-12 78 -66 121.5t-140 43.5q-93 0 -172.5 -48t-125.5 -128.5t-46 -172.5q0 -98 58 -154.5t161 -56.5q92 0 169 46.5t119 128.5
h89q-52 -122 -154 -189t-229 -67z" />
    <glyph glyph-name="cacute" unicode="&#x107;" horiz-adv-x="617" 
d="M340 604l98 152h87l-121 -152h-64zM273 -12q-104 0 -169 65t-65 166q0 88 45 165t122 122.5t167 45.5q95 0 156.5 -52.5t71.5 -139.5h-80q-13 54 -54 84t-101 30q-97 0 -170.5 -76.5t-73.5 -176.5q0 -45 19.5 -80.5t55.5 -55t83 -19.5q62 0 116 30.5t90 86.5h85
q-41 -89 -121.5 -142t-176.5 -53z" />
    <glyph glyph-name="Ccircumflex" unicode="&#x108;" horiz-adv-x="775" 
d="M522 875l-111 -96h-78l146 142h92l91 -142h-66zM361 70q92 0 169 46.5t119 128.5h89q-35 -82 -93.5 -140t-132.5 -87t-157 -29q-136 0 -216.5 79t-80.5 206q0 87 34 168t92 140t138.5 94t169.5 35q117 0 196 -67t88 -179h-84q-12 78 -66 121.5t-140 43.5
q-93 0 -172.5 -48t-125.5 -128.5t-46 -172.5q0 -98 58 -154.5t161 -56.5z" />
    <glyph glyph-name="ccircumflex" unicode="&#x109;" horiz-adv-x="617" 
d="M407 706l-113 -102h-77l148 152h92l90 -152h-67zM280 66q62 0 116 30.5t90 86.5h85q-41 -89 -121.5 -142t-176.5 -53q-104 0 -169 65t-65 166q0 88 45 165t122 122.5t167 45.5q95 0 156.5 -52.5t71.5 -139.5h-80q-13 54 -54 84t-101 30q-97 0 -170.5 -76.5t-73.5 -176.5
q0 -45 19.5 -80.5t55.5 -55t83 -19.5z" />
    <glyph glyph-name="Cdotaccent" unicode="&#x10a;" horiz-adv-x="775" 
d="M462 799l19 94h93l-18 -94h-94zM355 -11q-136 0 -216.5 79t-80.5 206q0 87 34 168t92 140t138.5 94t169.5 35q117 0 196 -67t88 -179h-84q-12 78 -66 121.5t-140 43.5q-93 0 -172.5 -48t-125.5 -128.5t-46 -172.5q0 -98 58 -154.5t161 -56.5q92 0 169 46.5t119 128.5h89
q-52 -122 -154 -189t-229 -67z" />
    <glyph glyph-name="cdotaccent" unicode="&#x10b;" horiz-adv-x="617" 
d="M348 636l19 94h89l-19 -94h-89zM273 -12q-104 0 -169 65t-65 166q0 88 45 165t122 122.5t167 45.5q95 0 156.5 -52.5t71.5 -139.5h-80q-13 54 -54 84t-101 30q-97 0 -170.5 -76.5t-73.5 -176.5q0 -45 19.5 -80.5t55.5 -55t83 -19.5q62 0 116 30.5t90 86.5h85
q-41 -89 -121.5 -142t-176.5 -53z" />
    <glyph glyph-name="Ccaron" unicode="&#x10c;" horiz-adv-x="775" 
d="M551 779h-92l-91 142h68l73 -96l110 96h78zM361 70q92 0 169 46.5t119 128.5h89q-52 -122 -154 -189t-229 -67q-136 0 -216.5 79t-80.5 206q0 87 34 168t92 140t138.5 94t169.5 35q117 0 196 -67t88 -179h-84q-12 78 -66 121.5t-140 43.5q-93 0 -172.5 -48t-125.5 -128.5
t-46 -172.5q0 -98 58 -154.5t161 -56.5z" />
    <glyph glyph-name="ccaron" unicode="&#x10d;" horiz-adv-x="617" 
d="M434 604h-92l-88 152h71l69 -105l110 105h79zM280 66q62 0 116 30.5t90 86.5h85q-41 -89 -121.5 -142t-176.5 -53q-104 0 -169 65t-65 166q0 88 45 165t122 122.5t167 45.5q95 0 156.5 -52.5t71.5 -139.5h-80q-13 54 -54 84t-101 30q-97 0 -170.5 -76.5t-73.5 -176.5
q0 -45 19.5 -80.5t55.5 -55t83 -19.5z" />
    <glyph glyph-name="Dcaron" unicode="&#x10e;" horiz-adv-x="731" 
d="M444 779h-92l-91 142h68l73 -96l110 96h78zM407 700q89 0 157 -36t104.5 -100t36.5 -146q0 -84 -33.5 -161t-90 -133.5t-135.5 -90t-165 -33.5h-238l140 700h224zM283 77q91 0 169 46.5t123.5 125t45.5 168.5q0 62 -26.5 109t-76.5 72.5t-117 25.5h-150l-109 -547h141z
" />
    <glyph glyph-name="dcaron" unicode="&#x10f;" horiz-adv-x="692" 
d="M563 464l54 269h81l-147 -733h-63l5 78q-97 -90 -225 -90q-105 0 -167.5 62.5t-62.5 161.5q0 90 45.5 168.5t123 125t167.5 46.5q126 0 189 -88zM756 733h85l-14 -72q-6 -33 -34.5 -59.5t-65.5 -32.5l8 39q39 8 50 47h-44zM287 67q100 0 173.5 74t73.5 174q0 71 -45 115
t-121 44q-101 0 -174 -74t-73 -175q0 -70 45 -114t121 -44z" />
    <glyph glyph-name="Dcroat" unicode="&#x110;" horiz-adv-x="752" 
d="M429 700q134 0 216 -78.5t82 -203.5q0 -84 -33.5 -161t-90 -133.5t-135.5 -90t-165 -33.5h-239l64 317h-104l14 68h103l63 315h225zM305 77q91 0 169 46.5t123 125t45 168.5q0 94 -59 150.5t-160 56.5h-150l-48 -239h203l-14 -68h-203l-48 -240h142z" />
    <glyph glyph-name="dcroat" unicode="&#x111;" horiz-adv-x="691" 
d="M763 663l-13 -66h-80l-120 -597h-62l4 73q-94 -85 -220 -85q-104 0 -168.5 65t-64.5 166q0 53 16.5 103t47.5 91.5t71.5 72.5t91.5 48.5t105 17.5q63 0 111.5 -24t79.5 -67l27 136h-201l13 66h201l14 70h81l-14 -70h80zM287 68q99 0 172.5 75.5t73.5 174.5q0 70 -45 112
t-120 42q-66 0 -123.5 -35.5t-91 -93t-33.5 -120.5q0 -70 46 -112.5t121 -42.5z" />
    <glyph glyph-name="Emacron" unicode="&#x112;" horiz-adv-x="550" 
d="M571 884l-14 -70h-313l14 70h313zM562 622h-311l-45 -224h286l-16 -76h-285l-49 -243h322l-16 -79h-405l140 700h394z" />
    <glyph glyph-name="emacron" unicode="&#x113;" horiz-adv-x="630" 
d="M562 715l-13 -64h-313l13 64h313zM583 239h-465q-1 -12 -1 -23q0 -70 41.5 -110t115.5 -40q58 0 108.5 25.5t84.5 72.5h91q-50 -84 -124 -130t-163 -46q-103 0 -167.5 65t-64.5 166q0 88 43.5 164.5t119.5 122.5t164 46q52 0 95 -17.5t72 -48.5t45 -73.5t16 -92.5
q0 -38 -11 -81zM363 476q-77 0 -138 -45.5t-89 -116.5h382v5q0 73 -41 115t-114 42z" />
    <glyph glyph-name="Ebreve" unicode="&#x114;" horiz-adv-x="550" 
d="M398 773q-40 0 -70 14t-46.5 40t-16.5 62q0 15 3 32h64q-3 -10 -3 -25q0 -67 75 -67q21 0 39 6t31.5 17.5t23 29t13.5 39.5h66q-14 -70 -61.5 -109t-117.5 -39zM562 622h-311l-45 -224h286l-16 -76h-285l-49 -243h322l-16 -79h-405l140 700h394z" />
    <glyph glyph-name="ebreve" unicode="&#x115;" horiz-adv-x="630" 
d="M387 599q-41 0 -72 14.5t-47.5 42t-16.5 64.5q0 12 4 36h64q-4 -17 -4 -29q0 -36 20.5 -54.5t57.5 -18.5q46 0 75 26.5t39 75.5h65q-9 -50 -34.5 -85.5t-64 -53.5t-86.5 -18zM583 239h-465q-1 -12 -1 -23q0 -70 41.5 -110t115.5 -40q58 0 108.5 25.5t84.5 72.5h91
q-50 -84 -124 -130t-163 -46q-68 0 -121 30t-82 82.5t-29 118.5q0 88 43.5 164.5t119.5 122.5t164 46q52 0 95 -17.5t72 -48.5t45 -73.5t16 -92.5q0 -38 -11 -81zM363 476q-77 0 -138 -45.5t-89 -116.5h382v5q0 73 -41 115t-114 42z" />
    <glyph glyph-name="Edotaccent" unicode="&#x116;" horiz-adv-x="550" 
d="M463 893l-18 -94h-94l19 94h93zM562 622h-311l-45 -224h286l-16 -76h-285l-49 -243h322l-16 -79h-405l140 700h394z" />
    <glyph glyph-name="edotaccent" unicode="&#x117;" horiz-adv-x="630" 
d="M450 730l-19 -94h-88l19 94h88zM583 239h-465q-1 -12 -1 -23q0 -70 41.5 -110t115.5 -40q58 0 108.5 25.5t84.5 72.5h91q-50 -84 -124 -130t-163 -46q-68 0 -121 30t-82 82.5t-29 118.5q0 88 43.5 164.5t119.5 122.5t164 46q52 0 95 -17.5t72 -48.5t45 -73.5t16 -92.5
q0 -38 -11 -81zM363 476q-77 0 -138 -45.5t-89 -116.5h382v5q0 73 -41 115t-114 42z" />
    <glyph glyph-name="Eogonek" unicode="&#x118;" horiz-adv-x="550" 
d="M562 622h-311l-45 -224h286l-16 -76h-285l-49 -243h322l-16 -79q-54 -26 -89.5 -61t-35.5 -69q0 -10 3.5 -18.5t10.5 -14t16.5 -8.5t22.5 -3q27 0 52 8l-10 -53q-35 -13 -77 -13q-40 0 -64 20t-24 54q0 44 31 87t80 71h-321l140 700h394z" />
    <glyph glyph-name="eogonek" unicode="&#x119;" horiz-adv-x="629" 
d="M582 239h-464q-1 -12 -1 -23q0 -70 41.5 -110t115.5 -40q57 0 107.5 25.5t87.5 72.5h85q-58 -100 -172 -158q-53 -27 -88.5 -62t-35.5 -74q0 -21 14.5 -32.5t38.5 -11.5q32 0 62 12l-11 -52q-38 -18 -77 -18q-41 0 -68 23.5t-27 60.5q0 36 23.5 72.5t60.5 63.5h-5
q-68 0 -120.5 29.5t-81.5 81t-29 116.5q0 88 44.5 165.5t121 124.5t165.5 47q68 0 119.5 -29.5t79 -80.5t27.5 -116q0 -43 -13 -87zM362 476q-50 0 -96 -21.5t-79 -58t-51 -82.5h382v6q0 72 -41.5 114t-114.5 42z" />
    <glyph glyph-name="Ecaron" unicode="&#x11a;" horiz-adv-x="550" 
d="M440 779h-92l-91 142h68l73 -96l110 96h78zM43 0l140 700h394l-15 -78h-311l-45 -224h286l-16 -76h-285l-49 -243h322l-16 -79h-405z" />
    <glyph glyph-name="ecaron" unicode="&#x11b;" horiz-adv-x="630" 
d="M429 604h-92l-89 152h72l68 -105l111 105h79zM583 239h-465q-1 -12 -1 -23q0 -46 18.5 -80t54 -52t84.5 -18q39 0 75 11.5t66 33.5t52 53h91q-50 -84 -124 -130t-163 -46q-103 0 -167.5 65t-64.5 166q0 88 43.5 164.5t119.5 122.5t164 46q52 0 95 -17.5t72 -48.5
t45 -73.5t16 -92.5q0 -38 -11 -81zM363 476q-77 0 -138 -45.5t-89 -116.5h382v5q0 73 -41 115t-114 42z" />
    <glyph glyph-name="Gcircumflex" unicode="&#x11c;" horiz-adv-x="797" 
d="M524 875l-111 -96h-79l147 142h92l91 -142h-66zM377 268l16 77h375q-33 -162 -143.5 -259t-269.5 -97q-134 0 -215.5 80.5t-81.5 209.5q0 115 56 214t154 158.5t214 59.5q124 0 207 -71.5t85 -183.5h-84q-8 79 -65.5 126.5t-145.5 47.5q-91 0 -169 -49t-122.5 -130
t-44.5 -175q0 -95 57 -150.5t159 -55.5q106 0 184.5 53t113.5 145h-280z" />
    <glyph glyph-name="gcircumflex" unicode="&#x11d;" horiz-adv-x="673" 
d="M405 706l-113 -102h-78l149 152h92l89 -152h-66zM586 540h54l-94 -468q-17 -87 -60 -149t-108 -94.5t-147 -32.5q-98 0 -156 48t-66 134h81q8 -51 49 -79.5t103 -28.5q84 0 145.5 54.5t79.5 145.5l5 25q-90 -78 -208 -78q-98 0 -160 62t-62 158q0 82 42.5 155
t115.5 116.5t156 43.5q66 0 117 -28t80 -78zM281 95q94 0 162.5 71.5t68.5 163.5q0 65 -42.5 104.5t-112.5 39.5q-94 0 -163.5 -71.5t-69.5 -163.5q0 -64 43 -104t114 -40z" />
    <glyph glyph-name="Gbreve" unicode="&#x11e;" horiz-adv-x="797" 
d="M511 773q-61 0 -97 31.5t-36 84.5q0 15 3 32h64q-3 -10 -3 -25q0 -67 75 -67q42 0 70 23.5t37 68.5h66q-14 -70 -61.5 -109t-117.5 -39zM377 268l16 77h375q-33 -162 -143.5 -259t-269.5 -97q-134 0 -215.5 80.5t-81.5 209.5q0 115 56 214t154 158.5t214 59.5
q124 0 207 -71.5t85 -183.5h-84q-5 52 -32.5 91t-73.5 61t-105 22q-91 0 -169 -49t-122.5 -130t-44.5 -175q0 -95 57 -150.5t159 -55.5q106 0 184.5 53t113.5 145h-280z" />
    <glyph glyph-name="gbreve" unicode="&#x11f;" horiz-adv-x="673" 
d="M390 599q-62 0 -99 33t-37 88q0 12 4 36h64q-4 -17 -4 -29q0 -36 20.5 -54.5t57.5 -18.5q46 0 75 26.5t39 75.5h65q-9 -50 -34.5 -85.5t-64 -53.5t-86.5 -18zM586 540h54l-94 -468q-26 -131 -108.5 -203.5t-206.5 -72.5q-98 0 -156 48t-66 134h81q8 -51 49 -79.5
t103 -28.5q84 0 145.5 54.5t79.5 145.5l5 25q-90 -78 -208 -78q-98 0 -160 62t-62 158q0 82 42.5 155t115.5 116.5t156 43.5q66 0 117 -28t80 -78zM281 95q94 0 162.5 71.5t68.5 163.5q0 65 -42.5 104.5t-112.5 39.5q-94 0 -163.5 -71.5t-69.5 -163.5q0 -64 43 -104t114 -40
z" />
    <glyph glyph-name="Gdotaccent" unicode="&#x120;" horiz-adv-x="797" 
d="M576 893l-18 -94h-94l18 94h94zM377 268l16 77h375q-33 -162 -143.5 -259t-269.5 -97q-134 0 -215.5 80.5t-81.5 209.5q0 115 56 214t154 158.5t214 59.5q124 0 207 -71.5t85 -183.5h-84q-5 52 -32.5 91t-73.5 61t-105 22q-91 0 -169 -49t-122.5 -130t-44.5 -175
q0 -95 57 -150.5t159 -55.5q106 0 184.5 53t113.5 145h-280z" />
    <glyph glyph-name="gdotaccent" unicode="&#x121;" horiz-adv-x="673" 
d="M453 730l-19 -94h-89l20 94h88zM586 540h54l-94 -468q-17 -87 -60 -149t-108 -94.5t-147 -32.5q-98 0 -156 48t-66 134h81q8 -51 49 -79.5t103 -28.5q84 0 145.5 54.5t79.5 145.5l5 25q-90 -78 -208 -78q-98 0 -160 62t-62 158q0 82 42.5 155t115.5 116.5t156 43.5
q66 0 117 -28t80 -78zM281 95q94 0 162.5 71.5t68.5 163.5q0 65 -42.5 104.5t-112.5 39.5q-94 0 -163.5 -71.5t-69.5 -163.5q0 -64 43 -104t114 -40z" />
    <glyph glyph-name="uni0122" unicode="&#x122;" horiz-adv-x="797" 
d="M377 268l16 77h375q-33 -162 -143.5 -259t-269.5 -97q-134 0 -215.5 80.5t-81.5 209.5q0 115 56 214t154 158.5t214 59.5q124 0 207 -71.5t85 -183.5h-84q-8 79 -65.5 126.5t-145.5 47.5q-91 0 -169 -49t-122.5 -130t-44.5 -175q0 -95 57 -150.5t159 -55.5
q106 0 184.5 53t113.5 145h-280zM285 -134l15 77h85l-14 -71q-7 -38 -34 -62t-66 -30l8 38q40 9 48 48h-42z" />
    <glyph glyph-name="uni0123" unicode="&#x123;" horiz-adv-x="673" 
d="M440 711l-16 -77h-85l14 71q6 34 34.5 60t65.5 32l-8 -39q-40 -8 -48 -47h43zM586 540h54l-94 -468q-17 -87 -60 -149t-108 -94.5t-147 -32.5q-98 0 -156 48t-66 134h81q8 -51 49 -79.5t103 -28.5q84 0 145.5 54.5t79.5 145.5l5 25q-90 -78 -208 -78q-98 0 -160 62
t-62 158q0 82 42.5 155t115.5 116.5t156 43.5q66 0 117 -28t80 -78zM281 95q94 0 162.5 71.5t68.5 163.5q0 65 -42.5 104.5t-112.5 39.5q-94 0 -163.5 -71.5t-69.5 -163.5q0 -64 43 -104t114 -40z" />
    <glyph glyph-name="Hcircumflex" unicode="&#x124;" horiz-adv-x="729" 
d="M487 875l-111 -96h-78l146 142h92l91 -142h-66zM635 700h84l-140 -700h-84l65 323h-369l-65 -323h-83l140 700h83l-60 -301h369z" />
    <glyph glyph-name="hcircumflex" unicode="&#x125;" horiz-adv-x="642" 
d="M250 891l-111 -96h-78l146 142h92l91 -142h-66zM408 552q81 0 127 -46.5t46 -126.5q0 -8 -0.5 -14t-1.5 -15.5t-2.5 -18t-4.5 -26t-6 -33t-9 -45.5t-12 -58t-15.5 -75.5t-18.5 -93.5h-81q9 47 18.5 94t15 76t11.5 58t9 44.5t6 31.5t4 24t2 16.5t1.5 13.5t0.5 11
q0 104 -115 104q-73 0 -133.5 -51.5t-76.5 -128.5l-58 -293h-81l146 733h81l-52 -263q79 82 199 82z" />
    <glyph glyph-name="Hbar" unicode="&#x126;" horiz-adv-x="746" 
d="M790 604l-13 -65h-83l-108 -539h-84l64 321h-368l-65 -321h-83l108 539h-81l13 65h81l19 96h83l-19 -96h369l19 96h84l-20 -96h84zM582 400l28 139h-369l-28 -139h369z" />
    <glyph glyph-name="hbar" unicode="&#x127;" horiz-adv-x="642" 
d="M408 552q54 0 93 -21t59.5 -60t20.5 -92q0 -8 -0.5 -14t-1.5 -15.5t-2.5 -18t-4.5 -26t-6 -33t-9 -45.5t-12 -58t-15.5 -75.5t-18.5 -93.5h-81q8 43 16.5 86t14 70.5t11 55.5t9 44.5t6.5 33t4.5 25.5l3 18t2 14.5t1 10.5t0.5 11q0 104 -115 104q-73 0 -133.5 -51.5
t-76.5 -128.5l-58 -293h-81l119 597h-94l13 66h95l13 70h81l-13 -70h187l-14 -66h-187l-25 -127q79 82 199 82z" />
    <glyph glyph-name="Itilde" unicode="&#x128;" horiz-adv-x="277" 
d="M310 781q-19 0 -34.5 8.5t-22 16t-18.5 23.5q-13 18 -23 26.5t-23 8.5q-23 0 -33.5 -16.5t-19.5 -56.5h-53q11 68 39 101t74 33q15 0 27 -3.5t22 -13t14 -14.5t13 -18q6 -9 9.5 -13.5t9.5 -10.5t12.5 -8.5t13.5 -2.5q23 0 33 16.5t18 55.5h53q-19 -132 -111 -132zM43 0
l140 700h83l-140 -700h-83z" />
    <glyph glyph-name="itilde" unicode="&#x129;" horiz-adv-x="255" 
d="M268 608q-20 0 -36 9t-23.5 17t-18.5 24q-9 13 -13 17.5t-12.5 10t-18.5 5.5q-16 0 -26 -8.5t-15.5 -23t-11.5 -41.5h-53q14 70 40.5 102.5t72.5 32.5q20 0 36 -8.5t23.5 -17t17.5 -23.5q6 -9 9.5 -14t9.5 -10.5t12 -8t14 -2.5q22 0 32 16.5t18 55.5h53q-8 -45 -22 -74
t-36 -44t-52 -15zM34 0l108 540h81l-108 -540h-81z" />
    <glyph glyph-name="Imacron" unicode="&#x12a;" horiz-adv-x="277" 
d="M115 805l14 72h257l-15 -72h-256zM43 0l140 700h83l-140 -700h-83z" />
    <glyph glyph-name="imacron" unicode="&#x12b;" horiz-adv-x="255" 
d="M81 651l14 64h245l-13 -64h-246zM34 0l108 540h81l-108 -540h-81z" />
    <glyph glyph-name="Ibreve" unicode="&#x12c;" horiz-adv-x="277" 
d="M243 773q-65 0 -98 41.5t-21 106.5h64q-9 -40 8 -66t54 -26q80 0 97 92h65q-13 -70 -57.5 -109t-111.5 -39zM43 0l140 700h83l-140 -700h-83z" />
    <glyph glyph-name="ibreve" unicode="&#x12d;" horiz-adv-x="255" 
d="M196 599q-69 0 -101.5 43t-20.5 114h64q-6 -30 -1.5 -53t21.5 -36t44 -13q21 0 38.5 6.5t30.5 20t21.5 32.5t13.5 43h65q-13 -75 -59.5 -116t-115.5 -41zM34 0l108 540h81l-108 -540h-81z" />
    <glyph glyph-name="Iogonek" unicode="&#x12e;" horiz-adv-x="277" 
d="M126 0q-55 -26 -90 -61t-35 -69q0 -21 14 -32.5t38 -11.5q28 0 53 8l-11 -53q-34 -13 -73 -13q-27 0 -47.5 9t-32 26t-11.5 39q0 45 31 88t81 71l140 699h83z" />
    <glyph glyph-name="iogonek" unicode="&#x12f;" horiz-adv-x="255" 
d="M173 730h89l-19 -94h-89zM34 2l108 538h81l-108 -540q-36 -17 -64 -38t-45 -45t-17 -47q0 -21 14 -32.5t39 -11.5q27 0 52 8l-10 -53q-35 -13 -74 -13q-41 0 -66 20t-25 54q0 45 32.5 89t82.5 71z" />
    <glyph glyph-name="Idotaccent" unicode="&#x130;" horiz-adv-x="277" 
d="M196 799l19 94h93l-18 -94h-94zM43 0l140 700h83l-140 -700h-83z" />
    <glyph glyph-name="dotlessi" unicode="&#x131;" horiz-adv-x="255" 
d="M34 0l108 540h81l-108 -540h-81z" />
    <glyph glyph-name="IJ" unicode="&#x132;" horiz-adv-x="826" 
d="M43 0l140 700h83l-140 -700h-83zM450 -12q-94 0 -149.5 53t-55.5 142q0 25 7 62h82q-5 -28 -5 -48q0 -59 33 -93.5t93 -34.5q68 0 122 49t69 122l91 460h85l-94 -475q-21 -106 -97 -171.5t-181 -65.5z" />
    <glyph glyph-name="ij" unicode="&#x133;" horiz-adv-x="575" 
d="M154 636l19 94h89l-19 -94h-89zM471 636l19 94h89l-20 -94h-88zM34 0l108 540h81l-108 -540h-81zM174 -193l14 74h27q53 0 90 31t47 84l109 544h81l-112 -558q-16 -81 -72 -128t-138 -47h-46z" />
    <glyph glyph-name="Jcircumflex" unicode="&#x134;" horiz-adv-x="593" 
d="M625 921l75 -142h-63l-58 95l-95 -95h-73l132 142h82zM413 240l92 460h84l-93 -475q-21 -106 -97.5 -171.5t-181.5 -65.5q-93 0 -148.5 53t-55.5 142q0 25 7 62h81q-5 -28 -5 -48q0 -59 33.5 -93.5t92.5 -34.5q68 0 122.5 49t68.5 122z" />
    <glyph glyph-name="jcircumflex" unicode="&#x135;" horiz-adv-x="267" 
d="M342 604h-61l-63 101l-91 -101h-75l134 152h82zM-133 -193l15 74h26q53 0 89.5 31t47.5 84l109 544h81l-112 -558q-16 -80 -72.5 -127.5t-137.5 -47.5h-46z" />
    <glyph glyph-name="uni0136" unicode="&#x136;" horiz-adv-x="628" 
d="M693 700l-326 -345l209 -355h-98l-190 323h-97l-65 -323h-83l140 700h83l-60 -299h95l280 299h112zM219 -134l16 77h85l-14 -71q-8 -38 -35 -62t-66 -30l9 38q40 9 48 48h-43z" />
    <glyph glyph-name="uni0137" unicode="&#x137;" horiz-adv-x="536" 
d="M571 540l-250 -259l162 -281h-91l-141 244h-87l-49 -244h-81l146 733h81l-82 -414h73l214 221h105zM171 -134l16 77h85l-14 -71q-7 -34 -35.5 -60.5t-65.5 -32.5l9 39q40 8 47 48h-42z" />
    <glyph glyph-name="kgreenlandic" unicode="&#x138;" horiz-adv-x="536" 
d="M572 540l-251 -259l162 -281h-91l-141 244h-88l-48 -244h-81l108 540h81l-45 -221h73l215 221h106z" />
    <glyph glyph-name="Lacute" unicode="&#x139;" horiz-adv-x="504" 
d="M399 921l-125 -142h-64l102 142h87zM141 77h310l-15 -77h-393l140 700h83z" />
    <glyph glyph-name="lacute" unicode="&#x13a;" horiz-adv-x="255" 
d="M196 811l102 142h87l-124 -142h-65zM34 0l146 733h81l-146 -733h-81z" />
    <glyph glyph-name="uni013B" unicode="&#x13b;" horiz-adv-x="504" 
d="M141 77h310l-15 -77h-393l140 700h83zM166 -134l16 77h85l-14 -71q-8 -38 -35 -62t-66 -30l9 38q40 9 48 48h-43z" />
    <glyph glyph-name="uni013C" unicode="&#x13c;" horiz-adv-x="255" 
d="M34 0l146 733h81l-146 -733h-81zM-10 -221l8 39q40 8 48 48h-42l15 77h85l-13 -71q-7 -34 -35.5 -60.5t-65.5 -32.5z" />
    <glyph glyph-name="Lcaron" unicode="&#x13d;" horiz-adv-x="513" 
d="M457 733h85l-14 -71q-7 -34 -35 -60.5t-65 -32.5l8 39q40 9 48 47h-42zM266 700l-124 -622h310l-16 -78h-393l140 700h83z" />
    <glyph glyph-name="lcaron" unicode="&#x13e;" horiz-adv-x="255" 
d="M34 0l146 733h81l-146 -733h-81zM324 733h85l-15 -71q-7 -34 -35 -60.5t-64 -32.5l7 39q19 4 32 16.5t17 30.5h-43z" />
    <glyph glyph-name="Ldot" unicode="&#x13f;" horiz-adv-x="508" 
d="M142 78h310l-16 -78h-393l140 700h83zM450 398l-21 -103h-94l21 103h94z" />
    <glyph glyph-name="ldot" unicode="&#x140;" horiz-adv-x="340" 
d="M34 0l146 733h81l-146 -733h-81zM259 310l20 103h94l-20 -103h-94z" />
    <glyph glyph-name="Lslash" unicode="&#x141;" horiz-adv-x="522" 
d="M157 77h310l-15 -77h-394l50 252l-94 -45l14 73l95 45l75 375h84l-67 -331l240 114l-15 -75l-239 -113z" />
    <glyph glyph-name="lslash" unicode="&#x142;" horiz-adv-x="344" 
d="M369 531l-16 -79l-114 -59l-78 -393h-81l69 345l-115 -60l16 79l115 60l61 309h81l-52 -262z" />
    <glyph glyph-name="Nacute" unicode="&#x143;" horiz-adv-x="749" 
d="M628 921l-125 -142h-64l102 142h87zM654 700h85l-140 -700h-69l-293 552l-110 -552h-84l140 700h74l288 -547z" />
    <glyph glyph-name="nacute" unicode="&#x144;" horiz-adv-x="642" 
d="M532 756l-120 -152h-64l98 152h86zM406 552q54 0 93.5 -21t60.5 -60t21 -92q0 -8 -0.5 -14t-1.5 -15.5t-2.5 -18t-4.5 -26t-6 -33t-9.5 -45.5t-12 -58t-15 -75.5t-18.5 -93.5h-81q13 67 32 163q25 120 30.5 150.5t5.5 48.5q0 115 -120 115q-70 0 -128 -50.5t-75 -125.5
l-60 -301h-81l108 540h57l-1 -83q38 45 91.5 70t116.5 25z" />
    <glyph glyph-name="uni0145" unicode="&#x145;" horiz-adv-x="749" 
d="M654 700h85l-140 -700h-69l-293 552l-110 -552h-84l140 700h74l288 -547zM253 -134l16 77h85l-14 -71q-7 -38 -34.5 -62t-65.5 -30l8 38q40 9 48 48h-43z" />
    <glyph glyph-name="uni0146" unicode="&#x146;" horiz-adv-x="642" 
d="M406 552q54 0 93.5 -21t60.5 -60t21 -92q0 -8 -0.5 -14t-1.5 -15.5t-2.5 -18t-4.5 -26t-6 -33t-9.5 -45.5t-12 -58t-15 -75.5t-18.5 -93.5h-81q13 67 32 163q25 120 30.5 150.5t5.5 48.5q0 115 -120 115q-70 0 -128 -50.5t-75 -125.5l-60 -301h-81l108 540h57l-1 -83
q38 45 91.5 70t116.5 25zM211 -134l16 77h85l-14 -71q-7 -34 -35.5 -60.5t-65.5 -32.5l8 39q41 8 48 48h-42z" />
    <glyph glyph-name="Ncaron" unicode="&#x147;" horiz-adv-x="749" 
d="M526 779h-92l-91 142h68l73 -96l110 96h78zM654 700h85l-140 -700h-69l-293 552l-110 -552h-84l140 700h74l288 -547z" />
    <glyph glyph-name="ncaron" unicode="&#x148;" horiz-adv-x="642" 
d="M441 604h-91l-89 152h72l68 -105l111 105h79zM406 552q54 0 93.5 -21t60.5 -60t21 -92q0 -8 -0.5 -14t-1.5 -15.5t-2.5 -18t-4.5 -26t-6 -33t-9.5 -45.5t-12 -58t-15 -75.5t-18.5 -93.5h-81q13 67 32 163q25 120 30.5 150.5t5.5 48.5q0 115 -120 115q-70 0 -128 -50.5
t-75 -125.5l-60 -301h-81l108 540h57l-1 -83q38 45 91.5 70t116.5 25z" />
    <glyph glyph-name="Eng" unicode="&#x14a;" horiz-adv-x="749" 
d="M657 700h82l-138 -685q-20 -98 -85 -153t-162 -55h-21l16 78h28q54 0 95 33.5t51 87.5l-288 548l-111 -554h-81l140 700h75l289 -548z" />
    <glyph glyph-name="eng" unicode="&#x14b;" horiz-adv-x="642" 
d="M408 552q54 0 93 -21.5t59.5 -60t20.5 -91.5q0 -8 -0.5 -14t-1.5 -16t-2.5 -18t-4.5 -25.5t-6.5 -33.5t-9.5 -46.5t-11.5 -58.5t-15.5 -77t-19 -96q-18 -88 -77.5 -136t-148.5 -48h-34l15 74h19q56 0 95.5 31t49.5 85q14 68 34 165q24 118 29.5 148t5.5 49
q0 111 -119 111q-69 0 -128.5 -49.5t-75.5 -122.5l-60 -301h-81l108 540h57l-1 -83q39 45 93 70t117 25z" />
    <glyph glyph-name="Omacron" unicode="&#x14c;" horiz-adv-x="829" 
d="M367 814l15 70h313l-15 -70h-313zM365 -12q-138 0 -222 84.5t-84 214.5q0 86 33.5 164.5t91 135.5t139 91t173.5 34q137 0 221.5 -84.5t84.5 -215.5q0 -68 -21 -132.5t-60.5 -117t-93 -91.5t-121 -61t-141.5 -22zM378 69q96 0 174 46.5t121.5 124t43.5 166.5
q0 100 -64 162.5t-170 62.5q-96 0 -174.5 -46.5t-121.5 -123.5t-43 -166q0 -100 64 -163t170 -63z" />
    <glyph glyph-name="omacron" unicode="&#x14d;" horiz-adv-x="656" 
d="M247 651l14 64h313l-14 -64h-313zM278 -12q-71 0 -125.5 30t-84 82.5t-29.5 119.5q0 89 45.5 165.5t123.5 121.5t170 45q71 0 125.5 -30t84 -82.5t29.5 -119.5q0 -89 -45.5 -165.5t-124 -121.5t-169.5 -45zM287 66q102 0 174.5 75t72.5 177q0 71 -45 113.5t-121 42.5
q-101 0 -174 -74.5t-73 -177.5q0 -71 45.5 -113.5t120.5 -42.5z" />
    <glyph glyph-name="Obreve" unicode="&#x14e;" horiz-adv-x="829" 
d="M521 773q-60 0 -96.5 31.5t-36.5 84.5q0 15 4 32h63q-2 -10 -2 -25q0 -67 74 -67q43 0 71 23.5t37 68.5h65q-13 -70 -61 -109t-118 -39zM365 -12q-138 0 -222 84.5t-84 214.5q0 86 33.5 164.5t91 135.5t139 91t173.5 34q137 0 221.5 -84.5t84.5 -215.5q0 -86 -33.5 -164
t-91 -135t-139 -91t-173.5 -34zM378 69q96 0 174 46.5t121.5 124t43.5 166.5q0 100 -64 162.5t-170 62.5q-96 0 -174.5 -46.5t-121.5 -123.5t-43 -166q0 -100 64 -163t170 -63z" />
    <glyph glyph-name="obreve" unicode="&#x14f;" horiz-adv-x="656" 
d="M398 599q-62 0 -99 33t-37 88q0 12 4 36h64q-3 -17 -3 -29q0 -18 5 -32t15 -23t24.5 -13.5t32.5 -4.5q46 0 75 26.5t39 75.5h66q-10 -50 -35.5 -85.5t-64 -53.5t-86.5 -18zM278 -12q-71 0 -125.5 30t-84 82.5t-29.5 119.5q0 89 45.5 165.5t123.5 121.5t170 45
q71 0 125.5 -30t84 -82.5t29.5 -119.5q0 -89 -45.5 -165.5t-124 -121.5t-169.5 -45zM287 66q102 0 174.5 75t72.5 177q0 71 -45 113.5t-121 42.5q-101 0 -174 -74.5t-73 -177.5q0 -71 45.5 -113.5t120.5 -42.5z" />
    <glyph glyph-name="Ohungarumlaut" unicode="&#x150;" horiz-adv-x="829" 
d="M394 779l92 142h77l-108 -142h-61zM559 779l109 142h81l-128 -142h-62zM365 -12q-138 0 -222 84.5t-84 214.5q0 86 33.5 164.5t91 135.5t139 91t173.5 34q137 0 221.5 -84.5t84.5 -215.5q0 -86 -33.5 -164t-91 -135t-139 -91t-173.5 -34zM378 69q96 0 174 46.5t121.5 124
t43.5 166.5q0 100 -64 162.5t-170 62.5q-96 0 -174 -46.5t-121.5 -123.5t-43.5 -166q0 -100 64 -163t170 -63z" />
    <glyph glyph-name="ohungarumlaut" unicode="&#x151;" horiz-adv-x="656" 
d="M270 604l94 152h82l-114 -152h-62zM443 604l107 152h80l-126 -152h-61zM278 -12q-107 0 -173 65t-66 167q0 89 45.5 165.5t123.5 121.5t170 45q71 0 125.5 -30t84 -82.5t29.5 -119.5q0 -89 -45.5 -165.5t-124 -121.5t-169.5 -45zM287 66q102 0 174.5 75t72.5 177
q0 71 -45 113.5t-121 42.5q-101 0 -174 -74.5t-73 -177.5q0 -71 45.5 -113.5t120.5 -42.5z" />
    <glyph glyph-name="OE" unicode="&#x152;" horiz-adv-x="956" 
d="M967 622h-318l-45 -226h292l-15 -76h-292l-49 -242h330l-16 -78h-389q-51 -12 -105 -12q-135 0 -218 84t-83 214q0 85 34 163.5t92 136t138 92t168 34.5q49 0 94 -12h398zM144 294q0 -99 63 -162t166 -63q42 0 84 11l108 538q-41 13 -87 13q-91 0 -168.5 -47.5
t-121.5 -125t-44 -164.5z" />
    <glyph glyph-name="oe" unicode="&#x153;" horiz-adv-x="1114" 
d="M1067 239h-465v-21q0 -71 41.5 -111.5t115.5 -40.5q38 0 74 11.5t66.5 33.5t53.5 53h87q-50 -84 -124.5 -130t-162.5 -46q-74 0 -129 36t-80 97q-47 -61 -117 -97t-149 -36q-71 0 -126 30t-84.5 82.5t-29.5 119.5q0 89 46 165.5t124.5 121.5t169.5 45q51 0 94 -16.5
t73.5 -47t47.5 -71.5q46 62 114.5 98.5t145.5 36.5q104 0 164.5 -64.5t60.5 -167.5q0 -37 -11 -81zM847 474q-75 0 -136.5 -45t-89.5 -115h382v5q0 72 -42 113.5t-114 41.5zM287 66q100 0 173.5 75.5t73.5 176.5q0 70 -45 112.5t-121 42.5q-65 0 -122 -34.5t-91 -92.5
t-34 -124q0 -71 45.5 -113.5t120.5 -42.5z" />
    <glyph glyph-name="Racute" unicode="&#x154;" horiz-adv-x="643" 
d="M548 921l-124 -142h-64l102 142h86zM635 525q0 -88 -56 -154t-143 -87l110 -284h-90l-106 276h-168l-56 -276h-83l140 700h258q86 0 140 -49t54 -126zM371 354q49 0 90.5 22.5t65 61t23.5 82.5q0 47 -32 74.5t-88 27.5h-179l-54 -268h174z" />
    <glyph glyph-name="racute" unicode="&#x155;" horiz-adv-x="394" 
d="M435 757l-121 -152h-64l98 152h87zM387 543h48l-16 -77h-54q-71 0 -120.5 -42t-68.5 -117l-61 -307h-81l108 540h57l-4 -86q77 89 192 89z" />
    <glyph glyph-name="uni0156" unicode="&#x156;" horiz-adv-x="643" 
d="M635 525q0 -88 -56 -154t-143 -87l110 -284h-90l-106 276h-168l-56 -276h-83l140 700h258q86 0 140 -49t54 -126zM371 354q49 0 90.5 22.5t65 61t23.5 82.5q0 47 -32 74.5t-88 27.5h-179l-54 -268h174zM212 -134l15 77h85l-13 -71q-8 -38 -35 -62t-66 -30l8 38
q41 9 49 48h-43z" />
    <glyph glyph-name="uni0157" unicode="&#x157;" horiz-adv-x="394" 
d="M387 543h48l-16 -77h-54q-71 0 -120.5 -42t-68.5 -117l-61 -307h-81l108 540h57l-4 -86q77 89 192 89zM5 -134l15 77h85l-14 -71q-7 -34 -35 -60.5t-65 -32.5l8 39q40 8 48 48h-42z" />
    <glyph glyph-name="Rcaron" unicode="&#x158;" horiz-adv-x="643" 
d="M447 779h-92l-91 142h68l73 -96l110 96h78zM635 525q0 -88 -56 -154t-143 -87l110 -284h-90l-106 276h-168l-56 -276h-83l140 700h258q86 0 140 -49t54 -126zM371 354q49 0 90.5 22.5t65 61t23.5 82.5q0 47 -32 74.5t-88 27.5h-179l-54 -268h174z" />
    <glyph glyph-name="rcaron" unicode="&#x159;" horiz-adv-x="394" 
d="M344 605h-92l-89 152h72l68 -105l111 105h79zM195 454q77 89 192 89h48l-16 -77h-54q-71 0 -120.5 -42t-68.5 -117l-61 -307h-81l108 540h57z" />
    <glyph glyph-name="Sacute" unicode="&#x15a;" horiz-adv-x="595" 
d="M350 779l102 142h86l-124 -142h-64zM247 -11q-101 0 -159 46.5t-58 131.5q0 25 4 48h85q-3 -16 -3 -30q0 -55 41 -85t105 -30q77 0 132.5 42.5t55.5 105.5q0 20 -8.5 35.5t-21 25.5t-35 19t-40.5 14.5t-47 12.5q-35 8 -56 14.5t-50.5 19t-46 27.5t-28.5 39t-12 54
q0 106 79 169t200 63q62 0 106 -19.5t67 -55.5t23 -86q0 -20 -5 -48h-82q3 15 3 29q0 47 -35.5 74t-93.5 27q-48 0 -88.5 -16.5t-64.5 -47t-24 -69.5q0 -17 8.5 -31.5t20.5 -24t34 -18.5t39 -13.5t46 -11.5q27 -7 42 -11t39 -12.5t38 -16t31.5 -20t27 -26.5t16 -34t6.5 -43
q0 -110 -84 -179t-207 -69z" />
    <glyph glyph-name="sacute" unicode="&#x15b;" horiz-adv-x="510" 
d="M273 604l98 152h87l-121 -152h-64zM204 -12q-85 0 -136 39t-51 106q0 16 3 31h79q-2 -11 -2 -17q0 -41 35 -63t85 -22q42 0 75.5 12.5t53.5 36.5t20 56q0 18 -9.5 31.5t-29.5 21.5t-38.5 13t-48.5 10q-25 4 -40.5 7.5t-37.5 10t-35.5 15t-27 21t-20 30t-6.5 39.5
q0 85 65.5 135.5t166.5 50.5q52 0 92.5 -16.5t62.5 -47.5t22 -72q0 -14 -2 -30h-77q2 12 2 18q0 37 -32 56.5t-80 19.5q-30 0 -56.5 -7t-44.5 -19.5t-28.5 -30t-10.5 -38.5q0 -17 9 -29t28.5 -19.5t37 -11.5t47.5 -9q31 -5 49.5 -9t45 -13.5t41.5 -22t26 -34t11 -49.5
q0 -93 -69 -146.5t-175 -53.5z" />
    <glyph glyph-name="Scircumflex" unicode="&#x15c;" horiz-adv-x="595" 
d="M408 875l-111 -96h-78l146 142h92l91 -142h-66zM575 502h-82q3 15 3 29q0 47 -35.5 74t-93.5 27q-48 0 -88.5 -16.5t-64.5 -47t-24 -69.5q0 -17 8.5 -31.5t20.5 -24t34 -18.5t39 -13.5t46 -12.5q27 -6 42 -10t39 -12.5t38 -16t31.5 -20t27 -26.5t16 -34t6.5 -43
q0 -110 -84 -179t-207 -69q-101 0 -159 46.5t-58 131.5q0 25 4 48h85q-3 -16 -3 -30q0 -55 41 -85t105 -30q77 0 132.5 42.5t55.5 105.5q0 20 -8.5 35.5t-21 25.5t-35 19t-40.5 14.5t-47 12.5q-35 8 -56 14.5t-50.5 19t-46 27.5t-28.5 39t-12 54q0 106 79 169t200 63
q62 0 106 -19.5t67 -55.5t23 -86q0 -20 -5 -48z" />
    <glyph glyph-name="scircumflex" unicode="&#x15d;" horiz-adv-x="510" 
d="M480 604h-67l-73 102l-113 -102h-78l149 152h92zM204 -12q-85 0 -136 39t-51 106q0 16 3 31h79q-2 -11 -2 -17q0 -41 35 -63t85 -22q42 0 75.5 12.5t53.5 36.5t20 56q0 18 -9.5 31.5t-29.5 21.5t-38.5 13t-48.5 10q-25 4 -40.5 7.5t-37.5 10t-35.5 15t-27 21t-20 30
t-6.5 39.5q0 85 65.5 135.5t166.5 50.5q52 0 92.5 -16.5t62.5 -47.5t22 -72q0 -14 -2 -30h-77q2 12 2 18q0 37 -32 56.5t-80 19.5q-30 0 -56.5 -7t-44.5 -19.5t-28.5 -30t-10.5 -38.5q0 -17 9 -29t28.5 -19.5t37 -11.5t47.5 -9q31 -5 49.5 -9t45 -13.5t41.5 -22t26 -34
t11 -49.5q0 -93 -69 -146.5t-175 -53.5z" />
    <glyph glyph-name="Scedilla" unicode="&#x15e;" horiz-adv-x="595" 
d="M575 502h-82q3 15 3 29q0 47 -35.5 74t-93.5 27q-48 0 -88.5 -16.5t-64.5 -47t-24 -69.5q0 -17 8.5 -31.5t20.5 -24t34 -18.5t39 -13.5t46 -11.5q27 -7 42 -11t39 -12.5t38 -16t31.5 -20t27 -26.5t16 -34t6.5 -43q0 -104 -75 -171.5t-189 -75.5l-18 -38q35 -5 55.5 -25
t20.5 -50q0 -48 -41.5 -80.5t-99.5 -32.5h-67l9 50h66q28 0 47.5 15.5t19.5 39.5q0 17 -13.5 27.5t-35.5 10.5h-25l-8 12l33 71q-88 7 -137.5 53t-49.5 124q0 25 4 48h85q-3 -16 -3 -30q0 -55 41 -85t105 -30q77 0 132.5 42.5t55.5 105.5q0 20 -8.5 35.5t-21 25.5t-35 19
t-40.5 14.5t-47 12.5q-35 8 -56 14.5t-50.5 19t-46 27.5t-28.5 39t-12 54q0 106 79 169t200 63q62 0 106 -19.5t67 -55.5t23 -86q0 -20 -5 -48z" />
    <glyph glyph-name="scedilla" unicode="&#x15f;" horiz-adv-x="510" 
d="M480 386h-77q2 12 2 18q0 37 -32 56.5t-80 19.5q-62 0 -101 -26.5t-39 -68.5q0 -17 9 -29t28.5 -19.5t37 -11.5t47.5 -9q31 -5 49.5 -9t45 -13.5t41.5 -22t26 -34t11 -49.5q0 -58 -28.5 -102t-77.5 -68t-111 -29l-19 -39q35 -5 56.5 -27t21.5 -53q0 -32 -17 -57
t-46.5 -38t-66.5 -13h-77l9 50h64q30 0 50.5 16.5t20.5 40.5q0 17 -13.5 27.5t-36.5 10.5h-29l-7 10l33 73q-72 6 -114.5 44t-42.5 99q0 16 3 31h79q-2 -11 -2 -17q0 -41 35 -63t85 -22q42 0 75.5 12.5t53.5 36.5t20 56q0 18 -9.5 31.5t-29.5 21.5t-38.5 13t-48.5 10
q-25 4 -40.5 7.5t-37.5 10t-35.5 15t-27 21t-20 30t-6.5 39.5q0 85 65.5 135.5t166.5 50.5q52 0 92.5 -16.5t62.5 -47.5t22 -72q0 -14 -2 -30z" />
    <glyph glyph-name="Scaron" unicode="&#x160;" horiz-adv-x="595" 
d="M437 779h-92l-91 142h68l73 -96l110 96h78zM384 711q62 0 106 -19.5t67 -55.5t23 -86q0 -20 -5 -48h-82q3 15 3 29q0 47 -35.5 74t-93.5 27q-48 0 -88.5 -16.5t-64.5 -47t-24 -69.5q0 -17 8.5 -31.5t20.5 -24t34 -18.5t39 -13.5t46 -12.5q27 -6 42 -10t39 -12.5t38 -16
t31.5 -20t27 -26.5t16 -34t6.5 -43q0 -73 -39 -130.5t-105 -87.5t-147 -30q-101 0 -159 46.5t-58 131.5q0 25 4 48h85q-3 -16 -3 -30q0 -55 41 -85t105 -30q77 0 132.5 42.5t55.5 105.5q0 20 -8.5 35.5t-21 25.5t-35 19t-40.5 14.5t-47 12.5t-46.5 12t-43.5 14t-41.5 20
t-31 26.5t-23 36t-7.5 45.5q0 106 79 169t200 63z" />
    <glyph glyph-name="scaron" unicode="&#x161;" horiz-adv-x="510" 
d="M437 756h79l-149 -152h-92l-89 152h72l68 -105zM204 -12q-85 0 -136 39t-51 106q0 16 3 31h79q-2 -11 -2 -17q0 -41 35 -63t85 -22q42 0 75.5 12.5t53.5 36.5t20 56q0 18 -9.5 31.5t-29.5 21.5t-38.5 13t-48.5 10t-48.5 9.5t-44 14t-39.5 21.5t-24.5 32t-10.5 46
q0 85 65.5 135.5t166.5 50.5q79 0 128 -37t49 -99q0 -14 -2 -30h-77q2 12 2 18q0 37 -32 56.5t-80 19.5q-62 0 -101 -26.5t-39 -68.5q0 -17 9 -29t28.5 -19.5t37 -11.5t47.5 -9q31 -5 49.5 -9t45 -13.5t41.5 -22t26 -34t11 -49.5q0 -93 -69 -146.5t-175 -53.5z" />
    <glyph glyph-name="uni0162" unicode="&#x162;" horiz-adv-x="548" 
d="M259 0h-10l-21 -44q22 -5 39 -16.5t26 -29t9 -38.5q0 -49 -39 -76.5t-98 -27.5h-70l10 50h66q28 0 47.5 16t19.5 39q0 17 -13.5 27.5t-35.5 10.5h-25l-8 12l35 77h-15l124 623h-214l16 77h512l-16 -77h-214z" />
    <glyph glyph-name="uni0163" unicode="&#x163;" horiz-adv-x="385" 
d="M396 467h-172q-7 -38 -14.5 -74.5t-12 -61t-9.5 -48t-8 -37.5t-5.5 -27.5t-4 -21t-2.5 -14.5t-1.5 -11t-0.5 -7.5v-7.5q0 -40 24 -61t71 -21h60l-15 -75h-70h-6l-21 -44q35 -4 55.5 -24.5t20.5 -50.5q0 -48 -41 -80.5t-97 -32.5h-66l8 47h64q30 0 50.5 17t20.5 43
q0 18 -13.5 28.5t-37.5 10.5h-26l-6 9l38 84q-47 12 -72 46t-25 86q0 6 0.5 10.5t1 12t2 14.5t4 21t5.5 28t8 39.5l10 51t13.5 67t16.5 84.5h-94l4 15l197 171h13l-23 -113h171z" />
    <glyph glyph-name="Tcaron" unicode="&#x164;" horiz-adv-x="548" 
d="M419 779h-92l-90 142h67l73 -96l110 96h79zM614 700l-16 -77h-214l-125 -623h-83l124 623h-214l16 77h512z" />
    <glyph glyph-name="tcaron" unicode="&#x165;" horiz-adv-x="387" 
d="M465 733h85l-15 -71q-7 -35 -36.5 -65.5t-64.5 -35.5l7 38q19 4 33 19.5t18 36.5h-43zM263 653l-23 -113h160l-15 -73h-161q-13 -66 -31 -156q-27 -138 -27 -153q0 -40 24.5 -61.5t69.5 -21.5h64l-15 -76h-69q-74 0 -116 37.5t-42 103.5q0 5 0.5 9.5t1.5 12t2 14.5
t3.5 21.5t5.5 28.5t8 39.5t10.5 51t13.5 67t16 83.5h-94l3 15l198 171h13z" />
    <glyph glyph-name="Tbar" unicode="&#x166;" horiz-adv-x="575" 
d="M611 623h-214l-46 -230h155l-15 -74h-154l-64 -319h-84l64 319h-152l15 74h152l46 230h-215l16 77h512z" />
    <glyph glyph-name="tbar" unicode="&#x167;" horiz-adv-x="403" 
d="M408 467h-171q-10 -53 -30 -150h172l-15 -73h-171q-15 -72 -15 -86q0 -40 24.5 -61.5t69.5 -21.5h65l-15 -76h-69q-74 0 -116 37.5t-42 103.5q0 22 16 104h-92l15 73h92q16 79 30 150h-94l3 15l197 171h13l-22 -113h170z" />
    <glyph glyph-name="Utilde" unicode="&#x168;" horiz-adv-x="723" 
d="M530 781q-20 0 -36.5 7t-26 16t-22.5 24q-14 17 -25.5 25.5t-26.5 8.5q-48 0 -62 -77h-53q28 135 125 135q29 0 46.5 -11.5t34.5 -34.5q7 -9 12 -14t11.5 -10.5t14.5 -8t17 -2.5q46 0 61 75h53q-8 -44 -26 -74t-42.5 -44.5t-54.5 -14.5zM312 -12q-103 0 -167.5 60.5
t-64.5 156.5q0 8 0.5 14.5t2 18t3 22t5.5 32t8.5 42.5t12.5 60l16 78t20.5 101.5t25.5 126.5h85q-24 -119 -54 -272q-38 -188 -38 -211q0 -68 40.5 -108t111.5 -40q85 0 150 54.5t82 142.5l86 434h85l-91 -444q-23 -120 -111 -194t-208 -74z" />
    <glyph glyph-name="utilde" unicode="&#x169;" horiz-adv-x="631" 
d="M456 611q-21 0 -38.5 7.5t-26.5 15.5t-21 23q-8 11 -14.5 17t-15 10.5t-18.5 4.5q-46 0 -59 -74h-53q26 132 122 132q21 0 37 -6.5t24 -15t20 -23.5q7 -9 11.5 -13.5t11 -10t14 -7.5t16.5 -2q46 0 59 72h52q-12 -64 -43.5 -97t-77.5 -33zM268 -12q-94 0 -148.5 51
t-56.5 137q0 6 0.5 11.5t1 11.5t2 15.5t3 18.5t5 26t6.5 33t9 44t11 54t13.5 68t16.5 82h81q-8 -42 -16 -83.5t-13.5 -68.5t-11 -53.5t-8.5 -42.5t-6 -31.5t-4.5 -24t-3 -16.5t-2 -13t-0.5 -9v-9q0 -39 15 -66.5t43.5 -42t69.5 -14.5q74 0 125.5 46.5t67.5 125.5l60 302h81
l-64 -317q-22 -109 -95 -172t-182 -63z" />
    <glyph glyph-name="Umacron" unicode="&#x16a;" horiz-adv-x="723" 
d="M304 814l14 70h313l-14 -70h-313zM312 -12q-103 0 -167.5 60.5t-64.5 156.5q0 8 0.5 14.5t2 18t3 22t5.5 32t8.5 42.5t12.5 60l16 78t20.5 101.5t25.5 126.5h85q-24 -119 -54 -272q-38 -188 -38 -211q0 -68 40.5 -108t111.5 -40q85 0 150 54.5t82 142.5l86 434h85
l-91 -444q-23 -120 -111 -194t-208 -74z" />
    <glyph glyph-name="umacron" unicode="&#x16b;" horiz-adv-x="631" 
d="M235 651l13 64h313l-13 -64h-313zM268 -12q-94 0 -149 51t-56 137q0 6 0.5 11.5t1 11.5t2 15.5t3 18.5t5 26t6.5 33t9 44t11 54t13.5 68t16.5 82h81q-16 -83 -37 -190q-20 -98 -24 -121.5t-4 -39.5q0 -39 15 -66.5t43.5 -42t69.5 -14.5q74 0 125.5 46.5t67.5 125.5
l60 302h81l-64 -317q-22 -109 -95 -172t-182 -63z" />
    <glyph glyph-name="Ubreve" unicode="&#x16c;" horiz-adv-x="723" 
d="M458 773q-61 0 -97 31.5t-36 84.5q0 15 3 32h64q-2 -10 -2 -25q0 -67 74 -67q28 0 50 10.5t37 31t21 50.5h65q-13 -70 -61 -109t-118 -39zM312 -12q-103 0 -167.5 60.5t-64.5 156.5q0 8 0.5 14.5t2 18t3 22t5.5 32t8.5 42.5t12.5 60l16 78t20.5 101.5t25.5 126.5h85
q-13 -62 -25 -123t-19.5 -100t-15.5 -77t-12 -60t-8 -43t-6 -32t-3.5 -21t-2 -15.5t-0.5 -11.5q0 -45 18 -78t52 -51.5t82 -18.5q85 0 150 54.5t82 142.5l86 434h85l-91 -444q-23 -120 -111 -194t-208 -74z" />
    <glyph glyph-name="ubreve" unicode="&#x16d;" horiz-adv-x="631" 
d="M385 599q-62 0 -99 33t-37 88q0 12 5 36h63q-3 -17 -3 -29q0 -36 20.5 -54.5t56.5 -18.5q46 0 75.5 26.5t39.5 75.5h65q-14 -75 -63.5 -116t-122.5 -41zM268 -12q-94 0 -149 51t-56 137q0 6 0.5 11.5t1 11.5t2 15.5t3 18.5t5 26t6.5 33t9 44t11 54t13.5 68t16.5 82h81
q-16 -83 -37 -190q-20 -98 -24 -121.5t-4 -39.5q0 -39 15 -66.5t43.5 -42t69.5 -14.5q74 0 125.5 46.5t67.5 125.5l60 302h81l-64 -317q-22 -109 -95 -172t-182 -63z" />
    <glyph glyph-name="Uring" unicode="&#x16e;" horiz-adv-x="723" 
d="M455 762q-44 0 -70.5 26t-26.5 67q0 58 39 95.5t98 37.5q45 0 72 -26.5t27 -67.5q0 -37 -18.5 -67.5t-50.5 -47.5t-70 -17zM462 811q34 0 58 22.5t24 56.5q0 23 -15.5 36t-40.5 13q-34 0 -57.5 -22t-23.5 -57q0 -23 15 -36t40 -13zM312 -12q-103 0 -167.5 60.5
t-64.5 156.5q0 8 0.5 14.5t2 18t3 22t5.5 32t8.5 42.5t12.5 60l16 78t20.5 101.5t25.5 126.5h85q-13 -62 -25 -123t-19.5 -100t-15.5 -77t-12 -60t-8 -43t-6 -32t-3.5 -21t-2 -15.5t-0.5 -11.5q0 -68 40.5 -108t111.5 -40q85 0 150 54.5t82 142.5l86 434h85l-91 -444
q-23 -120 -111 -194t-208 -74z" />
    <glyph glyph-name="uring" unicode="&#x16f;" horiz-adv-x="631" 
d="M381 590q-41 0 -66.5 24.5t-25.5 63.5q0 54 37 89.5t93 35.5q42 0 67.5 -25t25.5 -64q0 -53 -38 -88.5t-93 -35.5zM388 636q32 0 54.5 21.5t22.5 52.5q0 15 -6.5 25.5t-18.5 16.5t-28 6q-32 0 -54 -21.5t-22 -53.5q0 -21 14 -34t38 -13zM268 -12q-94 0 -148.5 51
t-56.5 137q0 6 0.5 11.5t1 11.5t2 15.5t3 18.5t5 26t6.5 33t9 44t11 54t13.5 68t16.5 82h81q-8 -42 -16 -83.5t-13.5 -68.5t-11 -53.5t-8.5 -42.5t-6 -31.5t-4.5 -24t-3 -16.5t-2 -13t-0.5 -9v-9q0 -39 15 -66.5t43.5 -42t69.5 -14.5q74 0 125.5 46.5t67.5 125.5l60 302h81
l-64 -317q-22 -109 -95 -172t-182 -63z" />
    <glyph glyph-name="Uhungarumlaut" unicode="&#x170;" horiz-adv-x="723" 
d="M331 779l92 142h77l-108 -142h-61zM496 779l109 142h80l-128 -142h-61zM312 -12q-103 0 -167.5 60.5t-64.5 156.5q0 8 0.5 14.5t1 14t2.5 19t4.5 24t7 34.5t9 45t12 59.5t15 74.5t19 95t23.5 115h85q-13 -62 -25 -123t-19.5 -100t-15.5 -77t-12 -60t-8 -43t-6 -32
t-3.5 -21t-2 -15.5t-0.5 -11.5q0 -45 18 -78t52 -51.5t82 -18.5q85 0 150 54.5t82 142.5l86 434h85l-91 -444q-22 -120 -110.5 -194t-208.5 -74z" />
    <glyph glyph-name="uhungarumlaut" unicode="&#x171;" horiz-adv-x="631" 
d="M257 604l94 152h82l-113 -152h-63zM431 604l107 152h79l-125 -152h-61zM268 -12q-94 0 -149 51t-56 137q0 6 0.5 11.5t1 11.5t2 15.5t3 18.5t5 26t6.5 33t9 44t11 54t13.5 68t16.5 82h81q-16 -83 -37 -190q-20 -98 -24 -121.5t-4 -39.5q0 -39 15 -66.5t43.5 -42
t69.5 -14.5q74 0 125.5 46.5t67.5 125.5l60 302h81l-64 -317q-22 -109 -95 -172t-182 -63z" />
    <glyph glyph-name="Uogonek" unicode="&#x172;" horiz-adv-x="723" 
d="M637 700h84l-87 -438q-11 -55 -35.5 -100t-58.5 -76.5t-63 -51.5t-68 -39q-112 -60 -112 -125q0 -20 14 -32t39 -12q33 0 62 11l-11 -52q-37 -17 -79 -17t-68 22t-26 58q0 27 12.5 54t33.5 49t49 40q-10 -1 -26 -1q-98 2 -157 60t-59 151q0 25 6 60.5t34 170.5
q9 46 14.5 75t17 84t21.5 109h84q-91 -450 -92 -467q-1 -6 -1 -13q0 -34 11 -61.5t31.5 -47t49.5 -30t65 -10.5q83 0 147 54t81 141z" />
    <glyph glyph-name="uogonek" unicode="&#x173;" horiz-adv-x="630" 
d="M527 540h81l-64 -320q-16 -78 -57.5 -130t-119.5 -86q-48 -20 -81 -54t-33 -67q0 -24 17.5 -37t47.5 -13q22 0 52 9l-9 -48q-36 -17 -76 -17q-43 0 -70 21.5t-27 59.5q0 34 19.5 69.5t49.5 61.5h-4q-42 0 -77 13.5t-59.5 38t-38.5 59.5t-14 76q0 8 0.5 13.5t1.5 15
t2 17.5t4 25t6 31.5t9 44t11 55.5t14.5 72.5t18.5 89.5h81q-12 -56 -29 -141q-26 -129 -31 -159t-5 -48q0 -58 33 -91t94 -33q73 0 125 46.5t68 126.5z" />
    <glyph glyph-name="Wcircumflex" unicode="&#x174;" horiz-adv-x="1024" 
d="M629 875l-111 -96h-79l147 142h92l90 -142h-65zM993 700h93l-361 -700h-73l-93 506l-292 -506h-74l-86 700h84l64 -563l319 548h29l104 -549z" />
    <glyph glyph-name="wcircumflex" unicode="&#x175;" horiz-adv-x="845" 
d="M505 706l-113 -102h-77l148 152h92l90 -152h-67zM799 540h82l-291 -540h-66l-80 375l-230 -375h-67l-74 540h80l56 -404l246 395h30l88 -399z" />
    <glyph glyph-name="Ycircumflex" unicode="&#x176;" horiz-adv-x="654" 
d="M438 875l-111 -96h-79l147 142h92l91 -142h-66zM716 700l-344 -421l-56 -279h-86l56 279l-173 421h86l140 -342l280 342h97z" />
    <glyph glyph-name="ycircumflex" unicode="&#x177;" horiz-adv-x="583" 
d="M378 706l-113 -102h-77l149 152h92l89 -152h-67zM531 540h90l-372 -569q-63 -95 -113.5 -129.5t-126.5 -34.5h-53l15 74h39q55 0 86.5 22t78.5 91l32 47l-139 499h85l112 -413z" />
    <glyph glyph-name="Ydieresis" unicode="&#x178;" horiz-adv-x="654" 
d="M381 893l-19 -94h-93l18 94h94zM597 893l-18 -94h-94l18 94h94zM716 700l-344 -421l-56 -279h-86l56 279l-173 421h86l140 -342l280 342h97z" />
    <glyph glyph-name="Zacute" unicode="&#x179;" horiz-adv-x="559" 
d="M543 921l-124 -142h-64l102 142h86zM610 700l-4 -16l-485 -607h376l-16 -77h-510l3 15l487 608h-350l16 77h483z" />
    <glyph glyph-name="zacute" unicode="&#x17a;" horiz-adv-x="478" 
d="M451 756l-120 -152h-64l98 152h86zM499 540l-3 -14l-378 -452h290l-15 -74h-422l3 12l379 455h-270l15 73h401z" />
    <glyph glyph-name="Zdotaccent" unicode="&#x17b;" horiz-adv-x="559" 
d="M465 893l-18 -94h-94l19 94h93zM610 700l-4 -16l-485 -607h376l-16 -77h-510l3 15l487 608h-350l16 77h483z" />
    <glyph glyph-name="zdotaccent" unicode="&#x17c;" horiz-adv-x="478" 
d="M382 730l-19 -94h-89l19 94h89zM499 540l-3 -14l-378 -452h290l-15 -74h-422l3 12l379 455h-270l15 73h401z" />
    <glyph glyph-name="Zcaron" unicode="&#x17d;" horiz-adv-x="559" 
d="M442 779h-92l-91 142h67l74 -96l110 96h78zM610 700l-4 -16l-485 -607h376l-16 -77h-510l3 15l487 608h-350l16 77h483z" />
    <glyph glyph-name="zcaron" unicode="&#x17e;" horiz-adv-x="478" 
d="M360 604h-92l-88 152h72l68 -105l111 105h79zM83 467l15 73h401l-3 -14l-378 -452h290l-15 -74h-422l3 12l379 455h-270z" />
    <glyph glyph-name="longs" unicode="&#x17f;" horiz-adv-x="275" 
d="M34 3l119 590q28 140 169 140h96l-14 -75h-69q-46 0 -71.5 -21t-34.5 -65l-114 -569h-81z" />
    <glyph glyph-name="florin" unicode="&#x192;" horiz-adv-x="438" 
d="M408 608q-19 0 -37.5 -6t-33.5 -16.5t-26 -26t-17 -33.5l-27 -82h151l-21 -61h-150l-156 -452q-22 -64 -72 -101t-114 -37h-53l23 70h32q40 0 69.5 22.5t43.5 62.5l149 435h-100l21 61h100l31 91q20 60 70.5 96.5t115.5 36.5h87l-19 -60h-67z" />
    <glyph glyph-name="AEacute" unicode="&#x1fc;" horiz-adv-x="895" 
d="M755 921l-124 -142h-64l102 142h86zM907 622h-311l-45 -225h286l-16 -75h-285l-49 -244h323l-16 -78h-406l31 157h-256l-126 -157h-101l561 700h426zM222 231h212l71 356z" />
    <glyph glyph-name="aeacute" unicode="&#x1fd;" horiz-adv-x="1109" 
d="M768 756l-121 -152h-64l99 152h86zM1062 239h-465q-1 -12 -1 -23q0 -35 11 -63t31 -47t49 -29.5t66 -10.5q58 0 108.5 25.5t84.5 72.5h90q-52 -84 -126 -130t-162 -46q-61 0 -109 26t-77 72l-20 -86h-61l10 73q-95 -85 -221 -85q-68 0 -121 29.5t-81.5 81t-28.5 116.5
q0 89 44.5 166.5t122.5 124t169 46.5q62 0 111.5 -24.5t79.5 -67.5l18 80h62l-11 -75q92 87 213 87q103 0 164.5 -63.5t61.5 -162.5q0 -43 -12 -87zM842 476q-77 0 -138 -45.5t-89 -116.5h382v5q0 73 -41 115t-114 42zM288 66q100 0 173.5 76t73.5 176q0 47 -20.5 82
t-58 54.5t-88.5 19.5q-65 0 -122.5 -35t-91 -93t-33.5 -123q0 -70 45.5 -113.5t121.5 -43.5z" />
    <glyph glyph-name="Oslashacute" unicode="&#x1fe;" horiz-adv-x="836" 
d="M666 921l-124 -142h-65l102 142h87zM713 637q46 -39 71 -96.5t25 -126.5q0 -68 -22 -133t-62 -117.5t-93.5 -92t-120 -61.5t-137.5 -22q-86 0 -154 33l-66 -83h-91l97 119q-49 39 -75.5 97.5t-26.5 128.5q0 85 35 164t93.5 137t139.5 92.5t169 34.5t159 -35l69 86h91z
M486 630q-91 0 -170.5 -47.5t-126 -126t-46.5 -167.5q0 -103 73 -163l384 480q-51 24 -114 24zM381 69q55 0 108 18t95 50.5t74 75t49.5 93.5t17.5 103q0 98 -68 160l-383 -479q50 -20 107 -21z" />
    <glyph glyph-name="oslashacute" unicode="&#x1ff;" horiz-adv-x="661" 
d="M532 756l-121 -152h-64l98 152h87zM539 502q20 -14 35.5 -34t26 -43.5t16 -50t5.5 -54.5q0 -90 -45.5 -166.5t-123.5 -121t-169 -44.5q-64 0 -113 23l-54 -72h-79l78 104q-24 19 -41.5 47t-26.5 60.5t-9 69.5q0 90 46.5 166.5t124.5 121t170 44.5q56 0 103 -20l50 69h79z
M367 478q-68 0 -126 -36t-90.5 -94.5t-32.5 -123.5q0 -74 49 -117l270 361q-33 10 -70 10zM296 62q102 0 175.5 76t73.5 175q0 78 -56 122l-271 -360q35 -13 78 -13z" />
    <glyph glyph-name="uni0218" unicode="&#x218;" horiz-adv-x="595" 
d="M247 -11q-101 0 -159 46.5t-58 131.5q0 25 4 48h85q-3 -16 -3 -30q0 -55 41 -85t105 -30q77 0 132.5 42.5t55.5 105.5q0 20 -8.5 35.5t-21 25.5t-35 19t-40.5 14.5t-47 12.5q-35 8 -56 14.5t-50.5 19t-46 27.5t-28.5 39t-12 54q0 106 79 169t200 63q93 0 144.5 -43
t51.5 -118q0 -20 -5 -48h-82q3 15 3 29q0 47 -35.5 74t-93.5 27q-48 0 -88.5 -16.5t-64.5 -47t-24 -69.5q0 -17 8.5 -31.5t20.5 -24t34 -18.5t39 -13.5t46 -11.5q27 -7 42 -11t39 -12.5t38 -16t31.5 -20t27 -26.5t16 -34t6.5 -43q0 -110 -84 -179t-207 -69zM175 -224l9 38
q40 8 48 47h-43l16 78h85l-14 -71q-8 -38 -35 -62t-66 -30z" />
    <glyph glyph-name="uni0219" unicode="&#x219;" horiz-adv-x="510" 
d="M204 -12q-85 0 -136 39t-51 106q0 16 3 31h79q-2 -11 -2 -17q0 -41 35 -63t85 -22q42 0 75.5 12.5t53.5 36.5t20 56q0 18 -9.5 31.5t-29.5 21.5t-38.5 13t-48.5 10q-25 4 -40.5 7.5t-37.5 10t-35.5 15t-27 21t-20 30t-6.5 39.5q0 85 65.5 135.5t166.5 50.5
q52 0 92.5 -16.5t62.5 -47.5t22 -72q0 -14 -2 -30h-77q2 12 2 18q0 37 -32 56.5t-80 19.5q-30 0 -56.5 -7t-44.5 -19.5t-28.5 -30t-10.5 -38.5q0 -13 7 -24t17 -17.5t27.5 -12t32 -8.5t38.5 -7q31 -5 49.5 -9t45 -13.5t41.5 -22t26 -34t11 -49.5q0 -93 -69 -146.5
t-175 -53.5zM131 -227l8 39q40 8 48 48h-43l16 77h85l-14 -71q-7 -34 -35 -60.5t-65 -32.5z" />
    <glyph glyph-name="uni021A" unicode="&#x21a;" horiz-adv-x="548" 
d="M614 700l-16 -77h-214l-125 -623h-83l124 623h-214l16 77h512zM150 -134l16 77h85l-14 -71q-7 -38 -34.5 -62t-65.5 -30l8 38q40 9 48 48h-43z" />
    <glyph glyph-name="uni021B" unicode="&#x21b;" horiz-adv-x="391" 
d="M396 467h-171q-13 -66 -31 -157q-28 -137 -28 -152q0 -26 11 -45t32 -28.5t51 -9.5h65l-15 -76h-70q-48 0 -84 17t-54.5 48.5t-18.5 75.5q0 23 27 161q20 95 34 166h-95l4 15l197 171h13l-23 -113h171zM130 -134l15 77h85l-14 -71q-7 -34 -35 -60.5t-65 -32.5l8 39
q40 8 48 48h-42z" />
    <glyph glyph-name="circumflex" unicode="&#x2c6;" horiz-adv-x="600" 
d="M537 604h-67l-73 102l-113 -102h-77l148 152h92z" />
    <glyph glyph-name="caron" unicode="&#x2c7;" horiz-adv-x="599" 
d="M468 756h80l-150 -152h-92l-88 152h72l68 -105z" />
    <glyph glyph-name="breve" unicode="&#x2d8;" horiz-adv-x="600" 
d="M341 599q-41 0 -71.5 14.5t-47.5 42t-17 64.5q0 12 4 36h64q-3 -17 -3 -29q0 -36 20 -54.5t57 -18.5q46 0 75.5 26.5t38.5 75.5h66q-14 -75 -63.5 -116t-122.5 -41z" />
    <glyph glyph-name="dotaccent" unicode="&#x2d9;" horiz-adv-x="291" 
d="M118 636l19 94h89l-19 -94h-89z" />
    <glyph glyph-name="ring" unicode="&#x2da;" horiz-adv-x="410" 
d="M271 590q-41 0 -66.5 24.5t-25.5 63.5q0 54 37 89.5t93 35.5q28 0 49 -11.5t32.5 -31.5t11.5 -46q0 -34 -17.5 -63t-47.5 -45t-66 -16zM278 636q32 0 54.5 21.5t22.5 52.5q0 15 -6.5 25.5t-18.5 16.5t-28 6q-21 0 -38 -9.5t-27.5 -27t-10.5 -38.5t14 -34t38 -13z" />
    <glyph glyph-name="ogonek" unicode="&#x2db;" horiz-adv-x="433" 
d="M128 -227q-45 0 -71 22t-26 58q0 60 59.5 117t147.5 83l-6 -44q-54 -15 -95.5 -52.5t-41.5 -77.5q0 -23 17.5 -37t47.5 -14q25 0 51 10l-10 -49q-37 -16 -73 -16z" />
    <glyph glyph-name="tilde" unicode="&#x2dc;" horiz-adv-x="600" 
d="M441 611q-22 0 -39.5 7.5t-26 15.5t-21.5 23q-24 32 -47 32q-47 0 -60 -74h-52q26 132 122 132q13 0 23.5 -2.5t18 -6t15 -10t12.5 -12t11 -14.5q10 -11 15.5 -17t15.5 -11t22 -5q47 0 59 72h53q-9 -43 -26 -72.5t-41 -43.5t-54 -14z" />
    <glyph glyph-name="hungarumlaut" unicode="&#x2dd;" horiz-adv-x="527" 
d="M162 604l94 152h82l-114 -152h-62zM336 604l106 152h80l-126 -152h-60z" />
    <glyph glyph-name="gravecomb" unicode="&#x300;" 
d="M-24 604h-64l-61 152h87z" />
    <glyph glyph-name="acutecomb" unicode="&#x301;" 
d="M-188 604l99 152h86l-120 -152h-65z" />
    <glyph glyph-name="uni0302" unicode="&#x302;" 
d="M-95 604h-67l-73 102l-113 -102h-77l148 152h92z" />
    <glyph glyph-name="tildecomb" unicode="&#x303;" 
d="M-159 611q-14 0 -25.5 3t-19.5 6.5t-16.5 10.5t-13.5 12t-12 14q-24 32 -47 32q-47 0 -60 -74h-52q26 132 122 132q13 0 23.5 -2.5t18 -6t15 -10t12.5 -12t11 -14.5q10 -11 15.5 -17t15.5 -11t22 -5q47 0 59 72h53q-9 -43 -26 -72.5t-41 -43.5t-54 -14z" />
    <glyph glyph-name="uni0304" unicode="&#x304;" 
d="M-334 651l13 64h313l-13 -64h-313z" />
    <glyph glyph-name="uni0306" unicode="&#x306;" 
d="M-198 599q-30 0 -55.5 8.5t-43 24t-27.5 38.5t-10 50q0 12 4 36h64q-3 -17 -3 -29q0 -36 20 -54.5t57 -18.5q46 0 75.5 26.5t38.5 75.5h66q-14 -75 -63.5 -116t-122.5 -41z" />
    <glyph glyph-name="uni0307" unicode="&#x307;" 
d="M-173 636l19 94h89l-19 -94h-89z" />
    <glyph glyph-name="uni0308" unicode="&#x308;" 
d="M-370 636l19 94h94l-19 -94h-94zM-175 636l19 94h94l-20 -94h-93z" />
    <glyph glyph-name="uni030A" unicode="&#x30a;" 
d="M-139 590q-42 0 -67 24.5t-25 63.5q0 54 37 89.5t93 35.5q42 0 67.5 -25t25.5 -64q0 -53 -38 -88.5t-93 -35.5zM-132 636q21 0 38.5 10t27.5 27t10 37q0 22 -14 35t-38 13q-21 0 -38 -9.5t-27.5 -27t-10.5 -38.5t14 -34t38 -13z" />
    <glyph glyph-name="uni030B" unicode="&#x30b;" 
d="M-387 604l94 152h82l-114 -152h-62zM-214 604l107 152h80l-126 -152h-61z" />
    <glyph glyph-name="uni030C" unicode="&#x30c;" 
d="M-131 756h79l-149 -152h-92l-88 152h72l68 -105z" />
    <glyph glyph-name="uni0312" unicode="&#x312;" 
d="M-301 634l14 71q6 34 34.5 60t65.5 32l-8 -39q-40 -8 -48 -47h42l-15 -77h-85z" />
    <glyph glyph-name="uni0326" unicode="&#x326;" 
d="M-217 -221l9 39q40 8 48 48h-43l16 77h85l-14 -71q-7 -34 -35.5 -60.5t-65.5 -32.5z" />
    <glyph glyph-name="uni0327" unicode="&#x327;" 
d="M-260 -44q36 -5 57 -27t21 -53q0 -32 -16.5 -57t-46 -38t-67.5 -13h-76l9 50h63q31 0 51 16.5t20 40.5q0 18 -13 28.5t-37 10.5h-29l-7 9l48 104h57z" />
    <glyph glyph-name="uni0328" unicode="&#x328;" 
d="M-305 -227q-45 0 -71 22t-26 58q0 60 59.5 117t147.5 83l-6 -44q-54 -15 -95.5 -52.5t-41.5 -77.5q0 -23 17.5 -37t47.5 -14q25 0 51 10l-10 -49q-37 -16 -73 -16z" />
    <glyph glyph-name="uni0335" unicode="&#x335;" 
d="M-427 614l14 66h362l-13 -66h-363z" />
    <glyph glyph-name="uni0337" unicode="&#x337;" 
d="M-408 239l16 79l320 167l-16 -79z" />
    <glyph glyph-name="tonos" unicode="&#x384;" horiz-adv-x="355" 
d="M167 604l98 152h87l-121 -152h-64z" />
    <glyph glyph-name="dieresistonos" unicode="&#x385;" horiz-adv-x="445" 
d="M171 604l79 152h77l-94 -152h-62zM69 648l14 72h78l-14 -72h-78zM339 648l14 72h77l-14 -72h-77z" />
    <glyph glyph-name="Alphatonos" unicode="&#x386;" horiz-adv-x="717" 
d="M560 0l-37 170h-339l-104 -170h-93l427 700h78l155 -700h-87zM288 700l-125 -142h-64l101 142h88zM432 586l-204 -342h278z" />
    <glyph glyph-name="Epsilontonos" unicode="&#x388;" horiz-adv-x="673" 
d="M153 700h87l-124 -142h-64zM685 622h-311l-45 -224h286l-16 -76h-285l-49 -243h322l-16 -79h-405l140 700h394z" />
    <glyph glyph-name="Etatonos" unicode="&#x389;" horiz-adv-x="852" 
d="M153 700h87l-124 -142h-64zM758 700h84l-140 -700h-84l65 323h-369l-65 -323h-83l140 700h83l-60 -301h369z" />
    <glyph glyph-name="Iotatonos" unicode="&#x38a;" horiz-adv-x="400" 
d="M52 558l101 142h87l-124 -142h-64zM166 0l140 700h83l-140 -700h-83z" />
    <glyph glyph-name="Omicrontonos" unicode="&#x38c;" horiz-adv-x="917" 
d="M454 -12q-138 0 -222.5 84.5t-84.5 214.5q0 86 33.5 164.5t91 135.5t139 91t173.5 34q138 0 222 -84.5t84 -215.5q0 -49 -11 -96t-32 -89t-50 -79t-66.5 -66t-80.5 -50t-93.5 -32.5t-102.5 -11.5zM58 558l101 142h88l-125 -142h-64zM466 69q96 0 174.5 46.5t122 124
t43.5 166.5q0 100 -64.5 162.5t-170.5 62.5q-95 0 -173.5 -46.5t-122 -123.5t-43.5 -166q0 -100 64 -163t170 -63z" />
    <glyph glyph-name="Upsilontonos" unicode="&#x38e;" horiz-adv-x="847" 
d="M109 558l101 142h87l-124 -142h-64zM909 700l-344 -421l-56 -279h-86l56 279l-173 421h86l141 -342l279 342h97z" />
    <glyph glyph-name="Omegatonos" unicode="&#x38f;" horiz-adv-x="912" 
d="M865 418q0 -103 -52.5 -192.5t-142.5 -148.5h138l-16 -77h-311l15 75q121 32 203 128.5t82 212.5q0 94 -65 154.5t-168 60.5q-89 0 -167 -46t-124 -122t-46 -160q0 -81 44 -142.5t121 -85.5l-15 -75h-311l16 77h159q-99 91 -99 226q0 110 57.5 204.5t156 149.5t213.5 55
q136 0 224 -84t88 -210zM269 700l-124 -142h-64l101 142h87z" />
    <glyph glyph-name="iotadieresistonos" unicode="&#x390;" horiz-adv-x="338" 
d="M157 604l67 152h71l-84 -152h-54zM54 648l15 72h78l-15 -72h-78zM304 648l15 72h78l-15 -72h-78zM216 -3q-74 0 -116.5 38t-42.5 103q0 21 43 235q20 100 34 167h81q-16 -76 -37 -184q-27 -131 -32 -160.5t-5 -41.5q0 -39 24 -60t70 -21h57l-16 -76h-60z" />
    <glyph glyph-name="Alpha" unicode="&#x391;" horiz-adv-x="696" 
d="M539 0l-37 170h-339l-104 -170h-93l427 700h78l155 -700h-87zM411 586l-205 -342h279z" />
    <glyph glyph-name="Beta" unicode="&#x392;" horiz-adv-x="648" 
d="M500 359q36 -17 55.5 -52t19.5 -80q0 -96 -72.5 -161.5t-175.5 -65.5h-285l141 700h272q49 0 87 -20t58.5 -54.5t20.5 -77.5q0 -57 -35 -110t-86 -79zM531 533q0 39 -26 63.5t-67 24.5h-189l-44 -221h191q53 0 94 40t41 93zM334 80q64 0 108 43.5t44 102.5q0 21 -7 39
t-20.5 31t-33 20.5t-42.5 7.5h-193l-49 -244h193z" />
    <glyph glyph-name="Gamma" unicode="&#x393;" horiz-adv-x="493" 
d="M557 700l-16 -73h-289l-126 -627h-83l140 700h374z" />
    <glyph glyph-name="uni0394" unicode="&#x394;" horiz-adv-x="696" 
d="M467 700l159 -700h-660l428 700h73zM412 579l-301 -503h406z" />
    <glyph glyph-name="Epsilon" unicode="&#x395;" horiz-adv-x="550" 
d="M562 622h-311l-45 -224h286l-16 -76h-285l-49 -243h322l-16 -79h-405l140 700h394z" />
    <glyph glyph-name="Zeta" unicode="&#x396;" horiz-adv-x="559" 
d="M610 700l-4 -16l-485 -607h376l-16 -77h-510l3 15l487 608h-350l16 77h483z" />
    <glyph glyph-name="Eta" unicode="&#x397;" horiz-adv-x="729" 
d="M635 700h84l-140 -700h-84l65 323h-369l-65 -323h-83l140 700h83l-60 -301h369z" />
    <glyph glyph-name="Theta" unicode="&#x398;" horiz-adv-x="829" 
d="M365 -12q-138 0 -222 84.5t-84 214.5q0 86 33.5 164.5t91 135.5t139 91t173.5 34q137 0 221.5 -84.5t84.5 -215.5q0 -68 -21 -132.5t-60.5 -117t-93 -91.5t-121 -61t-141.5 -22zM378 69q96 0 174.5 47t121.5 124t43 166q0 100 -64 162.5t-170 62.5q-96 0 -174.5 -47
t-121.5 -124t-43 -165q0 -100 64 -163t170 -63zM227 310l15 80h389l-16 -80h-388z" />
    <glyph glyph-name="Iota" unicode="&#x399;" horiz-adv-x="277" 
d="M43 0l140 700h83l-140 -700h-83z" />
    <glyph glyph-name="Kappa" unicode="&#x39a;" horiz-adv-x="628" 
d="M693 700l-326 -345l209 -355h-98l-190 323h-97l-65 -323h-83l140 700h83l-60 -299h95l280 299h112z" />
    <glyph glyph-name="Lambda" unicode="&#x39b;" horiz-adv-x="667" 
d="M596 0h-86l-110 579l-339 -579h-93l414 700h78z" />
    <glyph glyph-name="Mu" unicode="&#x39c;" horiz-adv-x="955" 
d="M797 700h83l-24 -700h-81l18 553l-350 -534h-23l-137 534l-204 -553h-88l258 700h79l130 -521z" />
    <glyph glyph-name="Nu" unicode="&#x39d;" horiz-adv-x="749" 
d="M654 700h85l-140 -700h-69l-293 552l-110 -552h-84l140 700h74l288 -547z" />
    <glyph glyph-name="Xi" unicode="&#x39e;" horiz-adv-x="568" 
d="M130 623l17 79h448l-16 -79h-449zM110 320l16 80h371l-17 -80h-370zM-1 2l16 81h464l-17 -81h-463z" />
    <glyph glyph-name="Omicron" unicode="&#x39f;" horiz-adv-x="829" 
d="M365 -12q-138 0 -222 84.5t-84 214.5q0 86 33.5 164.5t91 135.5t139 91t173.5 34q137 0 221.5 -84.5t84.5 -215.5q0 -68 -21 -132.5t-60.5 -117t-93 -91.5t-121 -61t-141.5 -22zM378 69q96 0 174 46.5t121.5 124t43.5 166.5q0 100 -64 162.5t-170 62.5
q-96 0 -174.5 -46.5t-121.5 -123.5t-43 -166q0 -100 64 -163t170 -63z" />
    <glyph glyph-name="Pi" unicode="&#x3a0;" horiz-adv-x="701" 
d="M183 700h507l-140 -700h-84l125 623h-340l-125 -623h-83z" />
    <glyph glyph-name="Rho" unicode="&#x3a1;" horiz-adv-x="609" 
d="M426 700q87 0 142 -52t55 -133q0 -42 -14 -82t-39.5 -72t-59 -56.5t-75 -37.5t-85.5 -13h-173l-51 -254h-83l140 700h243zM352 333q50 0 92.5 24.5t68 65.5t25.5 88q0 50 -33.5 80t-90.5 30h-163l-58 -288h159z" />
    <glyph glyph-name="Sigma" unicode="&#x3a3;" horiz-adv-x="558" 
d="M601 700l-16 -78h-350l148 -255l-4 -19l-240 -270h347l-16 -78h-502l4 20l313 352l-175 308l4 20h487z" />
    <glyph glyph-name="Tau" unicode="&#x3a4;" horiz-adv-x="548" 
d="M614 700l-16 -77h-214l-125 -623h-83l124 623h-214l16 77h512z" />
    <glyph glyph-name="Upsilon" unicode="&#x3a5;" horiz-adv-x="654" 
d="M716 700l-344 -421l-56 -279h-86l56 279l-173 421h86l140 -342l280 342h97z" />
    <glyph glyph-name="Phi" unicode="&#x3a6;" horiz-adv-x="809" 
d="M785 400q0 -99 -51.5 -183t-140 -133.5t-194.5 -53.5l-16 -81h-84l17 82q-123 10 -191 86.5t-68 184.5q0 101 51 184.5t139.5 133t196.5 53.5l15 75h83l-14 -75q119 -7 188 -84.5t69 -188.5zM332 108l98 489q-118 -7 -203 -96t-85 -202q0 -82 51 -135t139 -56zM414 108
q119 5 203 93t84 203q0 82 -50.5 135.5t-138.5 56.5z" />
    <glyph glyph-name="Chi" unicode="&#x3a7;" horiz-adv-x="598" 
d="M657 700l-286 -336l166 -364h-90l-136 298l-253 -298h-103l312 367l-153 333h90l123 -269l230 269h100z" />
    <glyph glyph-name="Psi" unicode="&#x3a8;" horiz-adv-x="796" 
d="M744 700h84l-49 -247q-26 -128 -117.5 -203.5t-222.5 -75.5h-21l-35 -174h-84l34 174h-3q-112 0 -179.5 64.5t-67.5 167.5q0 10 0.5 18.5t2 21.5t3.5 24t7 36t9 46t13 64.5t17 83.5h83q-8 -38 -16.5 -81t-12.5 -63.5t-9 -44.5t-6.5 -34.5t-3.5 -23.5t-2.5 -20t-0.5 -16
q0 -73 45.5 -115t126.5 -42h13l89 440h81l-89 -440h13q97 0 165 57t88 155z" />
    <glyph glyph-name="uni03A9" unicode="&#x3a9;" horiz-adv-x="862" 
d="M815 418q0 -69 -24 -133t-67.5 -116.5t-103.5 -91.5h138l-16 -77h-311l15 75q122 32 203.5 128.5t81.5 212.5q0 46 -17 86t-47.5 68t-74 44.5t-94.5 16.5q-89 0 -167 -46t-124 -122t-46 -160q0 -81 44 -142.5t122 -85.5l-15 -75h-311l15 77h160q-100 91 -100 226
q0 110 57.5 204.5t156 149.5t213.5 55q136 0 224 -84t88 -210z" />
    <glyph glyph-name="Iotadieresis" unicode="&#x3aa;" horiz-adv-x="277" 
d="M133 798l18 86h89l-17 -86h-90zM265 798l18 86h89l-17 -86h-90zM43 0l140 700h83l-140 -700h-83z" />
    <glyph glyph-name="Upsilondieresis" unicode="&#x3ab;" horiz-adv-x="654" 
d="M381 893l-19 -94h-93l18 94h94zM597 893l-18 -94h-94l18 94h94zM716 700l-344 -421l-56 -279h-86l56 279l-173 421h86l140 -342l280 342h97z" />
    <glyph glyph-name="alphatonos" unicode="&#x3ac;" horiz-adv-x="698" 
d="M544 756l-121 -152h-64l98 152h87zM601 540h64l-108 -540h-67l8 79q-95 -91 -226 -91q-104 0 -168.5 65t-64.5 166q0 53 16.5 103t47.5 91.5t71.5 72.5t91.5 48.5t105 17.5q68 0 119.5 -28t80.5 -77zM287 66q99 0 172.5 76t73.5 176q0 71 -45 113.5t-120 42.5
q-65 0 -122.5 -35t-91 -93t-33.5 -123q0 -46 20.5 -82t58 -55.5t87.5 -19.5z" />
    <glyph glyph-name="epsilontonos" unicode="&#x3ad;" horiz-adv-x="486" 
d="M453 756l-121 -152h-64l99 152h86zM215 62q52 0 90.5 23t52.5 62h77q-14 -72 -75.5 -115.5t-147.5 -43.5q-82 0 -133.5 42.5t-51.5 107.5q0 50 27.5 90t76.5 61q-44 33 -44 94q0 77 60 123t151 46q52 0 91 -18.5t60 -51t21 -76.5h-73q1 24 -11 42t-34.5 27.5t-52.5 9.5
q-59 0 -97 -29t-38 -76q0 -29 21.5 -47t58.5 -18h81l-12 -61h-81q-52 0 -89 -32.5t-37 -78.5q0 -25 13.5 -43t38 -28t57.5 -10z" />
    <glyph glyph-name="etatonos" unicode="&#x3ae;" horiz-adv-x="642" 
d="M547 756l-121 -152h-64l98 152h87zM412 552q54 0 92 -20t58 -57.5t20 -89.5q0 -22 -6 -57.5t-39 -194.5q-37 -183 -65 -326h-81q22 113 54 270q37 181 44 220.5t7 60.5q0 56 -30.5 85.5t-89.5 29.5q-70 0 -127.5 -49.5t-73.5 -122.5l-60 -301h-81l108 540h57l-1 -87
q19 23 43 41.5t51 31t57.5 19.5t62.5 7z" />
    <glyph glyph-name="iotatonos" unicode="&#x3af;" horiz-adv-x="338" 
d="M145 604l98 152h86l-120 -152h-64zM216 -3q-74 0 -116.5 38t-42.5 103q0 21 43 235q20 100 34 167h81q-16 -76 -37 -184q-27 -131 -32 -160.5t-5 -41.5q0 -39 24 -60t70 -21h57l-16 -76h-60z" />
    <glyph glyph-name="upsilondieresistonos" unicode="&#x3b0;" horiz-adv-x="631" 
d="M326 604l79 152h77l-94 -152h-62zM224 648l14 72h78l-15 -72h-77zM493 648l14 72h78l-14 -72h-78zM268 -12q-94 0 -149 51t-56 137q0 6 0.5 11.5t1 11.5t2 15.5t3 18.5t5 26t6.5 33t9 44t11 54t13.5 68t16.5 82h81q-16 -83 -37 -190q-20 -98 -24 -121.5t-4 -39.5
q0 -39 15 -66.5t43.5 -42t69.5 -14.5q74 0 125.5 46.5t67.5 125.5l60 302h81l-64 -317q-22 -109 -95 -172t-182 -63z" />
    <glyph glyph-name="alpha" unicode="&#x3b1;" horiz-adv-x="698" 
d="M601 540h64l-108 -540h-67l8 79q-95 -91 -226 -91q-104 0 -168.5 65t-64.5 166q0 53 16.5 103t47.5 91.5t71.5 72.5t91.5 48.5t105 17.5q68 0 119.5 -28t80.5 -77zM287 66q99 0 172.5 76t73.5 176q0 71 -45 113.5t-120 42.5q-65 0 -122.5 -35t-91 -93t-33.5 -123
q0 -46 20.5 -82t58 -55.5t87.5 -19.5z" />
    <glyph glyph-name="beta" unicode="&#x3b2;" horiz-adv-x="623" 
d="M488 375q80 -36 80 -135q0 -111 -80 -181.5t-199 -70.5q-99 0 -169 44l-43 -214h-81l131 655q54 271 282 271q89 0 144.5 -48.5t55.5 -122.5q0 -40 -15 -78.5t-42.5 -70t-63.5 -49.5zM284 66q57 0 104 21.5t74.5 61t27.5 88.5q0 48 -33.5 77t-89.5 29h-103l14 73h100
q66 0 112.5 43t46.5 106q0 48 -34.5 76.5t-93.5 28.5q-79 0 -131 -53t-72 -153l-71 -355q62 -43 149 -43z" />
    <glyph glyph-name="gamma" unicode="&#x3b3;" horiz-adv-x="565" 
d="M602 540l-325 -513l-44 -217h-79l43 216l-128 514h82l100 -413l260 413h91z" />
    <glyph glyph-name="delta" unicode="&#x3b4;" horiz-adv-x="609" 
d="M621 710l-14 -71h-304q114 -56 188 -149.5t74 -199.5q1 -126 -86.5 -214t-217.5 -88q-99 0 -162.5 61.5t-63.5 154.5q0 75 38.5 142.5t105 108t142.5 40.5q53 0 91 -18q-96 104 -273 160l15 73h467zM265 63q92 0 157.5 66.5t65.5 153.5q0 64 -41.5 104t-109.5 40
q-92 0 -157.5 -66.5t-65.5 -154.5q0 -42 18 -74t52.5 -50.5t80.5 -18.5z" />
    <glyph glyph-name="epsilon" unicode="&#x3b5;" horiz-adv-x="486" 
d="M215 62q52 0 90.5 23t52.5 62h77q-14 -72 -75.5 -115.5t-147.5 -43.5q-82 0 -133.5 42.5t-51.5 107.5q0 50 27.5 90t76.5 61q-44 33 -44 94q0 77 60 123t151 46q52 0 91 -18.5t60 -51t21 -76.5h-73q1 24 -11 42t-34.5 27.5t-52.5 9.5q-59 0 -97 -29t-38 -76
q0 -29 21.5 -47t58.5 -18h81l-12 -61h-81q-52 0 -89 -32.5t-37 -78.5q0 -25 13.5 -43t38 -28t57.5 -10z" />
    <glyph glyph-name="zeta" unicode="&#x3b6;" horiz-adv-x="505" 
d="M583 673q-239 -158 -353.5 -268t-114.5 -201q0 -37 22 -63.5t55 -40.5t71 -29t71 -29t55 -41.5t22 -64.5q0 -17 -5.5 -42t-14 -47t-17.5 -40h-79q12 22 21.5 51.5t9.5 46.5q0 24 -16.5 43t-42.5 31.5t-57.5 24.5t-63 27t-57.5 33.5t-42.5 49.5t-16.5 71q0 51 23 103.5
t57 96.5t90 95t105 88.5t119 87.5h-276l16 77h431z" />
    <glyph glyph-name="eta" unicode="&#x3b7;" horiz-adv-x="642" 
d="M412 552q54 0 92 -20t58 -57.5t20 -89.5q0 -22 -6 -57.5t-39 -194.5q-37 -183 -65 -326h-81q22 113 54 270q37 181 44 220.5t7 60.5q0 56 -30.5 85.5t-89.5 29.5q-70 0 -127.5 -49.5t-73.5 -122.5l-60 -301h-81l108 540h57l-1 -87q19 23 43 41.5t51 31t57.5 19.5t62.5 7z
" />
    <glyph glyph-name="theta" unicode="&#x3b8;" horiz-adv-x="696" 
d="M431 738q75 0 129.5 -35t81 -97.5t26.5 -144.5q0 -90 -26.5 -175t-73.5 -151t-117.5 -106.5t-152.5 -40.5q-76 0 -130 36t-80.5 97.5t-26.5 143.5q0 90 26.5 175t73 151.5t117.5 106.5t153 40zM423 661q-94 0 -163 -73.5t-99 -185.5h423q3 31 3 62q0 26 -3.5 50
t-10.5 43.5t-17.5 36t-24 29t-30 21t-36.5 13t-42 4.5zM305 66q94 0 163.5 74t100.5 186h-423q-4 -32 -4 -63q0 -62 19 -106t55.5 -67.5t88.5 -23.5z" />
    <glyph glyph-name="iota" unicode="&#x3b9;" horiz-adv-x="338" 
d="M216 -3q-74 0 -116.5 38t-42.5 103q0 21 43 235q20 100 34 167h81q-16 -76 -37 -184q-27 -131 -32 -160.5t-5 -41.5q0 -39 24 -60t70 -21h57l-16 -76h-60z" />
    <glyph glyph-name="kappa" unicode="&#x3ba;" horiz-adv-x="536" 
d="M572 540l-251 -259l162 -281h-91l-141 244h-88l-48 -244h-81l108 540h81l-45 -221h73l215 221h106z" />
    <glyph glyph-name="lambda" unicode="&#x3bb;" horiz-adv-x="563" 
d="M488 0h-84l-85 407l-269 -407h-93l338 509l-10 40q-15 55 -33 71t-61 16h-30l14 76h37q44 0 74 -17.5t48.5 -52t30.5 -91.5z" />
    <glyph glyph-name="uni03BC" unicode="&#x3bc;" horiz-adv-x="650" 
d="M537 540h81l-108 -540h-55l2 87q-40 -43 -95.5 -70.5t-109.5 -27.5q-91 0 -132 46l-46 -228h-79l147 733h81q-10 -49 -20 -99t-16 -78.5l-12 -57t-8.5 -43l-5 -29t-3.5 -23t-1.5 -15.5t-0.5 -15q0 -55 28.5 -83.5t85.5 -28.5q70 0 131 50.5t76 121.5z" />
    <glyph glyph-name="nu" unicode="&#x3bd;" horiz-adv-x="569" 
d="M519 540h86l-336 -540h-74l-126 540h81l99 -435z" />
    <glyph glyph-name="xi" unicode="&#x3be;" horiz-adv-x="516" 
d="M373 739q89 0 146 -55t48 -133h-79q0 37 -15 63.5t-42 39t-63 12.5q-70 0 -119 -43t-49 -105q0 -42 27.5 -67.5t73.5 -25.5h98l-15 -73h-99q-45 0 -84 -23.5t-61.5 -61.5t-22.5 -81q0 -21 9.5 -39.5t20.5 -29.5t34.5 -23.5t37.5 -18t43 -15.5q24 -9 36.5 -14t33 -14
t31 -18t22.5 -21t17 -27.5t5 -33.5q0 -49 -37 -125h-82q11 22 20.5 52t9.5 45q0 27 -24.5 46t-87.5 41q-90 30 -133 73t-43 106q0 75 42 134.5t113 85.5q-34 18 -52.5 52t-18.5 75q0 65 35 116t93.5 78.5t130.5 27.5z" />
    <glyph glyph-name="omicron" unicode="&#x3bf;" horiz-adv-x="656" 
d="M278 -12q-107 0 -173 65t-66 167q0 89 45.5 165.5t123.5 121.5t170 45q71 0 125.5 -30t84 -82.5t29.5 -119.5q0 -89 -45.5 -165.5t-124 -121.5t-169.5 -45zM287 66q102 0 174.5 75t72.5 177q0 71 -45 113.5t-121 42.5q-101 0 -174 -74.5t-73 -177.5q0 -71 45.5 -113.5
t120.5 -42.5z" />
    <glyph glyph-name="pi" unicode="&#x3c0;" horiz-adv-x="631" 
d="M142 540h456l-108 -540h-80l94 467h-296l-93 -467h-81z" />
    <glyph glyph-name="rho" unicode="&#x3c1;" horiz-adv-x="671" 
d="M402 551q103 0 167 -65.5t64 -164.5q0 -88 -44 -164.5t-120.5 -122.5t-165.5 -46q-58 0 -108 26t-78 66l-55 -273h-82l94 466q25 125 115 201.5t213 76.5zM309 66q101 0 172 76t71 175q0 70 -43.5 113t-117.5 43q-67 0 -123.5 -35.5t-88 -93t-31.5 -121.5
q0 -70 44 -113.5t117 -43.5z" />
    <glyph glyph-name="uni03C2" unicode="&#x3c2;" horiz-adv-x="595" 
d="M359 -193q30 64 30 98q0 16 -7.5 29t-17.5 21.5t-31 17.5t-34.5 13.5t-42.5 12.5q-37 11 -61.5 20t-56.5 27t-51 39t-32.5 55.5t-13.5 77.5q0 141 95 237t238 96q94 0 155.5 -51.5t73.5 -140.5h-80q-15 55 -56.5 84.5t-102.5 29.5q-100 0 -170 -71t-70 -168
q0 -23 6 -42.5t14 -33.5t25 -26.5t29 -20t36 -16.5t36.5 -13t39.5 -12q35 -11 61.5 -22t51 -27.5t38 -38.5t13.5 -49q0 -15 -6.5 -39.5t-14.5 -46.5t-17 -40h-77z" />
    <glyph glyph-name="sigma" unicode="&#x3c3;" horiz-adv-x="689" 
d="M722 542l-15 -74h-163q30 -27 46.5 -68.5t16.5 -89.5q0 -87 -44.5 -161.5t-121.5 -117.5t-168 -43q-69 0 -122.5 30t-82.5 82t-29 117q0 137 97.5 231t237.5 94h348zM283 66q102 0 173 73t71 174q0 69 -44 112t-119 43q-102 0 -172.5 -73.5t-70.5 -172.5q0 -71 44 -113.5
t118 -42.5z" />
    <glyph glyph-name="tau" unicode="&#x3c4;" horiz-adv-x="477" 
d="M478 467h-178q-8 -43 -22 -110q-37 -186 -37 -203q0 -39 24.5 -60t70.5 -21h56l-15 -76h-60q-74 0 -117 38t-43 103q0 21 43 236q12 58 19 93h-171l15 73h430z" />
    <glyph glyph-name="upsilon" unicode="&#x3c5;" horiz-adv-x="631" 
d="M268 -12q-94 0 -149 51t-56 137q0 6 0.5 11.5t1 11.5t2 15.5t3 18.5t5 26t6.5 33t9 44t11 54t13.5 68t16.5 82h81q-16 -83 -37 -190q-20 -98 -24 -121.5t-4 -39.5q0 -39 15 -66.5t43.5 -42t69.5 -14.5q74 0 125.5 46.5t67.5 125.5l60 302h81l-64 -317q-22 -109 -95 -172
t-182 -63z" />
    <glyph glyph-name="phi" unicode="&#x3c6;" horiz-adv-x="733" 
d="M694 316q0 -139 -97.5 -231t-245.5 -96l-36 -182h-80l37 182q-102 4 -167.5 69.5t-65.5 162.5q0 110 71 197.5t183 120.5l9 -69q-54 -19 -95.5 -57t-64 -86.5t-22.5 -100.5q0 -69 45.5 -112t122.5 -46l94 472h67q109 0 177 -62.5t68 -161.5zM365 68q104 4 175.5 73.5
t71.5 166.5q0 45 -20.5 79t-58.5 53.5t-89 21.5z" />
    <glyph glyph-name="chi" unicode="&#x3c7;" horiz-adv-x="510" 
d="M543 540l-238 -261l145 -279h-86l-113 220l-198 -220h-99l255 281l-130 259h86l101 -202l180 202h97z" />
    <glyph glyph-name="psi" unicode="&#x3c8;" horiz-adv-x="785" 
d="M684 540h81l-59 -292q-23 -117 -107 -188t-199 -71h-21l-36 -182h-87l37 182h-9q-97 0 -156.5 60.5t-59.5 155.5q0 8 0.5 15.5t1 15.5t3 21.5l5 27t8 40.5t10.5 52.5t14.5 71.5t18.5 91h81q-9 -47 -24 -121q-25 -123 -30.5 -153.5t-5.5 -49.5q0 -43 18 -77t52 -53t78 -19
h15l94 472h80l-94 -472h14q79 0 141.5 54.5t79.5 137.5z" />
    <glyph glyph-name="omega" unicode="&#x3c9;" horiz-adv-x="884" 
d="M823 540q16 -69 16 -149q0 -62 -10 -120t-30.5 -109.5t-50.5 -89.5t-73.5 -60.5t-95.5 -22.5q-70 0 -113.5 32t-51.5 85q-29 -53 -85.5 -85t-125.5 -32q-76 0 -117.5 51.5t-41.5 141.5q0 160 123 358h85q-53 -79 -89 -173t-36 -169q0 -63 26 -97.5t74 -34.5
q60 0 106 41.5t59 104.5l36 184h75q-5 -24 -10 -49.5t-8 -41t-6.5 -32.5t-5 -26t-3.5 -19l-3 -15t-1.5 -10.5t-1 -9t-0.5 -6.5v-7q0 -51 30 -83t80 -32q46 0 82.5 29t58 76.5t32.5 102.5t11 113q0 79 -20 154h85z" />
    <glyph glyph-name="iotadieresis" unicode="&#x3ca;" horiz-adv-x="338" 
d="M46 636l19 94h94l-19 -94h-94zM241 636l19 94h94l-19 -94h-94zM216 -3q-74 0 -116.5 38t-42.5 103q0 21 43 235q20 100 34 167h81q-16 -76 -37 -184q-27 -131 -32 -160.5t-5 -41.5q0 -39 24 -60t70 -21h57l-16 -76h-60z" />
    <glyph glyph-name="upsilondieresis" unicode="&#x3cb;" horiz-adv-x="631" 
d="M239 636l19 94h94l-19 -94h-94zM434 636l19 94h94l-19 -94h-94zM268 -12q-94 0 -149 51t-56 137q0 6 0.5 11.5t1 11.5t2 15.5t3 18.5t5 26t6.5 33t9 44t11 54t13.5 68t16.5 82h81q-16 -83 -37 -190q-20 -98 -24 -121.5t-4 -39.5q0 -39 15 -66.5t43.5 -42t69.5 -14.5
q74 0 125.5 46.5t67.5 125.5l60 302h81l-64 -317q-22 -109 -95 -172t-182 -63z" />
    <glyph glyph-name="omicrontonos" unicode="&#x3cc;" horiz-adv-x="656" 
d="M351 604l98 152h86l-120 -152h-64zM278 -12q-71 0 -125.5 30t-84 82.5t-29.5 119.5q0 89 45.5 165.5t123.5 121.5t170 45q71 0 125.5 -30t84 -82.5t29.5 -119.5q0 -89 -45.5 -165.5t-124 -121.5t-169.5 -45zM287 66q102 0 174.5 75t72.5 177q0 71 -45 113.5t-121 42.5
q-101 0 -174 -74.5t-73 -177.5q0 -71 45.5 -113.5t120.5 -42.5z" />
    <glyph glyph-name="upsilontonos" unicode="&#x3cd;" horiz-adv-x="631" 
d="M338 604l98 152h87l-121 -152h-64zM268 -12q-94 0 -149 51t-56 137q0 6 0.5 11.5t1 11.5t2 15.5t3 18.5t5 26t6.5 33t9 44t11 54t13.5 68t16.5 82h81q-16 -83 -37 -190q-20 -98 -24 -121.5t-4 -39.5q0 -39 15 -66.5t43.5 -42t69.5 -14.5q74 0 125.5 46.5t67.5 125.5
l60 302h81l-64 -317q-22 -109 -95 -172t-182 -63z" />
    <glyph glyph-name="omegatonos" unicode="&#x3ce;" horiz-adv-x="884" 
d="M652 756l-121 -152h-64l98 152h87zM823 540q16 -69 16 -149q0 -62 -10 -120t-30.5 -109.5t-50.5 -89.5t-73.5 -60.5t-95.5 -22.5q-70 0 -113.5 32t-51.5 85q-19 -35 -50.5 -61t-73 -41t-87.5 -15q-50 0 -86 23.5t-54.5 67t-18.5 102.5q0 160 123 358h85
q-34 -51 -61.5 -108.5t-45.5 -120.5t-18 -113q0 -63 26 -97.5t74 -34.5q60 0 106 41.5t59 104.5l36 184h75q-5 -24 -10 -49.5t-8 -41t-6.5 -32.5t-5 -26t-3.5 -19l-3 -15t-1.5 -10.5t-1 -9t-0.5 -6.5v-7q0 -51 30 -83t80 -32q46 0 82.5 29t58 76.5t32.5 102.5t11 113
q0 79 -20 154h85z" />
    <glyph glyph-name="uni0401" unicode="&#x401;" horiz-adv-x="550" 
d="M361 890l-19 -94h-94l20 94h93zM556 890l-19 -94h-94l19 94h94zM562 622h-311l-45 -224h286l-16 -76h-285l-49 -243h322l-16 -79h-405l140 700h394z" />
    <glyph glyph-name="uni0402" unicode="&#x402;" horiz-adv-x="733" 
d="M492 472q37 0 68.5 -9.5t55.5 -26t41.5 -40.5t26 -54t8.5 -64q0 -124 -83.5 -205.5t-213.5 -81.5h-7l17 82h6q57 0 102.5 27t70.5 71.5t25 96.5q0 55 -35.5 88.5t-98.5 33.5q-27 0 -54 -7.5t-52.5 -21t-46.5 -32.5l-66 -329h-84l125 622h-210l15 78h507l-16 -78h-213
l-39 -197q72 47 151 47z" />
    <glyph glyph-name="uni0403" unicode="&#x403;" horiz-adv-x="493" 
d="M507 921l-124 -142h-64l102 142h86zM557 700l-16 -73h-289l-126 -627h-83l140 700h374z" />
    <glyph glyph-name="uni0404" unicode="&#x404;" horiz-adv-x="779" 
d="M367 69q92 0 168 46.5t122 129.5h85q-30 -78 -88.5 -136.5t-134.5 -89.5t-160 -31q-135 0 -218 84t-83 214q0 85 34 163.5t91.5 136t137 92t167.5 34.5q83 0 146 -31t100 -86t47 -129h-84q-17 78 -74 121.5t-143 43.5q-111 0 -199 -68t-122 -172h341l-16 -77h-340
q-1 -13 -1 -26q0 -98 61 -158.5t163 -60.5z" />
    <glyph glyph-name="uni0405" unicode="&#x405;" horiz-adv-x="595" 
d="M247 -11q-101 0 -159 46.5t-58 131.5q0 25 4 48h85q-3 -16 -3 -30q0 -55 41 -85t105 -30q77 0 132.5 42.5t55.5 105.5q0 20 -8.5 35.5t-21 25.5t-35 19t-40.5 14.5t-47 12.5q-35 8 -56 14.5t-50.5 19t-46 27.5t-28.5 39t-12 54q0 106 79 169t200 63q93 0 144.5 -43
t51.5 -118q0 -20 -5 -48h-82q3 15 3 29q0 47 -35.5 74t-93.5 27q-48 0 -88.5 -16.5t-64.5 -47t-24 -69.5q0 -17 8.5 -31.5t20.5 -24t34 -18.5t39 -13.5t46 -11.5q27 -7 42 -11t39 -12.5t38 -16t31.5 -20t27 -26.5t16 -34t6.5 -43q0 -110 -84 -179t-207 -69z" />
    <glyph glyph-name="uni0406" unicode="&#x406;" horiz-adv-x="277" 
d="M43 0l140 700h83l-140 -700h-83z" />
    <glyph glyph-name="uni0407" unicode="&#x407;" horiz-adv-x="277" 
d="M133 798l18 86h89l-17 -86h-90zM265 798l18 86h89l-17 -86h-90zM43 0l140 700h83l-140 -700h-83z" />
    <glyph glyph-name="uni0408" unicode="&#x408;" horiz-adv-x="593" 
d="M217 -12q-93 0 -148.5 53t-55.5 142q0 25 7 62h81q-5 -28 -5 -48q0 -59 33.5 -93.5t92.5 -34.5q68 0 122.5 49t68.5 122l92 460h84l-93 -475q-21 -106 -97.5 -171.5t-181.5 -65.5z" />
    <glyph glyph-name="uni0409" unicode="&#x409;" horiz-adv-x="1079" 
d="M845 449q89 0 143.5 -53t54.5 -135q0 -111 -78.5 -186t-195.5 -75h-262l124 623h-269l-115 -405q-62 -219 -252 -219h-28l16 83h27q113 0 151 134l139 484h365h65l-50 -251h165zM771 78q52 0 95 24.5t68 65.5t25 88q0 52 -35 83.5t-94 31.5h-166l-58 -293h165z" />
    <glyph glyph-name="uni040A" unicode="&#x40a;" horiz-adv-x="1012" 
d="M780 418q89 0 141.5 -48.5t52.5 -124.5q0 -108 -74 -176.5t-190 -68.5h-259l67 335h-325l-67 -335h-83l140 700h83l-57 -288h325l57 288h84l-56 -282h161zM715 78q39 0 71.5 12t55 33.5t35.5 51.5t13 64q0 48 -32 74.5t-90 26.5h-165l-53 -262h165z" />
    <glyph glyph-name="uni040B" unicode="&#x40b;" horiz-adv-x="751" 
d="M504 459q90 0 143 -48.5t53 -136.5q0 -10 -0.5 -18t-2.5 -21t-3.5 -23t-6.5 -34t-8.5 -42.5t-12 -60t-15.5 -75.5h-84q7 34 14.5 71.5t11.5 57t8 41t6 32t3.5 22.5t2 19t0.5 15q0 61 -35 91.5t-100 30.5q-62 0 -148 -29l-71 -351h-83l124 623h-214l16 77h511l-15 -77
h-214l-39 -193q86 29 159 29z" />
    <glyph glyph-name="uni040E" unicode="&#x40e;" horiz-adv-x="606" 
d="M539 826l-12 -64h-283l12 64h283zM575 700h100l-317 -494q-56 -87 -98 -131t-86 -60.5t-110 -16.5h-37l15 78h40q58 0 92.5 24t86.5 99l-167 501h89l137 -411z" />
    <glyph glyph-name="uni040F" unicode="&#x40f;" horiz-adv-x="720" 
d="M709 700l-140 -700h-223l-28 -141h-82l28 141h-221l140 700h83l-124 -623h358l125 623h84z" />
    <glyph glyph-name="uni0410" unicode="&#x410;" horiz-adv-x="696" 
d="M539 0l-37 170h-339l-104 -170h-93l427 700h78l155 -700h-87zM411 586l-205 -342h279z" />
    <glyph glyph-name="uni0411" unicode="&#x411;" horiz-adv-x="613" 
d="M594 622h-343l-38 -191h163q43 0 78.5 -13t60.5 -36.5t38.5 -56.5t13.5 -72q0 -105 -77 -179t-188 -74h-259l140 700h427zM362 351h-165l-55 -271h164q74 0 125 49t51 116q0 48 -32.5 77t-87.5 29z" />
    <glyph glyph-name="uni0412" unicode="&#x412;" horiz-adv-x="648" 
d="M500 359q36 -17 55.5 -52t19.5 -80q0 -96 -72.5 -161.5t-175.5 -65.5h-285l141 700h272q49 0 87 -20t58.5 -54.5t20.5 -77.5q0 -57 -35 -110t-86 -79zM531 533q0 39 -26 63.5t-67 24.5h-189l-44 -221h191q53 0 94 40t41 93zM334 80q64 0 108 43.5t44 102.5q0 21 -7 39
t-20.5 31t-33 20.5t-42.5 7.5h-193l-49 -244h193z" />
    <glyph glyph-name="uni0413" unicode="&#x413;" horiz-adv-x="493" 
d="M557 700l-16 -73h-289l-126 -627h-83l140 700h374z" />
    <glyph glyph-name="uni0414" unicode="&#x414;" horiz-adv-x="757" 
d="M728 700l-126 -623h74l-43 -216h-77l27 139h-534l-28 -139h-77l43 216h52q25 13 43.5 34.5t38 57.5t44.5 110.5t53 167t74 253.5h436zM354 624q-83 -300 -123 -405t-89 -142h376l110 547h-274z" />
    <glyph glyph-name="uni0415" unicode="&#x415;" horiz-adv-x="550" 
d="M562 622h-311l-45 -224h286l-16 -76h-285l-49 -243h322l-16 -79h-405l140 700h394z" />
    <glyph glyph-name="uni0416" unicode="&#x416;" horiz-adv-x="951" 
d="M1013 700l-315 -345l198 -355h-98l-180 323h-89l-65 -323h-83l64 323h-78l-305 -323h-114l345 364l-179 336h94l160 -299h93l60 299h83l-60 -299h87l271 299h111z" />
    <glyph glyph-name="uni0417" unicode="&#x417;" horiz-adv-x="575" 
d="M436 367q33 -19 51 -55t18 -80q0 -70 -37.5 -126t-100.5 -86.5t-138 -30.5q-45 0 -82.5 12.5t-64 36t-41 57.5t-15.5 76q0 16 1 24h80q-2 -13 -2 -19q0 -47 37.5 -77.5t93.5 -30.5q80 0 133.5 46t53.5 116q0 29 -13.5 52.5t-39 36t-58.5 12.5h-83l15 73h82q60 0 102.5 41
t42.5 97q0 42 -33 68t-89 26q-57 0 -102.5 -31t-62.5 -81h-82q19 82 90.5 135t163.5 53q88 0 142 -45.5t54 -116.5q0 -36 -14.5 -72t-41 -64.5t-60.5 -46.5z" />
    <glyph glyph-name="uni0418" unicode="&#x418;" horiz-adv-x="738" 
d="M667 700h61l-140 -700h-84l106 530l-509 -530h-58l140 700h83l-105 -525z" />
    <glyph glyph-name="uni0419" unicode="&#x419;" horiz-adv-x="738" 
d="M620 826l-13 -64h-283l13 64h283zM667 700h61l-140 -700h-84l106 530l-509 -530h-58l140 700h83l-105 -525z" />
    <glyph glyph-name="uni041A" unicode="&#x41a;" horiz-adv-x="628" 
d="M693 700l-326 -345l209 -355h-98l-190 323h-97l-65 -323h-83l140 700h83l-60 -299h95l280 299h112z" />
    <glyph glyph-name="uni041B" unicode="&#x41b;" horiz-adv-x="741" 
d="M299 700h431l-140 -700h-83l124 623h-269l-117 -404q-32 -113 -93.5 -166.5t-157.5 -53.5h-27l16 83h27q110 0 156 156z" />
    <glyph glyph-name="uni041C" unicode="&#x41c;" horiz-adv-x="955" 
d="M797 700h83l-24 -700h-81l18 553l-350 -534h-23l-137 534l-204 -553h-88l258 700h79l130 -521z" />
    <glyph glyph-name="uni041D" unicode="&#x41d;" horiz-adv-x="729" 
d="M635 700h84l-140 -700h-84l65 323h-369l-65 -323h-83l140 700h83l-60 -301h369z" />
    <glyph glyph-name="uni041E" unicode="&#x41e;" horiz-adv-x="829" 
d="M365 -12q-138 0 -222 84.5t-84 214.5q0 86 33.5 164.5t91 135.5t139 91t173.5 34q137 0 221.5 -84.5t84.5 -215.5q0 -68 -21 -132.5t-60.5 -117t-93 -91.5t-121 -61t-141.5 -22zM378 69q96 0 174 46.5t121.5 124t43.5 166.5q0 100 -64 162.5t-170 62.5
q-96 0 -174.5 -46.5t-121.5 -123.5t-43 -166q0 -100 64 -163t170 -63z" />
    <glyph glyph-name="uni041F" unicode="&#x41f;" horiz-adv-x="701" 
d="M183 700h507l-140 -700h-84l125 623h-340l-125 -623h-83z" />
    <glyph glyph-name="uni0420" unicode="&#x420;" horiz-adv-x="609" 
d="M426 700q87 0 142 -52t55 -133q0 -42 -14 -82t-39.5 -72t-59 -56.5t-75 -37.5t-85.5 -13h-173l-51 -254h-83l140 700h243zM352 333q50 0 92.5 24.5t68 65.5t25.5 88q0 50 -33.5 80t-90.5 30h-163l-58 -288h159z" />
    <glyph glyph-name="uni0421" unicode="&#x421;" horiz-adv-x="775" 
d="M355 -11q-136 0 -216.5 79t-80.5 206q0 87 34 168t92 140t138.5 94t169.5 35q117 0 196 -67t88 -179h-84q-12 78 -66 121.5t-140 43.5q-93 0 -172.5 -48t-125.5 -128.5t-46 -172.5q0 -98 58 -154.5t161 -56.5q92 0 169 46.5t119 128.5h89q-52 -122 -154 -189t-229 -67z
" />
    <glyph glyph-name="uni0422" unicode="&#x422;" horiz-adv-x="548" 
d="M614 700l-16 -77h-214l-125 -623h-83l124 623h-214l16 77h512z" />
    <glyph glyph-name="uni0423" unicode="&#x423;" horiz-adv-x="606" 
d="M575 700h100l-317 -494q-56 -87 -98 -131t-86 -60.5t-110 -16.5h-37l15 78h40q58 0 92.5 24t86.5 99l-167 501h89l137 -411z" />
    <glyph glyph-name="uni0424" unicode="&#x424;" horiz-adv-x="870" 
d="M842 413q0 -114 -55.5 -210t-152.5 -153t-214 -61l-22 -107h-81l21 108q-130 7 -204 91.5t-74 206.5q0 113 56 208.5t153.5 153t213.5 61.5l18 95h82l-18 -96q130 -7 203.5 -91t73.5 -206zM436 70q87 5 162 53.5t117.5 125t42.5 162.5q0 91 -56 152t-154 66zM354 70
l112 559q-87 -5 -161.5 -53.5t-117.5 -125t-43 -160.5q0 -91 56 -152.5t154 -67.5z" />
    <glyph glyph-name="uni0425" unicode="&#x425;" horiz-adv-x="598" 
d="M657 700l-286 -336l166 -364h-90l-136 298l-253 -298h-103l312 367l-153 333h90l123 -269l230 269h100z" />
    <glyph glyph-name="uni0426" unicode="&#x426;" horiz-adv-x="714" 
d="M685 700l-125 -623h73l-44 -216h-77l27 139h-496l140 700h83l-124 -623h334l125 623h84z" />
    <glyph glyph-name="uni0427" unicode="&#x427;" horiz-adv-x="635" 
d="M540 700h84l-140 -700h-84l56 280q-89 -33 -166 -33q-94 0 -150 50t-56 140q0 8 0.5 14.5t2 17.5t3 20.5t6 32t8.5 42t12 59.5t15 77h85q-8 -38 -15.5 -76.5t-11.5 -58t-8 -40t-5.5 -29t-3 -18t-2 -14.5t-0.5 -12q0 -60 36 -91.5t103 -31.5q68 0 164 36z" />
    <glyph glyph-name="uni0428" unicode="&#x428;" horiz-adv-x="971" 
d="M877 700h84l-140 -700h-778l140 700h83l-124 -623h264l124 623h82l-124 -623h265z" />
    <glyph glyph-name="uni0429" unicode="&#x429;" horiz-adv-x="991" 
d="M961 700l-125 -623h76l-44 -216h-77l27 139h-775l140 700h83l-124 -623h264l124 623h82l-124 -623h265l124 623h84z" />
    <glyph glyph-name="uni042A" unicode="&#x42a;" horiz-adv-x="716" 
d="M482 449q89 0 143.5 -52.5t54.5 -134.5q0 -112 -78.5 -187t-195.5 -75h-262l124 622h-184l16 78h267l-50 -251h165zM408 77q79 0 133.5 53t54.5 126q0 35 -15.5 61.5t-45 41t-68.5 14.5h-165l-60 -296h166z" />
    <glyph glyph-name="uni042B" unicode="&#x42b;" horiz-adv-x="873" 
d="M381 449q89 0 143.5 -52.5t54.5 -134.5q0 -112 -78.5 -187t-195.5 -75h-262l140 700h83l-50 -251h165zM779 700h83l-140 -700h-83zM307 77q79 0 133.5 53t54.5 126q0 53 -35 85t-94 32h-165l-60 -296h166z" />
    <glyph glyph-name="uni042C" unicode="&#x42c;" horiz-adv-x="615" 
d="M381 449q89 0 143.5 -52.5t54.5 -134.5q0 -112 -78.5 -187t-195.5 -75h-262l140 700h83l-50 -251h165zM307 77q79 0 133.5 53t54.5 126q0 53 -35 85t-94 32h-165l-60 -296h166z" />
    <glyph glyph-name="uni042D" unicode="&#x42d;" horiz-adv-x="780" 
d="M452 712q134 0 217.5 -84t83.5 -214q0 -85 -34 -163.5t-91 -136t-137 -92t-167 -34.5q-82 0 -147.5 33t-103.5 91.5t-44 132.5h83q14 -82 72 -129t147 -47q75 0 141.5 33t113 88t67.5 124h-340l15 77h339q1 10 1 21q0 97 -61 158t-162 61q-89 0 -162 -43t-122 -122h-87
q49 117 151 181.5t227 64.5z" />
    <glyph glyph-name="uni042E" unicode="&#x42e;" horiz-adv-x="1043" 
d="M714 712q136 0 219.5 -84.5t83.5 -214.5q0 -86 -34.5 -164.5t-92.5 -135.5t-138 -91t-169 -34q-133 0 -215.5 84.5t-82.5 214.5q0 12 1 25h-97l-63 -312h-83l140 700h83l-62 -311h94q35 140 150.5 231.5t265.5 91.5zM596 69q92 0 169.5 47t122 124.5t44.5 165.5
q0 100 -63.5 162.5t-167.5 62.5q-90 0 -166.5 -47t-120.5 -124t-44 -165q0 -100 62 -163t164 -63z" />
    <glyph glyph-name="uni042F" unicode="&#x42f;" horiz-adv-x="647" 
d="M361 700h275l-140 -700h-84l55 274h-157l-219 -274h-100l230 286q-59 18 -92.5 63t-33.5 106q0 104 77.5 174.5t188.5 70.5zM482 351l55 271h-182q-75 0 -126 -48t-51 -115q0 -32 15 -56t42.5 -38t64.5 -14h182z" />
    <glyph glyph-name="uni0430" unicode="&#x430;" horiz-adv-x="698" 
d="M601 540h64l-108 -540h-67l8 79q-95 -91 -226 -91q-104 0 -168.5 65t-64.5 166q0 53 16.5 103t47.5 91.5t71.5 72.5t91.5 48.5t105 17.5q68 0 119.5 -28t80.5 -77zM287 66q99 0 172.5 76t73.5 176q0 71 -45 113.5t-120 42.5q-65 0 -122.5 -35t-91 -93t-33.5 -123
q0 -46 20.5 -82t58 -55.5t87.5 -19.5z" />
    <glyph glyph-name="uni0431" unicode="&#x431;" horiz-adv-x="657" 
d="M481 663q-121 -26 -194 -88t-107 -142q84 79 213 79q49 0 90.5 -16t70 -44t44 -66.5t16.5 -83.5q2 -134 -91 -224t-231 -90q-98 0 -164.5 63t-67.5 177q0 64 12.5 126.5t42 123t72.5 110t107.5 87.5t143.5 56l223 50l-16 -81zM375 442q-95 0 -163.5 -67t-68.5 -159
q0 -67 43 -108.5t113 -41.5q96 0 164 68t68 159q0 66 -43 107.5t-113 41.5z" />
    <glyph glyph-name="uni0432" unicode="&#x432;" horiz-adv-x="576" 
d="M435 278q31 -13 48.5 -42t17.5 -65q0 -75 -53 -123t-133 -48h-282l109 540h255q60 0 97 -34t37 -86q0 -47 -26.5 -85t-69.5 -57zM451 406q0 18 -8.5 31.5t-24 21t-36.5 7.5h-176l-30 -152h176q42 0 70.5 26t28.5 66zM309 75q46 0 78 29t32 72q0 30 -21.5 48.5t-56.5 18.5
h-180l-33 -168h181z" />
    <glyph glyph-name="uni0433" unicode="&#x433;" horiz-adv-x="440" 
d="M477 540l-14 -72h-256l-94 -468h-79l108 540h335z" />
    <glyph glyph-name="uni0434" unicode="&#x434;" horiz-adv-x="650" 
d="M593 540l-93 -464h73l-42 -215h-74l27 139h-442l-27 -139h-74l42 215h58q29 21 50.5 61.5t48.5 125.5t81 277h372zM280 468q-36 -133 -59 -207t-43 -117.5t-42 -67.5h285l78 392h-219z" />
    <glyph glyph-name="uni0435" unicode="&#x435;" horiz-adv-x="630" 
d="M583 239h-465q-1 -12 -1 -23q0 -70 41.5 -110t115.5 -40q58 0 108.5 25.5t84.5 72.5h91q-50 -84 -124 -130t-163 -46q-68 0 -121 30t-82 82.5t-29 118.5q0 88 43.5 164.5t119.5 122.5t164 46q52 0 95 -17.5t72 -48.5t45 -73.5t16 -92.5q0 -38 -11 -81zM363 476
q-77 0 -138 -45.5t-89 -116.5h382v5q0 73 -41 115t-114 42z" />
    <glyph glyph-name="uni0436" unicode="&#x436;" horiz-adv-x="801" 
d="M834 540l-246 -256l158 -284h-93l-135 244h-81l-49 -244h-81l49 244h-69l-232 -244h-106l272 285l-144 255h88l126 -224h79l45 224h81l-45 -224h67l214 224h102z" />
    <glyph glyph-name="uni0437" unicode="&#x437;" horiz-adv-x="485" 
d="M366 279q51 -32 51 -102q0 -86 -66.5 -137.5t-166.5 -51.5q-81 0 -127.5 39.5t-51.5 119.5h73q1 -40 32 -61t80 -21q63 0 105.5 31.5t42.5 79.5q0 33 -24.5 53.5t-65.5 20.5h-81l14 66h81q47 0 79.5 27t32.5 67q0 13 -4.5 23.5t-13 19.5t-20.5 15t-28 9t-35 3
q-31 0 -57 -9t-44.5 -26t-28.5 -40h-76q15 66 74.5 106.5t138.5 40.5q75 0 122 -39.5t47 -97.5q0 -29 -10 -54.5t-28.5 -46t-44.5 -35.5z" />
    <glyph glyph-name="uni0438" unicode="&#x438;" horiz-adv-x="617" 
d="M539 540h46l-108 -540h-77l77 384l-397 -384h-46l108 540h77l-76 -383z" />
    <glyph glyph-name="uni0439" unicode="&#x439;" horiz-adv-x="617" 
d="M520 672l-12 -61h-261l11 61h262zM539 540h46l-108 -540h-77l77 384l-397 -384h-46l108 540h77l-76 -383z" />
    <glyph glyph-name="uni043A" unicode="&#x43a;" horiz-adv-x="536" 
d="M572 540l-251 -259l162 -281h-91l-141 244h-88l-48 -244h-81l108 540h81l-45 -221h73l215 221h106z" />
    <glyph glyph-name="uni043B" unicode="&#x43b;" horiz-adv-x="617" 
d="M232 540h353l-108 -540h-81l94 469h-197l-88 -287q-33 -105 -81 -145t-137 -40h-23l16 76h19q47 0 76 27t48 87z" />
    <glyph glyph-name="uni043C" unicode="&#x43c;" horiz-adv-x="794" 
d="M635 540h69l-3 -540h-73l2 407l-271 -395h-18l-113 396l-160 -408h-83l212 540h67l108 -383z" />
    <glyph glyph-name="uni043D" unicode="&#x43d;" horiz-adv-x="628" 
d="M516 540h79l-108 -540h-79l48 240h-295l-48 -240h-79l108 540h79l-45 -226h295z" />
    <glyph glyph-name="uni043E" unicode="&#x43e;" horiz-adv-x="656" 
d="M278 -12q-107 0 -173 65t-66 167q0 89 45.5 165.5t123.5 121.5t170 45q71 0 125.5 -30t84 -82.5t29.5 -119.5q0 -89 -45.5 -165.5t-124 -121.5t-169.5 -45zM287 66q102 0 174.5 75t72.5 177q0 71 -45 113.5t-121 42.5q-101 0 -174 -74.5t-73 -177.5q0 -71 45.5 -113.5
t120.5 -42.5z" />
    <glyph glyph-name="uni043F" unicode="&#x43f;" horiz-adv-x="631" 
d="M142 540h456l-108 -540h-80l94 467h-296l-93 -467h-81z" />
    <glyph glyph-name="uni0440" unicode="&#x440;" horiz-adv-x="693" 
d="M423 552q69 0 122 -29.5t81 -82t28 -118.5q0 -89 -43.5 -165.5t-119.5 -122.5t-166 -46q-63 0 -113 25.5t-81 70.5l-55 -277h-81l147 733h56l-1 -83q97 95 226 95zM323 66q100 0 174.5 76t74.5 176q0 70 -44.5 113t-118.5 43q-100 0 -174 -76t-74 -178q0 -69 44 -111.5
t118 -42.5z" />
    <glyph glyph-name="uni0441" unicode="&#x441;" horiz-adv-x="617" 
d="M273 -12q-104 0 -169 65t-65 166q0 88 45 165t122 122.5t167 45.5q95 0 156.5 -52.5t71.5 -139.5h-80q-13 54 -54 84t-101 30q-97 0 -170.5 -76.5t-73.5 -176.5q0 -34 11.5 -63t32 -49t50 -31.5t64.5 -11.5q62 0 116 30.5t90 86.5h85q-41 -89 -121.5 -142t-176.5 -53z
" />
    <glyph glyph-name="uni0442" unicode="&#x442;" horiz-adv-x="513" 
d="M552 540l-15 -72h-200l-94 -468h-79l94 468h-205l15 72h484z" />
    <glyph glyph-name="uni0443" unicode="&#x443;" horiz-adv-x="583" 
d="M531 540h90l-372 -569q-63 -95 -113.5 -129.5t-126.5 -34.5h-53l15 74h39q55 0 86.5 22t78.5 91l32 47l-139 499h85l112 -413z" />
    <glyph glyph-name="uni0444" unicode="&#x444;" horiz-adv-x="727" 
d="M688 314q0 -138 -97.5 -230t-242.5 -96l-32 -158h-81l32 159q-101 5 -164.5 70t-63.5 164q0 138 98 231.5t243 97.5l30 151h81l-30 -152q100 -5 163.5 -71t63.5 -166zM283 69l81 402q-67 -3 -123 -37t-88.5 -89t-32.5 -119q0 -68 44 -111t119 -46zM364 69
q102 5 172.5 75.5t70.5 167.5q0 69 -44 112.5t-119 46.5z" />
    <glyph glyph-name="uni0445" unicode="&#x445;" horiz-adv-x="510" 
d="M543 540l-238 -261l145 -279h-86l-113 220l-198 -220h-99l255 281l-130 259h86l101 -202l180 202h97z" />
    <glyph glyph-name="uni0446" unicode="&#x446;" horiz-adv-x="637" 
d="M580 540l-93 -467h75l-43 -212h-74l28 139h-439l108 540h79l-93 -467h280l93 467h79z" />
    <glyph glyph-name="uni0447" unicode="&#x447;" horiz-adv-x="544" 
d="M433 540h79l-108 -540h-79l42 207q-64 -23 -131 -23q-81 0 -129.5 44.5t-48.5 121.5q0 7 0.5 13.5t1 12.5t2 16t3 17.5t4.5 23t5.5 27.5t7.5 36.5t8 43.5h80q-4 -16 -9 -44q-23 -113 -23 -134q0 -48 29.5 -73t86.5 -25q64 0 130 29z" />
    <glyph glyph-name="uni0448" unicode="&#x448;" horiz-adv-x="845" 
d="M732 540h80l-108 -540h-670l108 540h79l-93 -466h217l93 466h78l-94 -466h217z" />
    <glyph glyph-name="uni0449" unicode="&#x449;" horiz-adv-x="869" 
d="M812 540l-93 -467h75l-43 -212h-74l28 139h-671l108 540h79l-93 -467h217l93 467h78l-94 -467h217l93 467h80z" />
    <glyph glyph-name="uni044A" unicode="&#x44a;" horiz-adv-x="606" 
d="M402 368q73 0 117 -42.5t44 -110.5q0 -93 -64 -154t-162 -61h-221l94 469h-158l14 71h237l-34 -172h133zM336 72q62 0 103 39t41 98q0 39 -26.5 63t-73.5 24h-126l-45 -224h127z" />
    <glyph glyph-name="uni044B" unicode="&#x44b;" horiz-adv-x="732" 
d="M318 368q74 0 118.5 -43t44.5 -112q0 -92 -63.5 -152.5t-161.5 -60.5h-222l108 540h79l-35 -172h132zM619 540h81l-108 -540h-81zM253 72q41 0 74 17.5t52 49t19 70.5q0 40 -27 63.5t-73 23.5h-126l-45 -224h126z" />
    <glyph glyph-name="uni044C" unicode="&#x44c;" horiz-adv-x="523" 
d="M318 368q74 0 118.5 -43t44.5 -112q0 -92 -63.5 -152.5t-161.5 -60.5h-222l108 540h79l-35 -172h132zM253 72q41 0 74 17.5t52 49t19 70.5q0 40 -27 63.5t-73 23.5h-126l-45 -224h126z" />
    <glyph glyph-name="uni044D" unicode="&#x44d;" horiz-adv-x="620" 
d="M347 552q105 0 170 -66.5t65 -168.5q0 -87 -45 -163t-121.5 -121t-166.5 -45q-96 0 -157 56.5t-74 150.5h79q9 -62 52 -98t108 -36q81 0 145.5 50.5t90.5 127.5h-247l13 67h247v13q0 48 -20 84.5t-57.5 56.5t-87.5 20q-65 0 -121.5 -34.5t-89.5 -93.5h-80
q34 89 116.5 144.5t180.5 55.5z" />
    <glyph glyph-name="uni044E" unicode="&#x44e;" horiz-adv-x="856" 
d="M583 552q70 0 123.5 -30t82.5 -82.5t29 -119.5q0 -89 -45 -165.5t-122.5 -121.5t-167.5 -45q-101 0 -163 65t-62 167v13h-97l-46 -234h-81l108 541h81l-47 -232h94q14 52 44 97t71 77.5t92.5 51t105.5 18.5zM493 68q99 0 171 74.5t72 175.5q0 70 -44 112t-118 42
q-47 0 -90.5 -20.5t-75 -54.5t-50 -80t-18.5 -95q0 -70 41.5 -112t111.5 -42z" />
    <glyph glyph-name="uni044F" unicode="&#x44f;" horiz-adv-x="559" 
d="M275 540h252l-108 -540h-80l42 208h-134l-171 -208h-96l183 221q-42 15 -66 50t-24 81q0 80 58.5 134t143.5 54zM396 283l36 181h-160q-51 0 -84 -32t-33 -76q0 -33 21.5 -53t59.5 -20h160z" />
    <glyph glyph-name="uni0451" unicode="&#x451;" horiz-adv-x="630" 
d="M354 730l-20 -94h-93l19 94h94zM548 730l-19 -94h-94l20 94h93zM583 239h-465q-1 -12 -1 -23q0 -70 41.5 -110t115.5 -40q58 0 108.5 25.5t84.5 72.5h91q-50 -84 -124 -130t-163 -46q-68 0 -121 30t-82 82.5t-29 118.5q0 88 43.5 164.5t119.5 122.5t164 46q52 0 95 -17.5
t72 -48.5t45 -73.5t16 -92.5q0 -38 -11 -81zM363 476q-77 0 -138 -45.5t-89 -116.5h382v5q0 73 -41 115t-114 42z" />
    <glyph glyph-name="uni0452" unicode="&#x452;" horiz-adv-x="642" 
d="M408 552q81 0 127 -46.5t46 -126.5q0 -25 -6 -57t-31 -156q-19 -96 -33 -163q-18 -87 -81 -140t-151 -53h-29l15 75h18q57 0 96.5 32.5t51.5 89.5q8 42 16.5 83.5t14 69t11 54.5t8.5 43.5t6 32.5t4.5 25.5t3 18t2 14t1 10.5t0.5 11q0 104 -115 104q-46 0 -91 -23.5
t-77 -65t-42 -91.5l-58 -293h-81l119 595h-93l14 68h93l13 70h81l-13 -70h188l-13 -68h-189l-25 -126q80 83 199 83z" />
    <glyph glyph-name="uni0453" unicode="&#x453;" horiz-adv-x="440" 
d="M459 756l-120 -152h-64l98 152h86zM477 540l-14 -72h-256l-94 -468h-79l108 540h335z" />
    <glyph glyph-name="uni0454" unicode="&#x454;" horiz-adv-x="620" 
d="M280 61q66 0 123 36t90 98h81q-34 -92 -117.5 -149.5t-182.5 -57.5q-69 0 -123 31.5t-83 85.5t-29 121q0 66 26.5 126t71 104t106.5 70t129 26q95 0 156 -54.5t74 -145.5h-77q-11 58 -54 93t-107 35q-54 0 -102.5 -23.5t-82 -62.5t-50.5 -88h247l-13 -67h-247
q-1 -8 -1 -15q0 -48 20 -85t57.5 -57.5t87.5 -20.5z" />
    <glyph glyph-name="uni0455" unicode="&#x455;" horiz-adv-x="510" 
d="M204 -12q-85 0 -136 39t-51 106q0 16 3 31h79q-2 -11 -2 -17q0 -41 35 -63t85 -22q42 0 75.5 12.5t53.5 36.5t20 56q0 18 -9.5 31.5t-29.5 21.5t-38.5 13t-48.5 10q-25 4 -40.5 7.5t-37.5 10t-35.5 15t-27 21t-20 30t-6.5 39.5q0 85 65.5 135.5t166.5 50.5
q52 0 92.5 -16.5t62.5 -47.5t22 -72q0 -14 -2 -30h-77q2 12 2 18q0 37 -32 56.5t-80 19.5q-30 0 -56.5 -7t-44.5 -19.5t-28.5 -30t-10.5 -38.5q0 -13 7 -24t17 -17.5t27.5 -12t32 -8.5t38.5 -7q31 -5 49.5 -9t45 -13.5t41.5 -22t26 -34t11 -49.5q0 -93 -69 -146.5
t-175 -53.5z" />
    <glyph glyph-name="uni0456" unicode="&#x456;" horiz-adv-x="255" 
d="M154 636l19 94h89l-19 -94h-89zM34 0l108 540h81l-108 -540h-81z" />
    <glyph glyph-name="uni0457" unicode="&#x457;" horiz-adv-x="255" 
d="M65 636l19 94h89l-19 -94h-89zM252 636l20 94h89l-19 -94h-90zM34 0l108 540h81l-108 -540h-81z" />
    <glyph glyph-name="uni0458" unicode="&#x458;" horiz-adv-x="267" 
d="M163 636l20 94h88l-19 -94h-89zM-134 -193l15 74h27q53 0 89.5 31t47.5 84l109 544h81l-112 -558q-16 -81 -72.5 -128t-137.5 -47h-47z" />
    <glyph glyph-name="uni0459" unicode="&#x459;" horiz-adv-x="866" 
d="M662 368q49 0 85.5 -19.5t56.5 -54t20 -79.5q0 -93 -64 -154t-163 -61h-221l94 471h-178l-88 -289q-33 -105 -80.5 -145t-136.5 -40h-23l15 76h19q47 0 76.5 26.5t47.5 87.5l109 353h331l-35 -172h135zM595 72q63 0 104.5 39t41.5 98q0 39 -27 63t-73 24h-128l-45 -224
h127z" />
    <glyph glyph-name="uni045A" unicode="&#x45a;" horiz-adv-x="852" 
d="M651 353q73 0 115 -40t42 -105q0 -92 -59.5 -150t-156.5 -58h-218l50 253h-260l-51 -253h-79l108 540h79l-43 -213h261l43 213h79l-37 -187h127zM590 74q61 0 98 36t37 91q0 37 -24.5 57.5t-69.5 20.5h-122l-41 -205h122z" />
    <glyph glyph-name="uni045B" unicode="&#x45b;" horiz-adv-x="642" 
d="M408 552q54 0 93 -21t59.5 -60t20.5 -92q0 -8 -0.5 -14t-1.5 -15.5t-2.5 -18t-4.5 -26t-6 -33t-9 -45.5t-12 -58t-15.5 -75.5t-18.5 -93.5h-81q8 43 16.5 86t14 70.5t11 55.5t9 44.5t6.5 33t4.5 25.5l3 18t2 14.5t1 10.5t0.5 11q0 104 -115 104q-73 0 -133.5 -51.5
t-76.5 -128.5l-58 -293h-81l119 597h-94l13 66h95l13 70h81l-13 -70h187l-14 -66h-187l-25 -127q79 82 199 82z" />
    <glyph glyph-name="uni045C" unicode="&#x45c;" horiz-adv-x="536" 
d="M477 756l-121 -152h-64l99 152h86zM572 540l-251 -259l162 -281h-91l-141 244h-88l-48 -244h-81l108 540h81l-45 -221h73l215 221h106z" />
    <glyph glyph-name="uni045D" unicode="&#x45d;" horiz-adv-x="617" 
d="M397 604h-64l-60 152h86zM539 540h46l-108 -540h-77l77 384l-397 -384h-46l108 540h77l-76 -383z" />
    <glyph glyph-name="uni045E" unicode="&#x45e;" horiz-adv-x="583" 
d="M504 672l-12 -61h-261l11 61h262zM531 540h90l-372 -569q-63 -95 -113.5 -129.5t-126.5 -34.5h-53l15 74h39q55 0 86.5 22t78.5 91l32 47l-139 499h85l112 -413z" />
    <glyph glyph-name="uni045F" unicode="&#x45f;" horiz-adv-x="632" 
d="M600 540l-108 -540h-190l-29 -141h-77l28 141h-190l108 540h79l-93 -466h299l93 466h80z" />
    <glyph glyph-name="uni0490" unicode="&#x490;" horiz-adv-x="494" 
d="M578 805l-36 -181h-291l-125 -624h-83l140 700h295l21 105h79z" />
    <glyph glyph-name="uni0491" unicode="&#x491;" horiz-adv-x="440" 
d="M501 659l-38 -191h-256l-94 -468h-79l108 540h258l24 119h77z" />
    <glyph glyph-name="Wgrave" unicode="&#x1e80;" horiz-adv-x="1024" 
d="M637 779h-63l-69 142h87zM993 700h93l-361 -700h-73l-93 506l-292 -506h-74l-86 700h84l64 -563l319 548h29l104 -549z" />
    <glyph glyph-name="wgrave" unicode="&#x1e81;" horiz-adv-x="845" 
d="M508 604h-64l-61 152h87zM799 540h82l-291 -540h-66l-80 375l-230 -375h-67l-74 540h80l56 -404l246 395h30l88 -399z" />
    <glyph glyph-name="Wacute" unicode="&#x1e82;" horiz-adv-x="1024" 
d="M759 921l-124 -142h-65l102 142h87zM993 700h93l-361 -700h-73l-93 506l-292 -506h-74l-86 700h84l64 -563l319 548h29l104 -549z" />
    <glyph glyph-name="wacute" unicode="&#x1e83;" horiz-adv-x="845" 
d="M623 756l-121 -152h-64l98 152h87zM799 540h82l-291 -540h-66l-80 375l-230 -375h-67l-74 540h80l56 -404l246 395h30l88 -399z" />
    <glyph glyph-name="Wdieresis" unicode="&#x1e84;" horiz-adv-x="1024" 
d="M572 893l-19 -94h-93l18 94h94zM788 893l-18 -94h-94l18 94h94zM993 700h93l-361 -700h-73l-93 506l-292 -506h-74l-86 700h84l64 -563l319 548h29l104 -549z" />
    <glyph glyph-name="wdieresis" unicode="&#x1e85;" horiz-adv-x="845" 
d="M457 730l-19 -94h-94l19 94h94zM652 730l-19 -94h-94l19 94h94zM799 540h82l-291 -540h-66l-80 375l-230 -375h-67l-74 540h80l56 -404l246 395h30l88 -399z" />
    <glyph glyph-name="uni1E9E" unicode="&#x1e9e;" horiz-adv-x="685" 
d="M669 700l-3 -16l-186 -237q73 -11 113.5 -57t40.5 -118q0 -121 -82 -196.5t-213 -75.5h-100l15 80h94q86 0 144 52.5t58 129.5q0 54 -38 86t-104 32h-65l3 17l176 225h-119q-79 0 -127.5 -41t-64.5 -120l-92 -461h-84l96 479q21 107 91 164t179 57h268z" />
    <glyph glyph-name="Ygrave" unicode="&#x1ef2;" horiz-adv-x="654" 
d="M446 779h-63l-69 142h87zM716 700l-344 -421l-56 -279h-86l56 279l-173 421h86l140 -342l280 342h97z" />
    <glyph glyph-name="ygrave" unicode="&#x1ef3;" horiz-adv-x="583" 
d="M381 604h-64l-60 152h86zM531 540h90l-372 -569q-63 -95 -113.5 -129.5t-126.5 -34.5h-53l15 74h39q55 0 86.5 22t78.5 91l32 47l-139 499h85l112 -413z" />
    <glyph glyph-name="endash" unicode="&#x2013;" horiz-adv-x="642" 
d="M65 240l16 78h501l-15 -78h-502z" />
    <glyph glyph-name="emdash" unicode="&#x2014;" horiz-adv-x="899" 
d="M65 240l16 78h758l-16 -78h-758z" />
    <glyph glyph-name="quoteleft" unicode="&#x2018;" horiz-adv-x="222" 
d="M108 523l20 99q21 108 122 133l-10 -45q-53 -19 -67 -85h55l-20 -102h-100z" />
    <glyph glyph-name="quoteright" unicode="&#x2019;" horiz-adv-x="216" 
d="M108 485l9 46q54 18 68 85h-56l21 102h99l-19 -99q-21 -108 -122 -134z" />
    <glyph glyph-name="quotesinglbase" unicode="&#x201a;" horiz-adv-x="235" 
d="M0 -131l9 46q54 19 68 85h-56l20 102h100l-18 -95q-23 -109 -123 -138z" />
    <glyph glyph-name="quotedblleft" unicode="&#x201c;" horiz-adv-x="390" 
d="M109 525l19 99q21 108 122 133l-9 -45q-54 -19 -68 -85h55l-20 -102h-99zM277 525l19 99q22 108 122 133l-9 -45q-54 -19 -68 -85h56l-21 -102h-99z" />
    <glyph glyph-name="quotedblright" unicode="&#x201d;" horiz-adv-x="384" 
d="M108 485l9 46q54 18 68 85h-56l21 102h99l-19 -99q-21 -108 -122 -134zM276 485l9 46q54 18 68 85h-55l20 102h99l-19 -99q-21 -108 -122 -134z" />
    <glyph glyph-name="quotedblbase" unicode="&#x201e;" horiz-adv-x="403" 
d="M0 -131l9 46q54 19 68 85h-56l20 102h100l-19 -99q-22 -108 -122 -134zM168 -131l9 46q54 19 68 85h-55l20 102h99l-19 -99q-21 -108 -122 -134z" />
    <glyph glyph-name="dagger" unicode="&#x2020;" horiz-adv-x="510" 
d="M527 504l-15 -70h-188l-95 -474h-79l94 474h-182l15 70h181l40 196h79l-39 -196h189z" />
    <glyph glyph-name="daggerdbl" unicode="&#x2021;" horiz-adv-x="544" 
d="M530 434h-185l-41 -207h185l-14 -71h-185l-40 -196h-79l39 196h-185l14 71h185l42 207h-186l15 70h185l39 196h79l-39 -196h186z" />
    <glyph glyph-name="bullet" unicode="&#x2022;" horiz-adv-x="338" 
d="M156 208q-31 0 -50 20t-19 50q0 44 30.5 72t72.5 28q32 0 50.5 -20t18.5 -51q0 -43 -30.5 -71t-72.5 -28z" />
    <glyph glyph-name="ellipsis" unicode="&#x2026;" horiz-adv-x="541" 
d="M21 0l20 103h94l-21 -103h-93zM178 0l20 103h94l-20 -103h-94zM335 0l21 103h93l-20 -103h-94z" />
    <glyph glyph-name="perthousand" unicode="&#x2030;" horiz-adv-x="1111" 
d="M207 377q-38 0 -67 15t-45 42.5t-16 62.5q0 74 52 125.5t128 51.5q57 0 91.5 -33.5t34.5 -86.5q0 -75 -51.5 -126t-126.5 -51zM79 0l534 665h81l-534 -665h-81zM215 439q44 0 75 30.5t31 75.5q0 30 -19 48.5t-51 18.5q-43 0 -74.5 -31t-31.5 -75q-1 -31 18.5 -49
t51.5 -18zM524 -4q-57 0 -92 33t-35 86q0 73 51 124t126 51q57 0 92 -33.5t35 -86.5q0 -73 -51 -123.5t-126 -50.5zM881 -4q-57 0 -92 33t-35 86q0 73 51 124t127 51q56 0 91 -33.5t35 -86.5q0 -73 -51 -123.5t-126 -50.5zM532 58q44 0 74.5 31.5t30.5 72.5q0 20 -8.5 35
t-24.5 23.5t-38 8.5q-28 0 -51.5 -14t-38 -38t-14.5 -54q0 -29 19 -47t51 -18zM889 58q44 0 74.5 31.5t30.5 72.5q0 20 -8.5 35t-24.5 23.5t-38 8.5q-28 0 -51.5 -14t-38 -38t-14.5 -54q0 -29 19 -47t51 -18z" />
    <glyph glyph-name="guilsinglleft" unicode="&#x2039;" horiz-adv-x="357" 
d="M351 475l-223 -212l133 -204h-90l-133 205l3 15l204 196h106z" />
    <glyph glyph-name="guilsinglright" unicode="&#x203a;" horiz-adv-x="358" 
d="M186 475l133 -205l-3 -15l-204 -196h-108l226 216l-131 200h87z" />
    <glyph glyph-name="fraction" unicode="&#x2044;" horiz-adv-x="157" 
d="M-215 -30l556 760h66l-557 -760h-65z" />
    <glyph glyph-name="Euro" unicode="&#x20ac;" horiz-adv-x="651" 
d="M543 610q-86 0 -161.5 -44.5t-122.5 -117.5h338l-31 -66h-340q-18 -48 -20 -97h317l-30 -66h-282q17 -75 76.5 -117t144.5 -42q56 0 112 19l-15 -72q-59 -20 -114 -20q-110 0 -189 63.5t-95 168.5h-108l31 66h73q3 49 17 97h-85l30 66h81q51 105 151 170t219 65
q87 0 152 -29l-31 -68q-52 24 -118 24z" />
    <glyph glyph-name="uni20BD" unicode="&#x20bd;" horiz-adv-x="599" 
d="M368 274h-160l-16 -82h223l-11 -58h-224l-27 -134h-79l27 134h-76l12 58h76l16 85h-75l13 62h75l65 326h230q77 0 124 -44t47 -114q0 -98 -69.5 -165.5t-170.5 -67.5zM530 499q0 44 -30 71t-80 27h-147l-51 -255h148q64 0 112 47.5t48 109.5z" />
    <glyph glyph-name="uni2113" unicode="&#x2113;" horiz-adv-x="453" 
d="M216 52q28 0 50.5 12t37 34t21.5 52h62q-14 -75 -59.5 -118.5t-114.5 -43.5q-62 0 -99 35t-37 94q0 21 12 81q-37 -15 -74 -27l14 66q37 14 74 30q4 19 13.5 65.5t20.5 100t22 110.5q11 53 35.5 90.5t62 57.5t85.5 20q29 0 53 -9t40.5 -25t25 -38.5t8.5 -50.5
q0 -69 -43.5 -138t-111 -122.5t-153.5 -97.5q-18 -91 -18 -105q0 -35 19 -54t54 -19zM223 541q-19 -96 -47 -237q102 57 165.5 128.5t63.5 147.5q0 32 -18.5 50t-53.5 18q-88 0 -110 -107z" />
    <glyph glyph-name="uni2116" unicode="&#x2116;" horiz-adv-x="1099" 
d="M626 666h81l-133 -666h-65l-278 527l-106 -527h-81l134 666h69l275 -521zM889 288q-58 0 -94 35.5t-36 90.5q0 75 56.5 128.5t134.5 53.5q58 0 93.5 -35.5t35.5 -90.5q0 -76 -56.5 -129t-133.5 -53zM939 536q-48 0 -83 -33.5t-35 -81.5q0 -33 21.5 -53t57.5 -20
q49 0 83 34.5t34 79.5q0 33 -21.5 53.5t-56.5 20.5zM691 113l14 68h324l-14 -68h-324z" />
    <glyph glyph-name="uni2117" unicode="&#x2117;" horiz-adv-x="840" 
d="M503 709q141 0 226 -79.5t85 -207.5q0 -118 -59.5 -217.5t-162.5 -157.5t-225 -58q-140 0 -224.5 79t-84.5 207q0 89 35 169t94.5 138t142 92.5t173.5 34.5zM371 39q106 0 195.5 51.5t141.5 139t52 188.5q0 109 -70.5 175t-190.5 66q-106 0 -195.5 -52t-141 -139
t-51.5 -189q0 -109 70 -174.5t190 -65.5zM520 555q36 0 64 -15.5t43 -41.5t15 -58q0 -47 -24.5 -85t-65 -59.5t-88.5 -21.5h-111l-31 -157h-54l87 438h165zM472 321q23 0 45 9t38 24.5t25 37t9 44.5q0 33 -21.5 52.5t-57.5 19.5h-111l-37 -187h110z" />
    <glyph glyph-name="trademark" unicode="&#x2122;" horiz-adv-x="860" 
d="M432 665h-84l-43 -215h-39l43 215h-89l7 35h212zM698 700h37l-8 -250h-38l6 187l-126 -187h-10l-51 187l-69 -187h-38l92 250h32l50 -183z" />
    <glyph glyph-name="estimated" unicode="&#x212e;" horiz-adv-x="762" 
d="M734 301h-521v-182q78 -72 187 -72q61 0 118.5 23t96.5 63l72 -2q-46 -66 -125 -103.5t-162 -37.5q-92 0 -168.5 44.5t-121 121t-44.5 168.5q0 90 45 167t122 122t167 45q88 0 165.5 -45t124 -120t46.5 -159q0 -14 -2 -33zM400 601q-107 0 -187 -74v-171h375v171
q-82 74 -188 74z" />
    <glyph glyph-name="uni2150" unicode="&#x2150;" horiz-adv-x="831" 
d="M614 730h66l-556 -760h-66zM170 322h-66l64 321h-63l11 57h129zM559 378h264l-2 -10l-221 -368h-66l195 322h-181z" />
    <glyph glyph-name="uni2151" unicode="&#x2151;" horiz-adv-x="855" 
d="M612 730h66l-556 -760h-66zM168 322h-66l64 321h-63l12 57h128zM705 385q52 0 84.5 -32t32.5 -81q0 -35 -16.5 -68t-49.5 -73l-102 -132h-71l93 121q7 9 15 20q-21 -8 -43 -8q-46 0 -75.5 29.5t-29.5 73.5q0 64 46.5 107t115.5 43zM668 181q18 0 35 7t29.5 18.5t20 27.5
t7.5 35q0 16 -8 28.5t-22 19.5t-33 7q-39 0 -65.5 -26t-26.5 -62q0 -25 17 -40t46 -15z" />
    <glyph glyph-name="uni2152" unicode="&#x2152;" horiz-adv-x="1051" 
d="M612 730h66l-556 -760h-66zM168 322h-66l64 321h-63l12 57h128zM885 384q56 0 87.5 -38.5t31.5 -103.5q0 -66 -21.5 -122t-66 -92.5t-102.5 -36.5q-57 0 -88 39t-31 104t21.5 121.5t66 92.5t102.5 36zM545 321l12 57h128l-75 -378h-65l64 321h-64zM823 56q36 0 63.5 29.5
t40.5 70.5t13 82q0 39 -16.5 60t-47.5 21q-35 0 -62.5 -29.5t-41 -70.5t-13.5 -81t16.5 -61t47.5 -21z" />
    <glyph glyph-name="uni2153" unicode="&#x2153;" horiz-adv-x="826" 
d="M612 730h66l-556 -760h-66zM168 322h-66l64 321h-63l12 57h128zM795 378l-2 -14l-111 -128q35 -9 56 -36t21 -64q0 -61 -42 -102t-107 -41q-55 0 -86.5 33t-24.5 88h63q-5 -26 9.5 -43.5t41.5 -17.5q36 0 59.5 25t23.5 57q0 12 -4.5 21.5t-12.5 16t-19 10.5t-25 4h-49
l2 13l101 121h-139l12 57h233z" />
    <glyph glyph-name="uni2154" unicode="&#x2154;" horiz-adv-x="952" 
d="M743 730h66l-556 -760h-66zM316 384l-13 -61h-258l3 16l39 36q54 49 80 73t58.5 58t45.5 57.5t13 42.5q0 20 -12.5 31.5t-32.5 11.5q-57 0 -71 -65h-64q26 124 142 124q46 0 74.5 -28t28.5 -71q0 -21 -9.5 -44t-21 -40.5t-39 -45.5t-44.5 -44t-57 -51h138zM926 378
l-3 -14l-110 -128q34 -9 55 -36t21 -64q0 -61 -42 -102t-107 -41q-55 0 -86.5 33t-24.5 88h63q-5 -26 10 -43.5t42 -17.5q35 0 58.5 25t23.5 57q0 23 -16.5 37.5t-43.5 14.5h-50l2 13l101 121h-138l11 57h234z" />
    <glyph glyph-name="uni2155" unicode="&#x2155;" horiz-adv-x="846" 
d="M612 730h66l-556 -760h-66zM168 322h-66l64 321h-63l12 57h128zM794 321h-143l-24 -80h40q50 0 82 -30.5t32 -76.5q0 -39 -20 -71.5t-54.5 -51t-76.5 -18.5q-57 0 -89 36t-20 85h64q-4 -17 1.5 -31t19.5 -22.5t32 -8.5q32 0 55.5 23.5t23.5 57.5q0 15 -7.5 27t-20.5 18.5
t-31 6.5h-101l-6 9l58 184h196z" />
    <glyph glyph-name="uni2156" unicode="&#x2156;" horiz-adv-x="972" 
d="M743 730h66l-556 -760h-66zM316 384l-13 -61h-258l3 16l39 36q55 49 80.5 73t58 58t45.5 57.5t13 42.5q0 20 -12.5 31.5t-32.5 11.5q-56 0 -71 -65h-63q25 124 141 124q46 0 74.5 -28t28.5 -71q0 -21 -9.5 -44t-21 -40.5t-39 -45.5t-44.5 -43.5t-56 -51.5h137zM925 321
h-143l-25 -80h40q51 0 82.5 -30.5t31.5 -76.5q0 -39 -19.5 -71.5t-54 -51t-76.5 -18.5q-57 0 -89 36t-21 85h64q-3 -17 2.5 -31t19 -22.5t32.5 -8.5q32 0 55 23.5t23 57.5q0 15 -7 27t-20.5 18.5t-30.5 6.5h-101l-7 9l58 184h197z" />
    <glyph glyph-name="uni2157" unicode="&#x2157;" horiz-adv-x="969" 
d="M738 730h65l-556 -760h-66zM324 458q0 -61 -42 -102t-107 -41q-55 0 -86.5 33.5t-24.5 88.5h63q-5 -26 9.5 -43.5t42.5 -17.5q35 0 58.5 24.5t23.5 56.5q0 16 -7.5 27.5t-21 18t-31.5 6.5h-50l2 13l101 121h-138l11 57h234l-3 -14l-110 -127q34 -9 55 -36.5t21 -64.5z
M919 321h-143l-24 -80h40q51 0 82.5 -30.5t31.5 -76.5q0 -39 -20 -71.5t-54.5 -51t-76.5 -18.5q-56 0 -88.5 36t-20.5 85h64q-6 -26 9.5 -44t43.5 -18q33 0 56 23.5t23 57.5q0 23 -16 37.5t-43 14.5h-100l-7 9l58 184h196z" />
    <glyph glyph-name="uni2158" unicode="&#x2158;" horiz-adv-x="1009" 
d="M772 730h66l-556 -760h-66zM224 322l16 76h-187l3 13l186 289h67l-160 -246h103l31 103h50l-20 -103h37l-12 -56h-36l-16 -76h-62zM954 321h-143l-24 -80h40q50 0 82 -30.5t32 -76.5q0 -59 -43.5 -100t-107.5 -41q-56 0 -88.5 36t-20.5 85h64q-3 -13 0 -24t9.5 -19.5
t18 -13.5t25.5 -5q32 0 55.5 23.5t23.5 57.5q0 15 -7 27t-20.5 18.5t-31.5 6.5h-100l-7 9l58 184h196z" />
    <glyph glyph-name="uni2159" unicode="&#x2159;" horiz-adv-x="853" 
d="M614 730h66l-556 -760h-66zM170 322h-66l64 321h-63l11 57h129zM691 245q30 0 54 -13.5t37.5 -37t13.5 -53.5q0 -63 -47 -105.5t-116 -42.5q-52 0 -84.5 31.5t-32.5 79.5q0 25 9.5 50.5t22 44.5t34.5 47l102 133h72l-94 -121q-10 -13 -17 -23q22 10 46 10zM641 53
q38 0 64.5 25t26.5 62q0 25 -16.5 40.5t-45.5 15.5q-38 0 -64.5 -25t-26.5 -62q0 -25 17 -40.5t45 -15.5z" />
    <glyph glyph-name="uni215A" unicode="&#x215a;" horiz-adv-x="993" 
d="M755 730h66l-556 -760h-66zM328 457q0 -60 -43.5 -101t-106.5 -41q-37 0 -65 16.5t-40 44.5t-4 60h63q-5 -25 10.5 -43t43.5 -18q32 0 55 23.5t23 56.5q0 24 -15.5 38t-42.5 14h-101l-6 10l57 183h197l-11 -57h-143l-25 -80h41q50 0 81.5 -30.5t31.5 -75.5zM832 245
q45 0 75 -29.5t30 -74.5q0 -63 -47.5 -105.5t-115.5 -42.5q-52 0 -84.5 31.5t-32.5 79.5q0 36 16 67.5t49 74.5l103 133h72l-94 -121q-10 -13 -17 -23q22 10 46 10zM782 53q38 0 64.5 25t26.5 62q0 17 -7.5 29.5t-22 19.5t-32.5 7q-39 0 -65 -25t-26 -62q0 -25 17 -40.5
t45 -15.5z" />
    <glyph glyph-name="oneeighth" unicode="&#x215b;" horiz-adv-x="864" 
d="M612 730h66l-556 -760h-66zM168 322h-66l64 321h-63l12 57h128zM762 197q35 -24 35 -71q0 -60 -44.5 -97t-112.5 -37q-27 0 -49.5 8t-37.5 22t-23 32.5t-8 40.5q0 75 71 111q-25 23 -25 61q0 54 40 86t103 32q48 0 78 -26.5t30 -65.5q0 -63 -57 -96zM683 227
q31 0 52.5 17.5t21.5 43.5q0 20 -15 31.5t-38 11.5q-31 0 -52.5 -18t-21.5 -44q0 -19 14.5 -30.5t38.5 -11.5zM647 49q38 0 62 21t24 53q0 15 -7 26t-20.5 17.5t-33.5 6.5q-37 0 -62 -21.5t-25 -52.5q0 -23 17 -36.5t45 -13.5z" />
    <glyph glyph-name="threeeighths" unicode="&#x215c;" horiz-adv-x="986" 
d="M738 730h65l-556 -760h-66zM324 458q0 -61 -42 -102t-107 -41q-55 0 -86.5 33.5t-24.5 88.5h63q-5 -26 9.5 -43.5t42.5 -17.5q35 0 58.5 24.5t23.5 56.5q0 16 -7.5 27.5t-21 18t-31.5 6.5h-50l2 13l101 121h-138l11 57h234l-3 -14l-110 -127q34 -9 55 -36.5t21 -64.5z
M887 197q35 -24 35 -71q0 -60 -44.5 -97t-112.5 -37q-54 0 -86 29.5t-32 73.5q0 75 72 111q-26 23 -26 61q0 36 19 63t51 41t73 14q48 0 78 -26.5t30 -65.5q0 -63 -57 -96zM808 227q31 0 52.5 17.5t21.5 43.5q0 20 -14.5 31.5t-38.5 11.5q-31 0 -52.5 -18t-21.5 -44
q0 -19 14.5 -30.5t38.5 -11.5zM772 49q38 0 62.5 21t24.5 53q0 22 -16.5 36t-45.5 14q-37 0 -62 -21.5t-25 -52.5q0 -23 17 -36.5t45 -13.5z" />
    <glyph glyph-name="fiveeighths" unicode="&#x215d;" horiz-adv-x="999" 
d="M750 730h66l-556 -760h-66zM324 457q0 -60 -43.5 -101t-106.5 -41q-38 0 -66 16.5t-39.5 44.5t-4.5 60h64q-6 -25 9.5 -43t43.5 -18q33 0 56 23.5t23 56.5q0 24 -16 38t-42 14h-101l-7 10l58 183h196l-10 -57h-144l-24 -80h40q51 0 82.5 -30.5t31.5 -75.5zM900 197
q35 -24 35 -71q0 -60 -44.5 -97t-112.5 -37q-54 0 -86 29.5t-32 73.5q0 75 72 111q-26 23 -26 61q0 54 40 86t103 32q48 0 78 -26.5t30 -65.5q0 -63 -57 -96zM821 227q31 0 52.5 17.5t21.5 43.5q0 20 -14.5 31.5t-38.5 11.5q-31 0 -52.5 -18t-21.5 -44q0 -19 14.5 -30.5
t38.5 -11.5zM785 49q38 0 62.5 21t24.5 53q0 15 -7.5 26t-21 17.5t-33.5 6.5q-37 0 -62 -21.5t-25 -52.5q0 -23 17 -36.5t45 -13.5z" />
    <glyph glyph-name="seveneighths" unicode="&#x215e;" horiz-adv-x="982" 
d="M727 730h66l-556 -760h-66zM376 700l-2 -9l-221 -369h-66l195 323h-181l11 55h264zM877 197q35 -24 35 -71q0 -60 -44.5 -97t-112.5 -37q-54 0 -86 29.5t-32 73.5q0 75 71 111q-25 23 -25 61q0 54 40 86t103 32q48 0 78 -26.5t30 -65.5q0 -63 -57 -96zM798 227
q31 0 52.5 17.5t21.5 43.5q0 20 -15 31.5t-38 11.5q-31 0 -52.5 -18t-21.5 -44q0 -19 14.5 -30.5t38.5 -11.5zM762 49q38 0 62 21t24 53q0 22 -16 36t-45 14q-37 0 -62 -21.5t-25 -52.5q0 -23 17 -36.5t45 -13.5z" />
    <glyph glyph-name="uni215F" unicode="&#x215f;" horiz-adv-x="506" 
d="M700 730h66l-557 -760h-65zM255 322h-65l64 321h-64l12 57h129z" />
    <glyph glyph-name="uni2189" unicode="&#x2189;" horiz-adv-x="995" 
d="M783 730h66l-556 -760h-66zM384 566q0 -65 -21.5 -121.5t-65.5 -93t-103 -36.5q-56 0 -87.5 39t-31.5 104q0 66 22 122t66 92t102 36q57 0 88 -38t31 -104zM203 380q36 0 64 29.5t41 70.5t13 83q0 39 -16.5 59.5t-47.5 20.5q-36 0 -63.5 -29.5t-40.5 -70t-13 -81.5
q0 -40 16 -61t47 -21zM966 378l-3 -14l-110 -128q35 -9 55.5 -36t20.5 -64q0 -61 -42 -102t-106 -41q-55 0 -87 33t-25 88h63q-5 -26 10 -43.5t42 -17.5q36 0 59 25t23 57q0 23 -16.5 37.5t-43.5 14.5h-50l2 13l101 121h-138l12 57h233z" />
    <glyph glyph-name="arrowleft" unicode="&#x2190;" horiz-adv-x="663" 
d="M634 345v-72h-463l195 -193l-50 -45l-271 268v12l271 268l50 -45l-195 -193h463z" />
    <glyph glyph-name="arrowup" unicode="&#x2191;" horiz-adv-x="601" 
d="M597 386l-45 -50l-192 195v-463h-73v463l-192 -195l-45 50l268 271h11z" />
    <glyph glyph-name="arrowright" unicode="&#x2192;" horiz-adv-x="663" 
d="M362 583l271 -268v-12l-271 -268l-50 45l195 193h-463v72h463l-195 193z" />
    <glyph glyph-name="arrowdown" unicode="&#x2193;" horiz-adv-x="601" 
d="M541 376l45 -50l-268 -271h-12l-268 271l45 50l193 -195v463h72v-463z" />
    <glyph glyph-name="uni2196" unicode="&#x2196;" horiz-adv-x="631" 
d="M582 150l-51 -52l-362 367v-292h-67v401l9 9h401v-67h-293z" />
    <glyph glyph-name="uni2197" unicode="&#x2197;" horiz-adv-x="567" 
d="M498 583l9 -9v-401h-67v292l-362 -367l-51 52l362 366h-292v67h401z" />
    <glyph glyph-name="uni2198" unicode="&#x2198;" horiz-adv-x="654" 
d="M485 484h67v-401l-9 -9h-401v67h292l-362 366l51 52l362 -367v292z" />
    <glyph glyph-name="uni2199" unicode="&#x2199;" horiz-adv-x="587" 
d="M577 507l-363 -366h292v-67h-400l-10 9v401h67v-292l363 367z" />
    <glyph glyph-name="partialdiff" unicode="&#x2202;" horiz-adv-x="615" 
d="M334 714q83 0 140.5 -27.5t87 -81.5t29.5 -132q0 -123 -44 -234q-45 -114 -132 -182.5t-203 -68.5q-92 0 -143.5 50.5t-51.5 128.5q0 61 26.5 118t71 98t105.5 65.5t126 24.5q115 0 164 -77q7 44 7 75q0 174 -199 174q-47 0 -115 -10l14 69q69 10 117 10zM227 60
q96 0 169.5 71.5t73.5 161.5q0 52 -35 82.5t-96 30.5q-64 0 -120.5 -32t-89.5 -85.5t-33 -112.5q0 -35 15.5 -61.5t45 -40.5t70.5 -14z" />
    <glyph glyph-name="emptyset" unicode="&#x2205;" horiz-adv-x="667" 
d="M553 490q71 -61 71 -167q0 -89 -45 -166t-122.5 -122t-167.5 -45q-66 0 -122 26l-43 -52h-78l71 85q-73 62 -73 169q0 89 45 166t123 121.5t168 44.5q70 0 123 -27l40 51h78zM369 476q-66 0 -123 -35.5t-89.5 -93t-32.5 -122.5q0 -69 47 -112l280 346q-36 17 -82 17z
M299 64q100 0 172.5 76t72.5 176q0 68 -45 111l-280 -346q35 -17 80 -17z" />
    <glyph glyph-name="product" unicode="&#x220f;" horiz-adv-x="733" 
d="M785 700l-16 -78h-105l-157 -782h-85l157 782h-284l-157 -782h-85l156 782h-106l16 78h666z" />
    <glyph glyph-name="summation" unicode="&#x2211;" horiz-adv-x="591" 
d="M634 700l-16 -76h-378l176 -350l-5 -25l-293 -333h364l-16 -77h-520l3 16l369 421l-203 408l3 16h516z" />
    <glyph glyph-name="minus" unicode="&#x2212;" horiz-adv-x="624" 
d="M78 303l15 74h480l-15 -74h-480z" />
    <glyph glyph-name="radical" unicode="&#x221a;" horiz-adv-x="667" 
d="M682 750h87l-478 -750h-34l-90 406h-132l14 70h180l70 -334z" />
    <glyph glyph-name="infinity" unicode="&#x221e;" horiz-adv-x="976" 
d="M772 530q38 0 69.5 -12t53.5 -32.5t34.5 -50t12.5 -63.5q0 -97 -69 -164.5t-170 -67.5q-65 0 -112.5 33t-94.5 107q-77 -73 -139 -106.5t-127 -33.5q-76 0 -123 44.5t-47 113.5q0 98 68.5 165t169.5 67q34 0 61.5 -8.5t52.5 -26.5t47 -43.5t47 -63.5q80 75 141 108.5
t125 33.5zM132 306q0 -45 29.5 -71t81.5 -26q49 0 92.5 28t122.5 104q-42 65 -79 92.5t-85 27.5q-70 0 -116 -45t-46 -110zM708 209q36 0 66 12.5t51 33t32.5 49.5t11.5 61q0 30 -12.5 51.5t-37.5 33t-59 11.5q-49 0 -91.5 -28t-124.5 -106q42 -64 79 -91t85 -27z" />
    <glyph glyph-name="integral" unicode="&#x222b;" horiz-adv-x="387" 
d="M-122 -301l14 74h20q70 0 115 37.5t59 107.5l161 804q18 91 77 141t151 50h48l-14 -73h-22q-66 0 -108.5 -35.5t-56.5 -102.5l-160 -804q-19 -95 -80.5 -147t-155.5 -52h-48z" />
    <glyph glyph-name="approxequal" unicode="&#x2248;" horiz-adv-x="582" 
d="M418 369q-34 0 -58.5 15t-52.5 43q-22 23 -38 34t-35 11q-18 0 -33 -11.5t-25 -34t-15 -54.5h-67q30 170 150 170q26 0 48.5 -9.5t36 -21t29.5 -30.5q14 -15 22.5 -22.5t21 -13.5t25.5 -6q52 0 72 98h67q-32 -168 -148 -168zM373 145q-34 0 -58.5 15t-52.5 44
q-21 22 -37 33t-35 11q-28 0 -47 -25.5t-27 -74.5h-67q30 170 150 170q38 0 63.5 -15.5t51.5 -45.5q20 -22 34.5 -32t33.5 -10q53 0 72 98h67q-31 -168 -148 -168z" />
    <glyph glyph-name="notequal" unicode="&#x2260;" horiz-adv-x="627" 
d="M582 416h-183l-67 -148h221l-15 -73h-239l-69 -153h-76l69 153h-165l15 73h183l67 148h-221l15 74h240l66 148h76l-66 -148h164z" />
    <glyph glyph-name="lessequal" unicode="&#x2264;" horiz-adv-x="556" 
d="M568 662l-19 -93l-354 -171l287 -166l-16 -81l-399 237l6 32zM13 26l15 76h429l-15 -76h-429z" />
    <glyph glyph-name="greaterequal" unicode="&#x2265;" horiz-adv-x="550" 
d="M146 662l397 -242l-6 -32l-494 -237l19 95l346 167l-279 167zM17 26l15 76h429l-15 -76h-429z" />
    <glyph glyph-name="lozenge" unicode="&#x25ca;" horiz-adv-x="559" 
d="M372 699l171 -341l-3 -14l-308 -344h-13l-171 345l3 13l307 341h14zM475 359l-123 247l-236 -263l123 -249z" />
    <glyph glyph-name="K.ss01" horiz-adv-x="613" 
d="M183 700h83l-140 -700h-83zM683 700l-375 -336l261 -364h-93l-264 368l2 11l358 321h111z" />
    <glyph glyph-name="K.ss03" horiz-adv-x="613" 
d="M183 700h83l-140 -700h-83zM683 700l-375 -336l261 -364h-93l-264 368l2 11l358 321h111z" />
    <glyph glyph-name="K.ss04" horiz-adv-x="613" 
d="M183 700h83l-140 -700h-83zM683 700l-375 -336l261 -364h-93l-264 368l2 11l358 321h111z" />
    <glyph glyph-name="germandbls.calt" horiz-adv-x="678" 
d="M667 700l-3 -16l-186 -237q49 -7 84 -30.5t53 -60.5t18 -84q0 -121 -82.5 -196.5t-212.5 -75.5h-101l16 80h93q86 0 144 52.5t58 129.5q0 18 -4 34t-12.5 28.5t-21 23t-28 17.5t-34.5 11t-41 4h-66l3 17l176 225h-119q-79 0 -127.5 -41t-64.5 -120l-92 -461h-83l95 479
q21 107 91 164t179 57h268z" />
    <glyph glyph-name="i.loclTRK" horiz-adv-x="255" 
d="M154 636l19 94h89l-19 -94h-89zM34 0l108 540h81l-108 -540h-81z" />
    <glyph glyph-name="k.ss01" horiz-adv-x="518" 
d="M180 733h81l-146 -733h-81zM561 540l-275 -261l182 -279h-92l-178 276l5 23l254 241h104z" />
    <glyph glyph-name="k.ss03" horiz-adv-x="518" 
d="M180 733h81l-146 -733h-81zM561 540l-275 -261l182 -279h-92l-178 276l5 23l254 241h104z" />
    <glyph glyph-name="k.ss04" horiz-adv-x="518" 
d="M180 733h81l-146 -733h-81zM561 540l-275 -261l182 -279h-92l-178 276l5 23l254 241h104z" />
    <glyph glyph-name="uni0414.loclBGR" horiz-adv-x="756" 
d="M630 78l58 -1l-43 -216h-78l28 139h-539l-28 -139h-77l43 216l59 1l371 622h77zM442 578l-295 -500h400z" />
    <glyph glyph-name="uni041B.loclBGR" horiz-adv-x="667" 
d="M594 0h-86l-109 579l-340 -579h-93l414 700h78z" />
    <glyph glyph-name="uni0416.ss01" horiz-adv-x="904" 
d="M416 380l-4 -19l-355 -361h-112l377 381l-211 319h95zM496 700h84l-140 -700h-84zM968 700l-344 -337l230 -363h-97l-227 362l3 17l323 321h112z" />
    <glyph glyph-name="uni041A.ss01" horiz-adv-x="613" 
d="M183 700h83l-140 -700h-83zM683 700l-375 -336l261 -364h-93l-264 368l2 11l358 321h111z" />
    <glyph glyph-name="uni0424.ss01" horiz-adv-x="870" 
d="M842 413q0 -114 -55.5 -210t-152.5 -153t-214 -61l-22 -107h-81l21 108q-130 7 -204 91.5t-74 206.5q0 113 56 208.5t153.5 153t213.5 61.5l18 95h82l-18 -96q130 -7 203.5 -91t73.5 -206zM436 70q87 5 162 53.5t117.5 125t42.5 162.5q0 91 -56 152t-154 66zM354 70
l112 559q-87 -5 -161.5 -53.5t-117.5 -125t-43 -160.5q0 -91 56 -152.5t154 -67.5z" />
    <glyph glyph-name="uni0414.ss02" horiz-adv-x="756" 
d="M630 78l58 -1l-43 -216h-78l28 139h-539l-28 -139h-77l43 216l59 1l371 622h77zM442 578l-295 -500h400z" />
    <glyph glyph-name="uni041B.ss02" horiz-adv-x="667" 
d="M594 0h-86l-109 579l-340 -579h-93l414 700h78z" />
    <glyph glyph-name="uni0414.ss03" horiz-adv-x="756" 
d="M630 78l58 -1l-43 -216h-78l28 139h-539l-28 -139h-77l43 216l59 1l371 622h77zM442 578l-295 -500h400z" />
    <glyph glyph-name="uni0416.ss03" horiz-adv-x="904" 
d="M416 380l-4 -19l-355 -361h-112l377 381l-211 319h95zM496 700h84l-140 -700h-84zM968 700l-344 -337l230 -363h-97l-227 362l3 17l323 321h112z" />
    <glyph glyph-name="uni041A.ss03" horiz-adv-x="613" 
d="M183 700h83l-140 -700h-83zM683 700l-375 -336l261 -364h-93l-264 368l2 11l358 321h111z" />
    <glyph glyph-name="uni041B.ss03" horiz-adv-x="667" 
d="M594 0h-86l-109 579l-340 -579h-93l414 700h78z" />
    <glyph glyph-name="uni0416.ss04" horiz-adv-x="904" 
d="M416 380l-4 -19l-355 -361h-112l377 381l-211 319h95zM496 700h84l-140 -700h-84zM968 700l-344 -337l230 -363h-97l-227 362l3 17l323 321h112z" />
    <glyph glyph-name="uni041A.ss04" horiz-adv-x="613" 
d="M183 700h83l-140 -700h-83zM683 700l-375 -336l261 -364h-93l-264 368l2 11l358 321h111z" />
    <glyph glyph-name="uni0424.ss04" horiz-adv-x="809" 
d="M785 400q0 -99 -51.5 -183t-140 -133.5t-194.5 -53.5l-16 -81h-84l17 82q-123 10 -191 86.5t-68 184.5q0 101 51 184.5t139.5 133t196.5 53.5l15 75h83l-14 -75q119 -7 188 -84.5t69 -188.5zM332 108l98 489q-118 -7 -203 -96t-85 -202q0 -82 51 -135t139 -56zM414 108
q119 5 203 93t84 203q0 82 -50.5 135.5t-138.5 56.5z" />
    <glyph glyph-name="uni0424.ss05" horiz-adv-x="809" 
d="M785 400q0 -99 -51.5 -183t-140 -133.5t-194.5 -53.5l-16 -81h-84l17 82q-123 10 -191 86.5t-68 184.5q0 101 51 184.5t139.5 133t196.5 53.5l15 75h83l-14 -75q119 -7 188 -84.5t69 -188.5zM332 108l98 489q-118 -7 -203 -96t-85 -202q0 -82 51 -135t139 -56zM414 108
q119 5 203 93t84 203q0 82 -50.5 135.5t-138.5 56.5z" />
    <glyph glyph-name="uni0432.loclBGR" horiz-adv-x="623" 
d="M488 376q38 -20 58.5 -58.5t20.5 -84.5q0 -107 -80.5 -175.5t-196.5 -68.5q-105 0 -163 55.5t-61 154.5q0 8 0.5 15t1.5 16.5t2 16.5t3.5 21.5t4.5 25t6 32.5t7.5 39t10.5 50t12 60q26 133 99.5 201.5t189.5 68.5q91 0 147.5 -48t56.5 -123q0 -59 -33 -113t-86 -85z
M396 668q-80 0 -133 -51t-72 -151q-4 -24 -9 -46h181q71 0 121 43t50 105q0 46 -37 73t-101 27zM297 67q79 0 134 47.5t55 119.5q0 50 -36 79.5t-97 29.5h-186q-21 -104 -21 -137q0 -139 151 -139z" />
    <glyph glyph-name="uni0433.loclBGR" horiz-adv-x="514" 
d="M210 -7q-87 0 -138.5 39t-51.5 103q0 28 7 50.5t17.5 38.5t29 29.5t36 22t44 16t46.5 11.5t51 9q22 4 34 6.5t31.5 7.5t30.5 9.5t25 12t22 16.5t13 21.5t5 27.5q0 29 -29 47t-80 18q-41 0 -71.5 -11.5t-48.5 -33t-24 -52.5h-77q8 80 70.5 124.5t156.5 44.5
q81 0 129.5 -38t48.5 -98q0 -26 -7 -47.5t-17 -37t-28.5 -28.5t-34.5 -20.5t-43 -15t-45 -11t-49 -9.5t-48.5 -9.5t-43 -12t-39 -18.5t-24 -27t-10.5 -39q0 -32 32 -50t88 -18q66 0 106 27t50 76h81q-11 -58 -44 -99t-84.5 -61.5t-116.5 -20.5z" />
    <glyph glyph-name="uni0434.loclBGR" horiz-adv-x="673" 
d="M586 540h54l-94 -468q-17 -87 -60 -149t-108 -94.5t-147 -32.5q-98 0 -156 48t-66 134h81q8 -51 49 -79.5t103 -28.5q84 0 145.5 54.5t79.5 145.5l5 25q-90 -78 -208 -78q-98 0 -160 62t-62 158q0 82 42.5 155t115.5 116.5t156 43.5q66 0 117 -28t80 -78zM281 95
q94 0 162.5 71.5t68.5 163.5q0 65 -42.5 104.5t-112.5 39.5q-94 0 -163.5 -71.5t-69.5 -163.5q0 -64 43 -104t114 -40z" />
    <glyph glyph-name="uni0436.loclBGR" horiz-adv-x="798" 
d="M831 540l-244 -256l156 -284h-92l-134 244h-81l-49 -244h-81l49 244h-69l-231 -244h-106l271 285l-143 255h88l125 -224h79l84 418h81l-84 -418h67l213 224h101z" />
    <glyph glyph-name="uni0437.loclBGR" horiz-adv-x="559" 
d="M379 184q94 -40 94 -151q0 -74 -39 -128.5t-102.5 -81.5t-140.5 -27q-100 0 -158.5 51.5t-59.5 139.5h78q2 -35 20 -61t50.5 -39.5t76.5 -13.5q81 0 136.5 43.5t55.5 110.5q0 55 -39 89.5t-101 34.5h-103l14 77h103q64 0 116 43.5t52 104.5q0 45 -33.5 71.5t-87.5 26.5
q-60 0 -107.5 -32t-65.5 -85h-80q12 57 49 101.5t92 69t119 24.5q86 0 140.5 -49.5t54.5 -126.5q0 -64 -36 -114t-98 -78z" />
    <glyph glyph-name="uni0438.loclBGR" horiz-adv-x="642" 
d="M528 540h81l-108 -540h-60l3 82q-38 -45 -92 -69.5t-117 -24.5q-40 0 -72.5 12t-54.5 34.5t-34 54.5t-12 72q0 7 0.5 12.5t1 12t2 16.5t3 19.5t5 27t6.5 33.5t9 45.5t11.5 56t14.5 71t17 85.5h81q-11 -57 -29 -144q-27 -134 -33 -167t-6 -51q0 -57 30 -86t88 -29
q70 0 128.5 50.5t76.5 123.5z" />
    <glyph glyph-name="uni0439.loclBGR" horiz-adv-x="642" 
d="M518 672l-11 -61h-262l12 61h261zM528 540h81l-108 -540h-60l3 82q-38 -45 -92 -69.5t-117 -24.5q-81 0 -127 46.5t-46 126.5q0 7 0.5 12.5t1 12t2 16.5t3 19.5t5 27t6.5 33.5t9 45.5t11.5 56t14.5 71t17 85.5h81q-11 -57 -29 -144q-27 -134 -33 -167t-6 -51
q0 -57 30 -86t88 -29q70 0 128.5 50.5t76.5 123.5z" />
    <glyph glyph-name="uni043A.loclBGR" horiz-adv-x="536" 
d="M571 540l-250 -259l162 -281h-91l-141 244h-87l-49 -244h-81l146 733h81l-82 -414h73l214 221h105z" />
    <glyph glyph-name="uni043B.loclBGR" horiz-adv-x="531" 
d="M458 0h-77l-76 430l-253 -430h-87l319 540h72z" />
    <glyph glyph-name="uni043F.loclBGR" horiz-adv-x="642" 
d="M406 552q54 0 93.5 -21t60.5 -60t21 -92q0 -8 -0.5 -14t-1.5 -15.5t-2.5 -18t-4.5 -26t-6 -33t-9.5 -45.5t-12 -58t-15 -75.5t-18.5 -93.5h-81q13 67 32 163q25 120 30.5 150.5t5.5 48.5q0 115 -120 115q-70 0 -128 -50.5t-75 -125.5l-60 -301h-81l108 540h57l-1 -83
q38 45 91.5 70t116.5 25z" />
    <glyph glyph-name="uni0442.loclBGR" horiz-adv-x="950" 
d="M736 552q71 0 114 -43.5t43 -113.5q-1 -24 -36 -199q-23 -114 -39 -196h-81q16 82 39 192q32 158 32 180q0 51 -25.5 78t-72.5 27q-61 0 -114 -48.5t-69 -120.5q-4 -23 -24 -121t-38 -187h-79q17 82 39 192q32 158 32 180q0 51 -25.5 78t-71.5 27q-62 0 -115 -49
t-69 -120l-61 -308h-81l108 540h58l-2 -71q79 83 187 83q56 0 94.5 -27.5t53.5 -75.5q25 32 57.5 55t69.5 35.5t76 12.5z" />
    <glyph glyph-name="uni0446.loclBGR" horiz-adv-x="674" 
d="M530 126q0 -37 20 -54.5t61 -17.5l-38 -192h-75l29 144q-67 10 -74 81q-42 -45 -100 -71.5t-122 -26.5q-81 0 -126 44t-45 123q0 7 0.5 12t1.5 14t2.5 16.5t4.5 24.5t6 33t9 46l12 60t16 79.5t20 98.5h81q-12 -62 -31 -154q-25 -123 -30 -153.5t-5 -48.5
q0 -57 30.5 -86.5t89.5 -29.5q47 0 90 22.5t72.5 62.5t38.5 89l60 298h81q-21 -109 -49 -245q-30 -151 -30 -169z" />
    <glyph glyph-name="uni0448.loclBGR" horiz-adv-x="950" 
d="M836 540h81l-108 -540h-60l2 70q-78 -82 -186 -82q-37 0 -67 12.5t-50.5 35.5t-29.5 55q-38 -49 -91.5 -76t-112.5 -27q-71 0 -113.5 43.5t-42.5 113.5q0 17 5 45.5t29 150.5q24 115 40 199h81q-16 -82 -38 -192q-32 -158 -32 -180q0 -51 25 -78t72 -27q62 0 115 49
t68 121q5 23 24.5 121t37.5 186h79q-16 -82 -38 -192q-32 -158 -32 -180q0 -51 25 -78t72 -27q61 0 114 48.5t69 119.5z" />
    <glyph glyph-name="uni0449.loclBGR" horiz-adv-x="982" 
d="M838 126q0 -72 80 -72l-38 -193h-74l29 146q-62 11 -74 74q-38 -44 -89.5 -68.5t-106.5 -24.5t-94 27.5t-53 75.5q-38 -49 -91.5 -76t-112.5 -27q-70 0 -112 43.5t-42 113.5q0 24 11 83t61 312h81q-16 -85 -39 -197q-31 -153 -31 -175q0 -51 25 -78t72 -27q62 0 115 49
t68 121q5 23 24.5 121t37.5 186h79q-16 -84 -39 -196q-31 -154 -31 -176q0 -51 25 -78t72 -27q63 0 116.5 50.5t67.5 123.5l1 -1q7 39 16 84.5t22 110t22 109.5h81q-18 -91 -43 -216q-26 -130 -31 -157.5t-5 -40.5z" />
    <glyph glyph-name="uni044E.loclBGR" horiz-adv-x="857" 
d="M584 552q106 0 170.5 -65t64.5 -167q0 -89 -45 -165.5t-122.5 -121.5t-167.5 -45q-101 0 -163.5 65t-62.5 167v13h-97l-46 -234h-81l146 734h81l-85 -425h94q29 106 116.5 175t197.5 69zM494 68q99 0 171 74.5t72 175.5q0 70 -44 112t-118 42q-63 0 -117 -34.5t-86 -92
t-32 -123.5q0 -70 42 -112t112 -42z" />
    <glyph glyph-name="uni0436.ss01" horiz-adv-x="782" 
d="M339 283l-2 -8l-292 -275h-106l306 288l-165 252h93zM409 540h79l-108 -540h-79zM826 540l-279 -267l181 -273h-92l-182 275l1 8l268 257h103z" />
    <glyph glyph-name="uni043A.ss01" horiz-adv-x="520" 
d="M142 540h81l-108 -540h-81zM568 540l-283 -266l182 -274h-93l-179 276l2 9l270 255h101z" />
    <glyph glyph-name="uni0432.ss02" horiz-adv-x="623" 
d="M488 376q38 -20 58.5 -58.5t20.5 -84.5q0 -107 -80.5 -175.5t-196.5 -68.5q-105 0 -163 55.5t-61 154.5q0 8 0.5 15t1.5 16.5t2 16.5t3.5 21.5t4.5 25t6 32.5t7.5 39t10.5 50t12 60q26 133 99.5 201.5t189.5 68.5q91 0 147.5 -48t56.5 -123q0 -59 -33 -113t-86 -85z
M396 668q-80 0 -133 -51t-72 -151q-4 -24 -9 -46h181q71 0 121 43t50 105q0 46 -37 73t-101 27zM297 67q79 0 134 47.5t55 119.5q0 50 -36 79.5t-97 29.5h-186q-21 -104 -21 -137q0 -139 151 -139z" />
    <glyph glyph-name="uni0433.ss02" horiz-adv-x="514" 
d="M210 -7q-87 0 -138.5 39t-51.5 103q0 28 7 50.5t17.5 38.5t29 29.5t36 22t44 16t46.5 11.5t51 9q22 4 34 6.5t31.5 7.5t30.5 9.5t25 12t22 16.5t13 21.5t5 27.5q0 29 -29 47t-80 18q-41 0 -71.5 -11.5t-48.5 -33t-24 -52.5h-77q8 80 70.5 124.5t156.5 44.5
q81 0 129.5 -38t48.5 -98q0 -26 -7 -47.5t-17 -37t-28.5 -28.5t-34.5 -20.5t-43 -15t-45 -11t-49 -9.5t-48.5 -9.5t-43 -12t-39 -18.5t-24 -27t-10.5 -39q0 -32 32 -50t88 -18q66 0 106 27t50 76h81q-11 -58 -44 -99t-84.5 -61.5t-116.5 -20.5z" />
    <glyph glyph-name="uni0434.ss02" horiz-adv-x="673" 
d="M586 540h54l-94 -468q-17 -87 -60 -149t-108 -94.5t-147 -32.5q-98 0 -156 48t-66 134h81q8 -51 49 -79.5t103 -28.5q84 0 145.5 54.5t79.5 145.5l5 25q-90 -78 -208 -78q-98 0 -160 62t-62 158q0 82 42.5 155t115.5 116.5t156 43.5q66 0 117 -28t80 -78zM281 95
q94 0 162.5 71.5t68.5 163.5q0 65 -42.5 104.5t-112.5 39.5q-94 0 -163.5 -71.5t-69.5 -163.5q0 -64 43 -104t114 -40z" />
    <glyph glyph-name="uni0436.ss02" horiz-adv-x="798" 
d="M831 540l-244 -256l156 -284h-92l-134 244h-81l-49 -244h-81l49 244h-69l-231 -244h-106l271 285l-143 255h88l125 -224h79l84 418h81l-84 -418h67l213 224h101z" />
    <glyph glyph-name="uni0437.ss02" horiz-adv-x="559" 
d="M379 184q94 -40 94 -151q0 -74 -39 -128.5t-102.5 -81.5t-140.5 -27q-100 0 -158.5 51.5t-59.5 139.5h78q2 -35 20 -61t50.5 -39.5t76.5 -13.5q81 0 136.5 43.5t55.5 110.5q0 55 -39 89.5t-101 34.5h-103l14 77h103q64 0 116 43.5t52 104.5q0 45 -33.5 71.5t-87.5 26.5
q-60 0 -107.5 -32t-65.5 -85h-80q12 57 49 101.5t92 69t119 24.5q86 0 140.5 -49.5t54.5 -126.5q0 -64 -36 -114t-98 -78z" />
    <glyph glyph-name="uni0438.ss02" horiz-adv-x="642" 
d="M528 540h81l-108 -540h-60l3 82q-38 -45 -92 -69.5t-117 -24.5q-40 0 -72.5 12t-54.5 34.5t-34 54.5t-12 72q0 7 0.5 12.5t1 12t2 16.5t3 19.5t5 27t6.5 33.5t9 45.5t11.5 56t14.5 71t17 85.5h81q-11 -57 -29 -144q-27 -134 -33 -167t-6 -51q0 -57 30 -86t88 -29
q70 0 128.5 50.5t76.5 123.5z" />
    <glyph glyph-name="uni0439.ss02" horiz-adv-x="642" 
d="M518 672l-11 -61h-262l12 61h261zM528 540h81l-108 -540h-60l3 82q-38 -45 -92 -69.5t-117 -24.5q-81 0 -127 46.5t-46 126.5q0 7 0.5 12.5t1 12t2 16.5t3 19.5t5 27t6.5 33.5t9 45.5t11.5 56t14.5 71t17 85.5h81q-11 -57 -29 -144q-27 -134 -33 -167t-6 -51
q0 -57 30 -86t88 -29q70 0 128.5 50.5t76.5 123.5z" />
    <glyph glyph-name="uni043A.ss02" horiz-adv-x="536" 
d="M571 540l-250 -259l162 -281h-91l-141 244h-87l-49 -244h-81l146 733h81l-82 -414h73l214 221h105z" />
    <glyph glyph-name="uni043B.ss02" horiz-adv-x="531" 
d="M458 0h-77l-76 430l-253 -430h-87l319 540h72z" />
    <glyph glyph-name="uni043F.ss02" horiz-adv-x="642" 
d="M406 552q54 0 93.5 -21t60.5 -60t21 -92q0 -8 -0.5 -14t-1.5 -15.5t-2.5 -18t-4.5 -26t-6 -33t-9.5 -45.5t-12 -58t-15 -75.5t-18.5 -93.5h-81q13 67 32 163q25 120 30.5 150.5t5.5 48.5q0 115 -120 115q-70 0 -128 -50.5t-75 -125.5l-60 -301h-81l108 540h57l-1 -83
q38 45 91.5 70t116.5 25z" />
    <glyph glyph-name="uni0442.ss02" horiz-adv-x="950" 
d="M736 552q71 0 114 -43.5t43 -113.5q-1 -24 -36 -199q-23 -114 -39 -196h-81q16 82 39 192q32 158 32 180q0 51 -25.5 78t-72.5 27q-61 0 -114 -48.5t-69 -120.5q-4 -23 -24 -121t-38 -187h-79q17 82 39 192q32 158 32 180q0 51 -25.5 78t-71.5 27q-62 0 -115 -49
t-69 -120l-61 -308h-81l108 540h58l-2 -71q79 83 187 83q56 0 94.5 -27.5t53.5 -75.5q25 32 57.5 55t69.5 35.5t76 12.5z" />
    <glyph glyph-name="uni0446.ss02" horiz-adv-x="674" 
d="M530 126q0 -37 20 -54.5t61 -17.5l-38 -192h-75l29 144q-67 10 -74 81q-42 -45 -100 -71.5t-122 -26.5q-81 0 -126 44t-45 123q0 7 0.5 12t1.5 14t2.5 16.5t4.5 24.5t6 33t9 46l12 60t16 79.5t20 98.5h81q-12 -62 -31 -154q-25 -123 -30 -153.5t-5 -48.5
q0 -57 30.5 -86.5t89.5 -29.5q47 0 90 22.5t72.5 62.5t38.5 89l60 298h81q-21 -109 -49 -245q-30 -151 -30 -169z" />
    <glyph glyph-name="uni0448.ss02" horiz-adv-x="950" 
d="M836 540h81l-108 -540h-60l2 70q-78 -82 -186 -82q-37 0 -67 12.5t-50.5 35.5t-29.5 55q-38 -49 -91.5 -76t-112.5 -27q-71 0 -113.5 43.5t-42.5 113.5q0 17 5 45.5t29 150.5q24 115 40 199h81q-16 -82 -38 -192q-32 -158 -32 -180q0 -51 25 -78t72 -27q62 0 115 49
t68 121q5 23 24.5 121t37.5 186h79q-16 -82 -38 -192q-32 -158 -32 -180q0 -51 25 -78t72 -27q61 0 114 48.5t69 119.5z" />
    <glyph glyph-name="uni0449.ss02" horiz-adv-x="982" 
d="M838 126q0 -72 80 -72l-38 -193h-74l29 146q-62 11 -74 74q-38 -44 -89.5 -68.5t-106.5 -24.5t-94 27.5t-53 75.5q-38 -49 -91.5 -76t-112.5 -27q-70 0 -112 43.5t-42 113.5q0 24 11 83t61 312h81q-16 -85 -39 -197q-31 -153 -31 -175q0 -51 25 -78t72 -27q62 0 115 49
t68 121q5 23 24.5 121t37.5 186h79q-16 -84 -39 -196q-31 -154 -31 -176q0 -51 25 -78t72 -27q63 0 116.5 50.5t67.5 123.5l1 -1q7 39 16 84.5t22 110t22 109.5h81q-18 -91 -43 -216q-26 -130 -31 -157.5t-5 -40.5z" />
    <glyph glyph-name="uni044E.ss02" horiz-adv-x="857" 
d="M584 552q106 0 170.5 -65t64.5 -167q0 -89 -45 -165.5t-122.5 -121.5t-167.5 -45q-101 0 -163.5 65t-62.5 167v13h-97l-46 -234h-81l146 734h81l-85 -425h94q29 106 116.5 175t197.5 69zM494 68q99 0 171 74.5t72 175.5q0 70 -44 112t-118 42q-63 0 -117 -34.5t-86 -92
t-32 -123.5q0 -70 42 -112t112 -42z" />
    <glyph glyph-name="uni0432.ss03" horiz-adv-x="623" 
d="M488 376q38 -20 58.5 -58.5t20.5 -84.5q0 -107 -80.5 -175.5t-196.5 -68.5q-105 0 -163 55.5t-61 154.5q0 8 0.5 15t1.5 16.5t2 16.5t3.5 21.5t4.5 25t6 32.5t7.5 39t10.5 50t12 60q26 133 99.5 201.5t189.5 68.5q91 0 147.5 -48t56.5 -123q0 -59 -33 -113t-86 -85z
M396 668q-80 0 -133 -51t-72 -151q-4 -24 -9 -46h181q71 0 121 43t50 105q0 46 -37 73t-101 27zM297 67q79 0 134 47.5t55 119.5q0 50 -36 79.5t-97 29.5h-186q-21 -104 -21 -137q0 -139 151 -139z" />
    <glyph glyph-name="uni0433.ss03" horiz-adv-x="514" 
d="M210 -7q-87 0 -138.5 39t-51.5 103q0 28 7 50.5t17.5 38.5t29 29.5t36 22t44 16t46.5 11.5t51 9q22 4 34 6.5t31.5 7.5t30.5 9.5t25 12t22 16.5t13 21.5t5 27.5q0 29 -29 47t-80 18q-41 0 -71.5 -11.5t-48.5 -33t-24 -52.5h-77q8 80 70.5 124.5t156.5 44.5
q81 0 129.5 -38t48.5 -98q0 -26 -7 -47.5t-17 -37t-28.5 -28.5t-34.5 -20.5t-43 -15t-45 -11t-49 -9.5t-48.5 -9.5t-43 -12t-39 -18.5t-24 -27t-10.5 -39q0 -32 32 -50t88 -18q66 0 106 27t50 76h81q-11 -58 -44 -99t-84.5 -61.5t-116.5 -20.5z" />
    <glyph glyph-name="uni0434.ss03" horiz-adv-x="673" 
d="M586 540h54l-94 -468q-17 -87 -60 -149t-108 -94.5t-147 -32.5q-98 0 -156 48t-66 134h81q8 -51 49 -79.5t103 -28.5q84 0 145.5 54.5t79.5 145.5l5 25q-90 -78 -208 -78q-98 0 -160 62t-62 158q0 82 42.5 155t115.5 116.5t156 43.5q66 0 117 -28t80 -78zM281 95
q94 0 162.5 71.5t68.5 163.5q0 65 -42.5 104.5t-112.5 39.5q-94 0 -163.5 -71.5t-69.5 -163.5q0 -64 43 -104t114 -40z" />
    <glyph glyph-name="uni0436.ss03" horiz-adv-x="788" 
d="M446 733h81l-146 -733h-81zM339 287l-2 -13l-286 -274h-108l301 291l-173 249h89zM827 540l-278 -264l190 -276h-95l-190 274l3 13l266 253h104z" />
    <glyph glyph-name="uni0437.ss03" horiz-adv-x="559" 
d="M379 184q94 -40 94 -151q0 -74 -39 -128.5t-102.5 -81.5t-140.5 -27q-100 0 -158.5 51.5t-59.5 139.5h78q2 -35 20 -61t50.5 -39.5t76.5 -13.5q81 0 136.5 43.5t55.5 110.5q0 55 -39 89.5t-101 34.5h-103l14 77h103q64 0 116 43.5t52 104.5q0 45 -33.5 71.5t-87.5 26.5
q-60 0 -107.5 -32t-65.5 -85h-80q12 57 49 101.5t92 69t119 24.5q86 0 140.5 -49.5t54.5 -126.5q0 -64 -36 -114t-98 -78z" />
    <glyph glyph-name="uni0438.ss03" horiz-adv-x="642" 
d="M528 540h81l-108 -540h-60l3 82q-38 -45 -92 -69.5t-117 -24.5q-40 0 -72.5 12t-54.5 34.5t-34 54.5t-12 72q0 7 0.5 12.5t1 12t2 16.5t3 19.5t5 27t6.5 33.5t9 45.5t11.5 56t14.5 71t17 85.5h81q-11 -57 -29 -144q-27 -134 -33 -167t-6 -51q0 -57 30 -86t88 -29
q70 0 128.5 50.5t76.5 123.5z" />
    <glyph glyph-name="uni0439.ss03" horiz-adv-x="642" 
d="M518 672l-11 -61h-262l12 61h261zM528 540h81l-108 -540h-60l3 82q-38 -45 -92 -69.5t-117 -24.5q-81 0 -127 46.5t-46 126.5q0 7 0.5 12.5t1 12t2 16.5t3 19.5t5 27t6.5 33.5t9 45.5t11.5 56t14.5 71t17 85.5h81q-11 -57 -29 -144q-27 -134 -33 -167t-6 -51
q0 -57 30 -86t88 -29q70 0 128.5 50.5t76.5 123.5z" />
    <glyph glyph-name="uni043A.ss03" horiz-adv-x="517" 
d="M180 733h81l-146 -733h-81zM561 540l-275 -261l182 -279h-92l-178 276l5 23l254 241h104z" />
    <glyph glyph-name="uni043B.ss03" horiz-adv-x="531" 
d="M458 0h-77l-76 430l-253 -430h-87l319 540h72z" />
    <glyph glyph-name="uni043F.ss03" horiz-adv-x="642" 
d="M406 552q54 0 93.5 -21t60.5 -60t21 -92q0 -8 -0.5 -14t-1.5 -15.5t-2.5 -18t-4.5 -26t-6 -33t-9.5 -45.5t-12 -58t-15 -75.5t-18.5 -93.5h-81q13 67 32 163q25 120 30.5 150.5t5.5 48.5q0 115 -120 115q-70 0 -128 -50.5t-75 -125.5l-60 -301h-81l108 540h57l-1 -83
q38 45 91.5 70t116.5 25z" />
    <glyph glyph-name="uni0442.ss03" horiz-adv-x="950" 
d="M736 552q71 0 114 -43.5t43 -113.5q-1 -24 -36 -199q-23 -114 -39 -196h-81q16 82 39 192q32 158 32 180q0 51 -25.5 78t-72.5 27q-61 0 -114 -48.5t-69 -120.5q-4 -23 -24 -121t-38 -187h-79q17 82 39 192q32 158 32 180q0 51 -25.5 78t-71.5 27q-62 0 -115 -49
t-69 -120l-61 -308h-81l108 540h58l-2 -71q79 83 187 83q56 0 94.5 -27.5t53.5 -75.5q25 32 57.5 55t69.5 35.5t76 12.5z" />
    <glyph glyph-name="uni0446.ss03" horiz-adv-x="674" 
d="M530 126q0 -37 20 -54.5t61 -17.5l-38 -192h-75l29 144q-67 10 -74 81q-42 -45 -100 -71.5t-122 -26.5q-81 0 -126 44t-45 123q0 7 0.5 12t1.5 14t2.5 16.5t4.5 24.5t6 33t9 46l12 60t16 79.5t20 98.5h81q-12 -62 -31 -154q-25 -123 -30 -153.5t-5 -48.5
q0 -57 30.5 -86.5t89.5 -29.5q47 0 90 22.5t72.5 62.5t38.5 89l60 298h81q-21 -109 -49 -245q-30 -151 -30 -169z" />
    <glyph glyph-name="uni0448.ss03" horiz-adv-x="950" 
d="M836 540h81l-108 -540h-60l2 70q-78 -82 -186 -82q-37 0 -67 12.5t-50.5 35.5t-29.5 55q-38 -49 -91.5 -76t-112.5 -27q-71 0 -113.5 43.5t-42.5 113.5q0 17 5 45.5t29 150.5q24 115 40 199h81q-16 -82 -38 -192q-32 -158 -32 -180q0 -51 25 -78t72 -27q62 0 115 49
t68 121q5 23 24.5 121t37.5 186h79q-16 -82 -38 -192q-32 -158 -32 -180q0 -51 25 -78t72 -27q61 0 114 48.5t69 119.5z" />
    <glyph glyph-name="uni0449.ss03" horiz-adv-x="982" 
d="M838 126q0 -72 80 -72l-38 -193h-74l29 146q-62 11 -74 74q-38 -44 -89.5 -68.5t-106.5 -24.5t-94 27.5t-53 75.5q-38 -49 -91.5 -76t-112.5 -27q-70 0 -112 43.5t-42 113.5q0 24 11 83t61 312h81q-16 -85 -39 -197q-31 -153 -31 -175q0 -51 25 -78t72 -27q62 0 115 49
t68 121q5 23 24.5 121t37.5 186h79q-16 -84 -39 -196q-31 -154 -31 -176q0 -51 25 -78t72 -27q63 0 116.5 50.5t67.5 123.5l1 -1q7 39 16 84.5t22 110t22 109.5h81q-18 -91 -43 -216q-26 -130 -31 -157.5t-5 -40.5z" />
    <glyph glyph-name="uni044E.ss03" horiz-adv-x="857" 
d="M584 552q106 0 170.5 -65t64.5 -167q0 -89 -45 -165.5t-122.5 -121.5t-167.5 -45q-101 0 -163.5 65t-62.5 167v13h-97l-46 -234h-81l146 734h81l-85 -425h94q29 106 116.5 175t197.5 69zM494 68q99 0 171 74.5t72 175.5q0 70 -44 112t-118 42q-63 0 -117 -34.5t-86 -92
t-32 -123.5q0 -70 42 -112t112 -42z" />
    <glyph glyph-name="uni0436.ss04" horiz-adv-x="782" 
d="M339 283l-2 -8l-292 -275h-106l306 288l-165 252h93zM409 540h79l-108 -540h-79zM826 540l-279 -267l181 -273h-92l-182 275l1 8l268 257h103z" />
    <glyph glyph-name="uni043A.ss04" horiz-adv-x="520" 
d="M142 540h81l-108 -540h-81zM568 540l-283 -266l182 -274h-93l-179 276l2 9l270 255h101z" />
    <glyph glyph-name="zero.sinf" horiz-adv-x="373" 
d="M122 -75q-56 0 -87.5 38.5t-31.5 104.5q0 65 22 121t66 92t102 36q57 0 88 -38t31 -104q0 -65 -21.5 -121t-65.5 -92.5t-103 -36.5zM131 -11q36 0 64 30t41 70.5t13 82.5q0 26 -7.5 44t-22 27.5t-34.5 9.5q-36 0 -63.5 -29.5t-40.5 -70.5t-13 -82q0 -26 7 -44t21 -28
t35 -10z" />
    <glyph glyph-name="one.sinf" horiz-adv-x="205" 
d="M29 310h128l-75 -377h-66l64 321h-63z" />
    <glyph glyph-name="two.sinf" horiz-adv-x="320" 
d="M269 220q0 -22 -9.5 -44.5t-21 -40t-39 -46t-44.5 -44t-56 -51.5h137l-13 -60h-258l3 15q13 13 39 36q55 49 80.5 73t58 58.5t45.5 57.5t13 43t-12.5 31.5t-32.5 11.5q-57 0 -71 -65h-64q26 123 142 123q46 0 74.5 -27.5t28.5 -70.5z" />
    <glyph glyph-name="three.sinf" horiz-adv-x="321" 
d="M283 309l-3 -13l-110 -128q23 -6 40.5 -20.5t26.5 -35t9 -44.5q0 -61 -42 -102t-106 -41q-55 0 -87 33t-25 88h63q-3 -17 2.5 -31t18.5 -22t31 -8q36 0 59.5 25t23.5 57q0 23 -17 37.5t-44 14.5h-50l2 13l101 121h-138l12 56h233z" />
    <glyph glyph-name="four.sinf" horiz-adv-x="330" 
d="M267 64l-12 -55h-36l-16 -76h-62l16 76h-187l3 12l186 289h67l-160 -246h103l31 104h50l-20 -104h37z" />
    <glyph glyph-name="five.sinf" horiz-adv-x="317" 
d="M260 253h-144l-24 -79h40q51 0 82.5 -30.5t31.5 -76.5q0 -60 -43.5 -100.5t-106.5 -40.5q-57 0 -89.5 35.5t-20.5 84.5h64q-6 -25 9.5 -43t43.5 -18q33 0 56 23.5t23 56.5q0 24 -16 38.5t-42 14.5h-101l-7 9l58 183h196z" />
    <glyph glyph-name="six.sinf" horiz-adv-x="334" 
d="M165 178q45 0 74.5 -29.5t29.5 -74.5q0 -63 -47 -105.5t-115 -42.5q-52 0 -84.5 31t-32.5 79q0 37 16 68.5t49 74.5l103 133h71l-93 -122q-10 -12 -18 -22q23 10 47 10zM115 -14q38 0 64.5 25t26.5 61q0 26 -17 41.5t-46 15.5q-38 0 -64 -25t-26 -62q0 -25 17 -40.5
t45 -15.5z" />
    <glyph glyph-name="seven.sinf" horiz-adv-x="303" 
d="M30 310h264l-2 -9l-221 -368h-66l195 322h-181z" />
    <glyph glyph-name="eight.sinf" horiz-adv-x="344" 
d="M231 130q35 -25 35 -71q0 -60 -44.5 -97t-112.5 -37q-54 0 -86 29t-32 74q0 75 72 111q-26 23 -26 60q0 55 40 86.5t103 31.5q48 0 78 -26t30 -66q0 -62 -57 -95zM152 160q31 0 52.5 17.5t21.5 43.5q0 19 -14.5 31t-38.5 12q-20 0 -37 -8t-27 -22.5t-10 -31.5
q0 -19 14.5 -30.5t38.5 -11.5zM117 -18q37 0 61.5 21t24.5 52q0 23 -16.5 37t-44.5 14q-38 0 -63 -22t-25 -53q0 -22 17 -35.5t46 -13.5z" />
    <glyph glyph-name="nine.sinf" horiz-adv-x="334" 
d="M169 318q52 0 84.5 -31.5t32.5 -80.5q0 -35 -17 -68t-49 -73l-102 -132h-71l92 121q8 9 16 19q-21 -7 -43 -7q-46 0 -76 29.5t-30 73.5q0 42 21.5 76.5t58.5 53.5t83 19zM132 115q25 0 46 11.5t33 31.5t12 44q0 25 -17 40.5t-45 15.5q-39 0 -65.5 -26t-26.5 -62
q0 -25 17 -40t46 -15z" />
    <glyph glyph-name="zero.tf" horiz-adv-x="570" 
d="M234 -12q-96 0 -149.5 65t-53.5 178q0 85 23 164.5t64 143t105 101.5t140 38q96 0 149 -64.5t53 -177.5q0 -84 -23 -164t-64.5 -143.5t-105 -102t-138.5 -38.5zM245 68q55 0 102 33t76.5 86t46 116.5t16.5 126.5q0 81 -35 125t-99 44q-45 0 -84.5 -22t-68 -58t-48.5 -83
t-30 -98t-10 -102q0 -80 34.5 -124t99.5 -44z" />
    <glyph glyph-name="one.tf" horiz-adv-x="570" 
d="M301 71h153l-14 -71h-394l14 71h161l105 523h-133l14 71h213z" />
    <glyph glyph-name="two.tf" horiz-adv-x="570" 
d="M528 522q0 -29 -9 -59t-21.5 -55.5t-40 -59.5t-48.5 -57.5t-63.5 -63.5t-68.5 -63.5t-80 -71.5l-21 -18h297l-15 -74h-451l6 26q20 18 61 52q52 46 78 68.5t70 61.5t66 61t53.5 54t47 54t32.5 48t23.5 48t6.5 43q0 41 -27 64.5t-75 23.5q-58 0 -99 -32t-51 -84l-3 -16
h-79l3 16q17 87 82 139.5t158 52.5q76 0 122 -44.5t46 -113.5z" />
    <glyph glyph-name="three.tf" horiz-adv-x="570" 
d="M555 665l-4 -19l-209 -232q68 -10 108 -57.5t40 -115.5q0 -105 -76.5 -179t-187.5 -74q-85 0 -134.5 48.5t-49.5 129.5q0 18 1 28h76q-5 -40 9.5 -69.5t42.5 -45t65 -15.5q74 0 126 52t52 121q0 51 -35.5 82.5t-94.5 31.5h-73l3 17l201 226h-270l14 71h396z" />
    <glyph glyph-name="four.tf" horiz-adv-x="570" 
d="M501 211l-14 -70h-72l-29 -141h-75l28 141h-341l4 19l335 505h81l-303 -454h239l55 209h62l-42 -209h72z" />
    <glyph glyph-name="five.tf" horiz-adv-x="570" 
d="M526 594h-267l-54 -174h97q86 0 140 -51.5t54 -129.5q0 -103 -77.5 -177t-185.5 -74q-85 0 -136 49t-51 127q0 10 2 30h77q-9 -58 24.5 -95t93.5 -37q71 0 123 50.5t52 121.5q0 51 -35 83t-93 32h-168l-10 13l94 303h334z" />
    <glyph glyph-name="six.tf" horiz-adv-x="570" 
d="M333 433q82 0 135.5 -52t53.5 -131q0 -109 -81.5 -184.5t-197.5 -75.5q-89 0 -143.5 52.5t-54.5 133.5q0 63 31 126t88 135l180 237h87q-163 -214 -198 -264q49 23 100 23zM253 65q79 0 136 54t57 127q0 53 -36.5 86t-96.5 33q-52 0 -96 -24t-70.5 -66t-26.5 -91
q0 -35 16.5 -62t46.5 -42t70 -15z" />
    <glyph glyph-name="seven.tf" horiz-adv-x="570" 
d="M138 665h449l-3 -14l-394 -651h-83l361 594h-344z" />
    <glyph glyph-name="eight.tf" horiz-adv-x="570" 
d="M441 354q21 -13 36 -32.5t22.5 -44t7.5 -52.5q0 -105 -78.5 -171t-195.5 -66q-91 0 -146 47.5t-55 123.5q0 66 36.5 121.5t97.5 84.5q-47 38 -47 110q0 92 69.5 148.5t173.5 56.5q82 0 131.5 -42.5t49.5 -109.5q0 -51 -28.5 -100t-73.5 -74zM353 613q-67 0 -112 -38
t-45 -96q0 -40 30.5 -64t82.5 -24q65 0 111 38t46 94q0 41 -30.5 65.5t-82.5 24.5zM242 58q79 0 132.5 45t53.5 114q0 48 -35.5 76.5t-97.5 28.5q-78 0 -131.5 -45t-53.5 -113q0 -48 35.5 -77t96.5 -29z" />
    <glyph glyph-name="nine.tf" horiz-adv-x="570" 
d="M354 680q89 0 143.5 -52t54.5 -134q0 -62 -31.5 -125.5t-86.5 -135.5l-181 -234h-86q161 210 194 257q-44 -19 -98 -19q-79 0 -134 51.5t-55 131.5q0 109 82 184.5t198 75.5zM284 305q79 0 136 52.5t57 127.5q0 54 -36.5 87t-96.5 33q-39 0 -75 -15t-61.5 -39.5t-41 -58
t-15.5 -69.5q0 -53 36.5 -85.5t96.5 -32.5z" />
    <glyph glyph-name="zero.dnom" horiz-adv-x="373" 
d="M136 -9q-57 0 -88.5 39t-31.5 104q0 49 13 93.5t37 79.5t60.5 56t79.5 21q57 0 88 -38.5t31 -103.5q0 -66 -21.5 -122t-65.5 -92.5t-102 -36.5zM144 56q36 0 64 29.5t41 70.5t13 82q0 26 -7.5 44t-22 27.5t-34.5 9.5q-36 0 -63.5 -29.5t-40.5 -70.5t-13 -81t16 -61
t47 -21z" />
    <glyph glyph-name="one.dnom" horiz-adv-x="205" 
d="M43 378h128l-75 -378h-66l64 321h-63z" />
    <glyph glyph-name="two.dnom" horiz-adv-x="320" 
d="M280 286q0 -18 -5 -35t-18 -37t-24 -34t-36 -38.5t-39 -37.5t-48 -44h138l-14 -60h-258l3 16q13 12 39 35q55 49 80.5 73.5t58.5 58.5t46 57.5t13 42.5q0 20 -12.5 31.5t-33.5 11.5q-56 0 -70 -65h-64q25 124 141 124q46 0 74.5 -28t28.5 -71z" />
    <glyph glyph-name="three.dnom" horiz-adv-x="321" 
d="M296 378l-2 -14l-111 -128q35 -9 56 -36t21 -64q0 -61 -42 -102t-107 -41q-55 0 -86.5 33t-24.5 88h62q-4 -26 10.5 -43.5t41.5 -17.5q24 0 43 12t29.5 30.5t10.5 39.5q0 23 -16.5 37.5t-44.5 14.5h-49l2 13l101 121h-139l12 57h233z" />
    <glyph glyph-name="four.dnom" horiz-adv-x="330" 
d="M280 131l-12 -55h-36l-16 -76h-62l16 76h-187l3 13l186 289h67l-160 -247h103l31 104h50l-20 -104h37z" />
    <glyph glyph-name="five.dnom" horiz-adv-x="317" 
d="M273 321h-144l-24 -80h40q51 0 82.5 -30.5t31.5 -76.5q0 -59 -43.5 -100t-106.5 -41q-57 0 -89 36t-21 85h64q-5 -26 10 -44t44 -18q32 0 55 23.5t23 57.5q0 23 -16 37.5t-42 14.5h-101l-7 9l58 184h196z" />
    </font>
</defs>
</svg>
