<?xml version="1.0" encoding="UTF-8"?><!DOCTYPE svg PUBLIC "-//W3C//DTD SVG 1.1//EN" "http://www.w3.org/Graphics/SVG/1.1/DTD/svg11.dtd"><svg xmlns="http://www.w3.org/2000/svg" xmlns:xlink="http://www.w3.org/1999/xlink"><symbol id="icon-fb" viewBox="0 0 7 12">
    <path fill-rule="evenodd" d="M6.736 0L5.057-.002c-1.886 0-3.105 1.063-3.105 2.708v1.248H.264c-.146 0-.264.1-.264.224v1.809c0 .124.118.224.264.224h1.688v5.563c0 .124.118.224.264.224h2.202c.146 0 .264-.1.264-.224V6.211h1.974c.146 0 .264-.1.264-.224l.001-1.809a.213.213 0 0 0-.077-.159.291.291 0 0 0-.187-.065H4.683V2.896c0-.509.142-.767.922-.767h1.131c.146 0 .264-.101.264-.225V.225C7 .102 6.882.001 6.736 0z"/>
</symbol><symbol id="icon-gp" viewBox="0 0 19 12">
    <path fill-rule="evenodd" d="M16.625 5.999v2.4h-1.188v-2.4h-2.375v-1.2h2.375v-2.4h1.188v2.4H19v1.2h-2.375zm-10.688 6c-3.274 0-5.937-2.691-5.937-6 0-3.308 2.663-6 5.937-6 1.427 0 2.799.519 3.868 1.459l-1.56 1.81a3.487 3.487 0 0 0-2.308-.869c-1.964 0-3.562 1.616-3.562 3.6 0 1.985 1.598 3.6 3.562 3.6 1.549 0 2.869-1.003 3.36-2.4h-3.36v-2.4h5.938v1.2c0 3.309-2.664 6-5.938 6z"/>
</symbol><symbol id="icon-in" viewBox="0 0 13 12">
    <path fill-rule="evenodd" d="M13 7.357v4.642h-2.786V7.667c0-1.088-.404-1.831-1.412-1.831-.77 0-1.228.501-1.43.985-.073.173-.092.414-.092.656v4.522H4.493s.037-7.336 0-8.097H7.28v1.147l-.019.027h.019v-.027c.37-.55 1.031-1.337 2.511-1.337C11.625 3.712 13 4.869 13 7.357zM1.577-.001C.623-.001 0 .603 0 1.398c0 .777.606 1.399 1.54 1.399h.019c.972 0 1.576-.622 1.576-1.399C3.117.603 2.531-.001 1.577-.001zm-1.412 12h2.787V3.902H.165v8.097z"/>
</symbol><symbol id="icon-tw" viewBox="0 0 13 11">
    <path fill-rule="evenodd" d="M13 1.301a5.42 5.42 0 0 1-1.536.439A2.749 2.749 0 0 0 12.637.206a5.215 5.215 0 0 1-1.69.671A2.623 2.623 0 0 0 9-.001c-1.475 0-2.663 1.247-2.663 2.776 0 .221.017.432.061.633C4.183 3.296 2.222 2.189.905.505.675.921.54 1.396.54 1.908c0 .961.476 1.814 1.184 2.307A2.558 2.558 0 0 1 .52 3.873v.03c0 1.349.924 2.469 2.135 2.728a2.59 2.59 0 0 1-.699.091 2.28 2.28 0 0 1-.504-.048c.345 1.1 1.325 1.907 2.49 1.934A5.22 5.22 0 0 1 0 9.754a7.285 7.285 0 0 0 4.088 1.245c4.905 0 7.586-4.231 7.586-7.898 0-.123-.004-.241-.01-.359A5.436 5.436 0 0 0 13 1.301z"/>
</symbol></svg>