<svg width="442" height="296" viewBox="0 0 442 296" fill="none" xmlns="http://www.w3.org/2000/svg">
<line x1="1" y1="172.5" x2="75" y2="172.5" stroke="#7A7F99" stroke-dasharray="2 2"/>
<line y1="-0.5" x2="74" y2="-0.5" transform="matrix(1 0 0 -1 1 103)" stroke="#7A7F99" stroke-dasharray="2 2"/>
<line x1="441" y1="103.5" x2="367" y2="103.5" stroke="#7A7F99" stroke-dasharray="2 2"/>
<line x1="1" y1="127.5" x2="75" y2="127.5" stroke="#7A7F99" stroke-dasharray="2 2"/>
<line x1="367" y1="127.5" x2="441" y2="127.5" stroke="#7A7F99" stroke-dasharray="2 2"/>
<line x1="97.5" y1="71" x2="97.5" y2="89" stroke="#7A7F99" stroke-dasharray="2 2"/>
<line x1="97.5" y1="1" x2="97.5" y2="33" stroke="#7A7F99" stroke-dasharray="2 2"/>
<line x1="344.5" y1="1" x2="344.5" y2="33" stroke="#7A7F99" stroke-dasharray="2 2"/>
<line x1="225.5" y1="71" x2="225.5" y2="89" stroke="#7A7F99" stroke-dasharray="2 2"/>
<line x1="344.5" y1="71" x2="344.5" y2="89" stroke="#7A7F99" stroke-dasharray="2 2"/>
<line x1="1.5" y1="173" x2="1.5" y2="187" stroke="#7A7F99" stroke-dasharray="2 2"/>
<line x1="0.5" y1="103" x2="0.499999" y2="71" stroke="#7A7F99" stroke-dasharray="2 2"/>
<line x1="97" y1="0.5" x2="169" y2="0.500006" stroke="#7A7F99" stroke-dasharray="2 2"/>
<line x1="273" y1="0.5" x2="344" y2="0.5" stroke="#7A7F99" stroke-dasharray="2 2"/>
<line y1="-0.5" x2="32" y2="-0.5" transform="matrix(4.37114e-08 -1 -1 -4.37114e-08 441 103)" stroke="#7A7F99" stroke-dasharray="2 2"/>
<line x1="1.5" y1="296" x2="1.5" y2="222" stroke="#7A7F99" stroke-dasharray="2 2"/>
<path d="M2 295.5L46 295.5" stroke="#7A7F99" stroke-dasharray="2 2"/>
<line x1="99.5" y1="258" x2="99.5" y2="274" stroke="#7A7F99" stroke-dasharray="2 2"/>
<line x1="340.5" y1="258" x2="340.5" y2="274" stroke="#7A7F99" stroke-dasharray="2 2"/>
</svg>
