<svg width="17" height="14" viewBox="0 0 17 14" fill="none" xmlns="http://www.w3.org/2000/svg">
<path fill-rule="evenodd" clip-rule="evenodd" d="M11.9402 1.23525H9.05824V0.617626C9.05824 0.277151 8.78186 0 8.44062 0C8.09937 0 7.82299 0.277151 7.82299 0.617626V1.23525H4.52873V0.617626C4.52873 0.277151 4.25235 0 3.9111 0C3.57063 0 3.29348 0.277151 3.29348 0.617626V1.23525H1.4406C1.05844 1.23525 0.691721 1.38734 0.421527 1.65755C0.151313 1.92776 0 2.29448 0 2.67662V12.5586C0 12.9408 0.151317 13.3075 0.421527 13.5777C0.691741 13.8479 1.05846 14 1.4406 14H15.4406C15.8228 14 16.1895 13.8479 16.4597 13.5777C16.7299 13.3075 16.8812 12.9408 16.8812 12.5586V2.67662C16.8812 2.29446 16.7299 1.92774 16.4597 1.65755C16.1895 1.38734 15.8228 1.23525 15.4406 1.23525H13.1755V0.617626C13.1755 0.277151 12.8991 0 12.5579 0C12.2174 0 11.9402 0.277151 11.9402 0.617626V1.23525ZM15.646 5.76477V12.5587C15.6468 12.6135 15.6251 12.666 15.5858 12.7046C15.5472 12.7432 15.4947 12.7648 15.4406 12.7648H1.44059C1.38654 12.7648 1.33405 12.7432 1.29544 12.7046C1.25607 12.666 1.23445 12.6135 1.23522 12.5587V5.76477H15.646ZM13.1755 2.4705V3.08813C13.1755 3.42937 12.8991 3.70575 12.5579 3.70575C12.2174 3.70575 11.9402 3.42937 11.9402 3.08813V2.4705H9.05824V3.08813C9.05824 3.42937 8.78186 3.70575 8.44062 3.70575C8.09937 3.70575 7.82299 3.42937 7.82299 3.08813V2.4705H4.52873V3.08813C4.52873 3.42937 4.25235 3.70575 3.9111 3.70575C3.57063 3.70575 3.29348 3.42937 3.29348 3.08813V2.4705H1.4406C1.38656 2.4705 1.33406 2.49212 1.29546 2.53072C1.25608 2.56932 1.23447 2.62182 1.23524 2.67664V4.52951H15.6468L15.646 2.67664C15.6468 2.62182 15.6251 2.56932 15.5858 2.53072C15.5472 2.49212 15.4947 2.4705 15.4406 2.4705H13.1755Z" fill="#2B5CFD"/>
</svg>
