<svg width="24" height="24" viewBox="0 0 24 24" fill="none" xmlns="http://www.w3.org/2000/svg">
<path d="M19 7H5C4.4 7 4 6.6 4 6C4 5.4 4.4 5 5 5H19C19.6 5 20 5.4 20 6C20 6.6 19.6 7 19 7Z" fill="#2B5CFD"/>
<path d="M12 11H5C4.4 11 4 10.6 4 10C4 9.4 4.4 9 5 9H12C12.6 9 13 9.4 13 10C13 10.6 12.6 11 12 11Z" fill="#2B5CFD"/>
<path d="M18 15H5C4.4 15 4 14.6 4 14C4 13.4 4.4 13 5 13H18C18.6 13 19 13.4 19 14C19 14.6 18.6 15 18 15Z" fill="#2B5CFD"/>
<path d="M15 19H5C4.4 19 4 18.6 4 18C4 17.4 4.4 17 5 17H15C15.6 17 16 17.4 16 18C16 18.6 15.6 19 15 19Z" fill="#2B5CFD"/>
</svg>
