<svg width="10" height="8" viewBox="0 0 10 8" fill="none" xmlns="http://www.w3.org/2000/svg">
<path d="M1.33333 4.91667C1.60833 4.91667 1.79167 4.825 1.975 4.64167L4.725 1.89166C5.09167 1.525 5.09167 0.974999 4.725 0.608332C4.35833 0.241665 3.80833 0.241665 3.44167 0.608332L0.691666 3.35833C0.324999 3.725 0.324999 4.275 0.691666 4.64167C0.874999 4.825 1.05833 4.91667 1.33333 4.91667Z" fill="#2B5CFD"/>
<path d="M4.08333 7.66667C4.35833 7.66667 4.54167 7.575 4.725 7.39166C5.09167 7.025 5.09167 6.475 4.725 6.10833L1.975 3.35833C1.60833 2.99167 1.05833 2.99167 0.691666 3.35833C0.324999 3.725 0.324999 4.275 0.691666 4.64166L3.44167 7.39166C3.625 7.575 3.80833 7.66667 4.08333 7.66667Z" fill="#2B5CFD"/>
<path d="M1.33337 4.91667H8.66671C9.21671 4.91667 9.58337 4.55 9.58337 4C9.58337 3.45 9.21671 3.08333 8.66671 3.08333H1.33337C0.783374 3.08333 0.416707 3.45 0.416707 4C0.416707 4.55 0.783374 4.91667 1.33337 4.91667Z" fill="#2B5CFD"/>
</svg>
