<svg width="20" height="21" viewBox="0 0 20 21" fill="none" xmlns="http://www.w3.org/2000/svg">
<path fill-rule="evenodd" clip-rule="evenodd" d="M16.8222 3.73126C16.4521 3.85583 16.0558 3.92334 15.6438 3.92334C13.8014 3.92334 12.2742 2.57355 11.9973 0.808911L11.8203 0.707947L2.61548 16.8415C3.0082 16.6991 3.43195 16.6215 3.87383 16.6215C5.78747 16.6215 7.361 18.0777 7.5468 19.9424L7.56662 19.9537L16.8222 3.73126Z" fill="url(#paint0_linear_105:2525)"/>
<path d="M19.6104 7.05287C19.1585 5.69624 18.4325 4.46489 17.4981 3.42455C17.2854 3.54836 17.0592 3.65152 16.8222 3.73128L7.56668 19.9537L7.55861 19.9491C7.56973 20.0658 7.57541 20.184 7.57541 20.3036C7.57541 20.3265 7.57521 20.3494 7.57479 20.3722C8.30138 20.5344 9.05689 20.62 9.83239 20.62C10.5595 20.62 11.269 20.5448 11.9536 20.4016C11.9529 20.3721 11.9526 20.3425 11.9526 20.3128C11.9526 19.2203 12.4272 18.2387 13.1814 17.5628C13.8359 16.972 14.703 16.6123 15.6541 16.6123C16.3499 16.6123 17.0007 16.8048 17.5562 17.1394C18.4795 16.0939 19.1941 14.8598 19.6348 13.5022C18.5001 12.8725 17.7321 11.6621 17.7321 10.2724C17.7321 9.17992 18.2067 8.19829 18.961 7.52243C19.1592 7.34353 19.3768 7.18582 19.6104 7.05287Z" fill="#C4C4C4"/>
<path d="M0.000793457 13.4339C0.434462 14.798 1.14414 16.039 2.0642 17.0913C2.24074 16.9911 2.42635 16.905 2.61949 16.8346L11.9974 0.808958C11.9679 0.620978 11.9526 0.428291 11.9526 0.232026C11.9526 0.228106 11.9526 0.224188 11.9526 0.220271C11.2651 0.0759101 10.5525 0 9.82215 0C9.0505 0 8.29863 0.0847374 7.57535 0.245415C7.56885 1.32884 7.09561 2.30161 6.34655 2.97281C5.69209 3.56362 4.82498 3.92334 3.87386 3.92334C3.23306 3.92334 2.63039 3.76006 2.1052 3.47283C1.18064 4.51766 0.464726 5.75139 0.0227016 7.10877C1.08594 7.75669 1.79586 8.92704 1.79586 10.2632C1.79586 11.3557 1.32127 12.3373 0.566996 13.0132C0.392557 13.1707 0.203011 13.3117 0.000793457 13.4339Z" fill="#C4C4C4"/>
<path d="M19.6032 7.05286C19.1513 5.69622 18.4253 4.46487 17.4909 3.42454C17.2782 3.54834 17.052 3.6515 16.815 3.73126L7.55946 19.9537L7.55139 19.9491C7.56251 20.0657 7.56819 20.184 7.56819 20.3036C7.56819 20.3265 7.56798 20.3493 7.56757 20.3722C8.29416 20.5344 9.04967 20.62 9.82517 20.62C10.5523 20.62 11.2618 20.5447 11.9464 20.4016C11.9457 20.3721 11.9454 20.3425 11.9454 20.3128C11.9454 19.2203 12.4199 18.2387 13.1742 17.5628C13.8286 16.972 14.6958 16.6123 15.6469 16.6123C16.3427 16.6123 16.9935 16.8048 17.549 17.1394C18.4723 16.0939 19.1869 14.8598 19.6276 13.5022C18.4929 12.8724 17.7249 11.6621 17.7249 10.2724C17.7249 9.17991 18.1995 8.19827 18.9538 7.52241C19.1519 7.34352 19.3696 7.18581 19.6032 7.05286Z" fill="url(#paint1_linear_105:2525)"/>
<path d="M0 13.4339C0.433668 14.798 1.14334 16.039 2.06341 17.0913C2.23994 16.9911 2.42555 16.905 2.6187 16.8346L11.9966 0.808958C11.9671 0.620978 11.9518 0.428291 11.9518 0.232026C11.9518 0.228106 11.9518 0.224188 11.9518 0.220271C11.2644 0.0759101 10.5517 0 9.82136 0C9.0497 0 8.29783 0.0847374 7.57455 0.245415C7.56806 1.32884 7.09482 2.30161 6.34575 2.97281C5.69129 3.56362 4.82419 3.92334 3.87307 3.92334C3.23226 3.92334 2.6296 3.76006 2.10441 3.47283C1.17985 4.51766 0.463933 5.75139 0.0219082 7.10877C1.08514 7.75669 1.79507 8.92704 1.79507 10.2632C1.79507 11.3557 1.32047 12.3373 0.566203 13.0132C0.391764 13.1707 0.202217 13.3117 0 13.4339Z" fill="url(#paint2_linear_105:2525)"/>
<path d="M10.0615 4.12506L5.71625 11.5499H9.34429L9.13335 17.1818L13.3731 9.67259H10.0615V4.12506Z" fill="white"/>
<defs>
<linearGradient id="paint0_linear_105:2525" x1="9.71882" y1="0.707947" x2="9.71882" y2="19.9537" gradientUnits="userSpaceOnUse">
<stop stop-color="#3BA2FF"/>
<stop offset="1" stop-color="#464DFD"/>
</linearGradient>
<linearGradient id="paint1_linear_105:2525" x1="10.2935" y1="19.8184" x2="17.5223" y2="4.20658" gradientUnits="userSpaceOnUse">
<stop stop-color="#464DFD"/>
<stop offset="0.49314" stop-color="#3D99FF"/>
<stop offset="0.851854" stop-color="#3E8DFF"/>
</linearGradient>
<linearGradient id="paint2_linear_105:2525" x1="8.90135" y1="-0.00920754" x2="2.04605" y2="15.7474" gradientUnits="userSpaceOnUse">
<stop stop-color="#464DFD"/>
<stop offset="0.49314" stop-color="#3D99FF"/>
<stop offset="0.851854" stop-color="#3E8DFF"/>
</linearGradient>
</defs>
</svg>
