<svg width="20" height="20" viewBox="0 0 20 20" fill="none" xmlns="http://www.w3.org/2000/svg">
<path d="M11.1786 10L13.8318 12.6524C14.1568 12.9774 14.1584 13.5024 13.831 13.8305C13.5052 14.1555 12.9779 14.1555 12.6529 13.8313L10.0005 11.1781L7.34811 13.8313C7.02311 14.1563 6.49811 14.1579 6.16999 13.8305C5.84499 13.5047 5.84499 12.9774 6.16921 12.6524L8.82241 10L6.16921 7.3476C5.84421 7.0226 5.84265 6.4976 6.16999 6.16948C6.49577 5.84448 7.02311 5.84448 7.34811 6.1687L10.0005 8.8219L12.6529 6.1687C12.9779 5.8437 13.5029 5.84214 13.831 6.16948C14.156 6.49526 14.156 7.0226 13.8318 7.3476L11.1786 10ZM10.0005 20C4.47789 20 0.000488281 15.5226 0.000488281 10C0.000488281 4.4774 4.47789 0 10.0005 0C15.5231 0 20.0005 4.4774 20.0005 10C20.0005 15.5226 15.5231 20 10.0005 20ZM10.0005 18.3336C14.6029 18.3336 18.3341 14.6024 18.3341 10C18.3341 5.3976 14.6029 1.6664 10.0005 1.6664C5.39809 1.6664 1.66689 5.3976 1.66689 10C1.66689 14.6024 5.39809 18.3336 10.0005 18.3336Z" fill="#BBBDC8"/>
</svg>
