<svg width="15" height="15" viewBox="0 0 15 15" fill="none" xmlns="http://www.w3.org/2000/svg">
<path d="M5.53306 1.99576C6.13657 0.910012 7.50646 0.518602 8.59276 1.12213C8.96014 1.32604 9.26308 1.62896 9.46697 1.99576L14.4176 10.9073C15.0211 11.9936 14.6297 13.3635 13.5434 13.967C13.2094 14.1527 12.8332 14.25 12.4506 14.25H2.54938C1.3066 14.25 0.299377 13.2427 0.299377 12C0.299377 11.6173 0.396643 11.2418 0.582382 10.9072L5.53306 1.99576ZM7.78546 2.39479C7.43858 2.25182 7.03136 2.38834 6.84445 2.72467L1.89385 11.6356C1.83174 11.7475 1.79951 11.8723 1.79951 12C1.79951 12.4143 2.13526 12.75 2.54951 12.75H12.4507C12.5784 12.75 12.7038 12.7178 12.8152 12.6557C13.1773 12.4547 13.3073 11.9977 13.1064 11.6356L8.15578 2.72466C8.08781 2.6022 7.98703 2.50142 7.86457 2.43287L7.78546 2.39479ZM7.50011 9.75004C7.91437 9.75004 8.25011 10.0858 8.25011 10.5C8.25011 10.9143 7.91437 11.25 7.50011 11.25C7.08586 11.25 6.75011 10.9143 6.75011 10.5C6.75011 10.0858 7.08586 9.75004 7.50011 9.75004ZM8.25011 5.25004V9.00004H6.75011V5.25004H8.25011Z" fill="#E2B827"/>
</svg>
