<svg width="20" height="24" viewBox="0 0 20 24" fill="none" xmlns="http://www.w3.org/2000/svg">
<path fill-rule="evenodd" clip-rule="evenodd" d="M10 5C7.2 5 5 7.2 5 10V14C5 15.5596 4.62128 16.9508 3.99895 18H6.8268C7.04233 17.9207 7.28078 17.9123 7.5 18H16.001C15.3787 16.9508 15 15.5596 15 14V10C15 7.2 12.8 5 10 5ZM9 1V3.06913C5.58317 3.54646 3 6.43992 3 10V14C3 16.3 1.9 18 1 18C0.4 18 0 18.4 0 19C0 19.6 0.4 20 1 20H6C6 22.2 7.8 24 10 24C12.2 24 14 22.2 14 20.1L13.9999 20H19C19.6 20 20 19.6 20 19C20 18.4 19.6 18 19 18C18.1 18 17 16.3 17 14V10C17 6.43992 14.4168 3.54646 11 3.06913V1C11 0.4 10.6 0 10 0C9.4 0 9 0.4 9 1ZM10 22C11.1 22 12 21.1 12 20H8C8 21.1 8.9 22 10 22Z" fill="#293155"/>
</svg>
