<svg width="13" height="13" viewBox="0 0 13 13" fill="none" xmlns="http://www.w3.org/2000/svg">
<g clip-path="url(#clip0_1:18412)">
<path d="M6.5 0C4.77594 0 3.1226 0.685035 1.90385 1.90385C0.6851 3.12266 0 4.77607 0 6.5C0 8.22393 0.685035 9.8774 1.90385 11.0962C3.12266 12.3149 4.77607 13 6.5 13C8.22393 13 9.8774 12.315 11.0962 11.0962C12.3149 9.87734 13 8.22393 13 6.5C13 4.77607 12.315 3.1226 11.0962 1.90385C9.87734 0.6851 8.22393 0 6.5 0V0ZM6.58074 9.81903C6.63762 9.8495 6.70566 9.8495 6.76253 9.81903C6.87476 9.73727 6.97683 9.64281 7.06671 9.53668C7.19671 9.3818 7.31096 9.21422 7.43995 9.04004L7.62073 9.14922C7.36073 9.5834 7.09311 9.98661 6.69499 10.2882C6.48576 10.4548 6.2349 10.5594 5.96983 10.5909C5.3498 10.661 4.95319 10.2385 5.10147 9.63012C5.23147 9.0959 5.39651 8.56929 5.54733 8.03918C5.69764 7.50903 5.84999 6.95754 6.00335 6.41925C6.01553 6.36644 6.02467 6.31261 6.03077 6.25827C6.05464 6.16636 6.03635 6.06886 5.98049 5.99167C5.92514 5.91499 5.8383 5.86674 5.74335 5.86015C5.6494 5.85202 5.55445 5.84847 5.45999 5.84999C5.46151 5.81901 5.46659 5.78804 5.47421 5.75757L5.49249 5.62757L7.73343 5.26855L7.57753 5.81191L7.54249 5.94191C7.21749 7.07738 6.89148 8.21691 6.56344 9.36C6.53043 9.44937 6.50859 9.5428 6.49996 9.63827C6.49996 9.70734 6.52891 9.77285 6.5807 9.81905L6.58074 9.81903ZM7.11902 4.03C6.90371 4.02848 6.69855 3.94164 6.54773 3.78878C6.39691 3.63542 6.31312 3.42875 6.31515 3.21343C6.31515 2.76757 6.67671 2.40652 7.12257 2.40652C7.56843 2.40652 7.92999 2.76757 7.92999 3.21343C7.92948 3.66233 7.5674 4.02644 7.11901 4.02999L7.11902 4.03Z" fill="#A5A8B6"/>
</g>
<defs>
<clipPath id="clip0_1:18412">
<rect width="13" height="13" fill="white"/>
</clipPath>
</defs>
</svg>
