<svg width="15" height="15" viewBox="0 0 15 15" fill="none" xmlns="http://www.w3.org/2000/svg">
<path d="M12.525 12.525C15.3 9.75 15.3 5.25 12.525 2.475C9.75002 -0.299997 5.25002 -0.299997 2.47502 2.475C-0.299982 5.25 -0.299982 9.75 2.47502 12.525C5.25002 15.3 9.75002 15.3 12.525 12.525ZM6.70487 4.0653C6.88475 3.67506 7.30487 3.4653 7.72499 3.57018C8.12987 3.67507 8.39999 4.0653 8.37011 4.50006C8.35487 4.78482 8.34023 5.05494 8.32499 5.3403C8.26523 6.3903 8.20487 7.4403 8.15975 8.475C8.14452 8.82012 7.85975 9.09024 7.51463 9.09024C7.15487 9.09024 6.88475 8.82012 6.86951 8.44512C6.85428 8.23536 6.85428 8.025 6.83963 7.81524C6.79451 7.14024 6.76463 6.46524 6.71951 5.77494C6.68963 5.34018 6.67439 4.90482 6.64451 4.47006C6.62986 4.34995 6.6451 4.19994 6.70486 4.06518L6.70487 4.0653ZM7.49999 9.705C7.97987 9.705 8.37011 10.0952 8.38475 10.5751C8.38475 11.055 7.99451 11.4452 7.51463 11.4452C7.04939 11.4452 6.64451 11.055 6.64451 10.5904C6.62986 10.1099 7.02009 9.70502 7.49997 9.70502L7.49999 9.705Z" fill="#F7696B"/>
</svg>
