<svg width="15" height="15" viewBox="0 0 15 15" fill="none" xmlns="http://www.w3.org/2000/svg">
<path d="M6.92399 1.22109C5.32724 1.36933 3.84719 2.12051 2.78489 3.32229C1.72317 4.52405 1.15949 6.08559 1.20869 7.68804C1.25849 9.29124 1.91709 10.8146 3.05084 11.9489C4.18521 13.0827 5.70869 13.7413 7.31174 13.7911C8.91434 13.8403 10.4758 13.2766 11.6775 12.2149C12.8792 11.1526 13.6305 9.67254 13.7787 8.07579C13.9451 6.21189 13.2765 4.36974 11.9535 3.04614C10.6299 1.7231 8.78774 1.05459 6.92384 1.22094L6.92399 1.22109ZM10.8885 6.07974L7.15484 9.77409C6.92222 10.0008 6.55074 10.0008 6.31812 9.77409L4.11732 7.67229C3.87825 7.44261 3.87006 7.06233 4.10033 6.82268C4.33001 6.58361 4.71029 6.57542 4.94995 6.80568L6.72595 8.50953L10.0499 5.22588C10.2872 5.00322 10.6587 5.00967 10.8878 5.2417C11.1163 5.47315 11.1187 5.84521 10.8931 6.07959L10.8885 6.07974Z" fill="#70D099"/>
</svg>
