<svg width="12" height="13" viewBox="0 0 12 13" fill="none" xmlns="http://www.w3.org/2000/svg">
<path d="M11.9062 10.0844L9.25625 7.4C9.6875 6.64687 9.9125 5.80937 9.9125 4.96562C9.9125 2.22812 7.6875 0 4.95625 0C2.225 0 0 2.22812 0 4.96562C0 7.70312 2.225 9.93125 4.95625 9.93125C5.82812 9.93125 6.69063 9.69063 7.45938 9.23125L10.0969 11.9062C10.1562 11.9656 10.2406 12.0031 10.325 12.0031C10.4094 12.0031 10.4938 11.9688 10.5531 11.9062L11.9062 10.5375C12.0312 10.4094 12.0312 10.2094 11.9062 10.0844ZM4.95625 1.93438C6.625 1.93438 7.98125 3.29375 7.98125 4.96562C7.98125 6.6375 6.625 7.99687 4.95625 7.99687C3.2875 7.99687 1.93125 6.6375 1.93125 4.96562C1.93125 3.29375 3.2875 1.93438 4.95625 1.93438Z" fill="#777A92"/>
</svg>
