<svg width="12" height="16" viewBox="0 0 12 16" fill="none" xmlns="http://www.w3.org/2000/svg">
<path d="M5.33333 16C5.26667 16 5.2 16 5.2 16C4.93333 15.9333 4.66667 15.6667 4.66667 15.3333V10.4L2.93333 11.2667C2.73333 11.3333 2.53333 11.3333 2.33333 11.2667C2.13333 11.2 2.06667 11 2 10.8L0 0.8C0 0.6 -1.29143e-07 0.4 0.133333 0.266667C0.266667 0.0666667 0.466667 0 0.666667 0H7.33333C7.53333 0 7.73333 0.0666667 7.86667 0.266667C8 0.4 8 0.6 8 0.8L6.93333 5.73333L10.4667 4.66667C10.7333 4.6 11 4.66667 11.2 4.86667C11.4 5.06667 11.4 5.33333 11.2667 5.6L5.93333 15.6C5.8 15.8667 5.6 16 5.33333 16ZM5.33333 8.66667C5.46667 8.66667 5.6 8.73333 5.66667 8.73333C5.86667 8.86667 6 9.06667 6 9.33333V12.6667L9.33333 6.4L6.2 7.33333C6 7.4 5.73333 7.33333 5.53333 7.2C5.33333 7.06667 5.26667 6.8 5.33333 6.6L6.53333 1.33333H1.46667L3.13333 9.66667L5 8.73333C5.13333 8.66667 5.2 8.66667 5.33333 8.66667Z" fill="#BBBDC8"/>
</svg>
