<svg width="16" height="16" viewBox="0 0 16 16" fill="none" xmlns="http://www.w3.org/2000/svg">
<path d="M8 16C3.6 16 0 12.4 0 8C0 3.6 3.6 0 8 0C12.4 0 16 3.6 16 8C16 12.4 12.4 16 8 16ZM8 1.33333C4.33333 1.33333 1.33333 4.33333 1.33333 8C1.33333 11.6667 4.33333 14.6667 8 14.6667C11.6667 14.6667 14.6667 11.6667 14.6667 8C14.6667 4.33333 11.6667 1.33333 8 1.33333Z" fill="#BBBDC8"/>
<path d="M10.6667 8.66665C10.4667 8.66665 10.3333 8.59998 10.2 8.46665L8.2 6.46665C7.93333 6.19998 7.93333 5.79998 8.2 5.53331C8.46667 5.26665 8.86667 5.26665 9.13333 5.53331L11.1333 7.53331C11.4 7.79998 11.4 8.19998 11.1333 8.46665C11 8.59998 10.8667 8.66665 10.6667 8.66665Z" fill="#BBBDC8"/>
<path d="M8.66667 10.6666C8.46667 10.6666 8.33333 10.6 8.2 10.4666C7.93333 10.2 7.93333 9.79998 8.2 9.53331L10.2 7.53331C10.4667 7.26665 10.8667 7.26665 11.1333 7.53331C11.4 7.79998 11.4 8.19998 11.1333 8.46665L9.13333 10.4666C9 10.6 8.86667 10.6666 8.66667 10.6666Z" fill="#BBBDC8"/>
<path d="M10.6667 8.66665H5.33335C4.93335 8.66665 4.66669 8.39998 4.66669 7.99998C4.66669 7.59998 4.93335 7.33331 5.33335 7.33331H10.6667C11.0667 7.33331 11.3334 7.59998 11.3334 7.99998C11.3334 8.39998 11.0667 8.66665 10.6667 8.66665Z" fill="#BBBDC8"/>
</svg>
