<svg width="16" height="16" viewBox="0 0 16 16" fill="none" xmlns="http://www.w3.org/2000/svg">
<path fill-rule="evenodd" clip-rule="evenodd" d="M3.32718 15.9575H12.6357C13.0347 15.9575 13.3006 15.6916 13.3006 15.2926V9.30857H15.2953C15.5613 9.30857 15.8273 9.17559 15.9602 8.90963C16.0267 8.64367 16.0267 8.37771 15.8273 8.17824L8.51338 0.199469C8.24742 -0.0664898 7.782 -0.0664898 7.51604 0.199469L0.202163 8.17824C0.00269406 8.37771 -0.0637957 8.64367 0.0691838 8.90963C0.135674 9.17559 0.401633 9.30857 0.667592 9.30857H2.66228V15.2926C2.66228 15.6916 2.92824 15.9575 3.32718 15.9575ZM11.9709 14.6277H3.99209V8.64363C3.99209 8.2447 3.72613 7.97874 3.32719 7.97874H2.19687L7.98148 1.66221L13.7661 7.97874H12.6358C12.2368 7.97874 11.9709 8.2447 11.9709 8.64363V14.6277Z" fill="#BBBDC8"/>
<path fill-rule="evenodd" clip-rule="evenodd" d="M6.65171 15.9575H9.3113C9.71024 15.9575 9.9762 15.6915 9.9762 15.2926V11.3032C9.9762 10.9043 9.71024 10.6383 9.3113 10.6383H6.65171C6.25278 10.6383 5.98682 10.9043 5.98682 11.3032V15.2926C5.98682 15.6915 6.25278 15.9575 6.65171 15.9575ZM8.64637 14.6278H7.31657V11.9682H8.64637V14.6278Z" fill="#BBBDC8"/>
<path fill-rule="evenodd" clip-rule="evenodd" d="M5.98682 6.64894C5.98682 7.77927 6.85118 8.64363 7.98151 8.64363C9.11183 8.64363 9.9762 7.77927 9.9762 6.64894C9.9762 5.51862 9.11183 4.65425 7.98151 4.65425C6.85118 4.65425 5.98682 5.51862 5.98682 6.64894ZM7.31657 6.64893C7.31657 6.24999 7.58253 5.98403 7.98147 5.98403C8.38041 5.98403 8.64637 6.24999 8.64637 6.64893C8.64637 7.04787 8.38041 7.31382 7.98147 7.31382C7.58253 7.31382 7.31657 7.04787 7.31657 6.64893Z" fill="#BBBDC8"/>
</svg>
