<svg width="16" height="16" viewBox="0 0 16 16" fill="none" xmlns="http://www.w3.org/2000/svg">
<g opacity="0.5">
<path fill-rule="evenodd" clip-rule="evenodd" d="M9.33333 15.0667L9.4 15.8667L10.0667 15.7333C11.4 15.3333 12.6 14.6667 13.5333 13.7333L14.0667 13.2L13.4667 12.7333C12.9333 12.3333 12.8 11.6 13.1333 11C13.4667 10.4 14.2 10.1333 14.8 10.4L15.5333 10.6667L15.7333 9.93333C15.9333 9.26667 16 8.6 16 7.93333C16 7.26667 15.8667 6.60001 15.7333 5.93335L15.7333 5.93333L15.6 5.33333L14.8667 5.6C14.7333 5.66667 14.6 5.66667 14.4 5.66667C13.9333 5.66667 13.5333 5.4 13.2667 5C12.9333 4.4 13.0667 3.66667 13.6 3.26667L14.2 2.8L13.6667 2.26667C12.6667 1.33333 11.4667 0.6 10.2 0.266667L9.46667 0.0666667L9.33333 0.8C9.2 1.46667 8.66667 1.93333 8 1.93333C7.33333 1.93333 6.73333 1.46667 6.66667 0.8L6.6 0L5.86667 0.2C4.53333 0.6 3.4 1.26667 2.4 2.2L1.86667 2.73333L2.53333 3.13333C3.06667 3.53333 3.2 4.26667 2.86667 4.86667C2.53333 5.46667 1.8 5.73333 1.2 5.46667L0.466667 5.2L0.266667 5.93333C0.0666667 6.6 0 7.26667 0 7.93333C0 8.6 0.0666667 9.26667 0.266667 9.93333L0.333333 10.5333L1.06667 10.2667C1.66667 10.0667 2.4 10.3333 2.73333 10.8667C3.06667 11.4667 2.93333 12.2 2.4 12.6L1.8 13.0667L2.33333 13.6C3.33333 14.5333 4.53333 15.2667 5.8 15.6L6.53333 15.8L6.66667 15.0667C6.8 14.4 7.33333 13.9333 8 13.9333C8.66667 13.9333 9.26667 14.4 9.33333 15.0667ZM10.4 14.1333C10 13.2 9.06667 12.6 8 12.6C6.93333 12.6 6 13.2 5.53333 14.1333C4.93333 13.9333 4.33333 13.5333 3.8 13.1333C4.4 12.3333 4.46667 11.2 3.93333 10.2667C3.4 9.33334 2.4 8.86668 1.4 8.93334C1.33333 8.60001 1.33333 8.26668 1.33333 7.93334C1.33333 7.60001 1.33333 7.26668 1.4 6.93334C2.4 7.00001 3.4 6.46668 3.93333 5.60001C4.46667 4.66668 4.4 3.53334 3.8 2.73334C4.33333 2.33334 4.93333 1.93334 5.6 1.73334C6 2.66668 6.93333 3.26668 8 3.26668C9.06667 3.26668 10 2.66668 10.4 1.73334C11 1.93334 11.6 2.33334 12.1333 2.73334C11.5333 3.53334 11.4667 4.66668 12 5.60001C12.4667 6.40001 13.4 6.93334 14.3333 6.93334H14.6C14.6667 7.26668 14.6667 7.60001 14.6667 7.93334C14.6667 8.26668 14.6667 8.60001 14.5333 8.93334C13.5333 8.86668 12.5333 9.40001 12 10.2667C11.4667 11.2 11.5333 12.3333 12.1333 13.1333C11.6 13.5333 11 13.8667 10.4 14.1333Z" fill="#777A92"/>
<path fill-rule="evenodd" clip-rule="evenodd" d="M5.33331 7.93333C5.33331 9.4 6.53331 10.6 7.99998 10.6C9.46665 10.6 10.6666 9.4 10.6666 7.93333C10.6666 6.46666 9.46665 5.26666 7.99998 5.26666C6.53331 5.26666 5.33331 6.46666 5.33331 7.93333ZM6.66661 7.93332C6.66661 7.19999 7.26661 6.59999 7.99995 6.59999C8.73328 6.59999 9.33328 7.19999 9.33328 7.93332C9.33328 8.66666 8.73328 9.26666 7.99995 9.26666C7.26661 9.26666 6.66661 8.66666 6.66661 7.93332Z" fill="#777A92"/>
</g>
</svg>
