<svg width="16" height="14" viewBox="0 0 16 14" fill="none" xmlns="http://www.w3.org/2000/svg">
<path fill-rule="evenodd" clip-rule="evenodd" d="M3.33333 9.33937H7.33333C7.73333 9.33937 8 9.0727 8 8.6727V3.33937C8 2.93937 7.73333 2.6727 7.33333 2.6727H3.33333C1.46667 2.6727 0 4.13937 0 6.00603C0 7.8727 1.53333 9.33937 3.33333 9.33937ZM1.33332 6.00603C1.33332 4.8727 2.26665 4.00603 3.33332 4.00603H6.66665V8.00603H3.33332C2.19998 8.00603 1.33332 7.13937 1.33332 6.00603Z" fill="#BBBDC8"/>
<path fill-rule="evenodd" clip-rule="evenodd" d="M15.1334 11.9393C15.2 12.006 15.2667 12.006 15.3334 12.006C15.4667 12.006 15.6 11.9393 15.7334 11.8727C15.8667 11.7393 16 11.5393 16 11.3393V0.672678C16 0.472678 15.8667 0.272678 15.7334 0.139345C15.5334 0.00601133 15.3334 -0.0606553 15.1334 0.072678L7.13335 2.73934C6.86669 2.80601 6.66669 3.07268 6.66669 3.33934V8.67268C6.66669 8.93934 6.86669 9.20601 7.13335 9.27268L15.1334 11.9393ZM14.6667 10.406L8 8.20598V3.80598L14.6667 1.60598V10.406Z" fill="#BBBDC8"/>
<path fill-rule="evenodd" clip-rule="evenodd" d="M2.1333 13.0726C2.26664 13.206 2.46664 13.3393 2.66664 13.3393H5.3333C5.59997 13.3393 5.86664 13.1393 5.9333 12.8726L7.26664 8.87263C7.3333 8.67263 7.3333 8.47263 7.19997 8.27263C7.06664 8.1393 6.86664 8.00597 6.66664 8.00597H3.99997C3.7333 8.00597 3.46664 8.20597 3.39997 8.47263L2.06664 12.4726C1.9333 12.6726 1.99997 12.8726 2.1333 13.0726ZM4.86669 12.006H3.60002L4.46669 9.33931H5.73335L4.86669 12.006Z" fill="#BBBDC8"/>
</svg>
