<svg width="16" height="16" viewBox="0 0 16 16" fill="none" xmlns="http://www.w3.org/2000/svg">
<path d="M15.3333 16H2.66667C1.2 16 0 14.8 0 13.3333V0.666667C0 0.266667 0.266667 0 0.666667 0C1.06667 0 1.33333 0.266667 1.33333 0.666667V13.3333C1.33333 14.0667 1.93333 14.6667 2.66667 14.6667H15.3333C15.7333 14.6667 16 14.9333 16 15.3333C16 15.7333 15.7333 16 15.3333 16Z" fill="#BBBDC8"/>
<path d="M3.33335 13.3333C2.93335 13.3333 2.66669 13.0667 2.66669 12.6667V9.33334C2.66669 8.93334 2.93335 8.66667 3.33335 8.66667C3.73335 8.66667 4.00002 8.93334 4.00002 9.33334V12.6667C4.00002 13.0667 3.73335 13.3333 3.33335 13.3333Z" fill="#BBBDC8"/>
<path d="M5.99998 13.3333C5.59998 13.3333 5.33331 13.0667 5.33331 12.6667V6.66667C5.33331 6.26667 5.59998 6 5.99998 6C6.39998 6 6.66665 6.26667 6.66665 6.66667V12.6667C6.66665 13.0667 6.39998 13.3333 5.99998 13.3333Z" fill="#BBBDC8"/>
<path d="M8.66667 13.3333C8.26667 13.3333 8 13.0667 8 12.6667V7.99999C8 7.59999 8.26667 7.33333 8.66667 7.33333C9.06667 7.33333 9.33333 7.59999 9.33333 7.99999V12.6667C9.33333 13.0667 9.06667 13.3333 8.66667 13.3333Z" fill="#BBBDC8"/>
<path d="M11.3334 13.3333C10.9334 13.3333 10.6667 13.0667 10.6667 12.6667V4.66667C10.6667 4.26667 10.9334 4 11.3334 4C11.7334 4 12 4.26667 12 4.66667V12.6667C12 13.0667 11.7334 13.3333 11.3334 13.3333Z" fill="#BBBDC8"/>
<path d="M14 13.3333C13.6 13.3333 13.3333 13.0667 13.3333 12.6667V8.66667C13.3333 8.26667 13.6 8 14 8C14.4 8 14.6666 8.26667 14.6666 8.66667V12.6667C14.6666 13.0667 14.4 13.3333 14 13.3333Z" fill="#BBBDC8"/>
</svg>
