<svg width="16" height="16" viewBox="0 0 16 16" fill="none" xmlns="http://www.w3.org/2000/svg">
<path d="M4 12.6667H2.66667C1.2 12.6667 0 11.4667 0 10V9.33335C0 7.86669 1.2 6.66669 2.66667 6.66669H4C4.4 6.66669 4.66667 6.93335 4.66667 7.33335V12C4.66667 12.4 4.4 12.6667 4 12.6667ZM2.66667 8.00002C1.93333 8.00002 1.33333 8.60002 1.33333 9.33335V10C1.33333 10.7334 1.93333 11.3334 2.66667 11.3334H3.33333V8.00002H2.66667Z" fill="#BBBDC8"/>
<path d="M13.3333 12.6667H12C11.6 12.6667 11.3333 12.4 11.3333 12V7.33335C11.3333 6.93335 11.6 6.66669 12 6.66669H13.3333C14.8 6.66669 16 7.86669 16 9.33335V10C16 11.4667 14.8 12.6667 13.3333 12.6667ZM12.6666 11.3334H13.3333C14.0666 11.3334 14.6666 10.7334 14.6666 10V9.33335C14.6666 8.60002 14.0666 8.00002 13.3333 8.00002H12.6666V11.3334Z" fill="#BBBDC8"/>
<path d="M13.9333 8.06667C13.8666 8.06667 13.8666 8.06667 13.8 8.06667C13.4666 8 13.2 7.66667 13.2666 7.33333C13.2666 7.13333 13.3333 6.93333 13.3333 6.66667C13.3333 3.73333 10.9333 1.33333 7.99998 1.33333C5.06665 1.33333 2.66665 3.73333 2.66665 6.66667C2.66665 6.93333 2.66665 7.13333 2.73331 7.33333C2.79998 7.66667 2.53331 8.06667 2.19998 8.06667C1.86665 8.13333 1.46665 7.86667 1.46665 7.53333C1.33331 7.26667 1.33331 7 1.33331 6.66667C1.33331 3 4.33331 0 7.99998 0C11.6666 0 14.6666 3 14.6666 6.66667C14.6666 7 14.6666 7.26667 14.6 7.53333C14.5333 7.86667 14.2666 8.06667 13.9333 8.06667Z" fill="#BBBDC8"/>
<path d="M8 16C6.53333 16 6 14.8 6 14C6 13.2 6.53333 12 8 12C9.46667 12 10 13.2 10 14C10 14.1333 10 14.2667 9.93333 14.4C11.4 14 12.4 13.0667 12.9333 11.7333C13.0667 11.4 13.4667 11.2 13.8 11.3333C14.1333 11.4667 14.3333 11.8667 14.2 12.2C13.5333 13.9333 11.8667 16 8 16ZM8 13.3333C7.46667 13.3333 7.33333 13.7333 7.33333 14C7.33333 14.2667 7.46667 14.6667 8 14.6667C8.53333 14.6667 8.66667 14.2667 8.66667 14C8.66667 13.7333 8.53333 13.3333 8 13.3333Z" fill="#BBBDC8"/>
</svg>
