<svg width="11" height="16" viewBox="0 0 11 16" fill="none" xmlns="http://www.w3.org/2000/svg">
<path d="M7.3389 12.6667H3.3389C2.9389 12.6667 2.67223 12.4 2.67223 12V11.6667C2.67223 10.7333 2.27223 9.8 1.5389 9.06667C0.472234 8 -0.0610996 6.6 0.00556704 5.13333C0.1389 2.33333 2.47223 0.0666667 5.27223 0H5.3389C8.27223 0 10.6722 2.4 10.6722 5.33333C10.6722 6.73333 10.1389 8.13333 9.07223 9.13333C8.3389 9.8 8.00557 10.7333 8.00557 11.6667V12C8.00557 12.4 7.7389 12.6667 7.3389 12.6667ZM4.00557 11.3333H6.67223C6.7389 10.1333 7.27223 9.06667 8.1389 8.13333C8.9389 7.4 9.3389 6.4 9.3389 5.33333C9.3389 3.13333 7.5389 1.33333 5.3389 1.33333H5.27223C3.20557 1.4 1.40557 3.06667 1.3389 5.2C1.27223 6.26667 1.7389 7.33333 2.47223 8.13333C3.40557 9.06667 3.9389 10.2 4.00557 11.3333Z" fill="#BBBDC8"/>
<path d="M5.33891 16C3.87224 16 2.67224 14.8 2.67224 13.3333V12C2.67224 11.6 2.93891 11.3333 3.33891 11.3333H7.33891C7.73891 11.3333 8.00557 11.6 8.00557 12V13.3333C8.00557 14.8 6.80557 16 5.33891 16ZM4.00557 12.6666V13.3333C4.00557 14.0666 4.60557 14.6666 5.33891 14.6666C6.07224 14.6666 6.67224 14.0666 6.67224 13.3333V12.6666H4.00557Z" fill="#BBBDC8"/>
<path d="M3.33891 6.00002C2.93891 6.00002 2.67224 5.73335 2.67224 5.33335C2.67224 3.86669 3.87224 2.66669 5.33891 2.66669C5.73891 2.66669 6.00557 2.93335 6.00557 3.33335C6.00557 3.73335 5.73891 4.00002 5.33891 4.00002C4.60557 4.00002 4.00557 4.60002 4.00557 5.33335C4.00557 5.73335 3.73891 6.00002 3.33891 6.00002Z" fill="#BBBDC8"/>
</svg>
