<svg width="12" height="16" viewBox="0 0 12 16" fill="none" xmlns="http://www.w3.org/2000/svg">
<path d="M11.3333 16H0.666667C0.266667 16 0 15.7333 0 15.3333V0.666667C0 0.266667 0.266667 0 0.666667 0H11.3333C11.7333 0 12 0.266667 12 0.666667V15.3333C12 15.7333 11.7333 16 11.3333 16ZM1.33333 14.6667H10.6667V1.33333H1.33333V14.6667Z" fill="#BBBDC8"/>
<path d="M6.66669 4.66667H3.33335C2.93335 4.66667 2.66669 4.4 2.66669 4C2.66669 3.6 2.93335 3.33333 3.33335 3.33333H6.66669C7.06669 3.33333 7.33335 3.6 7.33335 4C7.33335 4.4 7.06669 4.66667 6.66669 4.66667Z" fill="#BBBDC8"/>
<path d="M8.66669 7.33333H3.33335C2.93335 7.33333 2.66669 7.06667 2.66669 6.66667C2.66669 6.26667 2.93335 6 3.33335 6H8.66669C9.06669 6 9.33335 6.26667 9.33335 6.66667C9.33335 7.06667 9.06669 7.33333 8.66669 7.33333Z" fill="#BBBDC8"/>
<path d="M7.33335 10H3.33335C2.93335 10 2.66669 9.73333 2.66669 9.33333C2.66669 8.93333 2.93335 8.66667 3.33335 8.66667H7.33335C7.73335 8.66667 8.00002 8.93333 8.00002 9.33333C8.00002 9.73333 7.73335 10 7.33335 10Z" fill="#BBBDC8"/>
<path d="M8.66669 12.6667H3.33335C2.93335 12.6667 2.66669 12.4 2.66669 12C2.66669 11.6 2.93335 11.3333 3.33335 11.3333H8.66669C9.06669 11.3333 9.33335 11.6 9.33335 12C9.33335 12.4 9.06669 12.6667 8.66669 12.6667Z" fill="#BBBDC8"/>
</svg>
