<svg width="16" height="16" viewBox="0 0 16 16" fill="none" xmlns="http://www.w3.org/2000/svg">
<g clip-path="url(#clip0_1:18343)">
<path d="M10 16C9.8 16 9.66667 15.9333 9.53333 15.8L0.2 6.46668C0.0666667 6.33335 0 6.06668 0 5.86668C0.0666667 5.66668 0.2 5.46668 0.4 5.40001L15.0667 0.066681C15.3333 1.43312e-05 15.6 0.066681 15.7333 0.200014C15.9333 0.400014 16 0.666681 15.8667 0.866681L10.5333 15.5333C10.4667 15.7333 10.2667 15.9333 10.0667 15.9333C10.0667 16 10.0667 16 10 16ZM1.86667 6.26668L9.73333 14.1333L14.2 1.80001L1.86667 6.26668Z" fill="#BBBDC8"/>
<path d="M4.00003 10C3.80003 10 3.60003 9.93335 3.46669 9.73335C3.26669 9.46668 3.26669 9.00002 3.60003 8.80002L14.9334 0.133348C15.2 -0.0666516 15.6667 -0.0666516 15.8667 0.266682C16.0667 0.533348 16.0667 1.00002 15.7334 1.20002L4.40003 9.86668C4.26669 9.93335 4.13336 10 4.00003 10Z" fill="#BBBDC8"/>
<path d="M3.99998 15.3333C3.59998 15.3333 3.33331 15.0667 3.33331 14.6667V9.33334C3.33331 8.93334 3.59998 8.66667 3.99998 8.66667C4.39998 8.66667 4.66665 8.93334 4.66665 9.33334V14.6667C4.66665 15.0667 4.39998 15.3333 3.99998 15.3333Z" fill="#BBBDC8"/>
<path d="M4.00001 15.3334C3.86668 15.3334 3.73335 15.2667 3.60001 15.2C3.33335 15 3.26668 14.5333 3.53335 14.2667L5.86668 11.3334C6.06668 11.0667 6.53335 11 6.80001 11.2667C7.06668 11.4667 7.13335 11.9333 6.86668 12.2L4.46668 15.1334C4.40001 15.2667 4.20001 15.3334 4.00001 15.3334Z" fill="#BBBDC8"/>
</g>
<defs>
<clipPath id="clip0_1:18343">
<rect width="16" height="16" fill="white"/>
</clipPath>
</defs>
</svg>
