<svg width="14" height="14" viewBox="0 0 14 14" fill="none" xmlns="http://www.w3.org/2000/svg">
<path d="M6.99628 1.27648C6.63768 1.2807 6.3494 1.57531 6.35503 1.93459L6.34448 8.42017C6.34308 9.28783 7.64457 9.28923 7.64527 8.42228L7.65582 1.93598C7.66074 1.57037 7.36262 1.27083 6.99628 1.27644V1.27648Z" fill="white"/>
<path d="M6.99083 0.332935C6.33271 0.332935 5.67528 0.588175 5.17534 1.09723L2.85929 3.40699C2.5949 3.65871 2.58858 4.07848 2.84663 4.33723C3.10538 4.59669 3.52584 4.59177 3.77827 4.32669L6.09721 2.01333L6.10354 2.007C6.659 1.44169 7.32065 1.43816 7.90143 2.01755L10.2211 4.33289C10.4756 4.586 10.8869 4.586 11.1408 4.33078C11.3939 4.07624 11.3939 3.66492 11.1387 3.41108L8.8183 1.09718C8.30854 0.588828 7.6497 0.333588 6.99094 0.332886L6.99083 0.332935Z" fill="white"/>
<path d="M0.988865 8.9538C0.631673 8.96013 0.344807 9.25404 0.350423 9.61192V11.9463C0.350423 12.371 0.493158 12.8414 0.847529 13.1754C1.20262 13.5101 1.71027 13.6648 2.28753 13.6648H11.7129C12.2908 13.6648 12.7978 13.5094 13.1522 13.1754C13.5073 12.8407 13.65 12.371 13.65 11.9463L13.6493 9.61192C13.6626 9.24278 13.368 8.93762 12.9996 8.93762C12.6304 8.93762 12.3358 9.24278 12.3506 9.61192V11.9463C12.3506 12.113 12.3161 12.1777 12.262 12.2297C12.2065 12.2817 12.0693 12.364 11.7122 12.364H2.28681C1.93032 12.364 1.79251 12.2817 1.73767 12.2297C1.68282 12.1777 1.64907 12.113 1.64907 11.9463V9.61192C1.6547 9.2463 1.35587 8.94817 0.988832 8.9538H0.988865Z" fill="white"/>
</svg>
