<svg width="99" height="25" fill="none" xmlns="http://www.w3.org/2000/svg"><path fill-rule="evenodd" clip-rule="evenodd" d="M87.241 11.1s-1.36 2.655-2.817 3.958h-1.652c-1.408-1.255-2.817-3.958-2.817-3.958v8.301h-4.177V7.095h4.857l2.963 4.488 2.963-4.488h4.858V19.4H87.24v-8.3ZM37.646 9.846c-.923 0-2.283.723-2.526 1.496.34.627 1.652 1.158 2.477 1.11.875 0 1.506-.483 1.506-1.303s-.631-1.303-1.457-1.303Zm30.36 0c-.923 0-2.284.723-2.526 1.496.34.627 1.651 1.158 2.477 1.11.874 0 1.506-.483 1.506-1.303s-.632-1.303-1.457-1.303ZM22.247 16.12c-1.652 0-3.06-1.98-3.304-3.186.243-1.206 1.652-3.233 3.303-3.185 1.604 0 2.332 1.4 2.332 3.185 0 1.738-.729 3.186-2.332 3.186Zm30.262-6.033c-1.652 0-3.06 1.834-3.303 3.04.243 1.255 1.603 3.379 3.303 3.33 1.603 0 2.332-1.4 2.332-3.185 0-1.737-.73-3.185-2.332-3.185Zm-13.844 6.37c.826 0 2.283-.192 2.817-.482l1.75 2.22c-1.118.917-3.644 1.544-5.296 1.544-4.42 0-7.237-2.654-7.237-6.612 0-3.909 3.303-6.563 7.14-6.563 3.546 0 4.955 2.316 4.955 4.343 0 2.51-2.137 3.813-4.566 3.813-1.215 0-2.429-.338-3.303-1.062.145 1.545 1.846 2.8 3.74 2.8Zm30.36 0c.825 0 2.283-.192 2.817-.482l1.749 2.22c-1.118.917-3.644 1.544-5.295 1.544-4.42 0-7.238-2.654-7.238-6.612 0-3.909 3.303-6.563 7.14-6.563 3.547 0 4.956 2.316 4.956 4.343 0 2.51-2.138 3.813-4.567 3.813-1.214 0-2.428-.338-3.303-1.062.146 1.545 1.846 2.8 3.74 2.8ZM5.149 19.74c1.943 0 3.449-1.448 3.449-1.448v.773c0 1.882-1.166 2.895-4.13 2.895-.825 0-2.282-.434-2.816-.724L.34 23.215c1.117.916 3.206 1.737 5.246 1.785 4.08 0 6.898-2.172 6.898-6.226V7.094H8.306v6.42c0 1.93-1.068 2.413-2.137 2.413s-1.992-.483-1.992-2.413v-6.42H0v7.288c0 3.282 1.603 5.357 5.149 5.357Zm53.87-6.756c0 4.73-3.206 6.756-6.12 6.756-1.36 0-2.43-.53-3.11-1.351v6.081h-4.177V7.046h2.38c.389.628.632 1.207.875 1.834h.146s1.748-2.316 4.566-2.316c2.817 0 5.44 2.22 5.44 6.419ZM23.608 6.612c-2.818 0-4.324 2.027-4.324 2.027h-.145c-.292-2.124.971-3.427 4.177-3.716 1.895-.193 4.858-1.11 5.878-2.172L27.202 0c-1.554.772-3.254 1.014-5.343 1.303-2.477.338-6.995 1.834-7.044 8.929 0 6.853 3.74 9.556 7.287 9.556 3.4 0 6.606-2.607 6.606-6.757 0-4.199-2.526-6.419-5.1-6.419Zm72.911 8.542c-1.36 0-2.623 1.69-2.817 2.751.194 1.014 1.409 2.751 2.817 2.751.243 0 .437-.048.632-.096.971-.29 1.408-1.4 1.408-2.655 0-1.4-.534-2.558-1.7-2.75h-.34Z" fill="#404040"/></svg>