<svg width="18" height="18" fill="none" xmlns="http://www.w3.org/2000/svg"><g clip-path="url(#clip0)" fill="#5B7087"><path d="M9.576 8.761V4.114a.576.576 0 0 0-1.152 0V9c0 .153.061.299.169.407l3.015 3.015a.575.575 0 1 0 .814-.814L9.576 8.76z"/><path d="M18 9v-.007C17.995 4.033 13.96 0 9 0 4.037 0 0 4.037 0 9c0 4.962 4.037 9 9 9 4.96 0 8.995-4.033 9-8.992V9zm-8.424 7.828v-.896a.576.576 0 0 0-1.152 0v.896a7.86 7.86 0 0 1-7.25-7.252h.895a.576.576 0 1 0 0-1.151h-.896a7.86 7.86 0 0 1 7.25-7.251v.895a.576.576 0 0 0 1.153 0v-.895a7.86 7.86 0 0 1 7.25 7.25h-.895a.576.576 0 1 0 0 1.152h.896a7.86 7.86 0 0 1-7.251 7.252z"/></g><defs><clipPath id="clip0"><path fill="#fff" d="M0 0h18v18H0z"/></clipPath></defs></svg>