<svg width="21" height="14" fill="none" xmlns="http://www.w3.org/2000/svg"><path d="M20.896 6.751C18.758 3.134 14.877.867 10.694.867c-4.182 0-8.067 2.267-10.2 5.884a.393.393 0 0 0 0 .436c2.137 3.617 6.018 5.885 10.2 5.885 4.183 0 8.068-2.268 10.202-5.885a.393.393 0 0 0 0-.436zM10.694 12.2a10.902 10.902 0 0 1-9.287-5.23 10.902 10.902 0 0 1 9.287-5.231c3.793 0 7.326 2.003 9.288 5.23a10.902 10.902 0 0 1-9.288 5.23z" fill="#9B9B9B"/><path d="M10.694 3.046A3.907 3.907 0 0 0 6.771 6.97a3.907 3.907 0 0 0 3.923 3.923 3.907 3.907 0 0 0 3.923-3.923 3.907 3.907 0 0 0-3.923-3.923zm0 6.974a3.033 3.033 0 0 1-3.05-3.05 3.036 3.036 0 0 1 3.05-3.052 3.035 3.035 0 0 1 3.051 3.051 3.033 3.033 0 0 1-3.05 3.051z" fill="#9B9B9B"/><path d="M10.694 5.226v.872c.478 0 .872.394.872.871a.877.877 0 0 1-.872.872.876.876 0 0 1-.871-.872H8.95c0 .96.784 1.744 1.743 1.744.96 0 1.744-.784 1.744-1.744s-.784-1.743-1.744-1.743z" fill="#9B9B9B"/></svg>