<svg width="85" height="85" fill="none" xmlns="http://www.w3.org/2000/svg"><path stroke="#fff" stroke-width="2" d="M1 1h83v83H1z"/><path d="M43.229 49.55a1.249 1.249 0 0 0 0 1.759 1.25 1.25 0 0 0 1.758 0 1.25 1.25 0 0 0 0-1.759 1.234 1.234 0 0 0-1.758 0zm-6.159-5.063a1.25 1.25 0 0 0-1.76 0 1.25 1.25 0 0 0 0 1.758 1.25 1.25 0 0 0 1.76 0 1.249 1.249 0 0 0 0-1.758z" fill="#fff"/><path d="M56.906 24.536c-.385-.933-1.563-2.503-5.145-2.536h-.115c-2.2 0-4.818.58-7.395 1.644-.474.197-.932.401-1.374.622l-.025-.025a3.798 3.798 0 0 0-5.292 0l-7.215 7.01a4.912 4.912 0 0 0-1.497 3.534v23.747A3.47 3.47 0 0 0 32.317 62h15.787a3.47 3.47 0 0 0 3.468-3.468V34.785c0-.679-.139-1.35-.409-1.955 1.53-.859 2.863-1.84 3.886-2.87 2.503-2.545 2.241-4.492 1.857-5.424zM33.184 45.37a3.01 3.01 0 0 1 3.002-3.002 3.01 3.01 0 0 1 3.002 3.002 3.01 3.01 0 0 1-3.002 3.002 3.01 3.01 0 0 1-3.002-3.002zm2.552 7.853a.737.737 0 0 1-.098-1.03l7.885-9.498a.737.737 0 0 1 1.03-.098c.312.262.353.72.1 1.03l-7.886 9.498a.737.737 0 0 1-1.031.098zm8.376.213a3.01 3.01 0 0 1-3.002-3.002 3.01 3.01 0 0 1 3.002-3.002 3.01 3.01 0 0 1 3.002 3.002 3.01 3.01 0 0 1-3.002 3.002zm3.33-22.054c-1.506.622-3.052 1.064-4.459 1.276 0 .066.009.123.009.189a2.87 2.87 0 0 1-2.872 2.87 2.87 2.87 0 0 1-2.87-2.87 2.87 2.87 0 0 1 5.177-1.71 20.22 20.22 0 0 0 4.188-1.227c.5-.204.965-.417 1.407-.638l-2.895-2.822a3.17 3.17 0 0 0 .245-.106c2.2-.908 4.483-1.424 6.282-1.424h.082c1.726.017 2.372.483 2.47.728.303.753-1.62 3.616-6.765 5.734z" fill="#fff"/></svg>