<svg width="85" height="85" fill="none" xmlns="http://www.w3.org/2000/svg"><path stroke="#fff" stroke-width="2" d="M1 1h83v83H1z"/><g clip-path="url(#clip0)"><path d="M58.568 31.47c1.519-2.032 2.428-4.143 2.432-5.65-.002-.49-.1-.87-.286-1.155a.926.926 0 0 0-.168-.215.973.973 0 0 0-.197-.154c-.299-.199-.682-.295-1.17-.295-1.505.002-3.616.911-5.65 2.432-1.643 1.23-3.287 2.962-5.563 5.361-.386.407-.792.835-1.221 1.283l-4.408-1.32.013-.013a.982.982 0 0 0 .285-.69.983.983 0 0 0-.288-.702l-.796-.797a.991.991 0 0 0-1.399-.002l-1.19 1.191-.63-.188a.963.963 0 0 0 .207-.6.97.97 0 0 0-.287-.703l-.8-.8a.99.99 0 0 0-1.395.002l-1.092 1.092-4.482-1.342a1.187 1.187 0 0 0-1.15.29l-1.575 1.576a.93.93 0 0 0-.277.65.905.905 0 0 0 .48.81l9.425 5.265c.046.026.18.125.229.174l2.687 2.686c-2.514 2.648-4.752 5.212-6.497 7.443-.163.207-.317.41-.469.61l-7.29-.663a.99.99 0 0 0-.127-.007c-.334.007-.66.139-.903.373l-.735.734a.913.913 0 0 0-.28.65.896.896 0 0 0 .53.824l5.128 2.436c.044.022.16.104.197.14l.425.424c-.133.375-.2.7-.204.986-.002.382.122.71.357.945l.019.016.005.003c.242.235.555.354.943.354.28-.004.601-.07.978-.203l.432.431c.033.036.114.148.135.193l2.43 5.118a.906.906 0 0 0 .818.538h.005a.912.912 0 0 0 .648-.274l.752-.755a1.34 1.34 0 0 0 .357-.992l-.664-7.317c.2-.15.402-.306.61-.467 2.233-1.748 4.798-3.989 7.44-6.498l2.69 2.691c.043.042.145.175.174.231l5.255 9.407a.914.914 0 0 0 1.467.216l1.587-1.586a1.203 1.203 0 0 0 .282-1.137l-1.343-4.483 1.093-1.094a.987.987 0 0 0 .001-1.394l-.801-.8a.989.989 0 0 0-1.303-.082l-.188-.628 1.192-1.192a.995.995 0 0 0 .288-.699.974.974 0 0 0-.288-.696l-.797-.797a.99.99 0 0 0-1.4-.001l-.008.007-1.32-4.407c.455-.434.888-.848 1.302-1.238 2.39-2.268 4.116-3.905 5.343-5.545z" fill="#fff"/></g><defs><clipPath id="clip0"><path fill="#fff" transform="translate(24 24)" d="M0 0h37v37H0z"/></clipPath></defs></svg>