<svg width="85" height="85" fill="none" xmlns="http://www.w3.org/2000/svg"><path stroke="#fff" stroke-width="2" d="M1 1h83v83H1z"/><path d="M51.906 49.793a1.114 1.114 0 1 0-.001-2.228 1.114 1.114 0 0 0 .001 2.228zm-8.906 0a1.114 1.114 0 1 0 .001 2.228A1.114 1.114 0 0 0 43 49.793zM24 25.3h38v4.454H24V25.3zm21.227 13.36a1.114 1.114 0 1 0 0 2.228 1.114 1.114 0 0 0 0-2.228z" fill="#fff"/><path d="M24 31.98V58.7h38V31.98H24zm6.754 20.04h-2.227v-2.227h2.227v2.227zm0-4.454h-2.227V45.34h2.227v2.226zm0-4.453h-2.227v-2.226h2.227v2.226zm0-4.453h-2.227v-2.226h2.227v2.226zm6.68 13.36H32.98v-2.227h4.453v2.227zm0-4.454H32.98V45.34h4.453v2.226zm0-4.453H32.98v-2.226h4.453v2.226zm0-4.453H32.98v-2.226h4.453v2.226zm16.699 2.227a3.337 3.337 0 0 1-2.782-1.498l-2.817.704a3.315 3.315 0 0 1-.53 1.53l2.913 3.883c.315-.098.642-.166.99-.166a3.344 3.344 0 0 1 3.34 3.34 3.337 3.337 0 1 1-6.121 1.842l-2.819.704c-.163 1.69-1.575 3.02-3.307 3.02a3.344 3.344 0 0 1-3.34-3.34 3.344 3.344 0 0 1 3.34-3.34 3.34 3.34 0 0 1 2.782 1.498l2.817-.704c.054-.56.232-1.084.53-1.53l-2.913-3.883a3.299 3.299 0 0 1-.99.166 3.344 3.344 0 0 1-3.34-3.34 3.344 3.344 0 0 1 3.34-3.34c1.161 0 2.183.597 2.782 1.498l2.817-.704c.164-1.69 1.576-3.02 3.308-3.02a3.344 3.344 0 0 1 3.34 3.34 3.344 3.344 0 0 1-3.34 3.34z" fill="#fff"/><path d="M54.133 36.434a1.114 1.114 0 1 0 .001 2.228 1.114 1.114 0 0 0-.001-2.228z" fill="#fff"/></svg>