<svg width="19" height="18" fill="none" xmlns="http://www.w3.org/2000/svg"><path fill-rule="evenodd" clip-rule="evenodd" d="M9.906 6.606c-.293.229-.693.39-1.204.39-.492 0-.888-.165-1.183-.402-.295-.237-.442-.553-.442-.953V3.207c0-.365.151-.653.454-.869.303-.215.71-.322 1.221-.322.467 0 .848.113 1.146.34.296.227.445.522.445.879V5.66c0 .402-.146.715-.437.945zM8.312 3.1c-.096.059-.145.133-.145.225v2.306c0 .117.046.207.135.27.09.065.219.096.386.096.17 0 .306-.033.407-.097a.304.304 0 0 0 .152-.269V3.325c0-.092-.051-.166-.154-.225a.831.831 0 0 0-.405-.085.735.735 0 0 0-.376.085zm4.304 3.7c-.182.098-.358.193-.531.193a.628.628 0 0 1-.5-.267c-.11-.144-.167-.361-.167-.651V2.01h.953v3.73c0 .114.022.197.063.248.038.053.104.078.194.078.07 0 .158-.035.267-.103a1.35 1.35 0 0 0 .293-.261V2.009h.955v4.865h-.955v-.539c-.175.198-.358.35-.55.454l-.022.011zM3.322 9.004h11.54c1.834 0 3.321 1.415 3.321 3.158v2.67c0 1.744-1.487 3.16-3.321 3.16H3.322C1.487 17.991 0 16.575 0 14.831v-2.67c0-1.743 1.487-3.158 3.322-3.158zm.696 2.71h1.02v-.713H2.01v.713h1.02v4.182h.988v-4.182zm3.002 4.24h1.064v-3.951H7.02v2.999c-.1.087-.21.157-.33.212a.74.74 0 0 1-.297.083c-.1 0-.173-.019-.22-.062-.042-.042-.064-.108-.064-.202v-3.029H5.045v3.302c0 .235.063.411.187.528.125.119.309.178.555.178.2 0 .407-.04.618-.127.214-.082.417-.205.615-.365v.434zm4.845-.157c.164-.139.247-.336.247-.595v-2.029c0-.299-.088-.528-.265-.684-.174-.155-.428-.232-.76-.232-.163 0-.325.028-.486.087a1.735 1.735 0 0 0-.45.254v-1.597H9.089v4.956h1.062v-.28c.137.113.289.195.45.248.16.053.343.079.55.079.31 0 .55-.068.714-.207zm2.335-1.71h1.96v-.967c0-.358-.125-.634-.377-.825-.252-.191-.613-.287-1.082-.287-.46 0-.831.103-1.121.309-.291.207-.437.477-.437.804v1.702c0 .364.133.652.396.858.264.208.626.312 1.085.312.51 0 .895-.098 1.151-.294.261-.197.388-.49.388-.877v-.194h-1.055v.172c0 .224-.036.367-.103.433-.068.065-.186.098-.357.098-.163 0-.28-.038-.348-.115-.068-.078-.1-.216-.1-.415v-.714zm-8.528-7.08H4.467V4.231L3.03 0h1.215l.782 2.802h.077L5.85 0h1.226L5.672 4.1v2.907zm4.695 5.866l.223-.036c.143 0 .251.032.328.095.075.063.11.156.11.281v1.889c0 .115-.031.199-.091.25-.06.053-.155.078-.284.078l-.254-.039a.93.93 0 0 1-.25-.129v-2.278l.218-.111zm3.986-.098c.071-.07.188-.104.351-.104.156 0 .272.034.342.104.07.068.108.181.108.34v.382h-.906v-.382c0-.159.034-.273.105-.34z" fill="#BEC7D1" style="mix-blend-mode:darken"/></svg>