<svg width="40" height="40" viewBox="0 0 40 40" fill="none" xmlns="http://www.w3.org/2000/svg">
<circle cx="20" cy="20" r="19.5" stroke="white" stroke-opacity="0.7"/>
<path d="M23.375 11H16.625C13.5189 11 11 13.5189 11 16.625V23.375C11 26.4811 13.5189 29 16.625 29H23.375C26.4811 29 29 26.4811 29 23.375V16.625C29 13.5189 26.4811 11 23.375 11ZM27.3125 23.375C27.3125 25.5463 25.5463 27.3125 23.375 27.3125H16.625C14.4538 27.3125 12.6875 25.5463 12.6875 23.375V16.625C12.6875 14.4538 14.4538 12.6875 16.625 12.6875H23.375C25.5463 12.6875 27.3125 14.4538 27.3125 16.625V23.375Z" fill="white" fill-opacity="0.7"/>
<path d="M20 15.5C17.5149 15.5 15.5 17.5149 15.5 20C15.5 22.4851 17.5149 24.5 20 24.5C22.4851 24.5 24.5 22.4851 24.5 20C24.5 17.5149 22.4851 15.5 20 15.5ZM20 22.8125C18.4497 22.8125 17.1875 21.5503 17.1875 20C17.1875 18.4486 18.4497 17.1875 20 17.1875C21.5503 17.1875 22.8125 18.4486 22.8125 20C22.8125 21.5503 21.5503 22.8125 20 22.8125Z" fill="white" fill-opacity="0.7"/>
<path d="M24.8374 15.7621C25.1686 15.7621 25.437 15.4937 25.437 15.1625C25.437 14.8313 25.1686 14.5629 24.8374 14.5629C24.5063 14.5629 24.2378 14.8313 24.2378 15.1625C24.2378 15.4937 24.5063 15.7621 24.8374 15.7621Z" fill="white" fill-opacity="0.7"/>
</svg>
