<svg width="76" height="52" viewBox="0 0 76 52" fill="none" xmlns="http://www.w3.org/2000/svg">
<path d="M17.3 20.5V21.7C21.3 22.1 24.8 23.7 27.8 26.5C30.8 29.1 32.3 32.4 32.3 36.4C32.3 40.2 30.9 43.6 28.1 46.6C25.3 49.6 21.5 51.1 16.7 51.1C12.1 51.1 8.2 49 5 44.8C2 40.6 0.5 35.4 0.5 29.2C0.5 23 3.2 16.6 8.6 10C14.2 3.39999 19.8 0.099983 25.4 0.099983C27.2 0.099983 28.1 0.399985 28.1 0.999989C28.1 1.59999 27.7 1.9 26.9 1.9C26.1 1.9 24.6 3.39999 22.4 6.39999C19 10.8 17.3 15.5 17.3 20.5ZM60.2 20.5V21.7C64.2 22.1 67.7 23.7 70.7 26.5C73.7 29.1 75.2 32.4 75.2 36.4C75.2 40.2 73.8 43.6 71 46.6C68.4 49.6 64.7 51.1 59.9 51.1C55.3 51.1 51.4 49 48.2 44.8C45 40.6 43.4 35.4 43.4 29.2C43.4 23 46.2 16.6 51.8 10C57.4 3.39999 63 0.099983 68.6 0.099983C70.2 0.099983 71 0.399985 71 0.999989C71 1.59999 70.8 1.9 70.4 1.9C69.2 1.9 67.5 3.39999 65.3 6.39999C61.9 11 60.2 15.7 60.2 20.5Z" fill="#EDB940" fill-opacity="0.15"/>
</svg>
