<svg width="40" height="40" viewBox="0 0 40 40" fill="none" xmlns="http://www.w3.org/2000/svg">
<circle cx="20" cy="20" r="19.5" stroke="white" stroke-opacity="0.7"/>
<g clip-path="url(#clip0)">
<path d="M24.1304 21.7303L24.1236 21.7865C22.4744 20.9645 22.3019 20.855 22.0889 21.1745C21.9411 21.3958 21.5106 21.8975 21.3809 22.046C21.2496 22.1923 21.1191 22.2035 20.8964 22.1023C20.6714 21.9898 19.9491 21.7535 19.0941 20.9885C18.4281 20.3923 17.9811 19.661 17.8491 19.436C17.6294 19.0565 18.0891 19.0025 18.5076 18.2105C18.5826 18.053 18.5444 17.9293 18.4889 17.8175C18.4326 17.705 17.9849 16.6025 17.7974 16.163C17.6174 15.725 17.4321 15.7805 17.2934 15.7805C16.8614 15.743 16.5456 15.749 16.2674 16.0385C15.0569 17.369 15.3621 18.7415 16.3979 20.201C18.4334 22.865 19.5179 23.3555 21.5009 24.0365C22.0364 24.2068 22.5246 24.1828 22.9109 24.1273C23.3414 24.059 24.2361 23.5865 24.4229 23.0578C24.6141 22.529 24.6141 22.0903 24.5579 21.989C24.5024 21.8878 24.3554 21.8315 24.1304 21.7303Z" fill="white" fill-opacity="0.7"/>
<path d="M26.39 13.5867C20.6233 8.01196 11.0795 12.0552 11.0758 19.9197C11.0758 21.4917 11.4875 23.0247 12.272 24.3785L11 29L15.7513 27.761C21.68 30.9635 28.997 26.711 29 19.9242C29 17.5422 28.07 15.3005 26.3787 13.616L26.39 13.5867ZM27.5015 19.8995C27.497 25.6242 21.2127 29.1995 16.2425 26.2775L15.9725 26.117L13.16 26.8482L13.9137 24.1145L13.7345 23.8332C10.6415 18.9095 14.195 12.4745 20.054 12.4745C22.0445 12.4745 23.9128 13.2507 25.3197 14.657C26.726 16.0512 27.5015 17.9195 27.5015 19.8995Z" fill="white" fill-opacity="0.7"/>
</g>
<defs>
<clipPath id="clip0">
<rect width="18" height="18" fill="white" transform="translate(11 11)"/>
</clipPath>
</defs>
</svg>
