<svg width="1181" height="460" viewBox="0 0 1181 460" fill="none" xmlns="http://www.w3.org/2000/svg">
<path opacity="0.5" d="M0.5 20C0.5 9.23044 9.23045 0.5 20 0.5H1140.56C1142.43 0.5 1144 0.683868 1145.78 1.21546C1164.21 6.7232 1282.46 42.5166 1396.1 87.6883C1452.92 110.275 1508.57 135.199 1550.01 159.846C1570.73 172.17 1587.87 184.413 1599.83 196.245C1611.81 208.091 1618.5 219.447 1618.5 230C1618.5 240.553 1611.81 251.909 1599.83 263.755C1587.87 275.587 1570.73 287.83 1550.01 300.154C1508.57 324.801 1452.92 349.725 1396.1 372.312C1282.46 417.483 1164.21 453.277 1145.78 458.785C1144 459.316 1142.43 459.5 1140.56 459.5H20C9.2304 459.5 0.5 450.77 0.5 440V20Z" stroke="white"/>
</svg>
