<svg width="21" height="8" fill="none" xmlns="http://www.w3.org/2000/svg"><path d="M.334.133h5.414v1.37H2.002v1.724h3.414v1.325H2.002v1.945h3.746v1.37H.334V.133zM9.936 8a4.28 4.28 0 01-1.404-.221 2.87 2.87 0 01-1.094-.685c-.309-.317-.552-.726-.729-1.227-.17-.5-.254-1.105-.254-1.812v-.22c0-.678.088-1.257.265-1.736.184-.486.431-.884.74-1.193A2.97 2.97 0 018.565.221 4.174 4.174 0 019.935 0c.435 0 .844.052 1.227.155a2.84 2.84 0 011.006.486c.294.214.53.49.707.829.184.338.29.74.32 1.204h-1.723c-.082-.442-.258-.766-.53-.972-.273-.207-.609-.31-1.006-.31-.229 0-.45.04-.663.122-.207.08-.39.217-.553.409a2.257 2.257 0 00-.398.751c-.095.31-.143.696-.143 1.16v.221c0 .486.051.895.154 1.227.104.324.236.585.398.784.17.192.357.332.564.42.213.081.427.122.64.122.42 0 .767-.107 1.04-.32.272-.222.438-.542.497-.962h1.723c-.037.486-.143.899-.32 1.238a2.394 2.394 0 01-.696.828 2.805 2.805 0 01-1.006.464A5.092 5.092 0 019.936 8zm8.314-1.713h-2.862l-.586 1.58h-1.613L16.062.133h1.657l2.873 7.734h-1.746l-.596-1.58zm-2.354-1.37h1.856l-.928-2.685-.928 2.685z" fill="#fff"/></svg>