<svg width="27" height="26" viewBox="0 0 27 26" fill="none" xmlns="http://www.w3.org/2000/svg">
<path d="M15.0787 23.804C14.8677 24.1678 14.5648 24.4697 14.2004 24.6796C13.836 24.8895 13.4228 25 13.0023 25C12.5818 25 12.1686 24.8895 11.8042 24.6796C11.4398 24.4697 11.137 24.1678 10.9259 23.804M25.0044 19.0032H1.00018C1.95513 19.0032 2.87097 18.6238 3.54622 17.9486C4.22147 17.2733 4.60082 16.3575 4.60082 15.4026V9.40149C4.60082 7.17328 5.48598 5.03632 7.06156 3.46074C8.63715 1.88515 10.7741 1 13.0023 1C15.2305 1 17.3675 1.88515 18.9431 3.46074C20.5186 5.03632 21.4038 7.17328 21.4038 9.40149V15.4026C21.4038 16.3575 21.7832 17.2733 22.4584 17.9486C23.1337 18.6238 24.0495 19.0032 25.0044 19.0032Z" stroke="white" stroke-width="2" stroke-linecap="round" stroke-linejoin="round"/>
</svg>
