<svg width="24" height="27" viewBox="0 0 24 27" fill="none" xmlns="http://www.w3.org/2000/svg">
<path d="M8.91247 15.3587V14.6086L8.90565 14.6087L8.91247 15.3587ZM8.77952 15.3587L8.78633 14.6087H8.77952V15.3587ZM4.95314 14.213L5.4539 13.6547L5.40994 13.6152L5.36035 13.5832L4.95314 14.213ZM15.7992 6.38431L15.0729 6.57129L15.2178 7.13431H15.7992V6.38431ZM8.84599 16.109C8.87043 16.109 8.89486 16.1089 8.91928 16.1086L8.90565 14.6087C8.8858 14.6089 8.86592 14.609 8.84599 14.609V16.109ZM8.7727 16.1086C8.79712 16.1089 8.82155 16.109 8.84599 16.109V14.609C8.82607 14.609 8.80618 14.6089 8.78633 14.6087L8.7727 16.1086ZM8.77952 14.6087H7.94807V16.1087H8.77952V14.6087ZM7.94807 14.6087C6.98904 14.6087 6.11593 14.2484 5.4539 13.6547L4.45238 14.7713C5.37892 15.6023 6.60525 16.1087 7.94807 16.1087V14.6087ZM0.916504 8.17949C0.916504 10.9749 2.36357 13.4318 4.54594 14.8428L5.36035 13.5832C3.58733 12.4368 2.4165 10.4447 2.4165 8.17949H0.916504ZM8.84599 0.25C4.46666 0.25 0.916504 3.80015 0.916504 8.17949H2.4165C2.4165 4.62858 5.29508 1.75 8.84599 1.75V0.25ZM16.5255 6.19734C15.6452 2.77763 12.5417 0.25 8.84599 0.25V1.75C11.8407 1.75 14.359 3.79818 15.0729 6.57129L16.5255 6.19734ZM15.7992 7.13431H18.7173V5.63431H15.7992V7.13431ZM18.7173 7.13431C20.7813 7.13431 22.4545 8.8075 22.4545 10.8715H23.9545C23.9545 7.97908 21.6097 5.63431 18.7173 5.63431V7.13431ZM22.4545 10.8715C22.4545 12.9355 20.7813 14.6087 18.7173 14.6087V16.1087C21.6097 16.1087 23.9545 13.7639 23.9545 10.8715H22.4545ZM18.7173 14.6087H8.91247V16.1087H18.7173V14.6087Z" fill="white"/>
<path d="M3.3871 24.008C2.98254 23.9585 2.59803 24.1429 2.52752 24.4176L2.01162 26.4071C1.93962 26.6818 2.20981 26.9439 2.61362 26.9924C2.65667 26.9975 2.69973 27 2.74278 27C3.09686 27 3.40936 26.8278 3.47246 26.5828L3.98836 24.5934C4.06036 24.3181 3.79091 24.0565 3.3871 24.008Z" fill="white"/>
<path d="M9.38696 24.008C8.98319 23.9585 8.59798 24.1429 8.52746 24.4176L8.01162 26.4071C7.93962 26.6818 8.20979 26.9439 8.61356 26.9924C8.65661 26.9975 8.7004 27 8.74271 27C9.09675 27 9.40923 26.8278 9.47232 26.5828L9.98817 24.5934C10.0609 24.3181 9.79073 24.0565 9.38696 24.008Z" fill="white"/>
<path d="M15.387 24.008C14.9824 23.9585 14.598 24.1429 14.5275 24.4176L14.0116 26.4071C13.9396 26.6818 14.2098 26.9439 14.6136 26.9924C14.6566 26.9975 14.7004 27 14.7427 27C15.0968 27 15.4092 26.8278 15.4723 26.5828L15.9882 24.5934C16.0609 24.3181 15.7907 24.0565 15.387 24.008Z" fill="white"/>
<path d="M21.387 24.008C20.9824 23.9585 20.598 24.1429 20.5275 24.4176L20.0116 26.4071C19.9396 26.6818 20.2098 26.9439 20.6136 26.9924C20.6566 26.9975 20.7004 27 20.7427 27C21.0968 27 21.4092 26.8278 21.4723 26.5828L21.9882 24.5934C22.0609 24.3181 21.7907 24.0565 21.387 24.008Z" fill="white"/>
<path d="M4.47267 21.5828L4.98839 19.5932C5.06036 19.3184 4.79026 19.0563 4.3866 19.0078C3.98368 18.9593 3.59782 19.1426 3.52733 19.4174L3.01161 21.407C2.93964 21.6818 3.20974 21.9439 3.6134 21.9924C3.65718 21.9975 3.70022 22 3.74326 22C4.09646 22 4.4096 21.8278 4.47267 21.5828Z" fill="white"/>
<path d="M10.4727 21.5828L10.9884 19.5932C11.0604 19.3184 10.7903 19.0563 10.3866 19.0078C9.98145 18.9593 9.59782 19.1426 9.52733 19.4174L9.01161 21.407C8.93964 21.6818 9.20974 21.9439 9.6134 21.9924C9.65718 21.9975 9.70022 22 9.74326 22C10.0965 22 10.4096 21.8278 10.4727 21.5828Z" fill="white"/>
<path d="M16.4727 21.5828L16.9884 19.5932C17.0604 19.3184 16.7903 19.0563 16.3866 19.0078C15.9844 18.9593 15.5978 19.1426 15.5273 19.4174L15.0116 21.407C14.9396 21.6818 15.2097 21.9439 15.6134 21.9924C15.6572 21.9975 15.7002 22 15.7433 22C16.0965 22 16.4096 21.8278 16.4727 21.5828Z" fill="white"/>
<path d="M22.4727 21.5828L22.9884 19.5932C23.0604 19.3184 22.7903 19.0563 22.3866 19.0078C21.9837 18.9593 21.5978 19.1426 21.5273 19.4174L21.0116 21.407C20.9396 21.6818 21.2097 21.9439 21.6134 21.9924C21.6572 21.9975 21.7002 22 21.7433 22C22.0965 22 22.4096 21.8278 22.4727 21.5828Z" fill="white"/>
</svg>
