<svg width="23" height="23" viewBox="0 0 23 23" fill="none" xmlns="http://www.w3.org/2000/svg">
<path fill-rule="evenodd" clip-rule="evenodd" d="M2.66675 11.0001C2.66675 6.39771 6.39771 2.66675 11.0001 2.66675C15.6025 2.66675 19.3334 6.39771 19.3334 11.0001C19.3334 15.6025 15.6025 19.3334 11.0001 19.3334C6.39771 19.3334 2.66675 15.6025 2.66675 11.0001ZM11.0001 0.666748C5.29314 0.666748 0.666748 5.29314 0.666748 11.0001C0.666748 16.707 5.29314 21.3334 11.0001 21.3334C13.4934 21.3334 15.7805 20.4503 17.5657 18.9799L20.9596 22.3739C21.3502 22.7644 21.9833 22.7644 22.3739 22.3739C22.7644 21.9833 22.7644 21.3502 22.3739 20.9596L18.9799 17.5657C20.4503 15.7805 21.3334 13.4934 21.3334 11.0001C21.3334 5.29314 16.707 0.666748 11.0001 0.666748Z" fill="white"/>
</svg>
