<svg width="14" height="24" viewBox="0 0 14 24" fill="none" xmlns="http://www.w3.org/2000/svg">
<path d="M4.21565 23.8982C7.5654 24.5481 10.4652 21.9983 10.4652 18.7486C10.4652 17.0487 9.61525 15.4988 8.31534 14.5489V3.09977C8.31534 1.39989 6.96545 0 5.21558 0C3.51571 0 2.11581 1.39989 2.11581 3.09977V14.5489C0.565929 15.6988 -0.334004 17.6487 0.115962 19.8485C0.515932 21.8484 2.16581 23.4982 4.21565 23.8982ZM2.76576 15.4988L3.21573 15.1489V3.14976C3.21573 2.04985 4.11566 1.19991 5.16558 1.19991C6.2655 1.19991 7.16543 2.09984 7.16543 3.14976V15.1489L7.6154 15.4988C8.66532 16.2488 9.26527 17.4987 9.26527 18.7986C9.26527 19.8985 8.81531 20.9484 8.06536 21.6984C7.26542 22.4483 6.2655 22.8983 5.16558 22.8983C3.11574 22.8983 1.51586 21.4484 1.16588 19.6485C0.915902 17.9986 1.51586 16.3988 2.76576 15.4988Z" fill="white"/>
<path d="M5.21558 21.6984C6.01552 21.6984 6.76547 21.3984 7.31543 20.8485C7.86538 20.2985 8.16536 19.5486 8.16536 18.7486C8.16536 16.7488 6.46549 16.0988 6.01552 15.6989V7.24951H4.36565V15.6989C4.01567 16.0988 1.81584 16.8988 2.3158 19.3486C2.56578 20.6485 3.7157 21.6984 5.21558 21.6984Z" fill="white"/>
<path d="M12.465 3.39941H9.61523V4.54933H12.465C12.765 4.54933 13.015 4.29935 13.015 3.99937C13.065 3.6494 12.815 3.39941 12.465 3.39941Z" fill="white"/>
<path d="M11.9151 6.99967C11.9151 6.69969 11.6651 6.44971 11.3652 6.44971H9.66528V7.59962H11.3652C11.6651 7.54962 11.9151 7.29964 11.9151 6.99967Z" fill="white"/>
<path d="M13.065 9.99918C13.065 9.6992 12.815 9.44922 12.5151 9.44922H9.66528V10.5991H12.5151C12.815 10.5991 13.065 10.2992 13.065 9.99918Z" fill="white"/>
</svg>
