<svg width="32" height="32" fill="none" xmlns="http://www.w3.org/2000/svg"><path d="M11.912 17.359v-.75h-.006l.006.75zm-.133 0l.007-.75h-.006v.75zm-3.826-1.146l.5-.558-.043-.04-.05-.032-.407.63zM18.8 8.384l-.726.187.145.563h.581v-.75zm-6.953 9.725h.073l-.013-1.5h-.06v1.5zm-.073 0h.073v-1.5h-.06l-.013 1.5zm.007-1.5h-.832v1.5h.832v-1.5zm-.832 0a3.72 3.72 0 01-2.494-.954L7.452 16.77a5.22 5.22 0 003.496 1.338v-1.5zm-7.032-6.43a7.924 7.924 0 003.63 6.664l.814-1.26a6.424 6.424 0 01-2.943-5.403h-1.5zm7.93-7.929a7.93 7.93 0 00-7.93 7.93h1.5a6.43 6.43 0 016.43-6.43v-1.5zm7.68 5.947a7.932 7.932 0 00-7.68-5.947v1.5a6.433 6.433 0 016.227 4.821l1.453-.374zm-.727.937h2.918v-1.5H18.8v1.5zm2.918 0a3.737 3.737 0 013.738 3.737h1.5a5.237 5.237 0 00-5.238-5.237v1.5zm3.738 3.737a3.737 3.737 0 01-3.738 3.738v1.5a5.237 5.237 0 005.238-5.238h-1.5zm-3.738 3.738h-9.804v1.5h9.804v-1.5z" fill="#fff"/><path d="M6 20.5h6.667M8.666 23h15.378c1.08 0 1.956.895 1.956 2s-.876 2-1.956 2-1.955-.895-1.955-2" stroke="#fff" stroke-width="1.5" stroke-linecap="round"/><path d="M6 25.5h12.044c1.08 0 1.956.895 1.956 2s-.875 2-1.956 2c-1.08 0-1.955-.895-1.955-2" stroke="#fff" stroke-width="1.5" stroke-linecap="round"/></svg>