<svg width="116" height="122" viewBox="0 0 116 122" fill="none" xmlns="http://www.w3.org/2000/svg">
<circle opacity="0.2" cx="58" cy="64" r="56" stroke="white" stroke-width="4"/>
<path d="M58.5 121.5V122H57.5V121.5H58.5ZM57.5 113.5C57.5 113.224 57.7239 113 58 113C58.2761 113 58.5 113.224 58.5 113.5H57.5ZM57.5 121.5V113.5H58.5V121.5H57.5Z" fill="white"/>
<path d="M0.5 64.5L-2.18557e-08 64.5L2.18557e-08 63.5L0.5 63.5L0.5 64.5ZM8.5 63.5C8.77614 63.5 9 63.7239 9 64C9 64.2761 8.77614 64.5 8.5 64.5L8.5 63.5ZM0.5 63.5L8.5 63.5L8.5 64.5L0.5 64.5L0.5 63.5Z" fill="white"/>
<path d="M115.5 64.5L116 64.5L116 63.5L115.5 63.5L115.5 64.5ZM107.5 63.5C107.224 63.5 107 63.7239 107 64C107 64.2761 107.224 64.5 107.5 64.5L107.5 63.5ZM115.5 63.5L107.5 63.5L107.5 64.5L115.5 64.5L115.5 63.5Z" fill="white"/>
<rect x="48" width="20" height="16" rx="8" fill="#121212"/>
<path opacity="0.6" d="M62.6939 2.36364H60.9553V10.9091H60.8473L54.9268 2.36364H53.3018V14H55.0575V5.46591H55.1655L61.0803 14H62.6939V2.36364Z" fill="white"/>
<path d="M72.1752 79.4942C76.3682 75.656 79 70.1346 79 64C79 52.402 69.598 43 58 43C46.402 43 37 52.402 37 64C37 75.598 46.402 85 58 85C63.4628 85 68.4404 82.9128 72.1752 79.4942Z" stroke="white" stroke-width="2"/>
<path d="M68 66C68 63.7909 65.7614 62 63 62C60.2386 62 58 63.7909 58 66C58 63.7909 55.7614 62 53 62C50.2386 62 48 63.7909 48 66" stroke="white" stroke-width="1.5" stroke-linecap="round" stroke-linejoin="round"/>
<path d="M98.5005 104.604L72.8965 79" stroke="white" stroke-width="2" stroke-linecap="round"/>
</svg>
