<svg width="116" height="122" viewBox="0 0 116 122" fill="none" xmlns="http://www.w3.org/2000/svg">
<circle opacity="0.2" cx="58" cy="64" r="56" stroke="white" stroke-width="4"/>
<path d="M58.5 121.5V122H57.5V121.5H58.5ZM57.5 113.5C57.5 113.224 57.7239 113 58 113C58.2761 113 58.5 113.224 58.5 113.5H57.5ZM57.5 121.5V113.5H58.5V121.5H57.5Z" fill="white"/>
<path d="M0.5 64.5L-2.18557e-08 64.5L2.18557e-08 63.5L0.5 63.5L0.5 64.5ZM8.5 63.5C8.77614 63.5 9 63.7239 9 64C9 64.2761 8.77614 64.5 8.5 64.5L8.5 63.5ZM0.5 63.5L8.5 63.5L8.5 64.5L0.5 64.5L0.5 63.5Z" fill="white"/>
<path d="M115.5 64.5L116 64.5L116 63.5L115.5 63.5L115.5 64.5ZM107.5 63.5C107.224 63.5 107 63.7239 107 64C107 64.2761 107.224 64.5 107.5 64.5L107.5 63.5ZM115.5 63.5L107.5 63.5L107.5 64.5L115.5 64.5L115.5 63.5Z" fill="white"/>
<g clip-path="url(#clip0)">
<path d="M53.3479 68.3637C49.619 66.2108 44.8508 67.4884 42.698 71.2173C40.5451 74.9462 41.8227 79.7144 45.5516 81.8673C49.2805 84.0202 54.0487 82.7425 56.2016 79.0136C58.3544 75.2847 57.0768 70.5166 53.3479 68.3637ZM53.3479 68.3637L64.0678 49.7962M64.0678 49.7962L65.5296 47.2643L66.9914 44.7324L77.2317 44.7322M64.0678 49.7962L77.2317 49.7962" stroke="white" stroke-width="2" stroke-linecap="round"/>
</g>
<rect x="48" width="20" height="16" rx="8" fill="#121212"/>
<path opacity="0.6" d="M62.6939 2.36364H60.9553V10.9091H60.8473L54.9268 2.36364H53.3018V14H55.0575V5.46591H55.1655L61.0803 14H62.6939V2.36364Z" fill="white"/>
<defs>
<clipPath id="clip0">
<rect width="48" height="48" fill="white" transform="translate(34 40)"/>
</clipPath>
</defs>
</svg>
