<svg width="116" height="122" viewBox="0 0 116 122" fill="none" xmlns="http://www.w3.org/2000/svg">
<circle opacity="0.2" cx="58" cy="64" r="56" stroke="white" stroke-width="4"/>
<path d="M58.5 121.5V122H57.5V121.5H58.5ZM57.5 113.5C57.5 113.224 57.7239 113 58 113C58.2761 113 58.5 113.224 58.5 113.5H57.5ZM57.5 121.5V113.5H58.5V121.5H57.5Z" fill="white"/>
<path d="M0.5 64.5L-2.18557e-08 64.5L2.18557e-08 63.5L0.5 63.5L0.5 64.5ZM8.5 63.5C8.77614 63.5 9 63.7239 9 64C9 64.2761 8.77614 64.5 8.5 64.5L8.5 63.5ZM0.5 63.5L8.5 63.5L8.5 64.5L0.5 64.5L0.5 63.5Z" fill="white"/>
<path d="M115.5 64.5L116 64.5L116 63.5L115.5 63.5L115.5 64.5ZM107.5 63.5C107.224 63.5 107 63.7239 107 64C107 64.2761 107.224 64.5 107.5 64.5L107.5 63.5ZM115.5 63.5L107.5 63.5L107.5 64.5L115.5 64.5L115.5 63.5Z" fill="white"/>
<path d="M40.3223 54.8075L62.8555 77.3407C63.0286 77.5138 63.2592 77.6174 63.5036 77.6318L71.0185 78.0757C71.6164 78.111 72.1111 77.6164 72.0758 77.0185L71.6319 69.5035C71.6175 69.2591 71.5139 69.0285 71.3408 68.8554L48.8076 46.3223C48.4171 45.9317 47.7839 45.9317 47.3934 46.3222L40.3223 53.3933C39.9318 53.7838 39.9318 54.417 40.3223 54.8075Z" fill="white"/>
<rect x="48" width="20" height="16" rx="8" fill="#121212"/>
<path opacity="0.6" d="M62.6939 2.36364H60.9553V10.9091H60.8473L54.9268 2.36364H53.3018V14H55.0575V5.46591H55.1655L61.0803 14H62.6939V2.36364Z" fill="white"/>
</svg>
