<svg width="116" height="116" viewBox="0 0 116 116" fill="none" xmlns="http://www.w3.org/2000/svg">
<mask id="mask0" style="mask-type:alpha" maskUnits="userSpaceOnUse" x="4" y="4" width="108" height="108">
<circle cx="58" cy="58" r="54" fill="#C4C4C4"/>
</mask>
<g mask="url(#mask0)">
<rect x="4" y="92" width="2" height="24" fill="white"/>
<rect x="8" y="92" width="2" height="24" fill="white"/>
<rect x="12" y="92" width="2" height="24" fill="white"/>
<rect x="16" y="92" width="2" height="24" fill="white"/>
<rect x="20" y="92" width="2" height="24" fill="white"/>
<rect x="24" y="92" width="2" height="24" fill="white"/>
<rect x="28" y="92" width="2" height="24" fill="white"/>
<rect x="32" y="92" width="2" height="24" fill="white"/>
<rect x="36" y="92" width="2" height="24" fill="white"/>
<rect x="40" y="92" width="2" height="24" fill="white"/>
<rect x="44" y="92" width="2" height="24" fill="white"/>
<rect x="48" y="92" width="2" height="24" fill="white"/>
<rect x="52" y="92" width="2" height="24" fill="white"/>
<rect x="56" y="92" width="2" height="24" fill="white"/>
<rect x="60" y="92" width="2" height="24" fill="white"/>
<rect x="64" y="92" width="2" height="24" fill="white"/>
<rect x="68" y="92" width="2" height="24" fill="white"/>
<rect x="72" y="92" width="2" height="24" fill="white"/>
<rect x="76" y="92" width="2" height="24" fill="white"/>
<rect x="80" y="92" width="2" height="24" fill="white"/>
<rect x="84" y="92" width="2" height="24" fill="white"/>
<rect x="88" y="92" width="2" height="24" fill="white"/>
<rect x="92" y="92" width="2" height="24" fill="white"/>
<rect x="96" y="92" width="2" height="24" fill="white"/>
<rect x="100" y="92" width="2" height="24" fill="white"/>
<rect x="104" y="92" width="2" height="24" fill="white"/>
<rect x="108" y="92" width="2" height="24" fill="white"/>
</g>
<circle opacity="0.2" cx="58" cy="58" r="56" stroke="white" stroke-width="4"/>
</svg>
