<svg width="32" height="32" viewBox="0 0 32 32" fill="none" xmlns="http://www.w3.org/2000/svg">
<path d="M26.6663 10.1667C26.6663 8.69399 25.4724 7.50008 23.9997 7.50008C22.5269 7.50008 21.333 8.69399 21.333 10.1667C21.333 8.69399 20.1391 7.50008 18.6663 7.50008C17.1936 7.50008 15.9997 8.69399 15.9997 10.1667C15.9997 8.69399 14.8057 7.50008 13.333 7.50008C11.8602 7.50008 10.6663 8.69399 10.6663 10.1667M5.33299 10.1667C5.33299 8.69399 6.5269 7.50008 7.99966 7.50008C9.47241 7.50008 10.6663 8.69399 10.6663 10.1667" stroke="white" stroke-width="1.5" stroke-linecap="round" stroke-linejoin="round"/>
<path d="M5.33331 16.5002C5.33331 15.0275 6.52722 13.8336 7.99998 13.8336C9.47274 13.8336 10.6666 15.0275 10.6666 16.5002C10.6666 15.0275 11.8606 13.8336 13.3333 13.8336C14.8061 13.8336 16 15.0275 16 16.5002C16 15.0275 17.1939 13.8336 18.6666 13.8336C20.1394 13.8336 21.3333 15.0275 21.3333 16.5002M26.6666 16.5002C26.6666 15.0275 25.4727 13.8336 24 13.8336C22.5272 13.8336 21.3333 15.0275 21.3333 16.5002" stroke="white" stroke-width="1.5" stroke-linecap="round" stroke-linejoin="round"/>
<path d="M17.3333 22.1667H26.6666M26.6666 22.1667L24 24.1667M26.6666 22.1667L24 20.1667" stroke="white" stroke-width="1.5" stroke-linecap="round" stroke-linejoin="round"/>
<path d="M5.33331 22.1667H14.6666M14.6666 22.1667L12 24.1667M14.6666 22.1667L12 20.1667" stroke="white" stroke-width="1.5" stroke-linecap="round" stroke-linejoin="round"/>
</svg>
