<?xml version="1.0" standalone="no"?>
<!DOCTYPE svg PUBLIC "-//W3C//DTD SVG 1.1//EN" "http://www.w3.org/Graphics/SVG/1.1/DTD/svg11.dtd" >
<svg xmlns="http://www.w3.org/2000/svg" xmlns:xlink="http://www.w3.org/1999/xlink" version="1.1">
<metadata>
Created by FontForge 20160405 at Wed Jan 16 03:35:55 2019
 By www-data
Copyright (c) 2016 by Ksenia Semirova. All rights reserved.
</metadata>
<defs>
<font id="kraM" horiz-adv-x="530" >
  <font-face 
    font-family="kraM"
    font-weight="400"
    font-stretch="normal"
    units-per-em="1000"
    panose-1="2 0 5 6 0 0 0 2 0 4"
    ascent="800"
    descent="-200"
    x-height="507"
    cap-height="734"
    bbox="-40 -344.341 1158 1030"
    underline-thickness="50"
    underline-position="-150"
    unicode-range="U+000D-FB02"
  />
<missing-glyph horiz-adv-x="298" 
 />
    <glyph glyph-name="LL" unicode="LL" horiz-adv-x="788" 
d="M273 655q0 -18 -1 -36t-3 -39t-6 -47t-10 -60q-24 -115 -40.5 -230t-20.5 -232v-1q0 -2 1 -5t3 -3h32t46 5q63 13 125.5 21t126.5 21q8 1 19 2.5t11 -13.5q-2 -23 -33 -36t-74.5 -20.5t-90 -11.5t-78.5 -8q-24 -3 -53.5 -5t-54.5 -2q-11 0 -19.5 28.5t-14.5 72
t-10.5 94.5t-7.5 96.5t-4 78.5t-1 40q0 77 4.5 153t12.5 149q1 5 1.5 9.5t0.5 9.5q0 3 -4.5 7.5t-4.5 8.5q0 7 23 9.5t51 -3t51 -18.5t23 -35zM548 797q-4 -75 -18 -149.5t-29.5 -149t-27 -150t-10.5 -152.5v-1q0 -2 1 -5t3 -3q8 0 29.5 7.5t43.5 14.5q63 16 125.5 29.5
t126.5 26.5q6 1 12.5 2.5t12.5 1.5q7 0 5 -6q-16 -18 -50.5 -30t-75 -21.5t-81.5 -17.5t-70 -18q-12 -2 -25 -6.5t-26.5 -9.5t-27 -9t-25.5 -4q-16 0 -26.5 27t-16 71.5t-7.5 101.5t-1 117t3.5 119t5 107t5 80t3.5 39q1 5 1.5 9.5t0.5 9.5q0 3 -4.5 7.5t-4.5 8.5q0 7 23 9.5
t51 -3t51 -18.5t23 -35z" />
    <glyph glyph-name="ll" unicode="ll" horiz-adv-x="553" 
d="M581 163q1 -3 1 -6.5t1 -6.5q0 -4 -1 -13.5t-3 -14.5l-33 -65q-10 -33 -36 -47.5t-50 -15.5q-13 -1 -27.5 7t-26.5 21.5t-21 30.5t-10 34h-1q-1 0 -2 1h-1q-1 0 -1 -1q-5 -6 -22 -25.5t-40.5 -41t-52 -40t-56.5 -23.5q-36 -7 -55 11.5t-28 49t-12.5 66t-7.5 62.5
q-6 43 -6 86t2.5 86l5 86t2.5 87q-1 9 -2 38.5t2 63t12.5 61.5t29.5 33q10 4 23.5 2.5t28.5 -1.5q9 -2 14.5 -12t8.5 -22.5t4.5 -26t2.5 -20.5v-4.5t0.5 -20.5t1.5 -54t3 -104l-1 -24l-2.5 -12.5t-3 -23t-2.5 -42t-1 -68.5q-2 -11 -3 -38.5t-2 -60t-1.5 -64t-1.5 -49.5
q0 -2 1 -5t1 -7l2 -3q9 1 28 8.5t40 20t40 28.5t28 34q14 26 19 60.5t2 65.5v8q2 15 0 31l2 21q2 30 2.5 65.5t2.5 73.5l3 42q2 54 10.5 110.5t20.5 117.5q7 3 12.5 5t10.5 3.5t11.5 2.5t16.5 2q6 0 8 -3l8 -4q4 -4 4 -16q2 -18 0.5 -33.5t-1.5 -42.5q0 -7 -0.5 -19
t-1.5 -14q3 -107 4.5 -186t2 -135t1 -92t1 -56.5t2 -29.5t4.5 -10l73 77q2 5 5 5q1 0 4 -1.5t3 -2.5z" />
    <glyph glyph-name="ff" unicode="ff" horiz-adv-x="666" 
d="M40 313q2 0 3.5 -1.5t5.5 -1.5q9 0 18 5.5t21 5.5q1 0 8 0.5t15.5 1l17 1t13.5 0.5q4 0 4 6q0 2 -0.5 3t-0.5 3q0 7 2 12t2 10q0 2 -1.5 4t-1.5 4l10 55q5 30 7.5 62.5t7 64.5t13 62.5t26.5 56.5q13 19 29 30.5t30.5 17.5t24.5 8l10 2q5 0 7 -4.5t7 -4.5l1 -2
q2 -2 4 -3.5t4 -2.5l6 -9q12 -5 13.5 -16.5t5.5 -22.5q6 -14 7.5 -29t1.5 -19q0 -15 -8 -22.5t-16 -13.5l-1 -1v1q-2 7 -5 14.5t-3 11.5v1q0 5 -3 8.5t-3 6.5q-2 5 -4 7.5t-2 5.5l-4 11l-14 12q-2 0 -4 1t-3 1q-4 0 -7 -17.5t-6 -45t-5 -61.5t-3.5 -67t-2 -61t0.5 -44
q0 -9 2 -14q14 1 26 6t22 5t24.5 3.5t30 7.5t31 7.5t27.5 3.5q6 0 13.5 0.5t13.5 4t10.5 12t4.5 24.5q3 58 4 93.5t1.5 64.5t1.5 59.5t5 78.5q5 9 7 21l4 4q11 5 17 14.5t14 9.5q12 3 19 10t11 14.5t6 13t4 7.5l8 5q2 2 10 4t14 2l10 -3q10 -5 17 -11.5t12 -11.5
q5 -7 10 -13q12 -9 13 -12t1 -9l-3 -5q-2 -3 -2 -6.5v-14.5q2 -3 2 -7q0 -20 -10 -28t-19 -10q-6 0 -6 6q2 4 3 8q1 3 1.5 6.5t1.5 5.5q0 2 -1.5 3t-1.5 4t2 6q0 1 -8 8l-10 3q-2 2 -11.5 4.5t-11.5 2.5q-10 0 -13.5 -14.5t-4.5 -47.5t-0.5 -85.5t-0.5 -128.5q0 -2 0.5 -4
t0.5 -4v-12q0 -16 -1 -30.5t3 -23.5l13 -1q27 4 52.5 2.5t39.5 -17.5q0 -2 -1 -3t-1 -3q0 -5 3 -7t3 -5q0 -8 -6 -8l-28 -4q-38 0 -59 -7t-21 -22q0 -5 1 -8.5t2 -12.5q-4 -130 -10.5 -260.5t-11.5 -273.5q0 -4 2 -7t2 -7q0 -7 -1.5 -11.5t-1.5 -8.5v-10l-4 -1t-8.5 -2.5
t-9 -2.5t-5.5 -2q-4 -3 -5.5 -5t-3.5 -2q-3 0 -3.5 5t-4.5 5t-7 1l-2 1q-7 0 -12.5 9t-10 20.5t-7.5 23.5t-4 18q-8 67 -12 133.5t-4 139.5q0 8 1.5 18t1.5 27q0 48 8 98t8 109q0 4 -0.5 9.5t-2.5 5.5q-8 0 -14.5 -1.5t-12.5 -1.5q-26 0 -63.5 -10.5t-77.5 -19.5
q-5 -3 -10 -2.5t-9 0t-7 -3t-3 -9.5q0 -2 1 -5.5t1 -5.5q-2 -1 -4 -15.5t-3 -32.5t-1.5 -34t0.5 -20q0 -41 -4 -86.5t-9.5 -95t-9.5 -102.5t-4 -109q0 -5 4.5 -9.5t4.5 -9.5q0 -20 -8.5 -24.5t-19.5 4.5t-23 30.5t-18 53.5q-12 94 -20 160.5t-11.5 114.5t-3 83.5t3.5 68.5
q0 5 0.5 12.5t0.5 12.5q0 9 -6 9h-33.5t-35.5 6q-4 7 -8.5 9t-8.5 2.5t-7 2.5t-3 10z" />
    <glyph glyph-name="fi" unicode="fi" horiz-adv-x="573" 
d="M580 87q2 -5 2.5 -8t0.5 -5l-4 -13q0 -2 -1 -5t-8 -15q-30 -54 -59 -68.5t-53.5 -1t-42.5 50t-26.5 83t-6 97t20.5 94.5q3 12 6 16.5t3 8.5h-4t-3 -2h-2q-12 0 -27.5 -2t-31.5 -5t-31.5 -5t-26.5 -2q-2 0 -2.5 1.5t-2.5 1.5q-4 0 -5 -1.5t-1 -3t-1 -3.5t-4 -3
q-1 -89 -2 -138.5t-1.5 -75.5t-1 -37.5t-0.5 -24.5q0 -4 -0.5 -10.5t-2 -27.5t-4 -60.5t-6.5 -109.5q-1 -24 -5 -38t-9 -22t-11 -10.5t-10 -2.5q-1 0 -1.5 1t-4.5 1l-1 -1l-14 20q-1 0 -1 -1t-1 -1l-5 9q0 2 -1 5.5t-2 6.5l-9 10q0 1 -1 2q-8 31 -9 37.5t-1 8.5
q-3 19 -4 32.5t-1 23t0.5 17t0.5 15.5q0 15 2 32t2 35q-1 16 1.5 40.5t5.5 55t6.5 66t4.5 73.5l3 28q0 8 1 16.5t1 16.5q0 4 -8 4t-15.5 -0.5t-17.5 -0.5q-6 0 -12.5 -1t-15.5 -1q-8 0 -15 -2.5t-15 -1.5q0 -1 -1 -1h-3q-1 0 -2.5 1t-3.5 1l-2 -1q-6 0 -6.5 5t-5.5 5v1
q-1 1 -1 2t-2 1l-4 4q-2 0 -3 -1.5t-3 -1.5t-4 1h-4q-2 0 -3 -0.5t-3 -0.5t-3 7l-5 3q-1 0 -1 1q0 3 3 4t7 1.5l8 1t6 2.5h2h7q3 0 7 1q7 2 11 8q0 3 1 3q20 0 42.5 3t41.5 3q4 0 10 1t8 3h3q5 0 6 1t2 5v32q0 11 1.5 19.5t1.5 19.5q5 68 12 126t11 109q0 12 3.5 19t11.5 12
t21 10.5t33 14.5l22 8q8 0 9 1t5 -2q2 1 4.5 1t3.5 -3l1 -1q12 -3 20 -21.5t8 -30.5v-3q5 -12 7 -33.5t1 -44t-5.5 -41t-12.5 -24.5h-3q-1 -1 -2 -1q-2 0 -6.5 1.5t-4.5 3.5t1.5 4t1.5 4q0 12 -6 25t-6 37q0 4 -0.5 16t-2.5 24t-7 21.5t-14 9.5q-2 0 -5 -5q-4 -4 -3 -8t1 -9
q0 -4 -1 -6q0 -17 -2.5 -36.5t-4.5 -37.5q0 -12 -2 -29.5t-5 -37.5t-5 -39.5t-2 -35.5q0 -5 -0.5 -10.5t-0.5 -12.5q0 -8 0.5 -21t8.5 -13q1 0 1 1t2 1q5 1 20 2.5t35.5 3.5t43 3.5t42.5 1.5q8 0 13.5 7t7.5 3q13 0 27.5 -4t30.5 -4q12 0 15 -8.5t1.5 -19.5t-4.5 -22t-3 -15
q-9 -64 -23 -127t-14 -129q0 -2 3.5 -9t9 -14.5t12.5 -12t13 -0.5q20 21 31 32.5t16.5 17.5t7 7.5t1.5 3.5l2 9zM505 548q2 -5 2 -9t0 -3q0 -2 -1 -5t-1 -5q0 -4 1.5 -8t1.5 -11q0 -4 7 -4q13 0 19 1.5t17 16.5h4q1 -2 2.5 -3.5t1.5 -2.5v-19q0 -3 1 -3l-2 -11q-2 -4 -2 -5
v-1l-15 -10h-3q-2 0 -2 -1l-13 -3h-7q-12 0 -22.5 4.5t-20.5 7.5l-3 3q0 2 -7 7t-10 10l-6 10q-4 13 -6.5 24t-1.5 12q10 10 28 11l13 -4q2 0 5 3.5t5 3.5t6 -1.5t9 -4.5z" />
    <glyph glyph-name="fl" unicode="fl" horiz-adv-x="535" 
d="M199 -169q0 -2 0.5 -4t0.5 -6q0 -3 -1 -5v-4q0 -3 0.5 -5t0.5 -4q0 -4 -1.5 -6.5t-1.5 -6.5q2 -5 5.5 -11t3.5 -9q0 -2 -3 -6.5t-9 -4.5q-4 0 -7.5 4t-6.5 9t-4.5 9.5t-1.5 5.5v2q-3 3 -6 12t-5.5 18t-4 16t-1.5 8l-7 43q-1 6 -1 11v10v5q0 1 -0.5 2.5t-0.5 6.5t-0.5 16
t-0.5 30q0 5 -0.5 11t-0.5 12q0 8 0.5 16t0.5 16q0 6 0.5 11.5t0.5 12.5t0.5 17t0.5 26q0 9 -2 14q0 32 -1 56t-4 41q0 10 1 15q0 5 -0.5 9t-0.5 8t0.5 6t0.5 4q-1 8 -1 18.5v32.5q0 2 -2 6t-11 4q-3 0 -7 -0.5t-8 -0.5q-9 0 -17.5 2t-16.5 2h-3q-7 0 -11 3l-3 4q-3 1 -3 4
q0 1 3 3t5 2l9 7q4 4 10 5.5t11 2t7.5 0t-0.5 -0.5q1 -1 2 -1q1 -1 2 -1q17 0 25 6.5t8 29.5v4q0 7 1 13t1 12q0 2 -0.5 4t-0.5 4v9q2 4 3 13t1 18v16.5v9.5q-1 4 -2 5.5t-1 3.5v6q3 4 3 10v12.5t-1 13.5q0 6 1.5 12t1.5 11q0 2 -1.5 3.5t-1.5 3.5q0 4 0.5 7.5t0.5 7.5
q0 3 1 6t1 5v5q0 2 0.5 3t0.5 3q1 4 2.5 8.5t1.5 9.5q0 11 0.5 17t4.5 17v7q0 2 1 3.5t2 3.5l4 5q4 8 4 12v2l9 15q4 13 13 20.5t8 6.5h2q3 1 3 2l13 5q1 2 5 2l21 6q76 11 108 -17.5t32 -88.5v-25q0 -5 -3 -10t-6 -5q-4 0 -10.5 1.5t-6.5 3.5t2.5 5t2.5 7q2 26 2 31t-1 7
q3 16 -13.5 30t-35.5 14q-3 0 -12.5 -2t-19.5 -8t-18 -15.5t-9 -24.5q0 -2 -2 -5v-4v-1q0 -4 -2 -8.5t-2 -6.5q0 -14 -1 -15.5t-1 -7.5q0 -1 -2 -3t-2 -5q0 -6 0.5 -14t0.5 -29q1 -2 1 -5q0 -2 -0.5 -3.5t-0.5 -2.5t0.5 -2t0.5 -3q0 -7 -1 -11v-3q0 -3 -0.5 -5.5t-1.5 -5.5
v-5q-4 -10 -4 -15q0 -2 1 -3q0 -1 1 -3v-12v-3q0 -20 -5 -35.5t-5 -23.5q0 -4 1 -7t1 -6v-9q0 -15 10.5 -18.5t23.5 -4t23.5 -1.5t10.5 -11v-2q0 -1 -0.5 -1.5t-0.5 -1.5l-4 -8q-4 -5 -12.5 -7.5t-17.5 -4.5q-11 -2 -23 -2q0 -2 -3.5 -2t-3.5 -4q0 -3 1 -7t1 -9v-1
q-9 -24 -11 -29.5t-2 -14.5q0 -6 1.5 -13.5t1.5 -13.5q0 -4 -2 -11.5t-4 -15.5t-3 -14.5t0 -7.5v-37v-3q0 -5 -1.5 -8t-1.5 -7q0 -5 -0.5 -10t-0.5 -10q0 -8 2 -15t2 -12q0 -4 -2 -8.5t-2 -12.5q0 -3 -1 -5t-1 -4v-4.5t-1 -21t-3.5 -55.5t-7.5 -107zM432 34q3 -13 10.5 -9
t17.5 17.5t20.5 33t19.5 37.5t15 31t7 13q8 0 8 -7v-12q0 -3 -1.5 -6.5t-1.5 -6.5q0 -6 -1 -10t-1 -7v-1q-10 -25 -17.5 -54.5t-15.5 -49.5q-3 -7 -7 -9l-8 -10l-18 -16t-20 -8q-5 0 -7.5 1t-5.5 1l-28 9q-13 7 -24 23.5t-18.5 37t-12 43t-4.5 41.5l-2 30q-1 6 -1 12v12
q0 15 1.5 30t1.5 29v1q0 34 3.5 68.5t11.5 82.5l6 70q2 14 12 33t10 34l18 17q5 5 13.5 6t15.5 1h1q1 0 2 0.5t3 0.5q5 0 11.5 -2t8.5 -6l8 -33l-1 -1q-3 -2 -3 -5q0 -2 0.5 -4.5t0.5 -4.5q0 -8 -1 -20t-2.5 -24.5t-2.5 -23t-1 -16.5v-4q0 -7 -2.5 -13.5t-2.5 -12.5t2 -8
q0 -3 -1 -7t-1 -6l2 -11q0 -2 -1 -5t-1 -7q0 -5 1.5 -6.5t1.5 -4.5q-1 -32 -2 -53.5t-2 -35t-2 -21.5t-2 -12v-3q0 -8 -4 -21t-4 -36q-3 -10 -5 -21.5t-2 -21.5q0 -4 0.5 -12t1.5 -17.5t1.5 -17.5t0.5 -12z" />
    <glyph glyph-name="ex" unicode="ex" horiz-adv-x="823" 
d="M454 -31q48 60 74 95t38.5 54t17 27.5t9.5 15.5q-3 16 -10.5 30.5l-15 29t-13 29t-5.5 31.5v9v3q0 4 -1.5 10.5t-2.5 11.5v2q-26 -29 -51 -64.5t-50 -72t-52 -71.5t-56.5 -62t-64 -43.5t-74.5 -16.5q-20 0 -35 9.5t-31 23.5q-21 28 -34 56t-20 53t-9.5 47.5t-2.5 40.5
q0 75 25.5 140t76.5 124q21 25 49.5 45t62.5 20q26 0 44.5 -8.5t31 -22.5t20.5 -32.5t13 -38.5q10 -33 1.5 -71t-34.5 -64l-24 -21q-14 -14 -29 -26t-33 -23q-11 -8 -18 -12t-13 -7.5t-12 -6.5t-15 -9t-15.5 -8t-10 -4.5t-5 -7t-1.5 -16.5q0 -22 1.5 -44.5t8.5 -43.5
q3 -5 8.5 -12.5t13 -15.5t16 -13.5t17.5 -5.5q36 9 69.5 41.5t65 76t59.5 91.5t53 88q9 16 14.5 26t9.5 17.5t8 14.5t11 17q7 11 7 25v15v14v5q-3 11 -5 12.5t-2 2.5q1 0 2 1t1.5 1t1.5 1l28 6h14q3 0 6.5 0.5t6.5 0.5h13q4 0 4 -4v-3q-1 -1 -1 -4q0 -6 0.5 -11.5t0.5 -10.5
t-2.5 -12t-2.5 -9q-1 -21 3.5 -41.5t10.5 -40t13 -38.5t10 -36q0 -3 2 -6q2 -6 6 -6q1 0 2 1t5 3q19 34 35.5 77t30 82.5t24.5 69t19 35.5q7 5 22 9t22 3q16 -2 21.5 -13.5t0.5 -26.5q-9 -22 -12 -28.5t-5 -11.5l-9 -4h-7q-3 0 -5 1q0 2 1 3q8 9 11.5 15t7.5 24v1
q0 2 -2.5 4.5t-4.5 2.5l-2 -2q-1 -1 -1 -2l-6 -4q-9 -18 -17 -40t-16.5 -45.5t-17.5 -47t-21 -45.5q-16 -33 -26 -56t-11 -28l-13 -33l2 -2q3 -4 5 -8t6 -11q1 -5 4.5 -9.5t9.5 -12t16 -19.5t25 -31q5 -8 10 -15t12 -13q8 -8 19 -21t9 -27v-4q-2 -8 -6 -10t-10 -2l-20 -3h-4
q-14 0 -31 10.5t-34 25.5t-32 31t-25 27q-1 0 -1.5 0.5t-1.5 0.5h-1q-4 0 -7 -1q-8 -14 -16.5 -28t-16.5 -26t-13.5 -21t-7.5 -13q-10 -15 -17.5 -34t-14.5 -35.5t-14.5 -27.5t-16.5 -11q-8 0 -19 4t-20.5 10.5t-14 15.5t2.5 18zM211 293q14 10 34 22t39 26t35 30t23 33
q3 10 3.5 24.5t-3.5 27.5t-13 22.5t-24 9.5q-10 0 -21.5 -13t-23 -32.5t-22 -43t-18.5 -44.5t-12.5 -37t-4.5 -20q3 -2 4 -3.5t3 -1.5h1z" />
    <glyph glyph-name="xx" unicode="xx" horiz-adv-x="1017" 
d="M503 155q-5 -7 -17.5 -28t-27.5 -43.5t-29.5 -40t-23.5 -17.5q-28 0 -50.5 9t-42 24.5t-36 35.5t-31.5 43l-9 12q-2 1 -3.5 3.5t-3.5 4.5q-2 3 -3 5q0 1 0.5 2t0.5 3q0 3 -5 3q-3 0 -5 -3t-6 -5l-15 -18q-21 -32 -43.5 -62t-45.5 -60q-6 -6 -9.5 -9t-6.5 -11l-10 -13
q0 -4 -3.5 -7.5t-7.5 -6t-7.5 -4t-4.5 -1.5q-10 0 -14 10t-4 24v6v4q0 5 3.5 10t3.5 8q0 5 1 8q0 3 7 15t16 25.5l17 25.5t11 15q8 12 20.5 27t26 32t26 34.5t20.5 33.5q0 19 -5 36.5t-11.5 31.5t-13 24.5t-8.5 16.5l-6 13q-2 7 -5 8t-8 1l-17 -5q-3 -2 -8 -2q-4 0 -8.5 1
t-4.5 2l8 10q6 9 8 20q4 5 5.5 10.5t2.5 10.5v1q2 2 2 7q0 2 -1.5 6t-3.5 9v3q0 4 -3 7.5t-3 8.5q0 14 7.5 23t13.5 11l13 5l1 1q1 0 1 0.5t1 0.5h5q8 0 15.5 3t15.5 3q6 0 16 -3.5t10 -13.5l38 -93l4 -8q0 -5 9.5 -16.5t17.5 -14.5l6 4q2 2 3 3.5t4 3.5l21 28
q21 29 39 55.5t35.5 46t35.5 30.5t40 8q12 0 22 -9.5t10 -21.5q0 -18 -7.5 -29t-18.5 -25l-6 -13q-2 -2 -5 -4.5t-7 -2.5q-1 0 -5.5 1.5t-4.5 3.5q0 3 2 7l4 8l3.5 7t0.5 3v6v2q0 6 -8 6q-4 0 -6 -4.5t-2 -6.5l-3 -6q-1 -4 -6.5 -10.5t-18.5 -22.5t-34.5 -44.5t-54.5 -76.5
q-3 -8 -9 -16q0 -4 5.5 -10.5t9.5 -10.5l3 -7q23 -33 40.5 -70.5t28.5 -82.5q4 -5 7 -11.5t8 -6.5l3 5q1 3 9 15t20.5 29.5t27.5 38t29 40.5t26 36.5t18 26.5q20 29 40.5 59.5t41.5 70.5q20 42 35.5 77.5t17.5 49.5q2 6 3.5 12t5 10.5t10.5 7.5t19 3q5 0 9.5 -1.5t8.5 -1.5
q3 0 5 1q6 0 15 -2.5t9 -18.5q0 -20 3.5 -40t8 -41.5t8 -43.5t3.5 -44q0 -7 5 -7q2 0 5.5 4t7 8.5t5.5 8t1 2.5q5 8 7 12.5t10 15.5q9 18 15 28t10.5 16l7.5 10t7 11q16 16 30 34t29 33.5t33 25.5t42 10q14 0 29 -7.5t15 -25.5q0 -7 -2 -19t-5 -23t-7.5 -19.5t-9.5 -8.5
q-1 0 -2 2q-2 4 -2 8v1q0 4 1 7.5t1 7.5q0 10 -9 15t-19 5q-8 0 -11.5 -4.5t-9.5 -10.5q-29 -32 -48 -60t-33 -53.5t-26 -47.5t-27 -41q-10 -15 -14 -26t-5 -17t-0.5 -8t0.5 0q0 -22 3 -34t7.5 -18t8 -9t5.5 -7q9 -21 15.5 -41.5t11 -37t8.5 -28t9 -14.5l5 -8v-3
q0 -14 -9.5 -19.5t-13.5 -5.5q-5 0 -12 1.5t-25 11.5q-14 10 -28.5 28t-20.5 26l-1.5 4t-3.5 9t-4.5 9t-5.5 4q-2 0 -6 -7.5t-7 -16t-4 -13.5t1 0q-34 -56 -52 -89t-27 -50.5t-12.5 -23t-7.5 -5.5q-6 0 -17.5 6t-23.5 14q-4 1 -7.5 6t-5.5 11.5t-3.5 13t-1.5 9.5q0 16 14 34
t34.5 41t42.5 52.5t38 68.5q4 8 7 15.5t3 12.5q-2 28 -6 47.5t-9 36t-11.5 32.5t-13.5 37q0 5 -1.5 7t-1.5 6v8q0 2 -4 11.5t-9 9.5h-3q-13 0 -28.5 -20.5t-35.5 -56t-46.5 -83.5t-60.5 -102z" />
    <glyph glyph-name="tt" unicode="tt" horiz-adv-x="707" 
d="M46 410q2 -2 6 -2q3 3 9 4t17 1.5t26 3t36 9.5q2 2 4.5 1.5t5 0.5t4 5.5t1.5 16.5q0 16 1 34t2.5 35t3 31.5t3.5 22.5l5 62q4 17 5.5 36.5t1.5 33.5q0 4 -1 9t-1 7q0 8 6 13t14 7q8 0 11 -2q7 0 9 2h9q2 0 3 -1t2 -1q6 0 12 4t11 4q6 0 11.5 -4.5t7.5 -4.5l4 -14
q3 -2 3 -9q0 -15 2.5 -25.5t2.5 -30.5q0 -3 0.5 -7t0.5 -11.5t0.5 -20.5t0.5 -34q-1 -21 -1 -35t1 -23t2 -14.5t2 -9.5q0 -9 -2 -12v-11q3 -3 9 -3q5 0 8.5 2.5t6.5 2.5q22 3 36 6t24.5 6.5t19.5 6t20 3.5q7 0 10 2t9 7v4q0 7 0.5 13t0.5 14q1 76 1.5 117.5t1 62t0.5 25v6.5
v6.5t-2 6.5v5q0 4 6 7l31 6q9 0 20.5 -1t22.5 -3l18 -2q4 0 4.5 -1.5l1.5 -4.5l5 -22q0 -6 -3 -12v-104q0 -10 1.5 -19t1.5 -20v-6q1 -4 1.5 -11.5t0.5 -16t1 -15.5t3 -10l3 -1q6 -1 21 2.5t31 8t29.5 8t18.5 3.5q26 -5 31 -6t5 -3l4 -6q8 -5 12.5 -8.5t4.5 -9.5l-4 -17
q-3 -9 -10 -14t-16 -7t-18.5 -3t-17.5 -2h-1q-33 0 -51.5 -3.5t-28.5 -8.5t-12.5 -10t-2.5 -7l3 -43q0 -9 -0.5 -41.5t-1.5 -74t-2 -85t-1.5 -73.5t-1 -39.5t0.5 15.5v-13t0.5 -20.5t2.5 -19t6 -8.5q11 0 22 7.5t21 18.5t17.5 23t12.5 21q2 9 7.5 18t11 16.5t9.5 12t3 4.5
q2 1 5 1q6 0 8.5 -6t2.5 -11q0 -2 -1 -5t-1 -5l-1 -19q-5 -17 -20 -37.5t-24 -42.5q-8 -14 -19.5 -24.5t-25 -17.5t-27 -11t-25.5 -4h-14q-8 0 -18.5 4.5t-10.5 6.5l-15 14q-9 10 -13 22l-8 20q-4 15 -7 42.5t-4 62t-0.5 74t2.5 77.5q0 11 -0.5 19.5t-0.5 16.5q0 7 -1 18
t-3 17l-2 30q0 8 -1 15t-1 15h-16q-4 1 -16 -2t-26.5 -7.5t-30 -9.5t-28 -9t-20 -5t-6.5 3q-5 0 -6 -4.5t-1 -6.5q0 -3 0.5 -5t0.5 -4q0 -23 -1.5 -47t-7.5 -48q-5 -11 -5.5 -23t-0.5 -20q-3 -28 -5 -60t-2.5 -59t-1 -42.5t-0.5 -10.5q0 -25 7 -48t19 -37q2 -2 9.5 -5.5
t9.5 -3.5q7 0 13.5 6.5t12.5 14.5l25 31q4 2 4 4l13 30q3 3 8 3h3q8 0 9.5 -5.5t1.5 -13.5q-2 -5 -1.5 -11t0.5 -8l-4 -12v-4t-1 -3l-11 -23q0 -2 -2 -5t-2 -6q-5 -17 -24 -33.5t-37 -20.5q-5 0 -12.5 -1.5t-14.5 -1.5t-18 1.5t-23 5.5t-22 11t-16 18l-20 30q-8 16 -13.5 37
t-6.5 42l-9 225q0 5 -0.5 11.5t-0.5 11.5v52q-2 5 -2.5 5.5t-5.5 0.5q-8 -3 -17.5 -4.5t-17.5 -2.5q-9 -1 -14.5 -1.5t-11 -0.5h-11.5h-16q-4 0 -8 2l-4 3q0 8 -7 13.5t-9 16.5h16z" />
    <glyph glyph-name="ee" unicode="ee" horiz-adv-x="920" 
d="M269 -7q-2 -1 -4.5 -2t-5.5 -1l-29 -3q-9 0 -20.5 -1.5t-40.5 1.5q-16 4 -23.5 7.5t-24.5 13.5q-2 4 -6 6t-13 8q-6 6 -9 7l-12 14q-1 0 -1.5 1.5t-5.5 11.5l-9 9q-2 4 -4.5 8t-4.5 6l-8 34q-11 18 -12 33t-3 29v2q-5 8 -5 15.5v15.5t1 15.5t1 14.5v3q0 41 7.5 86.5
t24.5 87.5t44 76t66 53l26 8q26 0 37.5 3.5t18.5 3.5q3 -1 9 -2.5t12 -2.5t11 -1.5t6 -0.5q5 0 9 2t7 2q5 0 13.5 -1.5t18 -4t17.5 -5t11 -4.5q36 -11 54.5 -33t24 -49t0.5 -56.5t-15 -56.5q-17 -28 -41.5 -52t-53 -43.5t-59.5 -33.5t-61 -22q-11 -6 -25 -10.5t-27 -8
t-22 -5.5t-9 -4l3 -10q-2 -1 -2 -6q0 -3 1 -6.5t1 -6.5q0 -4 -2.5 -7.5t-2.5 -4.5q0 -4 1.5 -8.5t1.5 -9.5l5 -20q0 -2 2.5 -9.5t6.5 -7.5l4 -6q2 -4 8 -9t13 -10q8 -6 17 -13q20 -6 41.5 -2t43.5 16q8 4 27 17.5t38.5 27.5t35 26t18.5 14q1 0 6 2t11 5t10.5 6t4.5 4l2 1
q7 4 11 8t10 9l7 8q5 0 7 3t4 5l15 16q1 2 1 6q0 2 -0.5 3t-0.5 3q0 6 3 14q0 2 -2.5 4.5t-2.5 4.5q0 3 2 4v9q0 5 2 6t2 6l-1 2q0 2 2 6t2 7l5 12q0 7 3 16q7 28 17 52.5t23 52.5q4 11 23 31.5t43 39.5t48 31t37 8l10 3q12 0 20 3t19 3q3 0 7.5 -1.5t5.5 -1.5q4 0 3.5 4
t1.5 4q1 0 2 -1.5t2 -1.5q2 0 4 2t4 2q3 0 6 -3t12 -3q2 0 4 1t4 1q5 0 8.5 -1t8.5 -1h7q9 0 16.5 -4t12.5 -8.5t8 -7.5t2 -2v-2q6 -1 8 -4.5t6 -7.5l9 -18q4 -10 5.5 -15.5t1.5 -12.5q0 -1 -1 -2.5t-1 -3.5q0 -5 1.5 -9t1.5 -7q0 -5 -0.5 -9t-0.5 -9l-3 -12q0 -4 -5 -14
t-12 -21.5t-13.5 -21t-9.5 -12.5l-8 -10q-84 -119 -234 -152q0 -2 -2 -9.5t-2 -11.5q0 -7 3 -13v-5q0 -6 -1 -11t-2 -9l-2 -8q0 -6 4.5 -11t7.5 -8l8 -6q1 -2 3 -1.5t4 -1.5q18 -12 36.5 -15t34.5 -1t27.5 6t16.5 5q11 7 38.5 23.5t50.5 43.5q14 11 26 17t13 10l2 1q5 2 8 4
t7 5q4 4 7.5 14t5.5 10q5 0 14.5 -5.5t9.5 -10.5q-10 -10 -33 -50q-10 -17 -18 -25t-10 -6v-2q0 -5 -3 -6.5t-5 -3.5l-4 -6q-2 -3 -4.5 -6.5t-6.5 -5.5l-28 -22q-14 -4 -18.5 -9.5t-8.5 -7.5l-1 -1q-25 -8 -37 -13t-16.5 -8t-5 -4t-1.5 -1q-2 0 -3 1q-3 3 -3 2
q-2 0 -4.5 -3.5t-6.5 -3.5q-1 0 -4 1.5t-5 1.5h-10q-4 -3 -12 -3q-5 0 -11.5 1.5t-12.5 1.5h-4q-2 -2 -6 -2q-3 0 -6 3h-2q-7 0 -9 2.5t-7 3.5h-2q-5 6 -15 6l-1 -1q-1 0 -1 1q-2 5 -13.5 11.5t-16.5 9.5l-11 11q-3 5 -8 8t-7 8l-3 5q-1 3 -2.5 5.5t-3.5 4.5l-7 6
q-5 5 -11 17.5t-7 18.5l-9 24q-1 4 -7 4q-3 0 -5 -1l-7 -6q-9 -6 -24.5 -17t-31 -23.5t-28.5 -23.5t-16 -17q-8 -5 -21 -15t-27.5 -20.5t-29 -18t-24.5 -7.5q-2 0 -3 0.5t-3 0.5zM368 469h1q-5 5 -4.5 8.5t-4.5 5.5h-1q0 6 -9 8.5t-20.5 2.5t-21 -1l-9.5 -1q-8 0 -20 -9
t-23 -19.5t-19.5 -21t-9.5 -13.5q-13 -9 -24.5 -23t-20 -29.5t-13.5 -29.5t-4 -22q0 -8 -5.5 -20t-10.5 -23t-7 -19.5t3 -8.5q36 18 56.5 28.5t33 17.5t20.5 12t20 13q32 25 50 44t27.5 34.5t13 27.5t5.5 22zM665 377q-24 -51 -36.5 -76t-18 -35.5t-5.5 -13v-7.5
q16 5 39.5 18t46.5 29.5t43.5 34t30.5 29.5l18 18q5 8 12 14.5t13 13t10.5 14t4.5 18.5l4 18q0 8 -3.5 16t-11.5 12q-28 3 -51 -7.5t-42 -27.5t-32.5 -36t-21.5 -32z" />
    <glyph glyph-name="oo" unicode="oo" horiz-adv-x="982" 
d="M895 85q-6 -8 -14.5 -18t-17 -19.5t-15.5 -16.5l-10 -10q-18 -20 -42.5 -25.5t-51.5 1t-53.5 24.5t-48.5 45q-26 26 -42.5 55.5t-26 64t-13 75t-3.5 88.5q0 4 -4 4h-2h-32q-7 0 -14 1t-13 1h-8q9 -27 4.5 -65t-16.5 -77.5t-28.5 -77t-31.5 -63.5q-29 -48 -76.5 -72
t-103.5 -16q-8 0 -13 3.5t-12 6.5q-31 13 -53 33t-38.5 45t-28 55t-21.5 64q-5 29 -1.5 59t5.5 60q9 31 14.5 53.5t14.5 43.5t25 45t47 58q4 4 9 10.5t11 12.5t13.5 10t15.5 4q5 0 10 1.5t12 0.5q19 4 39 -1.5t31 -10.5h7t15 2q2 -2 21 -2q14 -5 32 -9t21 -12h2
q0 -11 1 -13.5t-1 -2.5q-54 -3 -91.5 -20.5t-62.5 -43.5t-39.5 -58.5t-22.5 -65.5t-12 -63t-7 -52q-1 -19 4 -44t16 -47t27.5 -37t39.5 -15h18t21 2q25 0 47 23t39 59t27 79.5t12 84.5t-5 74.5t-25 49.5l-8 15q-3 2 -3 3.5t-3 4.5q12 -4 20.5 -1.5t16.5 4.5t17.5 1t23.5 -12
q2 -2 3 -2.5t3 -4.5v-2q5 -3 4.5 -11.5t5.5 -8.5q23 -1 45.5 4.5t42.5 5.5q14 0 22 10t13.5 23.5t10.5 27t13 21.5q6 6 15.5 18t19 23.5t17 20t10.5 8.5t6 -1t6 -1l19 -8q2 0 3.5 1t4.5 1l8 -2q83 -2 132.5 -23.5t75.5 -58t34 -85t8 -102.5q0 -23 -7.5 -50t-20 -55t-28 -55
t-31.5 -50zM813 486q-34 -15 -66.5 -48t-51.5 -67q-7 -23 -10 -50.5t-1.5 -55.5t6.5 -55.5t13 -51.5q6 -10 11.5 -22t12.5 -24t17 -22.5t25 -17.5q4 0 4 -4h4q5 5 8 9.5t6 9.5q10 14 18 28.5t17 30.5l10 14q6 7 14.5 24t17.5 36.5t16 37t9 25.5q2 16 4.5 26.5t2.5 16.5
q0 5 -1.5 11t-1.5 12v14q0 16 -10.5 41t-24.5 46.5t-28 33.5t-21 2z" />
    <glyph glyph-name="cc" unicode="cc" horiz-adv-x="872" 
d="M867 298q4 1 5 -5q-3 -11 -4 -19t-4 -14q-34 -65 -77.5 -120.5t-99.5 -97.5q-26 -17 -47.5 -24.5t-39.5 -7.5t-35 6.5t-34 16.5l-36 31q-5 2 -14 17t-20 32q-1 1 -1 3l-9 21q-3 6 -18 -4t-32.5 -27t-34.5 -36t-25 -30q-21 -20 -51.5 -34t-63 -17t-62.5 5.5t-50 33.5
q-20 26 -35.5 58t-15.5 67q-4 33 -1.5 74t12 85t26 86t40 76t53.5 56.5t68 26.5q50 -3 76 -29t35.5 -63t6 -80t-12.5 -81l-4 -8q-4 -8 -5.5 -12.5t-10.5 -13.5q-7 2 -12.5 3t-6.5 9v2q-1 5 -1.5 9.5t-1.5 8.5q-2 14 -2 26t3 37q-2 14 3.5 28.5t3.5 27.5q-1 6 -3.5 16.5
t-7 21t-11 18.5t-14.5 9q-6 0 -11 5.5t-9 5.5q-3 0 -3 -1t-1 -3q-32 -44 -50 -92.5t-28 -99.5t-12.5 -103.5t-2.5 -104.5q0 -7 2.5 -17.5t7.5 -15.5q7 -12 15.5 -15t18.5 -1.5t20.5 5t20.5 4.5q12 2 33 16.5t53 40.5q3 2 8 7.5t15 14t26.5 19.5t42.5 25q-1 0 -1.5 12.5
t-0.5 27.5t-0.5 26.5t-0.5 8.5l2 15q3 25 14 57.5t25 66.5t29.5 67.5t27.5 61.5q0 4 5.5 9.5t12.5 10.5t14.5 9t11.5 5q12 5 25 7.5t26.5 4t26.5 3.5t25 8q4 0 23.5 -4t42 -14t41.5 -25t21 -37q0 -4 1 -8t1 -8q0 -9 -0.5 -20.5t-2.5 -22.5l2 -10q-5 -2 -5 -6q2 0 2.5 -3
t-2.5 -4h-4q-2 0 -10.5 -7t-9.5 -12l-3 -1q-3 0 -5 2.5t-4 1.5h-3q-1 0 -2.5 3.5t-1.5 5.5q-1 3 1 7t2 7v1q1 5 2 13t0 12q-1 9 -6 21.5t-10 19.5q-22 23 -39 29t-28 6q-7 -1 -14.5 -17.5t-27.5 -51.5q-18 -43 -36 -83t-30 -80.5t-16.5 -83.5t4.5 -92q16 -29 39 -28
t45.5 15.5t40 32.5t20.5 24q-1 -1 5 5l16.5 16.5l23.5 23.5t26 25.5t24 22.5t17 16h1q7 8 17.5 17t11.5 12l13 1v0z" />
    <glyph glyph-name="mx" unicode="mx" horiz-adv-x="1136" 
d="M1149 592q0 -1 0.5 -1.5t0.5 -2.5q0 -3 -2.5 -4t-2.5 -4l-4 -7q0 -1 -1.5 -10t-4 -20.5t-6.5 -23.5t-10 -19l-12 -15q-5 -5 -9.5 -8t-12.5 -3h-5q7 8 10 13.5t7 16.5l18 46q0 1 0.5 1t0.5 2q-3 -2 -6 -3.5t-4 -6.5l-13 -20q-3 -2 -4 -4l-2 -4l-5 -12l-12 -17
q-6 -12 -11 -25t-13 -28q-11 -20 -17.5 -33t-9.5 -20.5t-3.5 -11.5t-0.5 -7q0 -5 -3.5 -17.5t-8.5 -26t-9.5 -25t-5.5 -14.5q-4 -7 -3.5 -13t-2.5 -11v-2q0 -1 1 -1q6 -12 11 -17t6 -7q26 -51 54 -86.5t50.5 -58.5t37.5 -35.5t16 -19.5v-8v-2v2q-3 -9 -7 -15
q-5 -6 -12 -10.5t-20 -4.5q-15 2 -24 2t-16 2t-14.5 8t-20.5 19l-77 93q-4 3 -10.5 11.5t-11.5 8.5h-2q-1 0 -2 -1l-8 -10q-2 -2 -4.5 -11t-18.5 -40l-8 -14q-5 -13 -13 -25t-16 -29l-21 -33q-8 -10 -14 -23l-14 -16q-2 -4 -10 -12l-9 -14q-5 -5 -9 -5q-5 0 -8 2h-3
q0 5 -6 7t-6 15q0 5 4 7t3 7q-1 -2 19 23t49 88l43 92q4 11 10 20t6 23q0 1 -5.5 12.5t-12.5 26t-14.5 27t-10.5 14.5l-8 23q-3 3 -5 9t-3 6q-4 0 -7 -5t-5.5 -11.5t-4 -13t-2.5 -10.5l-10 -25q-11 -26 -26.5 -60t-35.5 -66t-43.5 -56t-48.5 -30t-52.5 10.5t-54.5 66.5
l-16 45q-3 8 -7 29.5t-4 49.5q0 20 4 41.5t4 38.5q1 2 2.5 13t3.5 25.5t5 29.5t6 25l4 29v1q-8 -8 -28.5 -37t-52.5 -86l-28 -55l-15 -23q-3 -3 -7 -22.5t-7 -42.5t-5 -43.5t-3 -26.5q0 -20 -3 -38.5t-13 -24.5q-1 -1 -6 -2t-6 -1t-6.5 -0.5t-12 4t-11.5 18t-5 41.5l2 43
q3 12 3 26q0 11 1 19t2.5 18.5t3.5 27t3.5 44.5t2.5 71.5t1 107.5v16q0 1 -0.5 5t-1.5 8.5t-2 8t-2 3.5h-1l-19 -11l-10 -10q-38 -38 -58 -83t-41 -97l-31 -101q0 -6 -8 -31.5t-17 -55.5t-17 -56.5t-8 -35.5q0 -8 -3.5 -20t-11.5 -17l-10 -6q-6 0 -8 4t-3 9.5t-1 12.5t-1 13
l-3 14q0 4 -3 16t-7 28.5t-7.5 35.5t-4.5 38q-13 74 -11 151t2 154q0 3 1 12.5t1.5 19t2 17.5t3.5 8l7 8q0 2 5 4.5t7 2.5q11 0 25 2.5t27 5t23 2.5t12 -6q1 -13 9.5 -31.5t9.5 -36.5q0 -15 5 -19t7 -13q12 12 19 28q6 11 19.5 25.5t30.5 28t35.5 23t33.5 9.5q4 0 6 -1t5 -1
q5 0 9 1t9 1q6 0 14.5 -10t16 -23t13.5 -24.5t6 -15.5q2 -5 0.5 -31t0.5 -58v-8q2 0 2 -2v-1q1 2 2 3t1 3q20 31 33 49t21 28.5t13.5 16.5t12.5 14.5t16.5 22t26.5 38.5l4 5q11 4 21.5 4.5t22.5 5.5q14 -2 21.5 -8.5t10.5 -16.5t3.5 -21.5t0.5 -22.5q0 -30 -0.5 -61.5
t-1.5 -67.5t-2.5 -78t-3.5 -94q0 -11 1 -23.5t4.5 -24t9 -21.5t14.5 -14q36 13 57 41.5t36 66t27.5 80t30.5 82.5q0 1 -0.5 7t-1 14.5t-2 18t-3.5 17.5v12q0 2 -0.5 5t-2.5 17q0 2 -1.5 5.5t-1.5 5.5q0 8 1 15t1 15q0 14 -1.5 25.5t6.5 25.5q6 10 12 10.5t11 0.5h6q7 4 17 4
t19 -4t15.5 -11t6.5 -17q0 -5 -1.5 -8.5t-1.5 -6.5q0 -2 1 -5.5t1 -5.5l17 -99q0 -19 9.5 -37t9.5 -38q0 2 4.5 6.5t10 12t10.5 17.5t6 24q4 8 7 16.5t8 16.5q2 4 5 12.5t6.5 16t6.5 13.5t4 6q8 23 19 43q9 17 20.5 34t24.5 25l11 7q8 4 16.5 8t22.5 12q4 3 8 3
q10 0 11 -5.5t3 -5.5z" />
    <glyph glyph-name="ns" unicode="ns" horiz-adv-x="825" 
d="M640 -65q29 5 46.5 32.5t19.5 70t-13.5 96t-52.5 110.5q-5 7 -9.5 14.5t-9.5 15.5l-3 5q-10 -10 -23 -33t-28 -52t-32 -60.5t-35 -58.5t-36.5 -45t-37.5 -21q-11 -2 -23 1.5t-23 8.5q-41 49 -61 108t-27 113.5t-5 97t6 58.5l5 29q-21 -29 -40 -59t-40 -64l-10 -16
q-8 -8 -11 -15.5t-3 -14.5q-1 -5 -4.5 -29t-8 -51.5t-9 -52.5t-7.5 -33q-6 -28 -10 -44.5t-7 -25.5t-4.5 -12t-2.5 -3l-8 -7l-8 -2q-2 -4 -6 -4t-4 5q2 36 2.5 58t0 36t-2 23.5t-3.5 22t-5.5 31t-7.5 50.5t-8.5 80t-9.5 120q0 4 -0.5 7.5t0.5 8.5q1 27 3.5 43t5 25.5t5 14.5
t3.5 10q2 4 4 5.5t5 3.5q10 5 24.5 3.5t27.5 -7.5t22.5 -15.5t9.5 -19.5q0 -1 0.5 -3t0.5 -4l5 -11q4 -7 4.5 -19.5t0 -26.5t-0.5 -28t3 -24h2v1l43 77q4 5 7 10t6 9l18 30q7 8 11 20.5t14 15.5q20 2 27 3t12 0q2 0 4 -1t4 -1q1 0 1.5 0.5t2.5 0.5q7 0 12.5 -11.5t10 -26.5
t7 -28.5t2.5 -16.5q-1 -6 -2 -12.5t-1 -11.5q-1 -9 1 -19t2 -21q0 -39 -3 -78.5t-4 -79t1 -79.5t13 -81q1 -4 3 -8.5t7 -5.5q14 0 21.5 7t13.5 10q16 18 42 48.5t51 64t43 66t18 54.5q0 10 -4 20.5t-8.5 21.5t-8.5 22t-4 22q-2 11 -2.5 29.5t2 38t9 36t18.5 23.5l46 23
q2 0 4.5 -1.5t4.5 -1.5q3 0 6 3l20 9q8 0 8.5 6t5.5 6t7 -2t5 -6l9 -10q2 -1 3 -2t3 -1q1 0 4.5 0.5t13.5 2.5q11 0 17.5 -8.5t9.5 -18.5q4 -11 5 -26q0 -5 1 -14.5t2.5 -20l3 -21t1.5 -17.5q0 -20 -7 -44t-26 -38q-7 -3 -8 -2t-5 3q-2 0 -2 7q3 7 3 17q0 7 -1.5 13.5
t-2.5 13.5q-2 16 -4.5 32t-2.5 38q-2 10 -1.5 16.5t-1.5 11t-7.5 7t-18.5 2.5q-18 0 -26 -22.5t-5.5 -55t15.5 -68.5t36 -63q51 -54 81 -123t33 -150q3 -49 -13 -87t-43 -61.5t-60.5 -33.5t-66.5 -3.5t-61.5 29.5t-43.5 64q-2 12 0.5 23.5t7 23t10 22.5t10.5 22l14 25
q7 10 10 18t6 8q2 -1 4 -3t7 -2q1 0 1 0.5t1 0.5q3 0 4.5 -6t1.5 -8t-0.5 -4t-0.5 -4l-3 -5v-7q0 -2 1.5 -3t1.5 -2q-11 -32 -13.5 -52t1.5 -31t14 -14t25 0z" />
    <glyph glyph-name="nx" unicode="nx" horiz-adv-x="862" 
d="M876 591q2 -2 2 -4l-1 -1v-2v-12q0 -9 -4 -18.5t-10 -16.5t-14 -11.5t-16 -3.5q0 5 1.5 9t1.5 7q0 2 -1 2t-2 1q-4 0 -3.5 -3t-1.5 -5q-15 -26 -25.5 -51.5t-19.5 -51.5t-18.5 -53t-22.5 -57l-8 -22q-3 -9 -6 -14.5t-8 -16.5l-7 -12q0 1 -2 -4.5t-5 -14t-5.5 -17.5
t-2.5 -14q0 -6 1 -11q3 -7 11.5 -24t19 -35t20 -33.5t13.5 -19.5q11 -14 20.5 -25t18.5 -17.5t18.5 -6.5t20.5 8q8 5 18 11t18 6q4 0 4.5 -3.5t0.5 -5.5q0 -3 -2 -5.5t-4 -5.5l-36 -29q-3 -2 -15 -9t-41 -8q-26 0 -45.5 17.5t-34 39t-26 39.5t-21.5 18q-3 0 -7 -7.5
t-8 -17.5l-8 -20t-7 -15l-20 -36q-3 -6 -13.5 -24.5t-24 -37.5t-27.5 -34t-22 -15q-20 0 -22.5 8.5t-0.5 19.5q0 3 2 9t4.5 12.5l5 13t4.5 9.5l29 59l21 52l19 42q5 11 9 21t10 19l4 9q0 2 1 2.5t1 2.5q0 4 -2.5 12t-6.5 16.5t-7.5 16t-6.5 10.5l-7 -4l-3 -12
q-1 -10 -13.5 -34.5t-28.5 -52t-32.5 -52.5t-24.5 -36q-7 -8 -13 -14t-12.5 -10.5t-14 -9l-17.5 -10.5q-16 -9 -32 4t-29 35t-21.5 46.5t-10.5 38.5l-2 19q-2 26 -2 33v10q0 5 1 11t1 11q2 30 6.5 67.5t8.5 70t5 53.5t-3 19q-25 -12 -50.5 -34.5t-47.5 -45t-37.5 -40.5
t-20.5 -23q-2 -10 -3.5 -23t-3.5 -33.5t-5.5 -52t-9.5 -78.5q-5 -21 -6 -43t-9 -43q-5 -11 -9 -20t-19 -9q-14 0 -26.5 57t-12.5 174q0 9 0.5 18.5t1 25.5t1 41.5t0.5 66.5q2 6 2 11.5v10.5l5 37q0 39 15 84q0 2 1.5 7.5t5.5 11.5t10.5 10.5t16.5 5.5q5 1 9.5 1h9.5
q3 0 6 0.5t7 0.5q12 0 20 -8.5t8 -16.5q0 -7 -0.5 -17t-1 -20.5t-1.5 -19.5t-2 -13v-3q-2 -7 -2.5 -17t-0.5 -21q-2 -4 -2 -8v-9q0 -7 3 -7h1q1 0 3 2q20 10 41.5 35t44.5 53t47 52t49 33q10 0 21 4t22 4q6 0 13 -1t7 -7v-16q0 -4 -2.5 -16t-6 -27.5t-6 -33.5t-2.5 -34
q0 -2 -1.5 -22t-4 -49.5t-5 -65t-5.5 -69t-5 -61.5l-3 -42l3 -25q3 -9 4 -22t10 -13q20 0 35.5 17.5t27 41t19 47t12.5 35.5l10 23q7 11 10 28l14 38q2 7 5 12.5t4 11.5l9 32q2 4 2.5 8.5t0.5 9.5v18t0.5 23t1 34.5t2.5 50.5l3 28q0 2 0.5 12t3.5 21t9.5 19.5t18.5 8.5
q2 0 4.5 -1.5t3.5 -1.5q7 0 9.5 0.5t4.5 1t4.5 1t8.5 0.5q10 0 15.5 2t13.5 2h6q5 0 10.5 -0.5t5.5 -11.5q0 -5 -3 -8.5t-5 -6.5l-9 -20q-6 -10 -8.5 -22t-2.5 -33t1 -54.5t3 -85.5q0 -5 -0.5 -8.5t-0.5 -5.5q0 -1 0.5 -3t2.5 -2q4 1 4.5 4.5t1.5 5.5l24 52q12 22 23 47.5
t22.5 51.5t23.5 51t26 45q4 4 7.5 9.5t10 11t18 9.5t31.5 4q5 0 7 -1t2.5 -3t1.5 -5t4 -6z" />
    <glyph glyph-name="cx" unicode="cx" horiz-adv-x="873" 
d="M474 -14q24 50 37 79t21 46t13 26t13 20q3 9 9 20t11 21l5 8q0 10 -4.5 21t-10.5 25t-13 33t-12 45q-7 -35 -35 -76.5t-61.5 -81.5t-65 -74.5t-46.5 -55.5q-3 -4 -12.5 -11.5t-20.5 -15t-20.5 -13t-12.5 -5.5q-11 -6 -31.5 -11.5t-42.5 -8t-41.5 -0.5t-27.5 12l-5 3
q-7 7 -10 11l-11 9q-5 4 -7.5 9.5t-4.5 10.5l-9 11q-5 8 -7 16.5t-2 11.5q0 5 -2.5 9t-2.5 8l-3 28q0 3 -1 7.5t-1 16.5t1 33.5t5 59.5q13 44 22 72.5t17.5 49.5t18.5 38.5t26 39.5v1q5 6 8.5 20t5.5 14l4 5q18 17 39 30t40 21.5t33.5 12.5t19.5 4q19 0 31.5 -1.5t20.5 -6
t14 -12t13 -19.5q7 -15 10 -25.5t3 -21.5t-1 -24t-2 -34q0 -7 -5.5 -19.5t-13.5 -12.5q-2 1 -6.5 0.5t-4.5 5.5q3 5 3 12.5v10.5v12q1 23 -2.5 37.5t-10 22.5t-15 11t-17.5 3q-11 0 -17.5 -5.5t-11 -13.5t-7.5 -17.5t-7 -17.5l-3 -18q-2 -5 -4.5 -10t-2.5 -9l-3 -6
q0 -5 -6 -21.5t-9 -36.5q0 -8 -8.5 -38.5t-19 -70t-19 -81t-8.5 -69.5q0 -3 -0.5 -7t-0.5 -6t0.5 -4t0.5 -4l3 -2q3 -8 12 -9t14 1q22 9 35 15.5t21.5 12.5t15 12.5l15.5 15.5q36 40 61 73.5t47 67.5t44.5 72t53.5 86q5 17 13 25.5t8 21.5v18.5t-7 19.5v4q0 3 -0.5 5.5
t-0.5 5.5q0 5 1.5 10t2.5 13h1q15 6 28 5t30 -1q3 0 5.5 -1t5.5 -1q2 0 4 1t4 1q3 0 8 -4.5t10 -9.5q5 -6 12 -13q1 -3 1 -6q0 -9 -5.5 -16t-5.5 -16l12 -51q0 -3 1 -8t2.5 -10t3 -8.5t2.5 -3.5t1.5 2t0.5 4l34 51q12 18 17.5 27t9.5 16.5t9 16.5t14 26q12 18 26 28.5
t27.5 15.5t26 6.5t22.5 1.5q3 0 7.5 -1t5.5 -1l10 -11q5 -4 9 -13t4 -11q0 -26 -5.5 -50.5t-5.5 -50.5q0 -5 -3 -11t-6 -6t-4 2q-2 0 -3.5 -1.5t-3.5 -1.5l-1 1q-2 2 -4 2t-4 -1t-4 -1q-3 0 -4 1.5t-3 3.5l-15 13q5 -1 6.5 2t3.5 5l13 48q0 8 2 11.5t2 6.5v8t-1 7v1
q0 4 -3 10t-8 6q-15 0 -28 -17.5t-24.5 -44.5t-22 -59.5t-20.5 -61.5t-20 -52t-20 -30q-3 -5 -3 -8q0 -5 3 -14t3 -8q9 -23 16 -37t14 -23.5t13.5 -17t15.5 -19.5q6 -8 14 -19.5t15.5 -24.5t12.5 -26t5 -25q0 -5 -2 -9q0 -4 1 -6.5t1 -7.5q-1 -1 -1 -2.5t-2 -1.5l-3 -4
q-9 -10 -25 -12t-30 -4q-8 2 -15 3.5t-10 4.5l-9 7q-4 2 -6 5.5t-6 5.5l-3 5q-3 2 -4 5t-3 6l-16 28q-10 10 -15 22q-4 6 -5 13l-7 11q-1 1 -4.5 7.5t-5.5 6.5q-4 0 -12.5 -11.5t-20 -32.5t-25 -50t-27.5 -65q-2 -6 -5.5 -8.5t-6.5 -4t-5.5 -4t-2.5 -7.5q0 -3 -3.5 -5.5
t-6.5 -3.5h-1q-6 4 -11 7h-1q-6 1 -9 5.5t-6 8.5l-8 18q-1 2 -1 4.5v4.5z" />
    <glyph glyph-name="cs" unicode="cs" horiz-adv-x="795" 
d="M770 62q-1 -46 -2 -78.5t-7.5 -58.5t-21 -49.5t-43.5 -52.5q-31 -29 -68 -39.5t-83 -14.5q-19 0 -45.5 10.5t-51 28t-41.5 40.5t-17 47q0 9 0.5 22t3 26.5t7.5 25.5t14 19t14.5 19t15.5 12q3 0 4 -1l8 -11q3 -5 4 -9t5 -9q-6 -3 -10.5 -12.5t-8 -20.5t-5.5 -22t-2 -18
q0 -21 17.5 -36.5t52.5 -22.5q60 4 92.5 32t44.5 70t7 93t-19.5 100t-34.5 90.5t-38 65.5q-18 -33 -44 -80t-57.5 -93.5t-65 -86.5t-66.5 -59l-13 -6q-47 -15 -93 -12.5t-82 23.5t-58.5 61t-22.5 99q0 31 3 60.5t6 61.5q1 15 9 41.5t23 58t37 64t50 59t62 43.5t73 17
q3 0 6.5 -0.5t5.5 -0.5l7 -3q8 -5 11 -5q5 0 9.5 2.5t9.5 2.5q17 0 25 -16t12 -33q0 -8 -3 -16.5t-3 -18.5q0 -2 0.5 -2.5t0.5 -2.5q0 -3 -5.5 -6t-12.5 -5t-14 -3.5t-10 -2.5h-3v2q6 10 6 22q0 14 -2.5 20.5t-6.5 9.5t-10 4t-13 3h-6q-12 0 -24.5 -8.5t-29.5 -19.5
q-11 -9 -18 -23.5t-12.5 -31.5t-10 -34t-9.5 -29q-7 -27 -12 -43.5t-8.5 -28t-5 -18.5t-1.5 -14q-9 -79 -7 -126.5t9 -72.5t17 -32.5t17 -6.5q4 1 16 6.5t14 7.5q25 17 60.5 54t71.5 83t67.5 94t48.5 86l10 20q0 3 1.5 4.5t1.5 3.5q0 3 -3.5 15t-13.5 33q-7 21 -7.5 47.5
t-0.5 55.5q0 19 7 36.5t20 31t31 20.5t39 5l16 -4q1 0 2.5 -0.5t2.5 -0.5h2q1 0 1 1q6 0 10.5 -4.5t12.5 -2.5q11 0 19 -4t17 -12q0 -1 6 -4.5t13.5 -8.5t13.5 -12.5t6 -17.5l-1 -8q2 -7 5.5 -13t3.5 -13v-39q0 -16 -9 -32.5t-14 -33.5q-15 -14 -22.5 -6.5t-13.5 41.5
q-5 21 -7.5 43.5t-4.5 45.5l1 1q0 2 -2 4.5t-3 3.5q0 -3 -3 -6t-6 -5q-4 -3 -8 -5q-16 0 -20.5 -19t-1.5 -47.5t13 -61t24 -59.5q21 -30 41.5 -63.5t38 -69.5t29 -74t13.5 -77z" />
    <glyph glyph-name="ft" unicode="ft" horiz-adv-x="596" 
d="M594 121q0 -2 1 -2.5t1 -2.5q-1 -8 -5 -16q-3 -8 -7.5 -16.5t-9.5 -19.5q-12 -23 -27.5 -43t-34 -29t-41 -3.5t-47.5 34.5q-8 15 -11.5 31t-4.5 44.5t-0.5 74.5t0.5 121v8q0 5 -1 11t-4 6h-7q-26 0 -62 -2.5t-66 -5.5q-1 -2 -4 -2t-5 2h-10q-2 0 -4 -8t-4.5 -39t-4 -92
t-2.5 -167q0 1 0 -3t-0.5 -8.5t-2 -8.5t-3.5 -4l-6 -4q-2 1 -2.5 2t-2.5 1q0 -1 -1 -1q-1 -1 -2 -1q-15 0 -25 10q1 0 -6 9.5t-16 38t-16 79.5t-6 134l3 31q0 4 1 7t1 8v18q0 3 -2 3q-2 -2 -4 -2t-8 4t-13 4q-2 -1 -7.5 0.5t-13 3.5t-15 4.5l-13.5 4.5l-5 4l-10 4q-2 0 -5 3
l-6 6t-5.5 5l-2.5 2q0 1 2 2t3 1q15 -4 23 -4.5t14.5 0t14.5 2t23 2.5q2 0 4.5 -1t10.5 -1h6q4 0 8 2.5t8 12t6.5 28t2.5 50.5v4q0 2 1 4t1 4l3 26q0 1 -0.5 3t-0.5 4q0 13 3 24.5t3 24.5t9 40.5t26 56t42.5 51.5t58.5 28q22 4 39.5 2.5t32 -6t24.5 -10t17 -9.5l14 -9
q8 -5 11 -13.5t11 -8.5q-3 -3 -3 -4q0 -2 1 -2t1 -2l8 -11l3 -11v-3q0 -5 4.5 -8t4.5 -8t-3.5 -8.5t-7.5 -3.5q-2 0 -4.5 0.5t-4.5 0.5l-18 6q-2 4 -5 2t-3 3h1l1 2q0 13 -9.5 24t-23.5 19t-29.5 12t-27.5 3q-30 -3 -45.5 -30t-23 -66t-10.5 -82.5t-8 -77.5q0 3 -3.5 -15
t-3.5 -41v-1q0 -1 2 -1h2h1q30 0 68 -1t73 8q4 1 13.5 4.5t9.5 22.5v4.5t1 12.5t3.5 25t7.5 43v1q0 4 0.5 8t0.5 7q0 1 1.5 2.5t1.5 3.5v7v2q4 8 4 13q0 1 -1 3t-1 3v1q6 -2 11 -2q4 0 4.5 2.5t5.5 2.5q1 -1 5 -1h2q1 0 1 1q2 0 4.5 -2.5t5.5 -2.5q2 0 2.5 0.5t1.5 0.5
q4 0 6.5 -5t4.5 -11.5t3 -12.5t2 -8q-2 -1 -2 -3q0 -3 1 -4.5t1 -3.5q-1 -1 -1 -11v-25t1 -48q0 2 0 -0.5t0.5 -6l1 -7t1.5 -3.5l2 1q1 0 2 1l2 -1q4 0 8 4q8 -3 19 -6.5t16 -3.5h5q-4 0 -0.5 -0.5t9.5 -2t13 -4.5t10 -9l4 -5q6 -9 0 -15t-16.5 -9.5t-22.5 -5.5l-18 -3
q-11 -3 -15.5 -5t-6 -2.5t-3 -0.5h-7.5q-2 -1 -4 -3q-3 -3 -3 -11v-22v-16q0 -22 -4 -53t-8 -61.5t-5.5 -56t3.5 -37.5t18 -5.5t39 40.5l33 42l7 11q2 5 4 8.5t4 3.5q5 0 7 -4.5t2 -10.5t-0.5 -12t-0.5 -9v-2z" />
    <glyph glyph-name="th" unicode="th" horiz-adv-x="795" 
d="M564 543q23 1 35.5 1t19 -1t8.5 -2.5t4 -2.5l5 -10q0 -2 2 -3t2 -3q0 -11 -7.5 -18t-15.5 -11q-10 -4 -22 -7q-1 0 -2 -1t-3 -1t-4.5 1t-5.5 1t-4.5 -2.5t-3.5 -2.5h-1l-2 2h-5h-2q-1 0 -4 -22.5t-3 -67.5q0 -3 -1 -10.5t-1.5 -16t-1 -16t0.5 -8.5v-23q5 0 10 8.5t9 9.5
q11 9 27 26t31.5 35t29.5 33t21 20q5 3 7 5v2h1q2 0 3.5 0.5t3.5 0.5l20 3h3q2 0 3 1t3 1h9h4q1 0 2 0.5t3 0.5q4 0 8 -4t4 -9q0 -3 -1.5 -6.5t-1.5 -6.5v-2q-1 -1 -3 -14.5t-3.5 -30t-2.5 -31.5t0 -19l-14 -166q10 -74 26 -114.5t32 -60.5t27.5 -26t11.5 -10v-2q0 -3 -4 -5
t-8.5 -3.5t-9 -2t-5.5 -0.5q-3 0 -6 2l-16 2q-34 24 -56 48t-36.5 54t-22 67t-11.5 86l11 116q0 5 1 8t1 9q0 2 -2 2q-6 0 -19.5 -10.5t-27.5 -23t-25 -23t-12 -11.5q-3 -3 -7.5 -6.5t-9 -14.5t-8 -32.5t-4.5 -61.5q0 -14 -2.5 -33t-5.5 -38t-5.5 -36t-1.5 -26
q0 -4 -0.5 -10t-2 -12t-4 -10.5t-5.5 -4.5q-5 0 -9 -1t-13 -6q-19 4 -28.5 21t-13 41.5t-3 53.5t1.5 56q0 4 -2 3t-4 -4t-4.5 -7t-3.5 -5q-14 -18 -38 -47.5t-49.5 -58t-49.5 -49t-38 -20.5q-4 0 -8.5 2t-12.5 2q-36 0 -52.5 25t-22 71.5t-5.5 113t-3 148.5q0 17 2 39.5
t4 61.5q0 6 -1 10l-2 2q-3 1 -7 1h-6l-2 2h-1l-75 14l-14 7q-2 0 -3 1t-3 2l-14 9q0 2 -1 3l2 1q1 0 1 1h10q6 1 11.5 2.5t10.5 1.5h3q6 3 16.5 3.5t17.5 0.5h5q3 0 10.5 2t34.5 0q6 0 9 -2q8 0 8 6v6q0 3 1.5 6.5t1.5 6.5q1 16 3 29q1 11 2 21.5t1 13.5v10q0 4 2 5.5t5 1.5
t6 0.5t5 2.5q2 0 4 -0.5t4 -0.5h3v1q2 0 4.5 -0.5t4.5 -0.5l2 1h3q7 0 15 -3h9h3q3 0 3 -2q11 -12 12.5 -15t1.5 -4q-1 -6 -1.5 -16t-0.5 -19.5v-17v-7.5q0 -5 1 -9t6 -4q2 2 4 1.5t4 2.5h1q2 0 2.5 -1t1.5 -1q13 0 32.5 1.5t40.5 4.5t40 6.5t31 7.5h8q3 0 7.5 0.5t3.5 2.5
q0 13 0.5 26t2 30.5t4 42t7.5 60.5l3 27q0 9 5 14t12.5 8t15 3.5t12.5 0.5q6 0 10.5 -1.5t9.5 -1.5l1 2q3 0 8 -2.5t7 -4.5l4 -6q3 -3 3 -7v-8q0 -12 1 -21.5t1.5 -25t1 -41t-0.5 -70.5v-9v-3v-1zM404 144q17 24 27.5 37.5t16 21.5t7 11.5t1.5 6.5q0 4 -0.5 10.5t-1 29.5
t-1.5 68.5t-2 126.5q0 2 1 5.5t1 7.5q0 1 -1 1t-1 1l-1 -1q-15 -1 -34.5 -4.5t-40 -7t-39.5 -6.5t-33 -3h-7q-8 -3 -12.5 -2.5t-4.5 -5.5q0 2 -1 -15.5t-3 -46.5t-4 -67t-4 -77.5t-3 -78t0 -68t3.5 -47.5t8.5 -17q7 2 7 6q30 25 64 56.5t57 57.5z" />
    <glyph glyph-name="Li" unicode="Li" horiz-adv-x="535" 
d="M445 712q2 -5 2 -9t0 -3q0 -2 -1 -5t-1 -5q0 -4 1.5 -8t1.5 -11q0 -4 7 -4q13 0 19 1.5t17 16.5h4q1 -2 2.5 -3.5t1.5 -2.5v-19q0 -3 1 -3l-2 -11q-2 -4 -2 -5v-1l-15 -10h-3q-2 0 -2 -1l-13 -3h-7q-8 0 -18 1.5t-19.5 6t-17.5 12.5t-14 22q-4 13 -6.5 24t-1.5 12
q10 10 28 11l13 -4q2 0 5 3.5t5 3.5t6 -1.5t9 -4.5zM498 386q0 -5 0.5 -6.5t0.5 -3.5l-1 -6l2.5 -12.5t0.5 -4.5q0 -3 1 -4.5t1 -3.5q0 -1 -0.5 -2.5l-2.5 -7.5q2 -2 2 -8q3 -2 2 -4.5t-1 -4.5q0 -3 1 -6t1 -8q0 -3 -1 -6l-2 -6q0 -6 2 -12v-13q0 -4 -2 -4t-2 -3
q1 -13 1.5 -27.5t0.5 -27.5q-2 -8 0 -16q0 -14 1 -20t1 -11q-2 -3 -4 -6.5t-8 -5.5q-6 0 -15.5 -0.5t-19 -0.5t-18 2t-11.5 6q-8 7 -16.5 22t-8.5 25q-2 12 -3 35.5t-0.5 53.5t2 63t4.5 64q1 8 4 16.5t3 16.5q1 4 0.5 6.5t0.5 7.5q0 4 1.5 7.5t1.5 10.5q0 3 -2 8.5t-2 7.5
q0 1 6.5 3t16.5 3.5t21 2.5t19 1q7 0 10 -4.5t4 -11.5t0.5 -14t-0.5 -13q0 -2 -0.5 -3t-0.5 -3q2 -9 2 -11.5v-3.5v-12q0 -1 0.5 -2t1 -5.5t2 -13t3.5 -24.5zM221 655q0 -18 -1 -36t-3 -39t-6 -47t-10 -60q-24 -115 -40.5 -230t-20.5 -232v-1q0 -2 1 -5t3 -3q4 0 11.5 2
t15 4.5t14 5t8.5 3.5l24 7q63 16 125.5 29.5t126.5 26.5q6 1 12.5 2.5t12.5 1.5q2 0 4 -1.5t2 -2.5t-0.5 -1t-0.5 -1l-10 -10q-3 -3 -14 -7.5t-26 -9.5t-31.5 -9.5t-29.5 -7.5l1 1q-32 -9 -64.5 -15.5t-72.5 -20.5l-4 -2t-4 -1l-22 -5q-12 -2 -25 -6.5t-26.5 -9.5t-27 -9
t-25.5 -4q-11 0 -19 28t-14 70.5t-10.5 93t-7 95t-3.5 77t-1 39.5q0 77 4.5 153t12.5 149q1 5 1.5 9.5t0.5 9.5q0 3 -4.5 7.5t-4.5 8.5q0 7 23 9.5t51 -3t51 -18.5t23 -35z" />
    <glyph glyph-name="ro" unicode="ro" horiz-adv-x="624" 
d="M487 417l23 4q13 0 21 -5t20 -5q35 -11 57.5 -49t30.5 -83q7 -25 4.5 -53.5t-9.5 -54.5q-4 -11 -9.5 -34t-22.5 -55q-8 -26 -25.5 -56.5t-29.5 -53.5l-20 -8q-13 -4 -21 -6.5t-13.5 -4t-9.5 -1.5t-8 2q-14 0 -28 5.5t-27 13t-23.5 16t-17.5 14.5q-17 21 -27 34.5
t-15.5 22t-8 13.5t-4.5 10q-2 8 -4 17t-4.5 23.5t-4 35t-1.5 52.5l8 37q7 44 22.5 74t34 49.5t36 29.5t29.5 15l9 2zM129 -18q-12 4 -19 17t-14 24l-6 10q-7 23 -8.5 38.5t-1.5 39.5q2 5 1 20.5t-2.5 32.5t-3 32t-1.5 19q-3 81 -3.5 131.5t0 80t2 43t1.5 20.5v1q7 15 4.5 26
t0.5 18l4 12q0 5 4 5l14 8q7 3 14.5 6.5t15.5 3.5q20 0 28.5 -8.5t8.5 -19.5l14 -83l2 -7q0 -2 2 -4t4 -2t3.5 1.5l3.5 3.5q12 16 27.5 36.5t35 39t41.5 31t46 12.5h13.5t15.5 -2l25 -4q16 -2 20.5 -24.5t1.5 -48.5t-11.5 -46t-18.5 -17q-16 5 -19.5 11.5t-8.5 16.5
q-5 8 -8.5 17t-16.5 24q0 1 -3 1q-4 0 -9.5 -1.5t-9.5 -6.5q-33 -21 -55 -50.5t-47 -61.5l-13 -18q-1 0 -1 -1q-1 -1 -1 -2l-21 -179q-5 -59 -10.5 -95t-10.5 -56q-6 -24 -12 -33q-1 -8 -11 -12h-7zM605 207q0 49 -11.5 87t-42.5 74q-3 8 -11.5 12.5t-12.5 4.5
q-6 0 -9.5 -3.5t-12.5 -8.5q-9 -26 -21 -45.5t-31 -42.5q-8 -11 -15 -35.5t-11.5 -51.5t-5 -52.5t3.5 -37.5l19 -51l8 -11q4 -8 14 -13l6 -5q3 -5 8 -7l16 -6q3 -3 8 -3q1 0 2 1t3 1l11 7q2 1 3.5 3.5t3.5 4.5q10 18 16.5 28.5t11 19.5l9.5 19t13 27q9 18 18.5 39t9.5 45z
" />
    <glyph glyph-name="on" unicode="on" horiz-adv-x="927" 
d="M971 202q0 -2 0.5 -4t0.5 -4q0 -4 -2 -8q-3 -5 -5 -8.5t-10 -19.5q-23 -47 -52.5 -68.5t-58.5 -22.5t-53.5 16.5t-38.5 49.5t-13 76.5t23 97.5q14 40 29 81t15 86q0 3 -0.5 6t-2.5 3q-9 -5 -25.5 -19.5t-35.5 -33.5t-38 -40.5t-31 -40.5q-8 -14 -16.5 -28.5t-16.5 -26.5
l-18 -28q-6 -28 -10.5 -52t-6.5 -51t-3 -62t-1 -86v-11q0 -5 -6.5 -9t-11.5 -4q-10 0 -16.5 7t-10.5 11l-5 6q-8 12 -14 34t-6 42v57.5t0.5 52.5t3 53.5t7.5 60.5q8 35 15.5 71.5t18.5 70.5l5 20q0 3 -2 3q-8 0 -23 -7.5t-31 -18t-30 -23t-20 -21.5q-3 -5 -10 -14t-14 -18.5
t-12.5 -19.5t-6.5 -17q6 -18 9 -34.5t3 -49.5q-3 -36 -9 -71t-18 -68t-33 -62t-55 -53q-34 -26 -77 -26t-79 24.5t-67 62.5q-21 28 -29.5 67t-5.5 105q0 50 15.5 96.5t40 85t56 65.5t64.5 38h1q16 9 53.5 9.5t76.5 -7.5q2 -1 3.5 -0.5t3.5 -0.5l4 -5q4 -10 9.5 -14t5.5 -13
q0 -7 -4 -16t-7 -9q-2 0 -5 1h-4q-4 0 -7 -0.5t-6 -0.5h-2q-1 -2 -4 -2q-2 0 -3.5 0.5t-3.5 0.5q-7 0 -11.5 -2.5t-9.5 -6.5q-38 -25 -75.5 -60.5t-60.5 -82t-26 -103.5t28 -124q11 -25 27 -38t27 -11q25 5 53.5 21.5t45.5 48.5q19 33 29.5 66.5t21.5 78.5q4 14 4.5 27.5
t-0.5 30.5l-4 24q-1 7 -3 7t-5 -1l-8 -2q-3 -2 -6 -2q-2 0 -5.5 2.5t-6.5 2.5t-6.5 -1t-7.5 -1q-9 0 -16 9l-3 4l7 6q0 -2 8 3t11 5q1 -1 2 -1q19 0 35 12.5t31 31.5t31 41t36 42t44.5 34t57.5 17q5 0 16.5 0.5t23 -1.5t19.5 -7.5t7 -16.5q-5 -23 -12 -48t-7 -51l3 -3
q4 7 18 20.5t32.5 30t37.5 34.5t33 34q10 9 18 15q17 5 26.5 5.5t28.5 0.5q10 0 20 -12t10 -22q0 -40 -9 -79t-20 -78.5t-20 -80t-9 -83.5q0 -17 0.5 -30t4 -20.5t12 -9t23.5 4.5q5 2 10 4.5t15 8t26.5 15.5t43.5 26l11 10l2 1q1 0 1 -0.5t1 -0.5l2 -7v0z" />
    <glyph glyph-name="e_n" unicode="&#x435;&#x43d;" horiz-adv-x="1015" 
d="M70 262q0 45 12.5 87.5t31.5 85.5q24 40 48 62t46 32.5t41.5 12.5t35.5 2q17 0 37 -6.5t36 -16.5q24 -20 38.5 -41t22 -42.5t9 -42.5t-2.5 -40q-4 -13 -9 -28.5t-22 -42.5q-11 -22 -26.5 -43.5t-34.5 -40.5t-41 -34t-46 -23l-43 -21l-14 -4q-10 0 -11 -6q1 -13 8.5 -27
t18 -26t23 -19.5t24.5 -7.5q35 0 55 5.5t37 13.5q26 11 68 35t90 72q17 18 25.5 31t9.5 30l7 47q2 18 3 35t6 41l5 29q6 19 7.5 43t3.5 36l10 44q2 3 2 7l2 20q0 3 -1 7t-1 7q0 6 16 12.5t28 8.5q2 0 11 -2t10 -19q1 -19 4 -34.5t3 -31.5q0 -9 -3 -58t-13 -150v-6q0 -6 5 -6
q3 0 9.5 4t9.5 6l46 29l14 9q5 4 10 7.5t11 6.5l43 29q13 8 19.5 24t11.5 37l40 118q1 5 3.5 10t2.5 11v1q2 4 3.5 10t3 11.5t5 9t9.5 3.5q14 0 30.5 -2.5t22.5 -15.5l4 -8q4 -8 4 -17q0 -7 -1 -10l-7 -10q-7 -11 -12.5 -36t-9.5 -53.5t-7.5 -55t-5.5 -40.5l-21 -140v-30.5
t2 -44.5t6.5 -40.5t14.5 -17.5q43 0 78.5 26.5t65.5 64.5q1 1 4 5t6 8.5t6.5 8t5.5 3.5q5 0 10 -4.5t5 -10.5q0 -17 -4 -29t-12 -22.5t-19 -22t-25 -27.5q-2 -2 -4.5 -5t-4.5 -5l-28 -22q-16 -16 -37 -21t-41 -5q-8 1 -13 3l-10 4q-26 15 -43 41t-28.5 56t-17.5 59.5
t-9 50.5q0 10 -1.5 20.5t-1.5 21.5v6q0 4 -1 8t-6 4t-11 -5t-12 -11t-12 -11.5t-10 -6.5l-23 -10l-21 -10q-8 -8 -22.5 -14.5t-20.5 -8.5l-12 -6q-2 -2 -2 -5.5t-1 -6.5l-2 -9q0 -7 -1 -18.5t-4 -34.5t-8.5 -60t-14.5 -95q0 -2 0.5 -5t0.5 -7q0 -9 -9 -14q-5 -4 -7.5 -4.5
t-3.5 -0.5q-14 0 -21.5 8.5t-12.5 19.5q-5 12 -7 29q-2 14 -3 20.5t-1 10.5l-7 49v15v15.5t-1.5 12.5t-5.5 5t-4 -4q-10 -11 -30 -25.5t-42.5 -29.5t-44.5 -28t-36 -20q-21 -9 -39.5 -13t-43.5 -4q-45 0 -69.5 8t-31.5 13q-37 22 -59 53t-34 65.5t-15.5 69.5t-3.5 65z
M385 425q0 23 -9 32l-19 30q-6 3 -9 3q-2 0 -4.5 -0.5t-3.5 -0.5l-18 -10l-6 -6t-7 -5q-28 -24 -52.5 -54t-49.5 -83l-9 -29q-11 -27 -15 -53.5t-4 -56.5q0 -4 2.5 -4h4.5l24 9q15 5 34 20t38.5 34.5t38 43t33 47t23 45.5t8.5 38z" />
    <glyph glyph-name="o_d" unicode="&#x43e;&#x434;" horiz-adv-x="940" 
d="M292 -6q-71 -6 -117 19.5t-70.5 70.5t-29.5 103t7 116t39 110.5t66 86.5q36 44 95 44q14 0 27.5 -3t29.5 -3q3 0 5 0.5t4 0.5q6 0 12.5 -7.5t10 -17.5t2.5 -19.5t-11 -13.5q-58 -27 -92 -66.5t-51.5 -86.5t-22.5 -98t-5 -100q0 -27 13 -45.5t32 -27.5t41.5 -6t42.5 20
q19 13 36 35t32 48t27 55.5t20 57.5q8 25 9.5 50t1.5 51q0 12 -4 19t-9 11t-9.5 6t-4.5 4h-1q-1 0 -1.5 0.5t-1.5 0.5l-9 4q2 2 3.5 4.5t3.5 4.5h5q0 6 16 6h5q4 -2 6 -2t3 0.5t3 0.5q14 0 37.5 -10.5t47.5 -16.5t44.5 1t29.5 42q3 12 8.5 19.5t11.5 11.5t10 6l4 2
q2 -1 6.5 1.5t9.5 5.5t9 6t6 3q12 0 24 2t24 2.5t23.5 -2.5t22.5 -12q6 -6 6 -19q0 -3 -1.5 -9t-10.5 -6q-25 -4 -47.5 -32.5t-40 -68t-27 -84.5t-8.5 -83t15 -63t44 -25q17 0 34 12.5t32 30.5t27.5 38.5t20.5 35.5q19 57 34.5 114.5t15.5 120.5q0 25 -4 58.5t-12 68.5
t-21 69.5t-31 61.5q-9 14 -18 23t-29 26q-33 17 -65.5 15t-63 -16.5t-57 -39t-46 -51.5t-32 -53.5t-13.5 -46.5q-10 -2 -19 13.5t-16.5 36.5t-12 41t-4.5 26l3 15q4 17 12 31q7 12 19.5 25.5t26 25.5t26 23t20.5 19q40 30 83.5 40t85.5 4.5t79 -25t63 -48.5
q55 -82 81 -179.5t21 -195t-40.5 -188.5t-101.5 -160q-8 -8 -23 -14.5t-31.5 -10.5t-31.5 -6t-22 -1q-19 3 -39.5 12.5t-39.5 26t-34 41.5t-23 58q-3 13 -2 40t5 56.5t10 55.5t13 35l-1 1q-9 -5 -16 -5h-12q-23 0 -38.5 3t-34.5 14q-4 0 -7.5 1t-7.5 1l-1 -1q0 -1 -1 -2
q0 -18 8 -37t12 -39q0 -40 -13 -91.5t-37.5 -97.5t-59.5 -79t-78 -36z" />
    <glyph glyph-name="Lo" unicode="Lo" horiz-adv-x="656" 
d="M651 429v-1v-5.5t-0.5 -13.5t-0.5 -26q-2 -5 -2 -10v-9l-1 -15l-4 -8q-2 -6 -2 -13t-2 -14v-4q0 -17 -8 -33.5t-11 -35.5q0 -4 -3 -12t-6 -13l-7 -15l-4.5 -12t-5.5 -11l-9 -9q-2 -5 -11 -12.5t-19 -17.5q0 1 -3 -3t-8 -8.5t-10.5 -8.5t-10.5 -4h-2q-6 0 -12 -4t-13 -6
h-3q-1 0 -1.5 0.5t-1.5 0.5l-1 -1q-1 0 -1 -0.5t-1 -0.5q-4 0 -9.5 -1t-14 1t-20.5 9t-28 23q-4 2 -8 5t-9.5 8t-13.5 14.5t-20 25.5l-10 13q-9 8 -11 17q-8 12 -9 15t-4 11q0 2 -1 3.5t-1 2.5v2q0 4 -2.5 13t-5.5 17l-3 14q-2 6 -3 12q-1 5 -1.5 12t-0.5 14l-2 10v15
q0 8 0.5 16t0.5 16q0 3 -2.5 6t-2.5 6t1 7t1 9q0 4 -1 6.5t-1 7.5q2 2 2 4q0 1 -0.5 2t-0.5 3q0 4 2.5 6t2.5 4q0 3 -1 7t-1 7q0 9 3.5 18.5t3.5 14.5q0 11 8 22t8 24q0 5 6.5 10t15 9t17.5 6.5t14 2.5q3 0 6.5 1.5t6.5 1.5q6 2 9 2t5 1q2 0 3 1q14 0 23.5 9t19.5 9
q6 0 12.5 2.5t24.5 -1.5q3 3 18 -5q5 0 7 -2.5t6 -5.5q3 0 6 -0.5t6 -0.5q2 0 5 -0.5t14 -3.5q4 0 12 -5.5t13 -8.5q14 -8 20.5 -14t8.5 -8l9 -14q0 2 1 -5t6 -8l9 -14l5 -21q1 -3 1 -12q3 -5 3.5 -12t1.5 -14zM619 427q0 8 -3 19.5t-6 26.5q0 9 -7 18.5t-9 15.5l-9 13
q-3 5 -8 10.5t-13 5.5l-15 8q-3 0 -6.5 1t-11.5 1q-5 2 -13.5 6.5t-13.5 4.5q-3 0 -5.5 2t-4.5 2q-34 -9 -54 -37t-29.5 -66t-9 -80.5t8 -81.5t20.5 -69.5t29 -42.5l12 -9t16.5 -11.5t16 -9t11.5 -0.5q-3 0 0 1t7.5 3.5t8.5 6t4 8.5l12 13q2 1 12.5 23.5t22.5 51t21.5 55.5
t9.5 39q0 4 1 7.5t1 7.5q2 9 3 12.5t1 6.5q0 1 -0.5 1.5t-0.5 2.5q0 1 0.5 2t0.5 2v30zM225 666q0 -18 -1 -43.5t-3 -55.5t-6 -63t-10 -67q-24 -115 -40.5 -230t-20.5 -232v-1q0 -2 1 -5t3 -3q4 0 11.5 2t15 4.5t14 5t8.5 3.5l24 7q63 16 125.5 29.5t126.5 26.5
q6 1 12.5 2.5t12.5 1.5q2 0 4 -1.5t2 -2.5t-0.5 -1t-0.5 -1l-10 -10q-3 -3 -14 -7.5t-26 -9.5t-31.5 -9.5t-29.5 -7.5l1 1q-32 -9 -64.5 -15.5t-72.5 -20.5l-4 -2t-4 -1l-22 -5q-12 -2 -25 -6.5t-26.5 -9.5t-27 -9t-25.5 -4q-11 0 -19 28t-14 70.5t-10.5 93t-7 95t-3.5 77
t-1 39.5q0 38 1 84t3.5 92.5t5.5 91.5t7 81q1 5 1.5 9.5t0.5 9.5q0 3 -4.5 7.5t-4.5 8.5q0 7 23 9.5t51 -3t51 -18.5t23 -35z" />
    <glyph glyph-name="to" unicode="to" horiz-adv-x="781" 
d="M357 -46q-46 -4 -77 6.5t-51 30t-30.5 45.5t-15 54t-5 55.5t-0.5 49.5q0 18 5.5 48t12.5 63.5t12.5 66.5t5.5 56q0 5 3.5 7.5t3.5 7.5l-4 2q-2 1 -3 2t-2 1q-8 0 -12.5 -1t-12.5 1q-19 -7 -39 -3.5t-39 3.5q-16 0 -28 7.5t-20 16t-13 16t-8 7.5q2 4 2 8.5t7 4.5
q6 0 11.5 -3t10.5 -3q8 0 13.5 3t11.5 3q30 0 59.5 6.5t55.5 6.5q5 0 7.5 -1.5t4.5 -1.5q7 0 12 6.5t7.5 14.5t3.5 15.5t1 9.5q16 54 24 85t13.5 47t12 20.5t19.5 4.5q5 0 9.5 -3t12.5 -3q4 0 7 1q3 0 8 -2t10 -5.5t8.5 -8.5t3.5 -11q0 -66 -14.5 -134t-31 -139t-30.5 -147
t-14 -158q0 -13 5.5 -30t15.5 -32.5t23.5 -26.5t29.5 -11q11 0 26.5 8.5t29.5 21.5t23.5 27t9.5 25q0 2 -3 4.5t-6.5 8.5t-7 16.5t-3.5 28.5v12t0.5 26.5t0.5 27v13.5q2 48 15 103t40.5 102.5t71.5 79t107 31.5q6 0 18 -2t23.5 -4.5t20.5 -5.5t9 -5q5 0 6 -9t3 -11
q0 -4 -11 -12t-24 -15.5t-24.5 -13.5l-11.5 -6q-44 -19 -75.5 -57t-50 -83.5t-24.5 -94t0.5 -88t25.5 -66t51 -28.5q41 -1 70 23.5t47 63.5t25.5 87.5t6 95.5t-12 87.5t-28.5 64.5q2 2 3.5 1t3.5 -1q6 0 12 3t8 5q17 -12 29.5 -31.5t20.5 -42.5t12 -47t4 -45
q0 -84 -8 -152.5t-40 -113.5q-29 -36 -63 -49t-78 -13q-17 0 -36 4.5t-37 10.5q-15 13 -28.5 17.5t-11.5 13.5q-28 -25 -61 -46t-80 -28z" />
    <glyph glyph-name="t_i" unicode="&#x442;&#x438;" horiz-adv-x="985" 
d="M223 87q-1 13 -2 30.5t-2 36.5t-1.5 37.5t-0.5 33.5q5 29 6 61.5t3 70.5q0 14 0.5 28.5t-0.5 31.5q0 13 -1.5 19.5t-6 8.5t-13.5 1.5t-25 -0.5q-17 0 -33.5 1t-33.5 3q-6 1 -17 4t-22.5 7.5t-21 11.5t-12.5 18l4 4q1 0 1.5 -0.5t1.5 -0.5q12 0 23.5 5t31.5 5q30 0 61 2.5
t64 2.5q17 0 30 1.5t25 1.5q3 0 6 -3t7 -3q5 0 12 3.5t14 3.5t11 0.5t8 0.5q3 0 19.5 0.5t38.5 1t47.5 0.5t48 0.5t38.5 0.5h20q7 0 18.5 -0.5t21.5 -2.5t17.5 -5.5t7.5 -9.5q0 -11 -10 -21.5t-28 -14.5q-3 -1 -20 -2t-41 -2t-51.5 -2t-51.5 -2t-41.5 -2t-20.5 -2
q-11 -4 -23.5 -6.5t-12.5 -13.5q0 -5 1 -15.5t1.5 -21.5t1.5 -20t1 -11t0.5 -7.5t3.5 -23.5q5 -14 6 -86.5t0 -208.5q0 -9 -0.5 -23.5t-3 -28t-8 -23.5t-16.5 -10q-12 0 -19 6.5t-14 13.5q-15 20 -23.5 32.5t-13 20t-6 12t-2.5 8.5l-4 42h1zM502 81q-13 34 -14.5 60
t2.5 50.5t9 52.5t5 67q0 5 -3 9t-3 9q0 9 9 16l6 5q1 1 6 2t11 2t11.5 2t7.5 1t5 -0.5t14 -2.5q4 0 12 -3.5t10 -9.5q5 -13 5.5 -18t0.5 -10q0 -21 -0.5 -32t-1 -19t-1.5 -16.5t-2.5 -24.5t-4 -42t-5.5 -70q0 -15 6 -31.5t16.5 -28.5t24 -15.5t28.5 8.5q21 15 40.5 28.5
t37 26.5t32.5 27.5t27 31.5q2 5 5 9.5t3 9.5q0 28 -5 56t-5 55q0 34 2.5 59.5t6.5 49.5t8 49.5t7 60.5q10 8 24 11t28 3q19 0 32.5 -2.5t13.5 -16.5q0 -39 -4 -71t-9.5 -61.5t-9.5 -60t-4 -67.5q0 -26 2.5 -54t10 -53.5t21 -47.5t36.5 -37q2 -4 5.5 -7.5t3.5 -8.5
q0 -7 -11.5 -11t-20.5 -4q-18 0 -34 9t-30 23.5t-25.5 31t-20.5 31.5q-3 5 -5 5q-4 0 -18 -20.5t-38 -45t-58 -45.5t-77 -21q-17 0 -35 5t-34.5 16t-31 29.5t-24.5 45.5z" />
    <glyph glyph-name="c_t" unicode="&#x441;&#x442;" horiz-adv-x="766" 
d="M450 17q-54 -63 -102.5 -97t-105.5 -34q-34 0 -67.5 9.5t-61.5 29.5t-47 51t-23 73q-3 28 4 80t23.5 113t41 124.5t56.5 115t70 84.5t82 33q10 0 20 4t21 4q22 0 46.5 -6.5t43.5 -21t30 -37t6 -53.5q0 -2 -4 -4.5t-9 -5t-10 -4.5t-6 -2q-6 0 -13 8.5t-14 20t-11.5 21.5
t-5.5 13q-1 5 -8 10t-15.5 8t-16 3.5t-10.5 -2.5q-39 -46 -73.5 -115t-60.5 -145.5t-41 -152t-15 -133.5q0 -11 6.5 -23.5t16.5 -23t22.5 -17.5t24.5 -7q28 0 54 15.5t50 34t44.5 34t37.5 15.5q3 0 9.5 -4t7.5 -7q0 -3 0.5 -4.5t2.5 -4.5zM530 290q0 8 0.5 16t0.5 17
q0 4 -7 6q-10 0 -22 -1.5t-35 -1.5q-4 0 -11.5 0.5t-15.5 1.5q-10 1 -20 3q-6 1 -17 2.5t-22.5 4.5t-21 9t-12.5 17q4 3 5 3h2q12 0 23.5 5t31.5 5q30 0 55 2.5t58 2.5q17 0 30 1.5t25 1.5q3 0 6 -3t7 -3q5 0 12 3.5t14 3.5t11 0.5t8 0.5q5 0 23 0.5t38 1t38 1t24 0.5
q7 0 18.5 -0.5t21.5 -2.5t17.5 -5.5t7.5 -9.5q0 -11 -8.5 -17.5t-19.5 -8.5q-8 -3 -29 -5t-44 -4t-42.5 -3.5t-24.5 -2.5q-11 -4 -23.5 -6.5t-12.5 -13.5q0 -8 2.5 -16.5t2.5 -17.5q0 -19 1.5 -48.5t3.5 -61.5t3.5 -63.5t1.5 -55.5q0 -9 -1.5 -23.5t-5 -28t-10.5 -23.5
t-18 -10q-6 0 -10 2.5t-9 9.5t-13.5 19t-24.5 32q-2 4 -4 11t-3.5 32.5t-2.5 77t-2 143.5z" />
    <glyph glyph-name="te" unicode="te" horiz-adv-x="813" 
d="M678 650q12 -2 16 -17t4 -27t-25 -22.5t-62.5 -20.5t-82.5 -18t-85.5 -14t-69.5 -9.5t-36 -3.5h-9t-11.5 -1t-10 -3t-4.5 -5q0 -7 -1 -25.5t-3 -41t-5.5 -45.5t-7.5 -39q-7 -23 -12 -57t-8.5 -71.5t-4.5 -75.5t0.5 -69t5.5 -51.5t12 -24.5q34 -17 41.5 -26t0.5 -13
t-21.5 -3.5t-24.5 3.5q-32 9 -53 30t-34 53q-9 26 -11 54t-1 57q6 91 9.5 154t5.5 101.5t2.5 56t0.5 19.5q0 1 -5.5 2t-13.5 0.5t-17.5 -1.5t-16.5 -2q-14 -2 -29.5 -2.5t-33.5 0.5l-8 3q-7 3 -10 4t-3 6q0 4 1 6q-5 2 -11 3.5t-6 3.5q0 1 5.5 3.5t13.5 6t15.5 7t12.5 5.5
q18 7 31 12t24 9t22 7t26 7q10 5 11.5 6t1.5 2q0 17 0.5 28t0.5 22.5t0.5 25t0.5 36.5q-2 9 -3.5 16.5t-12.5 7.5l4 8q0 14 15.5 19.5t26.5 5.5q-1 0 7 -0.5t18.5 -4t21 -11t15.5 -21.5q6 -18 8 -31t2 -25.5t-1 -26t0 -32.5q6 0 24 1t42 2.5t51.5 3.5t51.5 4l42 3.5t23 2.5
q41 7 79.5 18.5t58.5 14.5zM855 127q1 -2 2 -3.5t0 -4.5q-9 -28 -31 -56t-51.5 -52.5t-63.5 -45t-67 -34t-62.5 -18t-49.5 1.5q-34 10 -57.5 30.5t-38 46t-21 55.5t-6.5 60q0 77 8.5 140.5t35 108.5t74 70t125.5 25q22 0 44.5 -6.5t40 -19.5t28.5 -32.5t11 -45.5
q0 -49 -13 -79t-34.5 -49t-49 -31t-56 -24t-57 -28.5t-50.5 -44.5q-9 -12 -10.5 -30.5t4 -35t18 -28.5t31.5 -12q42 0 80 13t72.5 34.5t65 49t59.5 56.5q11 0 19 -11zM630 407q-33 0 -53 -25.5t-31 -60.5t-15.5 -72.5l-7.5 -62.5q21 13 40.5 20.5t38.5 15.5t36.5 19t34.5 31
l15 24q5 13 9.5 32t1 36.5t-19 30t-49.5 12.5z" />
    <glyph glyph-name="re" unicode="re" horiz-adv-x="786" 
d="M848 232q1 -2 2 -3.5t0 -4.5q-14 -42 -41.5 -77t-64.5 -60t-80 -38.5t-88 -12.5q-35 1 -61.5 19t-44.5 45t-27 59.5t-9 62.5v32q-39 16 -68.5 43.5t-50 53.5t-32 45t-13.5 19q-4 -1 -8 -6.5t-8 -11.5t-6 -10.5t-1 -3.5q-8 -21 -21 -45.5t-26.5 -50t-23 -51.5t-9.5 -50
q0 -23 -2.5 -46t-2.5 -49q0 -4 -2 -20t-5 -34t-7 -32t-8 -14q-8 0 -16 0.5t-14 3t-10 8.5t-4 17v35q0 92 -6 188.5t-6 215.5q0 10 -3 15t-6.5 7t-6.5 2.5t-3 2.5t2.5 3t4.5 2q9 8 29 9t33 1q16 0 31 -8.5t24 -37.5q3 -11 4.5 -19t1.5 -22q0 -2 2 -8q8 13 12 17
q10 17 16 27.5t9.5 16t4.5 8.5t1 5t-1 5.5t-1 5.5q0 5 4.5 9.5t6.5 4.5q18 0 33 5.5t32 5.5q4 0 10 -3.5t11.5 -8.5t9 -10.5t3.5 -9.5q0 -12 6 -28.5t18 -34t29.5 -35t39.5 -32.5q7 49 22.5 88t43 66.5t69 42.5t101.5 15q22 0 44.5 -6.5t40 -19.5t28.5 -32.5t11 -45.5
q0 -49 -12 -84t-32 -60t-46 -41t-54 -26t-56.5 -16t-53.5 -10q-15 -3 -15.5 -21.5t9 -40.5t26.5 -39.5t36 -17.5q42 0 72 10.5t55 29t47.5 43.5t51.5 54q11 0 19 -11zM655 522q-33 0 -52 -23t-29.5 -56t-14.5 -68.5t-7 -60.5q25 -7 45 -4t37 13.5t32 27t32 36.5l15 24
q5 13 9.5 32t1 36.5t-19 30t-49.5 12.5z" />
    <glyph glyph-name="SU" unicode="SU" horiz-adv-x="968" 
d="M527 785q24 -18 43 -48.5t32.5 -67.5t20.5 -76t7 -74q0 -44 -1 -82.5t-2 -76.5t-2 -79t0 -89q0 -15 2.5 -41.5t7.5 -52t14 -44t23 -18.5q21 0 38.5 16t32.5 41t27 55t21 58.5t15 52t9 34.5v38q4 74 9.5 140t14.5 141q0 7 2.5 19l5 24t3.5 22.5t-1 15.5q-2 7 -8 7l-4 4
q0 2 -1 3.5t-1 3.5t2 2q3 0 10.5 6t22.5 6q4 0 6.5 -1t7.5 -1q14 0 29 -10t15 -24v-3t1 -16t3.5 -40t6.5 -76q0 -40 -4.5 -75.5t-9.5 -70.5t-9.5 -70t-4.5 -74q0 -10 0.5 -20t0.5 -20q0 -36 -1 -63t1 -51.5t10.5 -50t28.5 -59.5q9 -14 5 -21t-13.5 -10t-21.5 -3t-18 2
q-21 4 -36 31t-24.5 60t-15 65.5t-7.5 49.5q-1 -18 -9 -38.5t-18.5 -41t-23 -39t-22.5 -33.5q-31 -33 -62 -41.5t-58 3t-48 41.5t-33 75q-12 39 -18.5 84.5t-9.5 90t-3.5 85.5t-0.5 71q-1 76 -8 130.5t-18 92t-25 60t-29 35t-29.5 17t-26.5 5.5q-33 2 -63 -15t-53 -46
t-38.5 -66.5t-20 -77.5t4 -78.5t32.5 -68.5q21 -26 45 -49t51 -46q12 -10 25.5 -19.5t27.5 -21.5t28.5 -29.5t30.5 -44.5q15 -26 20.5 -53.5t2 -53.5t-17 -48.5t-35.5 -36.5q-15 -10 -32 -17.5t-32.5 -12.5t-28.5 -7.5t-22 -2.5q-27 0 -49.5 3t-42.5 10t-39 18t-41 28
q-6 5 -9 9.5t-8 12.5l-9 9q-3 3 2.5 2.5t7.5 -0.5q5 0 7.5 2t7.5 2q3 0 6 2t6 2q12 0 26 -9t30.5 -19.5t37.5 -19t48 -8.5q19 0 38 5t33 17t23 31t9 46q0 25 -13.5 48.5t-30.5 40.5q-47 46 -93 75.5t-84 62t-62.5 78.5t-27.5 125q-1 30 8.5 62.5t27 62.5t41.5 56t51 44
q35 23 80.5 34.5t91 12.5t86 -8.5t65.5 -28.5z" />
    <glyph glyph-name="TH" unicode="TH" horiz-adv-x="1062" 
d="M1014 714q3 -14 3.5 -19t0.5 -9v-63q0 -45 7 -87t7 -88q0 -5 -0.5 -11t-1.5 -18.5t-3.5 -33.5t-7.5 -55q-8 -53 -12 -107t-4 -111v-41.5t-5 -44.5q4 -7 -0.5 -20t-15.5 -13q-5 0 -9 4.5t-9 4.5q-2 0 -7.5 7t-5.5 9q-8 47 -11 91t-4.5 87.5t-3.5 87.5t-7 91q-15 -3 -37 -8
t-42.5 -10.5t-35.5 -9.5t-16 -5q-25 -12 -54 -24t-48 -31q-2 -2 -6 -6.5t-8.5 -10t-7.5 -9t-3 -2.5q0 -29 -3.5 -59t-3.5 -62q0 -29 -1.5 -57.5t-1.5 -62.5q-2 -12 -3 -20t-4.5 -13t-11 -7t-20.5 -2q-14 0 -27 16t-13 31q-5 18 -5 39v40q0 49 1.5 98.5t1.5 99.5
q0 40 -0.5 79.5t-0.5 79.5v20.5v40t-1 52.5t-2 59q-6 -3 -8 -3q-17 0 -38 -1t-42.5 -2t-41.5 -2t-34 -1q-7 0 -14 -1.5t-18 -1.5q-10 0 -10 -8q0 -35 3.5 -71.5t3.5 -76.5q0 -24 0.5 -66t0.5 -91t1 -100t1 -93.5t0.5 -72t0.5 -34.5q0 -14 -9 -20t-19.5 -6t-19 3.5t-8.5 8.5
q0 11 -2 27t-6 42q-14 107 -24 198.5t-13 176.5q-4 45 -2.5 89t1.5 93q0 2 -10 2.5t-15 1.5q-56 6 -103.5 4t-80.5 2t-48 19.5t-6 55.5q0 4 -1 4q2 0 9.5 -6.5t15.5 -8.5q16 0 31 1.5t29 3.5q71 6 142 2.5t148 4.5q15 2 47.5 3t67.5 1t66.5 -2t44.5 -7q32 -11 41 -47
q5 -20 8 -51.5t5 -67.5t3 -73t1 -66.5t-1 -48t-2 -18.5q1 0 6 4t10.5 9.5t10.5 10l5 4.5q15 12 43.5 25.5t60 25t61 19t46.5 7.5q6 0 6 9v3.5t-0.5 10.5t-1 24t-1.5 45q0 22 3.5 45t7.5 46t7.5 46t3.5 46q0 9 12 9q5 0 8.5 -1t8.5 -1q7 0 13 -1.5t14 -1.5q5 0 10.5 3.5
t10.5 3.5q2 0 2 -4z" />
    <glyph glyph-name="LI" unicode="LI" horiz-adv-x="641" 
d="M465 133q-24 0 -36.5 6.5t-12.5 8.5q0 3 9.5 5t23.5 4t28.5 3.5t25.5 2.5l-2 7.5t-4.5 17.5t-4.5 22t-2 21q0 48 -2 77.5t-4 56t-3.5 57t-0.5 81.5q0 55 -3 157q0 3 0.5 7t0.5 7q0 2 -6.5 4t-9.5 3q-32 11 -45 13t-14 7q0 1 5.5 4t13.5 6.5t16.5 6t14.5 2.5q25 0 55 -3
t56 -3q4 0 10.5 -0.5t13.5 -2t12 -5t5 -9.5q0 -5 -5.5 -9t-12.5 -7t-12.5 -5t-5.5 -3q0 -43 6.5 -87.5t6.5 -91.5q2 -33 2 -55t-1 -39t-3 -31t-3.5 -31.5t-2.5 -41t-1 -58.5q0 -5 0.5 -15t1.5 -20.5t1 -19.5v-12q6 -6 14.5 -7t15.5 -10q0 -10 -4 -14.5t-9 -6t-11 -1t-10 0.5
h-107zM273 655q0 -18 -1 -36t-3 -39t-6 -47t-10 -60q-24 -115 -40.5 -230t-20.5 -232v-1q0 -2 1 -5t3 -3q8 0 29 0.5t44 5.5q35 8 74.5 13t79.5 8.5t78 8t70 10.5q6 1 12.5 2.5t12.5 1.5q4 0 6.5 -6.5t0.5 -8.5q-12 -21 -52.5 -36t-91 -25t-101.5 -16t-83 -9
q-24 -2 -51 -3.5t-52 -1.5q-11 0 -19.5 29t-14.5 73.5t-10.5 97t-7.5 99t-4 80t-1 40.5q0 77 4.5 153t12.5 149q1 5 1.5 9.5t0.5 9.5q0 3 -4.5 7.5t-4.5 8.5q0 7 23 9.5t51 -3t51 -18.5t23 -35z" />
    <glyph glyph-name="ST" unicode="ST" horiz-adv-x="836" 
d="M618 4q-7 53 -10 98t-3.5 86t-1 80.5t-1.5 81.5q-2 22 -2 37.5v27.5t0.5 22.5t0.5 23.5q0 2 -10 -5.5t-20 -9.5q-53 -12 -99.5 -24.5t-80 -14t-52.5 13t-18 56.5q0 2 -1.5 2.5t-0.5 1.5q2 0 11 -5t17 -5q15 3 29 7.5t28 9.5q69 20 141.5 38t146.5 41q19 7 50 15.5
t60 13.5t50.5 6t22.5 -7q2 -11 11.5 -22t12.5 -24q1 -5 -7 -12t-10 -7q-16 -3 -36.5 -8.5t-41.5 -11t-40.5 -10.5t-33.5 -8q-7 -2 -13.5 -5t-17.5 -5q-8 -2 -8 -10q1 -16 2.5 -25.5t2.5 -18.5t2 -20t1 -31q0 -24 -1.5 -64t-3 -85.5t-4 -93t-4 -87t-3 -66.5t-1.5 -32
q0 -14 -9 -20t-19.5 -6t-19 3.5t-8.5 8.5q0 11 -2 27t-6 42zM194 738q21 10 49 19t58.5 13t60 1t52.5 -15t37.5 -36t14.5 -62q0 -3 -1 -14.5t-3.5 -23.5t-7 -22t-10.5 -10q-14 0 -28 4t-14 24q0 22 -3.5 40t-13 31t-27.5 19.5t-47 6.5q-31 1 -54 -15t-39 -42.5t-24 -59.5
t-9 -66t5.5 -62.5t20.5 -48.5q20 -28 44.5 -50t51.5 -45q12 -10 25.5 -19.5t27.5 -21.5t28.5 -29.5t30.5 -44.5q15 -26 20.5 -53.5t2 -53.5t-17 -48.5t-35.5 -36.5q-15 -10 -32 -17.5t-32.5 -12.5t-28.5 -7.5t-22 -2.5q-27 0 -49.5 3t-42.5 10t-39 18t-41 28q-6 5 -9 9.5
t-8 12.5l-9 9q-3 3 2.5 2.5t7.5 -0.5q5 0 7.5 2t7.5 2q3 0 6 2t6 2q12 0 26 -9t30.5 -19.5t37.5 -19t48 -8.5q19 0 38 5t33 17t23 31t9 46q0 25 -13.5 48.5t-30.5 40.5q-47 46 -89.5 75.5t-75 62t-51 78.5t-16.5 125q0 17 9.5 44.5t25 56t35.5 52.5t42 35z" />
    <glyph glyph-name=".notdef" horiz-adv-x="298" 
 />
    <glyph glyph-name=".null" horiz-adv-x="0" 
 />
    <glyph glyph-name="nonmarkingreturn" unicode="&#xd;" horiz-adv-x="248" 
 />
    <glyph glyph-name="NULL" horiz-adv-x="0" 
 />
    <glyph glyph-name="NULL" horiz-adv-x="0" 
 />
    <glyph glyph-name="space" unicode=" " horiz-adv-x="250" 
 />
    <glyph glyph-name="exclam" unicode="!" horiz-adv-x="178" 
d="M90 365v68.5t-0.5 45.5t-0.5 29.5v22.5q0 36 2.5 73.5t8.5 70.5q0 2 -0.5 7t2.5 20q2 10 7 11l15 3q24 6 37 -9.5t18.5 -44t5 -64.5t-3 -70t-5.5 -62t-3 -40q0 -28 -6 -54t-6 -52q0 -4 -0.5 -8.5t-1 -12t-2 -19.5t-2.5 -31q-1 -9 -4.5 -20t-8 -20.5t-9.5 -16t-10 -6.5
q-15 2 -22 20t-9.5 40.5t-2 43t0.5 28.5v47zM130 -16q-3 0 -9.5 2.5t-35.5 13.5q-9 4 -16 17.5t-9 20.5q1 22 12.5 32t25.5 14t27.5 3.5t19.5 -0.5q4 0 9.5 -4.5t10.5 -11t9 -14t4 -13.5q0 -24 -12.5 -42t-35.5 -18z" />
    <glyph glyph-name="quotedbl" unicode="&#x22;" horiz-adv-x="324" 
d="M229 684q-1 5 -2.5 11.5t-1.5 7.5q0 6 9 9t16 3q13 0 27 -10t14 -24q0 -4 -2.5 -7.5t-2.5 -8.5q0 -25 1.5 -51t1.5 -52l5 -42q-4 -5 -5 -11t-2 -11.5t-2.5 -9.5t-5.5 -4q-14 0 -25 7t-18.5 18t-12 24.5t-4.5 25.5q0 23 2 47t4 47zM157 613q0 -27 0.5 -43t1 -25t1 -13.5
t0.5 -7.5q0 -5 -0.5 -12t-2 -13.5t-4 -11.5t-5.5 -5q-15 0 -24 8.5t-14 21t-6.5 26.5t-1.5 24q0 21 1.5 43t1.5 45q0 6 -2.5 12t-2.5 16q0 11 12.5 17.5t17.5 6.5q9 0 13.5 -10t6.5 -24t3.5 -29.5t3.5 -25.5z" />
    <glyph glyph-name="numbersign" unicode="#" horiz-adv-x="691" 
d="M565 281q10 -1 31 -1t42 -4t37 -13.5t16 -29.5q0 -16 -12.5 -25.5t-29.5 -15t-35 -7t-28 -1.5q-21 0 -42 3t-42 3q-11 0 -12 -11l-11 -44q0 -7 -9 -20.5t-14 -19.5q-7 -6 -9 -23t-6 -35t-13 -32t-30 -14q-4 0 -11 10.5t-14 25t-12 28.5t-5 21q0 12 3.5 23.5t8 23
t8.5 21.5t4 18q0 10 -4.5 21t-15.5 11q-34 0 -58.5 -4t-24.5 -13v-15.5t-2.5 -19.5t-8.5 -31.5t-17 -50.5l-7 -21t-9 -22t-12.5 -17t-17.5 -7q-9 0 -14.5 8.5t-9.5 21.5t-5.5 28t-1.5 28q0 22 9 42t9 38q0 9 -1 17t-1 16q-41 3 -73 18t-55 53h8.5t19 1t39 3t69.5 6
q4 0 9.5 15.5t11.5 36t11.5 41t8.5 31.5q2 10 7.5 21t5.5 20q0 8 -10 8q-8 0 -19.5 -1t-22.5 -2.5t-21 -2.5t-16 -1q-16 0 -25 8t-16 19t-13 22t-16 17q-2 1 -1.5 5.5t-0.5 7.5h12q12 0 24 -1.5t23 -1.5h31.5t41.5 1.5t38 5.5t21 11l37 114v5q0 6 -0.5 12.5t-0.5 12.5
q0 11 14 20t25 9q12 0 19.5 -10t7.5 -26q0 -3 -0.5 -5t-0.5 -4l-17 -82q-1 -11 -4 -21.5t-3 -21.5q0 -5 4 -7t10 -3t12.5 -0.5t11.5 0.5l48 2q3 0 7.5 2t5.5 4q7 33 24.5 60.5t29.5 57.5l26 62q25 -4 45.5 -21t20.5 -49v-2q-9 -26 -18.5 -54t-14.5 -54q0 -6 8 -9t19.5 -4.5
t23 -1.5h19.5q10 0 15 1q11 0 20.5 -9.5t9.5 -24.5q0 -18 -14 -27t-34 -12.5t-42.5 -4t-39.5 -0.5q-8 -1 -12 -10t-6 -22t-3.5 -26.5t-3.5 -23.5q-2 -9 -6 -19l-8 -20t-7 -18.5t-3 -13.5q0 -9 32 -9q7 0 14 0.5t14 0.5zM420 423q0 2 0.5 3t0.5 3q0 5 -9 7.5t-21.5 3t-26 0.5
h-22.5l-16 -70l-18 -72q-1 -2 -1 -6q0 -13 14 -13q10 1 18.5 1.5t17.5 0.5h18q7 0 13.5 17t12 40t10.5 47t9 38z" />
    <glyph glyph-name="dollar" unicode="$" horiz-adv-x="431" 
d="M431 590q0 -1 -1 -3q1 -13 -4.5 -24.5t-5.5 -26.5q0 -3 -2 -9.5t-5.5 -12.5t-8 -10.5t-8.5 -4.5q-27 0 -32 25q-5 24 -12 41t-18 28.5t-28 16.5t-43 5q-7 0 -18 -3t-37 -11q-39 -39 -49.5 -71.5t-1 -61.5t34.5 -55.5t58.5 -53t70 -53.5t68.5 -57q16 -15 23.5 -38.5
t7.5 -59.5q0 -38 -18.5 -59.5t-51.5 -40.5q-10 -8 -33 -13q-2 -35 -3 -49t-1 -20t0.5 -11t0.5 -23q0 -33 -23 -56q-8 0 -16.5 11t-15.5 26t-11.5 30t-4.5 24q0 15 4 27.5t2 30.5q-30 0 -53.5 2.5t-44 9.5t-40 20.5t-41.5 36.5q2 1 7 5t11 9t11.5 9t7.5 4q13 0 27.5 -10.5
t26.5 -16.5q17 -8 36 -11.5t45 -3.5q8 0 25 2.5t34 10t30 21t13 34.5q0 7 -4 18t-10 22t-14.5 21t-17.5 17l-80 51q-7 4 -18 12l-25 17.5t-35 27.5q-24 24 -39 52.5t-21.5 59t-4 61t14.5 56.5q3 7 11.5 19.5t19.5 26t23.5 24.5t23.5 14q16 8 33.5 13t35.5 6q0 11 3.5 28
t10 33.5t17.5 28t26 11.5q9 0 13 -11t5 -26t0.5 -31.5t-0.5 -27.5q3 -2 6 -2.5t8 -0.5t13 -1.5t22 -4.5q17 -5 30 -15t21.5 -20.5t13 -20.5t4.5 -14z" />
    <glyph glyph-name="percent" unicode="%" horiz-adv-x="702" 
d="M657 650q0 -18 -9.5 -30t-23.5 -26q-10 -11 -16 -22.5t-14 -23.5q-16 -26 -36 -50t-42 -53q-32 -47 -59 -82t-53 -68t-54.5 -69t-64.5 -84q-32 -41 -63 -76t-66 -71q-11 -11 -27 -11q-7 0 -7 6q0 3 2 7l26 49q26 53 57.5 102.5t59.5 101.5q16 32 36 61t34 61q17 41 39 77
t47.5 70t53 66.5t56.5 65.5q4 10 15 10q5 0 11.5 7.5t12.5 16t11.5 16t9.5 7.5q14 0 23.5 -5t16 -13t12.5 -18.5t12 -21.5zM90 558q2 22 9.5 42t19.5 40q9 15 21 28.5t28 23.5t38 16t51 6q13 0 28 -3t28.5 -9t25 -16t17.5 -24q13 -28 10.5 -56t-11.5 -53t-21 -44t-18 -29
q-5 -10 -21 -20t-34.5 -18t-37 -13t-28.5 -5q-49 0 -85 48q-14 19 -16 41t-4 45zM535 4q-36 0 -62.5 14.5t-41.5 39t-16 56.5t16 67q9 19 19.5 37.5t23.5 35.5q2 3 15 7t29.5 8t32.5 6.5t23 2.5q39 0 71.5 -22t38.5 -63q6 -42 -2.5 -73t-30.5 -62q-21 -29 -50.5 -41.5
t-65.5 -12.5zM481 84q0 -22 14 -31.5t26 -9.5q17 0 32.5 8t27 21t18 28.5t6.5 30.5q0 11 -7 25.5t-17.5 27t-23 21.5t-23.5 9q-24 -2 -35.5 -19t-15 -39t-3 -43t0.5 -29zM174 619q-13 -23 -20.5 -37t-10.5 -24.5t-3 -20t3 -22.5q3 -17 17.5 -32t26.5 -15q16 0 32 10t29 24.5
t21.5 31t8.5 30.5q0 13 -6 33.5t-18.5 34.5t-32.5 14t-47 -27z" />
    <glyph glyph-name="ampersand" unicode="&#x26;" horiz-adv-x="539" 
d="M553 714q6 -3 6 -7q0 -5 -7.5 -13.5t-18 -19l-22 -22t-18.5 -22.5l-10 -9q-3 -8 -5.5 -14t-4.5 -14q-3 -22 -4 -29.5t-3 -12.5q-2 -3 -8 -3q-8 0 -10 -5.5t-7 -5.5q-2 0 -12 4t-10 15q0 5 1.5 7.5t1.5 7.5q0 16 -4 36t-13.5 36.5t-25 25.5t-37.5 3q-17 -6 -31.5 -18.5
t-24.5 -28t-15.5 -32t-5.5 -31.5q0 -31 12 -60.5t33 -54t48.5 -43t58.5 -28.5q8 0 13 -7t6 -16q-5 0 -10.5 -6t-6.5 -7q-2 0 -7 3.5t-27 11.5q-22 11 -40 11q-3 0 -10.5 -4.5t-15 -10.5t-14.5 -12t-9 -8q-28 -26 -50 -60t-36.5 -72t-21.5 -78.5t-6 -79.5q4 -19 17 -25.5
t29 -6t33.5 6.5t31.5 13q24 12 47 34t41 47.5t29.5 51t11.5 43.5q0 9 -5.5 11.5t-14.5 2.5q-6 0 -15.5 -7t-19 -16.5t-16.5 -19.5t-7 -17v-6t-0.5 -10.5t-2.5 -10t-5 -4.5q-2 0 -8 -2.5t-11 -2.5h-4h-4h-6q-3 0 -8.5 3.5t-5.5 10.5q0 2 3 3t3 3l10 24l16 27q14 19 24 28
t29 19q5 4 13 4.5t17 0.5h16q20 0 32.5 5t22.5 14t20 21.5t25 27.5q4 1 14 -3t10 -17q0 -35 -21.5 -54t-57.5 -21q-2 0 -12 -1t-12 -1q8 -10 8 -20q0 -1 -0.5 -3t-0.5 -4v-1q0 -22 -8.5 -43t-10.5 -41q-6 -30 -26.5 -58t-49.5 -49.5t-63.5 -34.5t-69.5 -13q-32 0 -58 16
t-45.5 41t-31.5 55.5t-15 59.5q0 36 5 75t22 75q12 21 28 44.5t36.5 43.5t44.5 34t52 16l-6 4l-17 14q-26 26 -37.5 59.5t-13.5 72.5q0 34 16 61.5t41 47t55.5 31t60.5 12.5q29 0 55.5 -13t43.5 -40q0 -5 3 -5q1 0 2 2q1 1 2.5 3l4.5 6q21 17 35 28.5t23 17.5t15 6.5
t12 -3.5z" />
    <glyph glyph-name="quotesingle" unicode="'" horiz-adv-x="155" 
d="M40 684q-1 5 -2.5 11.5t-1.5 7.5q0 6 9 9t16 3q13 0 27 -10t14 -24q0 -4 -2.5 -7.5t-2.5 -8.5q0 -25 1.5 -51t1.5 -52l5 -42q-4 -5 -5 -11t-2 -11.5t-2.5 -9.5t-5.5 -4q-14 0 -25 7t-18.5 18t-12 24.5t-4.5 25.5q0 23 2 47t4 47z" />
    <glyph glyph-name="parenleft" unicode="(" horiz-adv-x="342" 
d="M382 -168q0 -8 0.5 -13t0.5 -11q0 -4 -9.5 -4.5t-15.5 -0.5q-42 0 -79 19.5t-68 51t-57 71t-45 80t-31.5 78.5t-17.5 65q-4 20 -7 39.5t-3 39.5q0 52 14.5 103t39 98.5t56.5 92t67 85.5q17 20 49 41.5t79 41.5q5 0 12.5 -3.5t13.5 -8t9 -9.5t0 -8q-48 -41 -94.5 -89
t-83.5 -100t-61.5 -106t-28.5 -106q-6 -61 8.5 -126.5t48.5 -126t85.5 -111.5t117.5 -83z" />
    <glyph glyph-name="parenright" unicode=")" horiz-adv-x="405" 
d="M175 612q22 -17 48 -46t49.5 -67t42 -84t26 -96.5t0.5 -104t-33 -106.5q-8 -16 -21 -42.5t-30 -57.5t-37.5 -62.5t-43.5 -57t-48 -41.5t-51 -16q-6 0 -13.5 4.5t-7.5 13.5q0 11 7.5 22.5t17.5 21.5t20 17.5t15 11.5q20 15 46 44.5t50 72t41.5 97.5t21.5 121
q-1 56 -8.5 95t-23.5 71t-40 63t-57 72q-4 3 -15 13t-25.5 24t-30.5 30t-30 31t-23.5 28t-10.5 21q0 1 2 2q2 2 6 2q5 0 18 -1.5t19 -4.5l58 -41q18 -13 29 -21.5t17.5 -14t9.5 -8.5t5 -6z" />
    <glyph glyph-name="asterisk" unicode="*" horiz-adv-x="288" 
d="M173 549q-2 -4 -4 -14.5t-5.5 -21t-7.5 -18.5t-10 -8q-2 0 -7 1.5t-7 4.5l-14 43l-21 -13h-1q-11 0 -25 11.5t-21 23.5q13 3 19 6t6 9q0 4 -5.5 8t-11.5 8t-11.5 9t-5.5 13q0 2 0.5 3.5t0.5 3.5q10 -7 22 -7q8 0 16.5 1.5t20.5 1.5q-5 11 -13 18.5t-17 14t-17.5 13
t-13.5 15.5q0 5 8 4.5t20.5 -3.5t27 -6t26.5 -3q4 0 4 5q0 2 -0.5 6.5t-5.5 28.5q17 6 35.5 -2.5t22.5 -28.5v-11q8 3 15.5 6t13.5 3q5 0 12.5 -5t7.5 -12q0 -4 -3 -6.5l-6 -5t-5 -5t0 -7.5q9 1 22 4t15 3q6 0 10 -4.5t4 -9.5q0 -8 -11.5 -13.5t-23.5 -10.5t-19.5 -10.5
t0.5 -12.5q18 -17 29 -28.5t17 -19t8.5 -13.5t3.5 -12z" />
    <glyph glyph-name="plus" unicode="+" horiz-adv-x="542" 
d="M50 309q14 16 28.5 29t37.5 15q10 1 28.5 1.5t37 2t32 4.5t13.5 8q1 34 -6.5 69t-7.5 66q0 7 10 13t24 10t28.5 6t23.5 2q6 0 15.5 -1t13.5 -6q-10 -9 -12 -19t-2 -21q0 -27 1.5 -54.5t1.5 -54.5q0 -10 3.5 -15.5t17.5 -5.5q24 0 48.5 -0.5t56.5 -0.5q7 0 16 -4.5
t16 -10.5t12 -12.5t5 -10.5q0 -20 -17 -29.5t-41 -12.5t-50 -2.5t-45 0.5q-11 0 -16.5 -5t-5.5 -27q0 -21 -2 -46.5t-7 -47.5t-12.5 -37t-18.5 -15q-22 0 -34 20.5t-17 48t-6 55.5t-1 43t-18 16t-52 1q-13 0 -25 6t-24.5 12.5t-24.5 10t-25 -0.5z" />
    <glyph glyph-name="comma" unicode="," horiz-adv-x="199" 
d="M66 -105q0 8 2.5 13t2.5 9q3 13 7 26t10 26q-10 -3 -22 6t-19 23.5t-5.5 31.5t18.5 29q2 2 4.5 0t5.5 -2q4 0 9.5 1.5t11.5 1.5q25 -1 41.5 -19.5t16.5 -47.5q0 -12 -8.5 -25t-19.5 -25.5t-23.5 -25t-19.5 -22.5q-2 -2 -6.5 -3.5t-5.5 3.5z" />
    <glyph glyph-name="hyphen" unicode="-" horiz-adv-x="492" 
d="M261 353q27 5 53.5 7t58.5 2q14 0 21.5 -1.5t12 -5t7 -9.5t5.5 -15q3 -11 3 -19q0 -10 -18 -12.5t-48 -1.5t-70 3.5t-84 2.5q-19 0 -34.5 5.5t-16.5 13.5q-1 9 10 13.5t27.5 7t36 4t36.5 5.5z" />
    <glyph glyph-name="period" unicode="." horiz-adv-x="220" 
d="M165 -8q-6 -12 -21 -18t-29 -6q-5 0 -12.5 6t-12.5 16q-5 6 -9 22.5t-5 24.5v3q-1 1 -1 4q0 8 4.5 12t11 6t13.5 2h11t9.5 -1t22.5 -5q4 0 8.5 -4.5t7.5 -11t5 -13t2 -10.5v-8q0 -5 -0.5 -9.5t-4.5 -9.5z" />
    <glyph glyph-name="slash" unicode="/" horiz-adv-x="429" 
d="M437 680q2 -5 2 -14q0 -3 -4.5 -11.5t-11.5 -21t-14 -27.5t-13 -30q0 -1 -12 -27t-31.5 -68t-45 -95t-53.5 -108t-57.5 -107.5t-56 -94t-48.5 -66.5t-36 -25h-4.5t-2.5 5t3.5 17.5t14.5 37.5q26 46 46.5 108.5t40 128.5t41 130.5t50.5 115.5q12 23 29.5 56.5t36 64
t35 52.5t26.5 22q23 0 37 -11t28 -32z" />
    <glyph glyph-name="zero" unicode="0" horiz-adv-x="588" 
d="M161 602q7 7 12.5 13.5t12 14t16.5 16.5t25 23q10 10 25 20q37 28 62 28l14 4q6 2 13.5 2h14.5q5 0 10 -1t10 -1q3 0 5.5 3t4.5 3q5 0 9.5 -4.5l13.5 -13.5q6 -6 15.5 -10.5t20.5 -10t23 -14t23 -21.5l18 -19q1 0 2 -2l2.5 -5t5.5 -8q13 -18 25 -40.5t22 -46.5t16 -48.5
t6 -46.5q0 -12 -0.5 -24t-0.5 -25q0 -8 -0.5 -16t-0.5 -17q0 -37 -9 -78.5t-23.5 -82.5t-33.5 -80t-39 -72q-33 -35 -67.5 -50t-83.5 0q-14 4 -25 8t-21.5 9t-21.5 11t-24 14q-42 23 -70.5 68t-46 100t-24.5 113t-7 108q0 14 4.5 36t13 47t22 50.5t31.5 45.5zM552 448
q-2 7 -3 11.5t-6 23.5q-4 14 -15.5 37t-26.5 47t-31 45t-28 31t-20 16.5t-14.5 11t-13 8t-16.5 8.5l-12 -5q-8 -5 -25.5 -15t-46.5 -39q-18 -18 -36.5 -51.5t-33.5 -70t-24.5 -70.5t-9.5 -53q0 -8 -0.5 -26t-1.5 -30q0 -14 1 -27.5t5 -27.5q7 -35 24.5 -78.5t45 -82
t65.5 -64.5t86 -26q4 0 10 7.5l10 12.5l22 33l11 19q46 83 66.5 166.5t17.5 188.5z" />
    <glyph glyph-name="one" unicode="1" horiz-adv-x="328" 
d="M267 510q-2 -115 -5 -228.5t-3 -230.5q0 -13 -0.5 -26.5t-0.5 -28.5v-3q0 -1 -1 -1q-1 -1 -2 -1l-15 -7h-20q-8 0 -20 2.5t-26 26.5q-14 25 -25 76.5t-14.5 124.5t2 166t25.5 200q3 10 3 13v4q-15 -10 -27 -11t-20 4t-13 15t-5 23q2 6 3 6q3 0 4.5 -1.5t3.5 -1.5
q22 0 31 12t21 26l9 7q1 1 1 2q0 7 -1 11.5t5 12.5q5 5 9.5 8t9.5 7h9q2 0 9 1t10 3q1 -1 3 -0.5t4 0.5q11 0 23.5 -12t12.5 -32q0 -8 -3 -15t-3 -15q0 -10 2.5 -20t2.5 -23q1 -33 1.5 -51.5t0.5 -27.5t-0.5 -11.5t-0.5 -3.5z" />
    <glyph glyph-name="two" unicode="2" horiz-adv-x="553" 
d="M243 713q55 19 103 9.5t83.5 -39.5t56 -76t20.5 -101q0 -18 -4 -35.5t-9 -31.5t-9.5 -23t-4.5 -10q-30 -50 -69.5 -93t-83 -83.5t-87 -82.5t-81.5 -91q-2 -4 2 -6t10.5 -3.5t14.5 -2t14 -0.5q12 0 26 1.5t32 3t43 3t60 1.5q13 1 34.5 2.5t68.5 -2.5q31 -9 49 -15
t26.5 -10t11 -6t3.5 -4q0 -5 -3 -6q-23 -5 -36 -7.5t-20.5 -4t-10.5 -1.5h-4h-124q-25 0 -49 -0.5t-53 -2.5q-8 -1 -18.5 -2t-21 -2.5t-18.5 -2.5t-11 -1q-20 0 -39 3.5t-34 11.5t-24 21t-7 32q0 3 1 8t9 22q8 21 32.5 51t57 66.5t70 78t71 84.5t59 87t34.5 85t-1.5 77.5
t-49.5 66.5q-28 7 -61 3t-62 -18.5t-48.5 -39.5t-19.5 -60q0 -5 1.5 -11t9.5 -25q0 -3 -4.5 -8t-26.5 -9q-7 -2 -11.5 7.5t-7.5 23t-4 27t-1 18.5q0 21 10.5 40.5t27.5 36t37 28.5t40 18z" />
    <glyph glyph-name="three" unicode="3" horiz-adv-x="489" 
d="M375 384q27 -6 51.5 -34t40.5 -64t20.5 -74t-7.5 -65q-35 -82 -107.5 -120t-166.5 -38q-17 2 -38.5 9.5t-41 20t-33 29t-13.5 37.5q0 6 6 16t14 19.5t16 16.5t14 7q2 0 4.5 -3t2.5 -5q0 -5 -6.5 -8.5t-6.5 -11.5q0 -11 11 -20t25.5 -16.5t29.5 -12t24 -5.5q43 -6 79.5 16
t62.5 56.5t38.5 75.5t6 74t-34 51t-81.5 7l-19 -7q3 0 -5 -1.5t-19 -3t-22 -2.5t-14 -1q-1 0 -2.5 -0.5t-2.5 -0.5q-2 0 -4 0.5t-4 0.5q-1 0 -5 1.5t-9 3.5t-9 5.5t-4 7.5q0 1 0.5 5t0.5 9l-5 12q-2 12 9 21.5t25 9.5q1 0 2 -0.5t3 -0.5q12 0 26.5 0.5t27.5 5.5q13 8 18 10
t13 6q21 14 40.5 36.5t32.5 48t18 52t-2 50t-28.5 40.5t-61.5 24q-29 0 -52.5 -8t-46.5 -29q-26 -26 -35 -52.5t8 -64.5l3 -7q1 -1 1 -5q0 -2 -1.5 -7t-7.5 -5t-15 4.5t-18 11t-16 13.5t-9 12h-1q-2 2 -2 6q0 33 13.5 60.5t36 48.5t52.5 35.5t62 21.5q27 0 49.5 -3t42 -11
t36 -23t30.5 -40q16 -48 16.5 -79t-9.5 -56t-28 -49.5t-38 -57.5l19 -6v0z" />
    <glyph glyph-name="four" unicode="4" horiz-adv-x="545" 
d="M542 316q2 0 2 -1t1 -2l-1 -3q-2 0 -4.5 -1.5t-2.5 -2.5v-1q0 -2 2 -2q0 -5 -3.5 -8t-5.5 -7l-10 -6l-10 -3q-9 -5 -14.5 -10t-13.5 -5h-2q-5 0 -11.5 -3.5t-6.5 -6.5q0 -2 2 -4t2 -4q0 -4 -2.5 -14.5t-2.5 -18.5v-7t1 -9q0 -4 -0.5 -10t-0.5 -10v-1q1 -4 1 -9
q0 -17 -2 -29.5t-2 -29.5q-2 -5 -2.5 -11.5t-0.5 -12.5l-3 -27q0 -5 -3.5 -7.5t-3.5 -7.5t-1 -5q0 -4 1 -4q0 -3 -4 -3h-3q-4 0 -4 -1q0 -5 2 -10.5t2 -10.5q0 -1 -2 -3q-1 -1 -2 -1q-3 0 -4 3q0 -2 -1 -6.5t-9 -12.5q-1 1 -1 2h-1q-2 0 -4 -3t-4 -3q-3 0 -4 3h-3l-2 -2
q-1 -1 -2 -1q5 0 0 2t-12.5 8t-14.5 17.5t-7 31.5l-8 41v109q0 29 3 44.5t-3 19.5q-4 0 -22 -2q-17 -2 -51 -4.5t-98 -6.5h-26h-1q-1 0 -8 1.5t-16 3.5t-19 6t-16 10q-14 14 -17 31t-3 24v10q0 14 7 33.5t14 38.5q2 5 4 11t3 11l6 10q3 9 9 22t12 23l15 25l17 41q2 2 4 7.5
t5 10.5l12 32q3 10 6 13l10 22l16 36q6 8 6 18v5v3v4q0 2 1 5t6 3h5q3 0 5 3h3q1 -2 7 -2q2 0 4.5 2t6.5 2q-4 0 1 -0.5t12.5 -2.5t14.5 -6t7 -11q0 -1 -3 -4l-7 -5l-6 -11q0 -2 -1 -2t-1 -1q-23 -84 -47.5 -140.5t-44.5 -96t-33.5 -68t-13.5 -56.5q0 -7 6 -9t14 -2t17.5 1
t15.5 1q18 0 36 4t40 4q15 0 30.5 3t31.5 3q6 0 10.5 -0.5t10.5 -0.5q13 0 12 7t2 18q3 26 3.5 38t1.5 25q0 6 1 12.5t2 18.5t2.5 31t3.5 51l21 186q0 5 -4 6t-4 3q0 3 4 6t6 3h4q7 0 11 2h2h5q2 0 2.5 1.5t1.5 1.5q-1 0 10 -2t13 -6l4 -6q1 -1 1 -6q0 -3 -0.5 -6t-1.5 -8
v-1q0 -5 0.5 -9t0.5 -9v-5t-1 -7q0 -6 1 -8t1 -5v-5q0 -17 4.5 -92.5t5.5 -217.5l-1 -2v-4q0 -4 10 -4h11h6q5 0 9 0.5t7 0.5h11l1 -1q2 0 3 0.5t4 0.5t5.5 -0.5t6.5 -0.5z" />
    <glyph glyph-name="five" unicode="5" horiz-adv-x="488" 
d="M130 151q4 -13 7.5 -33t10.5 -37t18.5 -27t32.5 -3q35 10 59 26.5t47 47.5q11 17 23 40t22.5 48t19 49.5t14.5 44.5q9 29 16.5 54.5t11.5 57.5q0 21 -8 33t-19.5 17t-24.5 5t-23 -3q-29 -8 -50.5 -19.5t-39 -26t-32 -33t-30.5 -40.5q-5 -7 -12.5 -3.5t-13.5 6.5
q-21 32 -25.5 74.5t-1.5 87.5t9 89.5t6 82.5q0 12 -1 23.5t12 11.5q7 0 12 -3t13 -3h22q13 3 34 3q8 0 30.5 -3.5t47.5 -5.5t48 -0.5t33 11.5q8 0 9 -5t3 -17q0 -5 -6.5 -9t-15.5 -6.5t-17.5 -3.5t-12.5 -1q-16 0 -33 1t-39 4q-12 0 -24 3t-26 3q-2 0 -5 -0.5t-5 -0.5
q-6 0 -11 -4t-5 -6q0 -49 -5.5 -108t-2.5 -112l1 1q8 9 27.5 17.5t41 15t40 10t25.5 3.5q56 0 88.5 -19t46.5 -50.5t13 -72.5t-11 -84.5t-26 -86t-32 -78.5q-8 -13 -20 -31.5t-27.5 -37t-32.5 -33.5t-34 -20q-21 -7 -50 -10.5t-57.5 0t-53 15.5t-36.5 35q-11 23 -12 27.5
t-1 5.5q0 15 3.5 37t17.5 48q2 1 3.5 2t2.5 1q8 0 11 -5z" />
    <glyph glyph-name="six" unicode="6" horiz-adv-x="514" 
d="M514 272q0 -54 -14.5 -104.5t-44.5 -97.5q-26 -26 -43.5 -42.5t-36 -26t-41.5 -13t-59 -3.5q-30 0 -58 10t-54 37q-13 15 -21.5 27t-14.5 24.5t-10 27t-8 32.5q0 6 -1 8q-3 33 -4.5 52.5t-2.5 30t-1 14v6.5q0 32 6 79.5t19 100.5t33 106t47.5 95.5t63.5 69t81 26.5
q36 0 64 -13.5t51 -46.5q8 -11 10 -29.5t-2 -31.5q0 -2 -2 -7t-4.5 -9.5t-5 -8t-3.5 -3.5l-2 2q-1 1 -1 3q0 1 0.5 2t0.5 2v13t2 14l-3 25q-2 5 -3.5 10t-6.5 9q-16 20 -33.5 24.5t-35.5 4.5q-13 0 -32.5 -2.5t-34.5 -18.5q-9 -5 -19.5 -23.5t-20.5 -41.5t-18.5 -45.5
t-12.5 -35.5l-9 -35q-7 -34 -18 -87.5t-11 -120.5q0 -42 5 -79.5t19 -78.5l20 -40q2 -4 7 -11t11.5 -14t15 -12.5t17.5 -5.5q1 0 6.5 1.5t5.5 4.5q0 2 -2 4.5t-13 14.5q-18 13 -23.5 44.5t-5.5 61.5q0 37 13 79.5t37 78.5t59 60t80 24q18 0 29.5 -15t19 -36.5t10.5 -46
t3 -43.5zM479 291q0 11 -1 24.5t-5.5 25t-13.5 19t-26 7.5q-21 0 -39 -15t-31 -39t-20.5 -54.5t-7.5 -61.5q0 -4 1.5 -12t1.5 -29q2 -15 7.5 -34.5t13.5 -33.5l10 -14q1 -4 4 -4q5 0 13.5 8.5t17.5 20t17 22t12 15.5q21 36 33.5 75t12.5 80z" />
    <glyph glyph-name="seven" unicode="7" horiz-adv-x="506" 
d="M213 105q43 98 72 162.5t50.5 108.5t37 72.5t31.5 54.5q14 28 27.5 56.5t24.5 58.5q3 11 6.5 23.5t3.5 24.5q0 6 -12.5 6.5t-30.5 -2t-38 -5.5t-35 -3q7 0 -3.5 -0.5t-31 -1.5t-47 -2t-51 -2.5t-44 -2t-25.5 -0.5h-13q-9 0 -17 -2.5t-21 4.5q-2 1 -4.5 6.5t-2.5 8.5
q0 14 24 23.5t61 15t80.5 7.5t83.5 2.5t69.5 0t37.5 -0.5q7 0 17.5 -2.5t19.5 -9.5t15.5 -19t6.5 -31v-2q1 -6 1 -12v-11q0 -68 -28 -143t-68 -153t-83.5 -156t-74.5 -152l-9 -15t-13.5 -17t-15.5 -8.5t-14 10.5q-3 6 -3 19t2 28.5t5.5 31.5t8.5 29z" />
    <glyph glyph-name="eight" unicode="8" horiz-adv-x="499" 
d="M362 381q31 -12 56.5 -36t43.5 -54t27 -62.5t7 -62.5q-4 -66 -39.5 -114t-101.5 -63q-7 -1 -25.5 -1.5t-40 1t-42 6t-31.5 13.5q-22 9 -44.5 26t-40.5 39.5t-29.5 48.5t-11.5 53q0 24 9.5 53.5t24 57.5t32 51.5t33.5 35.5q5 6 13 12.5t15 13t12 11t5 5.5q0 2 -1 3
q-39 23 -60 44t-35 51q-6 19 -6 44q0 45 21 80t59 56q9 5 19 9.5t18 7.5q10 4 20 5q35 6 74.5 4.5t75.5 -23.5l16 -14t20 -27q8 -17 12.5 -34.5t4.5 -36.5q0 -28 -5.5 -50t-14 -39.5t-19.5 -31.5t-22 -26q-5 -5 -10 -10.5t-10 -10.5l-12 -12q-14 -15 -16.5 -17.5t-2.5 -3.5
v-1q0 -1 2 -1zM452 181q-5 48 -18.5 75t-32.5 42t-39.5 22.5t-38.5 17.5q-1 0 -2.5 1t-2.5 1q-4 0 -8 -3t-7 -6t-4.5 -5.5t-0.5 -1.5q-23 -28 -41.5 -47t-31.5 -38.5t-20 -45t-7 -66.5q3 -27 17 -43t34 -25.5t45 -13t51 -4.5q14 0 32.5 12t35 31.5t28 44.5t11.5 52zM310 693
q-20 0 -30 -1t-18 -3l-25 -13q-19 -8 -31 -22t-18.5 -32t-8.5 -38t0 -38q4 -23 12 -37.5t17 -23.5q15 -15 24.5 -25t15.5 -15t9.5 -7t5.5 -2q3 0 4 1q16 14 36.5 31.5t40 37t34.5 41.5t19.5 44.5t-4.5 46t-38 46.5q-6 5 -21 7t-24 2z" />
    <glyph glyph-name="nine" unicode="9" horiz-adv-x="500" 
d="M461 284q0 -28 -2.5 -55t-2.5 -55l-8 -85q-2 -10 -3 -26.5t-3 -32.5t-4.5 -28t-5.5 -12q-12 0 -22 7t-17 17.5t-11.5 23.5t-6.5 24q-3 27 -4.5 63.5t-1 75.5t2.5 78t6 72l-12 -2q-2 -2 -8 -5.5t-10 -5.5l-11 -4q-5 -3 -11 -4t-12 -3l-22 -5q-23 -4 -49 -3.5t-50.5 8
t-44.5 22.5t-31 41q-11 23 -14 40t-3 25v20q0 31 5 54t12 38q8 18 18 30q10 15 16 23.5t9.5 13t4.5 5.5l2 2l11 15q8 12 19 19t22 16l11 8q12 13 30.5 18.5t29.5 4.5q15 -1 38.5 -8t46.5 -18t40 -26t18 -32q-1 -2 -2 -3l-2 -4q-6 0 -7.5 5.5t-18.5 15.5q-8 8 -17 12.5
t-14 6.5l-12 3q-5 0 -7.5 2t-6.5 2q-35 0 -65.5 -19t-54.5 -47.5t-38.5 -62.5t-15.5 -65q0 -12 1.5 -33t7 -41t17 -34.5t32.5 -14.5h20q25 0 49.5 13.5t45.5 33.5t36.5 43t23.5 43l18 57l9 43q0 6 2 14t5 17t6.5 17.5t6.5 14.5v6l2 1q1 1 1 2q-1 0 -1 1q-1 1 -1 2l1 1
q0 1 0.5 1t0.5 1l1 1h10l9 -2q10 -11 12.5 -16.5t2.5 -10.5q0 -4 -2.5 -7t-2.5 -6l-3 -19q-1 -5 -2.5 -10t-1.5 -10v-8q0 -5 -2 -22.5t-4 -53.5q0 -3 0.5 -6t0.5 -7l-1 -17q0 -14 1.5 -27t1.5 -25q0 -9 -4.5 -17t-4.5 -16z" />
    <glyph glyph-name="colon" unicode=":" horiz-adv-x="267" 
d="M176 404q-11 0 -17.5 -0.5t-17.5 6.5q-10 2 -14 14.5t-4 20.5v1q0 4 -4.5 15t-6.5 19q-2 3 -2 6q0 9 5 13.5t12.5 7t15 2.5h13.5q9 0 16.5 -1.5t15.5 -4.5q5 0 10 -6t9.5 -14.5t7 -17.5t2.5 -15q0 -2 -1 -7t-2.5 -10.5t-3.5 -10t-5 -4.5q-6 -2 -13 -6t-16 -8zM176 -10
q-1 0 -3 -0.5t-9 -0.5q-1 0 -2 0.5t-2 0.5q-5 -1 -6 -0.5l-3 1.5q-17 8 -22.5 18.5t-5.5 21.5q0 5 -4.5 16t-6.5 20q-2 2 -2 6q0 6 5 13t10 7l15 2q3 0 6.5 0.5t7.5 0.5q5 0 9.5 -0.5t9.5 -1.5q23 -6 33.5 -18.5t10.5 -38.5q0 -20 -7.5 -26t-21.5 -17z" />
    <glyph glyph-name="semicolon" unicode=";" horiz-adv-x="207" 
d="M116 404q-6 0 -12.5 -1.5t-12.5 2.5l-10 5q-10 2 -14 14.5t-4 20.5v1q0 4 -4.5 15t-6.5 19q-2 3 -2 6q0 9 5 13.5t12.5 7t15 2.5h13.5q9 0 16.5 -1.5t15.5 -4.5q5 0 10 -6t9.5 -14.5t7 -17.5t2.5 -15q0 -2 -1 -7t-2.5 -10.5t-3.5 -10t-5 -4.5q-6 -2 -13 -6t-16 -8z
M66 -91q0 3 2.5 7.5t2.5 8.5l4 21q4 7 4 9l4 9q2 3 2.5 7t2.5 6q0 5 -5 7t-9 5l-12 9q-5 4 -7 11t-3 15t-1 15.5v11.5q0 5 3.5 10.5t5.5 5.5q6 -2 10 -2t9.5 1.5t11.5 1.5q35 -3 46.5 -21t11.5 -46q0 -3 -1.5 -9.5t-5.5 -9.5l-5 -8q-2 -4 -4.5 -6.5t-4.5 -5.5
q-6 -14 -17 -22t-16 -16l-17 -21q-3 -3 -8 -3q-4 0 -4 3v6z" />
    <glyph glyph-name="less" unicode="&#x3c;" horiz-adv-x="354" 
d="M254 308q-29 -35 -44.5 -54t-23.5 -28q-9 -11 -10 -13q0 -7 12 -20t28 -27.5t31 -28t20 -21.5q6 -8 16 -18t20.5 -21.5t18 -23.5t7.5 -22q0 -4 -3.5 -6t-7.5 -2q-18 0 -35.5 10.5t-35.5 28t-37.5 40t-41.5 46.5q-14 15 -28 26t-25 22t-17.5 23t-6.5 29q0 20 12.5 43
t31.5 45.5t42 43.5t43 37q13 10 24.5 21.5l21.5 21.5t20 16t21 6q15 0 28.5 -11.5t13.5 -28.5q0 -11 -10.5 -28t-25.5 -36.5t-31.5 -38t-27.5 -31.5z" />
    <glyph glyph-name="equal" unicode="=" horiz-adv-x="543" 
d="M83 289q9 1 21.5 -1t24.5 -3.5t22.5 -2.5t15.5 2q20 8 41.5 10t43.5 4q23 3 46.5 6t48.5 3q23 0 45.5 -3.5t45.5 -6.5q44 -6 44 -46q0 -7 -1.5 -16.5t-10.5 -10.5q-35 -5 -69 -5.5t-69 -2.5q-50 -2 -99 -5.5t-98 -5.5q-11 0 -23 6.5t-22 14.5t-17.5 14.5t-10.5 7.5
q-10 3 -10 12t5.5 13.5t25.5 15.5zM50 433q12 7 25 15.5t25.5 16t24 13t20.5 5.5q8 0 18 -4t24 -4q25 0 49.5 5.5t50.5 7.5q17 2 33.5 4t33.5 2q26 0 54 -9t56 -14q12 -2 20.5 -16t8.5 -25q0 -9 -9.5 -13.5t-24 -6t-30 -1t-27.5 0.5q-22 0 -43.5 0.5t-43.5 0.5q-19 0 -37 -3
t-35 -3q-33 0 -66 1.5t-67 1.5q-10 0 -20.5 1t-19.5 4t-14.5 8t-5.5 12z" />
    <glyph glyph-name="greater" unicode="&#x3e;" horiz-adv-x="351" 
d="M339 288q5 -5 6.5 -16.5t-3.5 -18.5q-12 -21 -26 -38t-30.5 -34t-35.5 -35.5t-41 -42.5q-8 -9 -17.5 -22t-21 -25.5t-25 -21.5t-28.5 -10q-14 0 -20.5 14.5t-6.5 26.5q0 15 13.5 38t33.5 48t43.5 50.5t43 46t32.5 33.5t13 14q-21 32 -52 59.5t-58 56t-43.5 59.5t-10.5 70
q4 7 16.5 -2.5t31.5 -29.5t42 -48t48 -58.5t49.5 -60t46.5 -53.5z" />
    <glyph glyph-name="question" unicode="?" horiz-adv-x="492" 
d="M276 709q48 -5 85.5 -20.5t58 -42.5t22 -66t-21.5 -90q-14 -26 -35 -44t-31 -25q-25 -18 -46 -35t-36 -38t-23 -48.5t-8 -66.5q0 -10 -4 -22t-16 -12q-14 0 -21.5 11t-11 25.5t-4 29t-0.5 21.5q1 17 8 44.5t23 58.5q10 17 23 30t27.5 25.5t29 25.5t29.5 30q10 13 18 23.5
t14 22t9 25.5t3 32q0 16 -7.5 25.5t-19 15t-24.5 7t-24 1.5q-27 0 -54.5 -4.5t-51 -13t-42 -21t-28.5 -28.5q-5 -8 -7 -19.5t-2 -19.5t1.5 -11t4 -4.5t4 -3t1.5 -6.5q0 -7 -10 -7q-33 0 -46 20t-13 43q0 26 13.5 45t32.5 32.5t39 22t33 13.5q24 10 52.5 13.5t55.5 5.5z
M164 46q-6 24 7.5 41t33.5 22q18 4 32 -2.5t23.5 -17t14.5 -22.5t5 -19q0 -11 -5.5 -22.5t-15 -20.5t-21 -15t-23.5 -6q-11 0 -20.5 8t-16.5 18.5t-10.5 21t-3.5 14.5z" />
    <glyph glyph-name="at" unicode="@" horiz-adv-x="822" 
d="M377 -104q-84 7 -140 38.5t-90 79.5t-49 107t-17 122q-2 57 20 114t59 107t85.5 90t99.5 61q24 9 53 17t60 14.5t62.5 10t58.5 3.5q38 0 81 -16t79 -44.5t59.5 -67.5t23.5 -85q0 -2 -0.5 -5t-1 -10t-2 -20t-4.5 -35q-3 -23 -10.5 -54.5t-20 -66t-30 -68.5t-39.5 -61
t-49 -43.5t-58 -16.5q-11 0 -26.5 6t-30.5 14t-25.5 16.5t-10.5 14.5q0 2 -3 4.5t-6 4.5q-2 0 -8 -6q-17 -18 -44.5 -30.5t-46.5 -12.5q-22 0 -40.5 8.5t-32 23.5t-21.5 35t-8 42q0 31 10 70.5t23 74t25.5 58t17.5 23.5q13 0 25 5t23 11.5t22.5 11.5t24.5 5q10 0 16 -4
t10.5 -9t10 -9t13.5 -4q6 0 11.5 1.5t10.5 1.5q13 0 25 -10.5t12 -24.5l-14 -83q0 -7 1 -13.5t1 -13.5q-1 -14 -2 -27.5t-2 -27.5l-5 -47q0 -7 2.5 -18t10.5 -13q32 -9 57.5 1t45 31t33 51t22 61.5t12.5 61t4 51.5q0 34 -18.5 69.5t-47 65t-63 48t-65.5 18.5q-20 0 -41 -5
t-42 -13.5t-40 -19t-34 -22.5q-35 -22 -62 -44t-49.5 -46t-41.5 -52t-38 -62q-18 -33 -30 -73.5t-12 -72.5q0 -33 8.5 -70t25 -69t42 -55t59.5 -27q29 -4 62.5 -5.5t59.5 -1.5q14 0 29.5 4t28.5 12q25 15 30.5 18t8.5 3q7 0 10 -8t3 -19q0 -16 -7.5 -31.5t-20 -27t-29.5 -17
t-35 -1.5q-20 5 -34 2.5t-30 -4.5zM357 167q5 -19 11.5 -24t19.5 -5q8 0 25 10t35 26t32 37t15 42q1 28 11.5 58.5t10.5 59.5q0 2 -5.5 6.5t-13.5 9t-18.5 7.5t-19.5 3q-17 0 -22 -17l-8 -13q-10 -17 -22 -32.5t-17 -35.5l-18 -55q-5 -20 -8 -39t-8 -38z" />
    <glyph glyph-name="A" unicode="A" 
d="M55 -105q1 4 2.5 5.5l3 3t3 4t1.5 9.5q4 66 13 126t23 118.5t33 117t42 121.5q9 26 21 61t26.5 72t31.5 72.5t37.5 64t43.5 46t50 17.5q8 0 11 -9t3 -11q0 -85 12.5 -172.5t26.5 -176.5q9 -74 33.5 -144t56.5 -142q2 -3 7 -11t10.5 -16.5t9.5 -15.5t5 -9q3 -8 3.5 -17.5
t-10.5 -19.5q-14 -7 -33.5 3.5t-33.5 24.5l-22 22t-23.5 27t-21 32.5t-14.5 38.5q-10 21 -16 42t-14 45q0 4 -2 8t-4 4q-10 0 -25 -6.5t-30 -14.5t-28.5 -16t-20.5 -12q-12 -9 -27 -22.5t-30.5 -26.5t-31 -24t-28.5 -15q-19 -48 -30 -98t-25 -100q-3 -4 -9 -6.5t-13 -3.5
t-12 0t-5 4zM317 553q-25 -44 -43 -89t-33 -91t-30.5 -92.5t-36.5 -93.5q7 5 14 11t14 10q36 26 73 43.5t82 25.5q2 0 2 5q-5 6 -9.5 25.5t-9 43t-7.5 45t-4 30.5q-1 8 -1.5 13.5t-0.5 12.5q0 11 -1.5 22t-1.5 25q-2 7 -2 17.5v40.5z" />
    <glyph glyph-name="B" unicode="B" horiz-adv-x="501" 
d="M157 625q-23 -23 -35.5 -37.5t-21.5 -14.5q-4 0 -10 2t-11 5.5t-7.5 8.5t0.5 10l3 5q1 0 2 -0.5t2 -0.5q14 12 23 20.5t17 15.5t16.5 14.5t21.5 17.5q3 3 3 11q0 5 -2.5 9t-2.5 5q0 2 7.5 7t13.5 5q37 7 76.5 8.5t61.5 5.5q33 0 64 -8t54 -26.5t36 -50t10 -79.5
q-1 -17 -6 -33t-11 -30t-12 -24t-8 -15q-22 -27 -44.5 -51.5t-52.5 -46.5q0 -1 -0.5 -1.5t-0.5 -1.5h5q24 3 52.5 3.5t53 -7.5t41 -27.5t16.5 -55.5q0 -23 -17 -51t-41 -55.5t-49.5 -51t-41.5 -36.5q-21 -22 -36 -35t-27 -21.5t-22.5 -14.5t-22.5 -15q-2 -2 -3.5 -2.5
t-5.5 -0.5q-2 0 -9 2t-8 8h-1q-2 -8 -2 -19.5t-5 -15.5q-4 -10 -13 -10q-10 0 -16.5 21t-10.5 47t-5.5 49t-1.5 27q-1 10 -1.5 20t-1.5 26t-2 40.5t-3 64.5q-1 15 -1.5 32t-0.5 43v64.5v96.5q-2 35 -1 72t-5 72zM263 576q5 -44 -1 -91t-6 -92q0 -11 -0.5 -20t-2.5 -23
q1 0 1 -0.5t1 -0.5q13 12 21.5 19.5t18 16t23 20t36.5 29.5q16 12 30 31.5t24.5 41t17 43t6.5 37.5q0 31 -11 61l-10 15q-6 7 -16.5 12.5t-23 9t-26 5t-24.5 1.5q-17 0 -34 -2.5t-32 -7.5q-2 -3 0 -16.5t4 -30l4 -33t0 -25.5zM228 -1q32 43 70 79.5t73 79.5q7 8 21.5 23.5
t28.5 33.5t25 35.5t11 29.5q0 23 -18.5 38t-41.5 15q-29 0 -55 -6.5t-46 -14.5q-24 -10 -44 -21q0 -69 -8.5 -138.5t-13.5 -138.5z" />
    <glyph glyph-name="C" unicode="C" horiz-adv-x="509" 
d="M509 92q0 -5 -1.5 -8.5t-1.5 -7.5q0 -3 -5 -11t-25 -21q-6 -6 -24 -18t-45 -24t-61 -21t-71 -9q-48 0 -84 18.5t-61 49.5t-37.5 71t-12.5 83q0 53 3 104t11 105q9 55 22 110.5t41 100.5t75.5 72.5t124.5 25.5q15 0 28.5 -9.5t24.5 -22.5t17.5 -26t6.5 -21q0 -2 -5 -19
t-13.5 -37.5t-20 -37t-25.5 -16.5q-2 0 -7.5 3t-5.5 8q0 9 3.5 21.5t8 27t8.5 29t4 28.5q0 9 -5.5 17t-13.5 14t-18.5 9.5t-19.5 3.5q-11 0 -21 -3.5t-14 -11.5q-19 -42 -38.5 -88.5t-35 -95.5t-25.5 -99.5t-10 -100.5q0 -36 -6 -69t-6 -71q0 -29 5.5 -54t19 -44t36 -30
t56.5 -11q23 0 51.5 7t56.5 17.5t53 23.5t41 25q3 2 9 8t11 6q1 0 1 -0.5t1 -0.5z" />
    <glyph glyph-name="D" unicode="D" horiz-adv-x="539" 
d="M528 557q9 -25 12.5 -55t3.5 -56q0 -33 -8.5 -62.5t-19.5 -56.5q-10 -24 -21 -45t-24 -40.5t-28 -38.5t-32 -40q-38 -45 -77.5 -79.5t-69.5 -71.5q-3 -3 -10.5 -9t-16.5 -12.5t-17.5 -11.5t-14.5 -6q-15 -3 -24 4.5t-14.5 22t-7 32.5t-2 36.5t0.5 35t1 26.5q0 7 -2.5 18
t-2.5 37q0 65 -4 130t-4 130q0 27 2.5 53t5.5 53q2 20 2 45t7 45q1 3 1 8v8.5t-5 5.5q-14 0 -27 -5.5t-30 -5.5q-14 0 -16.5 5t-10.5 5q-3 0 -5 2q0 2 1.5 4t1.5 6q0 1 2 1t3 -1t3 -1t3 1t3 1q4 0 8.5 -1t11.5 -1q5 0 23.5 6t63.5 20q23 7 42.5 10t47.5 3q95 0 156 -41.5
t88 -113.5zM479 410q3 14 5 29t2 30q-1 38 -14 75t-36 68q-27 37 -78 54.5t-117 13.5q-3 0 -2.5 -5.5t1.5 -19.5q0 -8 -1 -17t-1 -20q0 -30 3 -60.5t3 -64.5q0 -60 -1.5 -120t-3.5 -113t-4.5 -95t-3.5 -65q0 -6 -4 -17.5t-7 -23t-2.5 -20t9.5 -7.5q10 10 23 24.5t27.5 30
t28.5 30.5t26 27q15 15 30 35.5t29 43t26.5 44.5t21.5 39q13 24 23.5 50.5t16.5 53.5z" />
    <glyph glyph-name="E" unicode="E" horiz-adv-x="568" 
d="M513 -4q-30 -7 -60 -9t-61 -1.5t-63.5 2t-67.5 1.5q-61 0 -100 35.5t-45 112.5q-8 52 -7 102.5t6 105.5q4 33 6.5 71.5t4.5 79t4.5 81t6.5 75.5q1 2 1 8q-3 3 -4 3q-17 2 -35 12t-17 23q0 2 8.5 2.5t20.5 2t25 4.5t22 11q46 -8 81 -7.5t73 0.5q19 0 52.5 -0.5t69 -2.5
t66.5 -6.5t43 -11.5q15 -15 12 -26t-15 -18.5t-29 -11t-29 -3.5q-20 0 -49.5 1t-60.5 2.5t-59 3t-45 2.5q-4 -29 -12.5 -66.5t-17 -76t-15 -75t-6.5 -63.5q0 -5 5 -5q65 0 130.5 8t136.5 8q8 0 14 -5.5t6 -15.5q0 -6 -4.5 -9.5t-10.5 -5t-12.5 -2t-10.5 -0.5
q-30 -2 -52.5 -4t-44 -3.5t-43.5 -3.5t-50 -5q-17 0 -28.5 2t-31.5 2q-6 0 -11 -13.5t-9.5 -34t-8 -46t-6 -48.5t-3.5 -41t-1 -25q0 -18 8 -33.5t21 -27t28 -19t30 -8.5q58 0 117.5 -2.5t127.5 -2.5q8 0 8 -4q0 -3 -3.5 -10t-5.5 -9z" />
    <glyph glyph-name="F" unicode="F" horiz-adv-x="491" 
d="M80 703q17 6 32 9.5t34 3.5q26 0 49.5 -1.5t47.5 -3t50.5 -3t59.5 -1.5q30 0 55 -0.5t43.5 -4t29 -10.5t10.5 -19q0 -5 -4 -7t-7 -2q-54 -2 -107 -3t-109 -1q-12 0 -24 0.5t-26 0.5q-4 0 -4 -5q0 -18 3 -37t7 -39q2 -12 4 -30t3 -35.5t1 -32.5t-1 -21v-20.5t1 -24t3 -20
t5 -8.5q2 0 15 1t31.5 2t39.5 1.5t39 -1.5t29.5 -7t11.5 -14t-24 -13.5t-54.5 -7t-57.5 -3t-33 -0.5t-6.5 -3.5t-0.5 -11.5q0 -7 -0.5 -10t-0.5 -5t-0.5 -5t-1.5 -10q-3 -28 -7.5 -51t-8 -45t-6.5 -44t-3 -47q0 -31 -4.5 -61.5t-4.5 -64.5q0 -14 -10.5 -16t-18.5 3
q-10 5 -16.5 22.5t-11 41.5t-6.5 51t-3.5 51t-1.5 42v24q-1 3 -1.5 9.5t-2.5 27t-6 61t-10 111.5q-5 48 -7.5 95.5t-2.5 103.5q0 3 -0.5 11.5t-0.5 18.5t-0.5 18.5t-0.5 11.5q0 8 -1 11t-2.5 4.5t-3 3.5t-2.5 9z" />
    <glyph glyph-name="G" unicode="G" horiz-adv-x="590" 
d="M620 303h-15q-26 0 -50.5 -4t-47.5 -12q-2 -40 -3 -67t-2 -46t-2 -33t-2 -27q1 -32 -1.5 -62t-6.5 -58.5t-7 -54.5t-3 -48q0 -6 -8 -6q-5 0 -11.5 3t-7.5 9q-6 23 -8 45t0 60q-8 -9 -22 -14t-29.5 -7t-31.5 -2.5t-28 1.5q-66 9 -114 39t-79 74t-46 98t-15 110
q0 81 26.5 151t77.5 131q15 18 33.5 39.5t40 41t45.5 35t50 22t53.5 1.5t56.5 -26q13 -17 20.5 -28t11.5 -21.5t5 -23.5t1 -33q0 -11 -1 -22t-1 -23q0 -3 -9 -6.5t-12 -3.5q-12 0 -18 20.5t-12 44.5t-16.5 44.5t-31.5 20.5q-36 0 -64 -20.5t-48.5 -53.5t-34.5 -73.5
t-22.5 -81t-12 -76t-3.5 -58.5v-15t1 -15q3 -54 15.5 -99t39.5 -77t70 -49t106 -16q0 11 2 21t4 21q8 49 10.5 99t13.5 100h-7q-12 0 -22.5 -6.5t-21 -14t-22 -13.5t-24.5 -6q-4 0 -10.5 1t-12.5 3t-10.5 5t-4.5 8q0 6 8 9q26 17 53.5 33.5t54.5 29t52.5 20t48.5 7.5
q22 0 40.5 -11t20.5 -31v-3z" />
    <glyph glyph-name="H" unicode="H" horiz-adv-x="617" 
d="M569 714q3 -14 3.5 -19t0.5 -9v-63q0 -45 7 -87t7 -88q0 -5 -0.5 -11t-1.5 -18.5t-3.5 -33.5t-7.5 -55q-8 -53 -12 -107t-4 -111v-41.5t-5 -44.5q4 -7 -0.5 -20t-15.5 -13q-5 0 -9 4.5t-9 4.5q-2 0 -7.5 7t-5.5 9q-8 47 -11 91t-4.5 87.5t-3.5 87.5t-7 91q-15 -3 -37 -8
t-42.5 -10.5t-35.5 -9.5t-16 -5q-25 -12 -54 -24t-48 -31q-2 -2 -6 -6.5t-8.5 -10t-7.5 -9t-3 -2.5q0 -29 -3.5 -59t-3.5 -62q0 -29 -1.5 -57.5t-1.5 -62.5q-2 -12 -3 -20t-4.5 -13t-11 -7t-20.5 -2q-14 0 -27 16t-13 31q-5 18 -5 39v40q0 49 1.5 98.5t1.5 99.5
q0 40 -0.5 79.5t-0.5 79.5v25t-0.5 48t-1.5 62t-3 67q-5 9 -9.5 12t-16.5 3q-5 0 -12 1.5t-7 5.5q0 5 5.5 8t5.5 5q8 5 19 6.5t15 1.5q7 0 20.5 -1t21.5 -4q32 -11 41 -47q5 -20 8 -51.5t5 -67.5t3 -73t1 -66.5t-1 -48t-2 -18.5q1 0 6 4t10.5 9.5t10.5 10l5 4.5
q15 12 43.5 25.5t60 25t61 19t46.5 7.5q6 0 6 9v3.5t-0.5 10.5t-1 24t-1.5 45q0 22 3.5 45t7.5 46t7.5 46t3.5 46q0 9 12 9q5 0 8.5 -1t8.5 -1q7 0 13 -1.5t14 -1.5q5 0 10.5 3.5t10.5 3.5q2 0 2 -4z" />
    <glyph glyph-name="I" unicode="I" horiz-adv-x="278" 
d="M127 -11q-24 0 -36.5 6.5t-12.5 8.5q0 3 9.5 5t23.5 4t28.5 3.5t25.5 2.5l-2 7.5t-4.5 17.5t-4.5 22t-2 21q0 63 -4 134.5t-4 141.5q0 34 0.5 68.5t-2.5 71.5q0 26 -0.5 60.5t-2.5 85.5q0 3 0.5 7t0.5 7q0 2 -6.5 4t-9.5 3q-32 11 -45 13t-14 7q0 1 5.5 4t13.5 6.5
t16.5 6t14.5 2.5q25 0 50 -3t51 -3q4 0 10.5 -0.5t13.5 -2t12 -5t5 -9.5q0 -5 -5.5 -9t-12.5 -7t-12.5 -5t-5.5 -3q0 -43 6.5 -82t6.5 -86q3 -59 3 -118q0 -42 -2 -76t-4 -66t-4 -65.5t-2 -74.5q0 -5 0.5 -15t1.5 -20.5t1 -19.5v-12q6 -6 14.5 -7t15.5 -10q0 -10 -4 -14.5
t-9 -6t-11 -1t-10 0.5h-97z" />
    <glyph glyph-name="J" unicode="J" horiz-adv-x="456" 
d="M43 694h1q5 -2 9 0t9 2q7 0 13 1.5t14 1.5q3 0 9 -0.5t32 -0.5q21 0 41 3.5t41 8t42 8t43 3.5q24 0 50.5 -3t48.5 -9.5t36 -18t13 -28.5q0 -1 -1 -6t-3.5 -28.5t-6.5 -72t-9 -135.5q-11 -68 -18 -137t-22 -135t-44.5 -126t-84.5 -109q-15 -15 -41 -17.5t-54 2t-51.5 15
t-32.5 22.5q-10 13 -21.5 31t-11.5 35q0 2 5.5 6t7.5 0q6 -9 16.5 -22.5t24.5 -26t31.5 -21t37.5 -8.5q43 1 72 31.5t48 78t28.5 106t14 115t5 105t0.5 76.5q0 53 -1.5 105t-1.5 106q0 3 -4 4h-8q-19 -3 -40.5 -6.5t-48.5 -5.5t-61.5 -2t-79.5 5q-9 1 -18.5 6t-17 11.5
t-12.5 13.5t-7 12z" />
    <glyph glyph-name="K" unicode="K" horiz-adv-x="528" 
d="M114 562q0 21 -2 41.5t-2 40.5q0 13 -1.5 17t-4 5.5t-5 3.5t-3.5 11q-2 9 15.5 9t41.5 -3t48.5 -7.5t35.5 -4.5q7 0 9 -11.5t2 -25.5t-0.5 -27t-0.5 -21q2 -48 5 -95t-4 -99q26 33 47 71t42 78t45.5 81.5t59.5 82.5q7 7 19.5 3t20.5 -4h13q9 0 9 -8t-9 -14.5t-11 -10.5
q-29 -39 -50.5 -76t-42 -74t-42.5 -73.5t-51 -74.5q-3 -4 -6.5 -9t-3.5 -8q0 -2 3.5 -8.5t5.5 -11.5q9 -26 35.5 -67t60.5 -86t72 -88.5t71 -76.5q4 -4 10 -9t12 -11t10.5 -13t4.5 -14q0 -9 -14 -6t-35 12.5t-46.5 23t-47.5 26.5t-38.5 23.5t-19.5 13.5q-42 35 -74 81.5
t-46 97.5q-4 15 -4.5 30t-2.5 15q-4 -1 -12.5 -29t-17 -70t-15 -91.5t-7.5 -93.5q0 -8 -1 -10.5t-9 -5.5l-9 -3q-11 2 -17.5 23t-15.5 59q-20 82 -25 167.5t-5 170.5q0 34 1.5 70t1.5 83z" />
    <glyph glyph-name="L" unicode="L" horiz-adv-x="517" 
d="M273 655q0 -18 -1 -36t-3 -39t-6 -47t-10 -60q-24 -115 -40.5 -230t-20.5 -232v-1q0 -2 1 -5t3 -3q8 0 29.5 7.5t43.5 14.5q63 16 125.5 29.5t126.5 26.5q6 1 12.5 2.5t12.5 1.5q7 0 5 -6q-16 -18 -50.5 -30t-75 -21.5t-81.5 -17.5t-70 -18q-12 -2 -25 -6.5t-26.5 -9.5
t-27 -9t-25.5 -4q-11 0 -19 28t-14 70.5t-10.5 93t-7 95t-3.5 77t-1 39.5q0 77 4.5 153t12.5 149q1 5 1.5 9.5t0.5 9.5q0 3 -4.5 7.5t-4.5 8.5q0 7 23 9.5t51 -3t51 -18.5t23 -35z" />
    <glyph glyph-name="M" unicode="M" horiz-adv-x="659" 
d="M582 666q-19 -14 -35 -36t-30.5 -47t-27 -51t-24.5 -48l-32 -67l-24 -48l-18 -40q-6 -14 -10.5 -28t-10.5 -25t-16 -18.5t-29 -7.5t-35.5 15t-30.5 36.5t-25 45t-19 39.5q-8 15 -16.5 29.5t-16.5 31.5l-7 8q-2 0 -3 -8.5t-1 -10.5q0 -10 1.5 -20.5t2.5 -21.5
q0 -21 2 -58.5t2.5 -81.5t-2.5 -89.5t-13 -82t-29 -60t-50 -22.5q3 24 5.5 45t5 43t4 47t2.5 58q0 34 -1.5 71t-3.5 86t-3 114t-1 156q0 4 -0.5 18.5t1 30t6.5 27t15 10.5q21 -3 41 -35t41.5 -78.5t44.5 -100t49 -98.5q12 -17 22 -35.5t19 -38.5q5 18 14.5 30t15.5 26
l53 106l31 54q17 25 33 57t35.5 59.5t44.5 45.5t60 17q9 0 13 -15t4.5 -37.5t-2 -50t-5.5 -53t-6 -46t-4 -29.5q-2 -20 -6.5 -50t-4.5 -62q0 -13 -2 -25.5t-2 -26.5q0 -36 -0.5 -73t2.5 -74t11.5 -73t25.5 -70q3 -6 9 -15t12 -17.5t10.5 -13.5t4.5 -3q0 -6 -6.5 -7.5
t-11.5 -1.5q-20 0 -36.5 7t-29 17t-21 20t-11.5 15q-25 44 -29 111t3.5 146t21 164.5t22.5 166.5q1 13 1.5 21.5t0.5 13.5v7.5t-1 4.5z" />
    <glyph glyph-name="N" unicode="N" horiz-adv-x="591" 
d="M141 502q2 -47 5 -91.5l6 -89t5.5 -90.5t5.5 -96q0 -25 -0.5 -40t-1 -25t-2 -18.5t-2.5 -19.5q-1 -7 -6 -22.5t-12.5 -31t-17 -27.5t-19.5 -12q-7 0 -7 4q0 35 2.5 69.5t2.5 72.5q0 49 -2 99.5t-4 106t-4 118.5t-2 138q0 33 -2 65.5t0 57t11.5 37t32.5 4.5q11 -2 31 -37
t46.5 -89t60 -121.5t70 -134.5t76.5 -127.5t81 -100.5q-4 75 -8.5 149.5t-5.5 149.5t3 151t18 154q4 23 8 33t7 10q16 0 28 -6.5t12 -23.5q0 -51 -3 -103.5t-6 -106t-3.5 -107.5t4.5 -107q0 -71 11 -143t11 -148q0 -10 -9 -10q-24 0 -52.5 19.5t-59.5 50t-62.5 69.5
t-60 77.5t-53.5 73t-42 57.5q-30 47 -43.5 74.5t-24.5 47.5l-17 34t-4 6h-2v0z" />
    <glyph glyph-name="O" unicode="O" horiz-adv-x="570" 
d="M570 362q0 -85 -24.5 -162.5t-74.5 -147.5q-42 -45 -84.5 -62.5t-92.5 -17.5q-20 0 -44 14t-47.5 34t-43 43t-28.5 40q-26 48 -38.5 97.5t-12.5 103.5q0 81 22 160t54 148q5 11 11.5 25t16.5 18q23 23 59.5 37.5t71.5 22.5q27 2 35 3t13 1q8 0 21.5 -3.5t27 -8.5t25 -12
t15.5 -13l13 -14q17 -21 19.5 -25.5t2.5 -5.5q9 -26 25.5 -47t28.5 -46q20 -44 24.5 -88t4.5 -94zM519 366q6 17 -0.5 51.5t-22 73t-38.5 75t-50 58t-56.5 21t-57.5 -35.5q-37 -68 -59.5 -144.5t-22.5 -148.5q2 -43 4.5 -81t10 -72t22 -64t41.5 -56q11 -12 23.5 -21t22.5 -9
q6 2 14.5 6t25.5 18q35 29 61.5 66.5t44 80t26.5 89t11 93.5z" />
    <glyph glyph-name="P" unicode="P" horiz-adv-x="471" 
d="M105 -19q-2 0 -10.5 5t-8.5 9q0 40 -3 79.5t-3 81.5v149q0 81 4 162.5t3 165.5q0 3 1 8.5l2 11t2 10l1 4.5q0 6 -5.5 9t-5.5 6q0 13 6 18t14 6.5t15.5 1t10.5 1.5q1 0 8.5 -1t16 -1.5t15.5 -1l7 -0.5q8 0 16.5 1t17.5 1t18.5 1t23.5 1q4 0 6.5 0.5t5.5 0.5h15h22
q33 0 66.5 -8t61.5 -25t45.5 -44t17.5 -64q0 -31 -11 -57.5t-28.5 -49.5t-40 -43t-45.5 -38q-15 -11 -43.5 -30.5t-58 -40t-55 -38.5t-34.5 -27q-3 -4 -5.5 -5.5t-5 -3.5t-3.5 -7t-1 -16q0 -8 -2.5 -16t-2.5 -16q0 -11 1 -21.5t1 -16.5q-3 -32 -5 -65t-2 -67q0 -5 -4.5 -14
t-8.5 -14q-8 -5 -15 -6t-17 4zM168 315q0 -1 1 -1l9 7q20 17 27.5 22.5t10.5 5.5l24 19q29 21 60.5 49t58 59t44 62t17.5 57t-17.5 43.5t-43.5 22.5l-26 5q-11 0 -17.5 0.5t-12 0.5h-11h-14.5q-2 0 -18 -0.5t-34.5 -1.5t-33.5 -2.5t-13 -2.5t3 -10t2 -22.5t1 -29v-28.5
q0 -22 -2 -53.5t-4.5 -64.5t-5 -63.5t-3.5 -50.5q0 -6 -1 -12.5t-1 -10.5z" />
    <glyph glyph-name="Q" unicode="Q" horiz-adv-x="672" 
d="M696 11q0 -9 -16 -15.5t-46 -7.5q-21 -1 -39.5 6t-35 18t-31.5 24.5t-29 25.5q-4 2 -7 4.5t-6 3.5q-5 0 -5.5 -0.5t-2.5 -3.5q-13 -15 -33 -31t-43.5 -30t-47.5 -23t-45 -9q-7 0 -12 1.5t-12 1.5q-8 4 -12.5 5.5t-6.5 3.5q-47 37 -86.5 84t-59.5 102l-13 36l-6 24
q-2 4 -3.5 9.5t-2 11t-1.5 9t-3 3.5h-1q-18 -3 -23.5 -4t-9.5 -1h-13q-5 0 -12 1t-12 6q0 9 8 12.5t17.5 5t19.5 3t15 5.5q10 8 10 18q0 20 -1 42.5t-1 45.5q0 47 7 103.5t27 105t56 81t95 32.5q2 0 5.5 0.5t20.5 4.5q-4 0 7.5 1t21.5 8q0 -1 12.5 -0.5t29 0.5t33 -1.5
t25.5 -4.5q-1 1 4 -0.5t12.5 -5.5t16 -11t15.5 -16h1q3 0 11.5 -10t19 -23t19 -25.5t11.5 -16.5q27 -56 36 -115t9 -125q0 -28 -2.5 -58.5t-9 -61.5t-18 -60.5t-28.5 -54.5q-1 -1 -4.5 -6.5t-7.5 -12.5t-7 -13.5t-3 -8.5q26 -26 67 -46t101 -20q1 0 1.5 1t2.5 1
q1 0 1.5 -0.5t1.5 -0.5h11q6 0 5.5 -5.5t1.5 -10.5v-12zM511 218q5 23 11 45t10 44.5t6 45.5t0 48q0 18 -3 39.5t-3 60.5q-4 25 -13.5 45.5t-23 39t-29.5 35t-32 33.5q-25 14 -47 24t-53 10q-3 0 -6 -0.5t-7 -1.5q-8 0 -15.5 -6t-16.5 -29q-8 -19 -20.5 -59.5t-25.5 -90.5
t-22 -103.5t-9 -98.5v-10q-1 -1 -1 -4q0 -11 26.5 -27t64.5 -35.5t81.5 -42.5t77.5 -49q0 -1 2 -1h1q-3 0 1 3t11.5 12.5t16.5 27t18 45.5zM438 89l2 4q0 5 -16.5 14t-28.5 16l-12 7l-19 10q-6 3 -18 10.5t-26.5 17t-28.5 18t-24 12.5q-12 7 -20 13.5t-12 6.5l-15 12
q-2 0 -4 1q0 -2 -1 -3q-1 -5 -1.5 -9t-0.5 -8q0 -6 3 -23.5t8.5 -41t13.5 -49t18 -46.5t21.5 -35t25.5 -14h6t6 1q11 4 23 9t32 16q24 12 40 28t28 33z" />
    <glyph glyph-name="R" unicode="R" horiz-adv-x="480" 
d="M185 -33q-15 13 -24 42.5t-14.5 64t-7.5 68.5t-2 56q0 66 -8.5 132.5t-8.5 132.5q0 44 4.5 85.5t12.5 84.5q0 11 1 15q0 4 -2 4h-4q-6 0 -17 -2t-23 -4.5t-22.5 -4t-14.5 0.5q-5 2 -10 6.5t-5 8.5t3.5 6.5t5.5 2.5q5 0 5.5 -1.5t3.5 -1.5t14 2.5t23.5 6.5t23.5 8t14 6
q27 9 63.5 17.5t65.5 14.5q17 3 35.5 5t35.5 2q30 0 58.5 -7t50.5 -22.5t35 -41.5t13 -64t-15.5 -71t-40 -64t-54.5 -60t-59 -58q-9 -6 -11.5 -11.5t-4.5 -5.5q6 -47 26.5 -101t40.5 -99q8 -21 19 -29.5t21.5 -13t17.5 -7t7 -11.5q0 -6 -14 -8.5t-34 5.5q-26 10 -45 25.5
t-32.5 36.5t-23 48t-17.5 60q-5 15 -6 28t-12 27q-15 -2 -24.5 -19t-9.5 -32q0 -44 -5.5 -87.5t-5.5 -86.5q0 -17 -4 -33.5t-4 -33.5q0 -2 -1 -7t-2 -8zM226 676q5 -14 5.5 -51t-0.5 -80.5t-2.5 -85t-0.5 -65.5q0 -11 -0.5 -18.5t-0.5 -18.5q0 -6 -4 -16.5t-4 -12.5
q0 -3 -1 -8.5t7 -10.5q21 18 47 47.5t50 60.5t42.5 59t25.5 43q15 23 26.5 54.5t11.5 59.5q0 33 -21 46.5t-55 13.5q-8 0 -16.5 -0.5t-18.5 -0.5q-29 0 -44 -1.5t-23.5 -3.5t-12.5 -5t-11 -6z" />
    <glyph glyph-name="S" unicode="S" horiz-adv-x="470" 
d="M397 710q30 -14 49 -41t19 -63q0 -3 -3.5 -17.5t-9.5 -30t-13 -28.5t-13 -13q-5 0 -14 3.5t-11 8.5t-3.5 9t-3.5 9q-1 22 -6.5 46t-17.5 43.5t-31.5 32t-48.5 12.5q-47 0 -73 -30.5t-34 -72.5t-0.5 -86.5t28.5 -72.5q20 -28 44.5 -50t51.5 -45q12 -10 25.5 -19.5
t27.5 -21.5t28.5 -29.5t30.5 -44.5q15 -26 20.5 -53.5t2 -53.5t-17 -48.5t-35.5 -36.5q-15 -10 -32 -17.5t-32.5 -12.5t-28.5 -7.5t-22 -2.5q-27 0 -49.5 3t-42.5 10t-39 18t-41 28q-6 5 -9 9.5t-8 12.5l-9 9q-3 3 2.5 2.5t7.5 -0.5q5 0 7.5 2t7.5 2q3 0 6 2t6 2q12 0 26 -9
t30.5 -19.5t37.5 -19t48 -8.5q19 0 38 5t33 17t23 31t9 46q0 25 -13.5 48.5t-30.5 40.5q-31 31 -61 54t-56 43.5t-47.5 42t-35.5 50t-19 65.5t1 90q3 16 10.5 37.5t20 43t30 39.5t40.5 27q46 20 97 23.5t103 -14.5z" />
    <glyph glyph-name="T" unicode="T" horiz-adv-x="565" 
d="M313 61q-14 107 -24 198.5t-13 176.5q-4 45 -2.5 89t1.5 93q0 2 -10 2.5t-15 1.5q-56 6 -103.5 4t-80.5 2t-48 19.5t-6 55.5q0 4 -1 4q2 0 9.5 -6.5t15.5 -8.5q16 0 31 1.5t29 3.5q71 6 142 2.5t148 4.5q21 3 52.5 4.5t61.5 0.5t51 -4.5t20 -11.5q-1 -11 6.5 -23.5
t7.5 -26.5q0 -5 -9.5 -10t-11.5 -5q-17 0 -38 -1t-42.5 -2t-41.5 -2t-34 -1q-7 0 -14 -1.5t-18 -1.5q-10 0 -10 -8q0 -35 3.5 -71.5t3.5 -76.5q0 -24 0.5 -66t0.5 -91t1 -100t1 -93.5t0.5 -72t0.5 -34.5q0 -14 -9 -20t-19.5 -6t-19 3.5t-8.5 8.5q0 11 -2 27t-6 42z" />
    <glyph glyph-name="U" unicode="U" horiz-adv-x="528" 
d="M511 0q9 -14 5 -21t-13.5 -10t-21.5 -3t-18 2q-21 4 -36 31t-24.5 60t-15 65.5t-7.5 49.5q-1 -18 -9 -38.5t-18.5 -41t-23 -39t-22.5 -33.5q-31 -33 -61.5 -41t-57 4.5t-47.5 43.5t-33 76q-3 10 -4.5 19.5t-3.5 20.5q-6 38 -8 78.5t-2 82.5q0 23 0.5 48.5t2 62t3.5 90
t5 131.5v6q0 6 -7 8t-9 4l-7 3q-2 0 -6.5 5t4.5 13t26 9.5t25 1.5q29 0 44.5 -10t23 -27t8.5 -41t1 -51q0 -20 -0.5 -35.5t-1.5 -20.5q2 -12 -0.5 -39.5t-6 -67t-6.5 -90t-2 -109.5q0 -15 3 -42.5t9.5 -54.5t16 -47t23.5 -20q21 0 38 16t31 41.5t25 56t19.5 59.5t14 52.5
t8.5 34.5v38q4 74 9.5 140t14.5 141q0 7 2.5 19l5 24t3.5 22.5t-1 15.5q-2 7 -8 7l-4 4q0 2 -1 3.5t-1 3.5t2 2q3 0 10.5 6t22.5 6q4 0 6.5 -1t7.5 -1q14 0 29 -10t15 -24v-3t1 -16t3.5 -40t6.5 -76q0 -40 -4.5 -75.5t-9.5 -70.5t-9.5 -70t-4.5 -74q0 -10 0.5 -20t0.5 -20
q0 -36 -1 -63t1 -51.5t10.5 -50t28.5 -59.5z" />
    <glyph glyph-name="V" unicode="V" horiz-adv-x="572" 
d="M591 765q0 -2 0.5 -4t0.5 -4t-2 -6v-3v-2q0 -5 -0.5 -10.5t-0.5 -8.5q0 5 -8 -16.5t-36 -71.5q-5 -7 -21.5 -46.5t-38.5 -96t-46.5 -124t-46.5 -132t-38.5 -119t-21.5 -84.5q-1 -7 -7 -17.5t-6 -15.5q0 -7 -6 -17t-11 -10q-15 0 -19.5 1t-6 5t-3 12t-9.5 22l-10 23
q-1 2 -2 5l-4.5 13.5t-9.5 31t-16 57.5l-6 18l-6 20q0 2 -2.5 9.5t-10.5 31t-24 68.5t-44 122q-2 4 -7.5 22.5t-12 44t-13.5 54t-14 52.5t-13.5 40t-10.5 16h-4.5t-2.5 -1q-1 1 -1 3q3 14 12 17l21 7q11 6 25.5 6.5t29.5 0.5q5 0 11 -4v-3q1 -1 2 -1v-1v-3l4 -11l6 -10
q12 -25 21 -50t22 -53q10 -22 19 -45t15 -47l4 -17.5t11 -46t15.5 -63.5t16.5 -70t15 -66t12 -51q1 -3 8 17.5t16 50t17.5 61.5t12.5 53q3 25 15.5 59.5t32.5 82.5t48.5 110.5t64.5 142.5q3 4 6 7.5t5 8.5q9 12 11 14t3 2l7 9l14 16q1 2 2 1.5l2 -1t2.5 -0.5t4.5 3
q2 -6 2 -7v-3q6 2 5 2zM572 761q4 8 -2 2zM545 722q1 4 4 7q-7 0 -7 -7h3z" />
    <glyph glyph-name="W" unicode="W" horiz-adv-x="796" 
d="M643 249q-20 -61 -31.5 -101t-18.5 -65.5t-10.5 -39.5t-7.5 -24q0 -4 -1.5 -8t-1.5 -9q0 -2 0.5 -5t0.5 -5t-6 -3.5t-13.5 -3.5t-14.5 -3t-9 -1q-11 0 -24 5q-3 1 -6 6t-12 26t-26.5 64.5t-48.5 123.5v11q0 2 -0.5 2.5t-0.5 2.5l-4 -10q-3 -6 -9.5 -20t-16 -40.5
t-21.5 -66.5t-24 -97l-3 -12q-1 -1 -2 -1h-2l-12 -2q-2 -1 -6 -0.5t-6 -0.5h-25l-11 7q-1 -1 -2 -1q-2 0 -3 1.5t-3 2.5l-4 3q-5 3 -10 8t-8 7l-10 13l-8 15q-2 12 -6 25.5t-9 25.5q-8 26 -17.5 51t-17.5 51q-21 54 -31 111.5t-18 115.5t-18 115t-32 111v2q0 9 -1 18.5
t-3 11.5l-3 12q-1 3 -5 3h-4q-2 4 -2 5q0 5 4.5 10.5t6.5 6.5l25 9q7 0 9 3h1q3 0 6.5 1.5t5.5 3.5q6 3 16.5 -15.5t24 -51.5t29.5 -77.5t32 -94t32 -101.5t30 -99.5t24.5 -88t16.5 -67.5q0 3 1.5 7.5t1.5 7.5l3 12q2 5 4.5 14.5t6 20.5t7 22.5t6.5 20.5l47 132q3 10 3 18
q0 2 -0.5 6t-0.5 6v3q0 1 -2 3q1 1 1 2q0 13 11 20t23.5 10t23.5 3t11 -3v-5q0 -3 1.5 -7.5l2.5 -7.5l3 -5q2 -3 2 -7q-3 -14 7.5 -49.5t25.5 -78.5t28.5 -86t15.5 -72q0 5 1 8l-1 1l1 1q1 1 2.5 5.5t2.5 9.5t2 8t1 1v5q47 133 82.5 227t61.5 157.5t43 101t28 57.5
q5 9 13.5 20.5t10.5 19.5l4 15q1 1 1 2t2 1q1 0 5 -2t4 -5v-1q0 -3 0.5 -6.5t0.5 -7.5q0 -10 -2.5 -16t-5.5 -12.5t-6 -16.5t-5 -27v-2q0 -10 -8 -21.5t-8 -19.5l-1 -3.5t-5 -15.5t-12.5 -35.5t-24 -64t-39 -101t-56.5 -146.5z" />
    <glyph glyph-name="X" unicode="X" 
d="M443 14q-2 4 -6 7t-6 5q-6 5 -14.5 16.5t-17.5 24.5t-17.5 25.5t-14.5 21.5l-81 134l-3 4l-6 8q-5 0 -5 -1t0.5 -3t-1 -6.5t-8.5 -11.5l-2 -3q-2 -1 -4 -5l-6 -10q-10 -11 -22 -36.5t-26.5 -57t-30 -65t-31 -61t-30.5 -45t-29 -16.5q-6 0 -15 3t-9 5q-1 4 7 5t12 10
q37 81 78 161.5t92 157.5l3 5l7 11l3 3q0 -1 -3 3.5t-6 10.5l-5 10l-6 17l-1 2t-4 10.5t-9.5 27t-18 51.5t-29 83.5t-42.5 123.5l-8 20q-1 3 -7.5 3t-14 -2t-13.5 -4t-6 -3q-1 -2 -8 -5t-15.5 -5t-16 -1t-7.5 9q0 2 7 8.5t10 10.5q13 20 24.5 27t22.5 11q23 12 51 10.5
t54 -28.5q3 -3 9 -17.5t13.5 -36.5t15.5 -48.5t16 -54.5q5 -20 12.5 -42.5t17.5 -42.5q2 -5 6 -12.5t4 -14.5q-3 -6 -3 -15q1 -3 3 -5q4 -4 6 -4t8 9.5t13 21.5t12.5 23t7.5 14q11 23 14 30t7 13q29 51 42.5 82t23 52.5t21.5 40t39 45.5q8 8 20.5 6.5t12.5 -17.5
q0 -3 -0.5 -6.5t-0.5 -5.5q-4 -15 -6.5 -31t-7.5 -35q0 -1 -2.5 -8.5t-6.5 -15t-8.5 -11.5t-7.5 2l-2 23q0 14 -5 10t-14 -19.5t-21 -38.5t-25 -46q-12 -19 -25 -40.5t-25 -43.5t-21.5 -44t-13.5 -41l-9 -19q-1 -1 -1 -3q0 -3 2 -7q1 -7 2.5 -11.5t1.5 -17.5q3 -6 7 -13.5
t4 -12.5v-2q0 -1 0.5 -1t0.5 -1q4 -7 5 -9.5t1 -5.5q0 -2 -3 -6t-1 -5q2 -4 4 -6l54 -100q25 -36 44.5 -71.5t43.5 -60.5q0 -2 2.5 -3t2.5 -3q-2 -1 -2 -3q0 -1 1 -2.5t1 -3.5q0 -5 -10 -5l-1 -1q-9 0 -15 3h-2q-2 0 -4 1t-11 8l-4 5q-2 2 -4.5 2t-4.5 2z" />
    <glyph glyph-name="Y" unicode="Y" horiz-adv-x="493" 
d="M195 43q-2 23 -2.5 36t-0.5 20v9v4v22.5t-0.5 27t-0.5 35.5v48q0 8 0.5 20t1.5 34v14q0 10 -2.5 18.5t-2.5 19.5q0 1 -3 6.5t-6.5 12.5t-7.5 14t-6 12q-8 15 -14.5 31.5t-13 36.5t-14.5 44t-17 56q0 2 -5.5 14t-7.5 19l-14 43q-9 19 -13.5 30.5t-16.5 17.5q-9 0 -9 5
q21 15 47 15h2t7 -3t14 -10t24 -21q9 -9 18 -22.5t17 -28.5t14.5 -30t10.5 -27q12 -35 15 -45.5t5 -13.5q10 -17 21.5 -34.5t11.5 -34.5q0 -6 3 -15.5t6 -9.5t3 4l25 48q1 7 6.5 16.5t12 19l13 19t10.5 15.5q7 11 12.5 19t12 18.5t17 26.5t28.5 43l61 74l23 20q6 8 15 8
q7 -2 10 -9t3 -12q0 -9 -6 -22t-14 -25.5t-15.5 -23.5t-10.5 -17q-17 -30 -34.5 -65t-36 -71.5t-38 -73.5t-41.5 -71q-11 -17 -16.5 -35t-18.5 -35q-6 -5 -6 -14q0 -12 2.5 -24t2.5 -26q0 -46 1 -91t3 -92v-9t1 -8q0 -16 -7.5 -26t-19.5 -10q-30 0 -43 19.5t-16 39.5z" />
    <glyph glyph-name="Z" unicode="Z" horiz-adv-x="610" 
d="M124 -8q-47 -16 -71 -2t-5 67q27 51 55 97t58.5 91t63.5 90.5t69 93.5q26 35 51 71t49 71q4 5 10 12t24 27q2 4 5.5 6.5t4.5 5.5q-8 6 -22 2.5t-25 -3.5q-15 0 -49 0.5t-71.5 3.5t-72.5 8.5t-52 15.5q-8 4 -20.5 11t-12.5 20q0 1 -1 5l-2 8t-0.5 7t2.5 3q56 0 113.5 -4.5
t115.5 -6.5t115 0.5t113 16.5q19 0 27 -7t10 -16t1 -17.5t-1 -11.5q0 -2 1.5 -3.5t-1.5 -2.5q-8 -4 -20.5 -10t-12.5 -7q-22 -45 -66 -101t-96 -116t-105 -120t-93 -112q-8 -12 -19.5 -28.5t-24 -34.5t-26.5 -36.5t-26 -33.5q-8 -9 -12 -19t-4 -8h3t13 2q13 6 19.5 8.5
t10.5 3.5t6.5 1.5t7.5 3.5q35 12 80 21t91.5 15t92 9t81.5 3q14 0 26 -3t22 -12q0 -2 -5 -3t-7 -4q-42 -11 -96 -20t-110 -17.5t-111.5 -18.5t-100.5 -22z" />
    <glyph glyph-name="bracketleft" unicode="[" horiz-adv-x="340" 
d="M153 -127q-33 0 -53.5 15t-31 38t-14 49.5t-3.5 49.5v12.5t0.5 25.5t1.5 51.5t3 91.5q2 69 3.5 137t7.5 138l5 130q1 13 1 28.5t1.5 30.5t6.5 28t15 21q9 10 12 13.5t5 3.5q7 0 15.5 -2t14.5 -2q19 0 56.5 2t72.5 2q15 0 33 -1t58 -3q2 0 3.5 -1t3.5 -1l-12 -19
q-6 -8 -23.5 -12t-39.5 -5.5t-47 -2.5t-45 -2t-33.5 -3.5t-13.5 -8.5q0 -12 2 -24.5t1 -23.5l-9 -541q-3 -20 -5 -31.5t-3 -18.5t-1.5 -10t-0.5 -6q0 -4 0.5 -9t0.5 -11q0 -14 -3 -28t-3 -29q0 -7 1 -16t9 -9q7 -1 19.5 -2t27.5 -1.5t31 -0.5h31q18 0 30.5 1t23.5 1.5
t21 1.5t22 1q5 0 8.5 -3t3.5 -6q0 -12 -12 -20t-27 -13.5t-28 -8t-15 -2.5l-128 5v0z" />
    <glyph glyph-name="backslash" unicode="\" horiz-adv-x="384" 
d="M-3 680q14 21 28 32t37 11q10 0 26.5 -22t35 -52.5t36 -64t29.5 -56.5q20 -36 34.5 -74t24.5 -79q10 -44 26.5 -88.5t33.5 -87t33 -82t26 -72.5l16 -48q1 -1 1 -3q0 -9 -6 -9q-15 0 -33.5 23t-36 52.5t-31 57.5t-18.5 37q-31 63 -50 100.5t-29 57t-14 26t-5 8.5
q-12 24 -30 55.5t-36 63.5t-33.5 61t-23.5 49q-6 15 -13 30t-14 27.5t-11.5 21t-4.5 11.5q0 9 2 14z" />
    <glyph glyph-name="bracketright" unicode="]" horiz-adv-x="355" 
d="M237 -57q0 22 -4 45.5t-6 45.5q-3 29 -5 57t-3 57q0 10 0.5 18.5t0.5 18.5q0 11 -0.5 21.5t-0.5 21.5q0 32 3 64t3 64q0 40 -2.5 80.5t-2.5 84.5q0 48 7.5 97.5t5.5 96.5q0 4 -11.5 6t-27 3t-30.5 1h-22q-52 -5 -101 -15q-3 0 -6 -2t-5 -2q-11 2 -24 12t-13 20q0 7 9 7
q4 -1 9 -1q20 0 45 10t52 14q10 2 38 3t56 1q56 0 87.5 -10t31.5 -25q0 -6 -2 -17.5t-4 -20.5v-2q-1 -6 -1.5 -11.5t-0.5 -10.5q0 -14 1 -26.5t1 -25.5v-35l10 -133q2 -30 4.5 -61t2.5 -62l2 -52q0 -30 -0.5 -63t-6.5 -62q-1 -3 -1.5 -5.5t-0.5 -6.5q1 -16 1 -31v-30
q0 -28 -1.5 -54.5t-2.5 -54.5q0 -9 0.5 -18.5t0.5 -19.5q0 -25 -7.5 -39t-20 -20.5t-28 -8t-30.5 -1.5q-5 0 -12 2t-12 2h-29.5t-53 -0.5t-52.5 -0.5h-29q-8 0 -16.5 1t-18.5 1q-3 0 -8.5 4t-11.5 9t-10 10.5t-4 7.5t5.5 3.5t13.5 2.5l16 2t13 2q5 0 8.5 -1.5t8.5 -1.5
q7 0 33 0.5t56 1t56 1t32 0.5q5 0 9.5 -1t9.5 -1z" />
    <glyph glyph-name="asciicircum" unicode="^" horiz-adv-x="409" 
d="M205 691q3 0 16 -19t30 -47.5t36 -63.5t35 -66.5t26.5 -56.5t10.5 -34q0 -27 -16 -36t-36 16q-8 10 -24 38t-33.5 59.5t-33 61t-21.5 42.5q-2 5 -5.5 8t-7.5 5q-1 0 -7.5 -13t-14.5 -30t-17 -33.5t-15 -24.5l-34.5 -57.5t-21.5 -36t-12.5 -19t-5.5 -5.5q-2 0 -3 3t-1 6
q0 22 4 38.5t10 30t13.5 26.5t14.5 28q9 11 24 40.5t31.5 60.5t32 55t25.5 24z" />
    <glyph glyph-name="underscore" unicode="_" horiz-adv-x="589" 
d="M331 -148q45 -1 67 0t39 1q14 0 42 -0.5t56.5 -4.5t49.5 -13t21 -26q0 -5 1.5 -9.5t1.5 -9.5q0 -6 -22.5 -9.5t-51 -5t-56 -1.5h-37.5q-4 1 -35.5 2.5t-77.5 2.5t-98.5 2t-98.5 1q-9 0 -23 1.5t-26.5 4t-22 6t-9.5 7.5q-1 10 17 18t46 13.5t61.5 9t65 5.5t56 3t34.5 2z
" />
    <glyph glyph-name="grave" unicode="`" horiz-adv-x="249" 
d="M471 681q5 2 10.5 3t10.5 1q9 0 28 -19t39 -43t35 -47t15 -31t-4.5 -21.5t-11.5 -13.5q-14 0 -32.5 24.5t-55.5 63.5q-17 23 -26 36t-13 20t-5 9t-1 4q0 11 11 14z" />
    <glyph glyph-name="a" unicode="a" horiz-adv-x="450" 
d="M331 65q-20 -36 -48 -56.5t-59.5 -27t-62.5 0.5t-55.5 26t-40 49t-15.5 71q0 7 1 15t5 27q13 41 42 63t65.5 29.5t77 2t76.5 -20.5q1 0 1 -0.5t1 -0.5q2 0 4 5q1 11 1.5 21.5t0.5 27.5v9t0.5 14t0.5 23v37v24t-2.5 27t-7.5 22t-15 9q-6 0 -12.5 0.5t-13.5 0.5
q-19 0 -42.5 -6t-46.5 -16.5t-43 -25t-32 -31.5q-9 -10 -25 -14q-8 -2 -10 -2q-5 0 -12 3t-7 5q0 14 14.5 31.5t35 34.5t42.5 31t36 20l19 7q31 8 60.5 7t63.5 -9q27 -14 50 -33q14 -9 23 -23.5t14.5 -32t7.5 -36t2 -34.5q0 -3 -1 -21t-1.5 -38.5t-1.5 -37t-1 -17.5
q0 -50 -5.5 -105.5t-4.5 -106.5q0 -8 -12 -12.5t-27 -5.5t-27 1.5t-12 9.5zM325 104q1 6 1 9.5v5.5v66q0 4 -9 11.5t-21 14.5t-24.5 12t-18.5 5q-20 0 -38.5 -4.5t-38.5 -11.5q-11 -4 -18.5 -9.5t-21.5 -10.5q-20 -7 -28 -26.5t-6 -42.5t13 -45t30 -34t45.5 -10t59.5 27
l24 17q14 9 25.5 13.5t25.5 12.5z" />
    <glyph glyph-name="b" unicode="b" horiz-adv-x="471" 
d="M214 526q0 -22 -7.5 -59t-10.5 -72q0 -6 3 -6q2 0 8 6t13 13.5t12 13.5t6 7q25 32 54.5 46t53.5 17.5t38.5 1.5t10.5 -2q12 0 21.5 -6.5t16 -16t11 -21t7.5 -21.5t4 -20t1 -21q0 -27 -8.5 -61t-23 -70t-33.5 -73t-40 -70.5t-42 -62.5t-40 -48q-1 -2 -7 -7.5t-8 -5.5
q-4 -1 -6 -1q-4 0 -8.5 2.5t-9.5 10.5q-1 4 -2.5 11t-1.5 18l6 14q32 45 61 93.5t52.5 95t38.5 88.5t20 75q5 15 1 29t-14.5 23t-26.5 11.5t-34 -5.5q-19 -5 -33.5 -14.5t-24 -18.5t-14 -15.5t-3.5 -5.5q-16 -27 -27 -41.5t-18 -22t-10.5 -12t-3.5 -11.5v-382q0 -3 -0.5 -6
t-0.5 -6q0 -15 -10.5 -16.5t-23.5 4.5t-24.5 16.5t-14.5 21.5q-3 22 -5 37.5t-4 26t-3 18t-1 13.5q-2 18 -5.5 39t-3.5 59q-3 42 -4 82t-1 82q0 73 4 145.5t14 146.5q3 20 5.5 35t2.5 27q0 15 2.5 26t2.5 22q0 9 11 13.5t25.5 5.5t28.5 0t20 -2l7 -10q3 -1 3.5 -3t0.5 -4
q0 -4 -1.5 -7.5t-1.5 -6.5q-3 -24 -4 -44.5t-1.5 -39.5t0 -38t0.5 -41z" />
    <glyph glyph-name="c" unicode="c" horiz-adv-x="464" 
d="M438 70q-3 -24 -22.5 -40.5t-45 -26.5t-53 -14.5t-47.5 -4.5q-37 0 -69.5 14.5t-57 38.5t-40 55.5t-18.5 65.5q-2 19 -3.5 41t-1.5 45q0 45 13.5 94t40.5 89t67.5 65.5t93.5 23.5q16 0 38 -4t42 -14.5t35 -28t18 -44.5q0 -14 -6.5 -27.5t-25.5 -13.5q-10 0 -15 13
t-13.5 28.5t-25.5 28.5t-50 13q-8 0 -8 -6q5 -2 4.5 -7t-2.5 -10q-2 -4 -9.5 -22.5t-16 -39.5t-16 -40t-10.5 -24q-8 -18 -16 -46t-12.5 -59t-5 -63t6.5 -57t22.5 -41t42.5 -16q12 0 25.5 2.5t25.5 6t20 6t10 2.5q10 1 20 7.5t19 14t16.5 13.5t12.5 6q3 0 10 -4t7 -9
t0.5 -5.5t-0.5 -5.5z" />
    <glyph glyph-name="d" unicode="d" horiz-adv-x="493" 
d="M381 -35q-11 9 -18.5 28.5t-13 41.5t-8.5 40.5t-6 26.5q-1 3 -1 5h-6q-1 0 -8 -9t-15.5 -19.5t-16 -19.5t-8.5 -10q-18 -20 -40.5 -39t-48.5 -27q-10 0 -14 -0.5t-8 -0.5q-19 0 -37.5 7t-33 20t-23.5 31t-9 39q0 7 -0.5 15t-0.5 25q0 29 5.5 69t15.5 82.5t24 84t32 74
t38.5 52.5t44.5 20q7 0 19 -2t23.5 -5t19.5 -7.5t8 -9.5q0 -1 -11 -8.5t-25.5 -17.5t-28 -20t-17.5 -16q-18 -22 -32.5 -55t-25 -70.5t-17 -76t-9 -71.5t0 -57.5t10.5 -34.5q12 -16 29 -16q18 0 27 5t23 13l26 11l22 22t25 27.5t20.5 28.5t8.5 26q0 11 1.5 17.5t1.5 14.5
v8.5v17t-0.5 31.5t-1.5 53q0 30 -3 62t-3 61q0 48 14 102.5t25 108.5l10 32q1 3 5 10t8 14.5t8 13.5t7 6h2q9 0 17.5 -4t20.5 -4q11 0 13 -12t4 -20v-1q-2 0 0.5 -3t2.5 -5q0 -9 -0.5 -21t-0.5 -23q-2 -59 -5 -104t-5 -77.5t-3.5 -54.5t-1.5 -36q0 -15 1 -44.5t3 -66
t4.5 -76t5 -75.5t4.5 -63.5t3 -40.5q0 -15 -13 -22.5t-41 -11.5q-4 0 -9.5 3t-13.5 8z" />
    <glyph glyph-name="e" unicode="e" horiz-adv-x="468" 
d="M466 127q2 -4 2 -8q0 -13 -15 -28.5t-36 -30.5t-43 -27t-35 -18q-11 -5 -21 -9.5t-23 -9.5q-28 -8 -59.5 -11.5t-61.5 5.5q-16 9 -27 16.5t-19.5 16t-16 19.5t-16.5 27q-14 23 -19.5 48t-5.5 52q0 19 2 38t5 38t7.5 53.5t11.5 70.5t17.5 68.5t25.5 47.5q0 -1 1.5 2
t5.5 6.5t10.5 6.5t15.5 3q4 0 7.5 -2t7.5 -2q10 0 20.5 6t18.5 6q7 0 13 -1.5t14 -1.5q14 0 29 2.5t31 2.5q26 0 46 -6.5t45 -23.5q33 -22 33 -74q0 -49 -13 -79t-34.5 -49t-49 -31t-56 -24t-57 -28.5t-50.5 -44.5q-6 -8 -8 -18t-2 -21q0 -47 13 -65t24 -18q14 0 27.5 1.5
t27.5 5.5q26 9 60 22.5t79 45.5q15 8 25 16t24 16q11 0 19 -11zM193 316q0 -17 -3.5 -33.5t-5.5 -34.5q21 13 40.5 20.5t38.5 15.5t36.5 19t34.5 31l15 24q5 16 9.5 29t4.5 32t-5 29.5t-14 15t-22.5 5t-30.5 0.5q-5 0 -10.5 -1t-13.5 -1q-5 0 -12.5 -3t-11.5 -12
q-5 -12 -13.5 -28t-16.5 -33.5t-14 -36.5t-6 -38z" />
    <glyph glyph-name="f" unicode="f" horiz-adv-x="379" 
d="M368 569q1 -5 1 -11q0 -5 -3 -14t-9 -9q-1 0 -3.5 1.5t-4.5 1.5q-11 3 -22.5 29.5t-22.5 63.5q0 2 -4.5 3t-5.5 -2l-6 -8q1 3 0 0t-2.5 -8.5t-3.5 -13t-4 -13.5q-8 -23 -15 -50t-13 -53t-9.5 -49.5t-3.5 -39.5q0 -8 -0.5 -15.5t-0.5 -16.5q0 -8 9 -8h48l8.5 -0.5
t18.5 -2.5t18.5 -6.5t8.5 -12.5q0 -5 -10 -9t-25 -8t-34.5 -8t-38.5 -8q-5 0 -6.5 -4.5t-1.5 -7.5q0 -4 0.5 -7.5t0.5 -7.5t-0.5 -9.5t-0.5 -11.5q0 -2 0.5 -4t0.5 -5q0 -8 -1.5 -17t-2.5 -17q1 -12 2 -21.5t1 -17.5q0 -19 -2 -34t-4.5 -31t-4.5 -35.5t-2 -48.5l0.5 -20
t1 -54.5t1.5 -80.5t1 -97q0 -3 2 -6t0 -5q-5 -7 -12 -7t-13 2t-9.5 4.5t-1.5 1.5l-7.5 5t-8.5 9.5t-7 19.5t-3 35l-16 154q0 27 -2 54.5t-2 53.5v47.5t-2 53.5q-1 6 -1 15v32q0 4 0.5 9t0.5 10q0 1 -1 3q-3 3 -4 3q-8 0 -17 -4.5t-18 -4.5q-3 0 -8 1.5t-19 1.5q-5 0 -14 4
t-9 10q1 -2 14 9.5t25 19.5l18 12l32 18q1 0 2 7.5t1.5 17.5t1 21t0.5 18q0 21 0.5 30.5t0.5 23.5q6 51 15.5 100t23.5 98l6 19q11 18 34.5 33t49.5 18.5t50.5 -7.5t38.5 -44v-6q0 -7 2 -16.5t2 -34.5q0 -11 -1.5 -20.5t2.5 -20.5z" />
    <glyph glyph-name="g" unicode="g" horiz-adv-x="458" 
d="M419 124q1 -45 1.5 -91.5t-3 -92.5t-13.5 -90.5t-31 -85.5q-22 -44 -58.5 -66.5t-74 -30.5t-69 -4t-44.5 13l-8.5 4t-18 11t-17.5 15.5t-8 18.5v3h1q3 0 13.5 -3.5t23 -8t24 -9t17.5 -5.5q50 -5 86 22.5t59 79.5t33.5 124t8.5 157q0 1 -0.5 1t-0.5 1v1q-1 0 -1.5 -1.5
t-3.5 -8.5q-11 -22 -28 -44t-39 -37t-48 -20t-54 7q-20 9 -35 26.5t-26 38.5t-17.5 44.5t-8.5 44.5q-2 20 -3 39.5t-1 40.5q0 30 0.5 58t5 55.5t14.5 55.5t28 57q6 10 19 24t28.5 26.5t31 21t27.5 8.5q33 -1 63 -15.5t38 -48.5q7 -23 10.5 -30t3.5 -9q0 -3 2.5 -6.5t3.5 -7
t-1.5 -5.5t-12.5 -2q-14 0 -24 14.5t-20.5 28t-23.5 18.5t-33 -15q-26 -22 -46 -53t-32 -70l-6 -31q0 -2 -3.5 -23.5t-6 -52.5t-2.5 -66t7 -63.5t23 -45.5t45 -11q5 1 18 15t29 35t33.5 46t31.5 48t23.5 40.5t9.5 24.5v242q0 7 -1 13.5t-1 14.5q0 10 0.5 12t18.5 2
q9 0 18 -2t18 -2q6 0 8 -30t2.5 -74.5t-0.5 -96t-2.5 -95.5t-2 -72.5t1.5 -26.5z" />
    <glyph glyph-name="h" unicode="h" horiz-adv-x="472" 
d="M320 182q-5 48 -5 94.5t1 90.5q-32 -22 -68.5 -36.5t-66.5 -35.5q-6 -6 -9.5 -8.5t-3.5 -4.5q0 -15 -4.5 -29.5t-4.5 -30.5q0 -3 -0.5 -9t-2 -22t-4.5 -43t-7 -72q0 -18 2 -37.5t2 -48.5q0 -6 -7 -9t-15.5 -2t-17 6t-11.5 15q-4 8 -6 21t-2 23v11.5t-1 33.5t-3 77.5
t-6 143.5q0 45 2.5 89.5t10.5 89.5q8 44 12.5 88.5t12.5 90.5q2 11 4 19t-3 18q14 3 25.5 4.5t27.5 0.5q17 -2 33.5 -14t18.5 -31q4 -26 -1 -59.5t-12.5 -71t-14.5 -78t-7 -81.5q0 -3 1.5 -2.5t2.5 0.5q41 19 71.5 40.5t59.5 44.5q10 7 18 8q14 3 33 -1t39 -12q4 -8 1 -24.5
t-8.5 -36t-11.5 -39.5t-8 -35q0 -2 -0.5 -14t-1 -28.5t-1 -34t-0.5 -31.5t-0.5 -21t0.5 -1q0 -12 3.5 -36.5t9 -51t12.5 -51t14 -36.5q6 -12 14.5 -17t15.5 -6.5t12.5 -2t5.5 -4.5q1 -4 -2.5 -7.5t-9 -6t-11 -4t-8.5 -1.5q-22 -1 -38.5 11t-29 32t-21.5 44.5t-15.5 49.5
t-10 46.5t-5.5 34.5z" />
    <glyph glyph-name="i" unicode="i" horiz-adv-x="271" 
d="M162 712q2 -5 2 -9t0 -3q0 -27 8.5 -34t35.5 19h4q1 -2 2.5 -3.5t1.5 -2.5q0 -11 -3 -27.5t-18 -21.5q-36 -2 -55 3.5t-36 34.5q-4 13 -6.5 24t-1.5 12q10 10 28 11q11 -3 16 0t7 3t6 -1.5t9 -4.5zM215 370l2.5 -12.5t0.5 -4.5v-32.5t0.5 -68t0.5 -83v-78.5v-54t0 -9
q0 -14 1 -20t1 -11q-2 -3 -4 -6.5t-8 -5.5q-6 0 -15.5 -0.5t-19 -0.5t-18 2t-11.5 6q-8 7 -9 17.5t-1 20.5v10t-0.5 19.5t-1 37.5t-2 65.5t-3.5 103.5t-5 150q0 11 3 23.5t5 23.5q0 4 1.5 7.5t1.5 10.5q0 3 -2 8.5t-2 7.5q0 1 6.5 3t16.5 3.5t21 2.5t19 1q7 0 10 -4.5
t4 -11.5t0.5 -14t-0.5 -13q0 -20 2.5 -41.5t5.5 -52.5z" />
    <glyph glyph-name="j" unicode="j" horiz-adv-x="299" 
d="M232 491q0 -20 1 -42.5t3 -51.5q-2 -13 -2 -20t0.5 -14.5t1.5 -18t1.5 -30t1 -50t-0.5 -78.5q0 -52 -4.5 -110t-17 -115t-36 -110t-60.5 -94q-26 -19 -57 -27t-54 -6q-9 5 -21.5 5.5t-12.5 5.5q0 4 5 7t11.5 4.5t12.5 3t9 3.5q18 9 32 17.5t27 19.5t25.5 26.5t27.5 37.5
q9 23 15 44.5t10 48.5q4 37 0 76t-10 79t-11 79.5t-3 78.5q1 31 2.5 66t2 68t1 61t0.5 45q0 5 -2 11.5t-2 8.5q0 5 16 5q5 0 12.5 0.5t34.5 0.5q11 0 18.5 -4t12.5 -10t7.5 -12t2.5 -9zM213 689q3 0 5 2t3 2t6 -3q2 -3 2 -6v-5q0 -18 -13.5 -24.5t-20.5 -6.5q-8 1 -17.5 3.5
t-20 8t-21.5 16.5t-20 30q-2 6 -5 11t-8 10h-2v1q0 2 1.5 3t3.5 3q-2 1 -3 3q-2 4 -2 5q0 3 5 6q9 2 18.5 1t20.5 -1t18.5 -6t9.5 -8q5 -7 6 -13t3 -11.5t6.5 -10.5t15.5 -9q3 -1 9 -1z" />
    <glyph glyph-name="k" unicode="k" horiz-adv-x="459" 
d="M85 505q0 47 -2.5 94t-2.5 95q0 8 7 12t16.5 6t19.5 2.5t16 0.5q2 0 10.5 -0.5t17.5 -2t16 -4t7 -6.5q0 -10 1.5 -20t1.5 -22q0 4 -0.5 -12t-0.5 -47.5t-0.5 -75.5t-0.5 -97q0 -4 1 -8t3 -4q12 18 22.5 31t22.5 22.5t28 16.5t39 12q42 10 63.5 -16t23.5 -77
q0 -28 -10.5 -53.5t-26.5 -49t-35.5 -45t-36.5 -41.5q-4 -4 -10 -5.5t-6 -8.5q0 -22 14 -43.5t28 -40.5q27 -37 49 -55t40 -24.5t30.5 -5t21.5 3.5t13 1t4 -13q0 -1 -0.5 -1.5t-2.5 -4.5q-14 -14 -33.5 -20t-40.5 -6t-42.5 6t-39.5 16q-30 17 -55 43t-41.5 56.5t-24 64.5
t-3.5 67q-2 0 -2 3q4 4 15.5 6.5t17.5 2.5q26 0 47 22.5t36 54t23 65.5t8 56q0 5 -2 11t-9 6q-17 0 -32.5 -9.5t-29 -23.5t-25 -30.5t-21.5 -30.5q-33 -66 -33 -147q0 -16 -3 -32q-5 -17 -4.5 -39t0.5 -39q0 -20 0.5 -40.5t0.5 -43.5q0 -5 -0.5 -14t-2 -19t-3.5 -18.5
t-5 -11.5q-2 -4 -12.5 -4.5t-15.5 6.5q-1 1 -1.5 4.5t-2 19.5l-4.5 48t-8 90.5t-13 147.5t-20 218z" />
    <glyph glyph-name="l" unicode="l" horiz-adv-x="255" 
d="M148 719q5 0 9.5 -1.5t13.5 -1.5q2 0 3.5 -5.5t2.5 -13t2 -14.5t1 -11q3 -27 2.5 -52.5t-1.5 -51t-1.5 -51t4.5 -52.5q7 -41 9 -88t0.5 -96t-5 -99t-7.5 -97q0 -5 2 -5q4 0 7 5t5 11t3.5 11.5t1.5 7.5t2 4t5 2q12 0 12 -11q1 -3 1 -6q0 -25 -4.5 -51t-22.5 -46
q-8 -13 -11 -17.5t-10 -6.5q-11 -2 -15 -1t-5 1q-19 0 -31 38.5t-18.5 97.5t-9 130t-3 135t0.5 113t1 65q0 34 2 67.5t5 68.5q0 1 -2 11q0 3 4.5 5t10.5 3.5t12.5 2t10.5 0.5t5.5 -1.5t3.5 -1.5t4 2z" />
    <glyph glyph-name="m" unicode="m" horiz-adv-x="718" 
d="M180 355l8 23q13 22 24 43t25 38.5t32.5 30.5t45.5 20q34 4 55.5 -8.5t33 -35t15.5 -50.5t4 -55q0 -8 -1 -15.5t-2 -21.5q0 -1 1 -1h2q5 0 13 13t15 23q16 25 27.5 41.5t22 31t23 30t31.5 39.5q7 7 17 9.5t21 2.5q19 0 36.5 -11t17.5 -23q0 -22 -3.5 -44t-3.5 -46
q0 -32 -8.5 -67t-8.5 -70q0 -4 0.5 -8t0.5 -8q0 -58 8 -110t17 -97q2 -11 12 -23t20 -12q15 0 29 6.5t28 6.5q3 0 6.5 -4.5t3.5 -7.5q0 -8 -8.5 -15.5t-19 -13.5t-21 -9.5t-14.5 -3.5q-33 0 -57.5 19t-42 48.5t-28.5 65.5t-17 71t-8.5 65t-2.5 47q0 20 1 40.5t1 40.5
q0 1 -2 5q-20 -20 -41.5 -45.5t-39.5 -54t-29.5 -59.5t-11.5 -62q0 -20 -4 -38.5t-4 -39.5v-63q0 -6 -10 -6q-2 0 -4.5 0.5t-13.5 3.5q-8 4 -16 17t-9 24l-4 48q0 12 1.5 25t1.5 32q0 60 5 119t7 119q0 6 -1.5 21.5t-4 31.5t-6 28t-6.5 12q-9 0 -17 -6t-15 -16t-13.5 -21.5
t-12.5 -22.5q-8 -12 -17 -27t-20 -35q-9 -28 -22 -58t-30 -78q-8 -33 -7.5 -67.5t0.5 -69.5q0 -16 4 -34.5t4 -46.5q0 -6 -6 -6t-18.5 1t-15.5 1q-18 1 -29.5 25.5t-18.5 62t-10.5 82.5t-5 87t-1.5 75v46q0 16 -0.5 30.5t-0.5 30.5q0 6 0.5 11.5t0.5 11.5q0 5 -1.5 9.5
t-1.5 9.5q0 13 9 21t17 13l14 5q11 -1 17.5 -7.5t15.5 -6.5q6 -2 9 -14t4 -26.5t1 -28v-19.5q2 -16 1.5 -23t-0.5 -12q0 -3 1 -5.5t2 -4.5h4z" />
    <glyph glyph-name="n" unicode="n" horiz-adv-x="454" 
d="M308 473q-18 -16 -34 -32.5t-30 -37.5t-26 -47.5t-22 -61.5q-9 -32 -16 -54.5t-12 -43t-7.5 -42t-2.5 -50.5q0 -22 -4 -44.5t-4 -45.5q0 -8 0.5 -16t0.5 -17q0 -5 -9 -9t-14 -4q-14 0 -21 4.5t-11 11t-4.5 14.5t-0.5 15q1 9 1 17v16v109q0 15 -0.5 27t-0.5 25.5
t-0.5 31.5t-0.5 46q0 35 5 69t0 74q0 3 -1.5 10t1 14.5t10 13.5t25.5 6q13 0 19.5 -9.5t9 -22t2 -26.5t-0.5 -23q0 -5 2 -9.5t2 -9.5l4 3q2 21 18 45.5t39.5 45.5t49.5 35t49 14q14 0 27 -2t27 -5q21 -11 33 -23.5t17.5 -28.5t6 -37t-1.5 -50q-5 -63 -13.5 -127t-8.5 -131
q0 -14 1.5 -34.5t1.5 -37.5q0 -8 2.5 -18.5t-2.5 -15.5q-8 -14 -20 -14t-20 -2q-6 0 -12.5 12.5t-12.5 33t-9.5 47t-3.5 55.5q0 19 1.5 43.5t4 49.5t4 49t1.5 44q0 3 0.5 16t1 30t1 36.5t-0.5 35.5t-3 26.5t-6 10.5h-15t-17 -5z" />
    <glyph glyph-name="o" unicode="o" horiz-adv-x="467" 
d="M447 330q0 -39 -4.5 -80.5t-15.5 -82t-31 -78t-51 -68.5q-11 -12 -31.5 -22.5t-41.5 -14.5q-12 -5 -28 1.5t-34 20t-35.5 31.5t-32.5 37q-23 27 -37 69.5t-20 89t-4.5 92.5t10.5 81q3 12 10 23.5t8 25.5q0 5 6.5 10t15.5 9.5t18.5 7t15.5 2.5q10 0 21 4t21.5 9.5t20 9.5
t15.5 4q10 0 19 1t17.5 0.5t17 -3.5t18.5 -11q3 0 6 -0.5t7 -0.5q2 0 5 -0.5t15 -3.5q4 0 12.5 -6t13.5 -9q34 -19 53.5 -58.5t19.5 -89.5zM413 328q0 24 -9 46.5t-27 52.5q-4 6 -18 14t-30 14.5t-30.5 11t-18.5 3.5q-36 -10 -57.5 -39.5t-31.5 -70t-9.5 -86t8 -86.5
t21.5 -73.5t32 -45.5q23 -26 43 -27t37 14.5t31.5 42.5t25 58t18 60.5t11.5 49.5q2 8 3 18.5t1 42.5z" />
    <glyph glyph-name="p" unicode="p" horiz-adv-x="514" 
d="M485 387q7 -32 2.5 -63t-4.5 -64q0 -75 -30.5 -140t-83.5 -118q-3 -5 -12.5 -9t-21.5 -6.5t-25 -4t-23 -1.5q-7 0 -17 2.5t-19 7.5t-15.5 12t-6.5 16q0 1 1.5 4.5t9.5 19.5q45 0 71 16.5t40 46t19.5 70t10.5 88.5q-1 4 0.5 20t3.5 38t4 46t2 44t-3 32.5t-10 10.5
q-1 0 -3 -2t-14 -11q0 -1 -5.5 -6.5t-8.5 -9.5q-26 -28 -42 -46t-27.5 -31.5t-20.5 -25.5l-21 -28l-21 -29q0 -5 -7 -15.5t-7 -21.5q0 -20 1.5 -39.5t1.5 -41.5q0 -4 0.5 -7.5t0.5 -7.5q0 -13 -0.5 -25.5t-0.5 -25.5q0 -5 -2 -10.5t-2 -18.5q-1 -6 -1.5 -11.5t-0.5 -10.5
q0 -7 0.5 -13.5t0.5 -13.5q0 -29 -4.5 -58.5t-4.5 -62.5q0 -17 -3.5 -34.5t-3.5 -31.5q0 -26 2.5 -53t2.5 -58q0 -1 1.5 -3t1.5 -5q0 -2 -4.5 -8.5t-11.5 -6.5q-4 0 -7.5 1t-11.5 4q-2 2 -10.5 11t-16.5 32q-14 67 -25.5 149t-11.5 167q-3 35 -3 69.5t-2 70.5q-2 47 -2 74.5
t1.5 49.5t3 45.5t1.5 62.5q0 6 2 11.5t2 15.5q0 7 3.5 13.5t3.5 14.5q0 6 -0.5 11.5t-0.5 12.5q0 5 3 6.5t6 1.5q2 -1 7 -1h34.5t23.5 -3t16.5 -11.5t13.5 -26.5q0 -20 -3 -39t-3 -42q0 1 0 -4.5t1 -12.5t2.5 -13.5t3.5 -6.5q3 0 3 3q24 30 50 59t62 64l30 25q12 11 32 17.5
t37 6.5q22 0 33.5 -7t17.5 -23t8 -41.5t6 -62.5z" />
    <glyph glyph-name="q" unicode="q" horiz-adv-x="502" 
d="M455 484v-30t-0.5 -49.5t-2 -74t-5.5 -101.5q-1 -56 -5.5 -107.5t-10 -102t-8.5 -101t-1 -105.5q1 -8 1 -15.5t1 -15.5l4 -7q4 4 14 18t14 18h3q11 -8 14 -16q2 -4 3.5 -6t2.5 -4.5t1.5 -6.5l1.5 -12q-2 -25 -9.5 -39t-16.5 -31q-7 -10 -18.5 -15t-24.5 -6.5t-25.5 0.5
t-20.5 7q-14 7 -22.5 33t-13 56t-6.5 58.5t-2 40.5q0 23 1.5 47t1.5 49q0 11 1 17.5t1 13.5q0 5 -1 5.5t-1 1.5q-9 -8 -29.5 -14.5t-41.5 -11.5t-37 -7.5l-16 -2.5q-10 0 -19 2t-24 9q-21 4 -37 22t-22 39q-15 29 -17.5 58.5t-0.5 62.5q1 8 2 13t1.5 10.5t1.5 13t3 19.5
q4 19 5.5 42.5t17.5 56.5q1 2 3 6.5t7 14.5q13 35 27 60t30.5 43t36.5 30.5t47 22.5q11 4 16 8t9.5 5.5t10 1t16.5 -4.5q9 -6 18.5 -8.5t17.5 -4.5t13 -5.5t5 -11.5q0 -1 -2 -2.5t-2 -3.5v-3q0 -7 -5 -9t-15.5 -6t-26 -14.5t-36.5 -34.5t-47.5 -65t-57.5 -106
q-17 -39 -18 -77t-1 -80q0 -23 10 -37.5t16 -16.5q28 -5 54 2.5t46.5 19t33 21.5l12.5 10q4 4 6.5 12.5t3.5 18t1 19v16.5l4 37q1 14 5 38.5t8.5 49t8.5 45t4 25.5q0 3 0.5 7t2 11t4.5 18.5t7 30.5l8 54q0 3 0.5 6.5t0.5 10.5q0 5 -0.5 11.5t-2.5 10.5l-5 3q0 2 -1 2.5
t-1 1.5q17 14 27.5 19.5t13.5 5.5q12 0 16.5 -8.5t12.5 -16.5v-15z" />
    <glyph glyph-name="r" unicode="r" horiz-adv-x="363" 
d="M197 406q8 13 12 17q10 17 16 27.5t9.5 16t4.5 8.5t1 5t-1 5.5t-1 5.5q0 5 4.5 9.5t6.5 4.5q18 0 33 5.5t32 5.5q10 0 17 -9q8 -8 12.5 -13.5t4.5 -9.5q0 -17 -1.5 -34.5t-1.5 -37.5q0 -4 1.5 -6.5t1.5 -6.5q0 -14 -6.5 -21.5t-15 -9.5t-17 0.5t-11.5 7.5q-7 13 -14 20
t-10 16q0 3 -4 3q-4 -1 -8 -6.5t-8 -11.5t-6 -10.5t-1 -3.5q-8 -21 -21 -45.5t-26.5 -50t-23 -51.5t-9.5 -50q0 -23 -2.5 -46t-2.5 -49q0 -4 -2 -20t-5 -34t-7 -32t-8 -14q-2 0 -8.5 0.5t-8.5 0.5t-3 -0.5t-2 -0.5q-5 -1 -9 2.5t-7 8.5t-4.5 10t-1.5 8v35q0 17 -1.5 50.5
t-3 73.5t-3.5 82.5t-3.5 78t-2 58.5t1.5 25v36q0 10 -3 15t-6.5 7t-6.5 2.5t-3 2.5t2.5 3t4.5 2q8 7 12.5 6.5t10.5 -0.5q9 0 18.5 2t20.5 2q16 0 31 -8.5t24 -37.5q3 -11 4.5 -19t1.5 -22q0 -2 2 -8z" />
    <glyph glyph-name="s" unicode="s" horiz-adv-x="413" 
d="M333 251q17 -20 30 -37.5t21 -36t11.5 -40t1.5 -49.5q-5 -25 -20 -45t-36.5 -34t-47 -21.5t-51.5 -7.5q-17 0 -36 1.5t-35 6.5q-45 14 -81.5 33t-64.5 58q6 2 9 2q13 0 28.5 -3t27.5 -8q26 -13 49 -19t57 -6q6 0 22 2t32.5 10.5t29.5 25t13 45.5t-15.5 52.5t-32.5 42.5
q-31 33 -52.5 57t-35.5 44.5t-20.5 40t-6.5 43.5q0 30 13.5 52.5t35.5 37.5t49.5 21.5t55.5 5.5q29 0 59.5 -15t47.5 -41q0 -4 -4 -6t-8 -2q-20 4 -33 6.5t-20.5 4t-11.5 2.5t-7 1q-21 0 -37 -14.5t-25 -35.5t-8 -43t15 -37q23 -26 45.5 -50t35.5 -44z" />
    <glyph glyph-name="t" unicode="t" horiz-adv-x="483" 
d="M471 516q2 -2 2 -4q0 -4 -1 -7.5t-1 -10.5q0 -14 -17 -24.5t-39.5 -17.5t-45 -10.5t-32.5 -3.5h-9t-11.5 -1t-10 -3t-4.5 -5v-34.5t-5 -41.5t-11 -52.5t-11 -67.5t-8.5 -72t-4 -65t2.5 -47t12 -18q26 4 45 18.5t36.5 35.5t35 46.5t40.5 50.5q9 10 13 17.5t18 8.5h4l-2 -4
q-2 -4 -2 -6t1 -3q-13 -29 -30.5 -65t-40.5 -68t-52.5 -53.5t-67.5 -21.5q-32 0 -53.5 17t-34.5 49q-9 26 -11 54t-1 57q6 91 9.5 141.5t5.5 74t2.5 28.5t0.5 7q0 1 -5.5 2t-13.5 0.5t-17.5 -1.5t-16.5 -2q-14 -2 -29.5 -2.5t-33.5 0.5l-8 3q-7 3 -10 4t-3 6q0 4 1 6
q-5 2 -11 3.5t-6 3.5q0 1 5.5 3.5t13.5 6t15.5 7t12.5 5.5q18 7 31 12t24 9t22 7t26 7q10 5 11.5 6t1.5 2q0 11 0.5 20.5t0.5 18.5q0 26 0.5 53t0.5 57q-2 9 -3.5 16.5t-12.5 7.5l4 8q0 14 15.5 19.5t26.5 5.5q-1 0 7 -0.5t18.5 -4t21 -11t15.5 -21.5q0 -1 2 -11t4 -25
t3.5 -34.5t1.5 -40.5q0 -10 -1.5 -20t-0.5 -21q17 0 33.5 5t32.5 5q20 0 38 6t38 9q22 -3 23 -29z" />
    <glyph glyph-name="u" unicode="u" horiz-adv-x="505" 
d="M116 478q0 8 -10 10q-9 0 -12 2.5t-3 4.5q2 1 3 3t3 3.5t6.5 3t14.5 2.5q3 0 12 -0.5t18.5 -1t17.5 -2t9 -2.5q5 0 8 -7.5t6 -11.5q5 -16 3 -44t-6 -64t-8.5 -79t-4.5 -89q0 -2 -1.5 -14t-3 -29.5t-2.5 -38t-1 -39.5q0 -9 0.5 -21.5t3.5 -22.5t9.5 -14.5t17.5 3.5
q13 8 28 18t28 19q16 11 32.5 23.5t30.5 25.5t24 26.5t14 25.5q0 24 -2 47.5t-1 49.5q0 7 2 26t6 43.5t9 50.5t10 47q1 5 3.5 16t6.5 22t9.5 19.5t12.5 8.5q8 0 16 -1.5t17 -1.5q14 0 24 -8.5t10 -22.5q0 -5 -2.5 -9.5t-3.5 -9.5l-2 -10q-2 -18 -6.5 -53.5t-8.5 -79.5
t-6 -92.5t1 -92t12.5 -78t28.5 -49.5q7 -11 5 -18t-9.5 -11t-19 -5.5t-23.5 -0.5q-21 3 -34.5 23.5t-22.5 47t-15 53t-13 41.5l-1 -1q-11 -17 -21 -30.5t-21 -26t-24 -24t-31 -23.5q-9 -7 -23.5 -13.5t-31 -11.5t-32.5 -7t-28 1q-16 4 -26 14.5t-16 25.5t-10 33t-7 37
q0 26 -2.5 53t-2.5 59q0 67 12.5 132.5t23.5 139.5z" />
    <glyph glyph-name="v" unicode="v" horiz-adv-x="557" 
d="M545 514q7 -7 7 -15q0 -5 -2 -13.5t-7 -24.5q-14 -81 -47.5 -156.5t-73.5 -154.5q-24 -44 -38 -70.5t-22.5 -41.5t-13.5 -21t-9 -7t-7.5 -5t-9 -8.5t-14 -8.5t-20.5 -5q-31 0 -60 33t-54.5 83.5t-46 111t-32.5 115.5l-10 32t-5 33q0 14 -5 25.5t-5 21.5q0 14 3.5 23
t9.5 14.5t14.5 9t17.5 6.5q19 4 21 4q3 0 6 1t7 1q15 0 28.5 -32.5t26.5 -81t25.5 -106t25 -107t24.5 -83t25 -35.5q7 0 9.5 4t5.5 8l47 81q24 37 43 73.5t35 77.5l39 98q0 -1 7.5 18t17 42t19 42.5t12.5 19.5q2 0 6 -2z" />
    <glyph glyph-name="w" unicode="w" horiz-adv-x="662" 
d="M646 289q0 -32 -2 -60.5t-9.5 -54.5t-22 -50.5t-40.5 -48.5q-36 -25 -65 -29.5t-52 5.5t-40 30.5t-28.5 47.5t-17.5 56t-7 56q-20 -53 -42.5 -103t-49 -88t-58 -60t-68.5 -18q-20 0 -31.5 14t-18 36t-8 49.5t-1 54.5t1.5 51t1 40q4 52 15 104t21 106q2 5 4 9.5t2 11.5
q-2 4 1.5 10t9 11t12.5 9t12 4q28 0 41 -5t17 -16t2.5 -29t-1.5 -43q0 -7 -6.5 -36.5t-15 -70t-17.5 -86.5t-14 -84.5t-4 -64.5t13 -27q7 -1 19.5 13.5t28 38t31.5 53t30 59t25 56t16 44.5q9 25 17 46t17.5 42.5t21.5 45t28 52.5q2 4 3 4q12 0 13.5 -4.5t1.5 -6.5
q0 -1 0.5 -2t0.5 -3q0 -30 -2 -79.5t1 -101.5t14.5 -97.5t37.5 -67.5q33 -24 51.5 -5.5t23.5 63t-3 104.5t-28 119q-8 24 -13 48.5t-5 51.5q0 1 0.5 7t3 12.5t7.5 12t13 5.5q3 0 5 -1h6q14 -5 24.5 -22.5t20 -40.5t19 -49.5t20.5 -49.5q5 -12 7.5 -20t4 -15.5t2.5 -17
t3 -25.5z" />
    <glyph glyph-name="x" unicode="x" horiz-adv-x="408" 
d="M398 461q0 -11 -17 -11q-1 0 -1 2t-1 3q-1 0 -2.5 -0.5t-4.5 -3.5q-13 -13 -21.5 -26.5t-22.5 -33.5q-10 -14 -21.5 -32.5t-17.5 -35.5l-7 -18q-3 -7 0 -20.5t8 -28.5t10 -28t6 -19q13 -32 24 -55t19.5 -39t13.5 -27t7 -20l2.5 -3.5t6 -9t6 -11t2.5 -8.5q0 -6 -1.5 -13
t-8.5 -12q-2 -1 -5.5 -2t-5.5 -1q-5 0 -9 2l-10 5q-15 6 -36 28t-41 49t-36 52.5t-21 36.5l-3 -3q-3 -13 -18 -45.5t-34.5 -66t-40 -59.5t-36.5 -26q-4 0 -13 2t-8 5q3 3 6 5.5t8 2.5q6 3 10 11.5t8 14.5q23 35 48 84t56 109q-3 8 -7.5 17.5t-6.5 17.5l-14 36q-1 3 -2 5.5
t-2 4.5l-7 20q-12 32 -22.5 68t-30.5 88q0 2 -5 10.5t-12 8.5q-4 0 -11.5 -3.5t-7.5 3.5q1 6 7 12t13.5 10.5t16 7t14.5 2.5q16 1 28 -8t22.5 -22.5t19 -28.5t16.5 -26q5 -8 14.5 -24.5t19.5 -33.5t17.5 -29.5t9.5 -12.5q1 0 4 6t5 9l4 6q2 4 4 7l4 6q4 9 14 27t22.5 36
t26.5 32.5t28 16.5h2q1 0 1.5 0.5t1.5 0.5q9 0 12 -7.5t3 -16.5z" />
    <glyph glyph-name="y" unicode="y" 
d="M505 501q0 -26 -6.5 -52t-6.5 -55q0 -136 -17 -268.5t-49 -266.5q-21 -100 -86.5 -148t-167.5 -43q-3 0 -17.5 2.5t-30 7t-28.5 11t-13 15.5q0 5 3.5 6t6.5 1t6.5 -1.5t6.5 -1.5h8q8 -2 15.5 -2.5t15.5 -0.5q10 2 22 3.5t26 4.5t29.5 9.5t30.5 17.5q37 26 59 57.5
t33 69.5t14.5 84t3.5 102q0 2 -1 3.5t-1 4.5h-4l-4 -9q-9 -19 -31 -33t-48 -23t-51.5 -12t-41.5 1q-41 12 -59.5 40t-32.5 68q-3 13 -5 27.5t-2.5 27.5t-1 23.5t-0.5 15.5q0 21 4 41.5t4 46.5v6q0 30 6.5 60t6.5 64q0 2 0.5 6t0.5 9l-2.5 2.5t-3.5 1.5l-10 -5q-2 -2 -9 2.5
t-7 6.5q0 9 6 17.5t15.5 15t20 11t19.5 4.5q2 0 5 -0.5t6 -0.5t9.5 4t18.5 2q15 -2 19.5 -8.5t4.5 -20.5q0 -7 1 -14t1 -17v-11v-51q0 -27 -4.5 -55t-4.5 -56t-4 -55t-4 -56q0 -9 -1 -18t-1 -18q0 -3 0.5 -9.5t1 -13.5t1.5 -13.5t3 -8.5q5 -11 16.5 -17.5t43.5 -6.5
q10 6 31 23t42.5 38.5t37.5 45t16 44.5q0 12 5 29.5t5 31.5q6 33 14 65l15.5 62t13 56t5.5 46q0 11 -7 15q-6 4 -7 4.5t-1 1.5q0 9 6.5 10.5t11.5 1.5q14 1 23.5 1.5t14.5 0.5q2 0 4.5 0.5t12.5 4.5q6 0 11.5 -2t7.5 -10z" />
    <glyph glyph-name="z" unicode="z" horiz-adv-x="511" 
d="M125 516q0 1 1 1q3 0 8 -4t11 -9t13.5 -9t17.5 -5q16 -1 49.5 0.5t71 4.5t72 6t52.5 5q4 0 8 1.5t9 1.5q12 0 19.5 -6t15.5 -15l9 -15l3 -10q0 -2 2.5 -7.5t5.5 -8.5v-3q0 -5 -5.5 -13t-10.5 -10h-1q-3 -3 -8 -3q-1 0 -1.5 0.5t-1.5 0.5q-7 0 -12.5 -11t-11.5 -15l-2 -4
q-8 -7 -9.5 -12t-5.5 -5q-10 -11 -16 -17.5t-9.5 -11t-7 -8l-7.5 -7.5l-30 -33q-30 -34 -67.5 -72t-76.5 -77q-6 -6 -16 -17t-21 -23.5l-22 -25t-19 -19.5q-1 -1 -2 -1v-1h3q2 0 5.5 1.5t19.5 7.5q8 3 15.5 6t15.5 6q6 2 20 5.5t17 4.5q32 7 70 10t77 -3t75 -23.5t63 -50.5
q-2 -6 -2.5 -12.5t-4.5 -6.5q-12 7 -29 14t-31 9q-15 2 -32.5 4t-48.5 2q4 0 -12.5 -1t-43.5 -3t-61 -6t-66 -10t-57.5 -14.5t-35.5 -20.5q-5 -5 -8.5 -4.5t-7 4t-6.5 7.5t-5 7l-1 3.5t-2 7.5t-1.5 7l-0.5 3q0 10 5 25.5t11 24.5q17 36 40 68t49 62t54 59t55 59l11 13
q7 6 14.5 13.5t13.5 14.5t10 12.5t4 6.5t4 5l7 7l19 21l8 9q0 1 0.5 1.5t0.5 1.5q-3 4 -11 3.5t-13 1.5q-35 0 -70 4.5t-70 9.5q-13 2 -25.5 7.5t-23.5 14.5q-6 8 -7.5 11t-6.5 11l-4 15q-1 3 -1 6q0 2 -0.5 4t-0.5 3v3q-1 4 -3 6z" />
    <glyph glyph-name="braceleft" unicode="{" horiz-adv-x="346" 
d="M189 240q21 -14 32.5 -24.5t17 -19.5t6.5 -17.5t1 -16.5q0 -31 -12 -57.5t-27 -50.5t-27 -47t-12 -46q0 -17 11 -29.5t26.5 -20t32 -11.5t27.5 -4q30 -1 49.5 2t31.5 7.5t18.5 8t10.5 3.5q8 0 14.5 -7.5t6.5 -12.5q0 -12 -13 -23.5t-31.5 -20t-37.5 -13.5t-31 -5
q-30 0 -61.5 10t-57.5 30.5t-43 51.5t-17 74q0 15 3 30.5t11 30.5q21 45 32.5 70t17 38.5t7 17.5t1.5 7q0 13 -15 16.5t-33 6t-33 8.5t-15 24q0 22 17.5 31.5t34.5 14.5q31 10 38 13.5t7 7.5q0 24 -13 42.5t-28 37t-28 38t-13 44.5q0 55 19 93t51 62t75 34.5t91 10.5
q9 0 15 -5t9.5 -11.5t5 -14t1.5 -13.5q0 -4 -5 -4t-12 0.5t-12 0.5q-40 0 -74 -13t-58.5 -36.5t-38 -55t-13.5 -67.5q0 -25 15 -43.5t33.5 -36t33.5 -36t15 -44.5q0 -22 -10 -35t-30 -21z" />
    <glyph glyph-name="bar" unicode="|" horiz-adv-x="214" 
d="M187 2q0 -13 1.5 -25.5t1.5 -24.5q0 -9 -1 -30t-4.5 -43t-11.5 -39t-21 -17q-6 0 -13 17.5t-13 41.5t-10 50.5t-4 44.5q0 53 -4 129t-8 159t-5.5 165t2.5 147t16.5 105.5t36.5 40.5q5 0 10.5 -4t10 -14.5t8.5 -29t7 -47.5q2 -45 3 -70.5t1.5 -39t0.5 -18v-7.5z" />
    <glyph glyph-name="braceright" unicode="}" horiz-adv-x="481" 
d="M262 300q-21 13 -32.5 24t-17 20t-6.5 17.5t-1 16.5q0 28 14 56t30 53.5t27.5 48.5t6.5 43q-8 31 -23.5 46.5t-35 20t-41 2t-41.5 -8t-37.5 -11t-28.5 -5.5q-8 0 -14.5 7.5t-6.5 12.5q0 12 13 23.5t31.5 20t37.5 13.5t31 5q30 0 61.5 -10t57.5 -30.5t43 -51.5t17 -74
q0 -15 -3 -30.5t-11 -30.5q-21 -45 -32.5 -70t-17 -38.5t-7 -17.5t-1.5 -7q0 -13 15 -16.5t33 -6t33 -8.5t15 -24q0 -11 -5 -18.5t-12.5 -13t-16.5 -8.5l-18 -6q-31 -10 -38 -13.5t-7 -7.5q0 -24 13 -42.5t28 -37t28 -38t13 -44.5q0 -55 -19 -93t-51 -62t-75 -34.5
t-91 -10.5q-9 0 -15 5t-9.5 11.5t-5 14t-1.5 13.5q0 4 5 4t12 -0.5t12 -0.5q40 0 74 13t58.5 36.5t38 55t13.5 67.5q0 25 -15 43.5t-33.5 35.5t-33.5 36t-15 45q0 22 10 35t30 21z" />
    <glyph glyph-name="asciitilde" unicode="~" horiz-adv-x="467" 
d="M50 204q0 40 25.5 67t61 34.5t73 -6t62.5 -54.5q8 -17 22 -30.5t34 -13.5q19 0 23.5 14.5t5.5 32.5t3.5 32.5t17.5 14.5q12 0 20 -8.5t12 -21t5.5 -26t1.5 -23.5q0 -22 -22 -38.5t-50 -16.5q-34 0 -57.5 16t-40.5 34.5t-29.5 34.5t-24.5 16q-22 0 -37.5 -20.5
t-15.5 -51.5q0 -17 -12 -17q-32 0 -55 11.5t-23 19.5z" />
    <glyph glyph-name="exclamdown" unicode="&#xa1;" horiz-adv-x="188" 
d="M99 -28v42.5t0.5 46.5t0.5 55.5v68.5q0 8 -0.5 28.5t2 43t9.5 40.5t22 20q5 0 10 -6.5t9.5 -16t8 -20.5t4.5 -20q1 -19 2.5 -31t2 -19.5t1 -12t0.5 -8.5q0 -26 6 -52t6 -54q0 -14 -0.5 -28.5t-1.5 -30.5q0 -17 -2 -35t-2 -33q0 -9 2.5 -24.5t4 -34t1.5 -37.5t-5 -34
t-15.5 -24.5t-30.5 -8.5q-10 1 -15 2.5t-7 11.5q-8 39 -10.5 82.5t-2.5 88.5zM140 519q23 0 35.5 -18t12.5 -42q0 -6 -4 -13.5t-9 -14t-10.5 -11t-9.5 -4.5h-20t-28.5 4t-25.5 14t-11 31q2 7 9 20.5t16 17.5q29 11 35.5 13.5t9.5 2.5z" />
    <glyph glyph-name="cent" unicode="&#xa2;" horiz-adv-x="453" 
d="M428 70q0 -2 -1 -2t-1 -2v-4q0 -10 -11.5 -22.5t-27.5 -23t-33 -17.5t-27 -7q-1 0 -1.5 1t-2.5 1q1 -36 1.5 -56.5t0.5 -31.5t-1 -14.5t-2 -5.5q-9 -18 -18 -31q-8 -12 -16 -21.5t-13 -9.5q-14 0 -17.5 6.5t-11.5 21.5q4 8 7.5 16.5t3.5 17.5q0 8 -3 15.5t-3 13.5
q0 16 -5 34.5t-5 35.5q-25 3 -41.5 5t-29.5 5t-24 8t-24 15q-11 14 -22 23t-20 28t-14.5 56t-5.5 108q0 27 2.5 48t8.5 40t15.5 37t23.5 39q5 4 7 8t7 12q7 10 14 21t16 19.5t21 14t30 5.5q5 0 15 6.5t10 27.5l5 57q4 21 17 33t31 12t24 -20t6.5 -43.5t1 -43.5t8.5 -20
q13 0 29 -5.5t30 -15.5t24 -23.5t10 -29.5q0 -4 -1 -6q0 -3 0.5 -5t0.5 -4q0 1 -1 -3.5t-4.5 -10.5t-10.5 -11t-19 -5q-8 0 -16.5 10.5t-15 22.5t-12 22.5t-7.5 10.5q-3 7 -18.5 10t-35.5 3q-8 0 -8 -7q3 0 3 -10q-5 0 -19 -29t-28.5 -73t-26 -95.5t-11.5 -95.5t15.5 -73.5
t55.5 -29.5q30 1 50.5 9.5t36.5 19t30.5 19t33.5 8.5q10 0 10 -5q2 -5 5 -4t3 -3q0 -2 1 -3.5t1 -3.5z" />
    <glyph glyph-name="sterling" unicode="&#xa3;" horiz-adv-x="516" 
d="M241 288q4 -6 7.5 -18.5t6.5 -24.5q4 -15 6 -31q-2 -37 -7 -61.5t-11 -41t-13 -27.5t-14 -21l-12 -17q1 2 14.5 2.5t33.5 -0.5t43 -3.5t44 -4.5t36.5 -4t19.5 -3q-2 0 9.5 -2.5t25.5 -7t26.5 -12t12.5 -16.5q0 -6 -5 -11t-11.5 -8t-14 -4.5t-12.5 -1.5q-17 0 -33.5 4.5
t-33.5 6.5q-25 6 -51 8t-49 2q-14 0 -26 -1t-25 -1q-14 0 -28 2t-30 2q-4 0 -7.5 -1t-8.5 -1q-3 0 -6 0.5t-8 0.5q-7 0 -13 0.5t-13 0.5q-10 0 -15 3.5t-5 8.5q0 6 6.5 7t6.5 6v3q-3 13 -3.5 16.5t0.5 3.5q11 10 26 26.5t28.5 35.5t23 40t9.5 42q0 46 -11 77t-15 40l-8 15
q0 2 -3 2.5t-4 0.5q-3 0 -6 -3t-7 -3q-24 0 -35.5 8t-11.5 29q0 8 1 8q14 5 18.5 5.5t7.5 0.5t7 -1t8 -1q6 0 6 4q0 5 -5 18t-5 21q0 29 5 57t17 53t31 46t47 36q20 9 46 12t48 3q14 0 32.5 -1t37.5 -3.5t35.5 -6.5t27.5 -10q29 -17 44.5 -32.5t23 -31.5t9.5 -33.5t4 -38.5
q0 -12 -9.5 -23t-22.5 -17q-8 0 -18.5 2.5t-14.5 4.5q-2 1 -3 3t-1 4q0 1 2 3.5t4 8.5t4 16t2 27q0 23 -9 39.5t-24 27t-34.5 15.5t-40.5 5q-20 0 -34.5 -2t-27 -7t-23.5 -14.5t-24 -25.5q-8 -9 -14 -24.5t-10.5 -32.5t-6.5 -35t-2 -31q0 -8 1 -15.5t1 -15.5q0 -5 1.5 -5.5
t6.5 -0.5h8q19 0 40.5 2t43.5 1.5t42.5 -5.5t38.5 -18t18 -19q-4 -8 -17.5 -13t-23.5 -5q-7 0 -14 2t-13 2q-7 0 -23 -0.5t-34 -0.5t-33.5 1t-20.5 4h-2q-2 0 -2 -3q9 -12 14 -23z" />
    <glyph glyph-name="yen" unicode="&#xa5;" horiz-adv-x="538" 
d="M403 451q-17 -21 -27 -51t-28 -61q16 2 30.5 1t30.5 -7q12 -6 25.5 -8.5t27.5 -5.5q12 -2 19.5 -16.5t5.5 -22.5q-2 -5 -9.5 -8.5t-13.5 -3.5q-23 -2 -47 -2h-48q-13 0 -26 1t-25 1h-1q1 -8 2.5 -15t1.5 -12l1 -11v-6q5 -2 10 -3.5t13 0.5q11 2 23 1.5t23 -1.5l51 -6
q24 -3 34 -19t2 -39q0 -5 -8 -7l-59 -7q-17 0 -31.5 1t-30.5 -1q-5 0 -11 -0.5t-12 -0.5l4 -10l2 -36q1 -17 1.5 -21.5t0.5 -9.5v-11.5t2 -23.5q0 -15 -7 -24.5t-20 -9.5q-15 -1 -25.5 4t-17.5 12.5t-11.5 17.5t-6.5 19l-2 20q-2 15 -2.5 23.5t-0.5 13v6v2.5q0 6 -0.5 11
t-0.5 11q-26 -1 -41.5 -1t-23.5 0.5t-11.5 1.5t-6.5 2t-9 5t-28 19l-4.5 4.5t-6.5 4.5q-5 2 -6 5t-1 8q2 6 4.5 8t7.5 4q4 0 7 3.5t8 5.5q11 -5 22 -7.5t25 2.5q3 2 7 1t9 -1h10q8 4 16 6l16 4l2 31v20q-17 0 -32 2t-31 2q-5 2 -12 2q-14 -6 -26 -2t-26 6q-2 1 -7.5 4.5
t-5.5 8.5q-1 7 5.5 12.5t17 10t21.5 8t19 7.5q8 5 16.5 7t19.5 -3q8 -3 17.5 -3.5t18.5 0.5q0 2 -1 4.5t-1 4.5t-0.5 2t-0.5 1t0.5 3t0.5 4q-1 5 -10.5 19.5t-14.5 23.5q-16 28 -30 63.5t-35 94.5q0 2 -8 19t-22 52q-10 18 -14 29t-17 16q-5 0 -6.5 2t-3.5 3q0 6 5 9.5
t12.5 5t15.5 2t15 0.5q2 1 8 -3q5 -3 14 -9.5t26 -18.5q10 -9 16 -19t14 -24q4 -3 9.5 -11.5t10.5 -18.5t9 -18.5t5 -9.5l16 -41q0 -3 1.5 -7.5t3.5 -6.5q10 -17 22 -34t14 -32q0 -6 3.5 -15.5t6.5 -9.5q0 1 1 2q2 2 2 4l22 46q1 6 6.5 15.5t11.5 19t12.5 18.5t10.5 15
l66 106l58 72q20 19 26 24t11 5q7 -2 10 -8.5t3 -11.5q1 -9 -4.5 -21.5t-13 -25t-15 -23t-10.5 -15.5q-8 -15 -13 -24t-8.5 -15.5t-6 -12t-4.5 -12.5l-22 -39l-11 -21l-26 -51v0z" />
    <glyph glyph-name="brokenbar" unicode="&#xa6;" horiz-adv-x="176" 
d="M81 301q-9 1 -12 7t-2.5 14t2.5 16t2 14q0 15 -3.5 35.5t-7 42l-7 43t-3.5 38.5q0 26 1.5 49t4.5 47q1 17 10.5 25.5t23.5 8.5q15 0 21 -15t6.5 -34.5t-0.5 -39.5t1 -30l8 -157q0 -14 -5 -25.5t-12 -20t-14.5 -13.5t-13.5 -5zM79 -196q-9 8 -14 20t-5 26q0 26 -1.5 52
t-1.5 53q0 16 3 30t3 31q0 23 -0.5 44.5t-0.5 42.5v15t1.5 15.5t4.5 12.5t10 5q12 0 21 -12t15 -28.5t9 -35t3 -31.5q0 -34 -7 -67.5t-7 -66.5q0 -9 3 -17t3 -15q0 -8 -4.5 -20.5t-10.5 -24.5t-13 -20.5t-11 -8.5z" />
    <glyph glyph-name="section" unicode="&#xa7;" horiz-adv-x="442" 
d="M432 321q0 -37 -8 -67.5t-34 -60.5q-8 -9 -26 -22t-38 -28q16 -23 29 -38.5t22 -30t14 -29t5 -35.5q0 -35 -7.5 -67t-34.5 -59q-6 -6 -21.5 -18t-36 -25t-41.5 -22.5t-37 -9.5q-20 0 -37.5 9t-30 24t-19.5 34.5t-7 40.5q0 3 1.5 4.5t9.5 2.5l4.5 3t4.5 1q2 0 8 -6.5
t13.5 -14t15.5 -13.5t14 -6q46 0 77.5 23t44.5 73q0 16 -8 31t-17.5 28t-19 22t-13.5 13q-30 16 -64.5 29t-64.5 35t-50 59.5t-20 102.5q0 25 8.5 59t35.5 63q32 23 70 24l-23 21q-7 8 -16.5 22t-18.5 32.5t-15 41t-6 48.5q0 41 13 70.5t36.5 48t55.5 27.5t71 9q2 0 20.5 -1
t40.5 -4.5t41.5 -9.5t25.5 -15q14 -9 19 -16t5 -13q0 -3 -2 -6.5t-2 -5.5q0 -4 1 -11t1 -14.5t-2 -13.5t-8 -7q-5 1 -13.5 3t-17 5t-15 7t-6.5 9q0 1 1.5 2t1.5 3q0 6 -12.5 13t-29.5 13.5t-33.5 10.5t-25.5 4q-12 0 -26 -2t-27 -7.5t-23.5 -14.5t-16.5 -23q-2 -14 -1 -36.5
t5.5 -45.5t13.5 -43.5t23 -30.5q26 -19 50.5 -29.5t47 -18.5t42.5 -16.5t36 -24.5t28 -42t19 -68zM341 254q1 3 3 14.5t3 24t2 23.5t1 14q0 16 -11.5 30.5t-29 25t-38 17t-38.5 6.5q-19 0 -37.5 -14.5t-33 -35.5t-23.5 -45t-9 -43q0 -14 12.5 -27t30.5 -24t38.5 -17.5
t36.5 -6.5q41 0 61.5 14.5t31.5 43.5z" />
    <glyph glyph-name="dieresis" unicode="&#xa8;" horiz-adv-x="404" 
d="M113 832q-35 1 -50 19.5t-13 38.5q5 16 14.5 24.5t13.5 6.5q2 2 4 2q5 0 17 -1t24 -3t21 -5t9 -6q0 -15 -4.5 -29t-9.5 -28q-5 -11 -12.5 -15t-13.5 -4zM354 875l-4 -12q-11 -16 -21.5 -22t-20 -6t-17.5 4t-12 8q-7 7 -10.5 17.5t-2.5 21t7 19t19 11.5q9 2 13.5 3.5
t6.5 2.5t4 1h7q1 0 2.5 -1t7.5 -6q9 -11 12.5 -16t4.5 -11z" />
    <glyph glyph-name="copyright" unicode="&#xa9;" horiz-adv-x="771" 
d="M50 261q3 95 26.5 154.5t65 95t98 53.5t124.5 31q29 6 58.5 11t58.5 6.5t58 -3t58 -17.5q52 -23 85.5 -50t53 -61t27.5 -77t8 -98q0 -91 -30 -160t-80 -116t-113.5 -72t-130.5 -28t-131 16.5t-115.5 60.5t-84.5 104.5t-36 149.5zM250 507q-20 -23 -40 -55.5t-35.5 -71.5
t-23.5 -81.5t-4.5 -85t21.5 -84t56 -76.5q42 -42 95.5 -59t115.5 -17q38 0 72.5 16.5t65 44t55 63.5t42.5 75t27.5 78t9.5 73q0 33 -7.5 60.5t-21 51.5t-31 46.5t-36.5 45.5q-14 16 -32 24.5t-38.5 12.5t-41.5 5t-42 1q-25 0 -55 -4.5t-59 -13.5t-54 -21.5t-39 -27.5z
M528 344q0 -11 -6.5 -24t-23.5 -13q-10 0 -16 4.5t-6 10.5q0 2 8.5 16.5t8.5 25.5q0 9 -5.5 14t-13.5 7.5t-16 3t-13 0.5q-24 0 -44 -16t-34 -38t-21.5 -44.5t-7.5 -35.5t4.5 -28t12 -28.5t18 -22.5t22.5 -9q17 0 41 9.5t43 17.5q35 15 50.5 26t19.5 11q8 0 9.5 -9t1.5 -11
q0 -9 -8 -20.5t-20 -23t-27 -22t-30 -16.5q-41 -19 -75.5 -12.5t-60 29.5t-40.5 57t-16.5 70.5t12 70.5t45.5 57q16 11 46.5 20.5t59.5 9.5q14 0 28.5 -5t26.5 -13.5t19.5 -20t7.5 -24.5v-24z" />
    <glyph glyph-name="ordfeminine" unicode="&#xaa;" horiz-adv-x="345" 
d="M242 699q12 -4 19.5 -11t17.5 -16q3 -9 9 -15v-2q1 -3 1 -11v-2q-1 -2 0 -6q0 -3 1 -8t3 -11q0 -5 1 -8.5t1 -8.5v-15q0 -2 -1 -2.5t-1 -2.5t1 -2t1 -2q0 -8 -6 -19t-8 -21q-3 -14 -4 -26.5t-1 -25.5q0 -17 2.5 -34.5t2.5 -33.5q0 -12 -4.5 -21t-10.5 -9q-9 0 -19.5 9
t-15.5 15v1l-1 1q-2 0 -6.5 -1.5l-7.5 -2.5q-23 -12 -41 -20.5t-33 -8.5q-21 0 -40 13t-30 26q-6 5 -9 16t-3 21q0 32 16 53.5t39 35.5t49.5 22.5t47.5 13.5q2 0 5 6.5t5.5 14.5t5 16.5t3.5 12.5l4 10q3 9 3 19q0 9 -5 13.5t-11.5 6t-13 1.5h-9.5q-17 2 -30 -8t-22 -22.5
t-14 -23.5t-7 -12q-6 0 -11 5l-17 11q-2 0 -2 1v1v2q12 27 32.5 43t49.5 26q7 2 25.5 1t38.5 -5zM209 523q0 6 -0.5 7t-2.5 1q-4 -1 -6 -2t-4 -3q-2 0 -7.5 -2.5t-26.5 -14.5q-16 -11 -31 -21t-20 -28q-4 -11 -2.5 -16.5t1.5 -8.5q0 -5 5 -11t11 -6q4 0 8 2l1 -1q1 0 4 3
q17 4 24.5 8.5t13.5 4.5l24 11q17 6 17 10l-7 45q0 6 -1 10.5t-1 11.5z" />
    <glyph glyph-name="guillemotleft" unicode="&#xab;" horiz-adv-x="474" 
d="M461 60q-18 6 -35 12.5t-34 16.5q-15 9 -32 24t-33.5 30.5t-30 28t-20.5 17.5q-16 10 -18.5 26.5t3 36t16.5 39t22 35.5t19 25.5l8 9.5q12 12 22 21.5t19.5 18t20 17.5t22.5 21q5 5 6.5 16t6.5 11q9 -2 18 -3t16 -11q6 -9 10 -17t4 -18q0 -29 -29 -76.5t-80 -119.5
q-8 -9 -8 -16q0 -17 18.5 -32.5t41 -31t41.5 -32.5t19 -38q0 -5 -13 -11zM261 449q12 0 25.5 -9t13.5 -27q0 -4 -1.5 -8.5t-6.5 -12.5t-16.5 -21.5t-30.5 -35.5q-8 -10 -14.5 -20.5t-14.5 -20.5q-26 -31 -40 -48t-21 -25t-8 -10t-1 -3q0 -4 15 -20t33.5 -34.5t35.5 -35
t22 -21.5q8 -11 19.5 -26t11.5 -23q0 -9 -12 -9q-20 1 -39 16.5t-32 29.5q-27 28 -50.5 49.5t-41 39.5t-28 34t-10.5 33q0 28 23 58t52.5 57t56 48.5t34.5 32.5q8 12 25 12z" />
    <glyph glyph-name="logicalnot" unicode="&#xac;" horiz-adv-x="545" 
d="M416 216q0 45 -0.5 70t-1.5 37.5t-3 15t-5 2.5q-6 0 -14 -0.5t-25 -0.5q-6 0 -20.5 -0.5t-31 -1.5t-32.5 -1.5t-27 -0.5q-17 0 -38 2.5t-43 5t-43.5 5t-37.5 2.5q-7 0 -13.5 -0.5t-13.5 -5.5q-6 0 -9 6t-5 14.5t-2.5 18t-0.5 15.5q0 9 7 9q8 0 15 -6t18 -6q18 1 42.5 2
t51.5 2t55.5 2t55.5 2q63 2 131 4q25 0 47 -13t22 -44q0 -13 -2 -25.5t-2 -23.5l-13 -127q0 -6 -8.5 -11t-18.5 -7.5t-18.5 0t-8.5 11.5z" />
    <glyph glyph-name="uni00AD" unicode="&#xad;" horiz-adv-x="473" 
d="M231 299h46.5t31 0.5t20.5 0.5h16q11 0 24 -2.5t24.5 -7.5t19 -13t7.5 -19v-5q0 -5 1.5 -8t1.5 -7q0 -6 -9 -8.5t-22 -4t-27.5 -1.5h-24.5q-7 0 -16.5 1t-28 2.5t-51 3t-86.5 3.5q-13 -4 -28 -4q-9 0 -23 0.5t-26.5 2t-21.5 5t-9 8.5q16 16 41 25.5t51.5 15t50 8
t38.5 4.5z" />
    <glyph glyph-name="registered" unicode="&#xae;" horiz-adv-x="740" 
d="M678 34q-19 -47 -54.5 -77.5t-79.5 -47t-92.5 -20.5t-93.5 1.5t-83 19.5t-61 33q-53 27 -85 70t-49.5 90t-23.5 91t-6 72q0 24 5.5 49t14 50t18 49.5t18.5 47.5q13 33 39 53.5t57.5 32.5t64 16.5t58.5 4.5q5 0 28 0.5t51.5 0.5t56 -0.5t41.5 -2.5q60 -9 101.5 -30.5
t68.5 -55.5t42.5 -80t25.5 -104v-8q0 -20 -1 -38.5t-1 -35.5q0 -11 -2.5 -26t-3.5 -27l-2 -10q-9 -27 -19 -52t-24 -51zM681 287q-3 66 -20 114t-46 79.5t-69 47t-89 15.5q-30 0 -64.5 -0.5t-68 -7t-62.5 -21.5t-48 -43q-7 -8 -14 -16.5t-13.5 -19.5t-13.5 -26t-14 -37
q-13 -44 -26.5 -83t-13.5 -85q0 -18 4.5 -40t18.5 -65q29 -59 75.5 -97.5t91.5 -49.5q6 0 15 -5.5t14 -6.5q20 -3 41 -5t41 -2q6 0 18.5 3t24.5 6t20.5 6t6.5 3q29 11 52.5 25t43 33t36.5 43.5t34 56.5q7 14 12 32t8 36.5t4 36t1 31.5v42zM306 291l3 69q0 4 -4 10.5t-4 14.5
q0 9 13 9q4 0 6 -0.5t5 -0.5q9 0 17.5 3.5t16.5 3.5q11 0 22 2t27 2q12 0 26.5 -7t26.5 -17.5t20.5 -23.5t8.5 -26q0 -14 -5 -31.5t-13 -34.5t-18.5 -31.5t-22.5 -23.5q-6 -4 -6 -7q0 -4 5 -6l54 -54q8 -7 17.5 -13t18 -12.5t14 -14t5.5 -16.5q0 -19 -20 -19q-21 0 -46 17
t-47.5 37t-38 37.5t-18.5 19.5q-1 0 -1.5 0.5t-2.5 0.5q-3 0 -6 -2.5t-3 -6.5q0 -8 1.5 -15.5t1.5 -13.5q0 -14 -1 -29t-3.5 -27.5t-7.5 -21t-13 -8.5q-13 0 -20 11t-10.5 28t-5 37t-4.5 37zM394 285h3q11 0 18 8t11.5 17.5t6 18.5t1.5 11t-1.5 4.5t-6.5 4.5q-17 5 -24.5 8
t-13.5 3q-8 0 -19 -4.5t-11 -15.5v-15.5t0.5 -18.5t2 -15t4.5 -6h29z" />
    <glyph glyph-name="degree" unicode="&#xb0;" horiz-adv-x="370" 
d="M50 550q-4 15 2 33.5t16 36t22 33t20 26.5q31 40 78 40q23 0 46.5 -6.5t42.5 -21.5q28 -31 37 -62.5t4.5 -60.5t-20.5 -54t-38 -43t-48 -26.5t-51 -5.5q-45 6 -70.5 35t-40.5 76zM261 598q0 10 -4 21.5t-10 21.5t-12.5 16.5t-10.5 6.5q-34 0 -57.5 -13.5t-37.5 -33.5
t-18 -44t2 -44t21 -33.5t39 -13.5t39 14t25 33t15.5 38.5t8.5 30.5z" />
    <glyph glyph-name="plusminus" unicode="&#xb1;" horiz-adv-x="545" 
d="M304 105q27 0 54.5 1t56.5 1q22 0 35 -1.5t20 -5.5t10.5 -11l8.5 -17q6 -11 6 -21q0 -14 -20.5 -16t-53.5 -2q-8 0 -12 1t-10.5 2t-18.5 2.5t-35 2.5t-60.5 2.5t-94.5 2.5q-12 4 -26.5 0.5t-26.5 -3.5q-31 0 -56.5 5.5t-27.5 14.5q-1 10 16.5 15.5t44.5 8t59 4t59 5.5
q13 -3 12 11.5t-7 36t-13 45.5t-7 42q0 9 1 17.5t1 15.5q0 12 -8 14.5t-31 2.5q-49 0 -85 9t-45 19q14 16 28.5 29t37.5 15q10 1 28.5 1.5t37 2t32 4.5t13.5 8q1 20 1.5 41t0.5 42q0 14 -2.5 26.5t-13.5 23.5q-2 11 8 17.5t24.5 10t29.5 4.5t24 1q6 0 15.5 -1t13.5 -6
q-10 -9 -12 -19t-2 -21q0 -27 1.5 -54.5t1.5 -54.5q0 -10 3.5 -15.5t17.5 -5.5q36 0 60 -0.5t45 -0.5q7 0 16 -4.5t16 -10.5t12 -12.5t5 -10.5q0 -20 -17 -29.5t-41 -12.5t-50 -2.5t-45 0.5q-14 0 -18 -3.5t-4 -14.5q0 -23 -3 -49.5t-6 -49t-5 -38t1 -15.5z" />
    <glyph glyph-name="twosuperior" unicode="&#xb2;" horiz-adv-x="314" 
d="M89 422q-5 8 -11.5 14.5t-6.5 14.5q0 10 16 23.5t35.5 31t35.5 39.5t16 49q0 6 -1 14.5t-4.5 16.5t-11.5 14t-23 6q-9 0 -15.5 -5.5t-13 -11.5t-13 -11.5t-15.5 -5.5q-13 0 -27 11q6 11 10.5 23.5t15.5 19.5q17 11 34 17.5t33 6.5q13 0 28 -5.5t28 -15t21.5 -24
t8.5 -32.5q0 -51 -17 -78t-51 -44q0 -1 -6 -6t-8 -8l42 -5q11 -3 22 -3.5t21.5 -3.5t18.5 -10.5t13 -23.5q-5 -2 -9 -5t-8 -3h-158z" />
    <glyph glyph-name="threesuperior" unicode="&#xb3;" horiz-adv-x="244" 
d="M192 565q22 -8 37 -21.5t15 -45.5q0 -54 -26.5 -75.5t-64.5 -20.5q-12 0 -28 2.5t-30.5 8t-24.5 13t-10 18.5q0 4 2 11.5t5.5 15.5t7 14t6.5 6q6 0 14 -8.5t17 -12.5q7 -3 18 -5t19 -2q19 0 30.5 10t11.5 36q0 1 -2 6.5t-6 12t-10 11.5t-15 5q-16 0 -30.5 -5t-29.5 -5
q-13 0 -13 18q0 9 10.5 15.5t23.5 10.5t25 6.5t14 2.5q5 1 6.5 6t1.5 12q0 12 -6.5 24t-23.5 12q-5 0 -11 -2.5t-11 -2.5q-10 0 -18.5 2t-15.5 9q10 10 29 16t33 6q10 0 21.5 -4t21.5 -11.5t16 -17.5t6 -22t-5 -23z" />
    <glyph glyph-name="acute" unicode="&#xb4;" horiz-adv-x="249" 
d="M188 686q11 -3 11 -14q0 -2 -1 -4t-5 -9t-13.5 -20t-25.5 -36q-37 -39 -55.5 -63.5t-32.5 -24.5q-7 0 -11.5 13.5t-4.5 21.5q0 15 10 29.5t24 29t29.5 27.5t26.5 24q4 4 6.5 9.5t5 10t6 7.5t9.5 3q5 0 10.5 -1t10.5 -3z" />
    <glyph glyph-name="mu" unicode="&#xb5;" horiz-adv-x="478" 
d="M400 453q5 5 10.5 5.5t11.5 1.5q20 2 31.5 -18t18 -52t8 -71t1.5 -75.5t-1.5 -66t-1.5 -42.5q0 -20 -1 -43t-1 -65q-3 -27 -22 -27q-12 0 -22 3t-12 15l-9 36v8t-1 10q-11 -11 -21.5 -22t-18.5 -22q-15 -15 -38 -24t-48 -11.5t-49.5 1.5t-42.5 15q-17 10 -20 12t-4 2
q-4 0 -6.5 -18.5t-3.5 -45t-1.5 -54t-0.5 -45.5q-2 -12 -3 -25t-4 -24t-9.5 -18t-17.5 -7q-4 0 -6 2t-2 10q0 19 -5 41t-6 44q-3 48 -9 99l-5 59q-1 9 -1.5 20t-1 32.5t-1.5 57t-3 92.5q-2 8 -3 28.5t-0.5 46t2 53.5t6 51t11.5 37.5t18 13.5q20 -2 32 -8.5t18.5 -16.5
t8.5 -22t2 -23q0 -12 -1 -25t-1 -28q0 -24 -2.5 -48t-2.5 -49q0 -47 6.5 -80.5t15.5 -56t17.5 -35t12.5 -16.5q10 -12 25.5 -17t31.5 -5q22 0 44.5 18t41 43.5t30.5 52.5t12 46q0 32 -1.5 67t-1.5 70q0 21 1.5 42t1.5 41q0 8 -2.5 15.5t-4.5 14.5z" />
    <glyph glyph-name="paragraph" unicode="&#xb6;" horiz-adv-x="633" 
d="M635 581q-8 -8 -20 -10.5t-20 -2.5q-1 -26 -1.5 -50t-0.5 -50q0 -16 -2.5 -52t-5.5 -82t-6 -97t-4 -96q0 -69 1.5 -139.5t1.5 -151.5q0 -5 -6.5 -10t-18.5 -5q-5 0 -9.5 21.5t-8.5 55t-7.5 74t-5.5 79.5t-3.5 71.5t-1.5 48.5q0 21 1.5 56t3.5 75.5t4.5 82.5t4.5 76l7 80
q0 7 -8 7q-21 -2 -43 -1t-43.5 3t-44 4t-44.5 2q-6 0 -8 -14t-2 -32q0 -20 0.5 -38.5t0.5 -43v-58.5t-1 -84.5t-3 -122t-6 -170.5q0 -8 -1 -21.5t-2.5 -30.5t-3.5 -36.5t-3 -38.5q-3 -39 -11 -50.5t-27 -11.5q-7 0 -12 21.5t-9.5 54.5t-7 72.5t-5 75.5t-3.5 63t-2 35
q-1 17 -2 35.5t-1 35.5q0 4 0.5 13.5t0.5 20t0.5 20t0.5 13.5q0 1 -14 7.5t-34 17t-41.5 24.5t-37.5 31q-14 15 -20.5 35t-8.5 36q-3 28 1 57t17.5 54.5t36.5 44.5t58 28q13 -1 25 3t23 9t23 9t25 4q9 0 29.5 -0.5t45 -1t50 -1t47 -1t34.5 -1l13 -0.5q18 0 39 -1.5t40 -5.5
t31.5 -11.5t12.5 -19.5q0 -9 -8 -14z" />
    <glyph glyph-name="periodcentered" unicode="&#xb7;" horiz-adv-x="195" 
d="M108 270h-14q-1 0 -1.5 -0.5t-2.5 -0.5q-1 0 -3 2l-9 5q-6 2 -9 8l-4 7q-5 6 -9 22.5t-5 24.5v3q-1 1 -1 4q0 8 4.5 12t11 6t13.5 2h11t7.5 -0.5t7.5 -0.5l17 -5h1q3 0 7 -5.5t7.5 -12t5.5 -13t2 -8.5v-8q0 -5 -0.5 -9.5t-4.5 -9.5l-5 -8q0 -2 -3.5 -3t-4.5 -3l-8 -4z
" />
    <glyph glyph-name="cedilla" unicode="&#xb8;" horiz-adv-x="226" 
d="M152 -64q10 -7 17 -17.5t7 -24.5q0 -8 -1.5 -17t-1.5 -18q0 -14 -8 -24t-20 -16.5t-25 -9.5t-23 -3q-16 0 -31.5 14t-15.5 34q0 5 4 13t9 8q6 0 11 -5.5t9.5 -11.5t9.5 -11.5t11 -5.5q11 0 21 6.5t10 16.5q0 6 -1 15t-4 17.5t-8.5 14.5t-14.5 6q-7 0 -11 -4.5t-7 -4.5
q-5 0 -15.5 11t-10.5 24q0 14 1.5 26.5t3.5 26.5v3h46q2 -4 2 -7q0 -9 -4 -20.5t-6 -21.5q0 -1 2.5 -3t4.5 -2h7q18 0 32 -9z" />
    <glyph glyph-name="onesuperior" unicode="&#xb9;" horiz-adv-x="192" 
d="M114 621q-22 -20 -42 -20q-10 0 -22 6q7 6 18 13t21 14t17.5 13t7.5 11q0 2 -2 4.5t-2 5.5q0 9 11.5 13t26.5 4q29 0 36.5 -12.5t7.5 -26.5q0 -35 -2 -69t-2 -69q0 -21 1.5 -42t1.5 -42q0 -7 -4.5 -10.5t-10.5 -3.5q-14 0 -25 8.5t-19.5 21.5t-13 27t-4.5 25v129z" />
    <glyph glyph-name="ordmasculine" unicode="&#xba;" horiz-adv-x="255" 
d="M171 486q-54 4 -87.5 31.5t-33.5 88.5q0 22 6 34t16.5 18t23 9t26.5 8q24 9 47 9q9 0 21 -2t23 -7.5t19 -14t10 -20.5q3 -12 8 -23.5t5 -23.5q0 -18 -8 -37t-20 -34.5t-27 -25.5t-29 -10zM211 614q-4 21 -22 24.5t-35 3.5q-25 0 -39.5 -12.5t-14.5 -41.5q0 -8 4 -18
t12 -19.5t19.5 -16t26.5 -6.5q24 0 37.5 17t13.5 36v7t-2 26z" />
    <glyph glyph-name="guillemotright" unicode="&#xbb;" horiz-adv-x="455" 
d="M73 96q-2 17 6.5 33t23.5 31.5t32.5 31t32.5 30t25.5 29t10.5 29.5q0 1 -1.5 3t-7.5 8.5t-18 20t-33 37.5q-5 6 -17.5 19t-25 27.5t-22 27t-9.5 17.5q0 4 3.5 5.5t7.5 1.5q16 0 33.5 -6.5t33.5 -16.5t29.5 -23t21.5 -26q16 -23 33 -42.5t32 -42.5q8 -12 19.5 -27
t11.5 -21q0 -7 -8 -17.5t-19 -22.5t-24 -24t-22 -21l-67 -73q-11 -13 -18 -20t-12 -10.5t-8.5 -4.5t-6.5 -1q-11 0 -17.5 4.5t-10.5 11.5t-6 15.5t-3 16.5zM261 446q2 3 17.5 -6.5t37 -27.5t46 -42t45.5 -49t34.5 -50t13.5 -44q0 -8 -7 -20t-16 -23.5t-18 -20.5t-13 -11
q-18 -14 -35 -34t-32.5 -39t-31 -32.5t-31.5 -13.5q-11 0 -16.5 11t-5.5 20q0 18 14 42t33.5 47.5t41 44t36.5 31.5q12 11 15.5 15t3.5 7q-9 13 -19 26q-8 11 -17 23t-16 21q-12 13 -25 27t-24.5 29.5t-20 32t-10.5 36.5z" />
    <glyph glyph-name="onequarter" unicode="&#xbc;" horiz-adv-x="597" 
d="M545 680q2 -5 2 -14q0 -3 -4.5 -11.5t-11.5 -21t-14 -27.5t-13 -30q-11 -26 -26.5 -52.5t-30.5 -54.5q-4 -7 -9 -15t-12 -21.5t-18 -34t-27 -51.5q-1 -2 -4 -7.5t-9.5 -18t-17 -34.5t-25.5 -58l-42 -74q-5 -9 -18.5 -37t-31 -57.5t-36 -52.5t-33.5 -23q-6 0 -6 9q0 2 1 3
l16 48q10 33 26 72.5t33 82t33 87t27 88.5q3 15 14.5 46.5t27.5 70t35 79.5t38.5 75t38 55.5t32.5 21.5q23 0 37 -11t28 -32zM381 267q8 -3 17.5 -6t18 -6t14 -6.5t5.5 -7.5q0 -3 -2.5 -9.5t-3.5 -13.5l-4 -51q0 -6 6.5 -8.5t15.5 -3t18.5 0t16.5 0.5q2 0 4.5 3t2.5 5
q0 20 -1 38t-9 41q9 -2 19.5 -3t20 -3t16 -7t6.5 -14q0 -6 -3 -10t-3 -10q0 -17 1 -40.5t2 -47.5t2 -44.5t1 -30.5q0 -8 -5.5 -19.5t-13.5 -13.5q-5 0 -9.5 6.5t-8.5 15.5t-7.5 19t-6.5 18q-3 9 -4 18t-3 17t-6.5 13.5t-13.5 6.5q-9 0 -22.5 -1t-23.5 -1t-17 5.5t-11.5 14
t-6.5 17.5t-2 15q0 15 5 31t5 32q0 9 -5 18.5t-5 17.5v4zM114 609q-22 -20 -42 -20q-10 0 -22 6q7 6 18 13t21 14t17.5 13t7.5 11q0 2 -2 4.5t-2 5.5q0 9 11.5 13t26.5 4q29 0 36.5 -12.5t7.5 -26.5q0 -35 -2 -69t-2 -69q0 -21 1.5 -42t1.5 -42q0 -7 -4.5 -10.5t-10.5 -3.5
q-14 0 -25 8.5t-19.5 21.5t-13 27t-4.5 25v129z" />
    <glyph glyph-name="onehalf" unicode="&#xbd;" horiz-adv-x="576" 
d="M520 673q2 -5 2 -14q0 -3 -4.5 -11.5t-11.5 -21t-14 -27.5t-13 -30q-24 -57 -57.5 -111t-65.5 -118q-1 -2 -4 -7.5t-9.5 -18t-17 -34.5t-25.5 -58l-42 -74q-5 -9 -18.5 -37t-31 -57.5t-36 -52.5t-33.5 -23q-6 0 -6 9q0 2 1 3l16 48q10 33 26 72.5t33 82t33 87t27 88.5
q3 15 14.5 46.5t27.5 70t35 79.5t38.5 75t38 55.5t32.5 21.5q23 0 37 -11t28 -32zM401 4q-5 8 -11.5 14.5t-6.5 14.5q0 10 16 23.5t35.5 31t35.5 39.5t16 49q0 6 -1 14.5t-4.5 16.5t-11.5 14t-23 6q-9 0 -15.5 -5.5t-13 -11.5t-13 -11.5t-15.5 -5.5q-13 0 -27 11
q-4 10 5.5 23t20.5 20q17 11 34 17.5t33 6.5q13 0 28 -5.5t28 -15t21.5 -24t8.5 -32.5q0 -51 -17 -78t-51 -44q0 -1 -6 -6t-8 -8l42 -5q11 -3 22 -3.5t21.5 -3.5t18.5 -10.5t13 -23.5q-5 -2 -9 -5t-8 -3h-158zM124 621q-22 -20 -42 -20q-10 0 -22 6q7 6 18 13t21 14t17.5 13
t7.5 11q0 2 -2 4.5t-2 5.5q0 9 11.5 13t26.5 4q29 0 36.5 -12.5t7.5 -26.5q0 -35 -2 -69t-2 -69q0 -21 1.5 -42t1.5 -42q0 -7 -4.5 -10.5t-10.5 -3.5q-14 0 -25 8.5t-19.5 21.5t-13 27t-4.5 25v129z" />
    <glyph glyph-name="threequarters" unicode="&#xbe;" horiz-adv-x="553" 
d="M379 260q8 -3 17.5 -6t18 -6t14 -6.5t5.5 -7.5q0 -3 -2.5 -9.5t-3.5 -13.5l-4 -51q0 -6 6.5 -8.5t15.5 -3t18.5 0t16.5 0.5q2 0 4.5 3t2.5 5q0 20 -1 38t-9 41q9 -2 19.5 -3t20 -3t16 -7t6.5 -14q0 -6 -3 -10t-3 -10q0 -17 1 -40.5t2 -47.5t2 -44.5t1 -30.5
q0 -8 -5.5 -19.5t-13.5 -13.5q-5 0 -9.5 6.5t-8.5 15.5t-7.5 19t-6.5 18q-3 9 -4 18t-3 17t-6.5 13.5t-13.5 6.5q-9 0 -22.5 -1t-23.5 -1t-17 5.5t-11.5 14t-6.5 17.5t-2 15q0 15 5 31t5 32q0 9 -5 18.5t-5 17.5v4zM551 680q2 -5 2 -14q0 -3 -4.5 -11.5t-11.5 -21t-14 -27.5
t-13 -30q-11 -26 -26.5 -52.5t-30.5 -54.5q-4 -7 -9 -15t-12 -21.5t-18 -34t-27 -51.5q-1 -2 -4 -7.5t-9.5 -18t-17 -34.5t-25.5 -58l-42 -74q-5 -9 -18.5 -37t-31 -57.5t-36 -52.5t-33.5 -23q-6 0 -6 9q0 2 1 3l16 48q10 33 26 72.5t33 82t33 87t27 88.5q3 15 14.5 46.5
t27.5 70t35 79.5t38.5 75t38 55.5t32.5 21.5q23 0 37 -11t28 -32zM202 605q22 -8 37 -21.5t15 -45.5q0 -54 -26.5 -75.5t-64.5 -20.5q-12 0 -28 2.5t-30.5 8t-24.5 13t-10 18.5q0 4 2 11.5t5.5 15.5t7 14t6.5 6q6 0 14 -8.5t17 -12.5q7 -3 18 -5t19 -2q19 0 30.5 10t11.5 36
q0 1 -2 6.5t-6 12t-10 11.5t-15 5q-16 0 -30.5 -5t-29.5 -5q-13 0 -13 18q0 9 10.5 15.5t23.5 10.5t25 6.5t14 2.5q5 1 6.5 6t1.5 12q0 12 -6.5 24t-23.5 12q-5 0 -11 -2.5t-11 -2.5q-10 0 -18.5 2t-15.5 9q10 10 29 16t33 6q10 0 21.5 -4t21.5 -11.5t16 -17.5t6 -22t-5 -23
z" />
    <glyph glyph-name="questiondown" unicode="&#xbf;" horiz-adv-x="442" 
d="M216 -200q-27 3 -61 10.5t-61 30.5q-14 14 -29 33t-15 37q0 14 1.5 30t4 31t6.5 27.5t10 20.5q14 26 35 44t31 25q31 22 50.5 37t31.5 31t18.5 37t11.5 56q1 5 1 15v12q0 10 4 22t16 12q14 0 21.5 -11t11 -25.5t4 -29t0.5 -21.5q-1 -17 -7 -42t-14 -41l-10 -20
q-11 -17 -23.5 -30t-27 -25.5t-29 -26t-29.5 -29.5q-7 -8 -12 -13.5t-9.5 -10t-7.5 -10.5t-5 -15q-2 -14 -6 -28t-4 -26q0 -16 7.5 -25.5t18.5 -15t24.5 -7t24.5 -1.5q27 0 54.5 4.5t51 13t42 21t28.5 28.5q5 8 7 19.5t2 19.5t-1.5 11t-4 4.5t-4 3t-1.5 6.5q0 7 10 7
q5 0 14.5 -3.5t19 -8.5t16.5 -10.5t7 -9.5v-2q0 -4 -0.5 -7t-0.5 -8q0 -4 1.5 -7.5t1.5 -6.5q0 -26 -13.5 -45t-32.5 -32.5t-39 -22t-33 -13.5q-9 -4 -18.5 -6t-20.5 -4l-48 -8q-6 0 -11 -0.5t-10 -0.5v-1zM323 418q-12 -5 -21.5 -11t-14.5 -6q-24 -4 -28 -4t-4 1
q0 5 -2.5 6.5t-5.5 2.5t-6.5 2.5t-5.5 6.5q-3 15 -13 28.5t-10 17.5q0 2 2 4.5t2 4.5q2 22 20.5 38.5t40.5 16.5q11 0 20.5 -8t16 -18.5t10.5 -21t4 -14.5q2 -5 3.5 -11t1.5 -9q0 -8 -7 -9t-7 -6q0 -3 2 -6t2 -5z" />
    <glyph glyph-name="Agrave" unicode="&#xc0;" horiz-adv-x="512" 
d="M234 914q5 2 10.5 3t10.5 1q6 0 9.5 -3t6 -7.5t4.5 -10t7 -9.5q11 -11 26.5 -24t29.5 -27.5t24 -29t10 -29.5q0 -8 -4.5 -21.5t-11.5 -13.5q-14 0 -32.5 24.5t-55.5 63.5q-17 23 -26 36t-13 20t-5 9t-1 4q0 11 11 14zM48 -106q2 8 5.5 8t4.5 12q3 60 11.5 115t21 108.5
t30 107t38.5 111.5q9 24 20 55.5t24 65.5t29 67t34.5 59t39.5 42t46 16q7 0 10 -8.5t3 -10.5q0 -77 11.5 -157.5t23.5 -161.5q8 -68 30.5 -132t52.5 -130q2 -3 6.5 -10t9 -14.5t8.5 -14.5t5 -8q3 -7 3.5 -16t-9.5 -18q-14 -6 -31.5 3t-30.5 23q-18 18 -41 44.5t-33 64.5
q-9 20 -14.5 39t-12.5 41q0 4 -2 7.5t-4 3.5q-9 0 -22.5 -6t-28 -13.5t-26.5 -15t-18 -10.5q-11 -8 -24.5 -20.5t-28 -24.5t-28.5 -21.5t-26 -13.5q-17 -45 -27 -90.5t-24 -91.5q-2 -3 -8 -5.5t-12 -3t-11 0t-5 3.5zM288 496q-23 -40 -39 -81.5t-30 -83.5t-28.5 -84.5
t-33.5 -85.5q7 5 13.5 10.5t12.5 8.5q33 23 66.5 39.5t75.5 23.5q2 0 2 5q-4 5 -8.5 23.5t-8.5 39.5t-7 41t-4 28q0 7 -0.5 12t-0.5 12q0 9 -1.5 19.5t-1.5 23.5q-2 6 -2 15.5v37.5z" />
    <glyph glyph-name="Aacute" unicode="&#xc1;" horiz-adv-x="509" 
d="M446 912q11 -3 11 -14q0 -2 -1 -4t-5 -9t-13.5 -20t-25.5 -36q-37 -39 -55.5 -63.5t-32.5 -24.5q-7 0 -11.5 13.5t-4.5 21.5q0 15 10 29.5t24 29t29.5 27.5t26.5 24q4 4 6.5 9.5t5 10t6 7.5t9.5 3q5 0 10.5 -1t10.5 -3zM48 -106q2 8 5.5 8t4.5 12q3 60 11.5 115t21 108.5
t30 107t38.5 111.5q9 24 20 55.5t24 65.5t29 67t34.5 59t39.5 42t46 16q7 0 10 -8.5t3 -10.5q0 -77 11.5 -157.5t23.5 -161.5q8 -68 30.5 -132t52.5 -130q2 -3 6.5 -10t9 -14.5t8.5 -14.5t5 -8q3 -7 3.5 -16t-9.5 -18q-14 -6 -31.5 3t-30.5 23q-18 18 -41 44.5t-33 64.5
q-9 20 -14.5 39t-12.5 41q0 4 -2 7.5t-4 3.5q-9 0 -22.5 -6t-28 -13.5t-26.5 -15t-18 -10.5q-11 -8 -24.5 -20.5t-28 -24.5t-28.5 -21.5t-26 -13.5q-17 -45 -27 -90.5t-24 -91.5q-2 -3 -8 -5.5t-12 -3t-11 0t-5 3.5zM288 496q-23 -40 -39 -81.5t-30 -83.5t-28.5 -84.5
t-33.5 -85.5q7 5 13.5 10.5t12.5 8.5q33 23 66.5 39.5t75.5 23.5q2 0 2 5q-4 5 -8.5 23.5t-8.5 39.5t-7 41t-4 28q0 7 -0.5 12t-0.5 12q0 9 -1.5 19.5t-1.5 23.5q-2 6 -2 15.5v37.5z" />
    <glyph glyph-name="Acircumflex" unicode="&#xc2;" horiz-adv-x="511" 
d="M456 761q2 -2 2 -10q0 -13 -6.5 -17t-13.5 -6q-5 2 -11 5t-11 7q-9 8 -20.5 25.5t-23 35.5t-21.5 31.5t-15 13.5l-1 -1t-5.5 -6.5t-13 -16.5t-23.5 -32q-9 -11 -16 -18.5t-13 -13.5t-12.5 -12t-16.5 -16q0 -1 -11 1.5t-11 4.5q1 12 16.5 38.5t35.5 54.5t40.5 49t31.5 21
q4 0 12 -9t13 -14q4 -3 11 -13t18.5 -25.5t27.5 -35t37 -41.5zM48 -106q2 8 5.5 8t4.5 12q3 60 11.5 115t21 108.5t30 107t38.5 111.5q9 24 20 55.5t24 65.5t29 67t34.5 59t39.5 42t46 16q7 0 10 -8.5t3 -10.5q0 -77 11.5 -157.5t23.5 -161.5q8 -68 30.5 -132t52.5 -130
q2 -3 6.5 -10t9 -14.5t8.5 -14.5t5 -8q3 -7 3.5 -16t-9.5 -18q-14 -6 -31.5 3t-30.5 23q-18 18 -41 44.5t-33 64.5q-9 20 -14.5 39t-12.5 41q0 4 -2 7.5t-4 3.5q-9 0 -22.5 -6t-28 -13.5t-26.5 -15t-18 -10.5q-11 -8 -24.5 -20.5t-28 -24.5t-28.5 -21.5t-26 -13.5
q-17 -45 -27 -90.5t-24 -91.5q-2 -3 -8 -5.5t-12 -3t-11 0t-5 3.5zM288 496q-23 -40 -39 -81.5t-30 -83.5t-28.5 -84.5t-33.5 -85.5q7 5 13.5 10.5t12.5 8.5q33 23 66.5 39.5t75.5 23.5q2 0 2 5q-4 5 -8.5 23.5t-8.5 39.5t-7 41t-4 28q0 7 -0.5 12t-0.5 12q0 9 -1.5 19.5
t-1.5 23.5q-2 6 -2 15.5v37.5z" />
    <glyph glyph-name="Atilde" unicode="&#xc3;" horiz-adv-x="520" 
d="M313 838q7 -15 20.5 -27t30.5 -12t21 9.5t4 22.5t0.5 26.5t12.5 22.5q1 1 5 1q5 0 11 -5t11 -11.5t8.5 -14t3.5 -12.5v-23q0 -7 -3.5 -16t-11.5 -17t-20.5 -13.5t-29.5 -5.5q-20 1 -33.5 4.5t-22.5 8.5t-14.5 10t-9.5 10q-8 8 -14.5 18t-12.5 18.5t-12 14t-13 5.5
q-12 0 -21 -6.5t-14.5 -15t-8 -17t-2.5 -12.5q0 -5 0.5 -8.5t0.5 -8.5q-2 -9 -11 -9h-2t-5.5 1l-13.5 3t-24 6q-8 1 -15.5 5t-7.5 11q0 13 7 29.5t19.5 31t31 24t42.5 9.5q32 0 57 -16.5t36 -40.5zM48 -106q2 8 5.5 8t4.5 12q3 60 11.5 115t21 108.5t30 107t38.5 111.5
q9 24 20 55.5t24 65.5t29 67t34.5 59t39.5 42t46 16q7 0 10 -8.5t3 -10.5q0 -77 11.5 -157.5t23.5 -161.5q8 -68 30.5 -132t52.5 -130q2 -3 6.5 -10t9 -14.5t8.5 -14.5t5 -8q3 -7 3.5 -16t-9.5 -18q-14 -6 -31.5 3t-30.5 23q-18 18 -41 44.5t-33 64.5q-9 20 -14.5 39
t-12.5 41q0 4 -2 7.5t-4 3.5q-9 0 -22.5 -6t-28 -13.5t-26.5 -15t-18 -10.5q-11 -8 -24.5 -20.5t-28 -24.5t-28.5 -21.5t-26 -13.5q-17 -45 -27 -90.5t-24 -91.5q-2 -3 -8 -5.5t-12 -3t-11 0t-5 3.5zM288 496q-23 -40 -39 -81.5t-30 -83.5t-28.5 -84.5t-33.5 -85.5
q7 5 13.5 10.5t12.5 8.5q33 23 66.5 39.5t75.5 23.5q2 0 2 5q-4 5 -8.5 23.5t-8.5 39.5t-7 41t-4 28q0 7 -0.5 12t-0.5 12q0 9 -1.5 19.5t-1.5 23.5q-2 6 -2 15.5v37.5z" />
    <glyph glyph-name="Adieresis" unicode="&#xc4;" horiz-adv-x="554" 
d="M157 843q0 2 1 2.5t1 1.5q0 4 -3.5 7t-4.5 8l2 12q0 2 3.5 5.5t7.5 6.5t7.5 5t2.5 2q3 0 4.5 1t4.5 1q11 0 26.5 0.5t22.5 -6.5q8 -3 15 -3.5t7 -5.5q0 -1 -1 -3.5t-2 -5.5v-4.5t1 -10.5q-5 -12 -8.5 -23t-3.5 -10q-5 -11 -12.5 -15t-13.5 -4q-5 0 -9 2t-9 3
q-5 0 -11.5 4.5t-12.5 10t-10.5 11t-4.5 8.5zM455 847l-4 -12q-5 -12 -7 -21.5t-13 -9.5q-8 0 -14 1.5t-20 6.5q-15 5 -23 16.5t-8 19.5q0 11 7 23.5t20 16.5q9 2 13.5 3.5t6.5 2.5t4 1h7q1 0 2.5 -1t7.5 -6q9 -11 12.5 -16t4.5 -11zM48 -106q2 8 5.5 8t4.5 12
q3 60 11.5 115t21 108.5t30 107t38.5 111.5q9 24 20 55.5t24 65.5t29 67t34.5 59t39.5 42t46 16q7 0 10 -8.5t3 -10.5q0 -77 11.5 -157.5t23.5 -161.5q8 -68 30.5 -132t52.5 -130q2 -3 6.5 -10t9 -14.5t8.5 -14.5t5 -8q3 -7 3.5 -16t-9.5 -18q-14 -6 -31.5 3t-30.5 23
q-18 18 -41 44.5t-33 64.5q-9 20 -14.5 39t-12.5 41q0 4 -2 7.5t-4 3.5q-9 0 -22.5 -6t-28 -13.5t-26.5 -15t-18 -10.5q-11 -8 -24.5 -20.5t-28 -24.5t-28.5 -21.5t-26 -13.5q-17 -45 -27 -90.5t-24 -91.5q-2 -3 -8 -5.5t-12 -3t-11 0t-5 3.5zM288 496q-23 -40 -39 -81.5
t-30 -83.5t-28.5 -84.5t-33.5 -85.5q7 5 13.5 10.5t12.5 8.5q33 23 66.5 39.5t75.5 23.5q2 0 2 5q-4 5 -8.5 23.5t-8.5 39.5t-7 41t-4 28q0 7 -0.5 12t-0.5 12q0 9 -1.5 19.5t-1.5 23.5q-2 6 -2 15.5v37.5z" />
    <glyph glyph-name="Aring" unicode="&#xc5;" horiz-adv-x="534" 
d="M344 701q-54 4 -87.5 31.5t-33.5 88.5q0 22 6 34t16.5 18t23 9t26.5 8q24 9 47 9q9 0 21 -2t23 -7.5t19 -14t10 -20.5q3 -12 8 -23.5t5 -23.5q0 -18 -8 -37t-20 -34.5t-27 -25.5t-29 -10zM384 829q-4 21 -22 24.5t-35 3.5q-25 0 -39.5 -12.5t-14.5 -41.5q0 -8 4 -18
t12 -19.5t19.5 -16t26.5 -6.5q24 0 37.5 17t13.5 36v7t-2 26zM48 -106q2 8 5.5 8t4.5 12q3 60 11.5 115t21 108.5t30 107t38.5 111.5q9 24 20 55.5t24 65.5t29 67t34.5 59t39.5 42t46 16q7 0 10 -8.5t3 -10.5q0 -77 11.5 -157.5t23.5 -161.5q8 -68 30.5 -132t52.5 -130
q2 -3 6.5 -10t9 -14.5t8.5 -14.5t5 -8q3 -7 3.5 -16t-9.5 -18q-14 -6 -31.5 3t-30.5 23q-18 18 -41 44.5t-33 64.5q-9 20 -14.5 39t-12.5 41q0 4 -2 7.5t-4 3.5q-9 0 -22.5 -6t-28 -13.5t-26.5 -15t-18 -10.5q-11 -8 -24.5 -20.5t-28 -24.5t-28.5 -21.5t-26 -13.5
q-17 -45 -27 -90.5t-24 -91.5q-2 -3 -8 -5.5t-12 -3t-11 0t-5 3.5zM288 496q-23 -40 -39 -81.5t-30 -83.5t-28.5 -84.5t-33.5 -85.5q7 5 13.5 10.5t12.5 8.5q33 23 66.5 39.5t75.5 23.5q2 0 2 5q-4 5 -8.5 23.5t-8.5 39.5t-7 41t-4 28q0 7 -0.5 12t-0.5 12q0 9 -1.5 19.5
t-1.5 23.5q-2 6 -2 15.5v37.5z" />
    <glyph glyph-name="AE" unicode="&#xc6;" horiz-adv-x="885" 
d="M839 701q10 0 22 -11.5t12 -22.5q0 -8 -9 -14.5t-22 -11t-26 -7t-20 -2.5q-52 0 -103.5 4.5t-104.5 2.5q0 -28 -4.5 -56t-10.5 -56.5t-10.5 -58.5t-4.5 -62q0 -8 -3.5 -17t-9.5 -25q0 -2 -0.5 -2t-0.5 -1v-1q0 -7 4 -7q2 0 4.5 2t5.5 2q18 0 37 3.5t40 6.5q15 1 27 2
t25 1q3 0 23 0.5t43 1.5q27 1 61 3q5 0 11 -5.5t6 -13.5q0 -11 -12.5 -14.5t-23.5 -3.5l-147 -17q-17 -1 -31.5 -3t-28.5 -2q-11 0 -20 2t-20 2q-3 0 -8.5 -5.5t-5.5 -11.5q0 -1 1 -2.5t1 -2.5q0 -9 -3.5 -29.5t-7 -46.5t-7 -55t-3.5 -55q0 -30 15.5 -46t49.5 -23t88.5 -7.5
t132.5 0.5q9 0 16.5 -5t13.5 -5q3 0 6.5 1t8.5 1t5 -4q0 -10 -7.5 -15.5t-17 -8.5t-19.5 -4t-16 -1q-12 -1 -35.5 -1h-47t-40 0.5t-13.5 -0.5h-58q-23 -2 -46 5t-42.5 21t-33.5 34t-20 44q-5 24 -8 43t-4.5 40t-2 47t-0.5 65v1h-1q-1 0 -2 1q-24 -2 -54 -12t-63 -25
t-68.5 -33t-69.5 -36q-5 0 -9.5 -7t-9 -16.5t-8 -19.5t-6.5 -15q-4 -13 -11 -28t-14.5 -30.5t-14 -31t-9.5 -29.5q-4 -16 -12.5 -24t-16.5 -10t-14.5 1t-6.5 9q-1 4 5 7t9 21q5 26 8.5 47t8 40.5t10.5 39.5t16 46q5 14 9.5 26t9.5 24q16 50 40.5 101t58.5 102
q55 78 88.5 127.5t45.5 73.5q14 20 21 34t20 15q5 0 10 1t13 1t16 2.5t20 10.5q2 1 4.5 2t4.5 3q92 -3 155 -5t104 -3t63.5 -1.5t33 -1t12.5 -0.5h3zM454 619q1 2 1 4.5v4.5q-9 -2 -16 -2.5t-7 -4.5q-11 -8 -14.5 -15t-8.5 -12q-19 -23 -36.5 -51t-40.5 -65
q-13 -21 -27.5 -48.5t-29.5 -56t-30 -55.5t-29 -47q34 11 56 25t46 25q9 4 19 5.5t24 3t33.5 3t48.5 5.5q0 28 1 49.5t2.5 38.5t2.5 31.5t1 28.5q0 32 1 65.5t3 67.5z" />
    <glyph glyph-name="Ccedilla" unicode="&#xc7;" horiz-adv-x="499" 
d="M498 92q0 -5 -1.5 -8.5t-1.5 -7.5q0 -3 -5 -11t-25 -21q-5 -5 -17.5 -14t-31.5 -18.5t-43 -18.5t-51 -15q2 -6 2 -13q0 -9 -4 -20.5t-6 -21.5q0 -1 2.5 -3t4.5 -2h7q18 0 32 -9q10 -7 17 -17.5t7 -24.5q0 -8 -1.5 -17t-1.5 -18q0 -14 -8 -24t-20 -16.5t-25 -9.5t-23 -3
q-16 0 -31.5 14t-15.5 34q0 5 4 13t9 8q6 0 11 -5.5t9.5 -11.5t9.5 -11.5t11 -5.5q11 0 21 6.5t10 16.5q0 6 -1 15t-4 17.5t-8.5 14.5t-14.5 6q-7 0 -11 -4.5t-7 -4.5q-5 0 -15.5 11t-10.5 24q0 14 1.5 27.5t3.5 29.5q-3 0 -6 -0.5t-6 -0.5q-48 0 -84 18.5t-61 49.5
t-37.5 71t-12.5 83q0 53 3 104t11 105q6 36 13 76t19 78t30.5 70.5t45.5 54.5t65 31t90 -1l5 -2t11.5 -5.5t13 -7.5t10.5 -8q2 -2 8 -10t12.5 -17t11.5 -17t5 -12q0 -2 -5 -19t-13.5 -37.5t-20 -37t-25.5 -16.5q-2 0 -7.5 3t-5.5 8q0 8 4 18t8.5 20.5t8.5 22.5t4 25
q0 8 -0.5 11t-0.5 9q0 9 -5.5 17t-13.5 14t-18.5 9.5t-19.5 3.5q-11 0 -21 -3.5t-14 -11.5q-19 -42 -38.5 -88.5t-35 -95.5t-25.5 -99.5t-10 -100.5q0 -36 -6 -69t-6 -71q0 -29 5.5 -54t19 -44t36 -30t56.5 -11q23 0 51.5 7t56.5 17.5t53 23.5t41 25q3 2 9 8t11 6
q1 0 1 -0.5t1 -0.5z" />
    <glyph glyph-name="Egrave" unicode="&#xc8;" horiz-adv-x="568" 
d="M280 906q5 2 10.5 3t10.5 1q6 0 9.5 -3t6 -7.5t4.5 -10t7 -9.5q11 -11 26.5 -24t29.5 -27.5t24 -29t10 -29.5q0 -8 -4.5 -21.5t-11.5 -13.5q-14 0 -32.5 24.5t-55.5 63.5q-17 23 -26 36t-13 20t-5 9t-1 4q0 11 11 14zM513 -4q-30 -7 -60 -9t-61 -1.5t-63.5 2t-67.5 1.5
q-61 0 -100 35.5t-45 112.5q-8 52 -7 102.5t6 105.5q4 33 6.5 71.5t4.5 79t4.5 81t6.5 75.5q1 2 1 8q-3 3 -4 3q-17 2 -35 12t-17 23q0 2 8.5 2.5t20.5 2t25 4.5t22 11q46 -8 81 -7.5t73 0.5q19 0 52.5 -0.5t69 -2.5t66.5 -6.5t43 -11.5q15 -15 12 -26t-15 -18.5t-29 -11
t-29 -3.5q-20 0 -49.5 1t-60.5 2.5t-59 3t-45 2.5q-4 -29 -12.5 -66.5t-17 -76t-15 -75t-6.5 -63.5q0 -5 5 -5q65 0 130.5 8t136.5 8q8 0 14 -5.5t6 -15.5q0 -6 -4.5 -9.5t-10.5 -5t-12.5 -2t-10.5 -0.5q-30 -2 -52.5 -4t-44 -3.5t-43.5 -3.5t-50 -5q-17 0 -28.5 2t-31.5 2
q-6 0 -11 -13.5t-9.5 -34t-8 -46t-6 -48.5t-3.5 -41t-1 -25q0 -18 8 -33.5t21 -27t28 -19t30 -8.5q58 0 117.5 -2.5t127.5 -2.5q8 0 8 -4q0 -3 -3.5 -10t-5.5 -9z" />
    <glyph glyph-name="Eacute" unicode="&#xc9;" horiz-adv-x="548" 
d="M437 924q11 -3 11 -14q0 -2 -1 -4t-5 -9t-13.5 -20t-25.5 -36q-37 -39 -55.5 -63.5t-32.5 -24.5q-7 0 -11.5 13.5t-4.5 21.5q0 15 10 29.5t24 29t29.5 27.5t26.5 24q4 4 6.5 9.5t5 10t6 7.5t9.5 3q5 0 10.5 -1t10.5 -3zM503 -4q-30 -7 -60 -9t-61 -1.5t-63.5 2t-67.5 1.5
q-61 0 -100 35.5t-45 112.5q-8 52 -7 102.5t6 105.5q4 33 6.5 71.5t4.5 79t4.5 81t6.5 75.5q1 2 1 8q-3 3 -4 3q-17 2 -35 12t-17 23q0 2 8.5 2.5t20.5 2t25 4.5t22 11q46 -8 81 -7.5t73 0.5q19 0 52.5 -0.5t69 -2.5t66.5 -6.5t43 -11.5q15 -15 12 -26t-15 -18.5t-29 -11
t-29 -3.5q-20 0 -49.5 1t-60.5 2.5t-59 3t-45 2.5q-4 -29 -12.5 -66.5t-17 -76t-15 -75t-6.5 -63.5q0 -5 5 -5q65 0 130.5 8t136.5 8q8 0 14 -5.5t6 -15.5q0 -6 -4.5 -9.5t-10.5 -5t-12.5 -2t-10.5 -0.5q-30 -2 -52.5 -4t-44 -3.5t-43.5 -3.5t-50 -5q-17 0 -28.5 2t-31.5 2
q-6 0 -11 -13.5t-9.5 -34t-8 -46t-6 -48.5t-3.5 -41t-1 -25q0 -18 8 -33.5t21 -27t28 -19t30 -8.5q58 0 117.5 -2.5t127.5 -2.5q8 0 8 -4q0 -3 -3.5 -10t-5.5 -9z" />
    <glyph glyph-name="Ecircumflex" unicode="&#xca;" horiz-adv-x="568" 
d="M463 765q2 -2 2 -10q0 -13 -6.5 -17t-13.5 -6q-5 2 -11 5t-11 7q-9 8 -20.5 25.5t-23 35.5t-21.5 31.5t-15 13.5l-1 -1t-5.5 -6.5t-13 -16.5t-23.5 -32q-9 -11 -16 -18.5t-13 -13.5t-12.5 -12t-16.5 -16q0 -1 -11 1.5t-11 4.5q0 3 13.5 28.5t32.5 55.5t40.5 54.5
t37.5 24.5q4 0 12 -9t13 -14q4 -3 11 -13t18.5 -25.5t27.5 -35t37 -41.5zM513 -4q-30 -7 -60 -9t-61 -1.5t-63.5 2t-67.5 1.5q-61 0 -100 35.5t-45 112.5q-8 52 -7 102.5t6 105.5q4 33 6.5 71.5t4.5 79t4.5 81t6.5 75.5q1 2 1 8q-3 3 -4 3q-17 2 -35 12t-17 23q0 2 8.5 2.5
t20.5 2t25 4.5t22 11q46 -8 81 -7.5t73 0.5q19 0 52.5 -0.5t69 -2.5t66.5 -6.5t43 -11.5q15 -15 12 -26t-15 -18.5t-29 -11t-29 -3.5q-20 0 -49.5 1t-60.5 2.5t-59 3t-45 2.5q-4 -29 -12.5 -66.5t-17 -76t-15 -75t-6.5 -63.5q0 -5 5 -5q65 0 130.5 8t136.5 8q8 0 14 -5.5
t6 -15.5q0 -6 -4.5 -9.5t-10.5 -5t-12.5 -2t-10.5 -0.5q-30 -2 -52.5 -4t-44 -3.5t-43.5 -3.5t-50 -5q-17 0 -28.5 2t-31.5 2q-6 0 -11 -13.5t-9.5 -34t-8 -46t-6 -48.5t-3.5 -41t-1 -25q0 -18 8 -33.5t21 -27t28 -19t30 -8.5q58 0 117.5 -2.5t127.5 -2.5q8 0 8 -4
q0 -3 -3.5 -10t-5.5 -9z" />
    <glyph glyph-name="Edieresis" unicode="&#xcb;" horiz-adv-x="568" 
d="M178 845q0 2 1 2.5t1 1.5q0 4 -3.5 7t-4.5 8l2 12q0 2 3.5 5.5t7.5 6.5t7.5 5t2.5 2h5q6 6 19 1t21 -5q3 0 6 2t5 2q1 0 1 -1.5t1 -2.5q8 -3 15 -3.5t7 -5.5q0 -1 -1 -3.5t-2 -5.5v-4.5t1 -10.5q-5 -12 -8.5 -23t-3.5 -10q-5 -11 -12.5 -15t-13.5 -4q-5 0 -9 2t-9 3
q-5 0 -11.5 4.5t-12.5 10t-10.5 11t-4.5 8.5zM476 849q-2 -5 -3.5 -12.5t-4.5 -15t-8 -13t-12 -5.5q-1 0 -5.5 2t-24.5 9q-4 1 -9.5 4t-7.5 3l-14 17q-3 1 -3 4q0 2 1.5 4t1.5 4q0 4 -1 6v3q8 13 14 21t14 10q9 2 13.5 3.5t6.5 2.5t4 1h7q1 0 2.5 -1t7.5 -6q9 -11 12.5 -16
t4.5 -11zM513 -4q-30 -7 -60 -9t-61 -1.5t-63.5 2t-67.5 1.5q-61 0 -100 35.5t-45 112.5q-8 52 -7 102.5t6 105.5q4 33 6.5 71.5t4.5 79t4.5 81t6.5 75.5q1 2 1 8q-3 3 -4 3q-17 2 -35 12t-17 23q0 2 8.5 2.5t20.5 2t25 4.5t22 11q46 -8 81 -7.5t73 0.5q19 0 52.5 -0.5
t69 -2.5t66.5 -6.5t43 -11.5q15 -15 12 -26t-15 -18.5t-29 -11t-29 -3.5q-20 0 -49.5 1t-60.5 2.5t-59 3t-45 2.5q-4 -29 -12.5 -66.5t-17 -76t-15 -75t-6.5 -63.5q0 -5 5 -5q65 0 130.5 8t136.5 8q8 0 14 -5.5t6 -15.5q0 -6 -4.5 -9.5t-10.5 -5t-12.5 -2t-10.5 -0.5
q-30 -2 -52.5 -4t-44 -3.5t-43.5 -3.5t-50 -5q-17 0 -28.5 2t-31.5 2q-6 0 -11 -13.5t-9.5 -34t-8 -46t-6 -48.5t-3.5 -41t-1 -25q0 -18 8 -33.5t21 -27t28 -19t30 -8.5q58 0 117.5 -2.5t127.5 -2.5q8 0 8 -4q0 -3 -3.5 -10t-5.5 -9z" />
    <glyph glyph-name="Igrave" unicode="&#xcc;" horiz-adv-x="252" 
d="M37 913q5 2 10.5 3t10.5 1q6 0 9.5 -3t6 -7.5t4.5 -10t7 -9.5q11 -11 26.5 -24t29.5 -27.5t24 -29t10 -29.5q0 -8 -4.5 -21.5t-11.5 -13.5q-14 0 -32.5 24.5t-55.5 63.5q-17 23 -26 36t-13 20t-5 9t-1 4q0 11 11 14zM109 -11q-24 0 -36.5 6.5t-12.5 8.5q0 3 9.5 5t23.5 4
t28.5 3.5t25.5 2.5l-2 7.5t-4.5 17.5t-4.5 22t-2 21q0 63 -4 134.5t-4 141.5q0 34 0.5 68.5t-2.5 71.5q0 26 -0.5 60.5t-2.5 85.5q0 3 0.5 7t0.5 7q0 2 -6.5 4t-9.5 3q-32 11 -45 13t-14 7q0 1 5.5 4t13.5 6.5t16.5 6t14.5 2.5q25 0 50 -3t51 -3q4 0 10.5 -0.5t13.5 -2
t12 -5t5 -9.5q0 -5 -5.5 -9t-12.5 -7t-12.5 -5t-5.5 -3q0 -43 6.5 -82t6.5 -86q3 -59 3 -118q0 -42 -2 -76t-4 -66t-4 -65.5t-2 -74.5q0 -5 0.5 -15t1.5 -20.5t1 -19.5v-12q6 -6 14.5 -7t15.5 -10q0 -10 -4 -14.5t-9 -6t-11 -1t-10 0.5h-97z" />
    <glyph glyph-name="Iacute" unicode="&#xcd;" horiz-adv-x="273" 
d="M280 913q11 -3 11 -14q0 -2 -1 -4t-5 -9t-13.5 -20t-25.5 -36q-37 -39 -55.5 -63.5t-32.5 -24.5q-7 0 -11.5 13.5t-4.5 21.5q0 15 10 29.5t24 29t29.5 27.5t26.5 24q4 4 6.5 9.5t5 10t6 7.5t9.5 3q5 0 10.5 -1t10.5 -3zM109 -11q-24 0 -36.5 6.5t-12.5 8.5q0 3 9.5 5
t23.5 4t28.5 3.5t25.5 2.5l-2 7.5t-4.5 17.5t-4.5 22t-2 21q0 63 -4 134.5t-4 141.5q0 34 0.5 68.5t-2.5 71.5q0 26 -0.5 60.5t-2.5 85.5q0 3 0.5 7t0.5 7q0 2 -6.5 4t-9.5 3q-32 11 -45 13t-14 7q0 1 5.5 4t13.5 6.5t16.5 6t14.5 2.5q25 0 50 -3t51 -3q4 0 10.5 -0.5
t13.5 -2t12 -5t5 -9.5q0 -5 -5.5 -9t-12.5 -7t-12.5 -5t-5.5 -3q0 -43 6.5 -82t6.5 -86q3 -59 3 -118q0 -42 -2 -76t-4 -66t-4 -65.5t-2 -74.5q0 -5 0.5 -15t1.5 -20.5t1 -19.5v-12q6 -6 14.5 -7t15.5 -10q0 -10 -4 -14.5t-9 -6t-11 -1t-10 0.5h-97z" />
    <glyph glyph-name="Icircumflex" unicode="&#xce;" horiz-adv-x="305" 
d="M273 759q2 -2 2 -10q0 -13 -6.5 -17t-13.5 -6q-5 2 -11 5t-11 7q-9 8 -20.5 25.5t-23 35.5t-21.5 31.5t-15 13.5q6 0 -5.5 -14.5t-29.5 -34t-37 -38.5l-29 -29q0 -1 -11 1.5t-11 4.5q1 12 16.5 38.5t35.5 54.5t40.5 49t31.5 21q4 0 12 -9t13 -14q4 -3 11 -13t18.5 -25.5
t27.5 -35t37 -41.5zM109 -11q-24 0 -36.5 6.5t-12.5 8.5q0 3 9.5 5t23.5 4t28.5 3.5t25.5 2.5l-2 7.5t-4.5 17.5t-4.5 22t-2 21q0 63 -4 134.5t-4 141.5q0 34 0.5 68.5t-2.5 71.5q0 26 -0.5 60.5t-2.5 85.5q0 3 0.5 7t0.5 7q0 2 -6.5 4t-9.5 3q-32 11 -45 13t-14 7
q0 1 5.5 4t13.5 6.5t16.5 6t14.5 2.5q25 0 50 -3t51 -3q4 0 10.5 -0.5t13.5 -2t12 -5t5 -9.5q0 -5 -5.5 -9t-12.5 -7t-12.5 -5t-5.5 -3q0 -43 6.5 -82t6.5 -86q3 -59 3 -118q0 -42 -2 -76t-4 -66t-4 -65.5t-2 -74.5q0 -5 0.5 -15t1.5 -20.5t1 -19.5v-12q6 -6 14.5 -7
t15.5 -10q0 -10 -4 -14.5t-9 -6t-11 -1t-10 0.5h-97z" />
    <glyph glyph-name="Idieresis" unicode="&#xcf;" horiz-adv-x="364" 
d="M-2 847q0 6 -2 8.5t-4 10.5l2 12q0 2 3.5 5.5t7.5 6.5t7.5 5t2.5 2h5q2 2 4 2q5 0 17 -0.5t24 -2.5t20.5 -7t6.5 -14q0 -5 1 -7v-8q-5 -12 -8.5 -23t-3.5 -10q-5 -11 -12.5 -15t-13.5 -4q-5 0 -9 2t-9 3q-5 0 -11.5 4.5t-12.5 10t-10.5 11t-4.5 8.5zM296 851l-4 -12
q-5 -12 -7 -21.5t-13 -9.5q-2 0 -4 -0.5t-5 -0.5l-25 9q-14 3 -21 14t-8 23.5t5 23.5t20 15q9 2 13.5 3.5t6.5 2.5t4 1h7q1 0 2.5 -1t7.5 -6q9 -11 12.5 -16t4.5 -11zM109 -11q-24 0 -36.5 6.5t-12.5 8.5q0 3 9.5 5t23.5 4t28.5 3.5t25.5 2.5l-2 7.5t-4.5 17.5t-4.5 22
t-2 21q0 63 -4 134.5t-4 141.5q0 34 0.5 68.5t-2.5 71.5q0 26 -0.5 60.5t-2.5 85.5q0 3 0.5 7t0.5 7q0 2 -6.5 4t-9.5 3q-32 11 -45 13t-14 7q0 1 5.5 4t13.5 6.5t16.5 6t14.5 2.5q25 0 50 -3t51 -3q4 0 10.5 -0.5t13.5 -2t12 -5t5 -9.5q0 -5 -5.5 -9t-12.5 -7t-12.5 -5
t-5.5 -3q0 -43 6.5 -82t6.5 -86q3 -59 3 -118q0 -42 -2 -76t-4 -66t-4 -65.5t-2 -74.5q0 -5 0.5 -15t1.5 -20.5t1 -19.5v-12q6 -6 14.5 -7t15.5 -10q0 -10 -4 -14.5t-9 -6t-11 -1t-10 0.5h-97z" />
    <glyph glyph-name="Eth" unicode="&#xd0;" horiz-adv-x="581" 
d="M515 559q9 -25 12.5 -55t3.5 -56q0 -41 -11.5 -79t-30.5 -73.5t-42.5 -68t-48.5 -62.5q-38 -45 -77.5 -79.5t-69.5 -71.5q-3 -3 -10.5 -9.5t-16.5 -13t-17.5 -11.5t-14.5 -5q-1 0 -5 0.5t-8 2t-6.5 3t-0.5 3.5q0 1 -1.5 3.5t-3.5 2.5h-7q0 5 -3 6t-3 3q1 2 1 8
q0 12 -5 27t-7 26q0 3 0.5 11t1 18.5t1 21.5t0.5 21q0 7 -2.5 18t-2.5 37q0 53 -3 107h-6q-11 -3 -21 -3q-16 0 -31.5 3.5t-29.5 8.5q17 17 39.5 22.5t46.5 10.5q-1 28 -2 55.5t-1 55.5q0 27 2.5 53t5.5 53q2 20 2 45t7 45q1 4 1 14q0 8 -5 8h-4.5t-4.5 -1l-11 -5
q-2 0 -9 -2t-12 -2q-2 0 -3 0.5t-3 0.5t-5.5 -1t-8.5 -1q-11 0 -13.5 5t-9.5 5q-3 0 -5 2q0 3 1.5 4.5t1.5 3.5v2q0 1 2 1t3 -1t3 -1t3 1t3 1t3 -1.5t3 -1.5t2.5 2t1.5 2q2 0 5 -1.5t5 -1.5q5 0 17.5 4.5t18.5 9.5l51 12q23 7 42.5 10t47.5 3q95 0 156 -41.5t88 -113.5z
M466 412q3 14 5 29t2 30q0 40 -13 78.5t-40.5 68t-69.5 47.5t-100 18h-15t-10 -5q0 -3 0.5 -7.5t1.5 -12.5v-1q0 -2 -0.5 -4.5t-0.5 -5.5q0 -2 1 -6t1 -6q0 -5 -1.5 -8t-1.5 -7q0 -11 1.5 -22t1.5 -23q0 -1 -0.5 -2t-0.5 -3q0 -22 2 -36.5t2 -38.5q0 -38 -0.5 -76t-1.5 -75
q9 0 18 0.5t19 0.5q23 0 43.5 -7.5t20.5 -29.5q0 -1 -0.5 -1t-0.5 -1q0 -2 1.5 -4.5t1.5 -4.5q0 -4 -7.5 -6.5t-18 -3.5t-22 -1h-19.5q-9 0 -18.5 2.5t-19.5 2.5q-2 -63 -4.5 -113t-4.5 -76q0 -4 -2 -11t-5 -15.5t-5 -16.5t-2 -14q0 -11 9 -11q2 0 6 5.5t9.5 13.5t12 17
t14.5 15q2 1 5 3.5t3 6.5q0 1 -0.5 1.5t-0.5 1.5q16 12 30 23.5t27 24.5q8 8 17 23t17 22q3 1 12.5 16t21.5 34.5t23 38.5t16 28q13 24 23.5 50.5t16.5 53.5z" />
    <glyph glyph-name="Ntilde" unicode="&#xd1;" horiz-adv-x="590" 
d="M349 841q7 -15 20.5 -27t30.5 -12t21 9.5t4 22.5t0.5 26.5t12.5 22.5q1 1 5 1q5 0 11 -5t11 -11.5t8.5 -14t3.5 -12.5v-23q0 -7 -3.5 -16t-11.5 -17t-20.5 -13.5t-29.5 -5.5q-20 1 -33.5 4.5t-22.5 8.5t-14.5 10t-9.5 10q-8 8 -14.5 18t-12.5 18.5t-12 14t-13 5.5
q-12 0 -21 -6.5t-14.5 -15t-8 -17t-2.5 -12.5q0 -5 0.5 -8.5t0.5 -8.5q-2 -9 -11 -9h-2t-5.5 1l-13.5 3t-24 6q-8 1 -15.5 5t-7.5 11q0 13 7 29.5t19.5 31t31 24t42.5 9.5q32 0 57 -16.5t36 -40.5zM140 502q2 -47 5 -91.5l6 -89t5.5 -90.5t5.5 -96q0 -25 -0.5 -40t-1 -25
t-2 -18.5t-2.5 -19.5q-1 -7 -6 -22.5t-12.5 -31t-17 -27.5t-19.5 -12q-7 0 -7 4q0 35 2.5 69.5t2.5 72.5q0 92 -5.5 175t-5.5 161q-1 22 -1.5 34t-0.5 18.5t0.5 8.5t0.5 3v62q0 33 -2 65.5t0 57t11.5 37t32.5 4.5q11 -2 31 -37t46.5 -89t60 -121.5t70 -134.5t76.5 -127.5
t81 -100.5v6q-3 10 -5 21t-4 24.5t-3.5 31t-2.5 40.5q0 89 3.5 177.5t4.5 181.5q1 9 1.5 17t1.5 20.5t3 32t8 52.5q4 23 8 33t7 10q16 0 28 -6.5t12 -23.5q0 -8 -4.5 -25.5t-1.5 -37.5q-2 -56 -3.5 -112t-1.5 -116q0 -19 1 -38.5t1 -42.5v-32.5t1 -19.5q0 -71 11 -143
t11 -148q0 -10 -9 -10q-17 0 -31.5 7.5t-32.5 23t-42 39t-60 56.5q-14 16 -24 29t-19.5 27t-21.5 30.5t-31 40.5q-30 38 -43.5 58t-24.5 36q-30 47 -43.5 74.5t-24.5 47.5l-17 34t-4 6h-2z" />
    <glyph glyph-name="Ograve" unicode="&#xd2;" 
d="M248 914q5 2 10.5 3t10.5 1q6 0 9.5 -3t6 -7.5t4.5 -10t7 -9.5q11 -11 26.5 -24t29.5 -27.5t24 -29t10 -29.5q0 -8 -4.5 -21.5t-11.5 -13.5q-14 0 -32.5 24.5t-55.5 63.5q-17 23 -26 36t-13 20t-5 9t-1 4q0 11 11 14zM548 362q0 -85 -24.5 -162.5t-74.5 -147.5
q-42 -45 -84.5 -62.5t-92.5 -17.5q-20 0 -44 14t-47.5 34t-43 43t-28.5 40q-26 48 -38.5 97.5t-12.5 103.5q0 81 22 160t54 148q5 11 11.5 25t16.5 18q23 23 59.5 37.5t71.5 22.5q27 2 35 3t13 1q8 0 21.5 -3.5t27 -8.5t25 -12t15.5 -13l13 -14q17 -21 19.5 -25.5t2.5 -5.5
q9 -26 25.5 -47t28.5 -46q20 -44 24.5 -88t4.5 -94zM497 366q6 17 -0.5 51.5t-22 73t-38.5 75t-50 58t-56.5 21t-57.5 -35.5q-37 -68 -59.5 -144.5t-22.5 -148.5q2 -43 4.5 -81t10 -72t22 -64t41.5 -56q11 -12 23.5 -21t22.5 -9q6 2 14.5 6t25.5 18q35 29 61.5 66.5t44 80
t26.5 89t11 93.5z" />
    <glyph glyph-name="Oacute" unicode="&#xd3;" 
d="M428 913q11 -3 11 -14q0 -2 -1 -4t-5 -9t-13.5 -20t-25.5 -36q-37 -39 -55.5 -63.5t-32.5 -24.5q-7 0 -11.5 13.5t-4.5 21.5q0 15 10 29.5t24 29t29.5 27.5t26.5 24q4 4 6.5 9.5t5 10t6 7.5t9.5 3q5 0 10.5 -1t10.5 -3zM548 362q0 -85 -24.5 -162.5t-74.5 -147.5
q-42 -45 -84.5 -62.5t-92.5 -17.5q-20 0 -44 14t-47.5 34t-43 43t-28.5 40q-26 48 -38.5 97.5t-12.5 103.5q0 81 22 160t54 148q5 11 11.5 25t16.5 18q23 23 59.5 37.5t71.5 22.5q27 2 35 3t13 1q8 0 21.5 -3.5t27 -8.5t25 -12t15.5 -13l13 -14q17 -21 19.5 -25.5t2.5 -5.5
q9 -26 25.5 -47t28.5 -46q20 -44 24.5 -88t4.5 -94zM497 366q6 17 -0.5 51.5t-22 73t-38.5 75t-50 58t-56.5 21t-57.5 -35.5q-37 -68 -59.5 -144.5t-22.5 -148.5q2 -43 4.5 -81t10 -72t22 -64t41.5 -56q11 -12 23.5 -21t22.5 -9q6 2 14.5 6t25.5 18q35 29 61.5 66.5t44 80
t26.5 89t11 93.5z" />
    <glyph glyph-name="Ocircumflex" unicode="&#xd4;" 
d="M433 764q2 -2 2 -10q0 -13 -6.5 -17t-13.5 -6q-5 2 -11 5t-11 7q-9 8 -20.5 25.5t-23 35.5t-21.5 31.5t-15 13.5q6 0 -5.5 -14.5t-29.5 -34t-37 -38.5l-29 -29q0 -1 -11 1.5t-11 4.5q1 11 11.5 29.5t25.5 38.5t32 40.5t33 35.5q5 4 12 11.5t10 7.5q4 0 12 -9t13 -14
q4 -3 11 -13t18.5 -25.5t27.5 -35t37 -41.5zM548 362q0 -85 -24.5 -162.5t-74.5 -147.5q-42 -45 -84.5 -62.5t-92.5 -17.5q-20 0 -44 14t-47.5 34t-43 43t-28.5 40q-26 48 -38.5 97.5t-12.5 103.5q0 81 22 160t54 148q5 11 11.5 25t16.5 18q23 23 59.5 37.5t71.5 22.5
q27 2 35 3t13 1q8 0 21.5 -3.5t27 -8.5t25 -12t15.5 -13l13 -14q17 -21 19.5 -25.5t2.5 -5.5q9 -26 25.5 -47t28.5 -46q20 -44 24.5 -88t4.5 -94zM497 366q6 17 -0.5 51.5t-22 73t-38.5 75t-50 58t-56.5 21t-57.5 -35.5q-37 -68 -59.5 -144.5t-22.5 -148.5q2 -43 4.5 -81
t10 -72t22 -64t41.5 -56q11 -12 23.5 -21t22.5 -9q6 2 14.5 6t25.5 18q35 29 61.5 66.5t44 80t26.5 89t11 93.5z" />
    <glyph glyph-name="Otilde" unicode="&#xd5;" 
d="M335 840q7 -15 20.5 -27t30.5 -12t21 9.5t4 22.5t0.5 26.5t12.5 22.5q1 1 5 1q5 0 11 -5t11 -11.5t8.5 -14t3.5 -12.5v-23q0 -7 -3.5 -16t-11.5 -17t-20.5 -13.5t-29.5 -5.5q-20 1 -33.5 4.5t-22.5 8.5t-14.5 10t-9.5 10q-8 8 -14.5 18t-12.5 18.5t-12 14t-13 5.5
q-12 0 -21 -6.5t-14.5 -15t-8 -17t-2.5 -12.5q0 -5 0.5 -8.5t0.5 -8.5q-2 -9 -11 -9h-2t-5.5 1l-13.5 3t-24 6q-8 1 -15.5 5t-7.5 11q0 13 7 29.5t19.5 31t31 24t42.5 9.5q32 0 57 -16.5t36 -40.5zM548 362q0 -85 -24.5 -162.5t-74.5 -147.5q-42 -45 -84.5 -62.5
t-92.5 -17.5q-20 0 -44 14t-47.5 34t-43 43t-28.5 40q-26 48 -38.5 97.5t-12.5 103.5q0 81 22 160t54 148q5 11 11.5 25t16.5 18q23 23 59.5 37.5t71.5 22.5q27 2 35 3t13 1q8 0 21.5 -3.5t27 -8.5t25 -12t15.5 -13l13 -14q17 -21 19.5 -25.5t2.5 -5.5q9 -26 25.5 -47
t28.5 -46q20 -44 24.5 -88t4.5 -94zM497 366q6 17 -0.5 51.5t-22 73t-38.5 75t-50 58t-56.5 21t-57.5 -35.5q-37 -68 -59.5 -144.5t-22.5 -148.5q2 -43 4.5 -81t10 -72t22 -64t41.5 -56q11 -12 23.5 -21t22.5 -9q6 2 14.5 6t25.5 18q35 29 61.5 66.5t44 80t26.5 89t11 93.5z
" />
    <glyph glyph-name="Odieresis" unicode="&#xd6;" 
d="M149 841q0 2 1 2.5t1 1.5q0 4 -3.5 7t-4.5 8l2 12q0 2 3.5 5.5t7.5 6.5t7.5 5t2.5 2h5q2 2 4 2q9 0 18 -3t18 -3q3 0 6 2t5 2q1 0 1 -1.5t1 -2.5q8 -3 15 -3.5t7 -5.5q0 -4 -2 -8.5t0 -15.5q-5 -12 -8.5 -23t-3.5 -10q-5 -11 -12.5 -15t-13.5 -4q-5 0 -9 2t-9 3
q-5 0 -11.5 4.5t-12.5 10t-10.5 11t-4.5 8.5zM447 845l-4 -12q-5 -12 -7 -21.5t-13 -9.5q-1 0 -1.5 -1.5t-2.5 -1.5q-1 0 -2 1t-3 1l-25 9q-4 1 -9.5 4t-7.5 3l-14 17q-3 1 -3 4q0 4 2 6.5t0 7.5v3q8 13 14 21t14 10q9 2 13.5 3.5t6.5 2.5t4 1h7q1 0 2.5 -1t7.5 -6
q9 -11 12.5 -16t4.5 -11zM548 362q0 -85 -24.5 -162.5t-74.5 -147.5q-42 -45 -84.5 -62.5t-92.5 -17.5q-20 0 -44 14t-47.5 34t-43 43t-28.5 40q-26 48 -38.5 97.5t-12.5 103.5q0 81 22 160t54 148q5 11 11.5 25t16.5 18q23 23 59.5 37.5t71.5 22.5q27 2 35 3t13 1
q8 0 21.5 -3.5t27 -8.5t25 -12t15.5 -13l13 -14q17 -21 19.5 -25.5t2.5 -5.5q9 -26 25.5 -47t28.5 -46q20 -44 24.5 -88t4.5 -94zM497 366q6 17 -0.5 51.5t-22 73t-38.5 75t-50 58t-56.5 21t-57.5 -35.5q-37 -68 -59.5 -144.5t-22.5 -148.5q2 -43 4.5 -81t10 -72t22 -64
t41.5 -56q11 -12 23.5 -21t22.5 -9q6 2 14.5 6t25.5 18q35 29 61.5 66.5t44 80t26.5 89t11 93.5z" />
    <glyph glyph-name="multiply" unicode="&#xd7;" horiz-adv-x="426" 
d="M335 335q-5 -5 -5 -9q0 -2 13.5 -13t30 -26t30.5 -32t14 -31q0 -11 -9.5 -20.5t-19.5 -9.5q-7 0 -14 4q-24 22 -40.5 38t-27.5 26.5t-17.5 15.5t-12.5 5q-2 0 -3 -0.5t-2 -0.5h-2q-57 -47 -91.5 -76.5t-55 -46t-31 -22.5t-18.5 -5q-14 0 -19 7t-5 16q0 24 9 46.5t23.5 43
t32 38t35.5 30.5q7 5 17.5 11t20 12.5t16 12.5t6.5 11t-14 17.5t-31 26.5t-31 26t-14 17q0 12 12 20t23 8q14 0 29 -12t28.5 -26t25 -26t19.5 -12q1 0 3.5 1.5t9.5 7.5t20 18t36 34q10 9 13.5 16.5t5 12.5t4 7.5t10.5 1.5q28 0 47.5 -16t19.5 -34q0 -21 -4 -33t-14 -22.5
t-28 -23.5t-45 -34z" />
    <glyph glyph-name="Oslash" unicode="&#xd8;" horiz-adv-x="570" 
d="M536 677q2 -5 2 -14q0 -3 -4 -10.5t-10 -19t-13 -25t-13 -27.5l12 -18t11 -19q20 -44 24.5 -88t4.5 -94v-39q0 -105 -53 -196q-11 -18 -17 -29t-10.5 -18.5t-8.5 -13t-10 -14.5l-18 -19q-8 -9 -22.5 -20.5t-30.5 -19.5l-19 -10h-4l-17 -4q-5 -2 -9.5 -3t-9.5 -2
q-4 0 -8 0.5t-7 0.5q-5 0 -8.5 -1t-6.5 -1q-2 0 -4 0.5t-4 0.5t-4.5 -1t-4.5 -1q-15 0 -31.5 9.5t-42.5 24.5l-4 4l-2 1q-11 -13 -21 -21t-18 -8q-6 0 -6 9q0 2 1 3l13 41l-2 2q-9 13 -24 29.5t-26 36.5q-26 48 -38.5 97.5t-12.5 103.5q0 81 22 160t54 148q5 11 11 24.5
t12 15.5l5 3q5 5 11 8.5t11 5.5l8 3l6 6q15 9 38.5 19t56.5 18l30 3h13q2 0 2.5 0.5t2.5 0.5q8 0 15.5 -1t13.5 -3q7 0 9.5 -1.5t6.5 -5t12.5 -8.5t26.5 -12q1 -1 5 -6l7 -8q3 4 7 11.5l8 15t8.5 13.5t8.5 6q23 0 37 -11t28 -32zM499 384q0 36 -8.5 68t-26.5 66l-4 -8
q0 -2 -2.5 -7.5t-6 -12t-7.5 -13.5t-6 -11q-4 -7 -9 -15t-12 -21.5t-18 -34t-27 -51.5q-1 -2 -4 -7.5t-9.5 -18t-17 -34.5t-25.5 -58l-42 -74q-5 -8 -14 -28t-22 -43q13 -21 32 -38l7 -6q4 -5 9.5 -10t11.5 -5h2q2 0 6 -4.5t10 -4.5q6 2 12.5 4.5t11.5 6.5l16 13
q24 20 43 42l31 44q12 18 23.5 39.5t20.5 45t15 48t6 48.5q1 4 2 8.5t1.5 13t0.5 22v36.5zM200 186q2 -19 6 -35q21 52 43 108t36 113q10 41 24.5 79t34.5 74q10 18 24.5 44.5t28.5 49.5q-1 1 -1 4q0 2 -1.5 2.5t-2.5 1.5l-23 17q-9 6 -21.5 10t-12.5 12l-3 4l-6 -4
q-5 -9 -12 -11.5t-16 -14.5l-5 -10q0 -2 -8 -9.5t-11 -11.5q-11 -14 -23.5 -36t-23 -47.5t-17 -52.5t-6.5 -52q0 -4 -0.5 -9t-1.5 -13t-2.5 -21.5t-3.5 -34.5q-2 -7 -3 -13.5t-1 -13.5q2 -31 2.5 -64.5t5.5 -65.5z" />
    <glyph glyph-name="Ugrave" unicode="&#xd9;" horiz-adv-x="478" 
d="M202 913q5 2 10.5 3t10.5 1q6 0 9.5 -3t6 -7.5t4.5 -10t7 -9.5q11 -11 26.5 -24t29.5 -27.5t24 -29t10 -29.5q0 -8 -4.5 -21.5t-11.5 -13.5q-14 0 -32.5 24.5t-55.5 63.5q-17 23 -26 36t-13 20t-5 9t-1 4q0 11 11 14zM493 0q9 -14 5 -21t-13.5 -10t-21.5 -3t-18 2
q-21 4 -36 31t-24.5 60t-15 65.5t-7.5 49.5q-1 -18 -9 -38.5t-18.5 -41t-23 -39t-22.5 -33.5q-31 -33 -61.5 -41t-57 4.5t-47.5 43.5t-33 76q-3 10 -4.5 19.5t-3.5 20.5q-6 38 -8 78.5t-2 82.5q0 23 0.5 48.5t2 62t3.5 90t5 131.5v6q0 6 -7 8t-9 4l-7 3q-2 0 -6.5 5t4.5 13
t26 9.5t25 1.5q29 0 44.5 -10t23 -27t8.5 -41t1 -51q0 -20 -0.5 -35.5t-1.5 -20.5q2 -12 -0.5 -39.5t-6 -67t-6.5 -90t-2 -109.5q0 -15 3 -42.5t9.5 -54.5t16 -47t23.5 -20q21 0 38 16t31 41.5t25 56t19.5 59.5t14 52.5t8.5 34.5v38q4 74 9.5 140t14.5 141q0 7 2.5 19l5 24
t3.5 22.5t-1 15.5q-2 7 -8 7l-4 4q0 2 -1 3.5t-1 3.5t2 2q3 0 10.5 6t22.5 6q4 0 6.5 -1t7.5 -1q14 0 29 -10t15 -24v-3t1 -16t3.5 -40t6.5 -76q0 -40 -4.5 -75.5t-9.5 -70.5t-9.5 -70t-4.5 -74q0 -10 0.5 -20t0.5 -20q0 -36 -1 -63t1 -51.5t10.5 -50t28.5 -59.5z" />
    <glyph glyph-name="Uacute" unicode="&#xda;" horiz-adv-x="478" 
d="M374 898q11 -3 11 -14q0 -2 -1 -4t-5 -9t-13.5 -20t-25.5 -36q-37 -39 -55.5 -62.5t-32.5 -23.5q-7 0 -11.5 12.5t-4.5 20.5q0 15 10 29.5t24 29t29.5 27.5t26.5 24q4 4 6.5 9.5t5 10t6 7.5t9.5 3q5 0 10.5 -1t10.5 -3zM493 0q9 -14 5 -21t-13.5 -10t-21.5 -3t-18 2
q-21 4 -36 31t-24.5 60t-15 65.5t-7.5 49.5q-1 -18 -9 -38.5t-18.5 -41t-23 -39t-22.5 -33.5q-31 -33 -61.5 -41t-57 4.5t-47.5 43.5t-33 76q-3 10 -4.5 19.5t-3.5 20.5q-6 38 -8 78.5t-2 82.5q0 23 0.5 48.5t2 62t3.5 90t5 131.5v6q0 6 -7 8t-9 4l-7 3q-2 0 -6.5 5t4.5 13
t26 9.5t25 1.5q29 0 44.5 -10t23 -27t8.5 -41t1 -51q0 -20 -0.5 -35.5t-1.5 -20.5q2 -12 -0.5 -39.5t-6 -67t-6.5 -90t-2 -109.5q0 -15 3 -42.5t9.5 -54.5t16 -47t23.5 -20q21 0 38 16t31 41.5t25 56t19.5 59.5t14 52.5t8.5 34.5v38q4 74 9.5 140t14.5 141q0 7 2.5 19l5 24
t3.5 22.5t-1 15.5q-2 7 -8 7l-4 4q0 2 -1 3.5t-1 3.5t2 2q3 0 10.5 6t22.5 6q4 0 6.5 -1t7.5 -1q14 0 29 -10t15 -24v-3t1 -16t3.5 -40t6.5 -76q0 -40 -4.5 -75.5t-9.5 -70.5t-9.5 -70t-4.5 -74q0 -10 0.5 -20t0.5 -20q0 -36 -1 -63t1 -51.5t10.5 -50t28.5 -59.5z" />
    <glyph glyph-name="Ucircumflex" unicode="&#xdb;" horiz-adv-x="478" 
d="M404 779q2 -2 2 -10q0 -13 -6.5 -17t-13.5 -6q-5 2 -11 5t-11 7q-9 8 -20.5 25.5t-23 35.5t-21.5 31.5t-15 13.5q1 0 -12 -17t-30.5 -38t-34.5 -39.5t-24 -21.5q0 -1 -11 1.5t-11 4.5q1 11 11.5 29.5t25.5 38.5t32 40.5t33 35.5q5 4 12 11.5t10 7.5q4 0 12 -9t13 -14
q4 -3 11 -13t18.5 -25.5t27.5 -35t37 -41.5zM493 0q9 -14 5 -21t-13.5 -10t-21.5 -3t-18 2q-21 4 -36 31t-24.5 60t-15 65.5t-7.5 49.5q-1 -18 -9 -38.5t-18.5 -41t-23 -39t-22.5 -33.5q-31 -33 -61.5 -41t-57 4.5t-47.5 43.5t-33 76q-3 10 -4.5 19.5t-3.5 20.5
q-6 38 -8 78.5t-2 82.5q0 23 0.5 48.5t2 62t3.5 90t5 131.5v6q0 6 -7 8t-9 4l-7 3q-2 0 -6.5 5t4.5 13t26 9.5t25 1.5q29 0 44.5 -10t23 -27t8.5 -41t1 -51q0 -20 -0.5 -35.5t-1.5 -20.5q2 -12 -0.5 -39.5t-6 -67t-6.5 -90t-2 -109.5q0 -15 3 -42.5t9.5 -54.5t16 -47
t23.5 -20q21 0 38 16t31 41.5t25 56t19.5 59.5t14 52.5t8.5 34.5v38q4 74 9.5 140t14.5 141q0 7 2.5 19l5 24t3.5 22.5t-1 15.5q-2 7 -8 7l-4 4q0 2 -1 3.5t-1 3.5t2 2q3 0 10.5 6t22.5 6q4 0 6.5 -1t7.5 -1q14 0 29 -10t15 -24v-3t1 -16t3.5 -40t6.5 -76q0 -40 -4.5 -75.5
t-9.5 -70.5t-9.5 -70t-4.5 -74q0 -10 0.5 -20t0.5 -20q0 -36 -1 -63t1 -51.5t10.5 -50t28.5 -59.5z" />
    <glyph glyph-name="Udieresis" unicode="&#xdc;" horiz-adv-x="478" 
d="M125 843q0 2 1 2.5t1 1.5q0 4 -3.5 7t-4.5 8l2 12q0 2 3.5 5.5t7.5 6.5t7.5 5t2.5 2h5q2 2 4 2q9 0 18 -3t18 -3q3 0 6 2t5 2q1 0 1 -1.5t1 -2.5q8 -3 15 -3.5t7 -5.5q0 -1 -1 -3.5t-2 -5.5q0 -5 1 -7v-8q-5 -12 -8.5 -23t-3.5 -10q-5 -11 -12.5 -15t-13.5 -4q-5 0 -9 2
t-9 3q-5 0 -11.5 4.5t-12.5 10t-10.5 11t-4.5 8.5zM423 847l-4 -12q-5 -12 -7 -21.5t-13 -9.5q-1 0 -1.5 -1.5t-2.5 -1.5q-1 0 -2 1t-3 1l-20 5l-5 4q-4 1 -9.5 4t-7.5 3l-14 17q-3 1 -3 4q0 2 1.5 4t1.5 4q0 4 -1 6v3q8 13 14 21t14 10q9 2 13.5 3.5t6.5 2.5t4 1h7
q1 0 2.5 -1t7.5 -6q9 -11 12.5 -16t4.5 -11zM493 0q9 -14 5 -21t-13.5 -10t-21.5 -3t-18 2q-21 4 -36 31t-24.5 60t-15 65.5t-7.5 49.5q-1 -18 -9 -38.5t-18.5 -41t-23 -39t-22.5 -33.5q-31 -33 -61.5 -41t-57 4.5t-47.5 43.5t-33 76q-3 10 -4.5 19.5t-3.5 20.5
q-6 38 -8 78.5t-2 82.5q0 23 0.5 48.5t2 62t3.5 90t5 131.5v6q0 6 -7 8t-9 4l-7 3q-2 0 -6.5 5t4.5 13t26 9.5t25 1.5q29 0 44.5 -10t23 -27t8.5 -41t1 -51q0 -20 -0.5 -35.5t-1.5 -20.5q2 -12 -0.5 -39.5t-6 -67t-6.5 -90t-2 -109.5q0 -15 3 -42.5t9.5 -54.5t16 -47
t23.5 -20q21 0 38 16t31 41.5t25 56t19.5 59.5t14 52.5t8.5 34.5v38q4 74 9.5 140t14.5 141q0 7 2.5 19l5 24t3.5 22.5t-1 15.5q-2 7 -8 7l-4 4q0 2 -1 3.5t-1 3.5t2 2q3 0 10.5 6t22.5 6q4 0 6.5 -1t7.5 -1q14 0 29 -10t15 -24v-3t1 -16t3.5 -40t6.5 -76q0 -40 -4.5 -75.5
t-9.5 -70.5t-9.5 -70t-4.5 -74q0 -10 0.5 -20t0.5 -20q0 -36 -1 -63t1 -51.5t10.5 -50t28.5 -59.5z" />
    <glyph glyph-name="Yacute" unicode="&#xdd;" horiz-adv-x="508" 
d="M385 897q11 -3 11 -14q0 -2 -1 -4t-5 -9t-13.5 -20t-25.5 -36q-37 -39 -55.5 -63.5t-32.5 -24.5q-7 0 -11.5 13.5t-4.5 21.5q0 15 10 29.5t24 29t29.5 27.5t26.5 24q4 4 6.5 9.5t5 10t6 7.5t9.5 3q5 0 10.5 -1t10.5 -3zM195 43q-2 23 -2.5 36t-0.5 20v9v4v22.5t-0.5 27
t-0.5 35.5v48q0 8 0.5 20t1.5 34v14q0 10 -2.5 18.5t-2.5 19.5q0 1 -3 6.5t-6.5 12.5t-7.5 14t-6 12q-8 15 -14.5 31.5t-13 36.5t-14.5 44t-17 56q0 2 -5.5 14t-7.5 19l-14 43q-9 19 -13.5 30.5t-16.5 17.5q-9 0 -9 5q21 15 47 15h2t7 -3t14 -10t24 -21q9 -9 18 -22.5
t17 -28.5t14.5 -30t10.5 -27q12 -35 15 -45.5t5 -13.5q10 -17 21.5 -34.5t11.5 -34.5q0 -6 3 -15.5t6 -9.5t3 4l25 48q1 7 6.5 16.5t12 19l13 19t10.5 15.5q7 11 12.5 19t12 18.5t17 26.5t28.5 43l61 74l23 20q6 8 15 8q7 -2 10 -9t3 -12q0 -9 -6 -22t-14 -25.5t-15.5 -23.5
t-10.5 -17q-17 -30 -34.5 -65t-36 -71.5t-38 -73.5t-41.5 -71q-11 -17 -16.5 -35t-18.5 -35q-6 -5 -6 -14q0 -12 2.5 -24t2.5 -26q0 -46 1 -91t3 -92v-9t1 -8q0 -16 -7.5 -26t-19.5 -10q-30 0 -43 19.5t-16 39.5z" />
    <glyph glyph-name="Thorn" unicode="&#xde;" horiz-adv-x="453" 
d="M403 432q0 -2 -1 -5.5t-1 -14.5q-1 -2 -2.5 -10t-3 -17t-2.5 -17.5t-1 -10.5v-7v-16q0 -12 -3 -24t-3 -25v-16q-1 -3 -1 -8l-5 -13l-17 -44q0 -6 -4 -13t-13 -24l-5 -4l-3 -4.5t-7.5 -9.5t-9 -9.5t-7.5 -4.5q-5 0 -6 -3.5t-6 -4.5l-10 -5t-29 -14q-2 -2 -4.5 -1.5
t-4.5 -0.5q-23 -5 -28 -5h-6q-4 0 -7 2q-8 0 -15 2t-15 5l-19 11q-5 1 -8.5 2.5t-8.5 3.5l-12 11h-2q-1 0 -1 1q0 -8 -1 -14.5t-2 -11.5q-2 -6 -3 -10v-4q-1 0 -2.5 -12t-4 -26.5t-4 -27.5t-2.5 -15l-7 -14q-2 -2 -3 -7.5t-6 -5.5l-11 -4l-6 7q-2 0 -2 9.5t-2 14.5
q1 -3 -1 5.5t-5 22.5t-5.5 31t-2.5 29q0 10 0.5 20.5t0.5 25.5q0 10 -1 14q0 3 -0.5 16t-1 27.5t-1.5 26t-1 12.5l-3 19q0 9 -1.5 17.5t-1.5 18.5q0 6 -0.5 13t-0.5 13v79q0 22 0.5 47t0.5 69q0 5 0.5 10t0.5 10q-3 20 -2 40t2.5 39.5t2.5 37.5t-1 35q2 3 5 6q2 2 5 4.5
t7 2.5l8 4q2 3 7.5 4.5t9.5 1.5t6.5 -3t4.5 -3q4 0 7.5 2.5t5.5 -4.5q0 -6 2 -8.5t5 -4t5.5 -3t3.5 -6.5q-1 -1 -1.5 -14t-0.5 -26q0 -14 0.5 -21t0.5 -6v-5v-2q0 -2 0.5 -2.5t0.5 -2.5l4 2q5 6 14 9q-1 0 4.5 2.5t14 5t18 5t17.5 2.5q9 2 17 2t33 -2q4 0 6.5 -1.5t5.5 -1.5
l1 -1q2 -1 10 -1q14 -4 33 -19t36 -34.5t29 -40t12 -35.5v-6q2 -2 2 -3v-2v-7q0 -2 2 -13t2 -15l3 -17q0 -1 1 -2q0 -1 0.5 -2t0.5 -3zM319 456q0 4 1 7.5t1 8.5q0 7 0.5 21t-1 30t-6.5 31.5t-16 26.5v2l-17 15q-2 0 -10.5 4t-14.5 5q-5 0 -12 1.5t-11 -0.5l-29 -8
q-3 0 -9 -2t-12 -4.5t-11 -5.5t-7 -5l-24 -20q0 -2 -4.5 -6t-4.5 -9q0 -7 1.5 -14t1.5 -15q0 -4 -1 -7t-2 -7v-8q0 -5 0.5 -8.5t0.5 -6.5q-1 -2 -1 -4v-4q0 -4 -0.5 -15t3.5 -13v-5q3 -17 1 -40q-1 -3 -2.5 -7t1.5 -11q0 -6 0.5 -13t0.5 -15v-4q0 -5 0.5 -9.5t0.5 -9.5
t-0.5 -7.5t-0.5 -4.5q0 -3 0.5 -3.5t0.5 -2.5q0 -3 -0.5 -7.5t-0.5 -18.5v-7q0 -5 2 -9t2 -7l3 -5q0 -8 3 -13.5t3 -13.5l6 -6l3 -19q4 -9 10 -9q5 1 10 1t11 2h1q4 0 6.5 2t6.5 2h2l5 3q7 0 17 5t19 13t16 16.5t9 16.5q9 28 12.5 38t4.5 16l17 64l4 26q0 2 1 2.5t1 1.5
l3 10q0 8 2 11v2l2 12t1 13z" />
    <glyph glyph-name="germandbls" unicode="&#xdf;" horiz-adv-x="544" 
d="M225 26q-9 9 -8.5 24.5t7.5 30t17 24.5t21 9q4 -2 8 -10.5t14.5 -18t31.5 -17t59 -6.5q21 0 39 15t32 37.5t23.5 50.5t14 55t2.5 50.5t-10 37.5q-14 35 -33.5 47t-41 12t-43.5 -6t-41 -6q-16 0 -34 4t-32 12q-9 4 -13.5 10t-6.5 11.5t-2 8t0 -0.5q0 14 12 23t24 9
q51 0 68 27.5t17 80.5q0 15 -7 34t-19 36.5t-28 29t-34 11.5q-25 0 -44.5 -3t-33.5 -12t-21.5 -26.5t-8.5 -47.5q2 -8 3 -16.5t1 -18.5q0 -12 -0.5 -24.5t-2 -28t-3 -36t-3.5 -47.5q-3 -32 -3.5 -72t-0.5 -82t-0.5 -82t-3.5 -72t-9 -52t-16 -22q-11 0 -13.5 2t-4.5 3
q-10 10 -15 30.5t-7.5 58.5t-3 97.5t-2.5 148.5q0 43 1.5 89.5t-5.5 85.5q-4 37 0 69.5t19 56.5t42.5 37.5t72.5 13.5q50 0 93 -7.5t74 -29.5t46.5 -62t11.5 -104q0 -6 -3.5 -17t-8 -22.5t-9.5 -22t-9 -14.5q6 -1 16 -4.5t21 -8t21 -9.5t15 -9q31 -30 48.5 -59.5t24 -60.5
t3.5 -64.5t-12 -70.5q-17 -49 -42 -84.5t-61.5 -52t-86.5 -11t-117 37.5z" />
    <glyph glyph-name="agrave" unicode="&#xe0;" horiz-adv-x="431" 
d="M233 695q5 2 10.5 3t10.5 1q6 0 9.5 -3t6 -7.5t4.5 -10t7 -9.5q11 -11 26.5 -24t29.5 -27.5t24 -29t10 -29.5q0 -8 -4.5 -21.5t-11.5 -13.5q-14 0 -32.5 24.5t-55.5 63.5q-17 23 -26 36t-13 20t-5 9t-1 4q0 11 11 14zM331 65q-20 -36 -48 -56.5t-59.5 -27t-62.5 0.5
t-55.5 26t-40 49t-15.5 71q0 7 1 15t5 27q13 41 42 63t65.5 29.5t77 2t76.5 -20.5q1 0 1 -0.5t1 -0.5q2 0 4 5q1 11 1.5 21.5t0.5 27.5v9t0.5 14t0.5 23v37v24t-2.5 27t-7.5 22t-15 9q-6 0 -12.5 0.5t-13.5 0.5q-19 0 -42.5 -6t-46.5 -16.5t-43 -25t-32 -31.5
q-9 -10 -25 -14q-8 -2 -10 -2q-5 0 -12 3t-7 5q0 14 14.5 31.5t35 34.5t42.5 31t36 20l19 7q31 8 60.5 7t63.5 -9q27 -14 50 -33q14 -9 23 -23.5t14.5 -32t7.5 -36t2 -34.5q0 -3 -1 -21t-1.5 -38.5t-1.5 -37t-1 -17.5q0 -50 -5.5 -105.5t-4.5 -106.5q0 -8 -12 -12.5
t-27 -5.5t-27 1.5t-12 9.5zM325 104q1 6 1 9.5v5.5v66q0 4 -9 11.5t-21 14.5t-24.5 12t-18.5 5q-20 0 -38.5 -4.5t-38.5 -11.5q-11 -4 -18.5 -9.5t-21.5 -10.5q-20 -7 -28 -26.5t-6 -42.5t13 -45t30 -34t45.5 -10t59.5 27l24 17q14 9 25.5 13.5t25.5 12.5z" />
    <glyph glyph-name="aacute" unicode="&#xe1;" horiz-adv-x="435" 
d="M374 699q11 -3 11 -14q0 -2 -1 -4t-5 -9t-13.5 -20t-25.5 -36q-37 -39 -55.5 -63.5t-32.5 -24.5q-7 0 -11.5 13.5t-4.5 21.5q0 15 10 29.5t24 29t29.5 27.5t26.5 24q4 4 6.5 9.5t5 10t6 7.5t9.5 3q5 0 10.5 -1t10.5 -3zM331 65q-20 -36 -48 -56.5t-59.5 -27t-62.5 0.5
t-55.5 26t-40 49t-15.5 71q0 7 1 15t5 27q13 41 42 63t65.5 29.5t77 2t76.5 -20.5q1 0 1 -0.5t1 -0.5q2 0 4 5q1 11 1.5 21.5t0.5 27.5v9t0.5 14t0.5 23v37v24t-2.5 27t-7.5 22t-15 9q-6 0 -12.5 0.5t-13.5 0.5q-19 0 -42.5 -6t-46.5 -16.5t-43 -25t-32 -31.5
q-9 -10 -25 -14q-8 -2 -10 -2q-5 0 -12 3t-7 5q0 14 14.5 31.5t35 34.5t42.5 31t36 20l19 7q31 8 60.5 7t63.5 -9q27 -14 50 -33q14 -9 23 -23.5t14.5 -32t7.5 -36t2 -34.5q0 -3 -1 -21t-1.5 -38.5t-1.5 -37t-1 -17.5q0 -50 -5.5 -105.5t-4.5 -106.5q0 -8 -12 -12.5
t-27 -5.5t-27 1.5t-12 9.5zM325 104q1 6 1 9.5v5.5v66q0 4 -9 11.5t-21 14.5t-24.5 12t-18.5 5q-20 0 -38.5 -4.5t-38.5 -11.5q-11 -4 -18.5 -9.5t-21.5 -10.5q-20 -7 -28 -26.5t-6 -42.5t13 -45t30 -34t45.5 -10t59.5 27l24 17q14 9 25.5 13.5t25.5 12.5z" />
    <glyph glyph-name="acircumflex" unicode="&#xe2;" horiz-adv-x="431" 
d="M367 579q2 -2 2 -10q0 -13 -6.5 -17t-13.5 -6q-5 2 -11 5t-11 7q-9 8 -20.5 25.5t-23 35.5t-21.5 31.5t-15 13.5l-1 -1t-5.5 -6.5t-13 -16.5t-23.5 -32l-19 -22q-5 -6 -10 -10t-10 -9l-19 -19q0 -1 -11 1.5t-11 4.5q1 11 11 29t23 36.5t26.5 35t21.5 24.5l20 19
q5 4 12 11.5t10 7.5q4 0 12 -9t13 -14q4 -3 11 -13t18.5 -25.5t27.5 -35t37 -41.5zM331 65q-20 -36 -48 -56.5t-59.5 -27t-62.5 0.5t-55.5 26t-40 49t-15.5 71q0 7 1 15t5 27q13 41 42 63t65.5 29.5t77 2t76.5 -20.5q1 0 1 -0.5t1 -0.5q2 0 4 5q1 11 1.5 21.5t0.5 27.5v9
t0.5 14t0.5 23v37v24t-2.5 27t-7.5 22t-15 9q-6 0 -12.5 0.5t-13.5 0.5q-19 0 -42.5 -6t-46.5 -16.5t-43 -25t-32 -31.5q-9 -10 -25 -14q-8 -2 -10 -2q-5 0 -12 3t-7 5q0 14 14.5 31.5t35 34.5t42.5 31t36 20l19 7q31 8 60.5 7t63.5 -9q27 -14 50 -33q14 -9 23 -23.5
t14.5 -32t7.5 -36t2 -34.5q0 -3 -1 -21t-1.5 -38.5t-1.5 -37t-1 -17.5q0 -50 -5.5 -105.5t-4.5 -106.5q0 -8 -12 -12.5t-27 -5.5t-27 1.5t-12 9.5zM325 104q1 6 1 9.5v5.5v66q0 4 -9 11.5t-21 14.5t-24.5 12t-18.5 5q-20 0 -38.5 -4.5t-38.5 -11.5q-11 -4 -18.5 -9.5
t-21.5 -10.5q-20 -7 -28 -26.5t-6 -42.5t13 -45t30 -34t45.5 -10t59.5 27l24 17q14 9 25.5 13.5t25.5 12.5z" />
    <glyph glyph-name="atilde" unicode="&#xe3;" horiz-adv-x="431" 
d="M272 608q7 -15 20.5 -27t30.5 -12t21 9.5t4 22.5t0.5 26.5t12.5 22.5q1 1 5 1q5 0 11 -5t11 -11.5t8.5 -14t3.5 -12.5v-23q0 -7 -3.5 -16t-11.5 -17t-20.5 -13.5t-29.5 -5.5q-20 1 -33.5 4.5t-22.5 8.5t-14.5 10t-9.5 10q-8 8 -14.5 18t-12.5 18.5t-12 14t-13 5.5
q-12 0 -21 -6.5t-14.5 -15t-8 -17t-2.5 -12.5q0 -5 0.5 -8.5t0.5 -8.5q-2 -9 -11 -9h-2t-5.5 1l-13.5 3t-24 6q-8 1 -15.5 5t-7.5 11q0 13 7 29.5t19.5 31t31 24t42.5 9.5q32 0 57 -16.5t36 -40.5zM331 65q-20 -36 -48 -56.5t-59.5 -27t-62.5 0.5t-55.5 26t-40 49t-15.5 71
q0 7 1 15t5 27q13 41 42 63t65.5 29.5t77 2t76.5 -20.5q1 0 1 -0.5t1 -0.5q2 0 4 5q1 11 1.5 21.5t0.5 27.5v9t0.5 14t0.5 23v37v24t-2.5 27t-7.5 22t-15 9q-6 0 -12.5 0.5t-13.5 0.5q-19 0 -42.5 -6t-46.5 -16.5t-43 -25t-32 -31.5q-9 -10 -25 -14q-8 -2 -10 -2q-5 0 -12 3
t-7 5q0 14 14.5 31.5t35 34.5t42.5 31t36 20l19 7q31 8 60.5 7t63.5 -9q27 -14 50 -33q14 -9 23 -23.5t14.5 -32t7.5 -36t2 -34.5q0 -3 -1 -21t-1.5 -38.5t-1.5 -37t-1 -17.5q0 -50 -5.5 -105.5t-4.5 -106.5q0 -8 -12 -12.5t-27 -5.5t-27 1.5t-12 9.5zM325 104q1 6 1 9.5
v5.5v66q0 4 -9 11.5t-21 14.5t-24.5 12t-18.5 5q-20 0 -38.5 -4.5t-38.5 -11.5q-11 -4 -18.5 -9.5t-21.5 -10.5q-20 -7 -28 -26.5t-6 -42.5t13 -45t30 -34t45.5 -10t59.5 27l24 17q14 9 25.5 13.5t25.5 12.5z" />
    <glyph glyph-name="adieresis" unicode="&#xe4;" horiz-adv-x="465" 
d="M112 631q0 6 -2 8.5t-4 10.5l2 12q0 2 3.5 5.5t7.5 6.5t7.5 5t2.5 2h5q2 2 4 2q9 0 18 -3t18 -3q3 0 6 2t5 2q1 0 1 -1.5t1 -2.5q8 -3 15 -3.5t7 -5.5q0 -1 -1 -3.5t-2 -5.5q0 -5 1 -7v-8q-5 -12 -8.5 -23t-3.5 -10q-5 -11 -12.5 -15t-13.5 -4q-5 0 -9 2t-9 3
q-5 0 -11.5 4.5t-12.5 10t-10.5 11t-4.5 8.5zM410 635l-4 -12q-5 -12 -7 -21.5t-13 -9.5q-1 0 -1.5 -1.5t-2.5 -1.5q-1 0 -2 1t-3 1l-20 5l-5 4q-4 1 -9.5 4t-7.5 3l-14 17q-3 1 -3 4q0 2 1.5 4t1.5 4q0 4 -1 6v3q8 13 14 21t14 10q9 2 13.5 3.5t6.5 2.5t4 1h7q1 0 2.5 -1
t7.5 -6q9 -11 12.5 -16t4.5 -11zM341 65q-19 -36 -47.5 -56.5t-60 -27t-62.5 0.5t-55.5 26t-40 49t-15.5 71q0 7 1 15t5 27q13 41 42 63t65.5 29.5t77 2t76.5 -20.5q1 0 1 -0.5t1 -0.5q2 0 4 5q1 11 1.5 21.5t0.5 27.5v9t0.5 14t0.5 23v37v24t-2.5 27t-7.5 22t-15 9
q-6 0 -12.5 0.5t-13.5 0.5q-19 0 -42.5 -6t-46.5 -16.5t-43 -25t-32 -31.5q-9 -10 -25 -14q-8 -2 -10 -2q-5 0 -12 3t-7 5q0 14 14.5 31.5t35 34.5t42.5 31t36 20l19 7q31 8 60.5 7t63.5 -9q27 -14 50 -33q14 -9 23 -23.5t14.5 -32t7.5 -36t2 -34.5q0 -3 -1 -21t-1.5 -38.5
t-1.5 -37t-1 -17.5q0 -50 -5.5 -105.5t-4.5 -106.5q0 -8 -12 -12.5t-27 -5.5t-27 1.5t-12 9.5zM335 104q1 6 1 9.5v5.5v66q0 4 -9 11.5t-21 14.5t-24.5 12t-18.5 5q-20 0 -38.5 -4.5t-38.5 -11.5q-11 -4 -18.5 -9.5t-21.5 -10.5q-20 -7 -28 -26.5t-6 -42.5t13 -45t30 -34
t45.5 -10t59.5 27l24 17q14 9 25.5 13.5t25.5 12.5z" />
    <glyph glyph-name="aring" unicode="&#xe5;" horiz-adv-x="431" 
d="M269 552q-49 4 -79.5 29t-30.5 81q0 21 5.5 31.5t14.5 16t21 8t24 7.5q20 8 43 8q9 0 19.5 -2t20.5 -6.5t17.5 -12.5t9.5 -19t7 -21.5t5 -21.5q0 -17 -7.5 -34t-18.5 -31.5t-24.5 -23.5t-26.5 -9zM305 669q-3 19 -19.5 22.5t-32.5 3.5q-23 0 -36 -11.5t-13 -37.5
q0 -7 3.5 -16.5t11 -18t18 -14.5t24.5 -6q22 0 34 15.5t12 32.5v6.5t-2 23.5zM331 65q-20 -36 -48 -56.5t-59.5 -27t-62.5 0.5t-55.5 26t-40 49t-15.5 71q0 7 1 15t5 27q13 41 42 63t65.5 29.5t77 2t76.5 -20.5q1 0 1 -0.5t1 -0.5q2 0 4 5q1 11 1.5 21.5t0.5 27.5v9t0.5 14
t0.5 23v37v24t-2.5 27t-7.5 22t-15 9q-6 0 -12.5 0.5t-13.5 0.5q-19 0 -42.5 -6t-46.5 -16.5t-43 -25t-32 -31.5q-9 -10 -25 -14q-8 -2 -10 -2q-5 0 -12 3t-7 5q0 14 14.5 31.5t35 34.5t42.5 31t36 20l19 7q31 8 60.5 7t63.5 -9q27 -14 50 -33q14 -9 23 -23.5t14.5 -32
t7.5 -36t2 -34.5q0 -3 -1 -21t-1.5 -38.5t-1.5 -37t-1 -17.5q0 -50 -5.5 -105.5t-4.5 -106.5q0 -8 -12 -12.5t-27 -5.5t-27 1.5t-12 9.5zM325 104q1 6 1 9.5v5.5v66q0 4 -9 11.5t-21 14.5t-24.5 12t-18.5 5q-20 0 -38.5 -4.5t-38.5 -11.5q-11 -4 -18.5 -9.5t-21.5 -10.5
q-20 -7 -28 -26.5t-6 -42.5t13 -45t30 -34t45.5 -10t59.5 27l24 17q14 9 25.5 13.5t25.5 12.5z" />
    <glyph glyph-name="ae" unicode="&#xe6;" horiz-adv-x="670" 
d="M667 150q4 -2 3 -6.5t-1 -9.5q-14 -23 -37 -46t-52 -40.5t-61.5 -28.5t-63.5 -9.5t-59 16.5t-48 49q-10 19 -12 22.5t-4 5.5q-16 -19 -30.5 -38.5t-30 -36t-33.5 -27t-42 -10.5q-25 0 -48.5 8t-42.5 22.5t-32.5 34.5t-19.5 44q-38 163 165 179q24 0 36 -1t19 -3.5
t11.5 -6.5t13.5 -11q3 -2 5 -3l4 -2l2 -1q2 0 4 6q0 3 0.5 33t2.5 93q0 31 -3.5 48.5t-14 25t-30.5 5.5t-54 -11q1 1 -12 -4t-31 -14.5t-36 -21.5t-26 -24q-6 -8 -17.5 -12t-14.5 -4q-4 0 -12.5 3t-6.5 8q-2 -1 1.5 3.5t9 12t12 16.5t10.5 17q14 25 39.5 42t56.5 26t63.5 9
t61 -9t49.5 -27.5t28 -47.5q14 26 29 48t36 22q5 0 11.5 -1.5t13.5 -1.5q13 0 26.5 2t27.5 2q9 0 27.5 -5t51.5 -22q17 -9 24 -25.5t7 -39.5q0 -41 -7.5 -68t-21.5 -44.5t-33 -28t-41.5 -19.5t-48 -19t-52.5 -26q-3 0 -9.5 -4.5t-13 -13t-11.5 -19.5t-5 -24q0 -23 3.5 -37.5
t8.5 -22.5t10.5 -11t10.5 -3q38 0 66.5 9.5t52 23t44 29t42.5 27.5q14 8 13 8q2 0 5 -1t11 -9zM169 62q18 -6 38.5 1t40.5 20.5t37 30t28 30.5q-1 26 -0.5 35.5t0.5 17.5v1q-9 18 -28 25t-41 7.5t-44.5 -3.5t-38.5 -9q-30 -8 -44 -28t-12.5 -44t18 -47.5t46.5 -36.5z
M468 441q-7 -17 -18.5 -42.5t-21.5 -53t-16.5 -54t-3.5 -44.5q11 5 27 13.5t30 19.5q9 6 23 13t28 15.5t26.5 18.5t18.5 24q3 7 7 18t6.5 24t2.5 26t-5 24q-4 6 -12.5 9t-18 4t-19.5 0.5t-16 -0.5q-3 0 -6 -1.5t-5 -1.5q-7 0 -16 -1.5t-11 -10.5z" />
    <glyph glyph-name="ccedilla" unicode="&#xe7;" horiz-adv-x="444" 
d="M418 70q-3 -18 -14.5 -31.5t-28 -23.5t-36.5 -16.5t-39 -9.5q0 -3 -0.5 -6.5t-0.5 -5.5q0 -9 -4 -20.5t-6 -21.5q0 -1 2.5 -3t4.5 -2h7q18 0 32 -9q10 -7 17 -17.5t7 -24.5q0 -8 -1.5 -17t-1.5 -18q0 -14 -8 -24t-20 -16.5t-25 -9.5t-23 -3q-16 0 -31.5 14t-15.5 34
q0 5 4 13t9 8q6 0 11 -5.5t9.5 -11.5t9.5 -11.5t11 -5.5q11 0 21 6.5t10 16.5q0 6 -1 15t-4 17.5t-8.5 14.5t-14.5 6q-7 0 -11 -4.5t-7 -4.5q-13 0 -18.5 10.5t-6.5 25t1 29t3 23.5v3h-1q-37 0 -69.5 14.5t-57 38.5t-40 55.5t-18.5 65.5q-2 19 -3.5 41t-1.5 45q0 45 13.5 94
t40.5 89t67.5 65.5t93.5 23.5q16 0 38 -4t42 -14.5t35 -28t18 -44.5q0 -14 -6.5 -27.5t-25.5 -13.5q-12 0 -15.5 12.5t-10.5 28t-21 28.5t-47 13q-2 0 -4.5 0.5t-5.5 0.5q-8 0 -8 -6q3 -1 3 -11q0 -1 -0.5 -2t-0.5 -4q0 -5 -7 -23t-16 -39t-17.5 -40t-11.5 -24
q-8 -18 -16 -46t-12.5 -59t-5 -63t6.5 -57t22.5 -41t42.5 -16q12 0 25.5 2.5t25.5 6t20 6t10 2.5q10 1 20 7.5t19 14t16.5 13.5t12.5 6q3 0 10 -4t7 -9t0.5 -5.5t-0.5 -5.5z" />
    <glyph glyph-name="egrave" unicode="&#xe8;" horiz-adv-x="448" 
d="M176 695q5 2 10.5 3t10.5 1q6 0 9.5 -3t6 -7.5t4.5 -10t7 -9.5q11 -11 26.5 -24t29.5 -27.5t24 -29t10 -29.5q0 -8 -4.5 -21.5t-11.5 -13.5q-14 0 -32.5 24.5t-55.5 63.5q-17 23 -26 36t-13 20t-5 9t-1 4q0 11 11 14zM446 127q2 -4 2 -8q0 -13 -15 -28.5t-36 -30.5
t-43 -27t-35 -18q-11 -5 -21 -9.5t-23 -9.5q-28 -8 -59.5 -11.5t-61.5 5.5q-16 9 -27 16.5t-19.5 16t-16 19.5t-16.5 27q-14 23 -19.5 48t-5.5 52q0 19 2 38t5 38t7.5 53.5t11.5 70.5t17.5 68.5t25.5 47.5q0 -1 1.5 2t5.5 6.5t10.5 6.5t15.5 3q4 0 7.5 -2t7.5 -2
q10 0 20.5 6t18.5 6q7 0 13 -1.5t14 -1.5q14 0 29 2.5t31 2.5q26 0 46 -6.5t45 -23.5q33 -22 33 -74q0 -49 -13 -79t-34.5 -49t-49 -31t-56 -24t-57 -28.5t-50.5 -44.5q-6 -8 -8 -18t-2 -21q0 -47 13 -65t24 -18q14 0 27.5 1.5t27.5 5.5q26 9 60 22.5t79 45.5q15 8 25 16
t24 16q11 0 19 -11zM173 316q0 -17 -3.5 -33.5t-5.5 -34.5q21 13 40.5 20.5t38.5 15.5t36.5 19t34.5 31l15 24q5 16 9.5 29t4.5 32t-5 29.5t-14 15t-22.5 5t-30.5 0.5q-5 0 -10.5 -1t-13.5 -1q-5 0 -12.5 -3t-11.5 -12q-5 -12 -13.5 -28t-16.5 -33.5t-14 -36.5t-6 -38z" />
    <glyph glyph-name="eacute" unicode="&#xe9;" horiz-adv-x="448" 
d="M378 695q11 -3 11 -14q0 -2 -1 -4t-5 -9t-13.5 -20t-25.5 -36q-37 -39 -55.5 -63.5t-32.5 -24.5q-7 0 -11.5 13.5t-4.5 21.5q0 15 10 29.5t24 29t29.5 27.5t26.5 24q4 4 6.5 9.5t5 10t6 7.5t9.5 3q5 0 10.5 -1t10.5 -3zM446 127q2 -4 2 -8q0 -13 -15 -28.5t-36 -30.5
t-43 -27t-35 -18q-11 -5 -21 -9.5t-23 -9.5q-28 -8 -59.5 -11.5t-61.5 5.5q-16 9 -27 16.5t-19.5 16t-16 19.5t-16.5 27q-14 23 -19.5 48t-5.5 52q0 19 2 38t5 38t7.5 53.5t11.5 70.5t17.5 68.5t25.5 47.5q0 -1 1.5 2t5.5 6.5t10.5 6.5t15.5 3q4 0 7.5 -2t7.5 -2
q10 0 20.5 6t18.5 6q7 0 13 -1.5t14 -1.5q14 0 29 2.5t31 2.5q26 0 46 -6.5t45 -23.5q33 -22 33 -74q0 -49 -13 -79t-34.5 -49t-49 -31t-56 -24t-57 -28.5t-50.5 -44.5q-6 -8 -8 -18t-2 -21q0 -47 13 -65t24 -18q14 0 27.5 1.5t27.5 5.5q26 9 60 22.5t79 45.5q15 8 25 16
t24 16q11 0 19 -11zM173 316q0 -17 -3.5 -33.5t-5.5 -34.5q21 13 40.5 20.5t38.5 15.5t36.5 19t34.5 31l15 24q5 16 9.5 29t4.5 32t-5 29.5t-14 15t-22.5 5t-30.5 0.5q-5 0 -10.5 -1t-13.5 -1q-5 0 -12.5 -3t-11.5 -12q-5 -12 -13.5 -28t-16.5 -33.5t-14 -36.5t-6 -38z" />
    <glyph glyph-name="ecircumflex" unicode="&#xea;" horiz-adv-x="448" 
d="M367 607q2 -2 2 -10q0 -13 -6.5 -17t-13.5 -6q-5 2 -11 5t-11 7q-9 8 -20.5 25.5t-23 35.5t-21.5 31.5t-15 13.5l-1 -1t-5.5 -6.5t-13 -16.5t-23.5 -32l-19 -22q-5 -6 -10 -10t-10 -9l-19 -19q0 -1 -11 1.5t-11 4.5q1 11 11 29t23 36.5t26.5 35t21.5 24.5l20 19
q5 4 12 11.5t10 7.5q4 0 12 -9t13 -14q4 -3 11 -13t18.5 -25.5t27.5 -35t37 -41.5zM446 127q2 -4 2 -8q0 -13 -15 -28.5t-36 -30.5t-43 -27t-35 -18q-11 -5 -21 -9.5t-23 -9.5q-28 -8 -59.5 -11.5t-61.5 5.5q-16 9 -27 16.5t-19.5 16t-16 19.5t-16.5 27q-14 23 -19.5 48
t-5.5 52q0 19 2 38t5 38t7.5 53.5t11.5 70.5t17.5 68.5t25.5 47.5q0 -1 1.5 2t5.5 6.5t10.5 6.5t15.5 3q4 0 7.5 -2t7.5 -2q10 0 20.5 6t18.5 6q7 0 13 -1.5t14 -1.5q14 0 29 2.5t31 2.5q26 0 46 -6.5t45 -23.5q33 -22 33 -74q0 -49 -13 -79t-34.5 -49t-49 -31t-56 -24
t-57 -28.5t-50.5 -44.5q-6 -8 -8 -18t-2 -21q0 -47 13 -65t24 -18q14 0 27.5 1.5t27.5 5.5q26 9 60 22.5t79 45.5q15 8 25 16t24 16q11 0 19 -11zM173 316q0 -17 -3.5 -33.5t-5.5 -34.5q21 13 40.5 20.5t38.5 15.5t36.5 19t34.5 31l15 24q5 16 9.5 29t4.5 32t-5 29.5t-14 15
t-22.5 5t-30.5 0.5q-5 0 -10.5 -1t-13.5 -1q-5 0 -12.5 -3t-11.5 -12q-5 -12 -13.5 -28t-16.5 -33.5t-14 -36.5t-6 -38z" />
    <glyph glyph-name="edieresis" unicode="&#xeb;" horiz-adv-x="448" 
d="M109 615q0 2 1 2.5t1 1.5q0 4 -3.5 7t-4.5 8l2 12q0 2 3.5 5.5t7.5 6.5t7.5 5t2.5 2h5q2 2 4 2q9 0 18 -3t18 -3q3 0 6 2t5 2q1 0 1 -1.5t1 -2.5q8 -3 15 -3.5t7 -5.5q0 -1 -1 -3.5t-2 -5.5q0 -5 1 -7v-8q-5 -12 -8.5 -23t-3.5 -10q-5 -11 -12.5 -15t-13.5 -4q-5 0 -9 2
t-9 3q-5 0 -11.5 4.5t-12.5 10t-10.5 11t-4.5 8.5zM407 619l-4 -12q-5 -12 -7 -21.5t-13 -9.5q-1 0 -1.5 -1.5t-2.5 -1.5q-1 0 -2 1t-3 1l-20 5l-5 4q-4 1 -9.5 4t-7.5 3l-14 17q-3 1 -3 4q0 2 1.5 4t1.5 4q0 4 -1 6v3q8 13 14 21t14 10q9 2 13.5 3.5t6.5 2.5t4 1h7
q1 0 2.5 -1t7.5 -6q9 -11 12.5 -16t4.5 -11zM446 127q2 -4 2 -8q0 -13 -15 -28.5t-36 -30.5t-43 -27t-35 -18q-11 -5 -21 -9.5t-23 -9.5q-28 -8 -59.5 -11.5t-61.5 5.5q-16 9 -27 16.5t-19.5 16t-16 19.5t-16.5 27q-14 23 -19.5 48t-5.5 52q0 19 2 38t5 38t7.5 53.5
t11.5 70.5t17.5 68.5t25.5 47.5q0 -1 1.5 2t5.5 6.5t10.5 6.5t15.5 3q4 0 7.5 -2t7.5 -2q10 0 20.5 6t18.5 6q7 0 13 -1.5t14 -1.5q14 0 29 2.5t31 2.5q26 0 46 -6.5t45 -23.5q33 -22 33 -74q0 -49 -13 -79t-34.5 -49t-49 -31t-56 -24t-57 -28.5t-50.5 -44.5q-6 -8 -8 -18
t-2 -21q0 -47 13 -65t24 -18q14 0 27.5 1.5t27.5 5.5q26 9 60 22.5t79 45.5q15 8 25 16t24 16q11 0 19 -11zM173 316q0 -17 -3.5 -33.5t-5.5 -34.5q21 13 40.5 20.5t38.5 15.5t36.5 19t34.5 31l15 24q5 16 9.5 29t4.5 32t-5 29.5t-14 15t-22.5 5t-30.5 0.5q-5 0 -10.5 -1
t-13.5 -1q-5 0 -12.5 -3t-11.5 -12q-5 -12 -13.5 -28t-16.5 -33.5t-14 -36.5t-6 -38z" />
    <glyph glyph-name="igrave" unicode="&#xec;" horiz-adv-x="271" 
d="M106 700q5 2 10.5 3t10.5 1q6 0 9.5 -3t6 -7.5t4.5 -10t7 -9.5q11 -11 26.5 -24t29.5 -27.5t24 -29t10 -29.5q0 -8 -4.5 -21.5t-11.5 -13.5q-14 0 -32.5 24.5t-55.5 63.5q-17 23 -26 36t-13 20t-5 9t-1 4q0 11 11 14zM267 165q1 -25 2 -35.5t1 -18.5v-12t-0.5 -25t-1 -27
t-0.5 -19q0 -14 1 -20t1 -11q-2 -3 -4 -6.5t-8 -5.5q-13 -4 -33.5 -4.5t-30.5 11.5q-8 7 -9 17.5t-1 20.5v14v27v53t-1 91q0 8 -0.5 16t-0.5 16q0 3 -1 7t-2.5 20t-3 49t-3.5 93q0 16 5.5 32t5.5 33q0 3 -2 8.5t-2 7.5q0 3 8 4.5t17 2t16.5 1t6.5 0.5q8 2 15 2
q10 0 13.5 -12.5t2.5 -20.5q-2 -2 -2 -10v-6t1 -33t3 -88.5t7 -171.5z" />
    <glyph glyph-name="iacute" unicode="&#xed;" horiz-adv-x="271" 
d="M255 695q11 -3 11 -14q0 -2 -1 -4t-5 -9t-13.5 -20t-25.5 -36q-37 -39 -55.5 -63.5t-32.5 -24.5q-7 0 -11.5 13.5t-4.5 21.5q0 15 10 29.5t24 29t29.5 27.5t26.5 24q4 4 6.5 9.5t5 10t6 7.5t9.5 3q5 0 10.5 -1t10.5 -3zM190 165q1 -25 2 -35.5t1 -18.5v-12t-0.5 -25
t-1 -27t-0.5 -19q0 -14 1 -20t1 -11q-2 -3 -4 -6.5t-8 -5.5q-13 -4 -33.5 -4.5t-30.5 11.5q-8 7 -9 17.5t-1 20.5v14v27v53t-1 91q0 8 -0.5 16t-0.5 16q0 3 -1 7t-2.5 20t-3 49t-3.5 93q0 16 5.5 32t5.5 33q0 3 -2 8.5t-2 7.5q0 3 8 4.5t17 2t16.5 1t6.5 0.5q8 2 15 2
q10 0 13.5 -12.5t2.5 -20.5q-2 -2 -2 -10v-6t1 -33t3 -88.5t7 -171.5z" />
    </font>
</defs>
</svg>
