<svg width="51" height="50" viewBox="0 0 51 50" fill="none" xmlns="http://www.w3.org/2000/svg">
<path d="M39.3516 24.0877C41.3493 22.6726 42.6532 20.3427 42.6532 17.7083C42.6532 13.3936 39.1554 9.89581 34.8407 9.89581C31.9243 9.89581 29.3812 11.4938 28.0391 13.8619C31.9081 14.8451 34.9128 17.9937 35.6873 21.9417C35.6873 21.9417 35.8793 22.9166 35.9448 22.926C37.2239 23.1084 38.3875 23.4948 39.3516 24.0877Z" fill="#FFB900"/>
<path d="M33.5373 5.72915C33.5373 6.30444 34.0036 6.77081 34.5789 6.77081C35.1542 6.77081 35.6206 6.30444 35.6206 5.72915V3.12498C35.6206 2.54968 35.1542 2.08331 34.5789 2.08331C34.0036 2.08331 33.5373 2.54968 33.5373 3.12498V5.72915Z" fill="#231815"/>
<path d="M29.144 8.36637C28.6457 8.65401 28.0087 8.48331 27.721 7.98509L26.4189 5.72982C26.1313 5.23159 26.302 4.59452 26.8002 4.30687C27.2984 4.01922 27.9355 4.18993 28.2231 4.68815L29.5252 6.94342C29.8129 7.44164 29.6422 8.07872 29.144 8.36637Z" fill="#231815"/>
<path d="M26.1387 13.5631C26.8824 13.6106 27.6048 13.7362 28.2979 13.9317C29.6038 11.6747 32.0443 10.1562 34.8394 10.1562C39.0103 10.1562 42.3914 13.5374 42.3914 17.7083C42.3914 20.2973 41.0887 22.5819 39.103 23.9426C39.7514 24.3056 40.3185 24.7559 40.7812 25.2941C43.0299 23.5302 44.4748 20.788 44.4748 17.7083C44.4748 12.3868 40.1608 8.0729 34.8394 8.0729C31.0018 8.0729 27.6883 10.3163 26.1387 13.5631Z" fill="#231815"/>
<path d="M49.4227 19.0104C49.998 19.0104 50.4644 18.544 50.4644 17.9687C50.4644 17.3934 49.998 16.9271 49.4227 16.9271H46.8185C46.2432 16.9271 45.7769 17.3934 45.7769 17.9687C45.7769 18.544 46.2432 19.0104 46.8185 19.0104H49.4227Z" fill="#231815"/>
<path d="M46.8177 26.1276C47.3159 26.4153 47.953 26.2446 48.2406 25.7463C48.5283 25.2481 48.3576 24.611 47.8594 24.3234L45.6041 23.0213C45.1059 22.7337 44.4688 22.9044 44.1811 23.4026C43.8935 23.9008 44.0642 24.5379 44.5624 24.8255L46.8177 26.1276Z" fill="#231815"/>
<path d="M40.0814 8.10594C39.5832 7.81829 39.4125 7.18122 39.7002 6.683L41.0023 4.42772C41.2899 3.9295 41.927 3.7588 42.4252 4.04645C42.9234 4.3341 43.0941 4.97117 42.8065 5.46939L41.5044 7.72466C41.2167 8.22289 40.5797 8.39359 40.0814 8.10594Z" fill="#231815"/>
<path d="M44.5631 10.5911C44.0649 10.8787 43.8942 11.5158 44.1818 12.014C44.4694 12.5123 45.1065 12.683 45.6047 12.3953L47.86 11.0932C48.3582 10.8056 48.5289 10.1685 48.2413 9.67029C47.9536 9.17207 47.3166 9.00136 46.8184 9.28901L44.5631 10.5911Z" fill="#231815"/>
<path d="M16.642 36.4584C12.3103 36.4584 8.79883 33.0383 8.79883 28.8195C8.79883 25.1345 11.4778 22.059 15.0423 21.3396C16.2677 16.8499 20.47 13.5417 25.4655 13.5417C31.1129 13.5417 35.7464 17.7695 36.2114 23.1528C39.5559 23.5999 42.1322 26.3941 42.1322 29.7743C42.1322 33.4658 39.0596 36.4584 35.2694 36.4584H16.642Z" stroke="#231815" stroke-width="2" stroke-linecap="round" stroke-linejoin="round"/>
</svg>
