<svg width="39" height="11" viewBox="0 0 39 11" fill="none" xmlns="http://www.w3.org/2000/svg">
<path d="M36.6514 2.23691L33.1164 5.40711L36.6664 8.77769C36.8279 8.93022 36.8339 9.18742 36.6814 9.34892C36.6006 9.43266 36.4959 9.47453 36.3883 9.47453C36.2896 9.47453 36.1879 9.43865 36.1101 9.36388L32.5152 5.94843L31.5073 6.85164C31.4326 6.92043 31.3339 6.95632 31.2382 6.95632C31.1425 6.95632 31.0468 6.92342 30.969 6.85463L29.988 5.97834L26.3722 9.36089C26.2945 9.43266 26.1958 9.46855 26.0971 9.46855C25.9894 9.46855 25.8817 9.42369 25.801 9.33995C25.6485 9.17546 25.6574 8.92125 25.8189 8.76872L29.3809 5.43402L25.804 2.23691C25.6365 2.08737 25.6215 1.83315 25.7711 1.66567C25.9206 1.49819 26.1748 1.48324 26.3423 1.63277L30.2124 5.09607C30.2363 5.11401 30.2572 5.13196 30.2781 5.15289C30.2781 5.15588 30.2811 5.15887 30.2841 5.16187L31.2352 6.01124L36.1101 1.63576C36.2776 1.48623 36.5318 1.50118 36.6814 1.66567C36.8309 1.83315 36.8159 2.08737 36.6514 2.23691Z" fill="white"/>
<path fill-rule="evenodd" clip-rule="evenodd" d="M0 4.99988L24 4.99988V1.76742C24 0.792428 24.7926 -0.000122028 25.7675 -0.00012207L36.6898 -0.000121594C37.6648 -0.000121637 38.4573 0.795419 38.4543 1.77041V9.23234C38.4543 10.2073 37.6618 10.9999 36.6868 10.9999L25.7675 10.9999C24.7925 10.9999 24 10.2073 24 9.23234V5.99988L4.37176e-08 5.99988L0 4.99988ZM37.6498 9.23234C37.6498 9.76171 37.2191 10.1924 36.6898 10.1924H25.7675C25.2382 10.1924 24.8075 9.76171 24.8075 9.23234L24.8075 1.77041C24.8075 1.24104 25.2382 0.810372 25.7675 0.810373L36.6868 0.810373C37.2161 0.810373 37.6468 1.24104 37.6468 1.77041V9.23234H37.6498Z" fill="white"/>
</svg>
