<svg width="51" height="50" viewBox="0 0 51 50" fill="none" xmlns="http://www.w3.org/2000/svg">
<path fill-rule="evenodd" clip-rule="evenodd" d="M14.2178 20.4659C15.765 15.8284 20.2267 12.5 25.4642 12.5C31.3563 12.5 36.2736 16.7167 37.1511 22.2695C40.5914 23.0924 43.1725 26.1233 43.1725 29.7743C43.1725 34.0668 39.6075 37.5 35.2681 37.5H34.8392C34.2639 37.5 33.7975 37.0336 33.7975 36.4583C33.7975 35.883 34.2639 35.4167 34.8392 35.4167H35.2681C38.5091 35.4167 41.0892 32.8648 41.0892 29.7743C41.0892 26.9438 38.9273 24.567 36.0721 24.1852C35.5883 24.1205 35.2143 23.7286 35.1723 23.2424C34.7554 18.4156 30.5892 14.5833 25.4642 14.5833C20.9336 14.5833 17.1464 17.5818 16.046 21.6138C15.9423 21.9938 15.6332 22.2827 15.2471 22.3606C12.1403 22.9876 9.83919 25.6587 9.83919 28.8194C9.83919 32.2828 12.6046 35.16 16.1595 35.4005C16.7335 35.4393 17.1673 35.9361 17.1285 36.5101C17.0897 37.084 16.5929 37.5179 16.0189 37.479C11.4251 37.1683 7.75586 33.4327 7.75586 28.8194C7.75586 24.8284 10.5041 21.4929 14.2178 20.4659Z" fill="black"/>
<path d="M22.3398 35.9375C22.3398 36.8004 21.6403 37.5 20.7773 37.5C19.9144 37.5 19.2148 36.8004 19.2148 35.9375C19.2148 35.0746 19.9144 34.375 20.7773 34.375C21.6403 34.375 22.3398 35.0746 22.3398 35.9375Z" fill="black"/>
<path d="M27.0273 38.0208C27.0273 38.8838 26.3278 39.5833 25.4648 39.5833C24.6019 39.5833 23.9023 38.8838 23.9023 38.0208C23.9023 37.1579 24.6019 36.4583 25.4648 36.4583C26.3278 36.4583 27.0273 37.1579 27.0273 38.0208Z" fill="black"/>
<path d="M27.0273 32.8125C27.0273 33.6754 26.3278 34.375 25.4648 34.375C24.6019 34.375 23.9023 33.6754 23.9023 32.8125C23.9023 31.9496 24.6019 31.25 25.4648 31.25C26.3278 31.25 27.0273 31.9496 27.0273 32.8125Z" fill="black"/>
<path d="M31.7148 35.9375C31.7148 36.8004 31.0153 37.5 30.1523 37.5C29.2894 37.5 28.5898 36.8004 28.5898 35.9375C28.5898 35.0746 29.2894 34.375 30.1523 34.375C31.0153 34.375 31.7148 35.0746 31.7148 35.9375Z" fill="black"/>
<path d="M22.3398 40.1042C22.3398 40.9671 21.6403 41.6667 20.7773 41.6667C19.9144 41.6667 19.2148 40.9671 19.2148 40.1042C19.2148 39.2412 19.9144 38.5417 20.7773 38.5417C21.6403 38.5417 22.3398 39.2412 22.3398 40.1042Z" fill="black"/>
<path d="M31.7148 40.1042C31.7148 40.9671 31.0153 41.6667 30.1523 41.6667C29.2894 41.6667 28.5898 40.9671 28.5898 40.1042C28.5898 39.2412 29.2894 38.5417 30.1523 38.5417C31.0153 38.5417 31.7148 39.2412 31.7148 40.1042Z" fill="black"/>
</svg>
