<svg width="268" height="53" viewBox="0 0 268 53" fill="none" xmlns="http://www.w3.org/2000/svg">
<path d="M26.86 20.58C28.82 21.62 30.3 22.96 31.3 24.6C32.3 26.2 32.8 28.04 32.8 30.12C32.8 32.4 32.26 34.44 31.18 36.24C30.14 38 28.6 39.4 26.56 40.44C24.52 41.48 22.08 42 19.24 42H0.4V-2.86102e-06H19.18C21.9 -2.86102e-06 24.24 0.499998 26.2 1.5C28.16 2.5 29.64 3.86 30.64 5.58C31.68 7.3 32.2 9.24 32.2 11.4C32.2 13.4 31.76 15.18 30.88 16.74C30 18.3 28.66 19.58 26.86 20.58ZM18.88 18.36C21.28 18.36 23.08 17.8 24.28 16.68C25.52 15.52 26.14 13.86 26.14 11.7C26.14 7.58 23.72 5.52 18.88 5.52H6.4V18.36H18.88ZM18.94 36.48C21.42 36.48 23.3 35.92 24.58 34.8C25.86 33.68 26.5 32.04 26.5 29.88C26.5 27.8 25.86 26.24 24.58 25.2C23.3 24.12 21.42 23.58 18.94 23.58H6.4V36.48H18.94ZM81.7047 17.4H66.4047V42H60.7047V12H81.7047V17.4ZM101.312 42.6C98.3516 42.6 95.6516 41.92 93.2116 40.56C90.7716 39.16 88.8516 37.28 87.4516 34.92C86.0516 32.52 85.3516 29.88 85.3516 27C85.3516 24.12 86.0516 21.5 87.4516 19.14C88.8516 16.74 90.7716 14.86 93.2116 13.5C95.6516 12.1 98.3516 11.4 101.312 11.4C104.232 11.4 106.892 12.1 109.292 13.5C111.732 14.86 113.652 16.74 115.052 19.14C116.452 21.5 117.152 24.12 117.152 27C117.152 29.88 116.452 32.52 115.052 34.92C113.652 37.28 111.732 39.16 109.292 40.56C106.892 41.92 104.232 42.6 101.312 42.6ZM101.312 37.32C103.152 37.32 104.832 36.88 106.352 36C107.872 35.08 109.072 33.84 109.952 32.28C110.832 30.68 111.272 28.92 111.272 27C111.272 25.08 110.832 23.34 109.952 21.78C109.072 20.18 107.872 18.94 106.352 18.06C104.832 17.14 103.152 16.68 101.312 16.68C99.4316 16.68 97.7116 17.14 96.1516 18.06C94.6316 18.94 93.4316 20.18 92.5516 21.78C91.6716 23.34 91.2316 25.08 91.2316 27C91.2316 28.92 91.6716 30.68 92.5516 32.28C93.4316 33.84 94.6316 35.08 96.1516 36C97.7116 36.88 99.4316 37.32 101.312 37.32ZM141.668 11.4C144.308 11.4 146.708 12.08 148.868 13.44C151.028 14.76 152.728 16.6 153.968 18.96C155.208 21.32 155.828 24 155.828 27C155.828 30 155.208 32.68 153.968 35.04C152.728 37.4 151.028 39.26 148.868 40.62C146.708 41.94 144.308 42.6 141.668 42.6C139.668 42.6 137.788 42.16 136.028 41.28C134.268 40.36 132.768 39.1 131.528 37.5V52.2H125.828V12H131.228V16.86C132.508 15.14 134.048 13.8 135.848 12.84C137.648 11.88 139.588 11.4 141.668 11.4ZM140.708 37.32C142.468 37.32 144.048 36.88 145.448 36C146.848 35.12 147.948 33.9 148.748 32.34C149.548 30.74 149.948 28.96 149.948 27C149.948 25.04 149.548 23.28 148.748 21.72C147.948 20.12 146.848 18.88 145.448 18C144.048 17.12 142.468 16.68 140.708 16.68C138.948 16.68 137.348 17.12 135.908 18C134.468 18.88 133.348 20.12 132.548 21.72C131.748 23.28 131.348 25.04 131.348 27C131.348 28.96 131.748 30.74 132.548 32.34C133.348 33.9 134.468 35.12 135.908 36C137.348 36.88 138.948 37.32 140.708 37.32ZM178.095 42.6C175.135 42.6 172.435 41.92 169.995 40.56C167.555 39.16 165.635 37.28 164.235 34.92C162.835 32.52 162.135 29.88 162.135 27C162.135 24.12 162.835 21.5 164.235 19.14C165.635 16.74 167.555 14.86 169.995 13.5C172.435 12.1 175.135 11.4 178.095 11.4C181.015 11.4 183.675 12.1 186.075 13.5C188.515 14.86 190.435 16.74 191.835 19.14C193.235 21.5 193.935 24.12 193.935 27C193.935 29.88 193.235 32.52 191.835 34.92C190.435 37.28 188.515 39.16 186.075 40.56C183.675 41.92 181.015 42.6 178.095 42.6ZM178.095 37.32C179.935 37.32 181.615 36.88 183.135 36C184.655 35.08 185.855 33.84 186.735 32.28C187.615 30.68 188.055 28.92 188.055 27C188.055 25.08 187.615 23.34 186.735 21.78C185.855 20.18 184.655 18.94 183.135 18.06C181.615 17.14 179.935 16.68 178.095 16.68C176.215 16.68 174.495 17.14 172.935 18.06C171.415 18.94 170.215 20.18 169.335 21.78C168.455 23.34 168.015 25.08 168.015 27C168.015 28.92 168.455 30.68 169.335 32.28C170.215 33.84 171.415 35.08 172.935 36C174.495 36.88 176.215 37.32 178.095 37.32ZM232.386 36.6V48.6H226.866V42H203.946V48.6H198.426V36.6H202.266C203.106 34.2 203.526 29.6 203.526 22.8V12H228.186V36.6H232.386ZM222.486 36.72V17.28H209.226V22.62C209.226 28.62 208.766 33.32 207.846 36.72H222.486ZM252.287 11.4C255.367 11.4 258.047 12.06 260.327 13.38C262.647 14.7 264.427 16.58 265.667 19.02C266.907 21.42 267.527 24.24 267.527 27.48C267.527 28.32 267.507 28.94 267.467 29.34H242.867C243.267 31.66 244.347 33.58 246.107 35.1C247.907 36.58 249.987 37.32 252.347 37.32C256.227 37.32 258.987 35.9 260.627 33.06H266.507C265.547 35.86 263.767 38.16 261.167 39.96C258.567 41.72 255.627 42.6 252.347 42.6C249.427 42.6 246.787 41.94 244.427 40.62C242.067 39.26 240.227 37.4 238.907 35.04C237.587 32.64 236.927 29.96 236.927 27C236.927 24.04 237.587 21.38 238.907 19.02C240.227 16.62 242.047 14.76 244.367 13.44C246.727 12.08 249.367 11.4 252.287 11.4ZM252.167 16.44C249.807 16.44 247.767 17.18 246.047 18.66C244.367 20.14 243.327 22.04 242.927 24.36H261.347C261.107 21.96 260.127 20.04 258.407 18.6C256.727 17.16 254.647 16.44 252.167 16.44Z" fill="#222222"/>
</svg>
