<svg width="135" height="27" viewBox="0 0 135 27" fill="none" xmlns="http://www.w3.org/2000/svg">
<path d="M13.93 10.29C14.91 10.81 15.65 11.48 16.15 12.3C16.65 13.1 16.9 14.02 16.9 15.06C16.9 16.2 16.63 17.22 16.09 18.12C15.57 19 14.8 19.7 13.78 20.22C12.76 20.74 11.54 21 10.12 21H0.7V-1.43051e-06H10.09C11.45 -1.43051e-06 12.62 0.249999 13.6 0.75C14.58 1.25 15.32 1.93 15.82 2.79C16.34 3.65 16.6 4.62 16.6 5.7C16.6 6.7 16.38 7.59 15.94 8.37C15.5 9.15 14.83 9.79 13.93 10.29ZM9.94 9.18C11.14 9.18 12.04 8.9 12.64 8.34C13.26 7.76 13.57 6.93 13.57 5.85C13.57 3.79 12.36 2.76 9.94 2.76H3.7V9.18H9.94ZM9.97 18.24C11.21 18.24 12.15 17.96 12.79 17.4C13.43 16.84 13.75 16.02 13.75 14.94C13.75 13.9 13.43 13.12 12.79 12.6C12.15 12.06 11.21 11.79 9.97 11.79H3.7V18.24H9.97ZM41.3523 8.7H33.7023V21H30.8523V6H41.3523V8.7ZM51.1558 21.3C49.6758 21.3 48.3258 20.96 47.1058 20.28C45.8858 19.58 44.9258 18.64 44.2258 17.46C43.5258 16.26 43.1758 14.94 43.1758 13.5C43.1758 12.06 43.5258 10.75 44.2258 9.57C44.9258 8.37 45.8858 7.43 47.1058 6.75C48.3258 6.05 49.6758 5.7 51.1558 5.7C52.6158 5.7 53.9458 6.05 55.1458 6.75C56.3658 7.43 57.3258 8.37 58.0258 9.57C58.7258 10.75 59.0758 12.06 59.0758 13.5C59.0758 14.94 58.7258 16.26 58.0258 17.46C57.3258 18.64 56.3658 19.58 55.1458 20.28C53.9458 20.96 52.6158 21.3 51.1558 21.3ZM51.1558 18.66C52.0758 18.66 52.9158 18.44 53.6758 18C54.4358 17.54 55.0358 16.92 55.4758 16.14C55.9158 15.34 56.1358 14.46 56.1358 13.5C56.1358 12.54 55.9158 11.67 55.4758 10.89C55.0358 10.09 54.4358 9.47 53.6758 9.03C52.9158 8.57 52.0758 8.34 51.1558 8.34C50.2158 8.34 49.3558 8.57 48.5758 9.03C47.8158 9.47 47.2158 10.09 46.7758 10.89C46.3358 11.67 46.1158 12.54 46.1158 13.5C46.1158 14.46 46.3358 15.34 46.7758 16.14C47.2158 16.92 47.8158 17.54 48.5758 18C49.3558 18.44 50.2158 18.66 51.1558 18.66ZM71.3341 5.7C72.6541 5.7 73.8541 6.04 74.9341 6.72C76.0141 7.38 76.8641 8.3 77.4841 9.48C78.1041 10.66 78.4141 12 78.4141 13.5C78.4141 15 78.1041 16.34 77.4841 17.52C76.8641 18.7 76.0141 19.63 74.9341 20.31C73.8541 20.97 72.6541 21.3 71.3341 21.3C70.3341 21.3 69.3941 21.08 68.5141 20.64C67.6341 20.18 66.8841 19.55 66.2641 18.75V26.1H63.4141V6H66.1141V8.43C66.7541 7.57 67.5241 6.9 68.4241 6.42C69.3241 5.94 70.2941 5.7 71.3341 5.7ZM70.8541 18.66C71.7341 18.66 72.5241 18.44 73.2241 18C73.9241 17.56 74.4741 16.95 74.8741 16.17C75.2741 15.37 75.4741 14.48 75.4741 13.5C75.4741 12.52 75.2741 11.64 74.8741 10.86C74.4741 10.06 73.9241 9.44 73.2241 9C72.5241 8.56 71.7341 8.34 70.8541 8.34C69.9741 8.34 69.1741 8.56 68.4541 9C67.7341 9.44 67.1741 10.06 66.7741 10.86C66.3741 11.64 66.1741 12.52 66.1741 13.5C66.1741 14.48 66.3741 15.37 66.7741 16.17C67.1741 16.95 67.7341 17.56 68.4541 18C69.1741 18.44 69.9741 18.66 70.8541 18.66ZM89.5476 21.3C88.0676 21.3 86.7176 20.96 85.4976 20.28C84.2776 19.58 83.3176 18.64 82.6176 17.46C81.9176 16.26 81.5676 14.94 81.5676 13.5C81.5676 12.06 81.9176 10.75 82.6176 9.57C83.3176 8.37 84.2776 7.43 85.4976 6.75C86.7176 6.05 88.0676 5.7 89.5476 5.7C91.0076 5.7 92.3376 6.05 93.5376 6.75C94.7576 7.43 95.7176 8.37 96.4176 9.57C97.1176 10.75 97.4676 12.06 97.4676 13.5C97.4676 14.94 97.1176 16.26 96.4176 17.46C95.7176 18.64 94.7576 19.58 93.5376 20.28C92.3376 20.96 91.0076 21.3 89.5476 21.3ZM89.5476 18.66C90.4676 18.66 91.3076 18.44 92.0676 18C92.8276 17.54 93.4276 16.92 93.8676 16.14C94.3076 15.34 94.5276 14.46 94.5276 13.5C94.5276 12.54 94.3076 11.67 93.8676 10.89C93.4276 10.09 92.8276 9.47 92.0676 9.03C91.3076 8.57 90.4676 8.34 89.5476 8.34C88.6076 8.34 87.7476 8.57 86.9676 9.03C86.2076 9.47 85.6076 10.09 85.1676 10.89C84.7276 11.67 84.5076 12.54 84.5076 13.5C84.5076 14.46 84.7276 15.34 85.1676 16.14C85.6076 16.92 86.2076 17.54 86.9676 18C87.7476 18.44 88.6076 18.66 89.5476 18.66ZM116.693 18.3V24.3H113.933V21H102.473V24.3H99.7129V18.3H101.633C102.053 17.1 102.263 14.8 102.263 11.4V6H114.593V18.3H116.693ZM111.743 18.36V8.64H105.113V11.31C105.113 14.31 104.883 16.66 104.423 18.36H111.743ZM126.643 5.7C128.183 5.7 129.523 6.03 130.663 6.69C131.823 7.35 132.713 8.29 133.333 9.51C133.953 10.71 134.263 12.12 134.263 13.74C134.263 14.16 134.253 14.47 134.233 14.67H121.933C122.133 15.83 122.673 16.79 123.553 17.55C124.453 18.29 125.493 18.66 126.673 18.66C128.613 18.66 129.993 17.95 130.813 16.53H133.753C133.273 17.93 132.383 19.08 131.083 19.98C129.783 20.86 128.313 21.3 126.673 21.3C125.213 21.3 123.893 20.97 122.713 20.31C121.533 19.63 120.613 18.7 119.953 17.52C119.293 16.32 118.963 14.98 118.963 13.5C118.963 12.02 119.293 10.69 119.953 9.51C120.613 8.31 121.523 7.38 122.683 6.72C123.863 6.04 125.183 5.7 126.643 5.7ZM126.583 8.22C125.403 8.22 124.383 8.59 123.523 9.33C122.683 10.07 122.163 11.02 121.963 12.18H131.173C131.053 10.98 130.563 10.02 129.703 9.3C128.863 8.58 127.823 8.22 126.583 8.22Z" fill="#222222"/>
</svg>
