<svg width="268" height="53" viewBox="0 0 268 53" fill="none" xmlns="http://www.w3.org/2000/svg">
<path d="M31.3 24.6C30.28 22.98 28.78 21.66 26.86 20.58C28.66 19.62 29.98 18.3 30.88 16.74C31.72 15.18 32.2 13.44 32.2 11.4C32.2 9.24 31.66 7.32 30.64 5.58C29.62 3.9 28.12 2.52 26.2 1.5C24.22 0.539997 21.88 -2.86102e-06 19.18 -2.86102e-06H0.4V42H19.24C22.06 42 24.52 41.52 26.56 40.44C28.6 39.42 30.1 38.04 31.18 36.24C32.26 34.44 32.8 32.4 32.8 30.12C32.8 28.08 32.26 26.22 31.3 24.6ZM18.88 18.36H6.4V5.52H18.88C23.68 5.52 26.14 7.62 26.14 11.7C26.14 13.86 25.48 15.54 24.28 16.68C23.08 17.82 21.28 18.36 18.88 18.36ZM24.58 34.8C23.26 35.94 21.4 36.48 18.94 36.48H6.4V23.58H18.94C21.4 23.58 23.26 24.12 24.58 25.2C25.84 26.28 26.5 27.84 26.5 29.88C26.5 32.04 25.84 33.72 24.58 34.8ZM81.7047 17.4V12H60.7047V42H66.4047V17.4H81.7047ZM93.2116 40.56C95.6116 41.94 98.3116 42.6 101.312 42.6C104.192 42.6 106.892 41.94 109.292 40.56C111.692 39.18 113.612 37.32 115.052 34.92C116.432 32.52 117.152 29.88 117.152 27C117.152 24.12 116.432 21.54 115.052 19.14C113.612 16.74 111.692 14.88 109.292 13.5C106.892 12.12 104.192 11.4 101.312 11.4C98.3116 11.4 95.6116 12.12 93.2116 13.5C90.7516 14.88 88.8316 16.74 87.4516 19.14C86.0116 21.54 85.3516 24.12 85.3516 27C85.3516 29.88 86.0116 32.52 87.4516 34.92C88.8316 37.32 90.7516 39.18 93.2116 40.56ZM106.352 36C104.792 36.9 103.112 37.32 101.312 37.32C99.3916 37.32 97.7116 36.9 96.1516 36C94.5916 35.1 93.3916 33.84 92.5516 32.28C91.6516 30.72 91.2316 28.92 91.2316 27C91.2316 25.08 91.6516 23.34 92.5516 21.78C93.3916 20.22 94.5916 18.96 96.1516 18.06C97.7116 17.16 99.3916 16.68 101.312 16.68C103.112 16.68 104.792 17.16 106.352 18.06C107.852 18.96 109.052 20.22 109.952 21.78C110.792 23.34 111.272 25.08 111.272 27C111.272 28.92 110.792 30.72 109.952 32.28C109.052 33.84 107.852 35.1 106.352 36ZM148.868 13.44C146.708 12.12 144.308 11.4 141.668 11.4C139.568 11.4 137.648 11.88 135.848 12.84C134.048 13.8 132.488 15.18 131.228 16.86V12H125.828V52.2H131.528V37.5C132.728 39.12 134.228 40.38 136.028 41.28C137.768 42.18 139.628 42.6 141.668 42.6C144.308 42.6 146.708 41.94 148.868 40.62C151.028 39.3 152.708 37.44 153.968 35.04C155.168 32.7 155.828 30 155.828 27C155.828 24 155.168 21.36 153.968 18.96C152.708 16.62 151.028 14.76 148.868 13.44ZM145.448 36C144.008 36.9 142.448 37.32 140.708 37.32C138.908 37.32 137.348 36.9 135.908 36C134.468 35.16 133.328 33.9 132.548 32.34C131.708 30.78 131.348 28.98 131.348 27C131.348 25.08 131.708 23.28 132.548 21.72C133.328 20.16 134.468 18.9 135.908 18C137.348 17.16 138.908 16.68 140.708 16.68C142.448 16.68 144.008 17.16 145.448 18C146.828 18.9 147.908 20.16 148.748 21.72C149.528 23.28 149.948 25.08 149.948 27C149.948 28.98 149.528 30.78 148.748 32.34C147.908 33.9 146.828 35.16 145.448 36ZM169.995 40.56C172.395 41.94 175.095 42.6 178.095 42.6C180.975 42.6 183.675 41.94 186.075 40.56C188.475 39.18 190.395 37.32 191.835 34.92C193.215 32.52 193.935 29.88 193.935 27C193.935 24.12 193.215 21.54 191.835 19.14C190.395 16.74 188.475 14.88 186.075 13.5C183.675 12.12 180.975 11.4 178.095 11.4C175.095 11.4 172.395 12.12 169.995 13.5C167.535 14.88 165.615 16.74 164.235 19.14C162.795 21.54 162.135 24.12 162.135 27C162.135 29.88 162.795 32.52 164.235 34.92C165.615 37.32 167.535 39.18 169.995 40.56ZM183.135 36C181.575 36.9 179.895 37.32 178.095 37.32C176.175 37.32 174.495 36.9 172.935 36C171.375 35.1 170.175 33.84 169.335 32.28C168.435 30.72 168.015 28.92 168.015 27C168.015 25.08 168.435 23.34 169.335 21.78C170.175 20.22 171.375 18.96 172.935 18.06C174.495 17.16 176.175 16.68 178.095 16.68C179.895 16.68 181.575 17.16 183.135 18.06C184.635 18.96 185.835 20.22 186.735 21.78C187.575 23.34 188.055 25.08 188.055 27C188.055 28.92 187.575 30.72 186.735 32.28C185.835 33.84 184.635 35.1 183.135 36ZM232.386 36.6H228.186V12H203.526V22.8C203.526 29.64 203.106 34.2 202.266 36.6H198.426V48.6H203.946V42H226.866V48.6H232.386V36.6ZM222.486 36.72H207.846C208.746 33.36 209.226 28.62 209.226 22.62V17.28H222.486V36.72ZM260.327 13.38C258.047 12.06 255.347 11.4 252.287 11.4C249.347 11.4 246.707 12.12 244.367 13.44C242.027 14.76 240.227 16.62 238.907 19.02C237.587 21.42 236.927 24.06 236.927 27C236.927 30 237.587 32.64 238.907 35.04C240.227 37.44 242.027 39.3 244.427 40.62C246.767 41.94 249.407 42.6 252.347 42.6C255.587 42.6 258.527 41.76 261.167 39.96C263.747 38.16 265.547 35.88 266.507 33.06H260.627C258.947 35.94 256.187 37.32 252.347 37.32C249.947 37.32 247.907 36.6 246.107 35.1C244.307 33.6 243.227 31.68 242.867 29.34H267.467C267.467 28.98 267.527 28.32 267.527 27.48C267.527 24.24 266.867 21.42 265.667 19.02C264.407 16.62 262.607 14.7 260.327 13.38ZM246.047 18.66C247.727 17.22 249.767 16.44 252.167 16.44C254.627 16.44 256.727 17.16 258.407 18.6C260.087 20.04 261.107 21.96 261.347 24.36H242.927C243.287 22.08 244.367 20.16 246.047 18.66Z" fill="#222222"/>
</svg>
