<svg width="30" height="30" viewBox="0 0 30 30" fill="none" xmlns="http://www.w3.org/2000/svg">
<path d="M15.0033 7.30936C10.7468 7.30936 7.31344 10.7435 7.31344 15.001C7.31344 19.2585 10.7468 22.6926 15.0033 22.6926C19.2599 22.6926 22.6933 19.2585 22.6933 15.001C22.6933 10.7435 19.2599 7.30936 15.0033 7.30936ZM15.0033 20.0015C12.2527 20.0015 10.0039 17.759 10.0039 15.001C10.0039 12.243 12.246 10.0004 15.0033 10.0004C17.7607 10.0004 20.0028 12.243 20.0028 15.001C20.0028 17.759 17.754 20.0015 15.0033 20.0015ZM24.8015 6.99473C24.8015 7.99216 23.9983 8.78877 23.0078 8.78877C22.0106 8.78877 21.2142 7.98547 21.2142 6.99473C21.2142 6.00399 22.0173 5.20069 23.0078 5.20069C23.9983 5.20069 24.8015 6.00399 24.8015 6.99473ZM29.8946 8.81555C29.7808 6.41233 29.232 4.28358 27.4718 2.52971C25.7184 0.775828 23.5901 0.226905 21.1874 0.10641C18.7111 -0.0341679 11.2889 -0.0341679 8.8126 0.10641C6.41662 0.220211 4.28834 0.769134 2.52817 2.52301C0.767987 4.27689 0.225878 6.40564 0.10541 8.80885C-0.0351366 11.2857 -0.0351366 18.7096 0.10541 21.1864C0.219186 23.5896 0.767987 25.7184 2.52817 27.4722C4.28834 29.2261 6.40993 29.775 8.8126 29.8955C11.2889 30.0361 18.7111 30.0361 21.1874 29.8955C23.5901 29.7817 25.7184 29.2328 27.4718 27.4722C29.2253 25.7184 29.7741 23.5896 29.8946 21.1864C30.0351 18.7096 30.0351 11.2924 29.8946 8.81555ZM26.6955 23.844C26.1735 25.1561 25.1629 26.1669 23.8444 26.6957C21.8701 27.4789 17.1852 27.2982 15.0033 27.2982C12.8215 27.2982 8.12995 27.4722 6.1623 26.6957C4.85053 26.1736 3.83993 25.1628 3.31121 23.844C2.52817 21.8692 2.70887 17.1833 2.70887 15.001C2.70887 12.8187 2.53486 8.12605 3.31121 6.15796C3.83324 4.84589 4.84384 3.83507 6.1623 3.30623C8.13664 2.52301 12.8215 2.70375 15.0033 2.70375C17.1852 2.70375 21.8767 2.52971 23.8444 3.30623C25.1562 3.82838 26.1668 4.8392 26.6955 6.15796C27.4785 8.13274 27.2978 12.8187 27.2978 15.001C27.2978 17.1833 27.4785 21.8759 26.6955 23.844Z" fill="white"/>
</svg>
