<svg width="109" height="27" viewBox="0 0 109 27" fill="none" xmlns="http://www.w3.org/2000/svg">
<path d="M13.93 10.29C14.91 10.81 15.65 11.48 16.15 12.3C16.65 13.1 16.9 14.02 16.9 15.06C16.9 16.2 16.63 17.22 16.09 18.12C15.57 19 14.8 19.7 13.78 20.22C12.76 20.74 11.54 21 10.12 21H0.7V-1.43051e-06H10.09C11.45 -1.43051e-06 12.62 0.249999 13.6 0.75C14.58 1.25 15.32 1.93 15.82 2.79C16.34 3.65 16.6 4.62 16.6 5.7C16.6 6.7 16.38 7.59 15.94 8.37C15.5 9.15 14.83 9.79 13.93 10.29ZM9.94 9.18C11.14 9.18 12.04 8.9 12.64 8.34C13.26 7.76 13.57 6.93 13.57 5.85C13.57 3.79 12.36 2.76 9.94 2.76H3.7V9.18H9.94ZM9.97 18.24C11.21 18.24 12.15 17.96 12.79 17.4C13.43 16.84 13.75 16.02 13.75 14.94C13.75 13.9 13.43 13.12 12.79 12.6C12.15 12.06 11.21 11.79 9.97 11.79H3.7V18.24H9.97ZM49.4523 21H46.6023V9.45L40.1523 21L33.7023 9.51V21H30.8523V6H34.7523L40.2123 15.81L45.6123 6H49.4523V21ZM55.1605 6H58.0105V17.16L65.8105 6H68.9605V21H66.1105V9.84L58.3105 21H55.1605V6ZM82.5841 5.7C83.9041 5.7 85.1041 6.04 86.1841 6.72C87.2641 7.38 88.1141 8.3 88.7341 9.48C89.3541 10.66 89.6641 12 89.6641 13.5C89.6641 15 89.3541 16.34 88.7341 17.52C88.1141 18.7 87.2641 19.63 86.1841 20.31C85.1041 20.97 83.9041 21.3 82.5841 21.3C81.5841 21.3 80.6441 21.08 79.7641 20.64C78.8841 20.18 78.1341 19.55 77.5141 18.75V26.1H74.6641V6H77.3641V8.43C78.0041 7.57 78.7741 6.9 79.6741 6.42C80.5741 5.94 81.5441 5.7 82.5841 5.7ZM82.1041 18.66C82.9841 18.66 83.7741 18.44 84.4741 18C85.1741 17.56 85.7241 16.95 86.1241 16.17C86.5241 15.37 86.7241 14.48 86.7241 13.5C86.7241 12.52 86.5241 11.64 86.1241 10.86C85.7241 10.06 85.1741 9.44 84.4741 9C83.7741 8.56 82.9841 8.34 82.1041 8.34C81.2241 8.34 80.4241 8.56 79.7041 9C78.9841 9.44 78.4241 10.06 78.0241 10.86C77.6241 11.64 77.4241 12.52 77.4241 13.5C77.4241 14.48 77.6241 15.37 78.0241 16.17C78.4241 16.95 78.9841 17.56 79.7041 18C80.4241 18.44 81.2241 18.66 82.1041 18.66ZM100.498 5.7C102.038 5.7 103.378 6.03 104.518 6.69C105.678 7.35 106.568 8.29 107.188 9.51C107.808 10.71 108.118 12.12 108.118 13.74C108.118 14.16 108.108 14.47 108.088 14.67H95.7876C95.9876 15.83 96.5276 16.79 97.4076 17.55C98.3076 18.29 99.3476 18.66 100.528 18.66C102.468 18.66 103.848 17.95 104.668 16.53H107.608C107.128 17.93 106.238 19.08 104.938 19.98C103.638 20.86 102.168 21.3 100.528 21.3C99.0676 21.3 97.7476 20.97 96.5676 20.31C95.3876 19.63 94.4676 18.7 93.8076 17.52C93.1476 16.32 92.8176 14.98 92.8176 13.5C92.8176 12.02 93.1476 10.69 93.8076 9.51C94.4676 8.31 95.3776 7.38 96.5376 6.72C97.7176 6.04 99.0376 5.7 100.498 5.7ZM100.438 8.22C99.2576 8.22 98.2376 8.59 97.3776 9.33C96.5376 10.07 96.0176 11.02 95.8176 12.18H105.028C104.908 10.98 104.418 10.02 103.558 9.3C102.718 8.58 101.678 8.22 100.438 8.22Z" fill="#222222"/>
</svg>
