<svg width="216" height="53" viewBox="0 0 216 53" fill="none" xmlns="http://www.w3.org/2000/svg">
<path d="M26.86 20.58C28.82 21.62 30.3 22.96 31.3 24.6C32.3 26.2 32.8 28.04 32.8 30.12C32.8 32.4 32.26 34.44 31.18 36.24C30.14 38 28.6 39.4 26.56 40.44C24.52 41.48 22.08 42 19.24 42H0.4V-2.86102e-06H19.18C21.9 -2.86102e-06 24.24 0.499998 26.2 1.5C28.16 2.5 29.64 3.86 30.64 5.58C31.68 7.3 32.2 9.24 32.2 11.4C32.2 13.4 31.76 15.18 30.88 16.74C30 18.3 28.66 19.58 26.86 20.58ZM18.88 18.36C21.28 18.36 23.08 17.8 24.28 16.68C25.52 15.52 26.14 13.86 26.14 11.7C26.14 7.58 23.72 5.52 18.88 5.52H6.4V18.36H18.88ZM18.94 36.48C21.42 36.48 23.3 35.92 24.58 34.8C25.86 33.68 26.5 32.04 26.5 29.88C26.5 27.8 25.86 26.24 24.58 25.2C23.3 24.12 21.42 23.58 18.94 23.58H6.4V36.48H18.94ZM97.9047 42H92.2047V18.9L79.3047 42L66.4047 19.02V42H60.7047V12H68.5047L79.4247 31.62L90.2247 12H97.9047V42ZM109.321 12H115.021V34.32L130.621 12H136.921V42H131.221V19.68L115.621 42H109.321V12ZM164.168 11.4C166.808 11.4 169.208 12.08 171.368 13.44C173.528 14.76 175.228 16.6 176.468 18.96C177.708 21.32 178.328 24 178.328 27C178.328 30 177.708 32.68 176.468 35.04C175.228 37.4 173.528 39.26 171.368 40.62C169.208 41.94 166.808 42.6 164.168 42.6C162.168 42.6 160.288 42.16 158.528 41.28C156.768 40.36 155.268 39.1 154.028 37.5V52.2H148.328V12H153.728V16.86C155.008 15.14 156.548 13.8 158.348 12.84C160.148 11.88 162.088 11.4 164.168 11.4ZM163.208 37.32C164.968 37.32 166.548 36.88 167.948 36C169.348 35.12 170.448 33.9 171.248 32.34C172.048 30.74 172.448 28.96 172.448 27C172.448 25.04 172.048 23.28 171.248 21.72C170.448 20.12 169.348 18.88 167.948 18C166.548 17.12 164.968 16.68 163.208 16.68C161.448 16.68 159.848 17.12 158.408 18C156.968 18.88 155.848 20.12 155.048 21.72C154.248 23.28 153.848 25.04 153.848 27C153.848 28.96 154.248 30.74 155.048 32.34C155.848 33.9 156.968 35.12 158.408 36C159.848 36.88 161.448 37.32 163.208 37.32ZM199.995 11.4C203.075 11.4 205.755 12.06 208.035 13.38C210.355 14.7 212.135 16.58 213.375 19.02C214.615 21.42 215.235 24.24 215.235 27.48C215.235 28.32 215.215 28.94 215.175 29.34H190.575C190.975 31.66 192.055 33.58 193.815 35.1C195.615 36.58 197.695 37.32 200.055 37.32C203.935 37.32 206.695 35.9 208.335 33.06H214.215C213.255 35.86 211.475 38.16 208.875 39.96C206.275 41.72 203.335 42.6 200.055 42.6C197.135 42.6 194.495 41.94 192.135 40.62C189.775 39.26 187.935 37.4 186.615 35.04C185.295 32.64 184.635 29.96 184.635 27C184.635 24.04 185.295 21.38 186.615 19.02C187.935 16.62 189.755 14.76 192.075 13.44C194.435 12.08 197.075 11.4 199.995 11.4ZM199.875 16.44C197.515 16.44 195.475 17.18 193.755 18.66C192.075 20.14 191.035 22.04 190.635 24.36H209.055C208.815 21.96 207.835 20.04 206.115 18.6C204.435 17.16 202.355 16.44 199.875 16.44Z" fill="#222222"/>
</svg>
