<svg width="82" height="51" viewBox="0 0 82 51" fill="none" xmlns="http://www.w3.org/2000/svg">
<path fill-rule="evenodd" clip-rule="evenodd" d="M0 50.4012H81.8339V0H0V50.4012Z" fill="url(#paint0_linear)"/>
<path fill-rule="evenodd" clip-rule="evenodd" d="M51.4043 14.7H46.61L40.9167 24.03L35.2235 14.7H30.4292V35.7H35.2235V23.49L40.6471 32.4012H41.1864L46.61 23.49V35.7H51.4043V14.7ZM10.9961 35.7H15.7904V14.7H10.9961V35.7ZM19.079 14.7V22.575H24.3227L23.0118 25.2012H25.6337L26.9459 22.575V14.7H19.079ZM65.6236 36.08C69.4453 36.08 72.7888 34.1962 74.5792 31.2375L70.4603 28.8462C69.5652 30.4612 67.7436 31.4175 65.6236 31.4175C61.923 31.4175 59.5346 28.9362 59.5346 25.2C59.5346 21.465 61.923 18.9837 65.6236 18.9837C67.7436 18.9837 69.5339 19.94 70.4603 21.5537L74.5792 19.1625C72.7589 16.2037 69.4153 14.3212 65.6236 14.3212C59.3248 14.3212 54.7578 19.0437 54.7578 25.2C54.7578 31.3575 59.3248 36.08 65.6236 36.08Z" fill="white"/>
<defs>
<linearGradient id="paint0_linear" x1="1.37114e-06" y1="50.0002" x2="82" y2="0.000244706" gradientUnits="userSpaceOnUse">
<stop stop-color="#232096"/>
<stop offset="1" stop-color="#594BFB"/>
</linearGradient>
</defs>
</svg>
