<svg width="39" height="11" viewBox="0 0 39 11" fill="none" xmlns="http://www.w3.org/2000/svg">
<path fill-rule="evenodd" clip-rule="evenodd" d="M0 5L24 5V6C14.6274 6 9.37258 6 8.74243e-08 6L0 5Z" fill="#7E7E7E"/>
<path d="M36.6898 0H25.7675C24.7925 0 24 0.79255 24 1.76754V9.23246C24 10.2075 24.7925 11 25.7675 11H36.6868C37.6618 11 38.4543 10.2075 38.4543 9.23246V1.77053C38.4573 0.795541 37.6648 0 36.6898 0ZM37.6498 9.23246C37.6498 9.76183 37.2191 10.1925 36.6898 10.1925H25.7675C25.2382 10.1925 24.8075 9.76183 24.8075 9.23246V1.77053C24.8075 1.24116 25.2382 0.810495 25.7675 0.810495H36.6868C37.2162 0.810495 37.6468 1.24116 37.6468 1.77053V9.23246H37.6498Z" fill="#7E7E7E"/>
<path d="M33.1164 5.40723L36.6514 2.23703C36.8159 2.08749 36.8309 1.83328 36.6814 1.66579C36.5318 1.5013 36.2776 1.48635 36.1101 1.63589L31.2352 6.01136L30.2841 5.16199C30.2811 5.159 30.2781 5.15601 30.2781 5.15302C30.2572 5.13208 30.2363 5.11413 30.2124 5.09619L26.3423 1.63289C26.1748 1.48336 25.9206 1.49831 25.7711 1.66579C25.6215 1.83328 25.6365 2.08749 25.804 2.23703L29.3809 5.43415L25.8189 8.76884C25.6574 8.92137 25.6485 9.17558 25.801 9.34007C25.8817 9.42381 25.9894 9.46868 26.0971 9.46868C26.1958 9.46868 26.2945 9.43279 26.3722 9.36101L29.988 5.97846L30.969 6.85476C31.0468 6.92354 31.1425 6.95644 31.2382 6.95644C31.3339 6.95644 31.4326 6.92055 31.5073 6.85176L32.5152 5.94856L36.1101 9.364C36.1879 9.43877 36.2896 9.47466 36.3883 9.47466C36.4959 9.47466 36.6006 9.43279 36.6814 9.34905C36.8339 9.18754 36.8279 8.93034 36.6664 8.77781L33.1164 5.40723Z" fill="#7E7E7E"/>
</svg>
