<svg width="51" height="50" viewBox="0 0 51 50" fill="none" xmlns="http://www.w3.org/2000/svg">
<path fill-rule="evenodd" clip-rule="evenodd" d="M7.45328 14.095C8.68855 10.5784 12.1001 8.07294 16.0905 8.07294C20.5743 8.07294 24.3339 11.2403 25.0844 15.4499C27.691 16.1506 29.6322 18.4832 29.6322 21.2891C29.6322 24.6587 26.8353 27.3438 23.4434 27.3438H9.47285C5.6749 27.3438 2.54883 24.3381 2.54883 20.5729C2.54883 17.5035 4.62924 14.9367 7.45328 14.095ZM16.0905 10.1563C12.8088 10.1563 10.0722 12.3277 9.27804 15.2373C9.17435 15.6172 8.86525 15.9062 8.47921 15.9841C6.26356 16.4313 4.63216 18.3334 4.63216 20.5729C4.63216 23.136 6.77333 25.2604 9.47285 25.2604H23.4434C25.7369 25.2604 27.5488 23.4567 27.5488 21.2891C27.5488 19.3037 26.031 17.6253 24.0119 17.3554C23.5281 17.2907 23.1542 16.8988 23.1121 16.4126C22.8114 12.9316 19.8037 10.1563 16.0905 10.1563Z" fill="#231815"/>
<path fill-rule="evenodd" clip-rule="evenodd" d="M14.2178 20.4659C15.765 15.8284 20.2267 12.5 25.4642 12.5C31.3563 12.5 36.2736 16.7167 37.1511 22.2695C40.5914 23.0924 43.1725 26.1233 43.1725 29.7743C43.1725 34.0668 39.6075 37.5 35.2681 37.5H16.6407C11.7598 37.5 7.75586 33.6393 7.75586 28.8194C7.75586 24.8284 10.5041 21.4929 14.2178 20.4659ZM25.4642 14.5833C20.9336 14.5833 17.1464 17.5818 16.046 21.6138C15.9423 21.9938 15.6332 22.2827 15.2471 22.3606C12.1403 22.9876 9.83919 25.6587 9.83919 28.8194C9.83919 32.4373 12.8582 35.4167 16.6407 35.4167H35.2681C38.5091 35.4167 41.0892 32.8648 41.0892 29.7743C41.0892 26.9438 38.9273 24.567 36.0721 24.1852C35.5883 24.1205 35.2143 23.7286 35.1723 23.2424C34.7554 18.4156 30.5892 14.5833 25.4642 14.5833Z" fill="#231815"/>
</svg>
