<svg width="32" height="22" viewBox="0 0 32 22" fill="none" xmlns="http://www.w3.org/2000/svg">
<path d="M30.7074 9.71889H1.29262C0.57875 9.71889 0 10.2925 0 11.0002C0 11.7078 0.57875 12.2814 1.29262 12.2814H30.7074C31.4213 12.2814 32 11.7078 32 11.0002C32 10.2926 31.4213 9.71889 30.7074 9.71889Z" fill="#232096"/>
<path d="M30.7074 0H1.29262C0.57875 0 0 0.573662 0 1.28126C0 1.98886 0.57875 2.56252 1.29262 2.56252H30.7074C31.4213 2.56252 32 1.98886 32 1.28126C32 0.573662 31.4213 0 30.7074 0Z" fill="#232096"/>
<path d="M20.5256 19.4373H1.29262C0.57875 19.4373 0 20.0109 0 20.7186C0 21.4263 0.57875 21.9999 1.29262 21.9999H20.5256C21.2395 21.9999 21.8182 21.4263 21.8182 20.7186C21.8182 20.0109 21.2395 19.4373 20.5256 19.4373Z" fill="#232096"/>
</svg>
