<svg width="133" height="30" viewBox="0 0 133 30" fill="none" xmlns="http://www.w3.org/2000/svg">
<path fill-rule="evenodd" clip-rule="evenodd" d="M0 4.19062C20.2482 0.983359 49.7995 0 66.3538 0C82.908 0 112.444 0.983359 132.692 4.19062L127.767 12.6021V30H4.92523V12.6021L0 4.19062ZM67.7371 4.02421H63.1767L65.4721 7.95764L67.7371 4.02421ZM21.0386 10.6808V23.2073C21.0386 24.8714 22.1939 25.9304 23.9117 25.9304C25.6294 25.9304 26.7847 24.8714 26.7847 23.2073V10.6808C26.7847 9.01664 25.6294 7.95764 23.9117 7.95764C22.1939 7.95764 21.0386 9.01664 21.0386 10.6808ZM24.5957 10.6808V23.2073C24.5957 23.6157 24.3221 23.888 23.9117 23.888C23.5012 23.888 23.2276 23.6157 23.2276 23.2073V10.6808C23.2276 10.2723 23.5012 10 23.9117 10C24.3221 10 24.5957 10.2572 24.5957 10.6808ZM33.7621 25.643H35.8143V8.22995H33.7621L32.0444 15.6884L30.3114 8.22995H28.2593V25.643H30.3114V19.6823L30.2658 14.4781H30.4178L31.6187 22.1029H32.4548L33.6557 14.4781H33.8229L33.7621 19.6823V25.643ZM64.4384 25.643H62.3862V8.22995H64.4384V12.8442L64.2104 18.8956H64.3472L66.5058 8.22995H68.5579V25.643H66.5058V21.0136L66.7338 14.8411H66.597L64.4384 25.643ZM10.2305 8.22995L8.92317 25.6581H11.1122L11.325 21.9818H12.9363L13.1491 25.6581H15.3533L14.0308 8.22995H10.2305ZM11.4618 20.0605L12.0394 10.2572H12.2371L12.8147 20.0605H11.4618ZM18.88 10.2572V25.643H16.6302V10.2572H15.1253L14.9581 8.22995H20.5522L20.385 10.2572H18.88ZM55.044 10.6808V23.2073C55.044 24.8714 56.1993 25.9304 57.917 25.9304C59.6348 25.9304 60.7901 24.8714 60.7901 23.2073V10.6808C60.7901 9.01664 59.6348 7.95764 57.917 7.95764C56.1993 7.95764 55.044 9.01664 55.044 10.6808ZM57.233 10.6808C57.233 10.2723 57.5066 10 57.917 10C58.3275 10 58.6011 10.2723 58.6011 10.6808V23.2073C58.6011 23.6157 58.3275 23.888 57.917 23.888C57.5066 23.888 57.233 23.6157 57.233 23.2073V10.6808ZM40.8763 10.2572H40.1315C39.7818 10.2572 39.5538 10.5446 39.5538 10.9531V22.9198C39.5538 23.3283 39.7818 23.6006 40.1315 23.6006H41.8796L42.0468 25.643H40.0251C38.3833 25.643 37.2584 24.584 37.2584 22.9198V10.938C37.2584 9.27383 38.3833 8.21483 40.0251 8.21483H41.0436L40.8763 10.2572ZM47.8233 8.22995V25.6581H50.0123V22.239H50.6964C52.4141 22.239 53.5694 21.18 53.5694 19.5159V10.9531C53.5694 9.28896 52.4141 8.22995 50.6964 8.22995H47.8233ZM51.3805 10.9531V19.5159C51.3805 19.9244 51.1068 20.1967 50.6964 20.1967H50.0123V10.2572H50.6964C51.1068 10.2572 51.3805 10.5446 51.3805 10.9531ZM45.4671 10.2572V25.643H43.2325V10.2572H41.7732L41.606 8.22995H47.1393L46.9721 10.2572H45.4671ZM99.2646 25.643V8.22995H93.5641V25.643H95.7531V10.2572H97.0756V25.643H99.2646ZM104.403 25.643L103.612 10.2572H103.415L102.624 25.643H100.359L101.636 8.22995H105.391L106.668 25.643H104.403ZM110.483 10.2572H111.958L112.125 8.21483H110.422C108.781 8.21483 107.656 9.27383 107.656 10.938V22.9198C107.656 24.584 108.781 25.643 110.422 25.643H112.125L111.958 23.6006H110.483C110.134 23.6006 109.906 23.3283 109.906 22.9198V17.413H111.684L111.851 15.3404H109.906V10.9531C109.906 10.5446 110.118 10.2572 110.483 10.2572ZM91.9832 25.643H89.931V19.6823L89.9918 14.4781H89.8246L88.6237 22.1029H87.8028L86.5867 14.4781H86.4347L86.4803 19.6823V25.643H84.4281V8.22995H86.4803L88.2132 15.6884L89.931 8.22995H91.9832V25.643ZM113.265 8.22995V25.643H115.454V16.3994L117.339 25.643H119.695L117.537 16.3086L119.422 8.22995H117.126L115.454 16.233V8.22995H113.265ZM124.712 10.2572H123.039C122.675 10.2572 122.462 10.5446 122.447 10.9531V22.9198C122.447 23.3283 122.675 23.6006 123.024 23.6006H124.696L124.864 25.643H122.979C121.337 25.643 120.212 24.584 120.212 22.9198V10.938C120.212 9.27383 121.337 8.21483 122.979 8.21483H124.879L124.712 10.2572ZM82.8472 10.6808V23.1921C82.8472 24.8563 81.6919 25.9153 79.9741 25.9304C78.2564 25.9304 77.1011 24.8714 77.1011 23.2073V10.6808C77.1011 9.01664 78.2564 7.95764 79.9741 7.95764C81.6919 7.95764 82.8472 9.01664 82.8472 10.6808ZM79.2901 10.6808V23.1921C79.2901 23.6006 79.5637 23.8729 79.9741 23.888C80.3846 23.888 80.6582 23.6157 80.6582 23.2073V10.6808C80.6582 10.2723 80.3846 10 79.9741 10C79.5637 10 79.2901 10.2723 79.2901 10.6808ZM70.1541 8.22995V25.643H72.3431V16.3994L74.228 25.643H76.5842L74.4257 16.3086L76.3106 8.22995H74L72.3431 16.233V8.22995H70.1541Z" fill="white"/>
</svg>
