<svg width="470" height="43" viewBox="0 0 470 43" fill="none" xmlns="http://www.w3.org/2000/svg">
<path d="M33 0.333493V42.3335H27V24.9335H13.2C10.44 24.9335 8.06 24.4135 6.06 23.3735C4.1 22.2935 2.6 20.8335 1.56 18.9935C0.52 17.1135 4.47035e-08 14.9935 4.47035e-08 12.6335V0.333493H6V12.6335C6 14.8335 6.62 16.5135 7.86 17.6735C9.1 18.7935 10.94 19.3535 13.38 19.3535H27V0.333493H33ZM45.0258 12.3335H50.7258V34.6535L66.3258 12.3335H72.6258V42.3335H66.9258V20.0135L51.3258 42.3335H45.0258V12.3335ZM106.833 17.7335H96.3328V42.3335H90.6328V17.7335H80.1328V12.3335H106.833V17.7335ZM140.438 12.3335V42.3335H134.738V37.8335C133.498 39.4335 131.998 40.6935 130.238 41.6135C128.478 42.4935 126.598 42.9335 124.598 42.9335C121.958 42.9335 119.558 42.2735 117.398 40.9535C115.238 39.5935 113.538 37.7335 112.298 35.3735C111.058 33.0135 110.438 30.3335 110.438 27.3335C110.438 24.3335 111.058 21.6535 112.298 19.2935C113.538 16.9335 115.238 15.0935 117.398 13.7735C119.558 12.4135 121.958 11.7335 124.598 11.7335C126.678 11.7335 128.618 12.2135 130.418 13.1735C132.218 14.1335 133.758 15.4735 135.038 17.1935V12.3335H140.438ZM125.558 37.6535C127.318 37.6535 128.918 37.2135 130.358 36.3335C131.798 35.4535 132.918 34.2335 133.718 32.6735C134.518 31.0735 134.918 29.2935 134.918 27.3335C134.918 25.3735 134.518 23.6135 133.718 22.0535C132.918 20.4535 131.798 19.2135 130.358 18.3335C128.918 17.4535 127.318 17.0135 125.558 17.0135C123.798 17.0135 122.218 17.4535 120.818 18.3335C119.418 19.2135 118.318 20.4535 117.518 22.0535C116.718 23.6135 116.318 25.3735 116.318 27.3335C116.318 29.2935 116.718 31.0735 117.518 32.6735C118.318 34.2335 119.418 35.4535 120.818 36.3335C122.218 37.2135 123.798 37.6535 125.558 37.6535ZM151.852 12.3335H157.552V34.6535L173.152 12.3335H179.452V42.3335H173.752V20.0135L158.152 42.3335H151.852V12.3335ZM165.652 9.39349C162.532 9.39349 159.972 8.57349 157.972 6.93349C155.972 5.29349 154.852 3.09349 154.612 0.333493H159.532C159.732 1.85349 160.372 3.05349 161.452 3.93349C162.532 4.77349 163.932 5.1935 165.652 5.1935C167.372 5.1935 168.772 4.77349 169.852 3.93349C170.932 3.05349 171.572 1.85349 171.772 0.333493H176.692C176.452 3.09349 175.332 5.29349 173.332 6.93349C171.332 8.57349 168.772 9.39349 165.652 9.39349ZM213.659 17.7335H203.159V42.3335H197.459V17.7335H186.959V12.3335H213.659V17.7335ZM232.623 11.7335C235.703 11.7335 238.383 12.3935 240.663 13.7135C242.983 15.0335 244.763 16.9135 246.003 19.3535C247.243 21.7535 247.863 24.5735 247.863 27.8135C247.863 28.6535 247.843 29.2735 247.803 29.6735H223.203C223.603 31.9935 224.683 33.9135 226.443 35.4335C228.243 36.9135 230.323 37.6535 232.683 37.6535C236.563 37.6535 239.323 36.2335 240.963 33.3935H246.843C245.883 36.1935 244.103 38.4935 241.503 40.2935C238.903 42.0535 235.963 42.9335 232.683 42.9335C229.763 42.9335 227.123 42.2735 224.763 40.9535C222.403 39.5935 220.563 37.7335 219.243 35.3735C217.923 32.9735 217.263 30.2935 217.263 27.3335C217.263 24.3735 217.923 21.7135 219.243 19.3535C220.563 16.9535 222.383 15.0935 224.703 13.7735C227.063 12.4135 229.703 11.7335 232.623 11.7335ZM232.503 16.7735C230.143 16.7735 228.103 17.5135 226.383 18.9935C224.703 20.4735 223.663 22.3735 223.263 24.6935H241.683C241.443 22.2935 240.463 20.3735 238.743 18.9335C237.063 17.4935 234.983 16.7735 232.503 16.7735ZM297.984 17.7335H287.484V42.3335H281.784V17.7335H271.284V12.3335H297.984V17.7335ZM331.589 12.3335V42.3335H325.889V37.8335C324.649 39.4335 323.149 40.6935 321.389 41.6135C319.629 42.4935 317.749 42.9335 315.749 42.9335C313.109 42.9335 310.709 42.2735 308.549 40.9535C306.389 39.5935 304.689 37.7335 303.449 35.3735C302.209 33.0135 301.589 30.3335 301.589 27.3335C301.589 24.3335 302.209 21.6535 303.449 19.2935C304.689 16.9335 306.389 15.0935 308.549 13.7735C310.709 12.4135 313.109 11.7335 315.749 11.7335C317.829 11.7335 319.769 12.2135 321.569 13.1735C323.369 14.1335 324.909 15.4735 326.189 17.1935V12.3335H331.589ZM316.709 37.6535C318.469 37.6535 320.069 37.2135 321.509 36.3335C322.949 35.4535 324.069 34.2335 324.869 32.6735C325.669 31.0735 326.069 29.2935 326.069 27.3335C326.069 25.3735 325.669 23.6135 324.869 22.0535C324.069 20.4535 322.949 19.2135 321.509 18.3335C320.069 17.4535 318.469 17.0135 316.709 17.0135C314.949 17.0135 313.369 17.4535 311.969 18.3335C310.569 19.2135 309.469 20.4535 308.669 22.0535C307.869 23.6135 307.469 25.3735 307.469 27.3335C307.469 29.2935 307.869 31.0735 308.669 32.6735C309.469 34.2335 310.569 35.4535 311.969 36.3335C313.369 37.2135 314.949 37.6535 316.709 37.6535ZM352.843 28.4135L348.583 32.3735V42.3335H343.003V12.3335H348.583V25.7735L362.683 12.3335H370.243L357.103 24.4535L371.503 42.3335H363.883L352.843 28.4135ZM404.237 28.5335L400.517 32.1335V42.3335H394.877V32.1335L391.157 28.5335L380.957 42.3335H373.877L387.017 24.5135L374.477 12.3335H381.617L394.877 25.2935V12.3335H400.517V25.3535L413.897 12.3335H420.917L408.377 24.5135L421.517 42.3335H414.437L404.237 28.5335ZM439.244 11.7335C442.324 11.7335 445.004 12.3935 447.284 13.7135C449.604 15.0335 451.384 16.9135 452.624 19.3535C453.864 21.7535 454.484 24.5735 454.484 27.8135C454.484 28.6535 454.464 29.2735 454.424 29.6735H429.824C430.224 31.9935 431.304 33.9135 433.064 35.4335C434.864 36.9135 436.944 37.6535 439.304 37.6535C443.184 37.6535 445.944 36.2335 447.584 33.3935H453.464C452.504 36.1935 450.724 38.4935 448.124 40.2935C445.524 42.0535 442.584 42.9335 439.304 42.9335C436.384 42.9335 433.744 42.2735 431.384 40.9535C429.024 39.5935 427.184 37.7335 425.864 35.3735C424.544 32.9735 423.884 30.2935 423.884 27.3335C423.884 24.3735 424.544 21.7135 425.864 19.3535C427.184 16.9535 429.004 15.0935 431.324 13.7735C433.684 12.4135 436.324 11.7335 439.244 11.7335ZM439.124 16.7735C436.764 16.7735 434.724 17.5135 433.004 18.9935C431.324 20.4735 430.284 22.3735 429.884 24.6935H448.304C448.064 22.2935 447.084 20.3735 445.364 18.9335C443.684 17.4935 441.604 16.7735 439.124 16.7735ZM469.188 35.7335V42.3335H462.588V35.7335H469.188ZM469.188 12.3335V18.9335H462.588V12.3335H469.188Z" fill="#222222"/>
</svg>
