<svg width="33" height="13" viewBox="0 0 33 13" fill="none" xmlns="http://www.w3.org/2000/svg">
<path fill-rule="evenodd" clip-rule="evenodd" d="M0.5 6.66663L0.5 7.66663L25.8302 7.66663V9.11107H24V10.188H25.8302V12.6666H26.9888V10.188H29.9776V9.11107H26.9888V7.66663H28.7519C29.3116 7.66663 29.8321 7.60395 30.3134 7.47859C30.806 7.35324 31.2537 7.1652 31.6567 6.91449C32.0709 6.65238 32.3955 6.29341 32.6306 5.83757C32.8769 5.38173 33 4.61534 33 3.99996C33 1.77774 31.584 0.666626 28.7519 0.666626L25.8302 0.700813V6.66663L0.5 6.66663ZM26.9888 1.77774L28.8526 1.76064C30.8116 1.76064 31.791 2.52418 31.791 4.05124C31.791 4.62104 31.6343 5.31905 31.3209 5.68372C31.0075 6.037 30.6325 6.27631 30.1959 6.40167C30.1535 6.41303 30.1104 6.42476 30.0667 6.43668C29.6716 6.54424 29.2222 6.66663 28.7183 6.66663H26.9888V1.77774Z" fill="white"/>
</svg>
