<svg width="21" height="21" viewBox="0 0 21 21" fill="none" xmlns="http://www.w3.org/2000/svg">
<path fill-rule="evenodd" clip-rule="evenodd" d="M14.6918 15.8082C13.1375 17.111 11.1341 17.8954 8.9477 17.8954C4.00646 17.8954 0 13.8889 0 8.9477C0 4.00646 4.00646 0 8.9477 0C13.8889 0 17.8954 4.00646 17.8954 8.9477C17.8954 11.1339 17.1111 13.1371 15.8086 14.6913L20.0331 18.9158L18.9162 20.0326L14.6918 15.8082ZM16.3164 8.9477C16.3164 13.0173 13.0173 16.3164 8.9477 16.3164C4.87807 16.3164 1.57901 13.0173 1.57901 8.9477C1.57901 4.87807 4.87807 1.57901 8.9477 1.57901C13.0173 1.57901 16.3164 4.87807 16.3164 8.9477Z" fill="#EE4675"/>
</svg>
