<svg width="21" height="22" viewBox="0 0 21 22" fill="none" xmlns="http://www.w3.org/2000/svg">
<path fill-rule="evenodd" clip-rule="evenodd" d="M15.6586 16.7922C14.1043 18.0949 12.1009 18.8793 9.91449 18.8793C4.97326 18.8793 0.966797 14.8729 0.966797 9.93163C0.966797 4.99039 4.97326 0.983929 9.91449 0.983929C14.8557 0.983929 18.8622 4.99039 18.8622 9.93163C18.8622 12.1178 18.0779 14.121 16.7754 15.6752L20.9998 19.8997L19.883 21.0166L15.6586 16.7922ZM17.2832 9.93163C17.2832 14.0013 13.9841 17.3003 9.91449 17.3003C5.84487 17.3003 2.5458 14.0013 2.5458 9.93163C2.5458 5.862 5.84487 2.56293 9.91449 2.56293C13.9841 2.56293 17.2832 5.862 17.2832 9.93163Z" fill="#232096"/>
</svg>
