<svg width="51" height="50" viewBox="0 0 51 50" fill="none" xmlns="http://www.w3.org/2000/svg">
<path d="M20.542 30.0781C20.542 29.5747 20.9501 29.1666 21.4535 29.1666C21.9569 29.1666 22.3649 29.5747 22.3649 30.0781V31.2338L23.3658 30.6559C23.8017 30.4042 24.3592 30.5536 24.6109 30.9895C24.8626 31.4255 24.7132 31.9829 24.2772 32.2346L23.2764 32.8125L24.2772 33.3903C24.7132 33.642 24.8626 34.1994 24.6109 34.6354C24.3592 35.0713 23.8017 35.2207 23.3658 34.969L22.3649 34.3912V35.5468C22.3649 36.0502 21.9569 36.4583 21.4535 36.4583C20.9501 36.4583 20.542 36.0502 20.542 35.5468V34.3911L19.5412 34.969C19.1052 35.2207 18.5478 35.0713 18.2961 34.6354C18.0444 34.1994 18.1938 33.642 18.6297 33.3903L19.6306 32.8125L18.6297 32.2346C18.1938 31.9829 18.0444 31.4255 18.2961 30.9895C18.5478 30.5536 19.1052 30.4042 19.5412 30.6559L20.542 31.2338V30.0781Z" fill="#231815"/>
<path d="M28.8754 32.1614C28.8754 31.658 29.2834 31.25 29.7868 31.25C30.2902 31.25 30.6983 31.658 30.6983 32.1614V33.3171L31.6991 32.7393C32.1351 32.4876 32.6925 32.6369 32.9442 33.0729C33.1959 33.5088 33.0465 34.0663 32.6106 34.3179L31.6097 34.8958L32.6106 35.4736C33.0465 35.7253 33.1959 36.2828 32.9442 36.7187C32.6925 37.1547 32.1351 37.304 31.6991 37.0523L30.6983 36.4745V37.6302C30.6983 38.1336 30.2902 38.5416 29.7868 38.5416C29.2834 38.5416 28.8754 38.1336 28.8754 37.6302V36.4745L27.8745 37.0523C27.4386 37.304 26.8811 37.1547 26.6294 36.7187C26.3777 36.2828 26.5271 35.7253 26.963 35.4736L27.9639 34.8958L26.963 34.318C26.5271 34.0663 26.3777 33.5088 26.6294 33.0729C26.8811 32.6369 27.4386 32.4876 27.8745 32.7393L28.8754 33.3171V32.1614Z" fill="#231815"/>
<path d="M22.6254 37.8906C22.6254 37.3872 23.0334 36.9791 23.5368 36.9791C24.0402 36.9791 24.4483 37.3872 24.4483 37.8906V39.0463L25.4491 38.4684C25.8851 38.2167 26.4425 38.3661 26.6942 38.802C26.9459 39.238 26.7965 39.7954 26.3606 40.0471L25.3597 40.625L26.3606 41.2028C26.7965 41.4545 26.9459 42.0119 26.6942 42.4479C26.4425 42.8838 25.8851 43.0332 25.4491 42.7815L24.4483 42.2037V43.3593C24.4483 43.8627 24.0402 44.2708 23.5368 44.2708C23.0334 44.2708 22.6254 43.8627 22.6254 43.3593V42.2036L21.6245 42.7815C21.1886 43.0332 20.6311 42.8838 20.3794 42.4479C20.1277 42.0119 20.2771 41.4545 20.713 41.2028L21.7139 40.625L20.713 40.0471C20.2771 39.7954 20.1277 39.238 20.3794 38.802C20.6311 38.3661 21.1886 38.2167 21.6245 38.4684L22.6254 39.0463V37.8906Z" fill="#231815"/>
<path fill-rule="evenodd" clip-rule="evenodd" d="M14.2178 20.4659C15.765 15.8284 20.2267 12.5 25.4642 12.5C31.3563 12.5 36.2736 16.7167 37.1511 22.2695C40.5914 23.0924 43.1725 26.1233 43.1725 29.7743C43.1725 34.0668 39.6075 37.5 35.2681 37.5H34.8392C34.2639 37.5 33.7975 37.0336 33.7975 36.4583C33.7975 35.883 34.2639 35.4167 34.8392 35.4167H35.2681C38.5091 35.4167 41.0892 32.8648 41.0892 29.7743C41.0892 26.9438 38.9273 24.567 36.0721 24.1852C35.5883 24.1205 35.2143 23.7286 35.1723 23.2424C34.7554 18.4156 30.5892 14.5833 25.4642 14.5833C20.9336 14.5833 17.1464 17.5818 16.046 21.6138C15.9423 21.9938 15.6332 22.2827 15.2471 22.3606C12.1403 22.9876 9.83919 25.6587 9.83919 28.8194C9.83919 32.2828 12.6046 35.16 16.1595 35.4005C16.7335 35.4393 17.1673 35.9361 17.1285 36.5101C17.0897 37.084 16.5929 37.5179 16.0189 37.479C11.4251 37.1683 7.75586 33.4327 7.75586 28.8194C7.75586 24.8284 10.5041 21.4929 14.2178 20.4659Z" fill="#231815"/>
</svg>
