<svg width="51" height="50" viewBox="0 0 51 50" fill="none" xmlns="http://www.w3.org/2000/svg">
<path d="M24.708 34.2448C24.708 33.7414 25.1161 33.3334 25.6195 33.3334C26.1229 33.3334 26.531 33.7414 26.531 34.2448V39.7136C26.531 40.217 26.1229 40.625 25.6195 40.625C25.1161 40.625 24.708 40.217 24.708 39.7136V34.2448Z" fill="#231815"/>
<path d="M27.5318 34.8227C27.9677 34.571 28.5252 34.7203 28.7769 35.1563C29.0286 35.5922 28.8792 36.1497 28.4433 36.4014L23.7072 39.1357C23.2712 39.3874 22.7138 39.2381 22.4621 38.8021C22.2104 38.3662 22.3598 37.8087 22.7957 37.557L27.5318 34.8227Z" fill="#231815"/>
<path d="M22.7957 36.4014C22.3598 36.1497 22.2104 35.5922 22.4621 35.1563C22.7138 34.7203 23.2712 34.571 23.7072 34.8227L28.4433 37.557C28.8792 37.8087 29.0286 38.3662 28.7769 38.8021C28.5252 39.2381 27.9677 39.3874 27.5318 39.1357L22.7957 36.4014Z" fill="#231815"/>
<path fill-rule="evenodd" clip-rule="evenodd" d="M14.2178 20.4659C15.765 15.8284 20.2267 12.5 25.4642 12.5C31.3563 12.5 36.2736 16.7167 37.1511 22.2695C40.5914 23.0924 43.1725 26.1233 43.1725 29.7743C43.1725 34.0668 39.6075 37.5 35.2681 37.5H34.8392C34.2639 37.5 33.7975 37.0336 33.7975 36.4583C33.7975 35.883 34.2639 35.4167 34.8392 35.4167H35.2681C38.5091 35.4167 41.0892 32.8648 41.0892 29.7743C41.0892 26.9438 38.9273 24.567 36.0721 24.1852C35.5883 24.1205 35.2143 23.7286 35.1723 23.2424C34.7554 18.4156 30.5892 14.5833 25.4642 14.5833C20.9336 14.5833 17.1464 17.5818 16.046 21.6138C15.9423 21.9938 15.6332 22.2827 15.2471 22.3606C12.1403 22.9876 9.83919 25.6587 9.83919 28.8194C9.83919 32.2828 12.6046 35.16 16.1595 35.4005C16.7335 35.4393 17.1673 35.9361 17.1285 36.5101C17.0897 37.084 16.5929 37.5179 16.0189 37.479C11.4251 37.1683 7.75586 33.4327 7.75586 28.8194C7.75586 24.8284 10.5041 21.4929 14.2178 20.4659Z" fill="#231815"/>
</svg>
