<svg width="51" height="50" viewBox="0 0 51 50" fill="none" xmlns="http://www.w3.org/2000/svg">
<path d="M35.8822 25C35.8822 30.7529 31.2185 35.4166 25.4655 35.4166C19.7125 35.4166 15.0488 30.7529 15.0488 25C15.0488 19.247 19.7125 14.5833 25.4655 14.5833C31.2185 14.5833 35.8822 19.247 35.8822 25Z" fill="#FFB900"/>
<path d="M45.2572 26C45.8094 26 46.2572 25.5523 46.2572 25C46.2572 24.4477 45.8094 24 45.2572 24V26ZM41.0905 24C40.5382 24 40.0905 24.4477 40.0905 25C40.0905 25.5523 40.5382 26 41.0905 26V24ZM9.84049 26C10.3928 26 10.8405 25.5523 10.8405 25C10.8405 24.4477 10.3928 24 9.84049 24V26ZM5.67383 24C5.12154 24 4.67383 24.4477 4.67383 25C4.67383 25.5523 5.12154 26 5.67383 26V24ZM42.1056 35.7618C42.5839 36.038 43.1955 35.8741 43.4716 35.3958C43.7477 34.9175 43.5839 34.3059 43.1056 34.0298L42.1056 35.7618ZM39.4971 31.9464C39.0188 31.6703 38.4073 31.8342 38.1311 32.3125C37.855 32.7908 38.0188 33.4024 38.4971 33.6785L39.4971 31.9464ZM11.4339 18.0535C11.9122 18.3296 12.5237 18.1658 12.7999 17.6875C13.076 17.2092 12.9122 16.5976 12.4339 16.3214L11.4339 18.0535ZM8.82542 14.2381C8.34713 13.962 7.73554 14.1258 7.45939 14.6041C7.18325 15.0824 7.34713 15.694 7.82542 15.9702L8.82542 14.2381ZM34.4953 42.6401C34.7714 43.1184 35.383 43.2822 35.8613 43.0061C36.3396 42.7299 36.5035 42.1184 36.2274 41.6401L34.4953 42.6401ZM34.144 38.0316C33.8679 37.5533 33.2563 37.3895 32.778 37.6656C32.2997 37.9417 32.1358 38.5533 32.412 39.0316L34.144 38.0316ZM16.787 11.9683C17.0631 12.4466 17.6747 12.6105 18.153 12.3344C18.6313 12.0582 18.7952 11.4466 18.519 10.9683L16.787 11.9683ZM16.4357 7.35989C16.1595 6.8816 15.548 6.71772 15.0697 6.99386C14.5914 7.27 14.4275 7.8816 14.7036 8.35989L16.4357 7.35989ZM24.4655 44.7916C24.4655 45.3439 24.9132 45.7916 25.4655 45.7916C26.0178 45.7916 26.4655 45.3439 26.4655 44.7916H24.4655ZM26.4655 40.625C26.4655 40.0727 26.0178 39.625 25.4655 39.625C24.9132 39.625 24.4655 40.0727 24.4655 40.625H26.4655ZM24.4655 9.37498C24.4655 9.92726 24.9132 10.375 25.4655 10.375C26.0178 10.375 26.4655 9.92726 26.4655 9.37498H24.4655ZM26.4655 5.20831C26.4655 4.65603 26.0178 4.20831 25.4655 4.20831C24.9132 4.20831 24.4655 4.65603 24.4655 5.20831H26.4655ZM14.7036 41.6401C14.4275 42.1184 14.5914 42.7299 15.0697 43.0061C15.548 43.2822 16.1595 43.1184 16.4357 42.6401L14.7036 41.6401ZM18.519 39.0316C18.7952 38.5533 18.6313 37.9417 18.153 37.6656C17.6747 37.3895 17.0631 37.5533 16.787 38.0316L18.519 39.0316ZM32.412 10.9683C32.1358 11.4466 32.2997 12.0582 32.778 12.3344C33.2563 12.6105 33.8679 12.4466 34.144 11.9683L32.412 10.9683ZM36.2274 8.35989C36.5035 7.8816 36.3396 7.27 35.8613 6.99386C35.383 6.71772 34.7714 6.8816 34.4953 7.35989L36.2274 8.35989ZM7.82541 34.0298C7.34711 34.3059 7.18324 34.9175 7.45938 35.3958C7.73552 35.8741 8.34711 36.038 8.82541 35.7618L7.82541 34.0298ZM12.4338 33.6785C12.9121 33.4024 13.076 32.7908 12.7999 32.3125C12.5237 31.8342 11.9121 31.6703 11.4338 31.9465L12.4338 33.6785ZM38.4971 16.3215C38.0188 16.5976 37.855 17.2092 38.1311 17.6875C38.4072 18.1658 39.0188 18.3297 39.4971 18.0535L38.4971 16.3215ZM43.1056 15.9702C43.5839 15.694 43.7477 15.0824 43.4716 14.6042C43.1954 14.1259 42.5839 13.962 42.1056 14.2381L43.1056 15.9702ZM25.4655 37.4583C32.346 37.4583 37.9238 31.8805 37.9238 25H35.9238C35.9238 30.776 31.2415 35.4583 25.4655 35.4583V37.4583ZM13.0072 25C13.0072 31.8805 18.5849 37.4583 25.4655 37.4583V35.4583C19.6895 35.4583 15.0072 30.776 15.0072 25H13.0072ZM25.4655 12.5416C18.5849 12.5416 13.0072 18.1194 13.0072 25H15.0072C15.0072 19.224 19.6895 14.5416 25.4655 14.5416V12.5416ZM37.9238 25C37.9238 18.1194 32.346 12.5416 25.4655 12.5416V14.5416C31.2415 14.5416 35.9238 19.224 35.9238 25H37.9238ZM45.2572 24H41.0905V26H45.2572V24ZM9.84049 24H5.67383V26H9.84049V24ZM43.1056 34.0298L39.4971 31.9464L38.4971 33.6785L42.1056 35.7618L43.1056 34.0298ZM12.4339 16.3214L8.82542 14.2381L7.82542 15.9702L11.4339 18.0535L12.4339 16.3214ZM36.2274 41.6401L34.144 38.0316L32.412 39.0316L34.4953 42.6401L36.2274 41.6401ZM18.519 10.9683L16.4357 7.35989L14.7036 8.35989L16.787 11.9683L18.519 10.9683ZM26.4655 44.7916V40.625H24.4655V44.7916H26.4655ZM26.4655 9.37498V5.20831H24.4655V9.37498H26.4655ZM16.4357 42.6401L18.519 39.0316L16.787 38.0316L14.7036 41.6401L16.4357 42.6401ZM34.144 11.9683L36.2274 8.35989L34.4953 7.35989L32.412 10.9683L34.144 11.9683ZM8.82541 35.7618L12.4338 33.6785L11.4338 31.9465L7.82541 34.0298L8.82541 35.7618ZM39.4971 18.0535L43.1056 15.9702L42.1056 14.2381L38.4971 16.3215L39.4971 18.0535Z" fill="#231815"/>
</svg>
