<svg width="19" height="19" viewBox="0 0 19 19" fill="none" xmlns="http://www.w3.org/2000/svg">
<path d="M9.62305 0.667969C4.65127 0.667969 0.623047 4.69619 0.623047 9.66797C0.623047 14.6397 4.65127 18.668 9.62305 18.668C14.5948 18.668 18.623 14.6397 18.623 9.66797C18.623 4.69619 14.5948 0.667969 9.62305 0.667969ZM14.0432 6.83369L12.5662 13.7942C12.4573 14.2877 12.1634 14.4075 11.7533 14.1752L9.50329 12.5168L8.41821 13.5619C8.29845 13.6817 8.19684 13.7833 7.96458 13.7833L8.12426 11.4934L12.294 7.72644C12.4755 7.56676 12.2541 7.47603 12.0146 7.63571L6.86135 10.8801L4.64039 10.1869C4.15772 10.0345 4.14684 9.70426 4.742 9.472L13.419 6.12603C13.8218 5.98087 14.1739 6.22402 14.0432 6.83369Z" fill="white"/>
</svg>
