<svg width="30" height="30" viewBox="0 0 30 30" fill="none" xmlns="http://www.w3.org/2000/svg">
<path d="M15 0.000976562C6.71371 0.000976562 0 6.71469 0 15.001C0 23.2873 6.71371 30.001 15 30.001C23.2863 30.001 30 23.2873 30 15.001C30 6.71469 23.2863 0.000976562 15 0.000976562ZM22.3669 10.2772L19.9052 21.878C19.7238 22.7006 19.2339 22.9002 18.5504 22.5131L14.8004 19.749L12.9919 21.4909C12.7923 21.6905 12.623 21.8598 12.2359 21.8598L12.502 18.0433L19.4516 11.7651C19.754 11.499 19.3851 11.3478 18.9859 11.6139L10.3972 17.0211L6.69556 15.8659C5.89113 15.6119 5.87298 15.0615 6.86492 14.6744L21.3266 9.09775C21.998 8.85581 22.5847 9.26106 22.3669 10.2772Z" fill="white"/>
</svg>
