<svg width="51" height="50" viewBox="0 0 51 50" fill="none" xmlns="http://www.w3.org/2000/svg">
<path fill-rule="evenodd" clip-rule="evenodd" d="M14.2178 20.4659C15.765 15.8284 20.2267 12.5 25.4642 12.5C31.3563 12.5 36.2736 16.7167 37.1511 22.2695C40.5914 23.0924 43.1725 26.1233 43.1725 29.7743C43.1725 34.0668 39.6075 37.5 35.2681 37.5H34.8392C34.2639 37.5 33.7975 37.0336 33.7975 36.4583C33.7975 35.883 34.2639 35.4167 34.8392 35.4167H35.2681C38.5091 35.4167 41.0892 32.8648 41.0892 29.7743C41.0892 26.9438 38.9273 24.567 36.0721 24.1852C35.5883 24.1205 35.2143 23.7286 35.1723 23.2424C34.7554 18.4156 30.5892 14.5833 25.4642 14.5833C20.9336 14.5833 17.1464 17.5818 16.046 21.6138C15.9423 21.9938 15.6332 22.2827 15.2471 22.3606C12.1403 22.9876 9.83919 25.6587 9.83919 28.8194C9.83919 32.2828 12.6046 35.16 16.1595 35.4005C16.7335 35.4393 17.1673 35.9361 17.1285 36.5101C17.0897 37.084 16.5929 37.5179 16.0189 37.479C11.4251 37.1683 7.75586 33.4327 7.75586 28.8194C7.75586 24.8284 10.5041 21.4929 14.2178 20.4659Z" fill="#231815"/>
<path d="M30.6538 34.57C30.6109 34.4454 30.5044 34.3554 30.3777 34.3367L26.5016 33.7621L28.2798 29.6685C28.3273 29.5583 28.3178 29.4305 28.2539 29.329C28.1904 29.2278 28.0811 29.1666 27.9642 29.1666H22.5511C22.3651 29.1666 22.2125 29.3185 22.2059 29.5101L21.9567 36.7849C21.9504 36.9667 22.0781 37.124 22.2527 37.1499L24.9475 37.5499L21.3419 44.2631C21.2575 44.4211 21.3004 44.6188 21.4421 44.7246C21.5032 44.77 21.5737 44.7916 21.6442 44.7916C21.7378 44.7916 21.8306 44.7524 21.8983 44.6764L30.5829 34.9304C30.6695 34.8332 30.6967 34.6946 30.6538 34.57Z" fill="#FFB900"/>
</svg>
