<svg width="30" height="28" viewBox="0 0 30 28" fill="none" xmlns="http://www.w3.org/2000/svg">
<path d="M26.9163 7.31329C26.9354 7.60494 26.9354 7.89666 26.9354 8.18831C26.9354 17.0841 20.7488 27.3341 9.44166 27.3341C5.95813 27.3341 2.7221 26.2299 0 24.3133C0.494943 24.3758 0.970785 24.3967 1.48477 24.3967C4.3591 24.3967 7.00509 23.3342 9.11804 21.5217C6.41499 21.4592 4.14974 19.5217 3.36927 16.855C3.75001 16.9174 4.1307 16.9591 4.53049 16.9591C5.0825 16.9591 5.63457 16.8758 6.1485 16.73C3.33124 16.1049 1.21823 13.3966 1.21823 10.1258V10.0425C2.03673 10.5425 2.98859 10.855 3.9974 10.8966C2.3413 9.68826 1.25631 7.62578 1.25631 5.29243C1.25631 4.04246 1.56083 2.89662 2.09386 1.89662C5.12053 5.97995 9.67006 8.64657 14.7715 8.93828C14.6764 8.43828 14.6193 7.9175 14.6193 7.39666C14.6193 3.68828 17.3604 0.66748 20.7678 0.66748C22.5381 0.66748 24.137 1.47998 25.2602 2.79248C26.6497 2.50083 27.9822 1.9383 29.1625 1.16748C28.7055 2.73002 27.7348 4.04252 26.4594 4.8758C27.6967 4.73003 28.896 4.35495 30 3.83417C29.1626 5.16745 28.1156 6.3549 26.9163 7.31329Z" fill="white"/>
</svg>
