<svg width="17" height="15" viewBox="0 0 17 15" fill="none" xmlns="http://www.w3.org/2000/svg">
<path d="M14.9991 4.15702C15.0091 4.31014 15.0091 4.46329 15.0091 4.61641C15.0091 9.2867 11.7507 14.668 5.79519 14.668C3.96041 14.668 2.256 14.0883 0.822266 13.082C1.08295 13.1148 1.33358 13.1258 1.60429 13.1258C3.1182 13.1258 4.51184 12.568 5.62474 11.6164C4.20104 11.5836 3.00794 10.5664 2.59686 9.1664C2.7974 9.1992 2.99791 9.22108 3.20847 9.22108C3.49922 9.22108 3.79 9.17731 4.06068 9.10079C2.57683 8.77263 1.46391 7.35078 1.46391 5.63359V5.58985C1.89501 5.85236 2.39635 6.01642 2.9277 6.03827C2.05543 5.40388 1.48397 4.32108 1.48397 3.09607C1.48397 2.43983 1.64435 1.83827 1.9251 1.31326C3.51925 3.45701 5.91549 4.85699 8.60244 5.01014C8.55232 4.74764 8.52223 4.47423 8.52223 4.20079C8.52223 2.25389 9.96599 0.667969 11.7606 0.667969C12.6931 0.667969 13.5352 1.09453 14.1268 1.78359C14.8587 1.63048 15.5605 1.33515 16.1821 0.930471C15.9415 1.7508 15.4302 2.43986 14.7584 2.87733C15.4101 2.80081 16.0418 2.60389 16.6233 2.33048C16.1822 3.03045 15.6307 3.65386 14.9991 4.15702Z" fill="white"/>
</svg>
