<svg width="30" height="28" viewBox="0 0 30 28" fill="none" xmlns="http://www.w3.org/2000/svg">
<path d="M26.9163 7.31231C26.9354 7.60397 26.9354 7.89568 26.9354 8.18734C26.9354 17.0831 20.7488 27.3332 9.44166 27.3332C5.95813 27.3332 2.7221 26.229 0 24.3124C0.494943 24.3748 0.970785 24.3957 1.48477 24.3957C4.3591 24.3957 7.00509 23.3332 9.11804 21.5207C6.41499 21.4582 4.14974 19.5207 3.36927 16.854C3.75001 16.9165 4.1307 16.9581 4.53049 16.9581C5.0825 16.9581 5.63457 16.8748 6.1485 16.729C3.33124 16.104 1.21823 13.3957 1.21823 10.1248V10.0415C2.03673 10.5415 2.98859 10.854 3.9974 10.8956C2.3413 9.68728 1.25631 7.62481 1.25631 5.29146C1.25631 4.04148 1.56083 2.89565 2.09386 1.89564C5.12053 5.97897 9.67006 8.64559 14.7715 8.93731C14.6764 8.4373 14.6193 7.91652 14.6193 7.39568C14.6193 3.6873 17.3604 0.666504 20.7678 0.666504C22.5381 0.666504 24.137 1.479 25.2602 2.7915C26.6497 2.49985 27.9822 1.93732 29.1625 1.16651C28.7055 2.72904 27.7348 4.04154 26.4594 4.87482C27.6967 4.72906 28.896 4.35397 30 3.83319C29.1626 5.16647 28.1156 6.35392 26.9163 7.31231Z" fill="#373A3F"/>
</svg>
