<svg width="30" height="20" viewBox="0 0 30 20" fill="none" xmlns="http://www.w3.org/2000/svg">
<path d="M29.3163 1.35723C29.5223 0.575976 29.3163 0.000976562 28.325 0.000976562H25.0447C24.2093 0.000976562 23.825 0.494726 23.619 1.04473C23.619 1.04473 21.9482 5.61348 19.5869 8.57598C18.8239 9.43223 18.473 9.70723 18.0554 9.70723C17.8493 9.70723 17.5318 9.43223 17.5318 8.65098V1.35723C17.5318 0.419726 17.2979 0.000976562 16.6074 0.000976562H11.4503C10.9268 0.000976562 10.6149 0.438477 10.6149 0.844727C10.6149 1.73223 11.7956 1.93848 11.9181 4.43848V9.86348C11.9181 11.051 11.7287 11.2697 11.311 11.2697C10.1972 11.2697 7.49058 6.68223 5.88665 1.43223C5.56363 0.413477 5.24619 0.000976562 4.40524 0.000976562H1.12498C0.189353 0.000976562 0 0.494726 0 1.04473C0 2.01973 1.11384 6.86348 5.18493 13.2635C7.89713 17.6322 11.7176 20.001 15.1928 20.001C17.2812 20.001 17.5374 19.476 17.5374 18.5697C17.5374 14.3947 17.3481 14.001 18.3951 14.001C18.8796 14.001 19.715 14.276 21.6642 16.3822C23.8919 18.8822 24.2594 20.001 25.5069 20.001H28.7872C29.7228 20.001 30.1962 19.476 29.9233 18.4385C29.2996 16.2572 25.0837 11.7697 24.8943 11.4697C24.4098 10.7697 24.549 10.4572 24.8943 9.83223C24.8999 9.82598 28.9042 3.50098 29.3163 1.35723Z" fill="white"/>
</svg>
