<svg width="15" height="11" viewBox="0 0 15 11" fill="none" xmlns="http://www.w3.org/2000/svg">
<path d="M14.4922 1.34609C14.5914 0.955469 14.4922 0.667969 14.0149 0.667969H12.4355C12.0333 0.667969 11.8483 0.914844 11.7491 1.18984C11.7491 1.18984 10.9446 3.47422 9.80768 4.95547C9.44031 5.38359 9.27138 5.52109 9.07027 5.52109C8.97106 5.52109 8.81821 5.38359 8.81821 4.99297V1.34609C8.81821 0.877344 8.70559 0.667969 8.37309 0.667969H5.89005C5.63799 0.667969 5.48783 0.886719 5.48783 1.08984C5.48783 1.53359 6.0563 1.63672 6.11529 2.88672V5.59922C6.11529 6.19297 6.02412 6.30234 5.82301 6.30234C5.28672 6.30234 3.98353 4.00859 3.21126 1.38359C3.05574 0.874219 2.9029 0.667969 2.49799 0.667969H0.91861C0.468123 0.667969 0.376953 0.914844 0.376953 1.18984C0.376953 1.67734 0.913247 4.09922 2.8734 7.29922C4.17927 9.48359 6.01876 10.668 7.692 10.668C8.69755 10.668 8.8209 10.4055 8.8209 9.95234C8.8209 7.86484 8.72972 7.66797 9.23384 7.66797C9.46713 7.66797 9.86935 7.80547 10.8079 8.85859C11.8805 10.1086 12.0574 10.668 12.6581 10.668H14.2375C14.6879 10.668 14.9159 10.4055 14.7845 9.88672C14.4842 8.79609 12.4543 6.55234 12.3631 6.40234C12.1298 6.05234 12.1969 5.89609 12.3631 5.58359C12.3658 5.58047 14.2938 2.41797 14.4922 1.34609Z" fill="white"/>
</svg>
