<svg width="18" height="17" viewBox="0 0 18 17" fill="none" xmlns="http://www.w3.org/2000/svg">
<path d="M14.9935 2.99297C13.4259 1.49297 11.3381 0.667969 9.1194 0.667969C4.53981 0.667969 0.813276 4.22511 0.813276 8.59654C0.813276 9.99297 1.19491 11.3573 1.92076 12.5608L0.742188 16.668L5.14593 15.5644C6.35817 16.1965 7.72382 16.5287 9.11566 16.5287H9.1194C13.6952 16.5287 17.5041 12.9715 17.5041 8.60011C17.5041 6.48225 16.5612 4.49297 14.9935 2.99297ZM9.1194 15.193C7.87722 15.193 6.66124 14.8751 5.60239 14.2751L5.35171 14.1323L2.74015 14.7858L3.43607 12.3537L3.27144 12.1037C2.57926 11.0537 2.21634 9.84297 2.21634 8.59654C2.21634 4.9644 5.3143 2.00725 9.12314 2.00725C10.9677 2.00725 12.7 2.69297 14.0021 3.9394C15.3041 5.18583 16.1048 6.8394 16.101 8.60011C16.101 12.2358 12.9245 15.193 9.1194 15.193ZM12.9058 10.2573C12.7 10.1573 11.6786 9.67868 11.4878 9.6144C11.297 9.54654 11.1585 9.5144 11.0201 9.7144C10.8816 9.9144 10.485 10.3573 10.3616 10.493C10.2418 10.6251 10.1184 10.643 9.9126 10.543C8.69287 9.96083 7.89219 9.50368 7.08777 8.18583C6.8745 7.83583 7.30103 7.86083 7.69763 7.10368C7.76498 6.97154 7.7313 6.85725 7.67892 6.75725C7.62654 6.65725 7.21124 5.68225 7.03913 5.28583C6.87076 4.90011 6.69865 4.95368 6.57144 4.94654C6.45171 4.9394 6.31328 4.9394 6.17484 4.9394C6.03641 4.9394 5.81192 4.9894 5.6211 5.18583C5.43028 5.38583 4.89525 5.8644 4.89525 6.8394C4.89525 7.8144 5.63981 8.75726 5.74083 8.8894C5.84559 9.02154 7.20375 11.0215 9.28777 11.8823C10.6048 12.4251 11.1211 12.4715 11.7796 12.3787C12.1799 12.3215 13.0068 11.9001 13.1789 11.4358C13.351 10.9715 13.351 10.5751 13.2987 10.493C13.25 10.4037 13.1116 10.3537 12.9058 10.2573Z" fill="white"/>
</svg>
