<svg width="125" height="24" viewBox="0 0 125 24" fill="none" xmlns="http://www.w3.org/2000/svg">
<g clip-path="url(#clip0)">
<path d="M6.94023 13.4958V20.4108H8.88349V2.36621H5.98122C3.12941 2.36621 0.731879 4.259 0.731879 8.04458C0.731879 10.745 1.79184 12.2087 3.38178 13.0163L0 20.4108H2.24611L5.32505 13.4958H6.94023ZM6.94023 11.8806H5.9055C4.21461 11.8806 2.82657 10.9469 2.82657 8.04458C2.82657 5.04135 4.3408 4.00662 5.9055 4.00662H6.94023V11.8806Z" fill="white"/>
<path d="M28.3637 18.7956H27.3542V7.69131H21.4487V8.77651C21.4487 12.1582 21.3225 16.0953 20.1616 18.7956H19.3792V22.9093H21.1458V20.4108H26.597V22.9093H28.3637V18.7956ZM36.9191 19.5527L36.4648 18.0385C35.9601 18.3918 35.0767 18.8966 33.9663 18.8966C32.4016 18.8966 31.594 17.3823 31.594 14.5053H36.8938V13.4201C36.8938 9.1046 35.5058 7.51465 33.3859 7.51465C30.6855 7.51465 29.5498 10.4926 29.5498 14.581C29.5498 18.4928 31.165 20.5875 33.7896 20.5875C35.0515 20.5875 36.1115 20.1837 36.9191 19.5527ZM16.3003 7.69131V13.092H13.3728V7.69131H11.4043V20.4108H13.3728V14.7072H16.3003V20.4108H18.2435V7.69131H16.3003ZM44.2378 20.4108H46.383L42.7741 13.6725L45.9287 7.69131H43.935L40.8813 13.5715V7.69131H38.9128V20.4108H40.8813V14.0763L44.2378 20.4108ZM51.0014 20.5875C52.1623 20.5875 52.9699 20.209 53.6513 19.6285L53.1971 18.1647C52.7428 18.5685 52.0109 18.9471 51.0519 18.9471C49.462 18.9471 48.7048 17.13 48.7048 13.9501C48.7048 10.745 49.7143 9.15507 51.1276 9.15507C51.9352 9.15507 52.6923 9.5841 53.2223 10.0383L53.4999 8.17082C52.9447 7.8175 52.2885 7.51465 51.1528 7.51465C48.1749 7.51465 46.6354 10.0636 46.6354 14.051C46.6354 18.3918 48.2758 20.5875 51.0014 20.5875ZM25.4109 18.7956H22.0291C23.0891 16.0953 23.2153 12.1835 23.2153 9.50839V9.28126H25.4109V18.7956ZM33.3859 9.12984C34.5215 9.12984 34.8748 10.7197 34.8748 12.8901H31.6193C31.7454 10.6188 32.1745 9.12984 33.3859 9.12984Z" fill="white"/>
<path d="M96.8819 19.3761H91.254C91.9354 18.5433 92.3392 16.7514 92.5663 14.051C92.7682 11.4516 92.8944 7.96886 92.9701 3.40093H96.8819V19.3761ZM98.3961 23.414H99.3803V19.3761H98.1437V2.36621H91.8344C91.7587 7.38841 91.683 11.3759 91.4306 14.051C91.1783 16.6252 90.7492 18.6442 89.8659 19.3761H89.3359V23.414H90.3202L90.4968 20.4108H98.2194L98.3961 23.414Z" fill="white"/>
<path d="M103.386 20.6633C105.329 20.6633 106.944 19.3005 106.944 16.8272C106.944 15.4392 106.263 14.2026 104.673 13.6221C106.061 12.9407 106.566 11.805 106.566 10.5684C106.566 8.70083 105.506 7.43896 103.512 7.43896C102.149 7.43896 101.215 8.04466 100.66 8.77653L100.963 9.91221C101.518 9.12985 102.351 8.4737 103.512 8.4737C104.749 8.4737 105.43 9.30651 105.43 10.5936C105.43 12.335 104.395 13.2183 102.932 13.2183H101.998V14.1773H103.058C104.951 14.1773 105.733 15.2625 105.733 16.8525C105.733 18.6948 104.673 19.6286 103.361 19.6286C101.619 19.6286 100.761 18.2657 100.761 18.2657L100.357 19.25C100.357 19.25 101.342 20.6633 103.386 20.6633Z" fill="white"/>
<path d="M109.559 14.253H115.313C115.717 9.73556 114.304 7.43896 112.108 7.43896C109.963 7.43896 108.398 9.88698 108.398 14.0511C108.398 18.2153 109.635 20.6633 112.335 20.6633C114.354 20.6633 115.313 19.2248 115.313 19.2248L114.935 18.2657C114.935 18.2657 114.052 19.6286 112.361 19.6286C110.518 19.6286 109.61 17.7358 109.559 14.253ZM112.108 8.42322C113.395 8.42322 114.405 9.93745 114.203 13.3193H109.585C109.686 10.1394 110.771 8.42322 112.108 8.42322Z" fill="white"/>
<path d="M123.086 20.4109H124.272V7.69141H123.086V13.3193H118.745V7.69141H117.559V20.4109H118.745V14.2783H123.086V20.4109Z" fill="white"/>
<path fill-rule="evenodd" clip-rule="evenodd" d="M74.2311 14.3193C72.3392 16.2574 72.2061 18.6872 72.0458 24.0005C76.991 24.0005 80.4171 23.9845 82.176 22.2661C83.8935 20.5072 83.91 16.9189 83.9104 12.1335C78.598 12.2939 76.1687 12.4269 74.2311 14.3193ZM59.916 12.1335C59.916 16.9189 59.9324 20.5072 61.65 22.2661C63.4089 23.9845 66.8354 24.0005 71.7806 24.0005C71.6203 18.6872 71.4873 16.2574 69.5953 14.3193C67.6578 12.4269 65.2284 12.2939 59.916 12.1335ZM71.7806 0.000976562C66.8354 0.00144673 63.4088 0.0179026 61.6499 1.73589C59.9324 3.49479 59.916 7.08309 59.916 11.8685C65.2284 11.7081 67.6577 11.5751 69.5953 9.68264C71.4872 7.74462 71.6203 5.3148 71.7806 0.000976562ZM74.2311 9.68264C72.3392 7.74462 72.2061 5.3148 72.0458 0.000976562C76.991 0.00144673 80.4171 0.0179026 82.176 1.73589C83.8935 3.49479 83.91 7.08309 83.9104 11.8685C78.598 11.7081 76.1687 11.5751 74.2311 9.68264Z" fill="white"/>
</g>
<defs>
<clipPath id="clip0">
<rect width="125" height="24" fill="white" transform="translate(0 0.000976562)"/>
</clipPath>
</defs>
</svg>
