<svg width="125" height="24" viewBox="0 0 125 24" fill="none" xmlns="http://www.w3.org/2000/svg">
<g clip-path="url(#clip0)">
<path d="M6.94023 13.4948V20.4098H8.88349V2.36523H5.98122C3.12941 2.36523 0.731879 4.25802 0.731879 8.0436C0.731879 10.744 1.79184 12.2077 3.38178 13.0153L0 20.4098H2.24611L5.32505 13.4948H6.94023ZM6.94023 11.8796H5.9055C4.21461 11.8796 2.82657 10.9459 2.82657 8.0436C2.82657 5.04037 4.3408 4.00564 5.9055 4.00564H6.94023V11.8796Z" fill="black"/>
<path d="M28.3637 18.7947H27.3542V7.69033H21.4487V8.77553C21.4487 12.1573 21.3225 16.0944 20.1616 18.7947H19.3792V22.9084H21.1458V20.4099H26.597V22.9084H28.3637V18.7947ZM36.9191 19.5518L36.4648 18.0376C35.9601 18.3909 35.0767 18.8957 33.9663 18.8957C32.4016 18.8957 31.594 17.3814 31.594 14.5044H36.8938V13.4192C36.8938 9.10362 35.5058 7.51367 33.3859 7.51367C30.6855 7.51367 29.5498 10.4917 29.5498 14.5801C29.5498 18.4919 31.165 20.5866 33.7896 20.5866C35.0515 20.5866 36.1115 20.1828 36.9191 19.5518ZM16.3003 7.69033V13.0911H13.3728V7.69033H11.4043V20.4099H13.3728V14.7063H16.3003V20.4099H18.2435V7.69033H16.3003ZM44.2378 20.4099H46.383L42.7741 13.6716L45.9287 7.69033H43.935L40.8813 13.5706V7.69033H38.9128V20.4099H40.8813V14.0754L44.2378 20.4099ZM51.0014 20.5866C52.1623 20.5866 52.9699 20.208 53.6513 19.6276L53.1971 18.1638C52.7428 18.5676 52.0109 18.9462 51.0519 18.9462C49.462 18.9462 48.7048 17.1291 48.7048 13.9492C48.7048 10.7441 49.7143 9.15409 51.1276 9.15409C51.9352 9.15409 52.6923 9.58312 53.2223 10.0374L53.4999 8.16984C52.9447 7.81652 52.2885 7.51367 51.1528 7.51367C48.1749 7.51367 46.6354 10.0627 46.6354 14.0501C46.6354 18.3909 48.2758 20.5866 51.0014 20.5866ZM25.4109 18.7947H22.0291C23.0891 16.0944 23.2153 12.1826 23.2153 9.50741V9.28028H25.4109V18.7947ZM33.3859 9.12886C34.5215 9.12886 34.8748 10.7188 34.8748 12.8892H31.6193C31.7454 10.6179 32.1745 9.12886 33.3859 9.12886Z" fill="black"/>
<path d="M96.8819 19.3751H91.254C91.9354 18.5423 92.3392 16.7504 92.5663 14.05C92.7682 11.4506 92.8944 7.96788 92.9701 3.39995H96.8819V19.3751ZM98.3961 23.413H99.3803V19.3751H98.1437V2.36523H91.8344C91.7587 7.38743 91.683 11.3749 91.4306 14.05C91.1783 16.6242 90.7492 18.6432 89.8659 19.3751H89.3359V23.413H90.3202L90.4968 20.4098H98.2194L98.3961 23.413Z" fill="black"/>
<path d="M103.386 20.6623C105.329 20.6623 106.944 19.2995 106.944 16.8262C106.944 15.4382 106.263 14.2016 104.673 13.6211C106.061 12.9397 106.566 11.804 106.566 10.5674C106.566 8.69985 105.506 7.43799 103.512 7.43799C102.149 7.43799 101.215 8.04369 100.66 8.77556L100.963 9.91124C101.518 9.12888 102.351 8.47272 103.512 8.47272C104.749 8.47272 105.43 9.30554 105.43 10.5926C105.43 12.334 104.395 13.2173 102.932 13.2173H101.998V14.1763H103.058C104.951 14.1763 105.733 15.2615 105.733 16.8515C105.733 18.6938 104.673 19.6276 103.361 19.6276C101.619 19.6276 100.761 18.2647 100.761 18.2647L100.357 19.249C100.357 19.249 101.342 20.6623 103.386 20.6623Z" fill="black"/>
<path d="M109.559 14.252H115.313C115.717 9.73458 114.304 7.43799 112.108 7.43799C109.963 7.43799 108.398 9.886 108.398 14.0501C108.398 18.2143 109.635 20.6623 112.335 20.6623C114.354 20.6623 115.313 19.2238 115.313 19.2238L114.935 18.2647C114.935 18.2647 114.052 19.6276 112.361 19.6276C110.518 19.6276 109.61 17.7348 109.559 14.252ZM112.108 8.42224C113.395 8.42224 114.405 9.93647 114.203 13.3183H109.585C109.686 10.1384 110.771 8.42224 112.108 8.42224Z" fill="black"/>
<path d="M123.086 20.41H124.272V7.69043H123.086V13.3184H118.745V7.69043H117.559V20.41H118.745V14.2774H123.086V20.41Z" fill="black"/>
<path fill-rule="evenodd" clip-rule="evenodd" d="M74.2311 14.3183C72.3392 16.2564 72.2061 18.6862 72.0458 23.9995C76.991 23.9995 80.4171 23.9835 82.176 22.2651C83.8935 20.5062 83.91 16.9179 83.9104 12.1325C78.598 12.2929 76.1687 12.4259 74.2311 14.3183ZM59.916 12.1325C59.916 16.9179 59.9324 20.5062 61.65 22.2651C63.4089 23.9835 66.8354 23.9995 71.7806 23.9995C71.6203 18.6862 71.4873 16.2564 69.5953 14.3183C67.6578 12.4259 65.2284 12.2929 59.916 12.1325ZM71.7806 0C66.8354 0.000470166 63.4088 0.0169261 61.6499 1.73491C59.9324 3.49381 59.916 7.08211 59.916 11.8675C65.2284 11.7071 67.6577 11.5741 69.5953 9.68166C71.4872 7.74364 71.6203 5.31382 71.7806 0ZM74.2311 9.68166C72.3392 7.74364 72.2061 5.31382 72.0458 0C76.991 0.000470166 80.4171 0.0169261 82.176 1.73491C83.8935 3.49381 83.91 7.08211 83.9104 11.8675C78.598 11.7071 76.1687 11.5741 74.2311 9.68166Z" fill="url(#paint0_linear)"/>
<path fill-rule="evenodd" clip-rule="evenodd" d="M83.9105 12.1326V12V11.8679C78.5981 11.7071 76.1688 11.5745 74.2312 9.68168C72.3392 7.74412 72.2062 5.3143 72.0459 0.000488281H71.9133H71.7807C71.6204 5.3143 71.4873 7.74412 69.5954 9.68168C67.6578 11.5745 65.2285 11.7071 59.916 11.8679V12V12.1326C65.2285 12.2934 67.6578 12.426 69.5954 14.3184C71.4873 16.2565 71.6204 18.6863 71.7807 24.0001H71.9133H72.0459C72.2062 18.6863 72.3392 16.2565 74.2312 14.3184C76.1688 12.426 78.5981 12.2934 83.9105 12.1326Z" fill="white"/>
</g>
<defs>
<linearGradient id="paint0_linear" x1="73.8127" y1="24.9328" x2="73.8461" y2="-3.50719e-07" gradientUnits="userSpaceOnUse">
<stop stop-color="#3E4246"/>
<stop offset="0.5" stop-color="#2D3036"/>
<stop offset="1" stop-color="#3F4347"/>
</linearGradient>
<clipPath id="clip0">
<rect width="125" height="24" fill="white"/>
</clipPath>
</defs>
</svg>
