<svg xmlns="http://www.w3.org/2000/svg" viewBox="0 0 511.991 511.991" width="512" height="512"><path d="M508.467 248.991l-46.933-34.014 30.336-49.331c1.434-2.338 1.664-5.214.614-7.74s-3.234-4.403-5.897-5.035l-56.311-13.44 9.156-57.208a8.514 8.514 0 0 0-2.389-7.381 8.534 8.534 0 0 0-7.381-2.389l-57.207 9.156-13.44-56.303a8.537 8.537 0 0 0-5.035-5.905c-2.534-1.041-5.419-.828-7.731.614l-49.323 30.336-34.014-46.932c-3.217-4.429-10.607-4.429-13.815 0l-34.014 46.933-49.331-30.336a8.537 8.537 0 0 0-12.775 5.291l-13.44 56.303-57.207-9.157c-2.688-.452-5.444.452-7.381 2.389a8.504 8.504 0 0 0-2.389 7.381l9.156 57.199-56.303 13.44a8.535 8.535 0 0 0-5.905 5.035 8.56 8.56 0 0 0 .614 7.74l30.336 49.331-46.934 34.014A8.556 8.556 0 0 0 0 255.894a8.566 8.566 0 0 0 3.524 6.912l46.933 34.014-30.336 49.323a8.51 8.51 0 0 0-.614 7.731 8.537 8.537 0 0 0 5.905 5.035l56.294 13.449-9.156 57.207a8.522 8.522 0 0 0 2.389 7.381c1.937 1.937 4.659 2.842 7.381 2.389l57.208-9.156 13.44 56.311a8.538 8.538 0 0 0 5.035 5.897 8.504 8.504 0 0 0 7.74-.614l49.331-30.336 34.014 46.933c1.604 2.219 4.181 3.524 6.912 3.524s5.299-1.306 6.912-3.524l34.014-46.933 49.323 30.336c2.313 1.434 5.197 1.647 7.731.614a8.505 8.505 0 0 0 5.035-5.897l13.44-56.311 57.207 9.156a8.546 8.546 0 0 0 7.381-2.389 8.541 8.541 0 0 0 2.389-7.381l-9.156-57.207 56.311-13.44a8.522 8.522 0 0 0 5.897-5.035 8.512 8.512 0 0 0-.614-7.731l-30.336-49.323 46.933-34.014c2.219-1.613 3.524-4.173 3.524-6.912s-1.305-5.308-3.524-6.912zm-63.326 38.639a8.523 8.523 0 0 0-2.261 11.375l28.297 46.029-52.54 12.544a8.526 8.526 0 0 0-6.443 9.651l8.542 53.385-53.385-8.542a8.489 8.489 0 0 0-9.651 6.443l-12.544 52.54-46.029-28.297c-3.78-2.338-8.755-1.348-11.375 2.261L256 488.82l-31.744-43.802a8.52 8.52 0 0 0-6.912-3.524c-1.527 0-3.081.41-4.463 1.28l-46.029 28.297-12.544-52.54a8.51 8.51 0 0 0-9.651-6.443l-53.385 8.542 8.542-53.385a8.524 8.524 0 0 0-6.443-9.651l-52.54-12.544 28.305-46.029c2.338-3.797 1.348-8.755-2.261-11.375l-43.802-31.753 43.802-31.744c3.61-2.611 4.591-7.578 2.261-11.375l-28.305-46.029 52.54-12.544c4.335-1.041 7.151-5.239 6.443-9.651l-8.542-53.385 53.385 8.542c4.395.683 8.61-2.099 9.651-6.443l12.544-52.54 46.029 28.305c3.806 2.338 8.764 1.357 11.375-2.261L256 22.969l31.753 43.802c2.62 3.61 7.603 4.608 11.375 2.261l46.029-28.322 12.544 52.54c1.033 4.343 5.222 7.134 9.651 6.443l53.385-8.542-8.542 53.385a8.53 8.53 0 0 0 6.443 9.651l52.54 12.544-28.297 46.029c-2.338 3.797-1.348 8.755 2.261 11.375l43.802 31.744-43.803 31.751z" fill="#FFF"/><path d="M196.267 196.161H128a8.536 8.536 0 0 0-8.533 8.533v170.667a8.53 8.53 0 0 0 8.533 8.533h68.267a8.53 8.53 0 0 0 8.533-8.533V204.694a8.536 8.536 0 0 0-8.533-8.533zm-8.534 170.667h-51.2v-153.6h51.2v153.6zM273.067 85.228a8.53 8.53 0 0 0-8.533 8.533v56.201L232.9 181.595l12.066 12.066 34.133-34.133a8.513 8.513 0 0 0 2.5-6.033V103.37c14.711 3.806 25.6 17.186 25.6 33.058v51.2h17.067v-51.2c.001-28.237-22.963-51.2-51.199-51.2z" fill="#FFF"/><path d="M409.6 208.961c0-16.469-13.397-29.867-29.867-29.867h-140.8a8.526 8.526 0 0 0-6.033 2.5l-42.667 42.667a8.513 8.513 0 0 0-2.5 6.033v128a8.53 8.53 0 0 0 8.533 8.533h166.4c16.469 0 29.867-13.397 29.867-29.867a29.728 29.728 0 0 0-5.547-17.323c8.448-5.274 14.08-14.669 14.08-25.344 0-8.354-3.448-15.906-8.986-21.333 5.547-5.427 8.986-12.979 8.986-21.333 0-6.46-2.057-12.433-5.547-17.323 8.449-5.281 14.081-14.668 14.081-25.343zm-29.867 12.8H371.2c-4.719 0-8.533 3.823-8.533 8.533s3.814 8.533 8.533 8.533c7.057 0 12.8 5.743 12.8 12.8s-5.743 12.8-12.8 12.8a8.525 8.525 0 0 0-8.533 8.533 8.525 8.525 0 0 0 8.533 8.533c7.057 0 12.8 5.743 12.8 12.8s-5.743 12.8-12.8 12.8h-8.533a8.525 8.525 0 0 0-8.533 8.533 8.525 8.525 0 0 0 8.533 8.533c7.057 0 12.8 5.743 12.8 12.8s-5.743 12.8-12.8 12.8H204.8V233.827l37.666-37.666h137.267c7.057 0 12.8 5.743 12.8 12.8s-5.743 12.8-12.8 12.8zM153.6 332.694h17.067v17.067H153.6z" fill="#FFF"/></svg>