<svg xmlns="http://www.w3.org/2000/svg" viewBox="0 0 512 512" width="512" height="512"><path d="M506.922 249.331l-29.541-17.153-16.877-72.109c-4.493-19.193-21.397-32.597-41.107-32.597h-84.891v-13.467c0-5.633-4.567-10.199-10.199-10.199H10.199C4.567 103.806 0 108.372 0 114.005v243.111c0 5.633 4.567 10.199 10.199 10.199h32.779c4.74 23.293 25.38 40.877 50.051 40.877s45.312-17.584 50.052-40.877h206.476v.001c4.74 23.293 25.38 40.877 50.051 40.877 24.671 0 45.312-17.584 50.052-40.877h52.142c5.632 0 10.199-4.566 10.199-10.199v-98.966a10.203 10.203 0 0 0-5.079-8.82zM93.029 387.796c-16.915 0-30.677-13.763-30.677-30.678s13.762-30.678 30.677-30.678c16.916 0 30.678 13.762 30.678 30.678s-13.762 30.678-30.678 30.678zm221.08-77.452h-91.994c-5.632 0-10.199 4.566-10.199 10.199s4.567 10.199 10.199 10.199h91.994v16.176H143.081c-4.74-23.293-25.381-40.877-50.052-40.877s-45.311 17.583-50.051 40.877h-22.58v-52.75h293.711v16.176zm0-172.672V273.77H20.398V124.205h293.711v13.467zm79.562 10.2h25.728c10.187-.001 18.924 6.927 21.244 16.846l14.949 63.872h-61.92v-80.718zm5.937 239.924c-16.228 0-29.546-12.669-30.602-28.635a10.258 10.258 0 0 0 0-4.086c1.056-15.966 14.374-28.635 30.602-28.635 16.916 0 30.678 13.762 30.678 30.678s-13.762 30.678-30.678 30.678zm91.994-89.284h-19.403v-10.797h19.403v10.797zm0-31.195H462c-5.632 0-10.199 4.566-10.199 10.199v31.195c0 5.633 4.567 10.199 10.199 10.199h29.602v28.008H449.66c-4.74-23.293-25.381-40.877-50.052-40.877s-45.311 17.583-50.051 40.877h-15.05V147.871h38.766v90.918c0 5.633 4.567 10.199 10.199 10.199h82.235l25.894 15.037v3.292z" fill="#FFF"/><path d="M187.693 310.344h-8.606c-5.632 0-10.199 4.566-10.199 10.199s4.566 10.199 10.199 10.199h8.606c5.632 0 10.199-4.566 10.199-10.199s-4.567-10.199-10.199-10.199z" fill="#FFF"/></svg>