<svg width="120" height="105" fill="none" xmlns="http://www.w3.org/2000/svg"><path d="M65.462 87.106a13.9 13.9 0 0 1 1.516 2.72c.386.928.589 1.84.613 2.738a5.41 5.41 0 0 1-.58 2.583c-.411.826-1.093 1.572-2.04 2.25-.63.451-1.275.759-1.937.918a7.93 7.93 0 0 1-1.956.22 11.079 11.079 0 0 1-1.89-.185 33.447 33.447 0 0 0-1.74-.28 9.287 9.287 0 0 0-1.513-.086 2.173 2.173 0 0 0-1.217.403c-.495.354-.722.85-.682 1.482.042.637.459 1.513 1.245 2.624l-3.466 2.482a13.908 13.908 0 0 1-1.516-2.72c-.386-.928-.59-1.839-.61-2.732a5.463 5.463 0 0 1 .589-2.572c.41-.826 1.089-1.576 2.034-2.253.632-.453 1.28-.756 1.94-.913a7.898 7.898 0 0 1 1.959-.222 11.7 11.7 0 0 1 1.884.177c.61.106 1.191.204 1.738.282.548.076 1.05.106 1.515.088a2.151 2.151 0 0 0 1.222-.398c.508-.364.736-.86.681-1.502-.051-.637-.47-1.51-1.256-2.622l3.466-2.482h.001zm19.039-13.632c.627.885 1.132 1.79 1.516 2.72.386.927.59 1.839.613 2.737a5.41 5.41 0 0 1-.58 2.583c-.41.826-1.092 1.572-2.04 2.25-.629.451-1.274.759-1.936.918-.66.157-1.314.23-1.956.22a11.079 11.079 0 0 1-1.89-.185 33.335 33.335 0 0 0-1.74-.28 9.287 9.287 0 0 0-1.513-.085 2.173 2.173 0 0 0-1.218.402c-.494.354-.722.85-.681 1.483.041.636.458 1.512 1.244 2.623l-3.466 2.482a13.901 13.901 0 0 1-1.516-2.72c-.386-.927-.589-1.839-.61-2.732a5.462 5.462 0 0 1 .589-2.572c.41-.826 1.089-1.576 2.035-2.254.632-.452 1.28-.755 1.94-.912a7.898 7.898 0 0 1 1.959-.222c.641.01 1.269.067 1.884.177.61.106 1.19.204 1.737.282a8.64 8.64 0 0 0 1.515.089 2.151 2.151 0 0 0 1.223-.4c.507-.363.736-.86.68-1.501-.05-.637-.469-1.51-1.256-2.622l3.467-2.482zm19.042-13.634c.627.885 1.132 1.79 1.514 2.72.386.928.589 1.84.615 2.736a5.448 5.448 0 0 1-.58 2.583c-.41.826-1.092 1.572-2.042 2.252-.628.45-1.274.759-1.937.918a8.02 8.02 0 0 1-1.956.22 10.979 10.979 0 0 1-1.888-.187 36.136 36.136 0 0 0-1.74-.28 9.146 9.146 0 0 0-1.514-.084 2.17 2.17 0 0 0-1.215.4c-.498.357-.724.853-.682 1.484.04.638.457 1.514 1.243 2.624l-3.465 2.481a14.032 14.032 0 0 1-1.517-2.718c-.386-.928-.59-1.84-.608-2.734a5.418 5.418 0 0 1 .588-2.572c.412-.825 1.09-1.576 2.035-2.253.632-.453 1.278-.754 1.94-.913a7.79 7.79 0 0 1 1.956-.22c.645.007 1.27.067 1.887.175.61.106 1.189.205 1.736.283.55.076 1.05.106 1.517.088a2.147 2.147 0 0 0 1.222-.4c.506-.362.736-.86.681-1.5-.051-.638-.471-1.51-1.258-2.622l3.467-2.483.001.001zm-29.669 6.88L42.508 89.178l-6.332-8.95 3.212-2.299 3.622 5.12 24.941-17.86-3.622-5.119 3.211-2.3 6.332 8.95h.002zM98.525 9.922L67.159 32.381l-6.33-8.948 3.211-2.3 3.622 5.12L92.605 8.394l-3.623-5.12L92.194.976l6.33 8.948h.002zm2.284 27.948l1.474-18.332L120 24.128l-.807 4.545-12.854-3.48-.993 13.395-4.537-.718zm-16.027 6.32l8.57 1.453-.756 4.512-8.568-1.451-1.443 8.62-4.194-.71 1.437-8.619-8.564-1.455.755-4.512 8.564 1.454 1.443-8.62 4.198.708-1.442 8.62zm-30.851 5.944c-.666 5.11-2.725 8.895-6.173 11.364-.8.573-1.657 1.068-2.57 1.482a13.68 13.68 0 0 1-2.96.946 16.574 16.574 0 0 1-3.43.3 20.438 20.438 0 0 1-3.922-.448l-.583-2.734c3.806-.093 7.276-1.261 10.41-3.505a17.387 17.387 0 0 0 3.99-3.957 27.991 27.991 0 0 0 2.763-4.752l2.475 1.304zM16.7 65.484l-5.102-.442 4.054-47.45 45.538 11.96-1.297 4.988-39.657-10.417L16.7 65.484zM32.729 87.31c-.666 5.109-2.723 8.892-6.172 11.362a15.144 15.144 0 0 1-2.573 1.484c-.91.417-1.898.729-2.96.946-1.061.21-2.205.312-3.43.3-1.226-.013-2.527-.161-3.921-.448l-.583-2.734c3.808-.095 7.275-1.26 10.41-3.505a17.392 17.392 0 0 0 3.991-3.958 27.967 27.967 0 0 0 2.761-4.75l2.477 1.302zm34.976-77.004l-3.367 2.41-3.21-.11-.948 3.088-3.297 2.361.977-6.463 3.47-2.484 6.375 1.198zM65.75 2.97c.505.714.692 1.402.556 2.062-.139.662-.57 1.278-1.304 1.854l.48 1.146-1.403 1.004-1.968-2.28.624-.446c.33-.236.5-.482.516-.728a1.03 1.03 0 0 0-.19-.686c-.186-.263-.512-.368-.979-.324-.47.047-.964.251-1.481.622l-.119.085-1.357-1.92.2-.143c.765-.548 1.487-.935 2.166-1.155.675-.219 1.294-.316 1.849-.287.555.03 1.036.154 1.448.371.407.222.73.497.962.825zM5.58 81.442l7.581 1.28-4.129 2.956L0 85.437l5.58-3.995zm8.115-5.811l7.582 1.28-4.125 2.954-9.037-.239 5.58-3.995z" fill="#F2F2F2"/></svg>