<svg width="70" height="70" fill="none" xmlns="http://www.w3.org/2000/svg"><g clip-path="url(#clip0)" fill="#259F00"><path d="M47.286 38.534c2.618-1.213 5.225-2.098 7.786-2.64a1.367 1.367 0 1 0-.566-2.675c-2.964.627-5.975 1.676-8.986 3.126a96.805 96.805 0 0 0-5.685-6.181 95.795 95.795 0 0 0-6.557-5.999 30.888 30.888 0 0 0 4.462-7.756c1.766-4.43 2.661-9.49 2.661-15.043a1.367 1.367 0 0 0-2.734 0c0 8.555-2.194 15.635-6.526 21.099a50.4 50.4 0 0 0-2.366-1.707c-4.052-2.733-6.466-3.374-7.814-2.073l-.03.026c0 .002-.002.003-.003.004l-.003.003a2.25 2.25 0 0 0-.64 1.265L.107 68.102a1.367 1.367 0 0 0 1.79 1.79l.004-.002 48.117-20.178c.456-.074.844-.26 1.171-.555.024-.02.046-.041.069-.062.008-.009.018-.016.026-.024l.004-.005c.01-.009.018-.019.027-.029 1.3-1.349.66-3.762-2.073-7.814a51.567 51.567 0 0 0-1.955-2.69zM10.844 60.259c-.285 1.78-.92 2.949-1.225 3.43l-5.699 2.39 5.788-13.8c1.132 2.838 1.524 5.557 1.136 7.98zm8.413-4.626c-.551 3.142-2.013 4.657-2.43 5.033l-3.602 1.51c.801-2.85 1.012-7.376-2.083-13.317l4.097-9.77c4.25 8.06 4.57 13.4 4.018 16.544zm4.877 1.969l-2.947 1.236c.28-.71.528-1.518.708-2.433 1.094-5.586-.692-12.492-5.307-20.534l1.48-3.527c1.17 1.409 2.504 3.403 3.045 4.66a1.367 1.367 0 1 0 2.512-1.08c-.802-1.865-2.835-4.767-4.39-6.365l2.26-5.39a30.54 30.54 0 0 0 1.475 2.393c.405.6.849 1.223 1.326 1.863 4.677 7.097 4.57 14.36 3.657 19.207-.973 5.155-3.054 8.93-3.82 9.97zm10.535-4.418l-6.491 2.722a34.462 34.462 0 0 0 2.461-7.767c.635-3.365.914-7.79-.26-12.57a103.2 103.2 0 0 0 1.997 2.054 97.008 97.008 0 0 0 6.087 5.605c-.196 6.455-3.157 9.397-3.794 9.956zm4.712-1.976c.732-1.514 1.378-3.465 1.666-5.903.826.63 1.626 1.21 2.39 1.724a30.114 30.114 0 0 0 2.394 1.475l-6.45 2.704zm4.809-6.982c-2.972-2.106-6.481-5.138-9.88-8.537-3.4-3.399-6.43-6.907-8.537-9.88-2.036-2.874-2.585-4.342-2.73-4.978.636.145 2.104.694 4.978 2.73.427.302.865.625 1.31.963-.095.1-.19.199-.287.296a1.367 1.367 0 0 0 1.933 1.934c.172-.172.341-.346.508-.521a93.215 93.215 0 0 1 6.417 5.865 95.57 95.57 0 0 1 5.127 5.537 51.76 51.76 0 0 0-.74.42 1.367 1.367 0 1 0 1.367 2.367c.38-.219.76-.43 1.139-.635a54.287 54.287 0 0 1 1.643 2.19c2.036 2.875 2.585 4.343 2.73 4.979-.636-.145-2.104-.694-4.978-2.73z"/><path d="M24.73 39.448a1.367 1.367 0 0 0-2.52 1.057 1.368 1.368 0 1 0 2.52-1.057zM51.056 21.15a1.363 1.363 0 0 0 1.933 0c3.055-3.056 8.004-4.456 11.617-4.747a1.367 1.367 0 0 0-.22-2.726c-4.098.331-9.751 1.96-13.33 5.539a1.367 1.367 0 0 0 0 1.933zm17.931-7.21a7.448 7.448 0 0 0-.118-.03 1.367 1.367 0 0 0-.66 2.653l.069.018a1.367 1.367 0 1 0 .709-2.64zM10.05 11.433h1.367V12.8a1.367 1.367 0 0 0 2.734 0v-1.367h1.368a1.367 1.367 0 0 0 0-2.735H14.15V7.331a1.367 1.367 0 0 0-2.734 0v1.367H10.05a1.367 1.367 0 0 0 0 2.735zm31.991 13.261h1.367v1.367a1.367 1.367 0 0 0 2.735 0v-1.367h1.367a1.367 1.367 0 0 0 0-2.734h-1.367v-1.368a1.367 1.367 0 0 0-2.735 0v1.368h-1.367a1.367 1.367 0 0 0 0 2.734zm19.004 32.402h-1.367V55.73a1.367 1.367 0 0 0-2.735 0v1.367h-1.367a1.367 1.367 0 0 0 0 2.735h1.367v1.367a1.367 1.367 0 0 0 2.735 0V59.83h1.367a1.367 1.367 0 0 0 0-2.735zM53.316 8.203a4.106 4.106 0 0 0 4.102-4.101A4.106 4.106 0 0 0 53.316 0a4.106 4.106 0 0 0-4.101 4.102 4.106 4.106 0 0 0 4.101 4.101zm0-5.468c.754 0 1.368.613 1.368 1.367s-.614 1.367-1.368 1.367a1.369 1.369 0 0 1-1.367-1.367c0-.754.614-1.367 1.367-1.367zm8.549 21.002a4.106 4.106 0 0 0-4.101 4.101 4.106 4.106 0 0 0 4.101 4.102 4.106 4.106 0 0 0 4.102-4.102 4.106 4.106 0 0 0-4.102-4.101zm0 5.469a1.369 1.369 0 0 1-1.367-1.368 1.368 1.368 0 0 1 2.734 0 1.37 1.37 0 0 1-1.367 1.368zM27.14 13.073a4.106 4.106 0 0 0 4.101-4.102A4.106 4.106 0 0 0 27.14 4.87a4.106 4.106 0 0 0-4.102 4.101 4.106 4.106 0 0 0 4.102 4.102zm0-5.469a1.37 1.37 0 0 1 1.367 1.367 1.37 1.37 0 0 1-1.367 1.368 1.369 1.369 0 0 1-1.367-1.368c0-.753.613-1.367 1.367-1.367zm34.272 32.599a1.37 1.37 0 0 0-1.367-1.367 1.37 1.37 0 0 0-1.367 1.367 1.37 1.37 0 0 0 1.367 1.367 1.37 1.37 0 0 0 1.367-1.367zM45.826 12.996a1.37 1.37 0 0 0 1.367-1.367 1.37 1.37 0 0 0-1.367-1.367 1.37 1.37 0 0 0-1.367 1.367 1.37 1.37 0 0 0 1.367 1.367zM64.147 49.09a1.37 1.37 0 0 0-1.368 1.367 1.37 1.37 0 0 0 1.368 1.367 1.37 1.37 0 0 0 1.367-1.367 1.37 1.37 0 0 0-1.367-1.367zM19.03 4.102a1.37 1.37 0 0 0 1.367-1.367 1.37 1.37 0 0 0-1.367-1.368 1.37 1.37 0 0 0-1.367 1.368 1.37 1.37 0 0 0 1.367 1.367z"/></g><defs><clipPath id="clip0"><path fill="#fff" d="M0 0h70v70H0z"/></clipPath></defs></svg>