<svg width="64" height="64" fill="none" xmlns="http://www.w3.org/2000/svg"><g clip-path="url(#clip0)" fill="#259F00"><path d="M62.934 0H1.066C.477 0 0 .477 0 1.066V22.4h2.133V2.133h59.734V25.6H24.533v2.133h38.4c.59 0 1.067-.477 1.067-1.066v-25.6C64 .477 63.523 0 62.934 0z"/><path d="M56.533 5.333H35.2v2.134h21.333V5.333zm3.201 6.4H38.4v2.134h21.334v-2.134zm-4.267 6.4H34.134v2.134h21.333v-2.134zM34.048 9.196a3.442 3.442 0 0 0-4.59-1.817l-8.649 4.487c.341-.707.52-1.481.524-2.266a5.333 5.333 0 0 0-10.666 0 5.28 5.28 0 0 0 1.094 3.2h-.045a7.32 7.32 0 0 0-6.8 4.735L2.07 27.35a3.416 3.416 0 0 0 4.454 4.401A3.445 3.445 0 0 0 8.485 29.7L9.6 26.15v15.438a5.282 5.282 0 0 0-3.2-1.094 5.325 5.325 0 0 0-3.722 9.142A4.914 4.914 0 0 0 0 53.995v8.938C0 63.523.477 64 1.066 64h10.667c.59 0 1.067-.477 1.067-1.066v-8.94a4.903 4.903 0 0 0-1.904-3.86h8.074a4.902 4.902 0 0 0-1.903 3.86v8.94c0 .588.477 1.066 1.066 1.066H28.8c.59 0 1.067-.477 1.067-1.066v-8.94a4.914 4.914 0 0 0-2.678-4.358A5.329 5.329 0 0 0 22.4 40.6V18.78l9.792-5.084a3.442 3.442 0 0 0 1.856-4.5zM16 6.4a3.2 3.2 0 1 1 0 6.4 3.2 3.2 0 0 1 0-6.4zM6.4 42.627a3.2 3.2 0 1 1 0 6.4 3.2 3.2 0 0 1 0-6.4zm4.267 19.24H2.133v-7.872A2.799 2.799 0 0 1 4.93 51.2h2.94a2.799 2.799 0 0 1 2.796 2.795v7.872zm17.066-7.872v7.872H19.2v-7.872a2.799 2.799 0 0 1 2.795-2.795h2.943a2.799 2.799 0 0 1 2.795 2.795zm-4.266-11.368a3.2 3.2 0 1 1 0 6.4 3.2 3.2 0 0 1 0-6.4zm8.63-31.651a1.372 1.372 0 0 1-.806.79l-10.449 5.42a1.067 1.067 0 0 0-.575.947v23.455A5.261 5.261 0 0 0 18.607 48h-1.54V29.867h-2.134V48H11.26a5.3 5.3 0 0 0 .47-2.133h.003V19.2a1.067 1.067 0 0 0-2.084-.32L6.464 29.016a1.282 1.282 0 0 1-1.78.709 1.31 1.31 0 0 1-.595-1.694l2.847-9.814a5.153 5.153 0 0 1 4.78-3.284h7.553c.17 0 .34-.04.491-.12L30.362 9.31a1.313 1.313 0 0 1 1.678.622c.164.325.185.704.056 1.044zm12.158 38.66a5.333 5.333 0 1 0-7.443 0 4.914 4.914 0 0 0-2.678 4.359v8.938c0 .59.477 1.067 1.066 1.067h10.667c.59 0 1.067-.477 1.067-1.066v-8.94a4.914 4.914 0 0 0-2.678-4.358zm-3.721-7.009a3.2 3.2 0 1 1 0 6.4 3.2 3.2 0 0 1 0-6.4zm4.267 19.24h-8.534v-7.872a2.799 2.799 0 0 1 2.795-2.795h2.943a2.799 2.799 0 0 1 2.795 2.795v7.872zm16.521-12.231a5.333 5.333 0 1 0-7.444 0 4.914 4.914 0 0 0-2.678 4.359v8.938c0 .59.477 1.067 1.066 1.067h10.668c.589 0 1.066-.477 1.066-1.066v-8.94a4.914 4.914 0 0 0-2.678-4.358zM57.6 42.627a3.2 3.2 0 1 1 0 6.4 3.2 3.2 0 0 1 0-6.4zm4.267 19.24h-8.533v-7.872a2.799 2.799 0 0 1 2.795-2.795h2.943a2.799 2.799 0 0 1 2.795 2.795v7.872z"/></g><defs><clipPath id="clip0"><path fill="#fff" d="M0 0h64v64H0z"/></clipPath></defs></svg>