<svg width="72" height="72" fill="none" xmlns="http://www.w3.org/2000/svg"><g clip-path="url(#clip0)" fill="#259F00"><path d="M65.998 18.107h-2.024a.215.215 0 0 1-.004-.01l-.388-.948-.008-.018v-.003l1.438-1.45c.68-.684.68-1.798 0-2.483l-2.7-2.721a1.74 1.74 0 0 0-1.244-.518 1.74 1.74 0 0 0-1.244.518l-1.432 1.442a.141.141 0 0 0-.01-.004l-.934-.389-.014-.005V9.463a1.76 1.76 0 0 0-1.759-1.757h-3.814a1.76 1.76 0 0 0-1.758 1.757v2.054l-.014.006-.933.389-.01.004-1.433-1.443a1.74 1.74 0 0 0-1.243-.517c-.46 0-.893.177-1.221.497a23.585 23.585 0 0 0-8.393-1.537C23.701 8.916 13 19.696 13 32.948c0 4.91 1.46 9.631 4.223 13.654A23.869 23.869 0 0 0 27.4 55.018v3.916a2.463 2.463 0 0 0-1.614 2.307v2.288a2.464 2.464 0 0 0 2.46 2.461h1.539v3.704A2.306 2.306 0 0 0 32.087 72h9.539a2.306 2.306 0 0 0 2.3-2.306V65.99h1.539a2.464 2.464 0 0 0 2.46-2.46v-2.29a2.463 2.463 0 0 0-1.613-2.307v-3.916c5.342-2.322 9.633-6.495 12.129-11.82a1.055 1.055 0 0 0-1.91-.896c-2.145 4.575-5.74 8.218-10.22 10.394v-5.72h.237a1.76 1.76 0 0 0 1.758-1.758V42.47a1.76 1.76 0 0 0-1.758-1.758h-2.682a1.76 1.76 0 0 0-1.758 1.758v2.748c0 .97.789 1.758 1.758 1.758h.336V58.78h-1.535v-8.091c0-.67-.33-1.47-.802-1.945l-7.956-8.017.34-.341a1.77 1.77 0 0 0 0-2.484l-1.902-1.916a1.74 1.74 0 0 0-1.244-.517c-.47 0-.912.184-1.243.517l-1.925 1.94a1.768 1.768 0 0 0 0 2.484l1.9 1.915a1.74 1.74 0 0 0 1.244.518 1.74 1.74 0 0 0 1.244-.518l.1-.1 7.945 8.004c.078.081.187.348.19.46v8.091h-2.181v-8.858a1.055 1.055 0 1 0-2.11 0v8.858h-3.19v-7.545h.286a1.76 1.76 0 0 0 1.758-1.758V46.73a1.76 1.76 0 0 0-1.758-1.758h-2.682a1.76 1.76 0 0 0-1.758 1.758v2.748c0 .97.789 1.758 1.758 1.758h.286v7.545h-1.456v-4.465c0-.431-.263-.82-.664-.98a21.759 21.759 0 0 1-9.886-7.927 21.916 21.916 0 0 1-3.852-12.46c0-12.088 9.755-21.923 21.747-21.923a21.5 21.5 0 0 1 6.748 1.082l-1.079 1.088a1.768 1.768 0 0 0 0 2.484l1.438 1.449v.003l-.008.018-.388.947a.574.574 0 0 1-.004.01h-2.024a1.76 1.76 0 0 0-1.758 1.759v3.854c0 .97.789 1.758 1.758 1.758h2.024l.004.01.388.947.008.019v.003l-1.438 1.449a1.768 1.768 0 0 0 0 2.483l2.7 2.723a1.74 1.74 0 0 0 1.245.517c.47 0 .912-.184 1.244-.518l1.431-1.442c.004 0 .007.003.01.004l.934.388.014.006v2.054c0 .97.789 1.758 1.758 1.758h3.815a1.76 1.76 0 0 0 1.757-1.758v-2.053l.001-.001.014-.006.934-.388a.23.23 0 0 0 .01-.005l.184.186a22.06 22.06 0 0 1-.162 4.01 1.055 1.055 0 1 0 2.091.275c.11-.84.176-1.694.198-2.549a1.74 1.74 0 0 0 1.608-.48l2.702-2.72c.68-.686.68-1.8 0-2.485l-1.438-1.448v-.003l.007-.018.388-.948.005-.01h2.023a1.76 1.76 0 0 0 1.758-1.758v-3.854a1.76 1.76 0 0 0-1.758-1.758zM31.079 40.584l-1.405-1.416 1.43-1.44 1.405 1.416-1.43 1.44zm10.547 29.307h-9.539a.197.197 0 0 1-.192-.197v-.822h9.922v.822a.197.197 0 0 1-.191.197zm.191-3.128h-9.922v-.773h9.922v.773zm2.4-23.941h1.98v2.045h-1.98v-2.045zM31.032 47.08h1.98v2.045h-1.98V47.08zm-3.136 14.16c0-.19.161-.352.352-.352h17.217c.19 0 .351.161.351.352v2.288c0 .19-.16.352-.351.352H28.248a.356.356 0 0 1-.352-.352V61.24zm37.75-37.873h-1.721c-.832 0-1.631.562-1.916 1.342l-.37.9c-.344.752-.177 1.712.406 2.3l1.228 1.237-2.206 2.223-1.217-1.227a2.072 2.072 0 0 0-1.467-.588 1.99 1.99 0 0 0-.837.18l-.885.368a2.101 2.101 0 0 0-1.337 1.918v1.748h-3.111V32.02c0-.83-.56-1.63-1.337-1.918l-.886-.368a1.99 1.99 0 0 0-.836-.18c-.562 0-1.097.214-1.468.588L46.47 31.37l-2.206-2.223 1.228-1.238c.583-.588.75-1.548.405-2.3l-.369-.899a2.094 2.094 0 0 0-1.916-1.343h-1.721v-3.15h1.721c.832 0 1.631-.563 1.916-1.344l.369-.9c.345-.75.178-1.711-.405-2.298l-1.228-1.238 2.205-2.223 1.217 1.227c.371.373.906.588 1.468.588.295 0 .583-.062.836-.18l.886-.369c.777-.288 1.337-1.087 1.337-1.917V9.815h3.11v1.748c0 .83.56 1.63 1.338 1.918l.886.368c.253.118.54.18.836.18a2.07 2.07 0 0 0 1.467-.588l1.218-1.226 2.205 2.222-1.228 1.238c-.583.587-.75 1.547-.405 2.298l.369.9c.285.78 1.084 1.343 1.916 1.343h1.721v3.151z"/><path d="M60.684 19.5a1.055 1.055 0 1 0-2.005.656c.172.525.26 1.076.26 1.636 0 2.877-2.32 5.217-5.17 5.217-2.851 0-5.17-2.34-5.17-5.217s2.319-5.218 5.17-5.218c.586 0 1.16.098 1.708.292a1.055 1.055 0 0 0 .702-1.99 7.225 7.225 0 0 0-2.41-.41c-4.014 0-7.28 3.286-7.28 7.326 0 4.04 3.266 7.326 7.28 7.326 4.013 0 7.279-3.286 7.279-7.326 0-.784-.123-1.555-.364-2.292z"/><path d="M53.769 18.086c-2.033 0-3.686 1.662-3.686 3.706 0 2.043 1.654 3.706 3.686 3.706s3.686-1.663 3.686-3.706c0-2.044-1.654-3.706-3.686-3.706zm0 5.302c-.87 0-1.577-.716-1.577-1.596 0-.88.708-1.597 1.577-1.597.87 0 1.576.716 1.576 1.597 0 .88-.707 1.596-1.576 1.596zm-15.107 5.014H35.98a1.76 1.76 0 0 0-1.758 1.758v2.748c0 .97.788 1.758 1.758 1.758h.286v6.537a1.055 1.055 0 1 0 2.11 0v-6.537h.286a1.76 1.76 0 0 0 1.758-1.758V30.16a1.76 1.76 0 0 0-1.758-1.758zm-.352 4.155h-1.979v-2.045h1.98v2.045zM37.321 0c-.582 0-1.054.472-1.054 1.055v2.938a1.055 1.055 0 1 0 2.109 0V1.055C38.376.472 37.904 0 37.321 0zm-7.463 5.022l-.841-2.815a1.055 1.055 0 1 0-2.021.604l.84 2.815a1.055 1.055 0 0 0 2.022-.604zm-7.866 3.44l-1.61-2.454a1.055 1.055 0 1 0-1.764 1.157l1.61 2.454a1.054 1.054 0 1 0 1.764-1.157zm-6.551 5.562l-2.245-1.887a1.055 1.055 0 1 0-1.357 1.614l2.245 1.887a1.053 1.053 0 0 0 1.486-.128 1.055 1.055 0 0 0-.129-1.486zm-4.686 7.214l-2.69-1.16a1.054 1.054 0 1 0-.835 1.936l2.69 1.16a1.052 1.052 0 0 0 1.386-.55 1.054 1.054 0 0 0-.55-1.386zm-2.426 8.261l-2.909-.337a1.054 1.054 0 1 0-.242 2.096l2.908.336A1.055 1.055 0 0 0 8.33 29.5zm1.263 9.465a1.055 1.055 0 0 0-1.224-.853l-2.883.516a1.055 1.055 0 1 0 .372 2.076l2.883-.515c.573-.103.955-.65.852-1.224zm2.694 7.85a1.055 1.055 0 0 0-1.417-.464l-2.614 1.324a1.055 1.055 0 0 0 .953 1.882l2.614-1.325c.52-.263.728-.898.464-1.417zm4.827 6.743a1.055 1.055 0 0 0-1.491-.037l-2.125 2.022a1.055 1.055 0 1 0 1.454 1.528l2.125-2.022a1.054 1.054 0 0 0 .037-1.49zm11.86-27.534h-2.682a1.76 1.76 0 0 0-1.758 1.758v2.748c0 .97.789 1.758 1.758 1.758h2.682a1.76 1.76 0 0 0 1.758-1.758v-2.748a1.76 1.76 0 0 0-1.758-1.758zm-.351 4.155h-1.98v-2.046h1.98v2.046zm5.163-12.238h-2.682a1.76 1.76 0 0 0-1.758 1.758v2.748c0 .97.788 1.758 1.758 1.758h2.682a1.76 1.76 0 0 0 1.758-1.758v-2.748a1.76 1.76 0 0 0-1.758-1.758zm-.352 4.154h-1.979V20.05h1.98v2.045z"/></g><defs><clipPath id="clip0"><path fill="#fff" d="M0 0h72v72H0z"/></clipPath></defs></svg>