<svg width="29" height="28" fill="none" xmlns="http://www.w3.org/2000/svg"><mask id="a" maskUnits="userSpaceOnUse" x="0" y="0" width="29" height="28"><path fill-rule="evenodd" clip-rule="evenodd" d="M0 14C0 6.268 6.492 0 14.5 0S29 6.268 29 14s-6.492 14-14.5 14S0 21.732 0 14z" fill="#fff"/></mask><g mask="url(#a)" fill-rule="evenodd" clip-rule="evenodd"><path d="M0 14C0 6.268 6.492 0 14.5 0S29 6.268 29 14s-6.492 14-14.5 14S0 21.732 0 14z" fill="#fff"/><path d="M14.5 6.533c-2.1 0-2.363.01-3.188.045-.823.037-1.385.163-1.877.347-.509.191-.94.446-1.37.861a3.67 3.67 0 0 0-.893 1.323c-.191.475-.322 1.018-.359 1.812-.037.797-.046 1.051-.046 3.08 0 2.027.009 2.28.046 3.077.038.795.169 1.338.36 1.812.197.491.462.908.892 1.323.43.415.86.671 1.369.862.492.184 1.054.31 1.877.347.825.036 1.089.045 3.189.045s2.363-.01 3.188-.045c.823-.037 1.386-.163 1.878-.347.508-.19.939-.447 1.369-.862.43-.415.694-.832.892-1.323.19-.474.32-1.017.36-1.812.037-.796.046-1.05.046-3.078 0-2.028-.01-2.282-.047-3.079-.038-.795-.169-1.337-.359-1.812a3.654 3.654 0 0 0-.892-1.323c-.43-.415-.86-.67-1.37-.86-.493-.185-1.055-.311-1.878-.348-.825-.036-1.088-.045-3.189-.045h.003zm-.693 1.346h.694c2.064 0 2.31.007 3.124.043.755.033 1.164.155 1.436.257.361.135.619.297.89.558.27.262.437.51.578.86.106.262.232.657.266 1.385.037.787.045 1.024.045 3.016 0 1.993-.008 2.23-.045 3.017-.034.728-.16 1.123-.266 1.386-.14.348-.308.596-.579.857-.27.262-.528.424-.889.559-.272.102-.681.224-1.436.257-.815.036-1.06.044-3.124.044-2.065 0-2.31-.008-3.125-.044-.754-.034-1.164-.155-1.436-.257a2.407 2.407 0 0 1-.89-.559 2.308 2.308 0 0 1-.578-.858c-.106-.263-.232-.658-.267-1.386-.037-.787-.044-1.024-.044-3.018 0-1.993.007-2.229.044-3.016.035-.728.16-1.123.267-1.386.14-.349.308-.597.578-.859a2.41 2.41 0 0 1 .89-.559c.272-.102.682-.224 1.436-.257.713-.031.99-.04 2.43-.042v.002zm4.821 1.24c-.512 0-.927.4-.927.895s.415.896.927.896c.513 0 .928-.4.928-.896 0-.494-.415-.896-.928-.896zm-4.127 1.047c-2.194 0-3.972 1.716-3.972 3.834 0 2.118 1.778 3.834 3.972 3.834 2.193 0 3.97-1.716 3.97-3.834 0-2.117-1.777-3.834-3.97-3.834zm0 1.345c1.423 0 2.577 1.114 2.577 2.49 0 1.374-1.154 2.488-2.577 2.488-1.424 0-2.578-1.114-2.578-2.489 0-1.375 1.154-2.489 2.578-2.489z" fill="#333"/></g></svg>