<svg width="103" height="47" fill="none" xmlns="http://www.w3.org/2000/svg"><path d="M7.87 5.627c0 .39-.041.762-.122 1.115a2.738 2.738 0 0 1-.395.931c-.184.269-.423.48-.72.634-.298.155-.66.234-1.086.234-.286 0-.542-.046-.774-.139a2.914 2.914 0 0 1-.633-.346 4.037 4.037 0 0 1-.526-.451 11.91 11.91 0 0 0-.462-.446 3.427 3.427 0 0 0-.435-.343.808.808 0 0 0-.45-.139.58.58 0 0 0-.518.294c-.121.195-.184.539-.184 1.029H0c0-.39.041-.762.121-1.115.082-.354.214-.663.396-.928.184-.265.423-.476.72-.63.298-.155.66-.234 1.086-.234.285 0 .542.045.774.139a2.9 2.9 0 0 1 .633.346c.19.137.365.286.526.446.16.16.314.309.462.446.148.137.292.253.435.346a.808.808 0 0 0 .449.139.574.574 0 0 0 .522-.297c.12-.199.18-.543.18-1.033H7.87v.002zm2.683 8.308V0h4.011v1.428H12.27v11.08h2.294v1.43h-4.011v-.003zM24.14 10.66a5.859 5.859 0 0 1-1.135.323c-.392.07-.8.105-1.227.105a5.138 5.138 0 0 1-1.654-.247 3.303 3.303 0 0 1-1.243-.736 3.19 3.19 0 0 1-.78-1.21c-.181-.482-.272-1.037-.272-1.668 0-.611.098-1.164.294-1.66.196-.495.471-.919.828-1.27.356-.35.784-.62 1.285-.811a4.696 4.696 0 0 1 1.674-.287c.503 0 .927.027 1.27.08.344.052.652.119.927.198v1.781a4.731 4.731 0 0 0-1.026-.36 4.618 4.618 0 0 0-1.048-.128c-.346 0-.656.058-.93.172a1.947 1.947 0 0 0-.694.481 2.108 2.108 0 0 0-.431.747c-.1.293-.149.615-.149.966 0 .365.054.694.161.984.107.29.259.537.453.74.196.203.431.357.706.465a2.5 2.5 0 0 0 .915.161c.162 0 .333-.01.515-.033.18-.023.362-.055.542-.099.18-.042.358-.09.533-.145.175-.055.339-.115.492-.181v1.632h-.005zm7.305-4.373a3.227 3.227 0 0 0-.043-.729c-.037-.2-.1-.365-.183-.495a.793.793 0 0 0-.309-.286.94.94 0 0 0-.419-.09c-.274 0-.558.11-.85.334-.292.223-.613.59-.965 1.1v4.832h-1.905V3.32h1.684l.07 1.112a2.98 2.98 0 0 1 .431-.525 2.59 2.59 0 0 1 1.186-.662c.239-.06.501-.09.785-.09.392 0 .738.067 1.04.199.302.133.557.33.764.59.205.26.358.587.458.98.1.394.14.849.127 1.363h-1.87zm8.258 3.831c-.269.661-.55 1.24-.843 1.74a5.628 5.628 0 0 1-.965 1.247 3.606 3.606 0 0 1-1.17.752c-.429.166-.91.25-1.445.25-.127 0-.266-.006-.416-.019a6.356 6.356 0 0 1-.461-.056v-1.554l.21.033c.078.012.162.023.248.03l.264.02c.089.004.17.006.248.006.214 0 .411-.04.595-.12.184-.08.351-.19.506-.333.156-.142.296-.313.423-.511.127-.199.239-.415.335-.65L34.16 3.32h2.074l1.608 4.327.48 1.398.472-1.337 1.624-4.386h1.999l-2.714 6.796zM50.6 7c0 .701-.1 1.307-.302 1.818-.202.512-.48.935-.838 1.274a3.4 3.4 0 0 1-1.27.752 4.997 4.997 0 0 1-1.593.244 4.582 4.582 0 0 1-1.106-.135v2.982H43.63V3.32h1.608l.046 1.126c.157-.195.321-.372.492-.534a2.726 2.726 0 0 1 1.193-.67c.228-.059.485-.089.77-.089.459 0 .865.09 1.22.27.355.182.654.438.895.77.24.334.426.736.553 1.21.128.475.192 1.007.192 1.597zm-1.953.076c0-.422-.03-.778-.09-1.073a2.283 2.283 0 0 0-.265-.73 1.1 1.1 0 0 0-.419-.416 1.195 1.195 0 0 0-.569-.131c-.315 0-.616.124-.904.375-.286.252-.59.59-.91 1.023V9.46c.147.054.328.1.545.135.216.035.435.053.66.053a1.75 1.75 0 0 0 1.421-.692c.17-.22.301-.49.392-.809.093-.318.139-.676.139-1.071zm9.958 3.801a11.63 11.63 0 0 1-1.014.18 7.29 7.29 0 0 1-.968.07c-.508 0-.947-.054-1.316-.159a2.284 2.284 0 0 1-.915-.481 1.921 1.921 0 0 1-.533-.822c-.114-.334-.17-.731-.17-1.191V4.748h-2.082V3.32h2.081V1.366l1.906-.488V3.32h3.011v1.428h-3.011v3.59c0 .436.102.766.305.988.203.22.544.333 1.021.333.305 0 .603-.024.892-.075.29-.05.554-.107.793-.172v1.465zm9.173-3.801c0 .6-.088 1.15-.26 1.65a3.635 3.635 0 0 1-.746 1.28c-.325.355-.724.63-1.196.826-.473.195-1.011.293-1.617.293a4.478 4.478 0 0 1-1.541-.248 3.01 3.01 0 0 1-1.152-.74 3.269 3.269 0 0 1-.724-1.23c-.167-.494-.251-1.069-.251-1.724 0-.606.087-1.157.262-1.653a3.62 3.62 0 0 1 .754-1.27c.328-.35.728-.622 1.202-.815a4.2 4.2 0 0 1 1.601-.29c.58 0 1.095.085 1.548.251.452.17.836.417 1.151.749.316.33.555.74.72 1.228.166.488.249 1.052.249 1.693zm-1.937.046c0-.79-.151-1.386-.453-1.785-.303-.399-.749-.597-1.339-.597-.324 0-.602.063-.83.188a1.587 1.587 0 0 0-.564.514 2.295 2.295 0 0 0-.324.763c-.07.29-.104.6-.104.93 0 .797.163 1.397.489 1.8.324.404.77.604 1.333.604.31 0 .58-.062.808-.185.228-.123.414-.293.556-.51.143-.219.25-.475.321-.77.072-.294.107-.611.107-.952zM22.204 29.415h-2.143l-3.072-7.633h2.074l1.608 4.327.48 1.398.472-1.337 1.624-4.386h1.999l-3.042 7.63zm6.756-6.205h-2.19v-1.428h4.096v6.205H33.1v1.428h-6.595v-1.428h2.455V23.21h-.002zm2.058-3.517a1.158 1.158 0 0 1-.346.846 1.21 1.21 0 0 1-.865.348 1.228 1.228 0 0 1-.874-.348 1.144 1.144 0 0 1-.254-.38c-.06-.146-.09-.3-.09-.465a1.199 1.199 0 0 1 .345-.849 1.237 1.237 0 0 1 .874-.355 1.198 1.198 0 0 1 1.21 1.203zm6.526.534h-2.188v-1.428h4.096v9.187h2.234v1.428H35.09v-1.428h2.455v-7.759h-.002zm8.587 0h-2.188v-1.428h4.096v9.187h2.234v1.428h-6.595v-1.428h2.455v-7.759h-.002zm10.942 9.188l-.046-1c-.163.17-.334.327-.51.47a3.272 3.272 0 0 1-.587.372 3.19 3.19 0 0 1-.697.244 3.686 3.686 0 0 1-.827.086 2.93 2.93 0 0 1-1.045-.172c-.3-.116-.55-.276-.754-.481a2.02 2.02 0 0 1-.462-.743 2.804 2.804 0 0 1-.157-.961c0-.36.077-.694.232-1a2.13 2.13 0 0 1 .71-.788c.317-.222.715-.394 1.189-.519.476-.124 1.032-.188 1.674-.188h1.014v-.458c0-.195-.028-.373-.083-.53a.947.947 0 0 0-.271-.403 1.263 1.263 0 0 0-.485-.255 2.57 2.57 0 0 0-.733-.09c-.458 0-.91.052-1.353.155a7.02 7.02 0 0 0-1.293.433v-1.465a7.301 7.301 0 0 1 1.286-.36c.484-.095.99-.143 1.513-.143.574 0 1.068.055 1.48.162.412.107.75.268 1.018.485.268.216.464.484.59.808.127.323.191.699.191 1.13v5.215h-1.594v-.004zm-.267-3.373H55.67c-.316 0-.581.03-.8.09-.22.06-.396.142-.534.248a.975.975 0 0 0-.397.804c0 .311.101.548.305.71.203.163.48.244.83.244.259 0 .53-.093.808-.278.28-.184.587-.451.922-.795v-1.023h.002zm5.604-4.981l5.139 4.26-5.138 4.267-1.183-1.187 3.775-3.066-3.775-3.088 1.183-1.186zm8.585 0l5.138 4.26-5.138 4.267-1.183-1.187 3.775-3.066-3.775-3.088 1.183-1.186zm7.931 11.337V30.97h2.28V19.89h-2.28v-1.43h3.995v13.936h-3.995v.002zm6.571.098v-1.45h8.587v1.45h-8.587zm8.587 0v-1.45h8.586v1.45h-8.586z" fill="#fff"/><path d="M24.95 36.731h-3.244v1.172h3.245c.17 0 .255-.09.255-.269v-.692c-.029-.14-.114-.21-.255-.21zm-6.997 1.172h3.245v-1.172h-3.245c-.17 0-.255.09-.255.27v.691c.029.14.113.211.255.211z" fill="#259F00"/><path d="M21.031 36.731c-.151 0-.226.07-.226.21v9.554c0 .15.075.223.226.223h.708a.225.225 0 0 0 .176-.07.222.222 0 0 0 .065-.153v-8.592h1.14v-1.172h-2.089z" fill="#259F00"/><path d="M82.941 36.731h-3.245v1.172h3.245c.17 0 .255-.09.255-.269v-.692c-.028-.14-.112-.21-.255-.21z" fill="#FE0000"/><path d="M75.943 37.903h3.245v-1.172h-3.245c-.169 0-.254.09-.254.27v.691c.028.14.114.211.254.211z" fill="#259F00"/><path d="M79.021 36.731c-.151 0-.226.07-.226.21v9.554c0 .15.075.223.226.223h.708a.225.225 0 0 0 .177-.07.221.221 0 0 0 .064-.153v-8.592h1.14v-1.172h-2.089z" fill="#FE0000"/><path d="M33.26 46.488a.718.718 0 0 0-.036-.105 74.644 74.644 0 0 0-.651-1.48c-.198-.446-.423-.952-.672-1.519-.25-.567-.503-1.149-.758-1.744a3394.13 3394.13 0 0 1-2.08-4.743.472.472 0 0 0-.1-.146c-.03-.023-.09-.035-.184-.035h-.043c-.14 0-.24.06-.298.18l-4.218 9.485a.222.222 0 0 0-.029.126c0 .139.09.21.27.21h8.565c.16 0 .24-.057.24-.168a.273.273 0 0 0-.007-.061zm-7.382-.942l2.874-6.638 2.86 6.638h-5.734zm11.947-9.136c-.435.02-.838.121-1.21.308a3.466 3.466 0 0 0-.97.711 3.211 3.211 0 0 0-.644.99 2.978 2.978 0 0 0-.233 1.158c0 .438.103.861.312 1.27.114.224.262.438.445.642.184.203.366.409.546.613.18.205.333.423.46.655.127.232.19.488.19.768 0 .242-.051.486-.154.732a2.526 2.526 0 0 1-1.004 1.179 1.732 1.732 0 0 1-.722.25c-.152.02-.227.094-.227.224v.613c0 .074.02.135.057.181.038.046.095.07.17.07a3.2 3.2 0 0 0 1.189-.307 3.07 3.07 0 0 0 .948-.698c.264-.288.473-.616.623-.983a3.02 3.02 0 0 0 .226-1.165c0-.335-.048-.632-.14-.892a3.498 3.498 0 0 0-.36-.726 5.824 5.824 0 0 0-.497-.648c-.183-.209-.36-.425-.53-.648a1.74 1.74 0 0 1-.382-1.073c0-.14.026-.283.078-.433a3.824 3.824 0 0 1 .367-.767c.06-.093.102-.15.121-.167.179-.195.38-.36.601-.495a1.89 1.89 0 0 1 .744-.259c.151-.019.226-.087.226-.209v-.64a.278.278 0 0 0-.057-.182c-.04-.049-.098-.072-.173-.072zm10.094.378a.269.269 0 0 0-.17-.057h-.708c-.075 0-.132.02-.17.057a.205.205 0 0 0-.056.153v2.622h-6.001V36.94a.181.181 0 0 0-.072-.152.251.251 0 0 0-.155-.057h-.736a.228.228 0 0 0-.148.05c-.043.033-.064.086-.064.16v9.568c0 .139.071.209.212.209h.722c.16 0 .24-.07.24-.21v-2.873h6.002v2.874c0 .139.075.209.226.209h.708c.16 0 .24-.07.24-.21V36.94a.186.186 0 0 0-.07-.152zm-1.104 5.675h-6.001v-1.73h6v1.73zm5.789.46l3.227-3.348c.085-.084.085-.149 0-.195a.538.538 0 0 0-.255-.07h-.963a.289.289 0 0 0-.198.078c-.057.05-.108.1-.155.145l-3.751 3.905v-.767l4.445-4.645c.037-.037.057-.074.057-.112 0-.102-.1-.153-.298-.153h-.963a.29.29 0 0 0-.198.077c-.057.051-.108.1-.155.146L50.51 41.01v-3.962a.33.33 0 0 0-.093-.237.333.333 0 0 0-.251-.098h-.501c-.105 0-.187.03-.244.091a.344.344 0 0 0-.086.244v9.332c0 .223.11.335.33.335h.5c.23 0 .345-.112.345-.335v-1.283l1.301-1.338 2.62 2.733c.046.047.096.095.148.146a.263.263 0 0 0 .19.077h.963a.69.69 0 0 0 .227-.035c.065-.023.1-.058.1-.105 0-.02-.024-.06-.072-.125l-3.382-3.528zm11.692-6.192h-6.684c-.15 0-.224.065-.224.195v9.569c0 .15.075.223.224.223h6.642c.16 0 .24-.08.24-.24v-.693a.22.22 0 0 0-.071-.176.268.268 0 0 0-.184-.063h-5.676v-1.911h4.544a.179.179 0 0 0 .155-.077.27.27 0 0 0 .057-.16v-.712c0-.149-.07-.223-.212-.223h-4.544v-1.73h4.544a.186.186 0 0 0 .155-.07.257.257 0 0 0 .057-.167v-.698a.257.257 0 0 0-.057-.166.191.191 0 0 0-.155-.07h-4.544v-1.66h5.72c.15 0 .226-.085.226-.255v-.706c0-.14-.07-.21-.213-.21zm6.456 8.815h-4.656c-.075 0-.132.023-.17.07a.282.282 0 0 0-.057.181v.712c0 .138.072.209.212.209h4.657c.066 0 .12-.023.162-.07a.236.236 0 0 0 .065-.168v-.711c0-.15-.072-.223-.213-.223z" fill="#259F00"/><path d="M74.302 36.718H73.6a.207.207 0 0 0-.15.063.2.2 0 0 0-.064.146l-.057 7.852-6.016-7.993a.273.273 0 0 0-.226-.112h-.977c-.16 0-.24.074-.24.223v7.629c0 .121.07.18.211.18l3.425.015c.075 0 .132-.023.17-.07a.256.256 0 0 0 .057-.167v-.712c0-.149-.072-.223-.213-.223l-2.476-.014v-5.189l6.285 8.369h.916c.171 0 .259-.07.259-.21l.071-9.568a.23.23 0 0 0-.057-.16c-.04-.038-.11-.06-.216-.06z" fill="#259F00"/></svg>