<svg width="156" height="73" fill="none" xmlns="http://www.w3.org/2000/svg"><path d="M11.947 8.74c0 .605-.062 1.183-.184 1.732a4.306 4.306 0 0 1-.601 1.446 2.961 2.961 0 0 1-1.094.985c-.452.24-1.001.362-1.648.362-.433 0-.823-.07-1.174-.215a4.391 4.391 0 0 1-.961-.538 6.165 6.165 0 0 1-.799-.7 18.298 18.298 0 0 0-.7-.694 5.23 5.23 0 0 0-.661-.532 1.207 1.207 0 0 0-.682-.215c-.341 0-.601.152-.788.455-.184.303-.279.838-.279 1.6H0c0-.607.062-1.185.184-1.733a4.252 4.252 0 0 1 .6-1.441c.28-.412.642-.74 1.094-.98.452-.24 1.002-.362 1.649-.362.433 0 .822.07 1.174.215s.672.322.961.538c.29.213.555.444.799.693.243.248.476.48.7.693.225.213.444.393.661.537.217.145.444.216.682.216.347 0 .612-.153.793-.461.181-.309.273-.843.273-1.605h2.377v.003zm4.073 12.904V0h6.09v2.218h-3.483v17.21h3.483v2.219h-6.09v-.003zm20.627-5.088a8.737 8.737 0 0 1-1.724.502 10.3 10.3 0 0 1-1.863.163c-.933 0-1.772-.128-2.511-.384a4.993 4.993 0 0 1-1.887-1.143c-.517-.505-.912-1.133-1.185-1.88-.274-.748-.412-1.61-.412-2.59 0-.949.15-1.808.447-2.578a5.657 5.657 0 0 1 1.256-1.972 5.591 5.591 0 0 1 1.951-1.26c.76-.296 1.608-.446 2.542-.446.763 0 1.407.041 1.927.123.522.082.99.186 1.407.308v2.767a7.076 7.076 0 0 0-1.556-.56 6.86 6.86 0 0 0-1.592-.198c-.525 0-.995.09-1.412.267-.417.18-.769.428-1.053.748a3.278 3.278 0 0 0-.655 1.16 4.726 4.726 0 0 0-.225 1.5c0 .567.081 1.077.244 1.528.162.45.392.834.687 1.148.298.317.655.557 1.072.723.417.167.88.251 1.389.251.246 0 .506-.016.782-.052a7.2 7.2 0 0 0 .823-.152c.273-.066.544-.142.809-.227.265-.084.514-.177.747-.28v2.534h-.008zm11.089-6.791a5.123 5.123 0 0 0-.065-1.132 2.168 2.168 0 0 0-.278-.77 1.215 1.215 0 0 0-.469-.444 1.4 1.4 0 0 0-.636-.14c-.416 0-.847.172-1.29.519-.445.346-.932.917-1.465 1.708v7.506H40.64V5.157h2.557l.106 1.727c.192-.303.411-.576.655-.816.244-.24.514-.45.81-.625.297-.174.627-.308.99-.404.362-.092.76-.139 1.19-.139.596 0 1.121.104 1.581.309.458.207.845.513 1.159.916.311.404.544.912.695 1.523.152.61.214 1.318.192 2.117h-2.839zm12.537 5.95a21.338 21.338 0 0 1-1.28 2.701c-.444.775-.931 1.42-1.464 1.938a5.462 5.462 0 0 1-1.776 1.167c-.652.26-1.383.39-2.195.39-.192 0-.403-.01-.63-.03a9.443 9.443 0 0 1-.701-.087V19.38l.319.052c.119.019.246.035.376.046.13.01.265.022.4.03.136.008.26.01.377.01.325 0 .625-.062.904-.185a2.79 2.79 0 0 0 .768-.518c.236-.221.45-.486.642-.794.192-.308.363-.644.509-1.01L51.858 5.157h3.148l2.441 6.72.728 2.171.718-2.076 2.465-6.813h3.035l-4.12 10.556zm16.54-4.842c0 1.088-.152 2.03-.458 2.823-.306.794-.728 1.452-1.272 1.978a5.14 5.14 0 0 1-1.927 1.168 7.43 7.43 0 0 1-2.42.38 6.804 6.804 0 0 1-1.678-.21v4.632h-2.826V5.157h2.442l.07 1.748a8.18 8.18 0 0 1 .747-.829c.257-.248.539-.461.84-.636.3-.174.624-.308.97-.404a4.568 4.568 0 0 1 1.17-.139c.696 0 1.313.14 1.851.42.539.282.994.68 1.36 1.196.364.518.646 1.143.838 1.88.195.736.293 1.563.293 2.48zm-2.964.117c0-.655-.046-1.209-.138-1.667-.092-.459-.225-.838-.4-1.133a1.69 1.69 0 0 0-.637-.646 1.78 1.78 0 0 0-.863-.205c-.48 0-.937.194-1.373.584-.435.39-.895.917-1.383 1.588v5.181a4.4 4.4 0 0 0 .829.21c.327.055.66.082 1.001.082a2.63 2.63 0 0 0 2.157-1.075c.257-.34.458-.761.596-1.255.14-.494.21-1.05.21-1.664zm15.119 5.904c-.509.117-1.023.21-1.54.281-.517.071-1.007.107-1.47.107-.771 0-1.437-.082-1.997-.246-.56-.164-1.023-.412-1.389-.748a2.993 2.993 0 0 1-.809-1.277c-.173-.518-.26-1.134-.26-1.85V7.376h-3.158V5.157h3.158V2.123l2.894-.759v3.793h4.571v2.218h-4.571v5.577c0 .676.154 1.19.462 1.533.309.344.826.518 1.551.518.463 0 .915-.038 1.354-.117.44-.076.841-.166 1.204-.267v2.275zm13.922-5.904c0 .933-.132 1.787-.392 2.562a5.695 5.695 0 0 1-1.134 1.989 5.022 5.022 0 0 1-1.816 1.282c-.718.303-1.535.456-2.455.456-.872 0-1.651-.128-2.339-.385a4.559 4.559 0 0 1-1.748-1.148c-.48-.51-.845-1.15-1.099-1.913-.254-.767-.382-1.659-.382-2.677 0-.94.133-1.798.398-2.567.266-.77.65-1.427 1.145-1.973a5.102 5.102 0 0 1 1.824-1.266c.718-.3 1.53-.45 2.43-.45.88 0 1.663.131 2.35.39.688.262 1.27.647 1.749 1.163.479.513.841 1.148 1.093 1.907.252.758.376 1.634.376 2.63zm-2.939.071c0-1.228-.23-2.153-.688-2.772-.46-.62-1.136-.928-2.032-.928-.493 0-.915.099-1.261.292a2.433 2.433 0 0 0-.856.8 3.612 3.612 0 0 0-.492 1.184c-.106.45-.157.933-.157 1.446 0 1.236.246 2.169.741 2.794.493.627 1.17.938 2.025.938.47 0 .88-.095 1.226-.286.346-.191.628-.456.844-.794.217-.339.38-.737.488-1.195.108-.456.162-.95.162-1.479zM33.708 45.687h-3.254l-4.663-11.855h3.148l2.441 6.72.728 2.172.717-2.077 2.466-6.812h3.034l-4.617 11.852zm10.256-9.637h-3.322v-2.218h6.217v9.636h3.392v2.219H40.239v-2.218h3.727V36.05h-.002zm3.126-5.462c0 .256-.046.496-.138.723a1.782 1.782 0 0 1-.387.59 1.82 1.82 0 0 1-1.313.54 1.859 1.859 0 0 1-1.326-.54 1.78 1.78 0 0 1-.387-.59 1.897 1.897 0 0 1-.139-.723c0-.257.047-.497.139-.723a1.86 1.86 0 0 1 .387-.595 1.84 1.84 0 0 1 1.326-.551 1.798 1.798 0 0 1 1.313.551 1.862 1.862 0 0 1 .525 1.318zm9.906.829h-3.321V29.2h6.217v14.27h3.391v2.218H53.272V43.47h3.726V31.417h-.002zm13.034 0h-3.321V29.2h6.217v14.27h3.391v2.218H66.306V43.47h3.727V31.417h-.003zm16.61 14.27l-.07-1.553a8.074 8.074 0 0 1-.774.729c-.271.22-.569.415-.89.578-.326.164-.678.29-1.06.38a5.48 5.48 0 0 1-1.255.133c-.6 0-1.131-.09-1.586-.267a3.207 3.207 0 0 1-1.145-.748 3.148 3.148 0 0 1-.7-1.154c-.16-.45-.24-.95-.24-1.492 0-.56.117-1.078.353-1.553a3.294 3.294 0 0 1 1.077-1.225c.482-.344 1.085-.611 1.805-.805.723-.193 1.567-.292 2.542-.292h1.54v-.712a2.54 2.54 0 0 0-.127-.824 1.475 1.475 0 0 0-.412-.624 1.903 1.903 0 0 0-.736-.396c-.3-.093-.671-.14-1.112-.14-.696 0-1.38.08-2.055.24a10.62 10.62 0 0 0-1.962.672v-2.275a11.026 11.026 0 0 1 1.951-.56 11.688 11.688 0 0 1 2.298-.22c.872 0 1.622.084 2.247.25.625.167 1.14.418 1.545.753.406.336.704.753.896 1.255.192.502.29 1.086.29 1.757v8.098h-2.42v-.005zm-.406-5.239H84.51c-.48 0-.882.047-1.215.14-.333.092-.601.22-.81.384a1.51 1.51 0 0 0-.457.568 1.634 1.634 0 0 0-.146.682c0 .483.154.851.463 1.102.308.254.728.38 1.261.38.392 0 .804-.145 1.226-.432.425-.286.89-.701 1.4-1.236v-1.588h.002zm8.51-7.735l7.8 6.617-7.8 6.627-1.795-1.845 5.73-4.76-5.73-4.797 1.795-1.842zm13.032 0l7.8 6.617-7.8 6.627-1.795-1.845 5.73-4.76-5.73-4.797 1.795-1.842zm12.039 17.607V48.1h3.462V30.89h-3.462v-2.218h6.066v21.644h-6.066v.003zm9.976.152v-2.25h13.035v2.25h-13.035zm13.035 0v-2.25h13.035v2.25h-13.035z" fill="#fff"/><path d="M37.88 57.05h-4.927v1.82h4.926c.257 0 .387-.139.387-.417v-1.075c-.043-.218-.173-.327-.387-.327zm-10.625 1.82h4.926v-1.82h-4.926c-.257 0-.387.14-.387.418v1.075c.044.216.17.328.387.328z" fill="#259F00"/><path d="M31.927 57.05c-.23 0-.344.11-.344.325v14.84c0 .232.114.346.344.346H33a.338.338 0 0 0 .268-.109.348.348 0 0 0 .098-.237V58.87h1.732v-1.82h-3.172zm93.986 0h-4.926v1.82h4.926c.257 0 .387-.139.387-.417v-1.075c-.043-.218-.17-.327-.387-.327zm-10.624 1.82h4.926v-1.82h-4.926c-.257 0-.387.14-.387.418v1.075c.044.216.174.328.387.328z" fill="#259F00"/><path d="M119.961 57.05c-.23 0-.344.11-.344.325v14.84c0 .232.114.346.344.346h1.074a.337.337 0 0 0 .268-.109.349.349 0 0 0 .098-.237V58.87h1.732v-1.82h-3.172zm-69.47 15.154a1.115 1.115 0 0 0-.054-.164c-.3-.723-.63-1.487-.988-2.297-.3-.693-.641-1.479-1.02-2.36-.38-.881-.763-1.784-1.15-2.71-.932-2.166-1.984-4.621-3.159-7.366a.731.731 0 0 0-.152-.226c-.043-.036-.135-.055-.278-.055h-.065c-.214 0-.366.093-.452.281l-6.404 14.73a.351.351 0 0 0-.043.197c0 .216.135.325.408.325h13.003c.243 0 .365-.088.365-.26a.426.426 0 0 0-.01-.095zm-11.205-1.462l4.363-10.311 4.341 10.31h-8.704zm18.136-14.191a4.41 4.41 0 0 0-1.837.478 5.273 5.273 0 0 0-1.473 1.105c-.417.447-.741.96-.977 1.538a4.72 4.72 0 0 0-.354 1.799c0 .679.157 1.336.473 1.972.174.347.398.68.677.996.279.317.555.636.828.952.273.32.506.658.698 1.018.193.36.29.758.29 1.192 0 .377-.078.756-.235 1.138a4.02 4.02 0 0 1-.623 1.04 3.8 3.8 0 0 1-.901.79 2.59 2.59 0 0 1-1.096.39c-.23.03-.344.145-.344.347v.953c0 .114.03.21.087.28.056.072.143.11.257.11a4.764 4.764 0 0 0 1.805-.478 4.67 4.67 0 0 0 1.44-1.083c.4-.447.717-.958.944-1.528a4.79 4.79 0 0 0 .344-1.809c0-.52-.073-.982-.214-1.386a5.485 5.485 0 0 0-.547-1.127 8.992 8.992 0 0 0-.752-1.006c-.279-.325-.547-.66-.806-1.007-.388-.521-.58-1.075-.58-1.667 0-.216.041-.44.12-.671a5.996 5.996 0 0 1 .557-1.193 1.76 1.76 0 0 1 .184-.259c.27-.303.577-.56.912-.77.336-.21.712-.343 1.129-.4.23-.03.344-.137.344-.325v-.996a.44.44 0 0 0-.087-.28c-.062-.077-.149-.113-.263-.113zm15.323.587a.402.402 0 0 0-.257-.087h-1.075c-.113 0-.2.03-.257.087a.323.323 0 0 0-.086.237v4.074h-9.11v-4.074a.284.284 0 0 0-.109-.237.376.376 0 0 0-.235-.087h-1.118a.34.34 0 0 0-.225.076c-.065.052-.097.134-.097.248v14.862c0 .215.108.324.322.324h1.096c.244 0 .365-.109.365-.324v-4.464h9.11v4.464c0 .215.114.324.344.324h1.075c.244 0 .365-.109.365-.324V57.375a.292.292 0 0 0-.108-.237zm-1.675 8.815h-9.11v-2.687h9.11v2.687zm8.787.715l4.9-5.2c.13-.131.13-.232 0-.303a.802.802 0 0 0-.388-.11h-1.461a.433.433 0 0 0-.3.12c-.087.08-.166.156-.236.227l-5.695 6.066v-1.193l6.748-7.214c.056-.057.086-.114.086-.174 0-.159-.151-.238-.452-.238h-1.461a.433.433 0 0 0-.3.12 6.5 6.5 0 0 0-.236.227l-4.385 4.7v-6.152a.5.5 0 0 0-.522-.521h-.76c-.16 0-.285.047-.371.142a.541.541 0 0 0-.13.38v14.492c0 .347.167.522.5.522h.76c.35 0 .523-.175.523-.522v-1.991l1.976-2.08 3.976 4.246c.07.074.146.147.225.227.078.079.175.12.29.12h1.46c.13 0 .244-.02.344-.055.1-.035.152-.09.152-.164 0-.03-.035-.092-.108-.193l-5.135-5.479zm17.75-9.618H87.46c-.227 0-.34.102-.34.303v14.862c0 .232.113.346.34.346h10.082c.244 0 .365-.125.365-.373v-1.075a.345.345 0 0 0-.108-.273.4.4 0 0 0-.279-.098h-8.617v-2.969h6.899c.1 0 .178-.038.235-.12a.425.425 0 0 0 .087-.248V66.3c0-.232-.108-.347-.322-.347h-6.9v-2.687h6.9a.28.28 0 0 0 .235-.11.404.404 0 0 0 .087-.258v-1.084c0-.1-.03-.188-.087-.259a.287.287 0 0 0-.235-.109h-6.9v-2.578h8.683c.23 0 .344-.131.344-.396v-1.097c0-.215-.105-.324-.322-.324zm9.8 13.692h-7.069c-.114 0-.2.035-.257.109a.444.444 0 0 0-.087.28v1.106c0 .215.108.324.322.324h7.07a.31.31 0 0 0 .246-.109.372.372 0 0 0 .098-.259v-1.105c0-.232-.109-.346-.323-.346z" fill="#259F00"/><path d="M112.796 57.029h-1.066a.312.312 0 0 0-.228.098.317.317 0 0 0-.097.226l-.087 12.196-9.132-12.414a.41.41 0 0 0-.343-.174h-1.483c-.244 0-.366.114-.366.346v11.85c0 .188.108.28.322.28l5.2.022c.113 0 .2-.035.257-.109a.403.403 0 0 0 .086-.26v-1.104c0-.232-.108-.347-.322-.347l-3.759-.021v-8.06l9.54 12.998h1.392c.259 0 .392-.11.392-.325l.108-14.861a.358.358 0 0 0-.086-.248c-.06-.06-.168-.093-.328-.093z" fill="#259F00"/></svg>