<svg width="74" height="74" fill="none" xmlns="http://www.w3.org/2000/svg"><path d="M37 47.406c5.034 0 10.406-.267 10.406-3.468v-4.124l-6.22-3.732-.454-.453a5.77 5.77 0 0 0 2.05-4.41v-1.157A5.788 5.788 0 0 0 37 24.282a5.788 5.788 0 0 0-5.781 5.78v1.157a5.77 5.77 0 0 0 2.049 4.41l-.454.453-6.22 3.732v4.123c0 3.202 5.372 3.47 10.406 3.47zm-3.469-17.343A3.473 3.473 0 0 1 37 26.593a3.473 3.473 0 0 1 3.469 3.47v1.156A3.473 3.473 0 0 1 37 34.687a3.473 3.473 0 0 1-3.469-3.468v-1.157zm-4.625 11.06l5.22-3.132 1.266-1.22a5.762 5.762 0 0 0 3.213 0l1.046 1.047 5.443 3.305v2.815c0 .011-.093 1.156-8.094 1.156s-8.094-1.145-8.094-1.157v-2.814zm9.25-36.498h-2.312v2.313h2.312V4.624zm-27.75 16.188H8.094v2.312h2.312v-2.313zm55.5 0h-2.312v2.312h2.312v-2.313zm-55.5 30.062H8.094v2.313h2.312v-2.313z" fill="#259F00"/><path d="M67.765 47.1a32.12 32.12 0 0 0 1.61-10.1 32.11 32.11 0 0 0-1.61-10.1 5.783 5.783 0 0 0 2.766-4.931 5.788 5.788 0 0 0-5.781-5.782c-.892 0-1.736.204-2.491.566C57.332 10.604 50.467 6.516 42.744 5.13A5.79 5.79 0 0 0 37 0a5.789 5.789 0 0 0-5.744 5.132c-7.725 1.385-14.59 5.473-19.516 11.62a5.746 5.746 0 0 0-2.49-.564 5.788 5.788 0 0 0-5.781 5.78A5.783 5.783 0 0 0 6.235 26.9 32.093 32.093 0 0 0 4.625 37c0 3.478.543 6.87 1.61 10.1a5.783 5.783 0 0 0-2.766 4.931 5.788 5.788 0 0 0 5.781 5.782 5.74 5.74 0 0 0 2.49-.565c4.925 6.145 11.791 10.233 19.516 11.62A5.789 5.789 0 0 0 37 74a5.79 5.79 0 0 0 5.744-5.132c7.724-1.387 14.589-5.475 19.516-11.62a5.754 5.754 0 0 0 2.49.565 5.788 5.788 0 0 0 5.781-5.782 5.782 5.782 0 0 0-2.766-4.93zM67.062 37a29.8 29.8 0 0 1-1.472 9.312 5.77 5.77 0 0 0-5.27 2.01l-6.522-3.577A18.388 18.388 0 0 0 55.5 37c0-2.764-.61-5.389-1.703-7.747l6.524-3.574a5.771 5.771 0 0 0 5.27 2.01A29.804 29.804 0 0 1 67.062 37zm-46.25 0c0-8.926 7.262-16.188 16.188-16.188 8.926 0 16.188 7.262 16.188 16.188 0 8.926-7.262 16.188-16.188 16.188-8.926 0-16.188-7.262-16.188-16.188zM68.22 21.969a3.473 3.473 0 0 1-3.469 3.468 3.473 3.473 0 0 1-3.469-3.468A3.473 3.473 0 0 1 64.75 18.5a3.473 3.473 0 0 1 3.469 3.469zM37 2.312a3.473 3.473 0 0 1 3.469 3.47A3.473 3.473 0 0 1 37 9.25a3.473 3.473 0 0 1-3.469-3.469A3.473 3.473 0 0 1 37 2.313zm-5.536 5.134a5.8 5.8 0 0 0 4.38 4v4.742h2.312v-4.742a5.801 5.801 0 0 0 4.38-4c7.068 1.315 13.349 5.075 17.88 10.704a5.755 5.755 0 0 0-1.198 5.497l-6.522 3.573C49.424 21.988 43.612 18.5 37 18.5c-6.613 0-12.426 3.49-15.698 8.722l-6.52-3.574a5.756 5.756 0 0 0-1.197-5.499c4.53-5.627 10.81-9.387 17.88-10.703zM9.25 18.5a3.473 3.473 0 0 1 3.469 3.469 3.473 3.473 0 0 1-3.469 3.468 3.473 3.473 0 0 1-3.469-3.468A3.473 3.473 0 0 1 9.25 18.5zM6.937 37c0-3.208.497-6.334 1.473-9.312a5.77 5.77 0 0 0 5.268-2.008l6.523 3.576A18.388 18.388 0 0 0 18.5 37c0 2.765.61 5.389 1.703 7.747l-6.526 3.572a5.77 5.77 0 0 0-5.267-2.007A29.808 29.808 0 0 1 6.937 37zM5.782 52.031a3.473 3.473 0 0 1 3.469-3.468 3.473 3.473 0 0 1 3.469 3.468A3.473 3.473 0 0 1 9.25 55.5a3.473 3.473 0 0 1-3.469-3.469zM37 71.688a3.473 3.473 0 0 1-3.469-3.47A3.473 3.473 0 0 1 37 64.75a3.473 3.473 0 0 1 3.469 3.469A3.473 3.473 0 0 1 37 71.688zm5.536-5.135a5.8 5.8 0 0 0-4.38-4v-4.74h-2.312v4.74a5.801 5.801 0 0 0-4.38 4.002c-7.07-1.32-13.35-5.079-17.88-10.704a5.756 5.756 0 0 0 1.197-5.502l6.522-3.57C24.575 52.012 30.388 55.5 37 55.5c6.613 0 12.425-3.489 15.697-8.721l6.52 3.574a5.762 5.762 0 0 0 1.198 5.497c-4.529 5.627-10.81 9.387-17.88 10.703zM64.75 55.5a3.473 3.473 0 0 1-3.469-3.469 3.473 3.473 0 0 1 3.469-3.468 3.473 3.473 0 0 1 3.469 3.468A3.473 3.473 0 0 1 64.75 55.5z" fill="#259F00"/><path d="M65.906 50.875h-2.312v2.313h2.312v-2.313zm-27.75 16.188h-2.312v2.312h2.312v-2.313z" fill="#259F00"/></svg>