<svg width="74" height="74" fill="none" xmlns="http://www.w3.org/2000/svg"><g clip-path="url(#clip0)" fill="#259F00"><path d="M55.5 4.933H44.4v-3.7C44.4.553 43.848 0 43.167 0h-29.6c-.681 0-1.234.552-1.234 1.233v3.7h-11.1C.553 4.933 0 5.486 0 6.167v66.6C0 73.447.552 74 1.233 74H55.5c.681 0 1.233-.552 1.233-1.233v-66.6c0-.681-.552-1.234-1.233-1.234zM14.8 2.467h27.133v2.466H14.8V2.467zm0 4.933h27.133v4.933H31.856a3.7 3.7 0 0 0-6.978 0H14.8V7.4zm39.467 64.133h-51.8V7.4h9.866v6.167c0 .68.553 1.233 1.234 1.233H25.9c.681 0 1.233-.552 1.233-1.233a1.234 1.234 0 0 1 2.467 0c0 .68.552 1.233 1.233 1.233h12.334c.68 0 1.233-.552 1.233-1.233V7.4h9.867v64.133z"/><path d="M12.334 17.267a4.933 4.933 0 1 0 0 9.866 4.933 4.933 0 0 0 0-9.866zm0 7.4a2.467 2.467 0 1 1 0-4.934 2.467 2.467 0 0 1 0 4.934zm0 4.933a4.933 4.933 0 1 0 0 9.867 4.933 4.933 0 0 0 0-9.867zm0 7.4a2.467 2.467 0 1 1 0-4.933 2.467 2.467 0 0 1 0 4.933zM48.1 18.5H30.833a1.233 1.233 0 0 0 0 2.467H48.1a1.233 1.233 0 0 0 0-2.467zm-22.2 0h-4.933a1.233 1.233 0 0 0 0 2.467H25.9a1.233 1.233 0 0 0 0-2.467zm22.2 4.933h-9.867a1.233 1.233 0 0 0 0 2.467H48.1a1.233 1.233 0 0 0 0-2.467zm-14.8 0H20.967a1.233 1.233 0 0 0 0 2.467H33.3a1.233 1.233 0 0 0 0-2.467zm14.8 7.4h-4.933a1.233 1.233 0 0 0 0 2.467H48.1a1.233 1.233 0 0 0 0-2.467zm-9.867 0H20.967a1.233 1.233 0 0 0 0 2.467h17.266a1.233 1.233 0 0 0 0-2.467zm9.867 4.934H34.533a1.233 1.233 0 0 0 0 2.466H48.1a1.233 1.233 0 0 0 0-2.466zm-18.5 0h-8.633a1.233 1.233 0 0 0 0 2.466H29.6a1.233 1.233 0 0 0 0-2.466zm39.467-30.71v-.124a4.933 4.933 0 0 0-9.867 0v59.2c0 .016.009.03.009.045.005.13.03.258.076.38.011.027.018.055.029.081.01.026.008.03.016.046l3.57 7.14v.942a1.233 1.233 0 0 0 2.467 0v-.943l3.576-7.14c.008-.014.01-.03.017-.045.007-.015.017-.054.028-.081.045-.122.071-.25.076-.38 0-.016.009-.029.009-.045V7.627a3.7 3.7 0 0 1 2.46 3.473v11.1a1.233 1.233 0 0 0 2.467 0V11.1a6.178 6.178 0 0 0-4.933-6.043zm-4.933 63.719l-1.705-3.41h3.409l-1.704 3.41zM66.6 62.9h-4.933V28.367H66.6V62.9zm0-37h-4.933V7.4H66.6v18.5zM61.667 4.933a2.467 2.467 0 1 1 4.933 0h-4.933zM37 48.1v-2.467h-3.7c-.327 0-.64.13-.872.362l-.947.947c-4.724-5.816-13.268-6.702-19.084-1.979-5.816 4.724-6.702 13.268-1.978 19.084 4.723 5.817 13.267 6.702 19.084 1.979a13.54 13.54 0 0 0 1.957-1.979l.96.96c.234.233.55.362.88.36H37V62.9h-3.19l-.94-.94a13.457 13.457 0 0 0 .016-12.935l.925-.925H37zm-5.953 12.036l-1.808-1.808-1.744 1.744 2.229 2.227c-.21.27-.428.532-.663.782l-6.35-6.348h9.287a11.063 11.063 0 0 1-.951 3.403zm-11.314-5.87a1.233 1.233 0 0 0-.872 2.106l8.316 8.316c-5.076 3.438-11.978 2.11-15.415-2.967-3.438-5.075-2.11-11.977 2.967-15.414a11.1 11.1 0 0 1 14.995 2.387l-2.234 2.234 1.744 1.744 1.803-1.802a10.98 10.98 0 0 1 .96 3.397H19.734zM44.4 41.933a4.933 4.933 0 1 0 0 9.867 4.933 4.933 0 0 0 0-9.867zm0 7.4a2.466 2.466 0 1 1 0-4.933 2.466 2.466 0 0 1 0 4.933zm0 9.867a4.933 4.933 0 1 0 0 9.867 4.933 4.933 0 0 0 0-9.867zm0 7.4a2.467 2.467 0 1 1 0-4.933 2.467 2.467 0 0 1 0 4.933z"/></g><defs><clipPath id="clip0"><path fill="#fff" d="M0 0h74v74H0z"/></clipPath></defs></svg>