<svg width="158" height="73" fill="none" xmlns="http://www.w3.org/2000/svg"><g clip-path="url(#clip0)"><path d="M12.754 8.74c0 .605-.063 1.183-.185 1.732a4.308 4.308 0 0 1-.6 1.446 2.961 2.961 0 0 1-1.094.985c-.452.24-1.001.362-1.648.362-.433 0-.823-.07-1.175-.215a4.391 4.391 0 0 1-.96-.538 6.164 6.164 0 0 1-.8-.7 18.298 18.298 0 0 0-.7-.694 5.23 5.23 0 0 0-.66-.532 1.207 1.207 0 0 0-.683-.215c-.34 0-.6.152-.787.455-.184.303-.279.838-.279 1.6H.807c0-.607.062-1.185.184-1.733a4.253 4.253 0 0 1 .6-1.441c.28-.412.642-.74 1.094-.98.452-.24 1.001-.362 1.648-.362.433 0 .823.07 1.175.215.352.145.671.322.96.538.29.213.556.444.8.693.243.248.476.48.7.693.225.213.444.393.66.537.217.145.445.216.683.216.346 0 .611-.153.793-.461.181-.309.273-.843.273-1.605h2.377v.003zm4.073 12.904V0h6.09v2.218h-3.483v17.21h3.483v2.219h-6.09v-.003zm20.626-5.088a8.748 8.748 0 0 1-1.724.502c-.595.109-1.215.163-1.862.163-.934 0-1.773-.128-2.512-.384a4.993 4.993 0 0 1-1.886-1.143c-.517-.505-.912-1.133-1.186-1.88-.273-.748-.41-1.61-.41-2.59 0-.949.148-1.808.446-2.578a5.657 5.657 0 0 1 1.256-1.973 5.59 5.59 0 0 1 1.951-1.26c.76-.295 1.608-.445 2.541-.445.764 0 1.408.041 1.928.123.522.082.99.186 1.407.308v2.767a7.074 7.074 0 0 0-1.556-.56 6.86 6.86 0 0 0-1.592-.199c-.525 0-.996.09-1.413.268-.416.18-.768.428-1.053.747-.284.32-.503.707-.654 1.16a4.726 4.726 0 0 0-.225 1.5c0 .568.081 1.078.243 1.528.163.45.393.835.688 1.15.298.316.655.556 1.072.722a3.7 3.7 0 0 0 1.388.251 7.16 7.16 0 0 0 1.605-.204c.274-.066.544-.142.81-.227.265-.085.514-.177.746-.281v2.535h-.008zm11.09-6.791a5.124 5.124 0 0 0-.065-1.132 2.17 2.17 0 0 0-.279-.77 1.216 1.216 0 0 0-.468-.444 1.4 1.4 0 0 0-.636-.14c-.417 0-.847.172-1.291.519-.444.346-.931.917-1.464 1.708v7.506h-2.894V5.157h2.558l.106 1.727c.192-.303.411-.576.655-.816.243-.24.514-.45.809-.625.297-.174.628-.308.99-.403.363-.093.761-.14 1.191-.14.596 0 1.12.104 1.581.309.457.207.844.513 1.158.916.312.404.544.912.696 1.523.152.611.214 1.318.192 2.117h-2.84zm12.537 5.951a21.365 21.365 0 0 1-1.28 2.7c-.444.776-.931 1.42-1.465 1.938a5.462 5.462 0 0 1-1.775 1.168c-.653.259-1.383.39-2.195.39-.192 0-.404-.011-.63-.03a9.45 9.45 0 0 1-.702-.088V19.38c.092.016.198.033.32.052.119.019.246.035.376.046.13.01.265.022.4.03.136.008.26.01.377.01.324 0 .625-.062.904-.185a2.79 2.79 0 0 0 .768-.518c.236-.221.45-.486.642-.794.192-.308.362-.644.508-1.01L52.665 5.158h3.148l2.441 6.72.728 2.171.717-2.076 2.466-6.813H65.2l-4.12 10.557zm16.54-4.843c0 1.088-.153 2.03-.458 2.824-.306.793-.728 1.451-1.272 1.978a5.138 5.138 0 0 1-1.927 1.167 7.43 7.43 0 0 1-2.42.38 6.82 6.82 0 0 1-1.678-.21v4.632h-2.826V5.157h2.441l.07 1.749c.239-.303.488-.579.748-.83.257-.248.538-.461.839-.636.3-.174.625-.308.972-.403.346-.093.736-.14 1.169-.14.695 0 1.312.14 1.851.42.539.282.993.68 1.359 1.196.365.518.647 1.143.839 1.88.195.736.292 1.563.292 2.48zm-2.965.117c0-.655-.046-1.209-.138-1.667-.092-.458-.224-.838-.4-1.132a1.688 1.688 0 0 0-.636-.647 1.78 1.78 0 0 0-.864-.205c-.479 0-.936.194-1.372.584-.436.39-.896.917-1.383 1.588v5.181c.225.085.498.156.828.21.328.055.66.082 1.002.082a2.63 2.63 0 0 0 1.22-.28c.366-.186.68-.45.937-.795.257-.34.457-.76.595-1.255.141-.494.211-1.05.211-1.664zm15.12 5.904c-.51.118-1.023.21-1.54.281-.517.071-1.007.107-1.47.107-.771 0-1.437-.082-1.998-.246-.56-.164-1.023-.412-1.388-.748a2.99 2.99 0 0 1-.81-1.276c-.172-.519-.26-1.135-.26-1.85V7.375h-3.158V5.157h3.159V2.123l2.893-.759v3.793h4.572v2.218h-4.572v5.577c0 .676.154 1.19.463 1.533.309.344.826.518 1.551.518.463 0 .915-.038 1.353-.117.441-.076.842-.166 1.205-.267v2.275zm13.922-5.904c0 .933-.133 1.787-.392 2.562a5.683 5.683 0 0 1-1.135 1.99 5.006 5.006 0 0 1-1.816 1.281c-.717.303-1.534.456-2.454.456-.872 0-1.651-.128-2.339-.385a4.56 4.56 0 0 1-1.749-1.148c-.478-.51-.844-1.149-1.098-1.913-.255-.767-.382-1.659-.382-2.676 0-.942.133-1.798.398-2.568s.65-1.427 1.145-1.972a5.101 5.101 0 0 1 1.824-1.266c.717-.3 1.53-.45 2.43-.45.88 0 1.662.13 2.35.39a4.56 4.56 0 0 1 1.748 1.162c.479.513.842 1.148 1.094 1.907.251.758.376 1.634.376 2.63zm-2.939.071c0-1.228-.23-2.153-.688-2.772-.46-.62-1.137-.928-2.032-.928-.493 0-.915.099-1.262.292a2.431 2.431 0 0 0-.855.8 3.607 3.607 0 0 0-.493 1.184c-.105.45-.157.933-.157 1.446 0 1.236.247 2.169.742 2.794.493.627 1.17.938 2.024.938.471 0 .88-.095 1.227-.286.346-.191.627-.456.844-.794.217-.338.379-.737.487-1.195a6.36 6.36 0 0 0 .163-1.479zM34.514 45.687h-3.253l-4.663-11.855h3.147l2.442 6.72.728 2.172.717-2.076 2.466-6.813h3.034l-4.618 11.852zM44.77 36.05h-3.32v-2.218h6.216v9.636h3.392v2.218H41.045v-2.218h3.727V36.05h-.003zm3.126-5.462c0 .256-.046.496-.138.723a1.778 1.778 0 0 1-.387.589 1.82 1.82 0 0 1-1.313.54 1.858 1.858 0 0 1-1.326-.54 1.779 1.779 0 0 1-.387-.59 1.899 1.899 0 0 1-.138-.722 1.86 1.86 0 0 1 .525-1.318 1.84 1.84 0 0 1 1.326-.551 1.8 1.8 0 0 1 1.313.551 1.86 1.86 0 0 1 .525 1.318zm9.906.829h-3.32V29.2h6.216v14.27h3.392v2.218H54.078V43.47h3.727V31.417h-.003zm13.035 0h-3.321V29.2h6.217v14.27h3.391v2.218H67.112V43.47h3.727V31.417h-.002zm16.61 14.27l-.07-1.553a8.074 8.074 0 0 1-.775.729 4.761 4.761 0 0 1-1.949.958c-.381.09-.8.133-1.255.133-.601 0-1.132-.09-1.586-.267a3.209 3.209 0 0 1-1.145-.748 3.15 3.15 0 0 1-.701-1.154c-.16-.45-.238-.95-.238-1.492 0-.56.116-1.078.351-1.553a3.295 3.295 0 0 1 1.078-1.225c.481-.344 1.085-.611 1.805-.805.722-.194 1.567-.292 2.541-.292h1.54v-.712a2.54 2.54 0 0 0-.127-.824 1.473 1.473 0 0 0-.411-.625 1.901 1.901 0 0 0-.736-.395c-.3-.093-.672-.14-1.113-.14-.695 0-1.38.08-2.054.24a10.49 10.49 0 0 0-1.962.672v-2.276a11.03 11.03 0 0 1 1.951-.559 11.688 11.688 0 0 1 2.298-.22c.871 0 1.621.084 2.246.25.626.167 1.14.418 1.546.753.406.336.704.753.896 1.255.192.502.29 1.086.29 1.757v8.098h-2.42v-.005zm-.406-5.239h-1.724c-.48 0-.883.047-1.216.14a2.29 2.29 0 0 0-.809.384 1.51 1.51 0 0 0-.457.567 1.635 1.635 0 0 0-.146.683c0 .483.154.85.462 1.102.309.254.728.38 1.262.38.392 0 .803-.145 1.226-.432.425-.286.89-.701 1.399-1.236v-1.588h.003zm8.509-7.735l7.801 6.617-7.8 6.627-1.795-1.844 5.73-4.761-5.73-4.797 1.794-1.842zm13.033 0l7.8 6.617-7.8 6.627-1.795-1.844 5.73-4.761-5.73-4.797 1.795-1.842zm12.039 17.607V48.1h3.462V30.89h-3.462v-2.219h6.066v21.645h-6.066v.002zm9.976.152v-2.25h13.035v2.25h-13.035zm13.035 0v-2.25h13.035v2.25h-13.035z" fill="#259F00"/><path d="M38.686 57.05H33.76v1.82h4.926c.257 0 .387-.139.387-.417v-1.075c-.044-.218-.173-.327-.387-.327zm-10.624 1.82h4.926v-1.82h-4.926c-.257 0-.387.14-.387.418v1.075c.043.216.17.328.387.328z" fill="red"/><path d="M32.733 57.05c-.23 0-.343.11-.343.326v14.84c0 .231.113.346.343.346h1.075a.338.338 0 0 0 .268-.11.348.348 0 0 0 .097-.237V58.871h1.733v-1.82h-3.173zm93.987 0h-4.926v1.82h4.926c.257 0 .387-.139.387-.417v-1.075c-.043-.218-.171-.327-.387-.327zm-10.624 1.82h4.926v-1.82h-4.926c-.257 0-.387.14-.387.418v1.075c.043.216.173.328.387.328z" fill="red"/><path d="M120.768 57.05c-.231 0-.344.11-.344.326v14.84c0 .231.113.346.344.346h1.074a.338.338 0 0 0 .268-.11.348.348 0 0 0 .097-.237V58.871h1.733v-1.82h-3.172zm-69.47 15.154a1.115 1.115 0 0 0-.054-.164c-.3-.723-.63-1.487-.988-2.297-.3-.693-.642-1.479-1.02-2.36-.38-.882-.764-1.785-1.15-2.71a4308.33 4308.33 0 0 1-3.16-7.366.731.731 0 0 0-.151-.227c-.043-.035-.135-.054-.279-.054h-.065a.46.46 0 0 0-.452.28l-6.404 14.731a.352.352 0 0 0-.043.197c0 .215.136.325.409.325h13.002c.244 0 .366-.088.366-.26a.431.431 0 0 0-.011-.095zM40.093 70.74l4.363-10.31 4.341 10.31h-8.704zm18.136-14.189c-.66.03-1.272.188-1.838.478a5.272 5.272 0 0 0-1.472 1.105c-.417.447-.742.96-.977 1.538a4.721 4.721 0 0 0-.355 1.799c0 .679.157 1.336.474 1.972.173.347.398.68.677.996.278.317.554.636.828.952.273.32.506.658.698 1.018.192.36.29.758.29 1.192 0 .377-.079.756-.236 1.138a4.022 4.022 0 0 1-.622 1.04 3.8 3.8 0 0 1-.902.79 2.59 2.59 0 0 1-1.096.39c-.23.03-.343.145-.343.347v.953c0 .114.03.21.086.28.057.072.144.11.257.11a4.764 4.764 0 0 0 1.806-.478 4.669 4.669 0 0 0 1.44-1.083c.4-.447.717-.958.944-1.528.23-.57.344-1.173.344-1.809 0-.52-.073-.982-.214-1.386a5.484 5.484 0 0 0-.547-1.127 9.004 9.004 0 0 0-.752-1.006c-.279-.325-.547-.66-.807-1.007-.387-.521-.579-1.075-.579-1.667 0-.216.04-.44.12-.671a5.996 5.996 0 0 1 .557-1.193 1.77 1.77 0 0 1 .184-.259 4.2 4.2 0 0 1 .912-.77 2.82 2.82 0 0 1 1.128-.4c.23-.03.344-.137.344-.325v-.996a.44.44 0 0 0-.086-.28.318.318 0 0 0-.263-.113zm15.323.587a.402.402 0 0 0-.257-.087H72.22c-.114 0-.2.03-.257.087a.323.323 0 0 0-.087.238v4.073h-9.11v-4.073a.284.284 0 0 0-.108-.238.376.376 0 0 0-.236-.087h-1.117a.34.34 0 0 0-.225.076c-.065.052-.098.134-.098.248v14.862c0 .216.109.325.322.325h1.097c.243 0 .365-.11.365-.325v-4.464h9.11v4.464c0 .216.114.325.344.325h1.075c.243 0 .365-.11.365-.325V57.376a.291.291 0 0 0-.108-.238zm-1.676 8.816h-9.11v-2.688h9.11v2.688zm8.788.714l4.899-5.2c.13-.131.13-.232 0-.303a.802.802 0 0 0-.387-.109h-1.462a.433.433 0 0 0-.3.12 7.75 7.75 0 0 0-.236.227l-5.694 6.065v-1.193l6.747-7.214c.057-.057.087-.114.087-.174 0-.158-.152-.237-.452-.237h-1.462a.433.433 0 0 0-.3.12 6.59 6.59 0 0 0-.236.226l-4.384 4.701v-6.152a.5.5 0 0 0-.522-.521H76.2c-.16 0-.284.046-.37.141a.541.541 0 0 0-.13.38v14.493c0 .346.167.52.5.52h.76c.35 0 .523-.174.523-.52v-1.992l1.976-2.079 3.976 4.245c.07.074.146.148.224.227.079.079.176.12.29.12h1.461c.13 0 .244-.02.344-.055.1-.035.152-.09.152-.163 0-.03-.035-.093-.108-.194l-5.135-5.479zm17.75-9.618H88.267c-.227 0-.341.102-.341.304v14.861c0 .232.114.347.34.347H98.35c.243 0 .365-.126.365-.374v-1.075a.345.345 0 0 0-.108-.273.4.4 0 0 0-.279-.098H89.71v-2.969h6.9a.27.27 0 0 0 .235-.12.426.426 0 0 0 .087-.248V66.3c0-.232-.109-.346-.322-.346h-6.9v-2.688h6.9a.28.28 0 0 0 .235-.11.404.404 0 0 0 .087-.258v-1.084c0-.1-.03-.188-.087-.259a.287.287 0 0 0-.235-.109h-6.9v-2.578h8.683c.23 0 .344-.131.344-.396v-1.096c0-.216-.106-.325-.322-.325zm9.8 13.692h-7.069c-.114 0-.201.035-.258.109a.45.45 0 0 0-.086.28v1.106c0 .215.108.325.322.325h7.069a.312.312 0 0 0 .247-.11.37.37 0 0 0 .097-.259v-1.105c0-.232-.108-.346-.322-.346z" fill="red"/><path d="M113.603 57.029h-1.067a.31.31 0 0 0-.227.098.313.313 0 0 0-.097.226l-.087 12.196-9.132-12.414a.412.412 0 0 0-.344-.175h-1.483c-.243 0-.365.115-.365.347v11.85c0 .188.108.28.322.28l5.199.022c.114 0 .2-.035.257-.109a.403.403 0 0 0 .087-.26v-1.104c0-.232-.108-.347-.322-.347l-3.76-.021v-8.06l9.541 12.998h1.391c.26 0 .393-.11.393-.325l.108-14.861a.36.36 0 0 0-.087-.249c-.059-.06-.167-.092-.327-.092z" fill="red"/></g><defs><clipPath id="clip0"><path fill="#fff" transform="translate(.807)" d="M0 0h156.391v73H0z"/></clipPath></defs></svg>