<svg width="75" height="75" viewBox="0 0 75 75" fill="none" xmlns="http://www.w3.org/2000/svg">
<g clip-path="url(#clip0)">
<path d="M60.6251 12.4998C59.5894 12.4998 58.75 13.3392 58.75 14.3749C58.75 15.4106 59.5894 16.25 60.6251 16.25C61.6608 16.25 62.5002 15.4106 62.5002 14.3749C62.5002 13.3392 61.6608 12.4998 60.6251 12.4998Z" fill="#259F00"/>
<path d="M65.8842 0.366312C65.3961 -0.121778 64.6047 -0.121778 64.1166 0.366312L54.1162 10.3662C53.8822 10.6008 53.75 10.9183 53.75 11.2502V19.9998C53.75 20.6904 54.3096 21.2501 55.0003 21.2501H63.7504C64.0817 21.2501 64.3993 21.1185 64.6339 20.8839L74.6337 10.8834C75.1218 10.3953 75.1218 9.60455 74.6337 9.11589L65.8842 0.366312ZM63.2326 18.7501H56.25V11.7675L65.0001 3.01734L71.9827 9.99995L63.2326 18.7501Z" fill="#259F00"/>
<path d="M1.25027 42.5H4.99992V42.6602C5.00507 44.9089 6.55861 46.8584 8.75015 47.3648V58.75C8.75015 59.4407 9.30977 60.0003 9.99985 60.0003H17.4997C18.1904 60.0003 18.75 59.4407 18.75 58.75V53.7501H20.01C22.0734 53.7444 23.7448 52.0735 23.7499 50.0101V47.3648C25.3464 46.9906 26.6447 45.8325 27.1975 44.2887L48.2426 53.6425C48.8737 53.9229 49.6124 53.6385 49.8922 53.0074C49.9632 52.8477 50.0004 52.6749 49.9998 52.4998V22.4997C50.0004 21.8096 49.4408 21.25 48.7501 21.25C48.5756 21.25 48.4022 21.2866 48.2426 21.3576L27.1975 30.7114C26.5142 28.7905 24.6986 27.5059 22.6599 27.5002H9.8402C7.16801 27.5025 5.00278 29.6683 4.99992 32.3399V32.5001H1.25027C0.559616 32.5001 0 33.0597 0 33.7498V41.2497C0 41.9403 0.559616 42.5 1.25027 42.5ZM42.4999 26.6447L47.4998 24.424V50.5761L42.4999 48.3553V26.6447ZM27.5002 33.3126L40 27.756V47.2498L27.5002 41.6874V33.3126ZM16.25 52.4998V57.5003H11.2501V47.4999H16.25V52.4998ZM21.25 50.0101C21.2494 50.6945 20.6949 51.2495 20.01 51.2501H18.75V47.4999H21.25V50.0101ZM7.49989 41.2497V32.3399C7.5016 31.0484 8.54816 30.0013 9.8402 30.0002H22.6599C23.9519 30.0013 24.9985 31.0484 25.0002 32.3399V42.6602C24.9985 43.9516 23.9519 44.9988 22.6599 44.9999H9.8402C8.54816 44.9988 7.5016 43.9516 7.49989 42.6602V41.2497ZM2.49996 35.0001H4.99992V40H2.49996V35.0001Z" fill="#259F00"/>
<path d="M62.2607 49.1524C61.7726 48.6644 60.9813 48.6644 60.4932 49.1524L51.6532 57.9924C51.1651 58.4805 51.1651 59.2719 51.6532 59.76L64.0282 72.135C64.5163 72.6231 65.3071 72.6231 65.7958 72.135L74.6341 63.2962C75.1221 62.8081 75.1221 62.0168 74.6341 61.5287L62.2607 49.1524ZM70.4781 60.9027L63.424 60.3614L62.8815 53.3072L70.4781 60.9027ZM64.9117 69.48L54.3042 58.8748L60.3381 52.8414L61.0144 61.6214C61.0614 62.2359 61.5495 62.7251 62.164 62.7726L70.9456 63.4473L64.9117 69.48Z" fill="#259F00"/>
<path d="M33.7494 23.7499C38.5719 23.7608 42.4904 19.8601 42.5018 15.0375C42.5058 13.1378 41.8907 11.2885 40.7491 9.76982L48.3852 2.13375L46.6154 0.366211L38.9793 7.99999C35.1129 5.10063 29.6284 5.88398 26.729 9.74979C23.8296 13.6156 24.613 19.1002 28.4788 22.0001C29.9991 23.14 31.8491 23.7539 33.7494 23.7499ZM33.7494 8.74958C37.2009 8.74958 39.999 11.5482 39.999 14.9998C39.999 18.4519 37.2009 21.25 33.7494 21.25C30.2973 21.25 27.4992 18.4519 27.4992 14.9998C27.5032 11.5499 30.299 8.75416 33.7494 8.74958Z" fill="#259F00"/>
<path d="M53.7497 43.7501H59.9999V44.9998C59.9999 45.6904 60.5595 46.25 61.2502 46.25H71.25C71.9401 46.25 72.4997 45.6904 72.4997 44.9998V38.7736C72.4934 36.6507 71.151 34.7619 69.1489 34.0575C71.3988 32.4565 71.9246 29.3345 70.3236 27.0846C68.7231 24.8347 65.6012 24.3083 63.3513 25.9093C61.1014 27.5104 60.5749 30.6323 62.176 32.8822C62.4993 33.3365 62.8964 33.7342 63.3513 34.0575C62.5422 34.3459 61.8206 34.8374 61.2559 35.4846C60.8204 34.9828 60.2888 34.5725 59.6926 34.2784C61.3726 33.0676 61.7531 30.7239 60.5423 29.0439C59.3315 27.3639 56.9878 26.9833 55.3072 28.1941C53.6272 29.4049 53.2467 31.7487 54.4575 33.4287C54.6933 33.756 54.9805 34.0426 55.3072 34.2784C53.5952 35.1109 52.5057 36.8459 52.5 38.7496V42.4998C52.5 43.1899 53.0596 43.7501 53.7497 43.7501ZM66.2501 27.5001C67.6308 27.5001 68.75 28.6193 68.75 30C68.75 31.3807 67.6308 32.5 66.2501 32.5C64.8693 32.5 63.7501 31.3802 63.7501 30C63.7501 28.6193 64.8693 27.5001 66.2501 27.5001ZM62.4998 42.4998V38.7736C62.5021 37.3803 63.6305 36.2519 65.0238 36.2496H67.4763C68.8691 36.2519 69.998 37.3803 69.9997 38.7736V43.7495H62.4998V42.4998ZM57.4999 30C58.19 30 58.7496 30.5596 58.7496 31.2497C58.7496 31.9404 58.19 32.5 57.4999 32.5C56.8093 32.5 56.2497 31.9404 56.2497 31.2497C56.2497 30.5596 56.8093 30 57.4999 30ZM55 38.7496C55 37.3689 56.1192 36.2496 57.4999 36.2496C58.8807 36.2496 59.9999 37.3694 59.9999 38.7496V41.2501H55V38.7496Z" fill="#259F00"/>
<path d="M34.9999 51.25H30C29.6687 51.25 29.3506 51.3816 29.116 51.6162L21.6161 59.1161C21.128 59.6042 21.128 60.3955 21.6161 60.8836L35.3661 74.6337C35.8542 75.1218 36.6456 75.1218 37.1337 74.6337L47.1341 64.6339C47.6216 64.1458 47.6216 63.3544 47.1341 62.8663L35.884 51.6162C35.6494 51.3816 35.3312 51.25 34.9999 51.25ZM36.2502 71.9827L24.2677 60.0002L30.5173 53.75H34.4827L44.4825 63.7498L36.2502 71.9827Z" fill="#259F00"/>
<path d="M29.1172 61.6161L34.1171 56.6162L35.8847 58.3838L30.8847 63.3837L29.1172 61.6161Z" fill="#259F00"/>
<path d="M32.8652 65.3659L37.8657 60.366L39.6333 62.1335L34.6333 67.134L32.8652 65.3659Z" fill="#259F00"/>
</g>
<defs>
<clipPath id="clip0">
<rect width="75" height="75" fill="white"/>
</clipPath>
</defs>
</svg>
