<svg width="72" height="72" viewBox="0 0 72 72" fill="none" xmlns="http://www.w3.org/2000/svg">
<g clip-path="url(#clip0)">
<path d="M36.0008 16.8C32.0243 16.8 28.8008 20.0235 28.8008 24C28.8047 27.9749 32.0259 31.1961 36.0008 31.2C39.9773 31.2 43.2007 27.9765 43.2007 24C43.2007 20.0235 39.9773 16.8 36.0008 16.8ZM36.0008 28.8C33.3498 28.8 31.2008 26.651 31.2008 24C31.2008 21.3491 33.3498 19.2 36.0008 19.2C38.6517 19.2 40.8008 21.3491 40.8008 24C40.8008 26.651 38.6519 28.8 36.0008 28.8Z" fill="#259F00"/>
<path d="M48.8654 34.3802C48.4693 33.9835 48.0517 33.6088 47.6144 33.2578L47.6264 33.223C51.5819 21.0168 47.1572 7.6557 36.698 0.223068C36.2809 -0.0746815 35.7208 -0.0746815 35.3036 0.223068C24.8445 7.6557 20.4198 21.0168 24.3753 33.223L24.3873 33.2578C17.7885 38.5549 16.7331 48.1984 22.03 54.7972C22.381 55.2344 22.7557 55.652 23.1525 56.0481C23.3775 56.2732 23.6826 56.3997 24.0009 56.3997C24.1297 56.3996 24.2577 56.3789 24.3801 56.3386C24.8113 56.195 25.1244 55.8201 25.1889 55.3701L26.0949 49.0294C26.1796 48.4388 26.6851 48.0002 27.2816 47.9998H30.9368L30.0248 52.5598C29.8922 53.2091 30.3112 53.843 30.9605 53.9755C31.0396 53.9917 31.1201 53.9998 31.2008 53.9998H40.8008C41.4635 53.9999 42.001 53.4628 42.0011 52.8001C42.0011 52.7194 41.993 52.6388 41.9768 52.5598L41.0648 47.9998H44.72C45.3169 48.0004 45.8227 48.4396 45.9068 49.0306L46.8128 55.3701C46.8773 55.8201 47.1904 56.195 47.6216 56.3386C47.744 56.3789 47.872 56.3996 48.0008 56.3997C48.3191 56.3997 48.6242 56.2732 48.8492 56.0481C54.8372 50.0693 54.8444 40.3682 48.8654 34.3802ZM36.0008 2.69161C38.8849 4.89181 41.2975 7.64925 43.0952 10.8H28.9064C30.7042 7.64925 33.1168 4.89181 36.0008 2.69161ZM27.2816 45.5999C25.4931 45.6076 23.9788 46.9216 23.7189 48.6911L23.1993 52.3307C21.5961 49.9102 20.8566 47.0194 21.1005 44.1263H21.0993C21.3634 40.9118 22.8184 37.9118 25.1793 35.7143L28.3544 45.5999H27.2816ZM32.6648 51.5999L33.3848 47.9999H38.6168L39.3368 51.5999H32.6648ZM30.8756 45.5999L26.9253 33.3095L26.6613 32.4875C24.6154 26.1505 24.985 19.2808 27.6993 13.2H44.3024C47.0167 19.2808 47.3864 26.1505 45.3404 32.4875L45.0764 33.3095L41.126 45.5999H30.8756ZM48.8024 52.3307L48.2828 48.6911C48.0229 46.9216 46.5086 45.6076 44.72 45.5999H43.6472L46.8248 35.7143C49.1843 37.9124 50.6381 40.9123 50.9012 44.1263C51.1452 47.0194 50.4057 49.9102 48.8024 52.3307Z" fill="#259F00"/>
<path d="M31.1999 56.304V60.216C28.2859 59.3265 25.1189 60.1008 22.944 62.2344C21.1206 60.0647 18.4341 58.8084 15.6 58.8C14.7262 58.8 13.8568 58.9212 13.0164 59.16C12.0474 53.3948 7.04609 49.1792 1.2 49.2H0V51.6H1.2C6.10544 51.5849 10.2237 55.2906 10.7244 60.1704C9.55813 60.8496 8.54773 61.7667 7.75918 62.862C5.59634 61.0142 2.84474 59.9991 0 60V62.4C5.29949 62.406 9.59398 66.7005 9.59998 72H12C12.0013 69.3418 11.1144 66.7594 9.47998 64.6632C10.1923 63.4828 11.2273 62.5309 12.4632 61.92C12.4752 61.92 12.4884 61.92 12.5004 61.908C13.467 61.4414 14.5266 61.1994 15.6 61.2C17.9257 61.2108 20.1036 62.3419 21.45 64.2384C20.7681 65.5201 20.4078 66.9483 20.4 68.4H22.8C22.7989 67.1731 23.1456 65.9712 23.7996 64.9332H23.7924C23.8092 64.9104 23.832 64.8936 23.8488 64.8696C25.4704 62.4864 28.5614 61.5995 31.1999 62.76V65.904H33.5999V56.304H31.1999Z" fill="#259F00"/>
<path d="M70.8003 51.6H72.0003V49.2H70.8003C64.9542 49.1792 59.9529 53.3948 58.9839 59.16C58.1435 58.9212 57.2741 58.8 56.4004 58.8C53.5669 58.8075 50.8804 60.0624 49.0564 62.2308C46.8814 60.0972 43.7144 59.3229 40.8004 60.2124V56.3004H38.4004V65.9004H40.8004V62.76C43.4387 61.5992 46.5296 62.4856 48.1516 64.8684C48.1684 64.8924 48.1912 64.9092 48.208 64.932H48.2008C48.8551 65.9703 49.2016 67.1727 49.2004 68.4H51.6004C51.5926 66.9483 51.2323 65.5201 50.5504 64.2384C51.8968 62.3419 54.0746 61.2108 56.4004 61.2C57.4739 61.2002 58.5335 61.443 59.4999 61.9104C59.5119 61.9164 59.5251 61.9176 59.5371 61.9224C60.7748 62.5318 61.812 63.4828 62.5263 64.6632C60.8897 66.7587 60.0006 69.3411 60.0003 72H62.4003C62.4063 66.7005 66.7008 62.406 72.0003 62.4V60C69.1556 59.9994 66.4041 61.0143 64.2411 62.862C63.4526 61.7667 62.4422 60.8496 61.2759 60.1704C61.7768 55.2905 65.8949 51.5849 70.8003 51.6Z" fill="#259F00"/>
<path d="M32.4 34.8H30V37.2H32.4V34.8Z" fill="#259F00"/>
<path d="M37.2008 34.8H34.8008V37.2H37.2008V34.8Z" fill="#259F00"/>
<path d="M41.9996 34.8H39.5996V37.2H41.9996V34.8Z" fill="#259F00"/>
<path d="M15.5992 63.6001H13.1992V66.0001H15.5992V63.6001Z" fill="#259F00"/>
<path d="M2.4 44.4001H0V46.8001H2.4V44.4001Z" fill="#259F00"/>
<path d="M69.5992 55.2H67.1992V57.5999H69.5992V55.2Z" fill="#259F00"/>
<path d="M59.9996 50.4001H57.5996V52.8001H59.9996V50.4001Z" fill="#259F00"/>
<path d="M46.8004 69.6001H44.4004V72.0001H46.8004V69.6001Z" fill="#259F00"/>
<path d="M71.9996 42H69.5996V44.4H71.9996V42Z" fill="#259F00"/>
</g>
<defs>
<clipPath id="clip0">
<rect width="72" height="72" fill="white"/>
</clipPath>
</defs>
</svg>
