<svg width="29" height="28" fill="none" xmlns="http://www.w3.org/2000/svg"><path fill-rule="evenodd" clip-rule="evenodd" d="M14.5 28C22.508 28 29 21.732 29 14S22.508 0 14.5 0 0 6.268 0 14s6.492 14 14.5 14z" fill="#fff"/><path fill-rule="evenodd" clip-rule="evenodd" d="M11.704 19.64c-.432 0-.359-.173-.508-.607l-1.27-4.411L19.704 8.5" fill="#fff"/><path fill-rule="evenodd" clip-rule="evenodd" d="M11.704 19.64c.333 0 .48-.162.667-.352l1.778-1.825-2.218-1.41" fill="#333"/><path fill-rule="evenodd" clip-rule="evenodd" d="M11.93 16.053l5.374 4.189c.613.357 1.056.172 1.209-.6L20.7 8.763c.224-.947-.342-1.377-.929-1.096L6.927 12.894c-.877.371-.872.888-.16 1.118l3.296 1.085 7.631-5.08c.36-.23.69-.106.42.148" fill="#333"/></svg>