<svg width="29" height="28" fill="none" xmlns="http://www.w3.org/2000/svg"><path fill-rule="evenodd" clip-rule="evenodd" d="M14.5 28C22.508 28 29 21.732 29 14S22.508 0 14.5 0 0 6.268 0 14s6.492 14 14.5 14z" fill="url(#paint0_linear)"/><path fill-rule="evenodd" clip-rule="evenodd" d="M11.704 19.64c-.432 0-.359-.173-.508-.607l-1.27-4.412L19.704 8.5" fill="#C8DAEA"/><path fill-rule="evenodd" clip-rule="evenodd" d="M11.704 19.639c.333 0 .48-.161.667-.352l1.778-1.824-2.218-1.411" fill="#A9C9DD"/><path fill-rule="evenodd" clip-rule="evenodd" d="M11.93 16.052l5.374 4.19c.613.357 1.056.172 1.209-.601L20.7 8.764c.224-.947-.342-1.377-.929-1.096L6.927 12.894c-.877.371-.872.887-.16 1.117l3.296 1.086 7.631-5.08c.36-.23.69-.107.42.147" fill="url(#paint1_linear)"/><defs><linearGradient id="paint0_linear" x1="10.876" y1="1.168" x2="4.046" y2="17.674" gradientUnits="userSpaceOnUse"><stop stop-color="#37AEE2"/><stop offset="1" stop-color="#1E96C8"/></linearGradient><linearGradient id="paint1_linear" x1="12.479" y1="14.054" x2="14.05" y2="18.87" gradientUnits="userSpaceOnUse"><stop stop-color="#EFF7FC"/><stop offset="1" stop-color="#fff"/></linearGradient></defs></svg>