<svg width="74" height="74" fill="none" xmlns="http://www.w3.org/2000/svg"><path d="M58.07 19.821H15.93a1.085 1.085 0 1 0 0 2.17h42.14a1.085 1.085 0 1 0 0-2.17zm0 11.813H15.93a1.085 1.085 0 1 0 0 2.17h42.14a1.085 1.085 0 1 0 0-2.17zM44.255 39.3H29.746a1.085 1.085 0 1 0 0 2.169h14.509a1.085 1.085 0 1 0 0-2.17zM21.59 25.703h-5.66a1.085 1.085 0 1 0 0 2.17h5.66a1.085 1.085 0 1 0 0-2.17z" fill="#259F00"/><path d="M68.399 17.988a1.336 1.336 0 0 0-.943-.385 4.093 4.093 0 0 1-4.098-3.913 1.333 1.333 0 0 0-1.335-1.273H11.717c-.716 0-1.303.559-1.335 1.273-.094 2.098-1.811 3.815-3.909 3.909A1.333 1.333 0 0 0 5.2 18.934v28.042c0 .717.56 1.303 1.273 1.336 2.098.094 3.815 1.811 3.91 3.909a1.332 1.332 0 0 0 1.334 1.273h32.025a1.085 1.085 0 1 0 0-2.17H12.464A6.225 6.225 0 0 0 7.37 46.23V19.68a6.225 6.225 0 0 0 5.093-5.093h48.814a6.257 6.257 0 0 0 5.352 5.132v18.423a1.085 1.085 0 1 0 2.17 0V18.94c0-.36-.143-.7-.4-.953z" fill="#259F00"/><path d="M70.989 7.002H3.01A3.015 3.015 0 0 0 0 10.013v45.884c0 1.66 1.35 3.012 3.011 3.012h45.535l-1.612 3.378a1.286 1.286 0 1 0 1.367 1.827l3.001-.482 1.674 2.748a1.287 1.287 0 0 0 2.264-.116l2.908-6.095 2.91 6.095a1.287 1.287 0 0 0 2.263.116l1.674-2.748 3.001.483a1.287 1.287 0 1 0 1.367-1.828l-1.612-3.378h3.238c1.66 0 3.011-1.35 3.011-3.011V10.013c0-1.66-1.35-3.011-3.011-3.011zM53.983 63.86l-1.136-1.864a1.284 1.284 0 0 0-1.305-.601l-1.927.31 2.03-4.254c.8.816 1.94 1.257 3.123 1.146.405-.039.81.07 1.142.306.11.077.223.146.338.211l-2.265 4.746zm4.424-6.433l-.01.002a1.704 1.704 0 0 1-.496 0l-.013-.002a1.691 1.691 0 0 1-.721-.293 3.865 3.865 0 0 0-2.603-.697 1.695 1.695 0 0 1-1.7-.982 3.87 3.87 0 0 0-.5-.806l-.028-.036-.032-.04a3.862 3.862 0 0 0-1.346-1.024 1.695 1.695 0 0 1-.982-1.7 3.865 3.865 0 0 0-.697-2.603 1.695 1.695 0 0 1 0-1.963c.537-.756.784-1.68.697-2.603-.068-.717.327-1.4.982-1.7a3.864 3.864 0 0 0 1.905-1.906c.3-.655.985-1.05 1.7-.982a3.865 3.865 0 0 0 2.604-.697 1.696 1.696 0 0 1 1.963 0c.756.537 1.68.784 2.603.697a1.694 1.694 0 0 1 1.7.982 3.863 3.863 0 0 0 1.906 1.905c.655.3 1.05.984.982 1.7a3.87 3.87 0 0 0 .697 2.604 1.696 1.696 0 0 1 0 1.963 3.866 3.866 0 0 0-.697 2.603c.068.717-.327 1.4-.982 1.7a3.862 3.862 0 0 0-1.347 1.026c-.01.01-.018.023-.028.034l-.032.042a3.852 3.852 0 0 0-.498.804c-.3.655-.983 1.05-1.7.982a3.87 3.87 0 0 0-2.604.697 1.69 1.69 0 0 1-.723.293zm6.348 3.968a1.284 1.284 0 0 0-1.305.601l-1.136 1.864-2.264-4.746c.114-.065.228-.134.337-.212a1.692 1.692 0 0 1 1.142-.305 3.865 3.865 0 0 0 3.123-1.146l2.03 4.253-1.927-.31zm7.075-5.498a.843.843 0 0 1-.841.841h-4.273l-.56-1.172.086-.044a3.867 3.867 0 0 0 2.239-3.877c-.038-.405.07-.81.306-1.142a3.867 3.867 0 0 0 0-4.477 1.695 1.695 0 0 1-.306-1.142 3.867 3.867 0 0 0-2.24-3.877 1.696 1.696 0 0 1-.835-.836 3.868 3.868 0 0 0-3.878-2.239c-.404.039-.81-.07-1.14-.306a3.867 3.867 0 0 0-4.478 0 1.693 1.693 0 0 1-1.142.306 3.867 3.867 0 0 0-3.877 2.239 1.7 1.7 0 0 1-.836.836 3.867 3.867 0 0 0-2.239 3.877c.038.405-.07.81-.306 1.142a3.867 3.867 0 0 0 0 4.477c.236.331.344.737.306 1.142a3.867 3.867 0 0 0 2.239 3.877c.03.013.057.03.085.044l-.56 1.172H3.012a.843.843 0 0 1-.841-.841V10.013c0-.464.377-.842.841-.842H70.99c.464 0 .841.378.841.842v45.885z" fill="#259F00"/><path d="M58.07 41.526a6.748 6.748 0 0 0-6.74 6.74 6.748 6.748 0 0 0 6.74 6.74 6.748 6.748 0 0 0 6.74-6.74 6.748 6.748 0 0 0-6.74-6.74zm0 11.31c-2.52 0-4.57-2.05-4.57-4.57 0-2.52 2.05-4.571 4.57-4.571 2.52 0 4.57 2.05 4.57 4.57 0 2.52-2.05 4.57-4.57 4.57z" fill="#259F00"/></svg>