<svg width="24" height="24" fill="none" xmlns="http://www.w3.org/2000/svg"><path opacity=".3" fill-rule="evenodd" clip-rule="evenodd" d="M6.615 10.75c0 1.243-1.033 2.25-2.307 2.25C3.033 13 2 11.993 2 10.75S4.308 7 4.308 7s2.307 2.507 2.307 3.75zm15.385 0c0 1.243-1.033 2.25-2.308 2.25-1.274 0-2.307-1.007-2.307-2.25S19.692 7 19.692 7 22 9.507 22 10.75zM8.308 20c1.274 0 2.307-1.007 2.307-2.25S8.308 14 8.308 14 6 16.507 6 17.75C6 18.993 7.033 20 8.308 20zm10-2.25c0 1.243-1.034 2.25-2.308 2.25-1.274 0-2.308-1.007-2.308-2.25S16 14 16 14s2.308 2.507 2.308 3.75z" fill="#fff"/><path fill-rule="evenodd" clip-rule="evenodd" d="M12 13c1.275 0 2.308-1.007 2.308-2.25S12 7 12 7s-2.308 2.507-2.308 3.75C9.692 11.993 10.726 13 12 13z" fill="#fff"/></svg>