<svg width="18" height="18" fill="none" xmlns="http://www.w3.org/2000/svg"><path d="M12.524 0h-7.21C2.384 0 0 2.36 0 5.259v7.135c0 2.9 2.384 5.259 5.314 5.259h7.21c2.93 0 5.314-2.36 5.314-5.26V5.26c0-2.9-2.384-5.259-5.314-5.259zm3.52 12.394c0 1.923-1.576 3.483-3.52 3.483h-7.21c-1.944 0-3.52-1.56-3.52-3.483V5.259c0-1.924 1.576-3.483 3.52-3.483h7.21c1.944 0 3.52 1.56 3.52 3.483v7.135z" fill="#BEC7D1" style="mix-blend-mode:darken"/><path d="M8.92 4.26c-2.545 0-4.614 2.049-4.614 4.566 0 2.518 2.07 4.566 4.613 4.566 2.544 0 4.614-2.048 4.614-4.566 0-2.517-2.07-4.565-4.614-4.565zm0 7.356c-1.558 0-2.82-1.249-2.82-2.79 0-1.54 1.262-2.79 2.82-2.79 1.556 0 2.818 1.25 2.818 2.79 0 1.541-1.262 2.79-2.819 2.79zm4.622-6.227a1.1 1.1 0 0 0 1.105-1.094 1.1 1.1 0 0 0-1.105-1.094 1.1 1.1 0 0 0-1.105 1.094 1.1 1.1 0 0 0 1.105 1.094z" fill="#BEC7D1" style="mix-blend-mode:darken"/></svg>