<svg width="85" height="85" fill="none" xmlns="http://www.w3.org/2000/svg"><path stroke="#fff" stroke-width="2" d="M1 1h83v83H1z"/><g clip-path="url(#clip0)" fill="#fff"><path d="M32.55 45.399c.047.267.096.535.155.8l.385 1.731a5.097 5.097 0 0 0 1.709 0l.385-1.731c.058-.265.108-.533.154-.8a19.36 19.36 0 0 1-1.393.057c-.465 0-.931-.024-1.394-.057zm4.23-.16c-.065.424-.14.846-.23 1.264l-.21.954a5.621 5.621 0 0 0 2.66-2.66l-.956.21c-.417.095-.837.168-1.264.232zm-.443-7.889l.21.954c.094.42.166.84.23 1.264.424.064.847.14 1.265.23l.954.21a5.623 5.623 0 0 0-2.659-2.659zm.603 3.66c.067.928.067 1.86 0 2.787.268-.046.535-.095.8-.154l1.73-.385a5.05 5.05 0 0 0 0-1.71l-1.73-.384a17.327 17.327 0 0 0-.8-.154z"/><path d="M44.066 32.605H23.768V61.3a.7.7 0 0 0 .7.7h19.596a.7.7 0 0 0 .7-.7V33.305a.7.7 0 0 0-.7-.7zm-5.922 26.596h-8.399v-1.4h8.399v1.4zm1.4-2.8H28.346v-1.4h11.198v1.4zm-9.099-2.8v-1.4h1.4v1.4h-1.4zm2.8 0v-1.4h1.4v1.4h-1.4zm2.8 0v-1.4h1.399v1.4h-1.4zm-2.1-4.199a6.999 6.999 0 1 1 6.998-6.998 7.007 7.007 0 0 1-6.998 6.998z"/><path d="M28.89 40.01l.955-.21c.42-.092.84-.165 1.264-.23.063-.423.14-.845.23-1.263l.21-.955a5.625 5.625 0 0 0-2.659 2.659zm12.053-11.184a.7.7 0 0 0-.879-.677l-11.597 3.056h12.476v-2.38zm-5.605 10.582a17.18 17.18 0 0 0-.154-.8l-.385-1.731a5.082 5.082 0 0 0-1.709 0l-.385 1.73c-.06.266-.108.534-.154.801.928-.067 1.86-.067 2.787 0zm-4.229 5.831c-.424-.064-.846-.14-1.264-.23l-.955-.21a5.625 5.625 0 0 0 2.66 2.66l-.21-.955c-.094-.42-.168-.841-.231-1.265zm-.159-1.442a19.062 19.062 0 0 1 0-2.787c-.269.046-.536.095-.801.154l-1.731.385a5.107 5.107 0 0 0 0 1.709l1.73.385c.266.059.533.108.801.154zm1.417-2.97a17.744 17.744 0 0 0 0 3.153c1.05.094 2.105.094 3.154 0a17.662 17.662 0 0 0 0-3.153 17.669 17.669 0 0 0-3.154 0zm13.798 5.69l.83-.103a.7.7 0 0 1 .59.21l1.387 1.437.226-.639-.729-1.524a.7.7 0 0 1-.029-.535l3.398-9.626-.424-.892-.893.427-1.276 3.608-.727 2.054-1.4 3.958a.7.7 0 0 1-.358.398l-.595.29v.937z"/><path d="M48.17 23l-1.61 4.55-.256.727-1.145 3.243a2.093 2.093 0 0 1 1.006 1.785v4.353l2.31-.805.82-2.323a.7.7 0 0 1 .357-.399l1.786-.853a.7.7 0 0 1 .934.33l.854 1.785a.7.7 0 0 1 .028.535l-.82 2.323 2.19 3.519a.7.7 0 0 1 .066.603l-.7 1.98a.7.7 0 0 1-1.12.293l-2.057-1.804-.956 2.711.729 1.524c.08.168.09.36.029.535l-.7 1.98a.7.7 0 0 1-1.164.257l-1.93-2-.656.08v5.536l5.42 1.913 9.784-27.715L48.17 23zm.536 6.127l-1.2-.42.466-1.32 1.2.424-.466 1.316zm2.4.847l-1.2-.424.466-1.319 1.2.423-.466 1.32zm2.4.847l-1.2-.423.466-1.32 1.2.42-.466 1.323zm2.4.848l-1.202-.425.466-1.32 1.2.425-.465 1.32zm1.2.423l.466-1.32 1.2.424-.467 1.32-1.2-.424z"/><path d="M46.165 43.397l.689-1.952-.689.028v1.924zm6.851-.485l.243-.688-1.42-2.283-.523 1.48 1.7 1.491zm-5.137-4.369l-1.714.598v.931l1.19-.049.524-1.48z"/></g><defs><clipPath id="clip0"><path fill="#fff" transform="translate(23 23)" d="M0 0h39v39H0z"/></clipPath></defs></svg>