<svg width="85" height="85" fill="none" xmlns="http://www.w3.org/2000/svg"><path stroke="#fff" stroke-width="2" d="M1 1h83v83H1z"/><path d="M42.723 49.861c-.47.47-.47 1.245 0 1.715s1.244.47 1.715 0a1.22 1.22 0 0 0 0-1.715 1.204 1.204 0 0 0-1.715 0zm-6.005-4.936a1.218 1.218 0 0 0-1.715 0c-.47.47-.47 1.244 0 1.714s1.244.47 1.715 0a1.22 1.22 0 0 0 0-1.715z" fill="#fff"/><path d="M56.058 25.472c-.375-.909-1.523-2.44-5.017-2.472h-.111c-2.146 0-4.698.566-7.21 1.603-.463.191-.91.39-1.34.606l-.024-.024a3.703 3.703 0 0 0-5.16 0l-7.034 6.835a4.79 4.79 0 0 0-1.46 3.446v23.152A3.383 3.383 0 0 0 32.084 62h15.392a3.383 3.383 0 0 0 3.382-3.382V35.466c0-.662-.136-1.316-.399-1.907 1.492-.837 2.792-1.794 3.788-2.799 2.441-2.48 2.186-4.378 1.811-5.288zM32.929 45.786a2.934 2.934 0 0 1 2.927-2.927 2.934 2.934 0 0 1 2.927 2.927 2.934 2.934 0 0 1-2.927 2.927 2.934 2.934 0 0 1-2.927-2.927zm2.488 7.656a.718.718 0 0 1-.095-1.005l7.688-9.26a.718.718 0 0 1 1.005-.095.718.718 0 0 1 .096 1.005l-7.689 9.26a.718.718 0 0 1-1.005.095zm8.167.208a2.934 2.934 0 0 1-2.927-2.927 2.934 2.934 0 0 1 2.927-2.927 2.934 2.934 0 0 1 2.927 2.927 2.934 2.934 0 0 1-2.927 2.927zm3.246-21.502c-1.467.606-2.974 1.037-4.346 1.244 0 .064.008.12.008.183 0 1.548-1.252 2.8-2.8 2.8a2.798 2.798 0 0 1-2.8-2.8 2.798 2.798 0 0 1 5.05-1.666 19.72 19.72 0 0 0 4.083-1.197c.486-.2.941-.407 1.372-.622l-2.824-2.751c.08-.032.16-.064.24-.104 2.145-.885 4.37-1.388 6.125-1.388h.08c1.682.016 2.312.47 2.408.71.295.734-1.58 3.525-6.596 5.59z" fill="#fff"/></svg>