<svg width="19" height="19" fill="none" xmlns="http://www.w3.org/2000/svg"><path d="M0 18.078l1.278-4.492A8.918 8.918 0 0 1 .023 9.017C.023 4.045 4.111 0 9.136 0c5.024 0 9.112 4.045 9.112 9.017 0 4.973-4.088 9.018-9.112 9.018a9.176 9.176 0 0 1-4.455-1.15L0 18.078zm4.92-2.833l.28.168a7.611 7.611 0 0 0 3.936 1.092c4.172 0 7.566-3.359 7.566-7.488 0-4.128-3.394-7.487-7.566-7.487S1.569 4.889 1.569 9.017c0 1.439.413 2.836 1.195 4.04l.188.29-.736 2.587 2.704-.69z" fill="#BEC7D1" style="mix-blend-mode:darken"/><path d="M6.576 4.82l-.591-.031a.72.72 0 0 0-.508.172c-.287.246-.745.722-.886 1.343-.21.925.114 2.058.954 3.191s2.404 2.946 5.172 3.72c.891.25 1.593.082 2.134-.26a1.89 1.89 0 0 0 .83-1.2l.095-.436a.302.302 0 0 0-.171-.339l-1.999-.911a.308.308 0 0 0-.37.09l-.785 1.006a.226.226 0 0 1-.252.074c-.538-.186-2.337-.932-3.325-2.815a.223.223 0 0 1 .029-.25l.75-.858a.3.3 0 0 0 .05-.318L6.84 5.004a.306.306 0 0 0-.265-.183z" fill="#BEC7D1" style="mix-blend-mode:darken"/></svg>