<svg width="24" height="24" fill="none" xmlns="http://www.w3.org/2000/svg"><path d="M12 15a3 3 0 110-6 3 3 0 010 6z" fill="#fff"/><path opacity=".3" fill-rule="evenodd" clip-rule="evenodd" d="M10.5 3a1.5 1.5 0 013 0v1.5a1.5 1.5 0 01-3 0V3zm5.56 2.871a1.5 1.5 0 102.122 2.122l1.06-1.06a1.5 1.5 0 10-2.12-2.122L16.06 5.87zM19.5 10.5a1.5 1.5 0 000 3H21a1.5 1.5 0 000-3h-1.5zm-3.44 5.56a1.5 1.5 0 000 2.122l1.061 1.06a1.5 1.5 0 102.122-2.12l-1.061-1.061a1.5 1.5 0 00-2.121 0zM3 10.5a1.5 1.5 0 000 3h1.5a1.5 1.5 0 000-3H3zm9 7.5a1.5 1.5 0 00-1.5 1.5V21a1.5 1.5 0 003 0v-1.5A1.5 1.5 0 0012 18zM4.81 6.932a1.5 1.5 0 112.122-2.121l1.06 1.06a1.5 1.5 0 11-2.12 2.122L4.81 6.932zm0 12.31a1.5 1.5 0 010-2.12l1.061-1.061a1.5 1.5 0 112.122 2.121l-1.061 1.06a1.5 1.5 0 01-2.121 0z" fill="#fff"/></svg>