<svg width="40" height="40" fill="none" xmlns="http://www.w3.org/2000/svg"><circle cx="20" cy="20" r="19.5" stroke="#fff" stroke-opacity=".7"/><path d="M23.375 11h-6.75A5.626 5.626 0 0 0 11 16.625v6.75A5.626 5.626 0 0 0 16.625 29h6.75A5.626 5.626 0 0 0 29 23.375v-6.75A5.626 5.626 0 0 0 23.375 11zm3.938 12.375a3.942 3.942 0 0 1-3.938 3.938h-6.75a3.942 3.942 0 0 1-3.938-3.938v-6.75a3.942 3.942 0 0 1 3.938-3.938h6.75a3.942 3.942 0 0 1 3.938 3.938v6.75z" fill="#fff" fill-opacity=".7"/><path d="M20 15.5a4.5 4.5 0 1 0 0 9 4.5 4.5 0 0 0 0-9zm0 7.313A2.816 2.816 0 0 1 17.187 20 2.816 2.816 0 0 1 20 17.187 2.816 2.816 0 0 1 22.813 20 2.816 2.816 0 0 1 20 22.813zm4.837-7.051a.6.6 0 1 0 0-1.199.6.6 0 0 0 0 1.2z" fill="#fff" fill-opacity=".7"/></svg>