<svg width="40" height="40" fill="none" xmlns="http://www.w3.org/2000/svg"><circle cx="20" cy="20" r="19.5" stroke="#fff" stroke-opacity=".7"/><g clip-path="url(#clip0)" fill="#fff" fill-opacity=".7"><path d="M24.13 21.73l-.006.056c-1.65-.822-1.822-.931-2.035-.612-.148.222-.578.724-.708.872-.131.146-.262.157-.485.056-.225-.112-.947-.349-1.802-1.114-.666-.596-1.113-1.327-1.245-1.552-.22-.38.24-.433.659-1.226.075-.157.036-.28-.02-.393-.055-.112-.503-1.215-.69-1.654-.18-.438-.366-.383-.505-.383-.432-.037-.747-.031-1.026.258-1.21 1.331-.905 2.703.13 4.163 2.036 2.664 3.12 3.154 5.104 3.835a3.1 3.1 0 0 0 1.41.091c.43-.068 1.325-.54 1.512-1.07.191-.528.191-.967.135-1.068-.056-.101-.203-.158-.428-.259z"/><path d="M26.39 13.587c-5.767-5.575-15.31-1.532-15.314 6.333 0 1.572.412 3.105 1.196 4.458L11 29l4.751-1.239c5.929 3.203 13.246-1.05 13.249-7.837 0-2.382-.93-4.623-2.621-6.308l.011-.03zm1.111 6.313c-.004 5.724-6.288 9.3-11.259 6.378l-.27-.161-2.812.731.754-2.733-.18-.282c-3.092-4.923.461-11.358 6.32-11.358 1.99 0 3.859.776 5.266 2.182a7.34 7.34 0 0 1 2.181 5.242z"/></g><defs><clipPath id="clip0"><path fill="#fff" transform="translate(11 11)" d="M0 0h18v18H0z"/></clipPath></defs></svg>