<svg width="86" height="7" viewBox="0 0 86 7" fill="none" xmlns="http://www.w3.org/2000/svg">
<path d="M2.05242 1.01188C1.2371 1.01188 0.537229 1.28606 0.0826721 1.80555L0.537229 2.26011C0.934064 1.84884 1.43913 1.66125 2.01634 1.66125C2.96875 1.66125 3.69748 2.31783 3.84178 3.2558H1.40305V3.84745H3.849C3.74077 4.83593 2.99761 5.52859 2.01634 5.52859C1.43913 5.52859 0.934064 5.34821 0.537229 4.92973L0.0826721 5.38429C0.537229 5.91099 1.2371 6.17796 2.05242 6.17796C3.50989 6.17796 4.59216 5.08846 4.59216 3.59492C4.59216 2.10137 3.50989 1.01188 2.05242 1.01188Z" fill="white"/>
<path d="M11.645 3.48669C12.1429 3.2991 12.4459 2.90226 12.4459 2.38277C12.4459 1.50251 11.544 0.990234 10.4906 0.990234C9.94223 0.990234 9.3578 1.12732 8.83109 1.42315L9.06197 2.01479C9.50931 1.74061 10.0144 1.61074 10.4689 1.61074C11.1616 1.61074 11.7172 1.92099 11.7172 2.46935C11.7172 2.93834 11.3348 3.21973 10.6926 3.21973H9.61754V3.80416H10.7431C11.4863 3.80416 11.9264 4.07834 11.9264 4.59783C11.9264 5.21834 11.2698 5.55745 10.4978 5.55745C9.96387 5.55745 9.37944 5.3915 8.92488 5.03796L8.67235 5.57188C9.23514 5.99036 9.93501 6.17796 10.5844 6.17796C11.6811 6.17796 12.6551 5.63682 12.6551 4.70606C12.6551 4.1072 12.2727 3.65985 11.645 3.48669Z" fill="white"/>
<path d="M19.7376 6.17796C21.2744 6.17796 22.4144 5.08125 22.4144 3.59492C22.4144 2.10859 21.2744 1.01188 19.7376 1.01188C18.1863 1.01188 17.0463 2.1158 17.0463 3.59492C17.0463 5.07403 18.1863 6.17796 19.7376 6.17796ZM19.7376 5.5358C18.6048 5.5358 17.7678 4.71327 17.7678 3.59492C17.7678 2.47656 18.6048 1.65403 19.7376 1.65403C20.8559 1.65403 21.6929 2.47656 21.6929 3.59492C21.6929 4.71327 20.8559 5.5358 19.7376 5.5358Z" fill="white"/>
<path d="M30.5867 6.12023H31.4093L29.5189 3.51555L31.3227 1.0696H30.5507L28.9633 3.26302H27.8955V1.0696H27.1884V6.12023H27.8955V3.89796H28.9489L30.5867 6.12023Z" fill="white"/>
<path d="M38.0151 6.17796C39.5519 6.17796 40.6919 5.08125 40.6919 3.59492C40.6919 2.10859 39.5519 1.01188 38.0151 1.01188C36.4638 1.01188 35.3238 2.1158 35.3238 3.59492C35.3238 5.07403 36.4638 6.17796 38.0151 6.17796ZM38.0151 5.5358C36.8823 5.5358 36.0454 4.71327 36.0454 3.59492C36.0454 2.47656 36.8823 1.65403 38.0151 1.65403C39.1335 1.65403 39.9704 2.47656 39.9704 3.59492C39.9704 4.71327 39.1335 5.5358 38.0151 5.5358Z" fill="white"/>
<path d="M48.7027 1.0696L47.0216 4.27315L45.3837 1.0696H44.6117L46.6464 4.90087L46.5309 5.08125C46.3073 5.44201 46.0403 5.58631 45.7445 5.58631C45.593 5.58631 45.4342 5.55023 45.2683 5.49251L45.0807 6.06973C45.3116 6.17074 45.5425 6.22125 45.7589 6.22125C46.3073 6.22125 46.8123 5.91099 47.1731 5.23277L49.417 1.0696H48.7027Z" fill="white"/>
<path d="M56.9021 1.0696V3.47948C56.4403 3.68872 55.9569 3.79694 55.5024 3.79694C54.6726 3.79694 54.1892 3.37846 54.1892 2.62808V1.0696H53.4821V2.70745C53.4821 3.81137 54.1892 4.43188 55.423 4.43188C55.8775 4.43188 56.3826 4.32365 56.9021 4.12163V6.12023H57.6164V1.0696H56.9021Z" fill="white"/>
<path d="M62.7993 6.12023H63.4631L66.4574 2.23125V6.12023H67.1645V1.0696H66.5007L63.5136 4.9658V1.0696H62.7993V6.12023Z" fill="white"/>
<path d="M75.9687 1.0696V3.24137H73.0682V1.0696H72.3467V6.12023H73.0682V3.8691H75.9687V6.12023H76.6903V1.0696H75.9687Z" fill="white"/>
<path d="M85.1848 1.0696H81.873V6.12023H82.5873L82.5801 1.69732H85.1776L85.1848 1.0696Z" fill="white"/>
</svg>
