<svg width="173" height="15" viewBox="0 0 173 15" fill="none" xmlns="http://www.w3.org/2000/svg">
<path d="M7.52445 6.28225C8.60384 5.86954 9.25465 5.01238 9.25465 3.79012C9.25465 1.93293 7.7943 0.932908 5.38154 0.932908H0.603638V12.0443H5.68313C8.41336 12.0443 9.81022 10.9173 9.81022 9.01248C9.81022 7.568 9.01655 6.64734 7.52445 6.28225ZM2.17511 2.18691H5.27042C6.79427 2.18691 7.65144 2.82185 7.65144 4.01235C7.65144 5.20286 6.79427 5.82192 5.27042 5.82192H2.17511V2.18691ZM5.65139 10.7903H2.17511V7.0283H5.65139C7.31809 7.0283 8.20701 7.59975 8.20701 8.88549C8.20701 10.1871 7.31809 10.7903 5.65139 10.7903Z" fill="white"/>
<path d="M22.018 12.0443H23.6847L18.637 0.932908H17.0655L12.0336 12.0443H13.6686L14.8908 9.26645H20.7957L22.018 12.0443ZM15.4464 7.99658L17.8433 2.552L20.2402 7.99658H15.4464Z" fill="white"/>
<path d="M35.7127 10.6633V0.932908H27.9029L27.7918 4.50443C27.6807 7.88547 27.3156 10.5681 25.7918 10.6633H25.2521L25.2362 14.4729H26.7124L26.7283 12.0443H35.8714V14.4729H37.3476V10.6633H35.7127ZM29.1887 4.64729L29.2681 2.3139H34.1412V10.6633H27.8712C28.8236 9.80615 29.0935 7.36164 29.1887 4.64729Z" fill="white"/>
<path d="M40.6288 12.0443H42.0892L48.6767 3.48853V12.0443H50.2323V0.932908H48.7719L42.2003 9.50456V0.932908H40.6288V12.0443Z" fill="white"/>
<path d="M66.6333 12.0443L66.6175 0.932908H65.3158L60.7443 8.74263L56.1093 0.932908H54.8076V12.0443H56.3315V3.99648L60.3475 10.6951H61.0776L65.0936 3.94886L65.1095 12.0443H66.6333Z" fill="white"/>
<path d="M76.5772 12.0443H81.3392C84.117 12.0443 85.6568 10.8379 85.6568 8.66326C85.6568 6.58385 84.2599 5.45683 81.609 5.45683H78.1486V2.28215H84.9583V0.932908H76.5772V12.0443ZM78.1486 10.7903V6.71083H81.2757C83.1329 6.71083 84.0694 7.36164 84.0694 8.72676C84.0694 10.076 83.1011 10.7903 81.2757 10.7903H78.1486Z" fill="white"/>
<path d="M90.8862 10.6633V7.07592H96.4578V5.72668H90.8862V2.3139H97.1403V0.932908H89.2988V12.0443H97.3625V10.6633H90.8862Z" fill="white"/>
<path d="M106.284 6.2505C107.379 5.8378 108.046 4.96476 108.046 3.82187C108.046 1.88531 106.062 0.758301 103.744 0.758301C102.538 0.758301 101.252 1.0599 100.093 1.71071L100.601 3.01233C101.586 2.40914 102.697 2.12342 103.697 2.12342C105.221 2.12342 106.443 2.80597 106.443 4.01235C106.443 5.04412 105.601 5.66319 104.189 5.66319H101.824V6.94893H104.3C105.935 6.94893 106.903 7.55212 106.903 8.69501C106.903 10.0601 105.459 10.8062 103.76 10.8062C102.586 10.8062 101.3 10.4411 100.3 9.66329L99.7442 10.8379C100.982 11.7586 102.522 12.1713 103.951 12.1713C106.363 12.1713 108.506 10.9808 108.506 8.93311C108.506 7.61562 107.665 6.63147 106.284 6.2505Z" fill="white"/>
<path d="M121.215 10.6633V0.932908H113.405L113.294 4.50443C113.183 7.88547 112.818 10.5681 111.294 10.6633H110.754L110.738 14.4729H112.214L112.23 12.0443H121.373V14.4729H122.85V10.6633H121.215ZM114.691 4.64729L114.77 2.3139H119.643V10.6633H113.373C114.326 9.80615 114.595 7.36164 114.691 4.64729Z" fill="white"/>
<path d="M127.718 10.6633V7.07592H133.29V5.72668H127.718V2.3139H133.972V0.932908H126.131V12.0443H134.194V10.6633H127.718Z" fill="white"/>
<path d="M139.052 0.932908L138.878 5.61557C138.751 9.0601 138.275 10.6951 136.894 10.6951C136.719 10.6951 136.576 10.6792 136.386 10.6316L136.274 12.0443C136.655 12.1395 136.957 12.1713 137.275 12.1713C139.465 12.1713 140.148 9.98076 140.29 5.56795L140.402 2.3139H145.322V12.0443H146.878V0.932908H139.052Z" fill="white"/>
<path d="M153.037 10.6633V7.07592H158.609V5.72668H153.037V2.3139H159.292V0.932908H151.45V12.0443H159.514V10.6633H153.037Z" fill="white"/>
<path d="M170.038 6.28225C171.118 5.86954 171.769 5.01238 171.769 3.79012C171.769 1.93293 170.308 0.932908 167.896 0.932908H163.118V12.0443H168.197C170.927 12.0443 172.324 10.9173 172.324 9.01248C172.324 7.568 171.531 6.64734 170.038 6.28225ZM164.689 2.18691H167.784C169.308 2.18691 170.165 2.82185 170.165 4.01235C170.165 5.20286 169.308 5.82192 167.784 5.82192H164.689V2.18691ZM168.165 10.7903H164.689V7.0283H168.165C169.832 7.0283 170.721 7.59975 170.721 8.88549C170.721 10.1871 169.832 10.7903 168.165 10.7903Z" fill="white"/>
</svg>
