<svg width="58" height="58" viewBox="0 0 58 58" fill="none" xmlns="http://www.w3.org/2000/svg">
<path d="M40.3199 53.2614C40.2953 53.286 40.2706 53.286 40.246 53.3106C40.2213 53.3106 40.1967 53.3352 40.172 53.3352C40.246 53.286 40.2953 53.2614 40.3199 53.2614ZM16.2652 9.68836C16.3391 9.6146 16.413 9.56541 16.487 9.49165C16.9799 9.27034 17.4728 9.07362 17.9658 8.90149C19.1241 8.53265 20.3071 8.31134 21.5148 8.23757C23.8809 8.11462 26.1976 8.631 28.1447 9.68836C30.2642 10.8441 31.7923 12.6145 32.6303 14.7047C34.3309 19.7948 31.4719 25.4258 26.1483 28.1061L26.173 28.1553C30.4368 27.3438 34.6266 28.0815 37.9539 30.0241C34.3309 36.7125 30.1903 44.3353 28.9087 46.7205C27.4792 42.6632 16.3391 9.90967 16.2652 9.68836ZM15.5997 50.8516C5.98767 44.7779 1.00912 33.024 3.35052 21.9095C4.48425 16.5735 7.19533 11.631 11.0894 7.84413C11.3852 8.72936 11.9028 10.2539 12.5682 12.2211C11.6563 13.1063 10.8923 14.0653 10.2761 15.2211C8.96987 17.7292 8.74805 20.5079 9.56138 23.016C9.53673 22.9668 10.9909 22.1554 11.1141 22.0816C11.2373 22.0078 12.6668 21.1964 12.6422 21.1226C11.8781 18.762 12.0753 16.2046 13.1104 13.8932C17.251 26.0897 25.5568 50.4336 26.0497 51.909L30.0424 50.5565L40.172 31.77C41.7987 33.2208 43.0556 35.065 43.795 37.2043C46.0132 43.696 42.267 51.7614 35.8836 54.1712C34.2569 54.7122 32.3099 55.1302 31.0776 55.1794C30.6586 55.204 30.2396 55.204 29.8206 55.204C24.8421 55.1548 19.8635 53.5319 15.5997 50.8516ZM14.6878 5.06549C15.2793 4.74582 15.8708 4.45075 16.487 4.18026C16.9306 3.98354 17.3989 3.81141 17.8672 3.61469C30.5353 -0.836052 45.1506 7.9179 49.8827 21.8111C52.4952 29.5077 52.0515 37.3764 48.7736 43.7944C49.6855 41.0895 49.7841 38.1879 48.8229 35.4092C47.6892 32.0896 45.2985 29.5323 42.2177 27.934C44.1154 24.393 45.471 21.8849 45.471 21.8849L43.9922 18.7866C43.9922 18.7866 42.0698 22.3029 39.6052 26.9012C36.7216 26.016 33.4683 25.893 30.1903 26.6799C35.3414 23.9258 38.0525 18.3685 36.3519 13.3768C34.9717 9.29493 31.0283 6.713 26.4934 6.41793C25.7047 6.34416 24.8667 6.31957 24.0287 6.39334C21.0219 6.66382 18.6312 7.96708 16.1419 9.51624C15.6983 8.01626 15.2054 6.56546 14.6878 5.06549ZM30.0424 0C27.0849 0.0491795 24.1273 0.565564 21.3176 1.52456C18.1136 2.6311 15.3779 3.90977 12.5929 5.80318C7.86078 9.02444 4.04061 13.9178 1.92103 19.2538C-2.49065 30.2946 0.885891 43.278 10.1036 50.7778C14.5153 54.368 20.0114 56.5564 25.68 56.9499C31.5705 57.3679 37.4856 55.8187 42.4641 52.6713C45.2492 50.9254 48.0096 49.0566 50.3017 46.6714C52.2734 44.6304 53.9 42.2944 55.157 39.737C57.6955 34.5978 58.5828 28.6962 57.6216 23.0406C57.3751 21.5652 57.0054 20.1144 56.5125 18.6882C54.5901 13.1309 50.9671 8.28675 46.1364 4.94254C41.5522 1.74587 36.0068 0 30.3875 0C30.2642 0 30.141 0 30.0424 0Z" fill="white"/>
</svg>
