<svg width="631" height="503" viewBox="0 0 631 503" fill="none" xmlns="http://www.w3.org/2000/svg">
<path opacity="0.03" d="M438.653 549.899C438.385 550.168 438.117 550.168 437.848 550.437C437.58 550.437 437.312 550.706 437.044 550.706C437.848 550.168 438.385 549.899 438.653 549.899ZM176.954 73.0306C177.758 72.2232 178.563 71.685 179.367 70.8776C184.73 68.4556 190.092 66.3027 195.455 64.4189C208.057 60.3822 220.928 57.9602 234.066 57.1529C259.807 55.8073 285.012 61.4587 306.194 73.0306C329.254 85.6789 345.878 105.055 354.995 127.93C373.496 183.636 342.393 245.263 284.476 274.596L284.744 275.134C331.131 266.254 376.714 274.327 412.912 295.587C373.496 368.786 328.45 452.211 314.507 478.315C298.955 433.911 177.758 75.4526 176.954 73.0306ZM169.714 523.526C65.1417 457.055 10.9786 328.419 36.4513 206.78C48.7855 148.382 78.2803 94.2905 120.646 52.8471C123.863 62.5351 129.494 79.2202 136.734 100.749C126.813 110.437 118.5 120.933 111.797 133.581C97.586 161.031 95.1727 191.44 104.021 218.89C103.753 218.352 119.573 209.471 120.914 208.664C122.254 207.856 137.806 198.975 137.538 198.168C129.226 172.333 131.371 144.346 142.633 119.049C187.679 252.529 278.04 518.951 283.403 535.098L326.841 520.297L437.044 314.694C454.741 330.572 468.416 350.755 476.46 374.168C500.592 445.214 459.836 533.483 390.389 559.856C372.692 565.777 351.509 570.352 338.102 570.89C333.544 571.159 328.986 571.159 324.428 571.159C270.264 570.621 216.101 552.859 169.714 523.526ZM159.793 22.4373C166.228 18.9388 172.664 15.7095 179.367 12.7492C184.193 10.5963 189.288 8.71253 194.382 6.55962C332.204 -42.1498 491.207 53.6544 542.689 205.703C571.111 289.936 566.285 376.052 530.623 446.29C540.544 416.688 541.616 384.933 531.159 354.523C518.825 318.193 492.816 290.205 459.299 272.712C479.946 233.96 494.693 206.511 494.693 206.511L478.605 172.602C478.605 172.602 457.69 211.086 430.877 261.41C399.505 251.722 364.112 250.376 328.45 258.988C384.49 228.847 413.984 168.027 395.483 113.398C380.468 68.7247 337.566 40.4679 288.229 37.2385C279.649 36.4312 270.533 36.1621 261.416 36.9694C228.704 39.9296 202.695 54.1926 175.613 71.1468C170.787 54.7309 165.424 38.8532 159.793 22.4373ZM326.841 -33C294.665 -32.4618 262.489 -26.8104 231.921 -16.315C197.064 -4.2049 167.301 9.78898 137.002 30.5107C85.5199 65.7645 43.9591 119.318 20.8995 177.716C-27.0965 298.547 9.63788 440.639 109.92 522.719C157.916 562.009 217.71 585.96 279.381 590.266C343.465 594.841 407.817 577.887 461.981 543.44C492.28 524.333 522.311 503.881 547.247 477.777C568.698 455.44 586.395 429.875 600.07 401.887C627.688 345.642 637.34 281.055 626.883 219.159C624.202 203.012 620.18 187.135 614.817 171.526C593.903 110.706 554.487 57.6911 501.933 21.0917C452.06 -13.893 391.729 -33 330.595 -33C329.254 -33 327.913 -33 326.841 -33Z" fill="#36DFFC"/>
</svg>
