<svg width="56" height="44" viewBox="0 0 56 44" fill="none" xmlns="http://www.w3.org/2000/svg">
<path d="M28.0903 43.2259C27.9097 43.2259 27.6387 43.1355 27.5484 42.9549L0.180638 13.9613C-0.0903301 13.6904 -0.0903301 13.3291 0.0903151 13.0581L7.13548 0.683922C7.31612 0.503277 7.58709 0.322632 7.85806 0.322632H11.5613C12.0129 0.322632 12.2839 0.683922 12.2839 1.04521C12.2839 1.49683 11.9226 1.76779 11.5613 1.76779H8.30967L1.71612 13.3291L28.0903 41.3291L54.2839 13.3291L46.9677 1.85812H18.8774C18.4258 1.85812 18.1548 1.49683 18.1548 1.13554C18.0645 0.683922 18.4258 0.322632 18.8774 0.322632H47.4193C47.6903 0.322632 47.9613 0.412954 48.0516 0.683922L55.9097 12.9678C56.0903 13.2388 56.0903 13.6904 55.8193 13.871L28.7226 42.8646C28.5419 43.1355 28.3613 43.2259 28.0903 43.2259Z" fill="url(#paint0_linear)"/>
<path d="M0.722573 14.142C0.361283 14.142 0.0903151 13.871 -7.51019e-06 13.5097C-0.0903301 13.0581 0.180638 12.6968 0.541928 12.6065L33.2387 5.20005C33.6903 5.10973 34.0516 5.3807 34.1419 5.74199C34.2323 6.1936 33.9613 6.55489 33.6 6.64521L0.903218 14.142C0.903218 14.142 0.812896 14.142 0.722573 14.142Z" fill="url(#paint1_linear)"/>
<path d="M55.2774 14.142C55.1871 14.142 55.0968 14.142 55.0065 14.142L18.6064 1.85812C18.2452 1.76779 17.9742 1.31618 18.1548 0.864567C18.2452 0.503277 18.6968 0.232309 19.1484 0.412954L55.5484 12.6968C55.9097 12.7871 56.1806 13.2388 56 13.6904C55.8194 13.9613 55.5484 14.142 55.2774 14.142Z" fill="url(#paint2_linear)"/>
<defs>
<linearGradient id="paint0_linear" x1="-0.0355835" y1="0.322632" x2="56.0575" y2="0.322632" gradientUnits="userSpaceOnUse">
<stop stop-color="#F1D374"/>
<stop offset="1" stop-color="#A77B22"/>
</linearGradient>
<linearGradient id="paint1_linear" x1="-0.0355835" y1="0.322632" x2="56.0575" y2="0.322632" gradientUnits="userSpaceOnUse">
<stop stop-color="#F1D374"/>
<stop offset="1" stop-color="#A77B22"/>
</linearGradient>
<linearGradient id="paint2_linear" x1="-0.0355835" y1="0.322632" x2="56.0575" y2="0.322632" gradientUnits="userSpaceOnUse">
<stop stop-color="#F1D374"/>
<stop offset="1" stop-color="#A77B22"/>
</linearGradient>
</defs>
</svg>
