<svg width="44" height="56" viewBox="0 0 44 56" fill="none" xmlns="http://www.w3.org/2000/svg">
<path d="M22.3245 42.118C22.1673 42.118 22.0102 42.0656 21.853 41.9084L14.8857 34.8888C14.781 34.784 14.6762 34.5745 14.6762 34.4173C14.6762 34.2601 14.7286 34.103 14.8857 33.9458L18.5003 30.3312C18.7623 30.0693 19.1813 30.0693 19.4433 30.3312C19.7052 30.5932 19.7052 31.0122 19.4433 31.2742L16.3001 34.4173L22.3245 40.5464L41.8118 21.059L22.3245 1.57165L2.83709 21.059L8.49472 26.7166C8.75665 26.9786 8.75665 27.3977 8.49472 27.6596C8.23279 27.9215 7.81371 27.9215 7.55178 27.6596L1.47507 21.5305C1.3703 21.4257 1.26553 21.2162 1.26553 21.059C1.26553 20.9019 1.31791 20.7447 1.47507 20.5876L21.853 0.209629C22.1149 -0.0522982 22.534 -0.0522982 22.7959 0.209629L43.1739 20.5876C43.2786 20.6923 43.3834 20.9019 43.3834 21.059C43.3834 21.2162 43.331 21.3733 43.1739 21.5305L22.7959 41.9084C22.6912 42.0656 22.4816 42.118 22.3245 42.118Z" fill="url(#paint0_linear)"/>
<path d="M21.3815 56.0001C21.2244 56.0001 21.0672 55.9477 20.9101 55.7906L0.532139 35.4126C0.270212 35.1507 0.270212 34.7316 0.532139 34.4697L20.9101 14.0918C21.172 13.8298 21.5911 13.8298 21.853 14.0918L28.8727 21.1114C29.1346 21.3733 29.1346 21.7924 28.8727 22.0543L25.52 25.407C25.2581 25.6689 24.839 25.6689 24.577 25.407C24.3151 25.1451 24.3151 24.726 24.577 24.4641L27.4582 21.5829L21.3815 15.4538L1.89416 34.9412L21.3815 54.4285L40.8689 34.9412L35.2113 29.3359C34.9494 29.074 34.9494 28.6549 35.2113 28.393C35.4732 28.1311 35.8923 28.1311 36.1542 28.393L42.2309 34.4697C42.3357 34.5745 42.4405 34.784 42.4405 34.9412C42.4405 35.0983 42.3881 35.2555 42.2309 35.4126L21.853 55.7906C21.6958 55.9477 21.5387 56.0001 21.3815 56.0001Z" fill="url(#paint1_linear)"/>
<defs>
<linearGradient id="paint0_linear" x1="0.335693" y1="0.0131836" x2="43.3834" y2="0.0131836" gradientUnits="userSpaceOnUse">
<stop stop-color="#C2912E"/>
<stop offset="1" stop-color="#F7DD8C"/>
</linearGradient>
<linearGradient id="paint1_linear" x1="0.335693" y1="0.0131836" x2="43.3834" y2="0.0131836" gradientUnits="userSpaceOnUse">
<stop stop-color="#C2912E"/>
<stop offset="1" stop-color="#F7DD8C"/>
</linearGradient>
</defs>
</svg>
