<svg width="56" height="33" viewBox="0 0 56 33" fill="none" xmlns="http://www.w3.org/2000/svg">
<path d="M52.8114 32.1825H3.18861C2.72361 32.1825 2.32503 31.7839 2.32503 31.3189C2.32503 30.8539 2.72361 30.4553 3.18861 30.4553H52.0807L54.2064 3.01999L38.5955 12.1873C38.1969 12.3865 37.6655 12.2537 37.4662 11.8551C37.2669 11.4565 37.3998 10.9251 37.7983 10.7258L54.7378 0.894252C55.0036 0.761393 55.3357 0.761393 55.6014 0.894252C55.8671 1.02711 56 1.35926 56 1.6914L53.675 31.4518C53.6085 31.8504 53.21 32.1825 52.8114 32.1825Z" fill="url(#paint0_linear)"/>
<path d="M52.8114 32.1825H3.18861C2.72361 32.1825 2.39146 31.8504 2.39146 31.3854L0 1.6914C0 1.35926 0.132859 1.09354 0.398577 0.894252C0.664294 0.761393 0.996441 0.694964 1.26216 0.894252L33.6797 19.6273C34.0783 19.8266 34.2112 20.3581 34.0119 20.7566C33.8126 21.1552 33.2811 21.2881 32.8826 21.0888L1.79359 3.15285L3.91934 30.5218H52.8114C53.2764 30.5218 53.675 30.9203 53.675 31.3854C53.6085 31.8504 53.2764 32.1825 52.8114 32.1825Z" fill="url(#paint1_linear)"/>
<path d="M37.9312 12.2537C37.7319 12.2537 37.5326 12.1873 37.3333 11.988L27.9668 2.62142L18.6002 12.0544C18.2681 12.3865 17.7367 12.3865 17.4045 12.0544C17.0724 11.7222 17.0724 11.1908 17.4045 10.8587L27.3689 0.894252C27.7011 0.562105 28.2325 0.562105 28.5646 0.894252L38.5291 10.8587C38.8612 11.1908 38.8612 11.7222 38.5291 12.0544C38.3962 12.1873 38.1969 12.2537 37.9312 12.2537Z" fill="url(#paint2_linear)"/>
<defs>
<linearGradient id="paint0_linear" x1="0" y1="0.645142" x2="56" y2="0.645142" gradientUnits="userSpaceOnUse">
<stop stop-color="#C2912E"/>
<stop offset="1" stop-color="#F7DD8C"/>
</linearGradient>
<linearGradient id="paint1_linear" x1="0" y1="0.645142" x2="56" y2="0.645142" gradientUnits="userSpaceOnUse">
<stop stop-color="#C2912E"/>
<stop offset="1" stop-color="#F7DD8C"/>
</linearGradient>
<linearGradient id="paint2_linear" x1="0" y1="0.645142" x2="56" y2="0.645142" gradientUnits="userSpaceOnUse">
<stop stop-color="#C2912E"/>
<stop offset="1" stop-color="#F7DD8C"/>
</linearGradient>
</defs>
</svg>
