<svg width="56" height="40" viewBox="0 0 56 40" fill="none" xmlns="http://www.w3.org/2000/svg">
<path d="M28.084 18.2177C27.8602 18.2177 27.6923 18.1054 27.5245 17.937L21.6504 10.5836C21.4266 10.303 21.4826 9.85391 21.7623 9.57325C22.042 9.34872 22.4895 9.40485 22.7693 9.68551L28.1399 16.3653L33.3427 9.91004C33.5665 9.62938 34.014 9.57325 34.3497 9.79778C34.6294 10.0223 34.6854 10.4714 34.4616 10.8082L28.6434 17.937C28.4756 18.1054 28.3077 18.2177 28.084 18.2177Z" fill="url(#paint0_linear)"/>
<path d="M55.3287 39.8849H28.028C27.6364 39.8849 27.3007 39.5481 27.3007 39.1551C27.3007 38.7622 27.6364 38.4254 28.028 38.4254H53.9861L28.028 1.93919L2.06996 38.4254H12.4196C12.8112 38.4254 13.1469 38.7622 13.1469 39.1551C13.1469 39.5481 12.8112 39.8849 12.4196 39.8849H0.671361C0.39164 39.8849 0.167864 39.7165 0.055976 39.4919C-0.0559122 39.2674 -0.0559122 38.9867 0.11192 38.7622L27.4126 0.423603C27.6923 0.0306741 28.3077 0.0306741 28.5315 0.423603L55.8322 38.8184C56 39.0429 56 39.3235 55.8881 39.5481C55.8322 39.7726 55.5525 39.8849 55.3287 39.8849Z" fill="url(#paint1_linear)"/>
<defs>
<linearGradient id="paint0_linear" x1="-0.0220032" y1="0.128906" x2="55.9661" y2="0.128906" gradientUnits="userSpaceOnUse">
<stop stop-color="#F1D374"/>
<stop offset="1" stop-color="#A77B22"/>
</linearGradient>
<linearGradient id="paint1_linear" x1="-0.0220032" y1="0.128906" x2="55.9661" y2="0.128906" gradientUnits="userSpaceOnUse">
<stop stop-color="#F1D374"/>
<stop offset="1" stop-color="#A77B22"/>
</linearGradient>
</defs>
</svg>
