<svg width="56" height="56" viewBox="0 0 56 56" fill="none" xmlns="http://www.w3.org/2000/svg">
<path d="M28 56C20.5243 56 13.4563 53.0777 8.2233 47.7767C2.92233 42.5437 0 35.4757 0 28C0 20.5243 2.92233 13.4563 8.2233 8.2233C13.5243 2.92233 20.5243 0 28 0C35.4757 0 42.5437 2.92233 47.7767 8.2233C53.0777 13.5243 56 20.5243 56 28C56 35.4757 53.0777 42.5437 47.7767 47.7767C42.5437 53.0777 35.4757 56 28 56ZM28 1.69903C21.2718 1.69903 14.5437 4.28155 9.37864 9.37864C-0.883495 19.6408 -0.883495 36.3592 9.37864 46.5534C19.6408 56.8155 36.3592 56.8155 46.5534 46.5534C56.8155 36.2913 56.8155 19.5728 46.5534 9.37864C41.4563 4.28155 34.7282 1.69903 28 1.69903Z" fill="url(#paint0_linear)"/>
<path d="M29.2913 56.068C24.0583 56.068 19.1651 54.1651 15.2913 50.5631C11.2136 46.8252 8.90292 41.7282 8.63107 36.2233C8.42719 30.7185 10.3301 25.4175 14.068 21.4078C14.2718 21.2039 14.4757 20.932 14.7476 20.7282C15.0874 20.3884 15.6311 20.3884 15.9709 20.7282C16.3107 21.068 16.3107 21.6117 15.9709 21.9515C15.767 22.1553 15.5631 22.3592 15.3592 22.5631C11.8932 26.301 10.1262 31.1262 10.3301 36.2233C10.534 41.2524 12.7087 45.9418 16.4466 49.4078C20.1845 52.8738 25.0097 54.6408 30.0388 54.4369C35.068 54.233 39.7573 52.0583 43.2233 48.3204C46.6893 44.5825 48.4563 39.7573 48.2524 34.7282C48.0485 29.699 45.8738 25.0097 42.1359 21.5437C39.0097 18.6893 35.1359 16.9903 30.9223 16.5825C30.4466 16.5146 30.1068 16.1068 30.1748 15.6311C30.2427 15.1554 30.6505 14.8155 31.1262 14.8835C35.7476 15.2913 39.9612 17.1262 43.3592 20.2524C47.4369 23.9903 49.7476 29.0874 50.0194 34.5922C50.2233 40.0971 48.3204 45.3981 44.5825 49.4078C40.8447 53.4854 35.7476 55.7961 30.2427 56.068C29.8349 56 29.5631 56.068 29.2913 56.068Z" fill="url(#paint1_linear)"/>
<defs>
<linearGradient id="paint0_linear" x1="0" y1="0" x2="56" y2="0" gradientUnits="userSpaceOnUse">
<stop stop-color="#C2912E"/>
<stop offset="1" stop-color="#F7DD8C"/>
</linearGradient>
<linearGradient id="paint1_linear" x1="0" y1="0" x2="56" y2="0" gradientUnits="userSpaceOnUse">
<stop stop-color="#C2912E"/>
<stop offset="1" stop-color="#F7DD8C"/>
</linearGradient>
</defs>
</svg>
