<svg width="56" height="41" viewBox="0 0 56 41" fill="none" xmlns="http://www.w3.org/2000/svg">
<path d="M55.2705 40.2799L37.938 39.9881C37.5294 39.9881 37.2376 39.6379 37.2376 39.2294C37.2376 38.8209 37.5878 38.5291 37.9963 38.5291L54.1033 38.7626L35.4285 2.46338L23.1732 25.982L30.4097 38.8209C30.5264 39.0543 30.5264 39.3461 30.4097 39.5796C30.2929 39.813 30.0012 39.9297 29.7677 39.9297L15.5865 39.7547C15.3531 39.7547 15.1197 39.6379 14.9446 39.4045C14.8279 39.1711 14.8279 38.9376 14.9446 38.7042L21.5391 26.0403L15.5865 15.419L1.34698 39.1711C1.11355 39.5212 0.705035 39.6379 0.354882 39.4045C0.0047292 39.1711 -0.111988 38.7626 0.121447 38.4124L15.0029 13.6099C15.1197 13.3765 15.3531 13.2598 15.6449 13.2598C15.8783 13.2598 16.1701 13.3765 16.2868 13.6099L22.3561 24.4063L34.8449 0.479181C34.9617 0.304105 35.1951 0.129028 35.4285 0.129028C35.7203 0.129028 35.9538 0.304105 36.0705 0.53754L55.9125 39.2294C56.0292 39.4629 56.0292 39.7546 55.9125 39.9297C55.7374 40.1048 55.5039 40.2799 55.2705 40.2799ZM16.8121 38.2373L28.5422 38.4124L22.4145 27.4993L16.8121 38.2373Z" fill="url(#paint0_linear)"/>
<defs>
<linearGradient id="paint0_linear" x1="0" y1="0.129028" x2="56" y2="0.129028" gradientUnits="userSpaceOnUse">
<stop stop-color="#F1D374"/>
<stop offset="1" stop-color="#A77B22"/>
</linearGradient>
</defs>
</svg>
