<svg width="56" height="56" viewBox="0 0 56 56" fill="none" xmlns="http://www.w3.org/2000/svg">
<path d="M28.0759 55.8482C20.8672 55.8482 13.6585 53.1165 8.19513 47.6531C-1.36584 38.0921 -2.80758 23.0677 4.85638 11.9892C5.1599 11.5339 5.76695 11.458 6.14635 11.7615C6.60164 12.065 6.67752 12.6721 6.37399 13.0515C-0.682916 23.3713 0.682939 37.4092 9.56099 46.2873C19.729 56.4553 36.3469 56.5312 46.439 46.3631C56.6071 36.1951 56.5312 19.6531 46.3631 9.48509C42.1897 5.31165 36.8022 2.65583 30.9594 1.9729V30.4282C30.9594 30.9593 30.5041 31.4146 29.9729 31.4146H12.0651C11.5339 31.4146 11.0786 30.9593 11.0786 30.4282C11.0786 29.897 11.5339 29.4417 12.0651 29.4417H29.1382V0.98645C29.1382 0.758807 29.2141 0.455285 29.4417 0.303523C29.5935 0.0758807 29.897 0 30.1247 0C36.7263 0.531165 43.0244 3.41463 47.729 8.11924C58.7317 19.1219 58.7317 36.878 47.8049 47.729C42.4174 53.1924 35.2846 55.8482 28.0759 55.8482Z" fill="url(#paint0_linear)"/>
<defs>
<linearGradient id="paint0_linear" x1="-0.0576477" y1="0" x2="55.9905" y2="0" gradientUnits="userSpaceOnUse">
<stop stop-color="#C2912E"/>
<stop offset="1" stop-color="#F7DD8C"/>
</linearGradient>
</defs>
</svg>
