<svg width="64" height="64" viewBox="0 0 64 64" fill="none" xmlns="http://www.w3.org/2000/svg"><rect width="64" height="64" rx="15" fill="#0CF"/><path d="M39.499 17.006L35.609 17c-4.371 0-7.196 2.898-7.196 7.383v3.404h-3.911a.612.612 0 0 0-.612.612v4.932c0 .338.274.612.612.612h3.911v12.445c0 .338.274.612.612.612h5.104a.612.612 0 0 0 .611-.612V33.943h4.574a.611.611 0 0 0 .611-.612l.002-4.932a.612.612 0 0 0-.612-.612H34.74v-2.886c0-1.386.33-2.09 2.137-2.09l2.621-.002a.612.612 0 0 0 .611-.611v-4.58a.612.612 0 0 0-.61-.612z" fill="#fff"/></svg>