<svg width="64" height="64" viewBox="0 0 64 64" fill="none" xmlns="http://www.w3.org/2000/svg"><rect width="64" height="64" rx="15" fill="#0CF"/><g clip-path="url(#a)"><path d="M48.82 39.82a2.356 2.356 0 0 0-.115-.221c-.59-1.063-1.718-2.367-3.382-3.913l-.035-.035-.017-.018-.018-.018h-.018c-.755-.72-1.233-1.204-1.434-1.451-.366-.473-.448-.95-.248-1.434.142-.366.673-1.139 1.593-2.32.484-.625.868-1.126 1.15-1.504 2.043-2.714 2.928-4.449 2.656-5.204l-.105-.177c-.071-.106-.254-.203-.549-.292-.295-.089-.673-.103-1.133-.044l-5.098.035c-.083-.03-.2-.027-.354.009l-.23.053-.09.044-.07.054a.786.786 0 0 0-.194.186c-.071.088-.13.191-.177.31a28.896 28.896 0 0 1-1.895 3.982 37.693 37.693 0 0 1-1.204 1.903c-.365.537-.672.933-.92 1.186a6.422 6.422 0 0 1-.673.61c-.2.154-.353.22-.46.196a13.086 13.086 0 0 1-.3-.071 1.176 1.176 0 0 1-.399-.434 1.941 1.941 0 0 1-.204-.69 7.634 7.634 0 0 1-.062-.717c-.005-.2-.003-.484.01-.85.012-.366.017-.614.017-.744 0-.448.009-.935.026-1.46l.045-1.248c.012-.307.017-.631.017-.974 0-.342-.02-.61-.062-.805a2.755 2.755 0 0 0-.185-.567.954.954 0 0 0-.363-.425c-.16-.1-.357-.18-.593-.239-.625-.141-1.422-.218-2.39-.23-2.195-.023-3.605.119-4.23.425-.248.13-.473.307-.673.531-.213.26-.242.402-.089.425.708.106 1.21.36 1.505.761l.106.213c.083.153.165.425.248.814.082.39.136.82.16 1.292.058.862.058 1.6 0 2.213-.06.614-.116 1.091-.17 1.434-.052.342-.132.62-.238.832a3.51 3.51 0 0 1-.213.39.302.302 0 0 1-.088.088 1.325 1.325 0 0 1-.478.088c-.165 0-.366-.082-.602-.248a4.243 4.243 0 0 1-.734-.681c-.254-.29-.54-.694-.86-1.213a21.141 21.141 0 0 1-.99-1.84l-.284-.514c-.177-.33-.418-.812-.725-1.443a27.82 27.82 0 0 1-.815-1.832 1.167 1.167 0 0 0-.424-.567l-.089-.053a1.212 1.212 0 0 0-.283-.15 1.881 1.881 0 0 0-.407-.115l-4.85.035c-.497 0-.833.112-1.01.336l-.07.106a.573.573 0 0 0-.054.284c0 .13.035.289.106.478a58.428 58.428 0 0 0 2.31 4.815c.832 1.546 1.555 2.791 2.169 3.735a44.06 44.06 0 0 0 1.876 2.673c.638.838 1.06 1.375 1.266 1.61.206.237.369.414.487.532l.443.425c.283.283.699.622 1.247 1.017.55.396 1.157.785 1.824 1.17.667.382 1.443.695 2.328.937a8.05 8.05 0 0 0 2.584.292h2.036c.413-.035.726-.165.938-.39l.07-.088c.048-.07.093-.18.134-.327.04-.148.062-.31.062-.487a5.832 5.832 0 0 1 .114-1.372c.089-.407.19-.713.302-.92.112-.207.239-.38.38-.522.142-.142.242-.227.301-.257.06-.03.106-.05.142-.062.283-.094.616-.003 1 .275.384.277.743.62 1.08 1.027.337.407.74.864 1.213 1.371.472.508.885.885 1.239 1.133l.354.213c.236.142.543.271.92.39.378.117.708.147.992.088l4.531-.07c.449 0 .797-.075 1.045-.222.247-.148.395-.31.442-.487.048-.177.05-.378.01-.602a2.228 2.228 0 0 0-.125-.47z" fill="#fff"/></g><defs><clipPath id="a"><path fill="#fff" transform="translate(15 15)" d="M0 0h34v34H0z"/></clipPath></defs></svg>