<?xml version="1.0" standalone="no"?>
<!DOCTYPE svg PUBLIC "-//W3C//DTD SVG 1.1//EN" "http://www.w3.org/Graphics/SVG/1.1/DTD/svg11.dtd" >
<svg xmlns="http://www.w3.org/2000/svg" xmlns:xlink="http://www.w3.org/1999/xlink" version="1.1">
<metadata>
Created by FontForge 20190801 at Fri Oct  4 05:03:36 2019
 By Jimmy Wärting
rastvor.com.ua
</metadata>
<defs>
<font id="NAMU-1750" horiz-adv-x="620" >
  <font-face 
    font-family="NAMU 1750"
    font-weight="300"
    font-stretch="normal"
    units-per-em="1000"
    panose-1="0 0 4 0 0 0 0 0 0 0"
    ascent="800"
    descent="-200"
    x-height="500"
    cap-height="700"
    bbox="-784 -260 1400 953"
    underline-thickness="50"
    underline-position="-100"
    unicode-range="U+000D-A69B"
  />
<missing-glyph horiz-adv-x="280" 
 />
    <glyph glyph-name="uniA6561FCE.liga" unicode="&#xa656;&#x1fce;" horiz-adv-x="1070" 
d="M876 160h-378l-69 -160h-109l135 302h-265v-302h-100v700h100v-302h309l135 302h112l314 -700h-115zM837 252l-149 345l-86 -199l-41 -96h-1l-22 -50h299zM560 823h19q12 0 19 5.5t7 14.5q0 10 -7 16t-19 6h-56v65h74q39 0 62.5 -20.5t23.5 -54.5t-23.5 -54.5
t-62.5 -20.5h-37v43zM875 930l-80 -150h-100l70 150h110z" />
    <glyph glyph-name="IotifiedA_psilipneumatacy.liga" unicode="&#xa656;&#x486;" horiz-adv-x="1070" 
d="M876 160h-378l-69 -160h-109l135 302h-265v-302h-100v700h100v-302h309l135 302h112l314 -700h-115zM837 252l-149 345l-86 -199l-41 -96h-1l-22 -50h299zM646 823h19q12 0 19 5.5t7 14.5q0 10 -7 16t-19 6h-56v65h74q39 0 62.5 -20.5t23.5 -54.5t-23.5 -54.5
t-62.5 -20.5h-37v43z" />
    <glyph glyph-name="uniA6561FCD.liga" unicode="&#xa656;&#x1fcd;" horiz-adv-x="1070" 
d="M876 160h-378l-69 -160h-109l135 302h-265v-302h-100v700h100v-302h309l135 302h112l314 -700h-115zM837 252l-149 345l-86 -199l-41 -96h-1l-22 -50h299zM560 823h19q12 0 19 5.5t7 14.5q0 10 -7 16t-19 6h-56v65h74q39 0 62.5 -20.5t23.5 -54.5t-23.5 -54.5
t-62.5 -20.5h-37v43zM689 930h110l70 -150h-100z" />
    <glyph glyph-name="uniA64A1FFD.liga" unicode="&#xa64a;&#x1ffd;" horiz-adv-x="698" 
d="M609.5 325q58.5 -52 58.5 -128q0 -61 -39 -107.5t-111 -72t-168 -25.5t-168.5 25.5t-112 72t-39.5 107.5q0 76 59.5 128.5t165.5 69.5l-222 305h117l202 -303l198 303h117l-221 -305q105 -18 163.5 -70zM506 113q57 32 57 88q0 47 -43 78t-119 38l-35 -50q-7 -10 -7 -19
q0 -8 5 -12.5t14 -4.5h43v-83h-83q-40 0 -63.5 20.5t-23.5 52.5q0 31 22 62l25 34q-77 -8 -120 -38.5t-43 -77.5q0 -56 57.5 -88t157.5 -32q99 0 156 32zM477 930l-80 -150h-100l70 150h110z" />
    <glyph glyph-name="UkMonograph_palatalizationcy.liga" unicode="&#xa64a;&#x484;" horiz-adv-x="698" 
d="M609.5 325q58.5 -52 58.5 -128q0 -61 -39 -107.5t-111 -72t-168 -25.5t-168.5 25.5t-112 72t-39.5 107.5q0 76 59.5 128.5t165.5 69.5l-222 305h117l202 -303l198 303h117l-221 -305q105 -18 163.5 -70zM506 113q57 32 57 88q0 47 -43 78t-119 38l-35 -50q-7 -10 -7 -19
q0 -8 5 -12.5t14 -4.5h43v-83h-83q-40 0 -63.5 20.5t-23.5 52.5q0 31 22 62l25 34q-77 -8 -120 -38.5t-43 -77.5q0 -56 57.5 -88t157.5 -32q99 0 156 32zM473 895q50 -41 56 -110h-82q-5 38 -32 59.5t-70 21.5t-70 -21.5t-32 -59.5h-82q6 69 56 110t128 41t128 -41z" />
    <glyph glyph-name="uniA64A1FEF.liga" unicode="&#xa64a;&#x1fef;" horiz-adv-x="698" 
d="M609.5 325q58.5 -52 58.5 -128q0 -61 -39 -107.5t-111 -72t-168 -25.5t-168.5 25.5t-112 72t-39.5 107.5q0 76 59.5 128.5t165.5 69.5l-222 305h117l202 -303l198 303h117l-221 -305q105 -18 163.5 -70zM506 113q57 32 57 88q0 47 -43 78t-119 38l-35 -50q-7 -10 -7 -19
q0 -8 5 -12.5t14 -4.5h43v-83h-83q-40 0 -63.5 20.5t-23.5 52.5q0 31 22 62l25 34q-77 -8 -120 -38.5t-43 -77.5q0 -56 57.5 -88t157.5 -32q99 0 156 32zM217 930h110l70 -150h-100z" />
    <glyph glyph-name="A_palatalizationcy.liga" unicode="&#x410;&#x484;" horiz-adv-x="760" 
d="M566 160h-378l-69 -160h-109l314 700h112l314 -700h-115zM527 252l-149 345l-150 -345h299zM501 895q50 -41 56 -110h-82q-5 38 -32 59.5t-70 21.5t-70 -21.5t-32 -59.5h-82q6 69 56 110t128 41t128 -41z" />
    <glyph glyph-name="uni04101FFD.liga" unicode="&#x410;&#x1ffd;" horiz-adv-x="760" 
d="M566 160h-378l-69 -160h-109l314 700h112l314 -700h-115zM527 252l-149 345l-150 -345h299zM505 930l-80 -150h-100l70 150h110z" />
    <glyph glyph-name="uni04101FCE.liga" unicode="&#x410;&#x1fce;" horiz-adv-x="760" 
d="M566 160h-378l-69 -160h-109l314 700h112l314 -700h-115zM527 252l-149 345l-150 -345h299zM250 823h19q12 0 19 5.5t7 14.5q0 10 -7 16t-19 6h-56v65h74q39 0 62.5 -20.5t23.5 -54.5t-23.5 -54.5t-62.5 -20.5h-37v43zM565 930l-80 -150h-100l70 150h110z" />
    <glyph glyph-name="A_psilipneumatacy.liga" unicode="&#x410;&#x486;" horiz-adv-x="760" 
d="M566 160h-378l-69 -160h-109l314 700h112l314 -700h-115zM527 252l-149 345l-150 -345h299zM336 823h19q12 0 19 5.5t7 14.5q0 10 -7 16t-19 6h-56v65h74q39 0 62.5 -20.5t23.5 -54.5t-23.5 -54.5t-62.5 -20.5h-37v43z" />
    <glyph glyph-name="uni04101FEF.liga" unicode="&#x410;&#x1fef;" horiz-adv-x="760" 
d="M566 160h-378l-69 -160h-109l314 700h112l314 -700h-115zM527 252l-149 345l-150 -345h299zM245 930h110l70 -150h-100z" />
    <glyph glyph-name="uni041E1FCE.liga" unicode="&#x41e;&#x1fce;" horiz-adv-x="820" 
d="M225 37.5q-84 47.5 -132 130t-48 182.5t48 182.5t132 130t185 47.5t185 -47.5t132 -130t48 -182.5t-48 -182.5t-132 -130t-185 -47.5t-185 47.5zM541.5 121q59.5 35 94 95.5t34.5 133.5t-34.5 133.5t-94 95.5t-131.5 35t-131.5 -35t-94 -95.5t-34.5 -133.5t34.5 -133.5
t94 -95.5t131.5 -35t131.5 35zM280 823h19q12 0 19 5.5t7 14.5q0 10 -7 16t-19 6h-56v65h74q39 0 62.5 -20.5t23.5 -54.5t-23.5 -54.5t-62.5 -20.5h-37v43zM595 930l-80 -150h-100l70 150h110z" />
    <glyph glyph-name="uni041E1FFD.liga" unicode="&#x41e;&#x1ffd;" horiz-adv-x="820" 
d="M225 37.5q-84 47.5 -132 130t-48 182.5t48 182.5t132 130t185 47.5t185 -47.5t132 -130t48 -182.5t-48 -182.5t-132 -130t-185 -47.5t-185 47.5zM541.5 121q59.5 35 94 95.5t34.5 133.5t-34.5 133.5t-94 95.5t-131.5 35t-131.5 -35t-94 -95.5t-34.5 -133.5t34.5 -133.5
t94 -95.5t131.5 -35t131.5 35zM535 930l-80 -150h-100l70 150h110z" />
    <glyph glyph-name="uni042B1FFD.liga" unicode="&#x42b;&#x1ffd;" horiz-adv-x="920" 
d="M516.5 383.5q50.5 -26.5 77 -73t26.5 -105.5t-26.5 -105.5t-77 -73t-120.5 -26.5h-306v700h100v-290h206q70 0 120.5 -26.5zM484 122.5q31 28.5 31 83.5t-31 83t-91 28h-203v-223h203q60 0 91 28.5zM830 700v-700h-100v700h100zM905 930l-80 -150h-100l70 150h110z" />
    <glyph glyph-name="uni04041FEF.liga" unicode="&#x404;&#x1fef;" horiz-adv-x="767" 
d="M533.5 124.5q56.5 38.5 87.5 105.5h111q-23 -72 -71.5 -126.5t-115.5 -84t-144 -29.5q-99 0 -180.5 47.5t-128.5 130t-47 182.5t47 182.5t128.5 130t180.5 47.5q77 0 144 -29.5t115.5 -84t71.5 -126.5h-111q-31 67 -87.5 105.5t-132.5 38.5q-63 0 -116.5 -28t-88.5 -77.5
t-45 -111.5h305v-94h-305q10 -62 45 -111.5t88.5 -77.5t116.5 -28q76 0 132.5 38.5zM266 930h110l70 -150h-100z" />
    <glyph glyph-name="uni04061FFD.liga" unicode="&#x406;&#x1ffd;" horiz-adv-x="280" 
d="M190 700v-700h-100v700h100zM265 930l-80 -150h-100l70 150h110z" />
    <glyph glyph-name="uni04061FCE.liga" unicode="&#x406;&#x1fce;" horiz-adv-x="280" 
d="M190 700v-700h-100v700h100zM10 823h19q12 0 19 5.5t7 14.5q0 10 -7 16t-19 6h-56v65h74q39 0 62.5 -20.5t23.5 -54.5t-23.5 -54.5t-62.5 -20.5h-37v43zM325 930l-80 -150h-100l70 150h110z" />
    <glyph glyph-name="I_palatalizationcy.liga" unicode="&#x406;&#x484;" horiz-adv-x="280" 
d="M190 700v-700h-100v700h100zM261 895q50 -41 56 -110h-82q-5 38 -32 59.5t-70 21.5t-70 -21.5t-32 -59.5h-82q6 69 56 110t128 41t128 -41z" />
    <glyph glyph-name="I_psilipneumatacy.liga" unicode="&#x406;&#x486;" horiz-adv-x="280" 
d="M190 700v-700h-100v700h100zM96 823h19q12 0 19 5.5t7 14.5q0 10 -7 16t-19 6h-56v65h74q39 0 62.5 -20.5t23.5 -54.5t-23.5 -54.5t-62.5 -20.5h-37v43z" />
    <glyph glyph-name="uni04061FEF.liga" unicode="&#x406;&#x1fef;" horiz-adv-x="280" 
d="M190 700v-700h-100v700h100zM5 930h110l70 -150h-100z" />
    <glyph glyph-name="Omega_psilipneumatacy.liga" unicode="&#x460;&#x486;" horiz-adv-x="1044" 
d="M877.5 669q51.5 -41 79 -117t27.5 -178q0 -121 -34 -208t-91.5 -131.5t-127.5 -44.5q-72 0 -125.5 37t-83.5 107q-30 -70 -83.5 -107t-125.5 -37q-70 0 -127.5 44.5t-91.5 131.5t-34 208q0 102 27.5 178t79 117t121.5 41q64 0 105.5 -41.5t52.5 -118.5h-97q-12 67 -61 67
q-60 0 -94 -63.5t-34 -179.5q0 -94 21 -159.5t57 -98.5t80 -33q71 0 114 53t43 134v80h94v-80q0 -81 43 -134t114 -53q44 0 80 33t57 98.5t21 159.5q0 116 -34 179.5t-94 63.5q-49 0 -61 -67h-97q11 77 52.5 118.5t105.5 41.5q70 0 121.5 -41zM478 823h19q12 0 19 5.5
t7 14.5q0 10 -7 16t-19 6h-56v65h74q39 0 62.5 -20.5t23.5 -54.5t-23.5 -54.5t-62.5 -20.5h-37v43z" />
    <glyph glyph-name="uni04601FFD.liga" unicode="&#x460;&#x1ffd;" horiz-adv-x="1044" 
d="M877.5 669q51.5 -41 79 -117t27.5 -178q0 -121 -34 -208t-91.5 -131.5t-127.5 -44.5q-72 0 -125.5 37t-83.5 107q-30 -70 -83.5 -107t-125.5 -37q-70 0 -127.5 44.5t-91.5 131.5t-34 208q0 102 27.5 178t79 117t121.5 41q64 0 105.5 -41.5t52.5 -118.5h-97q-12 67 -61 67
q-60 0 -94 -63.5t-34 -179.5q0 -94 21 -159.5t57 -98.5t80 -33q71 0 114 53t43 134v80h94v-80q0 -81 43 -134t114 -53q44 0 80 33t57 98.5t21 159.5q0 116 -34 179.5t-94 63.5q-49 0 -61 -67h-97q11 77 52.5 118.5t105.5 41.5q70 0 121.5 -41zM647 930l-80 -150h-100l70 150
h110z" />
    <glyph glyph-name="uni04621FFD.liga" unicode="&#x462;&#x1ffd;" horiz-adv-x="770" 
d="M636.5 383.5q50.5 -26.5 77 -73t26.5 -105.5t-26.5 -105.5t-77 -73t-120.5 -26.5h-306v534h-195v96h195v120h100v-120h245v-96h-245v-124h206q70 0 120.5 -26.5zM604 122.5q31 28.5 31 83.5t-31 83t-91 28h-203v-223h203q60 0 91 28.5zM387 930l-80 -150h-100l70 150h110
z" />
    <glyph glyph-name="Yat_palatalizationcy.liga" unicode="&#x462;&#x484;" horiz-adv-x="770" 
d="M636.5 383.5q50.5 -26.5 77 -73t26.5 -105.5t-26.5 -105.5t-77 -73t-120.5 -26.5h-306v534h-195v96h195v120h100v-120h245v-96h-245v-124h206q70 0 120.5 -26.5zM604 122.5q31 28.5 31 83.5t-31 83t-91 28h-203v-223h203q60 0 91 28.5zM383 895q50 -41 56 -110h-82
q-5 38 -32 59.5t-70 21.5t-70 -21.5t-32 -59.5h-82q6 69 56 110t128 41t128 -41z" />
    <glyph glyph-name="uni04621FEF.liga" unicode="&#x462;&#x1fef;" horiz-adv-x="770" 
d="M636.5 383.5q50.5 -26.5 77 -73t26.5 -105.5t-26.5 -105.5t-77 -73t-120.5 -26.5h-306v534h-195v96h195v120h100v-120h245v-96h-245v-124h206q70 0 120.5 -26.5zM604 122.5q31 28.5 31 83.5t-31 83t-91 28h-203v-223h203q60 0 91 28.5zM127 930h110l70 -150h-100z" />
    <glyph glyph-name="Yuslittle_psilipneumatacy.liga" unicode="&#x466;&#x486;" horiz-adv-x="800" 
d="M587 190h-139v-190h-96v190h-145l-88 -190h-109l334 700h112l334 -700h-115zM545 282l-147 318l-148 -318h295zM356 823h19q12 0 19 5.5t7 14.5q0 10 -7 16t-19 6h-56v65h74q39 0 62.5 -20.5t23.5 -54.5t-23.5 -54.5t-62.5 -20.5h-37v43z" />
    <glyph glyph-name="uni04661FCE.liga" unicode="&#x466;&#x1fce;" horiz-adv-x="800" 
d="M587 190h-139v-190h-96v190h-145l-88 -190h-109l334 700h112l334 -700h-115zM545 282l-147 318l-148 -318h295zM270 823h19q12 0 19 5.5t7 14.5q0 10 -7 16t-19 6h-56v65h74q39 0 62.5 -20.5t23.5 -54.5t-23.5 -54.5t-62.5 -20.5h-37v43zM585 930l-80 -150h-100l70 150
h110z" />
    <glyph glyph-name="Yuslittle_palatalizationcy.liga" unicode="&#x466;&#x484;" horiz-adv-x="800" 
d="M587 190h-139v-190h-96v190h-145l-88 -190h-109l334 700h112l334 -700h-115zM545 282l-147 318l-148 -318h295zM521 895q50 -41 56 -110h-82q-5 38 -32 59.5t-70 21.5t-70 -21.5t-32 -59.5h-82q6 69 56 110t128 41t128 -41z" />
    <glyph glyph-name="uni04661FEF.liga" unicode="&#x466;&#x1fef;" horiz-adv-x="800" 
d="M587 190h-139v-190h-96v190h-145l-88 -190h-109l334 700h112l334 -700h-115zM545 282l-147 318l-148 -318h295zM265 930h110l70 -150h-100z" />
    <glyph glyph-name="uni04661FFD.liga" unicode="&#x466;&#x1ffd;" horiz-adv-x="800" 
d="M587 190h-139v-190h-96v190h-145l-88 -190h-109l334 700h112l334 -700h-115zM545 282l-147 318l-148 -318h295zM525 930l-80 -150h-100l70 150h110z" />
    <glyph glyph-name="uni04741FFD.liga" unicode="&#x474;&#x1ffd;" horiz-adv-x="760" 
d="M631.5 676.5q33.5 28.5 88.5 28.5q19 0 51 -5v-94h-30q-24 0 -40 -9.5t-26 -33.5l-231 -563h-129l-305 700h114l259 -599l190 482q25 65 58.5 93.5zM509 930l-80 -150h-100l70 150h110z" />
    <glyph glyph-name="Izhitsa_palatalizationcy.liga" unicode="&#x474;&#x484;" horiz-adv-x="760" 
d="M631.5 676.5q33.5 28.5 88.5 28.5q19 0 51 -5v-94h-30q-24 0 -40 -9.5t-26 -33.5l-231 -563h-129l-305 700h114l259 -599l190 482q25 65 58.5 93.5zM505 895q50 -41 56 -110h-82q-5 38 -32 59.5t-70 21.5t-70 -21.5t-32 -59.5h-82q6 69 56 110t128 41t128 -41z" />
    <glyph glyph-name="Uk_psilipneumatacy.liga" unicode="&#x478;&#x486;" horiz-adv-x="1366" 
d="M225 37.5q-84 47.5 -132 130t-48 182.5t48 182.5t132 130t185 47.5t185 -47.5t132 -130t48 -182.5t-48 -182.5t-132 -130t-185 -47.5t-185 47.5zM541.5 121q59.5 35 94 95.5t34.5 133.5t-34.5 133.5t-94 95.5t-131.5 35t-131.5 -35t-94 -95.5t-34.5 -133.5t34.5 -133.5
t94 -95.5t131.5 -35t131.5 35zM1353 500l-243 -556q-19 -51 -53 -83.5t-100 -32.5q-47 0 -73 2v90q28 -2 67 -2q28 0 44.5 15t27.5 41l15 35l-243 491h111l179 -384l168 384h100zM1030 633h19q12 0 19 5.5t7 14.5q0 10 -7 16t-19 6h-56v65h74q39 0 62.5 -20.5t23.5 -54.5
t-23.5 -54.5t-62.5 -20.5h-37v43z" />
    <glyph glyph-name="uni04781FCE.liga" unicode="&#x478;&#x1fce;" horiz-adv-x="1366" 
d="M225 37.5q-84 47.5 -132 130t-48 182.5t48 182.5t132 130t185 47.5t185 -47.5t132 -130t48 -182.5t-48 -182.5t-132 -130t-185 -47.5t-185 47.5zM541.5 121q59.5 35 94 95.5t34.5 133.5t-34.5 133.5t-94 95.5t-131.5 35t-131.5 -35t-94 -95.5t-34.5 -133.5t34.5 -133.5
t94 -95.5t131.5 -35t131.5 35zM1353 500l-243 -556q-19 -51 -53 -83.5t-100 -32.5q-47 0 -73 2v90q28 -2 67 -2q28 0 44.5 15t27.5 41l15 35l-243 491h111l179 -384l168 384h100zM944 633h19q12 0 19 5.5t7 14.5q0 10 -7 16t-19 6h-56v65h74q39 0 62.5 -20.5t23.5 -54.5
t-23.5 -54.5t-62.5 -20.5h-37v43zM1259 740l-80 -150h-100l70 150h110z" />
    <glyph glyph-name="uni04301FCE.liga" unicode="&#x430;&#x1fce;" horiz-adv-x="564" 
d="M530 90v-90h-48q-37 0 -58 18.5t-25 53.5q-32 -37 -82.5 -59.5t-106.5 -22.5q-81 0 -125.5 40t-44.5 107q0 61 48 104.5t135 52.5l56 6q47 5 70 12.5t29.5 16.5t6.5 24q0 34 -32.5 53.5t-89.5 19.5q-37 0 -71 -19.5t-47 -55.5h-101q14 70 76 114.5t148 44.5q95 0 156 -52
t61 -149v-192q0 -13 7 -20t19 -7h19zM308 91.5q41 19.5 65.5 52t24.5 69.5v45q-34 -26 -108 -34l-56 -6q-56 -6 -78 -27t-22 -53q0 -30 22.5 -48t63.5 -18q47 0 88 19.5zM138 623h19q12 0 19 5.5t7 14.5q0 10 -7 16t-19 6h-56v65h74q39 0 62.5 -20.5t23.5 -54.5t-23.5 -54.5
t-62.5 -20.5h-37v43zM453 730l-80 -150h-100l70 150h110z" />
    <glyph glyph-name="uni04301FFD.liga" unicode="&#x430;&#x1ffd;" horiz-adv-x="564" 
d="M530 90v-90h-48q-37 0 -58 18.5t-25 53.5q-32 -37 -82.5 -59.5t-106.5 -22.5q-81 0 -125.5 40t-44.5 107q0 61 48 104.5t135 52.5l56 6q47 5 70 12.5t29.5 16.5t6.5 24q0 34 -32.5 53.5t-89.5 19.5q-37 0 -71 -19.5t-47 -55.5h-101q14 70 76 114.5t148 44.5q95 0 156 -52
t61 -149v-192q0 -13 7 -20t19 -7h19zM308 91.5q41 19.5 65.5 52t24.5 69.5v45q-34 -26 -108 -34l-56 -6q-56 -6 -78 -27t-22 -53q0 -30 22.5 -48t63.5 -18q47 0 88 19.5zM393 730l-80 -150h-100l70 150h110z" />
    <glyph glyph-name="uni04301FEF.liga" unicode="&#x430;&#x1fef;" horiz-adv-x="564" 
d="M530 90v-90h-48q-37 0 -58 18.5t-25 53.5q-32 -37 -82.5 -59.5t-106.5 -22.5q-81 0 -125.5 40t-44.5 107q0 61 48 104.5t135 52.5l56 6q47 5 70 12.5t29.5 16.5t6.5 24q0 34 -32.5 53.5t-89.5 19.5q-37 0 -71 -19.5t-47 -55.5h-101q14 70 76 114.5t148 44.5q95 0 156 -52
t61 -149v-192q0 -13 7 -20t19 -7h19zM308 91.5q41 19.5 65.5 52t24.5 69.5v45q-34 -26 -108 -34l-56 -6q-56 -6 -78 -27t-22 -53q0 -30 22.5 -48t63.5 -18q47 0 88 19.5zM133 730h110l70 -150h-100z" />
    <glyph glyph-name="a_titlocy.liga" unicode="&#x430;&#x483;" horiz-adv-x="564" 
d="M530 90v-90h-48q-37 0 -58 18.5t-25 53.5q-32 -37 -82.5 -59.5t-106.5 -22.5q-81 0 -125.5 40t-44.5 107q0 61 48 104.5t135 52.5l56 6q47 5 70 12.5t29.5 16.5t6.5 24q0 34 -32.5 53.5t-89.5 19.5q-37 0 -71 -19.5t-47 -55.5h-101q14 70 76 114.5t148 44.5q95 0 156 -52
t61 -149v-192q0 -13 7 -20t19 -7h19zM308 91.5q41 19.5 65.5 52t24.5 69.5v45q-34 -26 -108 -34l-56 -6q-56 -6 -78 -27t-22 -53q0 -30 22.5 -48t63.5 -18q47 0 88 19.5zM442 750v-130h-268v-60h-80v130h268v60h80z" />
    <glyph glyph-name="a_palatalizationcy.liga" unicode="&#x430;&#x484;" horiz-adv-x="564" 
d="M530 90v-90h-48q-37 0 -58 18.5t-25 53.5q-32 -37 -82.5 -59.5t-106.5 -22.5q-81 0 -125.5 40t-44.5 107q0 61 48 104.5t135 52.5l56 6q47 5 70 12.5t29.5 16.5t6.5 24q0 34 -32.5 53.5t-89.5 19.5q-37 0 -71 -19.5t-47 -55.5h-101q14 70 76 114.5t148 44.5q95 0 156 -52
t61 -149v-192q0 -13 7 -20t19 -7h19zM308 91.5q41 19.5 65.5 52t24.5 69.5v45q-34 -26 -108 -34l-56 -6q-56 -6 -78 -27t-22 -53q0 -30 22.5 -48t63.5 -18q47 0 88 19.5zM389 695q50 -41 56 -110h-82q-5 38 -32 59.5t-70 21.5t-70 -21.5t-32 -59.5h-82q6 69 56 110t128 41
t128 -41z" />
    <glyph glyph-name="a_psilipneumatacy.liga" unicode="&#x430;&#x486;" horiz-adv-x="564" 
d="M530 90v-90h-48q-37 0 -58 18.5t-25 53.5q-32 -37 -82.5 -59.5t-106.5 -22.5q-81 0 -125.5 40t-44.5 107q0 61 48 104.5t135 52.5l56 6q47 5 70 12.5t29.5 16.5t6.5 24q0 34 -32.5 53.5t-89.5 19.5q-37 0 -71 -19.5t-47 -55.5h-101q14 70 76 114.5t148 44.5q95 0 156 -52
t61 -149v-192q0 -13 7 -20t19 -7h19zM308 91.5q41 19.5 65.5 52t24.5 69.5v45q-34 -26 -108 -34l-56 -6q-56 -6 -78 -27t-22 -53q0 -30 22.5 -48t63.5 -18q47 0 88 19.5zM224 623h19q12 0 19 5.5t7 14.5q0 10 -7 16t-19 6h-56v65h74q39 0 62.5 -20.5t23.5 -54.5t-23.5 -54.5
t-62.5 -20.5h-37v43z" />
    <glyph glyph-name="ve_titlocy.liga" unicode="&#x432;&#x483;" horiz-adv-x="540" 
d="M500 141q0 -62 -45 -101.5t-124 -39.5h-251v500h251q75 0 118.5 -38.5t43.5 -97.5q0 -35 -16.5 -63.5t-50.5 -45.5q74 -37 74 -114zM320 292q37 0 56 17t19 50q0 61 -75 61h-147v-128h147zM381.5 97.5q20.5 17.5 20.5 50.5q0 31 -20.5 47.5t-60.5 16.5h-148v-132h148
q40 0 60.5 17.5zM428 750v-130h-268v-60h-80v130h268v60h80z" />
    <glyph glyph-name="ge_titlocy.liga" unicode="&#x433;&#x483;" horiz-adv-x="445" 
d="M430 410h-255v-410h-95v500h350v-90zM414 750v-130h-268v-60h-80v130h268v60h80z" />
    <glyph glyph-name="de_titlocy.liga" unicode="&#x434;&#x483;" horiz-adv-x="616" 
d="M601 90v-200h-92v110h-402v-110h-92v200h55l176 410h124l176 -410h55zM442 88l-135 318l-136 -318h271zM482 750v-130h-268v-60h-80v130h268v60h80z" />
    <glyph glyph-name="zhe_titlocy.liga" unicode="&#x436;&#x483;" horiz-adv-x="766" 
d="M562.5 228.5q22.5 -20.5 51.5 -50.5q46 -46 74 -67.5t56 -21.5h17v-89h-24q-56 0 -101 34.5t-100 96.5q-38 42 -60 61t-43 19h-3v-211h-94v211h-3q-21 0 -43 -19t-60 -61q-55 -62 -100 -96.5t-101 -34.5h-24v89h17q29 0 58 22t74 67q56 58 93 81l-242 241h124l207 -214
v214h94v-214l209 214h122l-243 -238q22 -13 44.5 -33.5zM556 750v-130h-268v-60h-80v130h268v60h80z" />
    <glyph glyph-name="ze_titlocy.liga" unicode="&#x437;&#x483;" horiz-adv-x="509" 
d="M384 196q47 -29 71.5 -75t24.5 -97q0 -52 -25 -99t-71 -76t-106 -29q-35 0 -62.5 8t-65.5 24q-16 7 -30.5 12.5t-25.5 5.5q-36 0 -36 -40h-82q0 58 27 91.5t84 33.5q24 0 44.5 -7t49.5 -20t49 -19.5t42 -6.5q53 0 83.5 33t30.5 91q0 59 -44 90.5t-116 31.5h-68v69
l193 193h-314v90h420v-92l-185 -182q65 -1 112 -30zM429 750v-130h-268v-60h-80v130h268v60h80z" />
    <glyph glyph-name="ii_titlocy.liga" unicode="&#x438;&#x483;" horiz-adv-x="610" 
d="M530 500v-500h-95v308l-260 -220v-88h-95v500h95v-302l260 220v82h95zM484 760v-130h-268v-60h-80v130h268v60h80z" />
    <glyph glyph-name="ka_titlocy.liga" unicode="&#x43a;&#x483;" horiz-adv-x="548" 
d="M543 89v-89h-27q-43 0 -81.5 18.5t-68.5 44t-70 65.5t-64 58.5t-47 18.5h-10v-205h-95v500h95v-221l239 221h119l-262 -238q27 -12 53.5 -33t62.5 -54q49 -44 79.5 -65t61.5 -21h15zM466 750v-130h-268v-60h-80v130h268v60h80z" />
    <glyph glyph-name="el_titlocy.liga" unicode="&#x43b;&#x483;" horiz-adv-x="574" 
d="M458 0l-172 406l-173 -406h-103l218 500h118l218 -500h-106zM461 750v-130h-268v-60h-80v130h268v60h80z" />
    <glyph glyph-name="em_titlocy.liga" unicode="&#x43c;&#x483;" horiz-adv-x="780" 
d="M700 0h-95v365l-168 -365h-94l-168 362v-362h-95v500h130l182 -401l180 401h128v-500zM564 750v-130h-268v-60h-80v130h268v60h80z" />
    <glyph glyph-name="en_titlocy.liga" unicode="&#x43d;&#x483;" horiz-adv-x="610" 
d="M530 500v-500h-95v205h-260v-205h-95v500h95v-205h260v205h95zM479 760v-130h-268v-60h-80v130h268v60h80z" />
    <glyph glyph-name="uni043E1FCE.liga" unicode="&#x43e;&#x1fce;" horiz-adv-x="600" 
d="M166 24.5q-61 34.5 -96 94t-35 131.5t35 131.5t96 94t135 34.5q73 0 133.5 -34.5t95.5 -94t35 -131.5t-35 -131.5t-95.5 -94t-133.5 -34.5q-74 0 -135 34.5zM385 100.5q38 22.5 60 62t22 87.5t-22 87.5t-60 62t-84 22.5q-47 0 -85.5 -22.5t-60.5 -62t-22 -87.5t22 -87.5
t60.5 -62t85.5 -22.5q46 0 84 22.5zM173 623h19q12 0 19 5.5t7 14.5q0 10 -7 16t-19 6h-56v65h74q39 0 62.5 -20.5t23.5 -54.5t-23.5 -54.5t-62.5 -20.5h-37v43zM488 730l-80 -150h-100l70 150h110z" />
    <glyph glyph-name="uni043E1FFD.liga" unicode="&#x43e;&#x1ffd;" horiz-adv-x="600" 
d="M166 24.5q-61 34.5 -96 94t-35 131.5t35 131.5t96 94t135 34.5q73 0 133.5 -34.5t95.5 -94t35 -131.5t-35 -131.5t-95.5 -94t-133.5 -34.5q-74 0 -135 34.5zM385 100.5q38 22.5 60 62t22 87.5t-22 87.5t-60 62t-84 22.5q-47 0 -85.5 -22.5t-60.5 -62t-22 -87.5t22 -87.5
t60.5 -62t85.5 -22.5q46 0 84 22.5zM428 730l-80 -150h-100l70 150h110z" />
    <glyph glyph-name="o_titlocy.liga" unicode="&#x43e;&#x483;" horiz-adv-x="600" 
d="M166 24.5q-61 34.5 -96 94t-35 131.5t35 131.5t96 94t135 34.5q73 0 133.5 -34.5t95.5 -94t35 -131.5t-35 -131.5t-95.5 -94t-133.5 -34.5q-74 0 -135 34.5zM385 100.5q38 22.5 60 62t22 87.5t-22 87.5t-60 62t-84 22.5q-47 0 -85.5 -22.5t-60.5 -62t-22 -87.5t22 -87.5
t60.5 -62t85.5 -22.5q46 0 84 22.5zM477 750v-130h-268v-60h-80v130h268v60h80z" />
    <glyph glyph-name="pe_titlocy.liga" unicode="&#x43f;&#x483;" horiz-adv-x="610" 
d="M530 0h-95v410h-260v-410h-95v500h450v-500zM479 760v-130h-268v-60h-80v130h268v60h80z" />
    <glyph glyph-name="er_titlocy.liga" unicode="&#x440;&#x483;" horiz-adv-x="615" 
d="M464 476.5q54 -33.5 85 -92.5t31 -134t-31 -134t-85 -92.5t-120 -33.5q-50 0 -94 22.5t-75 62.5v-245h-95v670h90v-81q32 43 77 67t97 24q66 0 120 -33.5zM407 100q35 22 55 61.5t20 88.5t-20 88.5t-55 61.5t-79 22t-80 -22t-56 -61.5t-20 -88.5t20 -88.5t56 -61.5
t80 -22t79 22zM477 750v-130h-268v-60h-80v130h268v60h80z" />
    <glyph glyph-name="es_titlocy.liga" unicode="&#x441;&#x483;" horiz-adv-x="563" 
d="M70 381.5q35 59.5 96 94t135 34.5q83 0 149.5 -48.5t87.5 -126.5h-104q-17 40 -54.5 63.5t-83.5 23.5q-47 0 -84 -22.5t-58 -62t-21 -87.5t21 -87.5t58 -62t84 -22.5q46 0 83.5 23.5t54.5 63.5h104q-21 -78 -87.5 -126.5t-149.5 -48.5q-74 0 -135 34.5t-96 94t-35 131.5
t35 131.5zM470 750v-130h-268v-60h-80v130h268v60h80z" />
    <glyph glyph-name="te_titlocy.liga" unicode="&#x442;&#x483;" horiz-adv-x="475" 
d="M460 410h-175v-410h-95v410h-175v90h445v-90zM412 750v-130h-268v-60h-80v130h268v60h80z" />
    <glyph glyph-name="u_titlocy.liga" unicode="&#x443;&#x483;" horiz-adv-x="576" 
d="M563 500l-243 -556q-19 -51 -53 -83.5t-100 -32.5q-47 0 -73 2v90q28 -2 67 -2q28 0 44.5 15t27.5 41l15 35l-243 491h111l179 -384l168 384h100zM458 760v-130h-268v-60h-80v130h268v60h80z" />
    <glyph glyph-name="ef_titlocy.liga" unicode="&#x444;&#x483;" horiz-adv-x="795" 
d="M631 467q60 -33 94.5 -90.5t34.5 -126.5t-34.5 -126.5t-94.5 -90.5t-132 -33h-54v-170h-95v170h-52q-73 0 -133 33t-95 90.5t-35 126.5t35 126.5t95 90.5t133 33h52v205h95v-205h54q72 0 132 -33zM350 88v324h-49q-47 0 -85.5 -21.5t-60.5 -58.5t-22 -82t22 -82
t60.5 -58.5t85.5 -21.5h49zM580 109.5q38 21.5 60 58.5t22 82t-22 82t-60 58.5t-84 21.5h-51v-324h51q46 0 84 21.5zM572 890v-130h-268v-60h-80v130h268v60h80z" />
    <glyph glyph-name="ha_titlocy.liga" unicode="&#x445;&#x483;" horiz-adv-x="544" 
d="M416 0l-145 189l-146 -189h-115l200 254l-192 246h118l137 -179l134 179h118l-191 -243l200 -257h-118zM446 750v-130h-268v-60h-80v130h268v60h80z" />
    <glyph glyph-name="che_titlocy.liga" unicode="&#x447;&#x483;" horiz-adv-x="550" 
d="M470 500v-500h-95v194h-160q-77 0 -121 45t-44 115v146h95v-143q0 -39 20.5 -58t64.5 -19h145v220h95zM449 760v-130h-268v-60h-80v130h268v60h80z" />
    <glyph glyph-name="tse_titlocy.liga" unicode="&#x446;&#x483;" horiz-adv-x="630" 
d="M612.5 32q29.5 -33 29.5 -75q0 -58 -39 -97.5t-123 -39.5q-40 0 -76.5 6.5t-84.5 17.5q-24 6 -46 10.5t-37 4.5q-23 0 -30 -8t-7 -24v-7h-89v13q0 114 113 114q33 0 60.5 -5.5t70.5 -17.5q41 -11 67.5 -16.5t57.5 -5.5q35 0 50.5 14t15.5 36q0 20 -18 34t-55 14h-392v500
h95v-410h260v410h95v-426q53 -9 82.5 -42zM487 760v-130h-268v-60h-80v130h268v60h80z" />
    <glyph glyph-name="uni044B1FFD.liga" unicode="&#x44b;&#x1ffd;" horiz-adv-x="760" 
d="M450.5 259.5q44.5 -42.5 44.5 -108.5t-44.5 -108.5t-123.5 -42.5h-247v500h95v-198h152q79 0 123.5 -42.5zM376 100q21 17 21 51t-21 51t-62 17h-139v-136h139q41 0 62 17zM680 500v-500h-95v500h95zM758 740l-80 -150h-100l70 150h110z" />
    <glyph glyph-name="dze_titlocy.liga" unicode="&#x455;&#x483;" horiz-adv-x="509" 
d="M97.5 34.5q-64.5 44.5 -74.5 123.5h95q13 -43 48.5 -63.5t93.5 -20.5q54 0 87 17.5t33 45.5t-22.5 44.5t-83.5 26.5l-57 10q-180 32 -180 145q0 66 58 106.5t152 40.5q85 0 145 -39.5t76 -109.5h-101q-12 30 -46 46.5t-75 16.5q-52 0 -82.5 -15.5t-30.5 -42.5
q0 -24 23 -39.5t74 -23.5l58 -10q102 -17 144 -55.5t42 -100.5q0 -66 -58.5 -106.5t-159.5 -40.5q-94 0 -158.5 44.5zM421 750v-130h-268v-60h-80v130h268v60h80z" />
    <glyph glyph-name="uni04541FEF.liga" unicode="&#x454;&#x1fef;" horiz-adv-x="570" 
d="M384.5 101.5q38.5 23.5 56.5 63.5h104q-21 -78 -89 -126.5t-153 -48.5q-76 0 -137.5 33.5t-96 93t-34.5 133.5t34.5 133.5t96 93t137.5 33.5q85 0 153 -48.5t89 -126.5h-104q-18 40 -56.5 63.5t-86.5 23.5q-60 0 -105.5 -36t-56.5 -93h217v-86h-217q11 -57 56.5 -93
t105.5 -36q48 0 86.5 23.5zM152 730h110l70 -150h-100z" />
    <glyph glyph-name="uni04541FFD.liga" unicode="&#x454;&#x1ffd;" horiz-adv-x="570" 
d="M384.5 101.5q38.5 23.5 56.5 63.5h104q-21 -78 -89 -126.5t-153 -48.5q-76 0 -137.5 33.5t-96 93t-34.5 133.5t34.5 133.5t96 93t137.5 33.5q85 0 153 -48.5t89 -126.5h-104q-18 40 -56.5 63.5t-86.5 23.5q-60 0 -105.5 -36t-56.5 -93h217v-86h-217q11 -57 56.5 -93
t105.5 -36q48 0 86.5 23.5zM412 730l-80 -150h-100l70 150h110z" />
    <glyph glyph-name="e_titlocy.liga" unicode="&#x454;&#x483;" horiz-adv-x="570" 
d="M384.5 101.5q38.5 23.5 56.5 63.5h104q-21 -78 -89 -126.5t-153 -48.5q-76 0 -137.5 33.5t-96 93t-34.5 133.5t34.5 133.5t96 93t137.5 33.5q85 0 153 -48.5t89 -126.5h-104q-18 40 -56.5 63.5t-86.5 23.5q-60 0 -105.5 -36t-56.5 -93h217v-86h-217q11 -57 56.5 -93
t105.5 -36q48 0 86.5 23.5zM461 750v-130h-268v-60h-80v130h268v60h80z" />
    <glyph glyph-name="i_palatalizationcy.liga" unicode="&#x456;&#x484;" horiz-adv-x="255" 
d="M175 500v-500h-95v500h95zM249 705q50 -41 56 -110h-82q-5 38 -32 59.5t-70 21.5t-70 -21.5t-32 -59.5h-82q6 69 56 110t128 41t128 -41z" />
    <glyph glyph-name="uni04561FCE.liga" unicode="&#x456;&#x1fce;" horiz-adv-x="255" 
d="M175 500v-500h-95v500h95zM-2 633h19q12 0 19 5.5t7 14.5q0 10 -7 16t-19 6h-56v65h74q39 0 62.5 -20.5t23.5 -54.5t-23.5 -54.5t-62.5 -20.5h-37v43zM313 740l-80 -150h-100l70 150h110z" />
    <glyph glyph-name="i_psilipneumatacy.liga" unicode="&#x456;&#x486;" horiz-adv-x="255" 
d="M175 500v-500h-95v500h95zM84 633h19q12 0 19 5.5t7 14.5q0 10 -7 16t-19 6h-56v65h74q39 0 62.5 -20.5t23.5 -54.5t-23.5 -54.5t-62.5 -20.5h-37v43z" />
    <glyph glyph-name="uni04561FEF.liga" unicode="&#x456;&#x1fef;" horiz-adv-x="255" 
d="M175 500v-500h-95v500h95zM-7 740h110l70 -150h-100z" />
    <glyph glyph-name="uni04561FFD.liga" unicode="&#x456;&#x1ffd;" horiz-adv-x="255" 
d="M175 500v-500h-95v500h95zM253 740l-80 -150h-100l70 150h110z" />
    <glyph glyph-name="i_titlocy.liga" unicode="&#x456;&#x483;" horiz-adv-x="255" 
d="M175 500v-500h-95v500h95zM302 760v-130h-268v-60h-80v130h268v60h80z" />
    <glyph glyph-name="omega_psilipneumatacy.liga" unicode="&#x461;&#x486;" horiz-adv-x="753" 
d="M603 474.5q53 -35.5 84 -98.5t31 -143q0 -121 -53 -182t-140 -61q-50 0 -88 23t-60 68q-23 -45 -61 -68t-88 -23q-87 0 -140 61t-53 182q0 80 31 143t84 98.5t119 35.5v-88q-38 0 -69 -25t-49 -68t-18 -96q0 -80 26 -117.5t69 -37.5q47 0 74 35t27 113v117h95v-117
q0 -78 27 -113t74 -35q43 0 69 37.5t26 117.5q0 53 -18 96t-49 68t-69 25v88q66 0 119 -35.5zM333 623h19q12 0 19 5.5t7 14.5q0 10 -7 16t-19 6h-56v65h74q39 0 62.5 -20.5t23.5 -54.5t-23.5 -54.5t-62.5 -20.5h-37v43z" />
    <glyph glyph-name="uni04611FFD.liga" unicode="&#x461;&#x1ffd;" horiz-adv-x="753" 
d="M603 474.5q53 -35.5 84 -98.5t31 -143q0 -121 -53 -182t-140 -61q-50 0 -88 23t-60 68q-23 -45 -61 -68t-88 -23q-87 0 -140 61t-53 182q0 80 31 143t84 98.5t119 35.5v-88q-38 0 -69 -25t-49 -68t-18 -96q0 -80 26 -117.5t69 -37.5q47 0 74 35t27 113v117h95v-117
q0 -78 27 -113t74 -35q43 0 69 37.5t26 117.5q0 53 -18 96t-49 68t-69 25v88q66 0 119 -35.5zM502 730l-80 -150h-100l70 150h110z" />
    <glyph glyph-name="yat_palatalizationcy.liga" unicode="&#x463;&#x484;" horiz-adv-x="590" 
d="M515.5 259.5q44.5 -42.5 44.5 -108.5t-44.5 -108.5t-123.5 -42.5h-237v410h-145v90h145v205h95v-205h215v-90h-215v-108h142q79 0 123.5 -42.5zM441 100q21 17 21 51t-21 51t-62 17h-129v-136h129q41 0 62 17zM336 835q50 -41 56 -110h-82q-5 38 -32 59.5t-70 21.5
t-70 -21.5t-32 -59.5h-82q6 69 56 110t128 41t128 -41z" />
    <glyph glyph-name="uni04631FEF.liga" unicode="&#x463;&#x1fef;" horiz-adv-x="590" 
d="M515.5 259.5q44.5 -42.5 44.5 -108.5t-44.5 -108.5t-123.5 -42.5h-237v410h-145v90h145v205h95v-205h215v-90h-215v-108h142q79 0 123.5 -42.5zM441 100q21 17 21 51t-21 51t-62 17h-129v-136h129q41 0 62 17zM310 740h110l70 -150h-100z" />
    <glyph glyph-name="uni04631FFD.liga" unicode="&#x463;&#x1ffd;" horiz-adv-x="590" 
d="M515.5 259.5q44.5 -42.5 44.5 -108.5t-44.5 -108.5t-123.5 -42.5h-237v410h-145v90h145v205h95v-205h215v-90h-215v-108h142q79 0 123.5 -42.5zM441 100q21 17 21 51t-21 51t-62 17h-129v-136h129q41 0 62 17zM480 740l-80 -150h-100l70 150h110z" />
    <glyph glyph-name="uni04671FCE.liga" unicode="&#x467;&#x1fce;" horiz-adv-x="604" 
d="M432 129h-85v-129h-90v129h-88l-59 -129h-100l236 500h113l235 -500h-103zM395 210l-94 205l-95 -205h189zM172 623h19q12 0 19 5.5t7 14.5q0 10 -7 16t-19 6h-56v65h74q39 0 62.5 -20.5t23.5 -54.5t-23.5 -54.5t-62.5 -20.5h-37v43zM487 730l-80 -150h-100l70 150h110z
" />
    <glyph glyph-name="yuslittle_palatalizationcy.liga" unicode="&#x467;&#x484;" horiz-adv-x="604" 
d="M432 129h-85v-129h-90v129h-88l-59 -129h-100l236 500h113l235 -500h-103zM395 210l-94 205l-95 -205h189zM423 695q50 -41 56 -110h-82q-5 38 -32 59.5t-70 21.5t-70 -21.5t-32 -59.5h-82q6 69 56 110t128 41t128 -41z" />
    <glyph glyph-name="yuslittle_psilipneumatacy.liga" unicode="&#x467;&#x486;" horiz-adv-x="604" 
d="M432 129h-85v-129h-90v129h-88l-59 -129h-100l236 500h113l235 -500h-103zM395 210l-94 205l-95 -205h189zM258 623h19q12 0 19 5.5t7 14.5q0 10 -7 16t-19 6h-56v65h74q39 0 62.5 -20.5t23.5 -54.5t-23.5 -54.5t-62.5 -20.5h-37v43z" />
    <glyph glyph-name="uni04671FEF.liga" unicode="&#x467;&#x1fef;" horiz-adv-x="604" 
d="M432 129h-85v-129h-90v129h-88l-59 -129h-100l236 500h113l235 -500h-103zM395 210l-94 205l-95 -205h189zM167 730h110l70 -150h-100z" />
    <glyph glyph-name="uni04671FFD.liga" unicode="&#x467;&#x1ffd;" horiz-adv-x="604" 
d="M432 129h-85v-129h-90v129h-88l-59 -129h-100l236 500h113l235 -500h-103zM395 210l-94 205l-95 -205h189zM427 730l-80 -150h-100l70 150h110z" />
    <glyph glyph-name="ksi_titlocy.liga" unicode="&#x46f;&#x483;" horiz-adv-x="506" 
d="M165.5 -11q-17.5 -11 -17.5 -33q0 -23 16.5 -33.5t58.5 -10.5h158l1 -82h-171q-81 0 -118 33.5t-37 90.5q0 55 40 89.5t115 34.5h61q50 0 80 17t30 47q0 27 -24 46.5t-82 19.5h-87v82h83q52 0 74.5 19t22.5 46q0 34 -30.5 54t-83.5 20q-51 0 -84.5 -19t-43.5 -60h-94
q11 63 58 103.5t115 52.5h-4l-140 150h110l80 -92l80 92h110l-139 -149q74 -10 118 -48.5t44 -95.5q0 -33 -18 -61.5t-54 -45.5q83 -33 83 -113q0 -67 -50 -105t-132 -38h-71q-40 0 -57.5 -11zM431 890v-130h-268v-60h-80v130h268v60h80z" />
    <glyph glyph-name="psi_titlocy.liga" unicode="&#x471;&#x483;" horiz-adv-x="721" 
d="M506 0h-98v-170h-95v170h-98l-215 500h106l164 -410h43v615h95v-615h47l163 410h103zM534 890v-130h-268v-60h-80v130h268v60h80z" />
    <glyph glyph-name="fita_titlocy.liga" unicode="&#x473;&#x483;" horiz-adv-x="600" 
d="M434.5 475.5q60.5 -34.5 95.5 -94t35 -131.5t-35 -131.5t-95.5 -94t-133.5 -34.5q-74 0 -135 34.5t-96 94t-35 131.5t35 131.5t96 94t135 34.5q73 0 133.5 -34.5zM197 386.5q-45 -35.5 -59 -92.5h324q-14 57 -58 92.5t-103 35.5t-104 -35.5zM406 115.5q45 37.5 57 95.5
h-326q13 -58 58 -95.5t106 -37.5q60 0 105 37.5zM477 750v-130h-268v-60h-80v130h268v60h80z" />
    <glyph glyph-name="izhitsa_palatalizationcy.liga" unicode="&#x475;&#x484;" horiz-adv-x="574" 
d="M462.5 477.5q29.5 25.5 76.5 25.5q16 0 32 -3v-90h-24q-18 0 -31 -12.5t-20 -30.5l-145 -367h-126l-215 500h106l176 -415l123 319q18 48 47.5 73.5zM413 695q50 -41 56 -110h-82q-5 38 -32 59.5t-70 21.5t-70 -21.5t-32 -59.5h-82q6 69 56 110t128 41t128 -41z" />
    <glyph glyph-name="uni04751FFD.liga" unicode="&#x475;&#x1ffd;" horiz-adv-x="574" 
d="M462.5 477.5q29.5 25.5 76.5 25.5q16 0 32 -3v-90h-24q-18 0 -31 -12.5t-20 -30.5l-145 -367h-126l-215 500h106l176 -415l123 319q18 48 47.5 73.5zM417 730l-80 -150h-100l70 150h110z" />
    <glyph glyph-name="uni04791FCE.liga" unicode="&#x479;&#x1fce;" horiz-adv-x="1136" 
d="M166 24.5q-61 34.5 -96 94t-35 131.5t35 131.5t96 94t135 34.5q73 0 133.5 -34.5t95.5 -94t35 -131.5t-35 -131.5t-95.5 -94t-133.5 -34.5q-74 0 -135 34.5zM385 100.5q38 22.5 60 62t22 87.5t-22 87.5t-60 62t-84 22.5q-47 0 -85.5 -22.5t-60.5 -62t-22 -87.5t22 -87.5
t60.5 -62t85.5 -22.5q46 0 84 22.5zM1123 500l-243 -556q-19 -51 -53 -83.5t-100 -32.5q-47 0 -73 2v90q28 -2 67 -2q28 0 44.5 15t27.5 41l15 35l-243 491h111l179 -384l168 384h100zM714 633h19q12 0 19 5.5t7 14.5q0 10 -7 16t-19 6h-56v65h74q39 0 62.5 -20.5
t23.5 -54.5t-23.5 -54.5t-62.5 -20.5h-37v43zM1029 740l-80 -150h-100l70 150h110z" />
    <glyph glyph-name="uk_psilipneumatacy.liga" unicode="&#x479;&#x486;" horiz-adv-x="1136" 
d="M166 24.5q-61 34.5 -96 94t-35 131.5t35 131.5t96 94t135 34.5q73 0 133.5 -34.5t95.5 -94t35 -131.5t-35 -131.5t-95.5 -94t-133.5 -34.5q-74 0 -135 34.5zM385 100.5q38 22.5 60 62t22 87.5t-22 87.5t-60 62t-84 22.5q-47 0 -85.5 -22.5t-60.5 -62t-22 -87.5t22 -87.5
t60.5 -62t85.5 -22.5q46 0 84 22.5zM1123 500l-243 -556q-19 -51 -53 -83.5t-100 -32.5q-47 0 -73 2v90q28 -2 67 -2q28 0 44.5 15t27.5 41l15 35l-243 491h111l179 -384l168 384h100zM800 633h19q12 0 19 5.5t7 14.5q0 10 -7 16t-19 6h-56v65h74q39 0 62.5 -20.5
t23.5 -54.5t-23.5 -54.5t-62.5 -20.5h-37v43z" />
    <glyph glyph-name="uniA6571FCE.liga" unicode="&#xa657;&#x1fce;" horiz-adv-x="803" 
d="M772 90v-90h-48q-37 0 -58 18.5t-25 53.5q-32 -37 -82.5 -59.5t-106.5 -22.5q-81 0 -125.5 40t-44.5 107q0 40 21 73h-128v-210h-95v500h95v-209h268l22 3l56 6q47 5 70 12.5t29.5 16.5t6.5 24q0 34 -32.5 53.5t-89.5 19.5q-37 0 -71 -19.5t-47 -55.5h-101
q14 70 76 114.5t148 44.5q95 0 156 -52t61 -149v-192q0 -13 7 -20t19 -7h19zM550 91.5q41 19.5 65.5 52t24.5 69.5v45q-34 -26 -108 -34l-56 -6q-56 -6 -78 -27t-22 -53q0 -30 22.5 -48t63.5 -18q47 0 88 19.5zM380 623h19q12 0 19 5.5t7 14.5q0 10 -7 16t-19 6h-56v65h74
q39 0 62.5 -20.5t23.5 -54.5t-23.5 -54.5t-62.5 -20.5h-37v43zM695 730l-80 -150h-100l70 150h110z" />
    <glyph glyph-name="iotifieda_psilipneumatacy.liga" unicode="&#xa657;&#x486;" horiz-adv-x="803" 
d="M772 90v-90h-48q-37 0 -58 18.5t-25 53.5q-32 -37 -82.5 -59.5t-106.5 -22.5q-81 0 -125.5 40t-44.5 107q0 40 21 73h-128v-210h-95v500h95v-209h268l22 3l56 6q47 5 70 12.5t29.5 16.5t6.5 24q0 34 -32.5 53.5t-89.5 19.5q-37 0 -71 -19.5t-47 -55.5h-101
q14 70 76 114.5t148 44.5q95 0 156 -52t61 -149v-192q0 -13 7 -20t19 -7h19zM550 91.5q41 19.5 65.5 52t24.5 69.5v45q-34 -26 -108 -34l-56 -6q-56 -6 -78 -27t-22 -53q0 -30 22.5 -48t63.5 -18q47 0 88 19.5zM466 623h19q12 0 19 5.5t7 14.5q0 10 -7 16t-19 6h-56v65h74
q39 0 62.5 -20.5t23.5 -54.5t-23.5 -54.5t-62.5 -20.5h-37v43z" />
    <glyph glyph-name="uniA6571FCD.liga" unicode="&#xa657;&#x1fcd;" horiz-adv-x="803" 
d="M772 90v-90h-48q-37 0 -58 18.5t-25 53.5q-32 -37 -82.5 -59.5t-106.5 -22.5q-81 0 -125.5 40t-44.5 107q0 40 21 73h-128v-210h-95v500h95v-209h268l22 3l56 6q47 5 70 12.5t29.5 16.5t6.5 24q0 34 -32.5 53.5t-89.5 19.5q-37 0 -71 -19.5t-47 -55.5h-101
q14 70 76 114.5t148 44.5q95 0 156 -52t61 -149v-192q0 -13 7 -20t19 -7h19zM550 91.5q41 19.5 65.5 52t24.5 69.5v45q-34 -26 -108 -34l-56 -6q-56 -6 -78 -27t-22 -53q0 -30 22.5 -48t63.5 -18q47 0 88 19.5zM380 623h19q12 0 19 5.5t7 14.5q0 10 -7 16t-19 6h-56v65h74
q39 0 62.5 -20.5t23.5 -54.5t-23.5 -54.5t-62.5 -20.5h-37v43zM509 730h110l70 -150h-100z" />
    <glyph glyph-name="uniA64B1FFD.liga" unicode="&#xa64b;&#x1ffd;" horiz-adv-x="562" 
d="M497 304.5q30 -47.5 30 -104.5q0 -61 -31 -109t-87 -74.5t-128 -26.5t-128 26.5t-87 74.5t-31 109q0 57 30 104.5t80 72.5q-49 25 -78 73.5t-29 109.5v70h93v-67q0 -64 41.5 -104t108.5 -40t108.5 40t41.5 104v142h93v-145q0 -61 -29 -109.5t-78 -73.5q50 -25 80 -72.5z
M388.5 113q42.5 38 42.5 96t-42.5 95.5t-107.5 37.5t-107.5 -37.5t-42.5 -95.5t42.5 -96t107.5 -38t107.5 38zM406 870l-80 -150h-100l70 150h110z" />
    <glyph glyph-name="ukMonograph_palatalizationcy.liga" unicode="&#xa64b;&#x484;" horiz-adv-x="562" 
d="M497 304.5q30 -47.5 30 -104.5q0 -61 -31 -109t-87 -74.5t-128 -26.5t-128 26.5t-87 74.5t-31 109q0 57 30 104.5t80 72.5q-49 25 -78 73.5t-29 109.5v70h93v-67q0 -64 41.5 -104t108.5 -40t108.5 40t41.5 104v142h93v-145q0 -61 -29 -109.5t-78 -73.5q50 -25 80 -72.5z
M388.5 113q42.5 38 42.5 96t-42.5 95.5t-107.5 37.5t-107.5 -37.5t-42.5 -95.5t42.5 -96t107.5 -38t107.5 38zM402 835q50 -41 56 -110h-82q-5 38 -32 59.5t-70 21.5t-70 -21.5t-32 -59.5h-82q6 69 56 110t128 41t128 -41z" />
    <glyph glyph-name="uniA64B1FEF.liga" unicode="&#xa64b;&#x1fef;" horiz-adv-x="562" 
d="M497 304.5q30 -47.5 30 -104.5q0 -61 -31 -109t-87 -74.5t-128 -26.5t-128 26.5t-87 74.5t-31 109q0 57 30 104.5t80 72.5q-49 25 -78 73.5t-29 109.5v70h93v-67q0 -64 41.5 -104t108.5 -40t108.5 40t41.5 104v142h93v-145q0 -61 -29 -109.5t-78 -73.5q50 -25 80 -72.5z
M388.5 113q42.5 38 42.5 96t-42.5 95.5t-107.5 37.5t-107.5 -37.5t-42.5 -95.5t42.5 -96t107.5 -38t107.5 38zM146 870h110l70 -150h-100z" />
    <glyph glyph-name="uni04070407.liga" unicode="&#x407;&#x407;" horiz-adv-x="560" 
d="M80 890v-110h-110v110h110zM250 890v-110h-110v110h110zM420 890v-110h-110v110h110zM590 890v-110h-110v110h110zM190 700v-700h-100v700h100zM470 700v-700h-100v700h100z" />
    <glyph glyph-name="uni04560457.liga" unicode="&#x456;&#x457;" horiz-adv-x="510" 
d="M181 700v-110h-106v110h106zM362 700v-110h-110v110h110zM543 700v-110h-110v110h110zM175 500v-500h-95v500h95zM430 500v-500h-95v500h95z" />
    <glyph glyph-name="uni04570457.liga" unicode="&#x457;&#x457;" horiz-adv-x="475" 
d="M53 700v-110h-110v110h110zM213 700v-110h-110v110h110zM373 700v-110h-110v110h110zM533 700v-110h-110v110h110zM175 500v-500h-95v500h95zM430 500v-500h-95v500h95z" />
    <glyph glyph-name="uni047A1FFD.liga" unicode="&#x47a;&#x1ffd;" horiz-adv-x="840" 
d="M752.5 179.5q-42.5 -77.5 -117 -126t-167.5 -57.5v-56h-96v56q-93 9 -167.5 57.5t-117 126t-42.5 170.5t42.5 170.5t117 126t167.5 57.5v56h96v-56q93 -9 167.5 -57.5t117 -126t42.5 -170.5t-42.5 -170.5zM582 134q51 36 79.5 92.5t28.5 123.5t-28.5 123.5t-79.5 92.5
t-114 45v-71h-96v71q-63 -9 -114 -45t-79.5 -92.5t-28.5 -123.5t28.5 -123.5t79.5 -92.5t114 -45v71h96v-71q63 9 114 45zM545 930l-80 -150h-100l70 150h110z" />
    <glyph glyph-name="uni047A1FCE.liga" unicode="&#x47a;&#x1fce;" horiz-adv-x="840" 
d="M752.5 179.5q-42.5 -77.5 -117 -126t-167.5 -57.5v-56h-96v56q-93 9 -167.5 57.5t-117 126t-42.5 170.5t42.5 170.5t117 126t167.5 57.5v56h96v-56q93 -9 167.5 -57.5t117 -126t42.5 -170.5t-42.5 -170.5zM582 134q51 36 79.5 92.5t28.5 123.5t-28.5 123.5t-79.5 92.5
t-114 45v-71h-96v71q-63 -9 -114 -45t-79.5 -92.5t-28.5 -123.5t28.5 -123.5t79.5 -92.5t114 -45v71h96v-71q63 9 114 45zM290 823h19q12 0 19 5.5t7 14.5q0 10 -7 16t-19 6h-56v65h74q39 0 62.5 -20.5t23.5 -54.5t-23.5 -54.5t-62.5 -20.5h-37v43zM605 930l-80 -150h-100
l70 150h110z" />
    <glyph glyph-name="uni047A_psilipneumatacy.liga" unicode="&#x47a;&#x486;" horiz-adv-x="840" 
d="M752.5 179.5q-42.5 -77.5 -117 -126t-167.5 -57.5v-56h-96v56q-93 9 -167.5 57.5t-117 126t-42.5 170.5t42.5 170.5t117 126t167.5 57.5v56h96v-56q93 -9 167.5 -57.5t117 -126t42.5 -170.5t-42.5 -170.5zM582 134q51 36 79.5 92.5t28.5 123.5t-28.5 123.5t-79.5 92.5
t-114 45v-71h-96v71q-63 -9 -114 -45t-79.5 -92.5t-28.5 -123.5t28.5 -123.5t79.5 -92.5t114 -45v71h96v-71q63 9 114 45zM376 823h19q12 0 19 5.5t7 14.5q0 10 -7 16t-19 6h-56v65h74q39 0 62.5 -20.5t23.5 -54.5t-23.5 -54.5t-62.5 -20.5h-37v43z" />
    <glyph glyph-name="uni047B1FCE.liga" unicode="&#x47b;&#x1fce;" horiz-adv-x="600" 
d="M555 127q-30 -56 -82.5 -91.5t-117.5 -43.5v-32h-90v32q-65 8 -117.5 44t-82.5 92t-30 122t30 122t82.5 92t117.5 44v32h90v-32q65 -8 117.5 -43.5t82.5 -91.5t30 -123t-30 -123zM451 135q36 47 36 115t-36 115t-96 55v-31h-90v31q-60 -9 -96 -55.5t-36 -114.5t36 -114.5
t96 -55.5v31h90v-31q60 8 96 55zM180 623h19q12 0 19 5.5t7 14.5q0 10 -7 16t-19 6h-56v65h74q39 0 62.5 -20.5t23.5 -54.5t-23.5 -54.5t-62.5 -20.5h-37v43zM495 730l-80 -150h-100l70 150h110z" />
    <glyph glyph-name="uni047B_psilipneumatacy.liga" unicode="&#x47b;&#x486;" horiz-adv-x="600" 
d="M555 127q-30 -56 -82.5 -91.5t-117.5 -43.5v-32h-90v32q-65 8 -117.5 44t-82.5 92t-30 122t30 122t82.5 92t117.5 44v32h90v-32q65 -8 117.5 -43.5t82.5 -91.5t30 -123t-30 -123zM451 135q36 47 36 115t-36 115t-96 55v-31h-90v31q-60 -9 -96 -55.5t-36 -114.5t36 -114.5
t96 -55.5v31h90v-31q60 8 96 55zM266 623h19q12 0 19 5.5t7 14.5q0 10 -7 16t-19 6h-56v65h74q39 0 62.5 -20.5t23.5 -54.5t-23.5 -54.5t-62.5 -20.5h-37v43z" />
    <glyph glyph-name="uni047B_titlocy.liga" unicode="&#x47b;&#x483;" horiz-adv-x="600" 
d="M555 127q-30 -56 -82.5 -91.5t-117.5 -43.5v-32h-90v32q-65 8 -117.5 44t-82.5 92t-30 122t30 122t82.5 92t117.5 44v32h90v-32q65 -8 117.5 -43.5t82.5 -91.5t30 -123t-30 -123zM451 135q36 47 36 115t-36 115t-96 55v-31h-90v31q-60 -9 -96 -55.5t-36 -114.5t36 -114.5
t96 -55.5v31h90v-31q60 8 96 55zM484 750v-130h-268v-60h-80v130h268v60h80z" />
    <glyph glyph-name="uni20190457.liga" unicode="&#x2019;&#x457;" horiz-adv-x="381" 
d="M100 700l-30 -230h-70v230h100zM254 700v-110h-110v110h110zM414 700v-110h-110v110h110zM301 500v-500h-95v500h95z" />
    <glyph glyph-name=".notdef" horiz-adv-x="280" 
 />
    <glyph glyph-name=".null" horiz-adv-x="0" 
 />
    <glyph glyph-name="nonmarkingreturn" unicode="&#xd;" horiz-adv-x="280" 
 />
    <glyph glyph-name="space" unicode=" " horiz-adv-x="280" 
 />
    <glyph glyph-name="exclam" unicode="!" horiz-adv-x="290" 
d="M195 700v-490h-100v490h100zM200 110v-110h-110v110h110z" />
    <glyph glyph-name="quotedbl" unicode="&#x22;" horiz-adv-x="390" 
d="M170 700l-15 -230h-70l-15 230h100zM320 700l-15 -230h-70l-15 230h100z" />
    <glyph glyph-name="numbersign" unicode="#" horiz-adv-x="710" 
d="M537 435l-34 -170h136v-85h-153l-36 -180h-88l36 180h-154l-36 -180h-88l36 180h-136v85h153l34 170h-136v85h153l36 180h88l-36 -180h154l36 180h88l-36 -180h136v-85h-153zM449 435h-154l-34 -170h154z" />
    <glyph glyph-name="dollar" unicode="$" horiz-adv-x="587" 
d="M498.5 66.5q-58.5 -53.5 -154.5 -64.5v-92h-90v93q-92 11 -153.5 69t-76.5 151h91q22 -68 67.5 -99t120.5 -31q70 0 114 28.5t44 74.5q0 42 -32.5 67.5t-106.5 40.5l-68 14q-212 42 -212 194q0 77 58 127.5t154 58.5v82h90v-84q78 -13 133 -62t74 -128h-94q-18 49 -64 75
t-106 26q-69 0 -109 -27t-40 -73q0 -39 32 -63t100 -38l69 -12q113 -20 165.5 -69.5t52.5 -126.5q0 -78 -58.5 -131.5z" />
    <glyph glyph-name="percent" unicode="%" horiz-adv-x="760" 
d="M110.5 401.5q-37.5 21.5 -59 59.5t-21.5 85t21.5 84.5t59 58.5t84.5 21t84.5 -21t59 -58.5t21.5 -84.5t-21.5 -85t-59 -59.5t-84.5 -21.5t-84.5 21.5zM162 0h-92l528 700h92zM256 480.5q24 25.5 24 65.5q0 38 -24 63.5t-61 25.5t-61 -25.5t-24 -63.5q0 -40 24 -65.5
t61 -25.5t61 25.5zM480.5 11.5q-37.5 21.5 -59 59.5t-21.5 85t21.5 84.5t59 58.5t84.5 21t84.5 -21t59 -58.5t21.5 -84.5t-21.5 -85t-59 -59.5t-84.5 -21.5t-84.5 21.5zM626 90.5q24 25.5 24 65.5q0 38 -24 63.5t-61 25.5t-61 -25.5t-24 -63.5q0 -40 24 -65.5t61 -25.5
t61 25.5z" />
    <glyph glyph-name="ampersand" unicode="&#x26;" horiz-adv-x="662" 
d="M528 0l-71 73q-47 -40 -103 -61.5t-115 -21.5q-63 0 -111.5 24t-75 66.5t-26.5 98.5q0 58 33 103.5t105 89.5q-43 49 -62 87t-19 78q0 49 24.5 88.5t67.5 62t97 22.5q76 0 124.5 -46.5t48.5 -122.5q0 -46 -28.5 -87t-107.5 -96l147 -149q52 82 52 189h94q0 -71 -21 -136
t-60 -119l141 -143h-134zM202.5 598.5q-25.5 -23.5 -25.5 -60.5q0 -31 17.5 -59.5t52.5 -59.5q62 38 84 65.5t22 61.5q0 33 -24.5 54.5t-61.5 21.5q-39 0 -64.5 -23.5zM393 138l-167 171q-62 -36 -81 -63.5t-19 -54.5q0 -52 31.5 -78.5t88.5 -26.5q82 0 147 52z" />
    <glyph glyph-name="quotesingle" unicode="'" horiz-adv-x="240" 
d="M170 700l-15 -230h-70l-15 230h100z" />
    <glyph glyph-name="parenleft" unicode="(" horiz-adv-x="340" 
d="M96 551.5q31 97.5 89 178.5h85q-53 -82 -81.5 -179.5t-28.5 -200.5t28.5 -200.5t81.5 -179.5h-85q-58 81 -89 178.5t-31 201.5t31 201.5z" />
    <glyph glyph-name="parenright" unicode=")" horiz-adv-x="340" 
d="M244 148.5q-31 -97.5 -89 -178.5h-85q53 82 81.5 179.5t28.5 200.5t-28.5 200.5t-81.5 179.5h85q59 -81 89.5 -178.5t30.5 -201.5t-31 -201.5z" />
    <glyph glyph-name="asterisk" unicode="*" horiz-adv-x="422" 
d="M267 503l77 -106l-56 -41l-77 106l-77 -106l-56 41l77 106l-125 40l22 67l124 -41v131h70v-131l124 41l22 -67z" />
    <glyph glyph-name="plus" unicode="+" horiz-adv-x="700" 
d="M600 305h-205v-205h-90v205h-205v90h205v205h90v-205h205v-90z" />
    <glyph glyph-name="comma" unicode="," horiz-adv-x="240" 
d="M170 110l-30 -230h-70v230h100z" />
    <glyph glyph-name="hyphen" unicode="-" horiz-adv-x="430" 
d="M360 345v-90h-290v90h290z" />
    <glyph glyph-name="period" unicode="." horiz-adv-x="250" 
d="M180 110v-110h-110v110h110z" />
    <glyph glyph-name="slash" unicode="/" horiz-adv-x="470" 
d="M95 0h-95l375 700h95z" />
    <glyph glyph-name="zero" unicode="0" horiz-adv-x="700" 
d="M192 34.5q-68 44.5 -105 126t-37 189.5t37 189.5t105 126t158 44.5t158 -44.5t105 -126t37 -189.5t-37 -189.5t-105 -126t-158 -44.5t-158 44.5zM496.5 154q53.5 71 53.5 196t-53.5 196t-146.5 71t-146.5 -71t-53.5 -196t53.5 -196t146.5 -71t146.5 71z" />
    <glyph glyph-name="one" unicode="1" horiz-adv-x="370" 
d="M30 574l168 126h82v-700h-100v569l-150 -111v116z" />
    <glyph glyph-name="two" unicode="2" horiz-adv-x="608" 
d="M573 94v-94h-534l-3 85l307 239q62 48 92.5 89t30.5 90q0 52 -41.5 84t-104.5 32q-66 0 -112.5 -31.5t-58.5 -107.5h-104q6 70 44.5 122.5t99 80t131.5 27.5q77 0 133 -25.5t85 -70t29 -101.5q0 -55 -23 -100t-65.5 -85.5t-116.5 -97.5l-177 -136h388z" />
    <glyph glyph-name="three" unicode="3" 
d="M568 202q0 -65 -34 -113t-94 -73.5t-136 -25.5q-68 0 -127.5 28t-99 80t-48.5 121h98q39 -136 182 -136q77 0 119 32.5t42 87.5q0 46 -32.5 75.5t-109.5 29.5h-72v84h72q60 0 92.5 33t32.5 80q0 53 -40.5 82.5t-114.5 29.5q-57 0 -102 -33.5t-61 -93.5h-97q10 66 48 116
t95 77t121 27q75 0 132 -24t88 -68.5t31 -102.5q0 -49 -21.5 -88.5t-64.5 -65.5q101 -47 101 -159z" />
    <glyph glyph-name="four" unicode="4" 
d="M605 164h-120v-164h-100v164h-375v104l325 432h150v-441h120v-95zM385 259v370l-278 -370h278z" />
    <glyph glyph-name="five" unicode="5" horiz-adv-x="600" 
d="M500 405q66 -67 66 -177q0 -71 -33 -125t-92.5 -83.5t-137.5 -29.5q-67 0 -123.5 26.5t-94.5 74t-50 108.5h99q22 -59 66.5 -90t108.5 -31q74 0 116.5 41t42.5 113q0 70 -43.5 111t-120.5 41q-46 0 -82 -16.5t-58 -44.5h-107l51 377h427v-92h-354l-26 -199
q30 28 73.5 45.5t83.5 17.5q122 0 188 -67z" />
    <glyph glyph-name="six" unicode="6" horiz-adv-x="655" 
d="M488 434q59 -29 92.5 -81t33.5 -119q0 -72 -35 -127.5t-96.5 -86t-137.5 -30.5q-92 0 -157 45.5t-98.5 127t-33.5 187.5q0 109 34.5 190.5t98.5 125.5t150 44q97 0 167.5 -52t94.5 -134h-107q-24 49 -60.5 71t-95.5 22q-87 0 -139.5 -67t-52.5 -184q29 46 85.5 71.5
t123.5 25.5q74 0 133 -29zM468 123.5q47 41.5 47 111.5q0 63 -46 101.5t-122 38.5q-77 0 -123.5 -40t-46.5 -106q0 -40 20.5 -73.5t58 -53.5t86.5 -20q79 0 126 41.5z" />
    <glyph glyph-name="seven" unicode="7" horiz-adv-x="600" 
d="M570 700v-96l-356 -604h-106l362 608h-430v92h530z" />
    <glyph glyph-name="eight" unicode="8" horiz-adv-x="660" 
d="M572 284.5q28 -41.5 28 -94.5q0 -61 -34.5 -106.5t-95.5 -69.5t-140 -24t-140 24t-95.5 69.5t-34.5 106.5q0 53 28 94.5t82 66.5q-46 27 -69 70t-23 94q0 58 31.5 102.5t88.5 68.5t132 24t132 -24t88.5 -68.5t31.5 -102.5q0 -51 -23 -94t-69 -70q54 -25 82 -66.5z
M216.5 595q-41.5 -32 -41.5 -88q0 -57 41.5 -89.5t113.5 -32.5t113.5 32.5t41.5 89.5q0 56 -41.5 88t-113.5 32t-113.5 -32zM456 106q46 30 46 83q0 57 -46 89.5t-126 32.5t-126 -32.5t-46 -89.5q0 -53 46 -83t126 -30t126 30z" />
    <glyph glyph-name="nine" unicode="9" horiz-adv-x="655" 
d="M467 664.5q65 -45.5 98.5 -127t33.5 -187.5q0 -109 -34.5 -190.5t-98.5 -125.5t-150 -44q-97 0 -167.5 52t-94.5 134h107q24 -49 60.5 -71t95.5 -22q87 0 139.5 67t52.5 184q-29 -46 -85.5 -71.5t-123.5 -25.5q-74 0 -133 29t-92.5 81t-33.5 119q0 72 35 127.5t96.5 86
t137.5 30.5q92 0 157 -45.5zM431.5 365q46.5 40 46.5 106q0 40 -20.5 73.5t-58 53.5t-86.5 20q-79 0 -126 -41.5t-47 -111.5q0 -63 46 -101.5t122 -38.5q77 0 123.5 40z" />
    <glyph glyph-name="colon" unicode=":" horiz-adv-x="250" 
d="M180 110v-110h-110v110h110zM180 500v-110h-110v110h110z" />
    <glyph glyph-name="semicolon" unicode=";" horiz-adv-x="250" 
d="M170 110l-30 -230h-70v230h100zM180 500v-110h-110v110h110z" />
    <glyph glyph-name="less" unicode="&#x3c;" horiz-adv-x="700" 
d="M600 509l-377 -158l377 -158v-98l-500 210v90l500 210v-96z" />
    <glyph glyph-name="equal" unicode="=" horiz-adv-x="700" 
d="M600 295v-90h-500v90h500zM600 495v-90h-500v90h500z" />
    <glyph glyph-name="greater" unicode="&#x3e;" horiz-adv-x="700" 
d="M600 395v-90l-500 -210v96l377 158l-377 158v98z" />
    <glyph glyph-name="question" unicode="?" horiz-adv-x="562" 
d="M186 230q0 46 18.5 77t44.5 49t69 41q52 26 78 49.5t26 64.5q0 55 -46 79t-107 24q-58 0 -101.5 -25.5t-55.5 -78.5h-102q9 64 47.5 109t95.5 68t121 23q62 0 118.5 -21t93 -64.5t36.5 -106.5q0 -51 -20 -85.5t-48 -54.5t-73 -43q-35 -18 -53.5 -30t-31 -30t-12.5 -42
v-23h-98v20zM292 110v-110h-110v110h110z" />
    <glyph glyph-name="at" unicode="@" horiz-adv-x="820" 
d="M588 540v-257q0 -55 43 -55q35 0 49.5 45t14.5 97q0 77 -37 138t-102 96t-146 35t-146 -37.5t-102 -103.5t-37 -148t36 -148t99.5 -103.5t143.5 -37.5q44 0 81 9.5t60 25.5h117q-92 -106 -258 -106q-103 0 -184.5 46.5t-128 128.5t-46.5 185t47 185t130.5 128.5
t187.5 46.5t187.5 -44t130.5 -121.5t47 -174.5q0 -56 -17 -106.5t-51.5 -82t-84.5 -31.5q-28 0 -52.5 13.5t-36.5 40.5q-19 -26 -54.5 -40t-65.5 -14q-57 0 -102.5 26t-71.5 71.5t-26 102.5t24.5 102.5t68 71.5t97.5 26q32 0 62 -13.5t50 -34.5v38h73zM485.5 262.5
q31.5 34.5 31.5 87.5t-31.5 87.5t-79.5 34.5t-79.5 -34.5t-31.5 -87.5t31.5 -87.5t79.5 -34.5t79.5 34.5z" />
    <glyph glyph-name="A" unicode="A" horiz-adv-x="760" 
d="M566 160h-378l-69 -160h-109l314 700h112l314 -700h-115zM527 252l-149 345l-150 -345h299z" />
    <glyph glyph-name="B" unicode="B" horiz-adv-x="675" 
d="M605 290.5q25 -40.5 25 -92.5q0 -57 -26.5 -101.5t-77.5 -70.5t-122 -26h-314v700h313q68 0 117 -25t74.5 -68t25.5 -97q0 -50 -22 -89t-67 -64q49 -26 74 -66.5zM398 394q60 0 90.5 28.5t30.5 82.5q0 103 -121 103h-208v-214h208zM493 120q32 28 32 82q0 52 -32 78.5
t-94 26.5h-209v-215h209q62 0 94 28z" />
    <glyph glyph-name="C" unicode="C" horiz-adv-x="770" 
d="M92.5 532.5q47.5 82.5 129.5 130t182 47.5q77 0 144 -29.5t115.5 -84t71.5 -126.5h-111q-31 67 -87.5 105.5t-132.5 38.5q-71 0 -129 -35t-91.5 -95.5t-33.5 -133.5t33.5 -133.5t91.5 -95.5t129 -35q76 0 132.5 38.5t87.5 105.5h111q-23 -72 -71.5 -126.5t-115.5 -84
t-144 -29.5q-100 0 -182 47.5t-129.5 130t-47.5 182.5t47.5 182.5z" />
    <glyph glyph-name="D" unicode="D" horiz-adv-x="740" 
d="M524.5 654q82.5 -46 126.5 -125.5t44 -178.5t-44 -178.5t-126.5 -125.5t-194.5 -46h-240v700h240q112 0 194.5 -46zM468 127q59 31 90.5 88.5t31.5 134.5t-31.5 134.5t-90.5 88.5t-138 31h-140v-508h140q79 0 138 31z" />
    <glyph glyph-name="E" unicode="E" 
d="M190 606v-209h340v-94h-340v-209h370v-94h-470v700h470v-94h-370z" />
    <glyph glyph-name="F" unicode="F" horiz-adv-x="590" 
d="M190 604v-207h340v-94h-340v-303h-100v700h470v-96h-370z" />
    <glyph glyph-name="G" unicode="G" horiz-adv-x="770" 
d="M716 350v-195q-21 -45 -66.5 -82.5t-107.5 -60t-131 -22.5q-102 0 -185.5 47.5t-132 130t-48.5 182.5t47.5 182.5t129.5 130t182 47.5q105 0 189.5 -57t121.5 -153h-114q-31 53 -82 83.5t-115 30.5q-71 0 -129 -35t-91.5 -95.5t-33.5 -133.5t34.5 -133.5t94 -95.5
t132.5 -35q71 0 125.5 26t82.5 68v170h97z" />
    <glyph glyph-name="H" unicode="H" horiz-adv-x="780" 
d="M690 700v-700h-100v302h-400v-302h-100v700h100v-302h400v302h100z" />
    <glyph glyph-name="I" unicode="I" horiz-adv-x="280" 
d="M190 700v-700h-100v700h100z" />
    <glyph glyph-name="J" unicode="J" horiz-adv-x="310" 
d="M22 -74q88 0 88 110v664h100v-668q0 -105 -50.5 -153.5t-137.5 -48.5h-29v96h29z" />
    <glyph glyph-name="K" unicode="K" horiz-adv-x="699" 
d="M377.5 317.5q36.5 -30.5 93.5 -86.5q70 -69 113.5 -102t86.5 -33h13v-96h-23q-52 0 -99.5 24.5t-86 59.5t-91.5 90q-60 64 -100 95.5t-80 31.5h-14v-301h-100v700h100v-324l359 324h135l-380 -337q37 -15 73.5 -45.5z" />
    <glyph glyph-name="L" unicode="L" horiz-adv-x="575" 
d="M560 96v-96h-470v700h100v-604h370z" />
    <glyph glyph-name="M" unicode="M" horiz-adv-x="1006" 
d="M916 0h-98v575l-266 -575h-100l-264 570v-570h-98v700h144l271 -582l270 582h141v-700z" />
    <glyph glyph-name="N" unicode="N" horiz-adv-x="800" 
d="M710 700v-700h-110l-412 566v-566h-98v700h123l399 -553v553h98z" />
    <glyph glyph-name="O" unicode="O" horiz-adv-x="820" 
d="M225 37.5q-84 47.5 -132 130t-48 182.5t48 182.5t132 130t185 47.5t185 -47.5t132 -130t48 -182.5t-48 -182.5t-132 -130t-185 -47.5t-185 47.5zM541.5 121q59.5 35 94 95.5t34.5 133.5t-34.5 133.5t-94 95.5t-131.5 35t-131.5 -35t-94 -95.5t-34.5 -133.5t34.5 -133.5
t94 -95.5t131.5 -35t131.5 35z" />
    <glyph glyph-name="P" unicode="P" horiz-adv-x="650" 
d="M516.5 673.5q50.5 -26.5 77 -73t26.5 -105.5t-26.5 -105.5t-77 -73t-120.5 -26.5h-206v-290h-100v700h306q70 0 120.5 -26.5zM484 411.5q31 28.5 31 83.5t-31 83t-91 28h-203v-223h203q60 0 91 28.5z" />
    <glyph glyph-name="Q" unicode="Q" horiz-adv-x="820" 
d="M1010 -74v-96h-53q-76 0 -145 13t-127.5 32t-142.5 52q-77 29 -124 45.5t-102 31.5q-78 21 -139.5 70t-96.5 121.5t-35 159.5q0 99 48 180t132 128t185 47t185 -46.5t132 -126.5t48 -177q0 -76 -31 -146t-87.5 -120.5t-130.5 -68.5q92 -35 146 -53t123 -32t142 -14h73z
M184.5 216.5q34.5 -60.5 94 -95.5t131.5 -35t131.5 35t94 95.5t34.5 133.5t-34.5 133.5t-94 95.5t-131.5 35t-131.5 -35t-94 -95.5t-34.5 -133.5t34.5 -133.5z" />
    <glyph glyph-name="R" unicode="R" horiz-adv-x="684" 
d="M684 96v-96h-23q-50 0 -97.5 24t-87 58t-94.5 89q-64 65 -105 95.5t-80 30.5h-7v-297h-100v700h306q70 0 120.5 -25.5t77 -71.5t26.5 -104q0 -59 -26.5 -104.5t-77 -71.5t-120.5 -26h-18q25 -15 48.5 -35.5t57.5 -53.5q58 -56 99 -84t88 -28h13zM390 381q60 0 92.5 29.5
t32.5 84.5t-32.5 84.5t-92.5 29.5h-200v-228h200z" />
    <glyph glyph-name="S" unicode="S" horiz-adv-x="652" 
d="M129.5 50.5q-83.5 60.5 -101.5 168.5h100q25 -69 75.5 -101t134.5 -32q81 0 131 29.5t50 76.5q0 41 -37 66.5t-122 42.5l-76 14q-119 21 -178 72.5t-59 127.5q0 58 35 102t98 68.5t145 24.5q107 0 186 -52.5t104 -147.5h-105q-20 51 -71.5 77.5t-118.5 26.5
q-79 0 -124.5 -27.5t-45.5 -75.5q0 -39 36.5 -63t115.5 -38l76 -13q126 -21 185 -72t59 -131q0 -60 -36.5 -106t-101.5 -72t-149 -26q-122 0 -205.5 60.5z" />
    <glyph glyph-name="T" unicode="T" horiz-adv-x="630" 
d="M615 604h-250v-604h-100v604h-250v96h600v-96z" />
    <glyph glyph-name="U" unicode="U" horiz-adv-x="770" 
d="M229.5 28.5q-69.5 38.5 -109.5 106.5t-40 151v414h100v-414q0 -56 27 -102t73.5 -72t104.5 -26t104.5 26t73.5 72t27 102v414h100v-414q0 -83 -40 -151t-109.5 -106.5t-155.5 -38.5t-155.5 38.5z" />
    <glyph glyph-name="V" unicode="V" horiz-adv-x="760" 
d="M750 700l-306 -700h-129l-305 700h114l258 -596l258 596h110z" />
    <glyph glyph-name="W" unicode="W" horiz-adv-x="1106" 
d="M1086 700l-306 -700h-125l-102 235l-103 -235h-125l-305 700h112l258 -596l110 253l-150 343h112l93 -215l93 215h108l-148 -339l111 -257l259 596h108z" />
    <glyph glyph-name="X" unicode="X" horiz-adv-x="700" 
d="M568 0l-219 286l-218 -286h-121l277 356l-265 344h123l206 -268l204 268h122l-264 -339l277 -361h-122z" />
    <glyph glyph-name="Y" unicode="Y" horiz-adv-x="760" 
d="M750 700l-313 -737q-29 -69 -73 -101t-111 -32h-96v99h89q29 0 45 5.5t28 21t29 49.5l-338 695h114l278 -571l238 571h110z" />
    <glyph glyph-name="Z" unicode="Z" horiz-adv-x="670" 
d="M45 96l456 508h-446v96h570v-96l-456 -508h461v-96h-585v96z" />
    <glyph glyph-name="bracketleft" unicode="[" horiz-adv-x="340" 
d="M90 730h190v-92h-95v-576h95v-92h-190v760z" />
    <glyph glyph-name="backslash" unicode="\" horiz-adv-x="470" 
d="M95 700l375 -700h-95l-375 700h95z" />
    <glyph glyph-name="bracketright" unicode="]" horiz-adv-x="340" 
d="M60 -30v92h95v576h-95v92h190v-760h-190z" />
    <glyph glyph-name="underscore" unicode="_" horiz-adv-x="640" 
d="M570 -105v-90h-500v90h500z" />
    <glyph glyph-name="a" unicode="a" horiz-adv-x="564" 
d="M530 90v-90h-48q-37 0 -58 18.5t-25 53.5q-32 -37 -82.5 -59.5t-106.5 -22.5q-81 0 -125.5 40t-44.5 107q0 61 48 104.5t135 52.5l56 6q47 5 70 12.5t29.5 16.5t6.5 24q0 34 -32.5 53.5t-89.5 19.5q-37 0 -71 -19.5t-47 -55.5h-101q14 70 76 114.5t148 44.5q95 0 156 -52
t61 -149v-192q0 -13 7 -20t19 -7h19zM308 91.5q41 19.5 65.5 52t24.5 69.5v45q-34 -26 -108 -34l-56 -6q-56 -6 -78 -27t-22 -53q0 -30 22.5 -48t63.5 -18q47 0 88 19.5z" />
    <glyph glyph-name="b" unicode="b" horiz-adv-x="615" 
d="M464 476.5q54 -33.5 85 -92.5t31 -134t-31 -134t-85 -92.5t-120 -33.5q-50 0 -94 22.5t-75 62.5v-75h-95v705h90v-286q32 43 77 67t97 24q66 0 120 -33.5zM407 100q35 22 55 61.5t20 88.5t-20 88.5t-55 61.5t-79 22t-80 -22t-56 -61.5t-20 -88.5t20 -88.5t56 -61.5
t80 -22t79 22z" />
    <glyph glyph-name="c" unicode="c" horiz-adv-x="563" 
d="M70 381.5q35 59.5 96 94t135 34.5q83 0 149.5 -48.5t87.5 -126.5h-104q-17 40 -54.5 63.5t-83.5 23.5q-47 0 -84 -22.5t-58 -62t-21 -87.5t21 -87.5t58 -62t84 -22.5q46 0 83.5 23.5t54.5 63.5h104q-21 -78 -87.5 -126.5t-149.5 -48.5q-74 0 -135 34.5t-96 94t-35 131.5
t35 131.5z" />
    <glyph glyph-name="d" unicode="d" horiz-adv-x="615" 
d="M535 705v-705h-95v75q-31 -40 -75 -62.5t-94 -22.5q-66 0 -120 33.5t-85 92.5t-31 134t31 134t85 92.5t120 33.5q52 0 97 -24t77 -67v286h90zM367 100q36 22 56 61.5t20 88.5t-20 88.5t-56 61.5t-80 22t-79 -22t-55 -61.5t-20 -88.5t20 -88.5t55 -61.5t79 -22t80 22z" />
    <glyph glyph-name="e" unicode="e" horiz-adv-x="580" 
d="M425.5 477q57.5 -33 88.5 -93.5t31 -141.5q0 -21 -1 -31h-410q10 -58 54.5 -95.5t103.5 -37.5q97 0 138 71h98q-24 -70 -89 -114.5t-147 -44.5q-73 0 -132 33.5t-92 93t-33 133.5t33 133.5t91.5 93t131.5 33.5q77 0 134.5 -33zM187.5 389q-42.5 -37 -52.5 -95h307
q-6 60 -48.5 96t-104.5 36q-59 0 -101.5 -37z" />
    <glyph glyph-name="f" unicode="f" horiz-adv-x="365" 
d="M231.5 603q-16.5 -17 -16.5 -49v-54h140v-90h-140v-410h-95v410h-100v90h100v54q0 77 42 116.5t124 39.5q40 0 69 -9v-87q-28 6 -66 6q-41 0 -57.5 -17z" />
    <glyph glyph-name="g" unicode="g" horiz-adv-x="615" 
d="M535 500v-460q0 -106 -65.5 -163t-177.5 -57q-92 0 -152.5 41.5t-73.5 114.5h94q11 -37 46 -56.5t91 -19.5q143 0 143 130v58q-32 -39 -77 -61t-97 -22q-65 0 -118 33t-83 91t-30 129q0 70 30.5 128t83 91t117.5 33q54 0 100.5 -23.5t78.5 -65.5v79h90zM367 109.5
q36 21.5 56 59.5t20 86t-20 86t-56 59.5t-80 21.5t-79 -21.5t-55 -59.5t-20 -86t20 -86t55 -59.5t79 -21.5t80 21.5z" />
    <glyph glyph-name="h" unicode="h" 
d="M441.5 484q50.5 -26 79.5 -78.5t29 -128.5v-277h-95v275q0 66 -39 105t-98 39q-40 0 -73 -21t-51.5 -56.5t-18.5 -76.5v-265h-95v705h90v-272q29 35 71 56t87 21q63 0 113.5 -26z" />
    <glyph glyph-name="i" unicode="i" horiz-adv-x="255" 
d="M175 500v-500h-95v500h95zM181 700v-110h-106v110h106z" />
    <glyph glyph-name="j" unicode="j" horiz-adv-x="265" 
d="M191 700v-110h-106v110h106zM185 500v-524q0 -156 -159 -156q-39 0 -66 9v87q25 -6 61 -6q38 0 53.5 17t15.5 49v524h95z" />
    <glyph glyph-name="k" unicode="k" horiz-adv-x="548" 
d="M543 89v-89h-27q-43 0 -81.5 18.5t-68.5 44t-70 65.5t-64 58.5t-47 18.5h-10v-205h-95v705h95v-426l239 221h119l-262 -238q27 -12 53.5 -33t62.5 -54q49 -44 79.5 -65t61.5 -21h15z" />
    <glyph glyph-name="l" unicode="l" horiz-adv-x="255" 
d="M175 705v-705h-95v705h95z" />
    <glyph glyph-name="m" unicode="m" horiz-adv-x="975" 
d="M802.5 484q47.5 -26 75 -78.5t27.5 -128.5v-277h-95v275q0 66 -37.5 105t-94.5 39q-62 0 -100 -44t-38 -108v-267h-95v275q0 66 -37.5 105t-94.5 39q-62 0 -100 -44t-38 -108v-267h-95v500h90v-79q27 41 69.5 65t90.5 24q59 0 106.5 -25.5t73.5 -75.5q29 46 78.5 73.5
t106.5 27.5q60 0 107.5 -26z" />
    <glyph glyph-name="n" unicode="n" 
d="M444.5 484q48.5 -26 77 -78.5t28.5 -128.5v-277h-95v275q0 66 -39 105t-98 39q-43 0 -75.5 -20.5t-50 -55.5t-17.5 -76v-267h-95v500h90v-80q28 41 71.5 65.5t93.5 24.5q61 0 109.5 -26z" />
    <glyph glyph-name="o" unicode="o" horiz-adv-x="600" 
d="M166 24.5q-61 34.5 -96 94t-35 131.5t35 131.5t96 94t135 34.5q73 0 133.5 -34.5t95.5 -94t35 -131.5t-35 -131.5t-95.5 -94t-133.5 -34.5q-74 0 -135 34.5zM385 100.5q38 22.5 60 62t22 87.5t-22 87.5t-60 62t-84 22.5q-47 0 -85.5 -22.5t-60.5 -62t-22 -87.5t22 -87.5
t60.5 -62t85.5 -22.5q46 0 84 22.5z" />
    <glyph glyph-name="p" unicode="p" horiz-adv-x="615" 
d="M464 476.5q54 -33.5 85 -92.5t31 -134t-31 -134t-85 -92.5t-120 -33.5q-50 0 -94 22.5t-75 62.5v-245h-95v670h90v-81q32 43 77 67t97 24q66 0 120 -33.5zM407 100q35 22 55 61.5t20 88.5t-20 88.5t-55 61.5t-79 22t-80 -22t-56 -61.5t-20 -88.5t20 -88.5t56 -61.5
t80 -22t79 22z" />
    <glyph glyph-name="q" unicode="q" horiz-adv-x="615" 
d="M535 500v-670h-95v245q-31 -40 -75 -62.5t-94 -22.5q-66 0 -120 33.5t-85 92.5t-31 134t31 134t85 92.5t120 33.5q52 0 97 -24t77 -67v81h90zM367 100q36 22 56 61.5t20 88.5t-20 88.5t-56 61.5t-80 22t-79 -22t-55 -61.5t-20 -88.5t20 -88.5t55 -61.5t79 -22t80 22z" />
    <glyph glyph-name="r" unicode="r" horiz-adv-x="400" 
d="M380 507v-93q-18 4 -57 4q-44 0 -77.5 -20t-52 -53.5t-18.5 -73.5v-271h-95v500h90v-77q28 40 71.5 63.5t93.5 23.5q24 0 45 -3z" />
    <glyph glyph-name="s" unicode="s" horiz-adv-x="509" 
d="M97.5 34.5q-64.5 44.5 -74.5 123.5h95q13 -43 48.5 -63.5t93.5 -20.5q54 0 87 17.5t33 45.5t-22.5 44.5t-83.5 26.5l-57 10q-180 32 -180 145q0 66 58 106.5t152 40.5q85 0 145 -39.5t76 -109.5h-101q-12 30 -46 46.5t-75 16.5q-52 0 -82.5 -15.5t-30.5 -42.5
q0 -24 23 -39.5t74 -23.5l58 -10q102 -17 144 -55.5t42 -100.5q0 -66 -58.5 -106.5t-159.5 -40.5q-94 0 -158.5 44.5z" />
    <glyph glyph-name="t" unicode="t" horiz-adv-x="375" 
d="M205 410v-264q0 -32 15.5 -49t53.5 -17q36 0 61 6v-87q-27 -9 -66 -9q-159 0 -159 156v264h-100v90h100v130h95v-130h140v-90h-140z" />
    <glyph glyph-name="u" unicode="u" 
d="M540 500v-500h-90v80q-28 -41 -71.5 -65.5t-93.5 -24.5q-61 0 -109.5 26t-77 78.5t-28.5 128.5v277h95v-275q0 -66 39 -105t98 -39q43 0 75.5 20.5t50 55.5t17.5 76v267h95z" />
    <glyph glyph-name="v" unicode="v" horiz-adv-x="574" 
d="M564 500l-215 -500h-124l-215 500h106l173 -406l172 406h103z" />
    <glyph glyph-name="w" unicode="w" horiz-adv-x="834" 
d="M809 500l-152 -500h-116l-124 385l-128 -385h-113l-151 500h103l107 -394l131 394h105l129 -393l107 393h102z" />
    <glyph glyph-name="x" unicode="x" horiz-adv-x="544" 
d="M416 0l-145 189l-146 -189h-115l200 254l-192 246h118l137 -179l134 179h118l-191 -243l200 -257h-118z" />
    <glyph glyph-name="y" unicode="y" horiz-adv-x="576" 
d="M563 500l-243 -556q-19 -51 -53 -83.5t-100 -32.5q-47 0 -73 2v90q28 -2 67 -2q28 0 44.5 15t27.5 41l15 35l-243 491h111l179 -384l168 384h100z" />
    <glyph glyph-name="z" unicode="z" horiz-adv-x="507" 
d="M472 90v-90h-437v90l315 320h-306v90h423v-90l-314 -320h319z" />
    <glyph glyph-name="braceleft" unicode="{" horiz-adv-x="340" 
d="M95.5 411.5q14.5 15.5 14.5 47.5v171q0 42 29 71t71 29h60v-92h-38q-34 0 -34 -34v-139q0 -53 -16 -79t-43 -36q27 -10 43 -36t16 -79v-139q0 -34 34 -34h38v-92h-60q-42 0 -71 29t-29 71v171q0 32 -14.5 47.5t-55.5 15.5v92q41 0 55.5 15.5z" />
    <glyph glyph-name="bar" unicode="|" horiz-adv-x="275" 
d="M90 730h95v-760h-95v760z" />
    <glyph glyph-name="braceright" unicode="}" horiz-adv-x="340" 
d="M300 304q-41 0 -55.5 -15.5t-14.5 -47.5v-171q0 -42 -29 -71t-71 -29h-60v92h38q34 0 34 34v139q0 53 16 79t43 36q-27 10 -43 36t-16 79v139q0 34 -34 34h-38v92h60q42 0 71 -29t29 -71v-171q0 -32 14.5 -47.5t55.5 -15.5v-92z" />
    <glyph glyph-name="asciitilde" unicode="~" horiz-adv-x="700" 
d="M164 324q-35 -15 -64 -38v97q68 42 136 42q34 0 64 -9t72 -27q35 -14 54.5 -20.5t38.5 -6.5q36 0 71 15t64 38v-97q-68 -42 -136 -42q-34 0 -64 9t-72 27q-35 14 -54.5 20.5t-38.5 6.5q-36 0 -71 -15z" />
    <glyph glyph-name="uni00A0" unicode="&#xa0;" horiz-adv-x="280" 
 />
    <glyph glyph-name="exclamdown" unicode="&#xa1;" horiz-adv-x="290" 
d="M90 390v110h110v-110h-110zM95 -200v490h100v-490h-100z" />
    <glyph glyph-name="cent" unicode="&#xa2;" horiz-adv-x="668" 
d="M425 196.5q38 23.5 58 63.5h105q-22 -70 -76.5 -117t-127.5 -59v-94h-90v94q-64 10 -115 47t-80 94.5t-29 124.5t29 124.5t80 94.5t115 47v94h90v-94q73 -12 127.5 -59t76.5 -117h-105q-20 40 -58 63.5t-86 23.5q-76 0 -123.5 -49t-47.5 -128t47.5 -128t123.5 -49
q48 0 86 23.5z" />
    <glyph glyph-name="sterling" unicode="&#xa3;" horiz-adv-x="570" 
d="M542 92v-92h-522v92h62v214h-62v89h62v94q0 62 29.5 112.5t81 79.5t115.5 29q62 0 112 -30t78.5 -83t28.5 -118h-100q0 59 -33.5 97t-85.5 38q-55 0 -90.5 -35t-35.5 -90v-94h172v-89h-172v-214h360z" />
    <glyph glyph-name="yen" unicode="&#xa5;" horiz-adv-x="700" 
d="M550 230h20v-90h-58l-75 -177q-29 -69 -73 -101t-111 -32h-96v99h89q29 0 45 5.5t28 21t29 49.5l-66 135h-152v90h108l-37 76h-71v90h28l-148 304h114l148 -304h17l36 -90h-9l37 -76h92l31 76h-101l39 90h100l126 304h110zM407 140h-10l5 -11z" />
    <glyph glyph-name="brokenbar" unicode="&#xa6;" horiz-adv-x="275" 
d="M90 730h95v-332h-95v332zM185 -30h-95v332h95v-332z" />
    <glyph glyph-name="dieresis" unicode="&#xa8;" horiz-adv-x="600" 
d="M250 890v-110h-110v110h110zM460 890v-110h-110v110h110z" />
    <glyph glyph-name="copyright" unicode="&#xa9;" horiz-adv-x="820" 
d="M222.5 36.5q-83.5 46.5 -130.5 128.5t-47 185t47 185t130.5 128.5t187.5 46.5t187.5 -46.5t130.5 -128.5t47 -185t-47 -185t-130.5 -128.5t-187.5 -46.5t-187.5 46.5zM556 98.5q65 37.5 102 103.5t37 148t-37 148t-102 103.5t-146 37.5t-146 -37.5t-102 -103.5t-37 -148
t37 -148t102 -103.5t146 -37.5t146 37.5zM239 452.5q26 45.5 71.5 71.5t102.5 26q60 0 109 -37.5t68 -95.5h-84q-16 25 -41.5 40t-52.5 15q-51 0 -84 -34.5t-33 -87.5t33 -87.5t84 -34.5q27 0 52.5 15t41.5 40h84q-19 -58 -68 -95.5t-109 -37.5q-57 0 -102.5 26t-71.5 71.5
t-26 102.5t26 102.5z" />
    <glyph glyph-name="guillemotleft" unicode="&#xab;" horiz-adv-x="555" 
d="M315 100h-112l-143 161v78l143 161h110l-173 -199zM515 100h-112l-143 161v78l143 161h110l-173 -199z" />
    <glyph glyph-name="logicalnot" unicode="&#xac;" horiz-adv-x="700" 
d="M600 395v-295h-90v205h-410v90h500z" />
    <glyph glyph-name="degree" unicode="&#xb0;" horiz-adv-x="326" 
d="M68.5 482.5q-38.5 38.5 -38.5 94.5t38.5 94.5t94.5 38.5t94.5 -38.5t38.5 -94.5t-38.5 -94.5t-94.5 -38.5t-94.5 38.5zM210 530q19 19 19 47t-19 47.5t-47 19.5t-47.5 -19t-19.5 -48q0 -28 19.5 -47t47.5 -19t47 19z" />
    <glyph glyph-name="plusminus" unicode="&#xb1;" horiz-adv-x="700" 
d="M600 405h-205v-205h-90v205h-205v90h205v205h90v-205h205v-90zM600 98v-90h-500v90h500z" />
    <glyph glyph-name="periodcentered" unicode="&#xb7;" horiz-adv-x="250" 
d="M180 355v-110h-110v110h110z" />
    <glyph glyph-name="guillemotright" unicode="&#xbb;" horiz-adv-x="555" 
d="M295 261l-143 -161h-110l173 199l-175 201h112l143 -161v-78zM495 339v-78l-143 -161h-110l173 199l-175 201h112z" />
    <glyph glyph-name="questiondown" unicode="&#xbf;" horiz-adv-x="562" 
d="M270 390v110h110v-110h-110zM376 270q0 -46 -18.5 -77t-44.5 -49t-69 -41q-52 -26 -78 -49.5t-26 -64.5q0 -55 46 -79t107 -24q58 0 101.5 25.5t55.5 78.5h102q-9 -64 -47.5 -109t-95.5 -68t-121 -23q-62 0 -118.5 21t-93 64.5t-36.5 106.5q0 51 20 85.5t48 54.5t73 43
q35 18 53.5 30t31 30t12.5 42v23h98v-20z" />
    <glyph glyph-name="Agrave" unicode="&#xc0;" horiz-adv-x="760" 
d="M566 160h-378l-69 -160h-109l314 700h112l314 -700h-115zM527 252l-149 345l-150 -345h299zM245 930h110l70 -150h-100z" />
    <glyph glyph-name="Aacute" unicode="&#xc1;" horiz-adv-x="760" 
d="M566 160h-378l-69 -160h-109l314 700h112l314 -700h-115zM527 252l-149 345l-150 -345h299zM505 930l-80 -150h-100l70 150h110z" />
    <glyph glyph-name="Acircumflex" unicode="&#xc2;" horiz-adv-x="760" 
d="M566 160h-378l-69 -160h-109l314 700h112l314 -700h-115zM527 252l-149 345l-150 -345h299zM460 780l-80 92l-80 -92h-110l140 150h100l140 -150h-110z" />
    <glyph glyph-name="Atilde" unicode="&#xc3;" horiz-adv-x="760" 
d="M566 160h-378l-69 -160h-109l314 700h112l314 -700h-115zM527 252l-149 345l-150 -345h299zM253.5 810q-23.5 -13 -43.5 -34v90q48 37 92 37q23 0 44 -8.5t49 -23.5q21 -12 35.5 -18t27.5 -6q25 0 48.5 13t43.5 34v-89q-47 -38 -92 -38q-24 0 -45 8.5t-49 24.5
q-4 2 -18 9.5t-24.5 11t-19.5 3.5q-25 -1 -48.5 -14z" />
    <glyph glyph-name="Adieresis" unicode="&#xc4;" horiz-adv-x="760" 
d="M566 160h-378l-69 -160h-109l314 700h112l314 -700h-115zM527 252l-149 345l-150 -345h299zM330 890v-110h-110v110h110zM540 890v-110h-110v110h110z" />
    <glyph glyph-name="Aring" unicode="&#xc5;" horiz-adv-x="760" 
d="M566 160h-378l-69 -160h-109l314 699q-35 16 -56 48t-21 73q0 56 38.5 94.5t94.5 38.5t94.5 -38.5t38.5 -94.5q0 -41 -21 -73t-56 -48l314 -699h-115zM332.5 868q-19.5 -19 -19.5 -48q0 -28 19.5 -47t47.5 -19t47 19t19 47t-19 47.5t-47 19.5t-47.5 -19zM527 252
l-149 345l-150 -345h299z" />
    <glyph glyph-name="AE" unicode="&#xc6;" horiz-adv-x="1107" 
d="M677 606v-209h340v-94h-340v-209h370v-94h-470v160h-347l-123 -160h-117l538 700h519v-94h-370zM577 252v360l-276 -360h276z" />
    <glyph glyph-name="Ccedilla" unicode="&#xc7;" horiz-adv-x="770" 
d="M536.5 124.5q56.5 38.5 87.5 105.5h111q-31 -97 -107 -160.5t-177 -76.5l-62 -143h-102l65 144q-88 12 -158 61.5t-109.5 126.5t-39.5 168q0 100 47.5 182.5t129.5 130t182 47.5q77 0 144 -29.5t115.5 -84t71.5 -126.5h-111q-31 67 -87.5 105.5t-132.5 38.5
q-71 0 -129 -35t-91.5 -95.5t-33.5 -133.5t33.5 -133.5t91.5 -95.5t129 -35q76 0 132.5 38.5z" />
    <glyph glyph-name="Egrave" unicode="&#xc8;" 
d="M190 606v-209h340v-94h-340v-209h370v-94h-470v700h470v-94h-370zM195 930h110l70 -150h-100z" />
    <glyph glyph-name="Eacute" unicode="&#xc9;" 
d="M190 606v-209h340v-94h-340v-209h370v-94h-470v700h470v-94h-370zM455 930l-80 -150h-100l70 150h110z" />
    <glyph glyph-name="Ecircumflex" unicode="&#xca;" 
d="M190 606v-209h340v-94h-340v-209h370v-94h-470v700h470v-94h-370zM410 780l-80 92l-80 -92h-110l140 150h100l140 -150h-110z" />
    <glyph glyph-name="Edieresis" unicode="&#xcb;" 
d="M190 606v-209h340v-94h-340v-209h370v-94h-470v700h470v-94h-370zM280 890v-110h-110v110h110zM490 890v-110h-110v110h110z" />
    <glyph glyph-name="Igrave" unicode="&#xcc;" horiz-adv-x="280" 
d="M190 700v-700h-100v700h100zM5 930h110l70 -150h-100z" />
    <glyph glyph-name="Iacute" unicode="&#xcd;" horiz-adv-x="280" 
d="M190 700v-700h-100v700h100zM265 930l-80 -150h-100l70 150h110z" />
    <glyph glyph-name="Icircumflex" unicode="&#xce;" horiz-adv-x="280" 
d="M190 700v-700h-100v700h100zM220 780l-80 92l-80 -92h-110l140 150h100l140 -150h-110z" />
    <glyph glyph-name="Idieresis" unicode="&#xcf;" horiz-adv-x="280" 
d="M190 700v-700h-100v700h100zM90 890v-110h-110v110h110zM300 890v-110h-110v110h110z" />
    <glyph glyph-name="Eth" unicode="&#xd0;" horiz-adv-x="760" 
d="M544.5 654q82.5 -46 126.5 -125.5t44 -178.5t-44 -178.5t-126.5 -125.5t-194.5 -46h-240v308h-80v85h80v307h240q112 0 194.5 -46zM488 127q59 31 90.5 88.5t31.5 134.5t-31.5 134.5t-90.5 88.5t-138 31h-140v-211h170v-85h-170v-212h140q79 0 138 31z" />
    <glyph glyph-name="Ntilde" unicode="&#xd1;" horiz-adv-x="800" 
d="M710 700v-700h-110l-412 566v-566h-98v700h123l399 -553v553h98zM273.5 810q-23.5 -13 -43.5 -34v90q48 37 92 37q23 0 44 -8.5t49 -23.5q21 -12 35.5 -18t27.5 -6q25 0 48.5 13t43.5 34v-89q-47 -38 -92 -38q-24 0 -45 8.5t-49 24.5q-4 2 -18 9.5t-24.5 11t-19.5 3.5
q-25 -1 -48.5 -14z" />
    <glyph glyph-name="Ograve" unicode="&#xd2;" horiz-adv-x="820" 
d="M225 37.5q-84 47.5 -132 130t-48 182.5t48 182.5t132 130t185 47.5t185 -47.5t132 -130t48 -182.5t-48 -182.5t-132 -130t-185 -47.5t-185 47.5zM541.5 121q59.5 35 94 95.5t34.5 133.5t-34.5 133.5t-94 95.5t-131.5 35t-131.5 -35t-94 -95.5t-34.5 -133.5t34.5 -133.5
t94 -95.5t131.5 -35t131.5 35zM275 930h110l70 -150h-100z" />
    <glyph glyph-name="Oacute" unicode="&#xd3;" horiz-adv-x="820" 
d="M225 37.5q-84 47.5 -132 130t-48 182.5t48 182.5t132 130t185 47.5t185 -47.5t132 -130t48 -182.5t-48 -182.5t-132 -130t-185 -47.5t-185 47.5zM541.5 121q59.5 35 94 95.5t34.5 133.5t-34.5 133.5t-94 95.5t-131.5 35t-131.5 -35t-94 -95.5t-34.5 -133.5t34.5 -133.5
t94 -95.5t131.5 -35t131.5 35zM535 930l-80 -150h-100l70 150h110z" />
    <glyph glyph-name="Ocircumflex" unicode="&#xd4;" horiz-adv-x="820" 
d="M225 37.5q-84 47.5 -132 130t-48 182.5t48 182.5t132 130t185 47.5t185 -47.5t132 -130t48 -182.5t-48 -182.5t-132 -130t-185 -47.5t-185 47.5zM541.5 121q59.5 35 94 95.5t34.5 133.5t-34.5 133.5t-94 95.5t-131.5 35t-131.5 -35t-94 -95.5t-34.5 -133.5t34.5 -133.5
t94 -95.5t131.5 -35t131.5 35zM490 780l-80 92l-80 -92h-110l140 150h100l140 -150h-110z" />
    <glyph glyph-name="Otilde" unicode="&#xd5;" horiz-adv-x="820" 
d="M225 37.5q-84 47.5 -132 130t-48 182.5t48 182.5t132 130t185 47.5t185 -47.5t132 -130t48 -182.5t-48 -182.5t-132 -130t-185 -47.5t-185 47.5zM541.5 121q59.5 35 94 95.5t34.5 133.5t-34.5 133.5t-94 95.5t-131.5 35t-131.5 -35t-94 -95.5t-34.5 -133.5t34.5 -133.5
t94 -95.5t131.5 -35t131.5 35zM283.5 810q-23.5 -13 -43.5 -34v90q48 37 92 37q23 0 44 -8.5t49 -23.5q21 -12 35.5 -18t27.5 -6q25 0 48.5 13t43.5 34v-89q-47 -38 -92 -38q-24 0 -45 8.5t-49 24.5q-4 2 -18 9.5t-24.5 11t-19.5 3.5q-25 -1 -48.5 -14z" />
    <glyph glyph-name="Odieresis" unicode="&#xd6;" horiz-adv-x="820" 
d="M225 37.5q-84 47.5 -132 130t-48 182.5t48 182.5t132 130t185 47.5t185 -47.5t132 -130t48 -182.5t-48 -182.5t-132 -130t-185 -47.5t-185 47.5zM541.5 121q59.5 35 94 95.5t34.5 133.5t-34.5 133.5t-94 95.5t-131.5 35t-131.5 -35t-94 -95.5t-34.5 -133.5t34.5 -133.5
t94 -95.5t131.5 -35t131.5 35zM360 890v-110h-110v110h110zM570 890v-110h-110v110h110z" />
    <glyph glyph-name="multiply" unicode="&#xd7;" horiz-adv-x="700" 
d="M502 134l-154 154l-154 -154l-60 60l154 154l-154 154l64 64l154 -154l150 150l60 -60l-150 -150l154 -154z" />
    <glyph glyph-name="Oslash" unicode="&#xd8;" horiz-adv-x="820" 
d="M745 497q30 -69 30 -147q0 -100 -48 -182.5t-132 -130t-185 -47.5q-100 0 -185 47l-28 -37h-102l64 85q-54 49 -84 118t-30 147q0 100 48 182.5t132 130t185 47.5q100 0 185 -47l28 37h102l-64 -85q54 -49 84 -118zM168.5 250q18.5 -47 52.5 -83l314 416q-57 31 -125 31
q-72 0 -131.5 -35t-94 -95.5t-34.5 -133.5q0 -53 18.5 -100zM541.5 121q59.5 35 94 95.5t34.5 133.5q0 53 -18.5 100t-52.5 83l-314 -416q57 -31 125 -31q72 0 131.5 35z" />
    <glyph glyph-name="Ugrave" unicode="&#xd9;" horiz-adv-x="770" 
d="M229.5 28.5q-69.5 38.5 -109.5 106.5t-40 151v414h100v-414q0 -56 27 -102t73.5 -72t104.5 -26t104.5 26t73.5 72t27 102v414h100v-414q0 -83 -40 -151t-109.5 -106.5t-155.5 -38.5t-155.5 38.5zM250 930h110l70 -150h-100z" />
    <glyph glyph-name="Uacute" unicode="&#xda;" horiz-adv-x="770" 
d="M229.5 28.5q-69.5 38.5 -109.5 106.5t-40 151v414h100v-414q0 -56 27 -102t73.5 -72t104.5 -26t104.5 26t73.5 72t27 102v414h100v-414q0 -83 -40 -151t-109.5 -106.5t-155.5 -38.5t-155.5 38.5zM510 930l-80 -150h-100l70 150h110z" />
    <glyph glyph-name="Ucircumflex" unicode="&#xdb;" horiz-adv-x="770" 
d="M229.5 28.5q-69.5 38.5 -109.5 106.5t-40 151v414h100v-414q0 -56 27 -102t73.5 -72t104.5 -26t104.5 26t73.5 72t27 102v414h100v-414q0 -83 -40 -151t-109.5 -106.5t-155.5 -38.5t-155.5 38.5zM465 780l-80 92l-80 -92h-110l140 150h100l140 -150h-110z" />
    <glyph glyph-name="Udieresis" unicode="&#xdc;" horiz-adv-x="770" 
d="M229.5 28.5q-69.5 38.5 -109.5 106.5t-40 151v414h100v-414q0 -56 27 -102t73.5 -72t104.5 -26t104.5 26t73.5 72t27 102v414h100v-414q0 -83 -40 -151t-109.5 -106.5t-155.5 -38.5t-155.5 38.5zM335 890v-110h-110v110h110zM545 890v-110h-110v110h110z" />
    <glyph glyph-name="Yacute" unicode="&#xdd;" horiz-adv-x="760" 
d="M750 700l-313 -737q-29 -69 -73 -101t-111 -32h-96v99h89q29 0 45 5.5t28 21t29 49.5l-338 695h114l278 -571l238 571h110zM505 930l-80 -150h-100l70 150h110z" />
    <glyph glyph-name="Thorn" unicode="&#xde;" horiz-adv-x="650" 
d="M516.5 528.5q50.5 -26.5 77 -73t26.5 -105.5t-26.5 -105.5t-77 -73t-120.5 -26.5h-206v-145h-100v700h100v-145h206q70 0 120.5 -26.5zM484 266.5q31 28.5 31 83.5t-31 83t-91 28h-203v-223h203q60 0 91 28.5z" />
    <glyph glyph-name="germandbls" unicode="&#xdf;" horiz-adv-x="595" 
d="M272 26.5q-46 36.5 -47 102.5h87q9 -65 88 -65q33 0 53 16.5t20 42.5q0 24 -13 39t-51 33l-41 21q-37 19 -56.5 32.5t-32.5 34.5t-13 52q0 40 24.5 65.5t71.5 56.5q36 23 53.5 40.5t17.5 39.5q0 40 -30 61.5t-105 21.5q-61 0 -92 -33.5t-31 -92.5v-494h-95v494
q0 68 29.5 117t79.5 74t109 25q113 0 172 -45.5t59 -127.5q0 -35 -15.5 -61t-37 -43t-55.5 -38q-31 -19 -45.5 -31.5t-14.5 -28.5q0 -12 9.5 -22t35.5 -25l47 -26q60 -33 87.5 -63t27.5 -77q0 -59 -47 -95.5t-127 -36.5q-76 0 -122 36.5z" />
    <glyph glyph-name="agrave" unicode="&#xe0;" horiz-adv-x="564" 
d="M530 90v-90h-48q-37 0 -58 18.5t-25 53.5q-32 -37 -82.5 -59.5t-106.5 -22.5q-81 0 -125.5 40t-44.5 107q0 61 48 104.5t135 52.5l56 6q47 5 70 12.5t29.5 16.5t6.5 24q0 34 -32.5 53.5t-89.5 19.5q-37 0 -71 -19.5t-47 -55.5h-101q14 70 76 114.5t148 44.5q95 0 156 -52
t61 -149v-192q0 -13 7 -20t19 -7h19zM308 91.5q41 19.5 65.5 52t24.5 69.5v45q-34 -26 -108 -34l-56 -6q-56 -6 -78 -27t-22 -53q0 -30 22.5 -48t63.5 -18q47 0 88 19.5zM133 730h110l70 -150h-100z" />
    <glyph glyph-name="aacute" unicode="&#xe1;" horiz-adv-x="564" 
d="M530 90v-90h-48q-37 0 -58 18.5t-25 53.5q-32 -37 -82.5 -59.5t-106.5 -22.5q-81 0 -125.5 40t-44.5 107q0 61 48 104.5t135 52.5l56 6q47 5 70 12.5t29.5 16.5t6.5 24q0 34 -32.5 53.5t-89.5 19.5q-37 0 -71 -19.5t-47 -55.5h-101q14 70 76 114.5t148 44.5q95 0 156 -52
t61 -149v-192q0 -13 7 -20t19 -7h19zM308 91.5q41 19.5 65.5 52t24.5 69.5v45q-34 -26 -108 -34l-56 -6q-56 -6 -78 -27t-22 -53q0 -30 22.5 -48t63.5 -18q47 0 88 19.5zM393 730l-80 -150h-100l70 150h110z" />
    <glyph glyph-name="acircumflex" unicode="&#xe2;" horiz-adv-x="564" 
d="M530 90v-90h-48q-37 0 -58 18.5t-25 53.5q-32 -37 -82.5 -59.5t-106.5 -22.5q-81 0 -125.5 40t-44.5 107q0 61 48 104.5t135 52.5l56 6q47 5 70 12.5t29.5 16.5t6.5 24q0 34 -32.5 53.5t-89.5 19.5q-37 0 -71 -19.5t-47 -55.5h-101q14 70 76 114.5t148 44.5q95 0 156 -52
t61 -149v-192q0 -13 7 -20t19 -7h19zM308 91.5q41 19.5 65.5 52t24.5 69.5v45q-34 -26 -108 -34l-56 -6q-56 -6 -78 -27t-22 -53q0 -30 22.5 -48t63.5 -18q47 0 88 19.5zM348 580l-80 92l-80 -92h-110l140 150h100l140 -150h-110z" />
    <glyph glyph-name="atilde" unicode="&#xe3;" horiz-adv-x="564" 
d="M530 90v-90h-48q-37 0 -58 18.5t-25 53.5q-32 -37 -82.5 -59.5t-106.5 -22.5q-81 0 -125.5 40t-44.5 107q0 61 48 104.5t135 52.5l56 6q47 5 70 12.5t29.5 16.5t6.5 24q0 34 -32.5 53.5t-89.5 19.5q-37 0 -71 -19.5t-47 -55.5h-101q14 70 76 114.5t148 44.5q95 0 156 -52
t61 -149v-192q0 -13 7 -20t19 -7h19zM308 91.5q41 19.5 65.5 52t24.5 69.5v45q-34 -26 -108 -34l-56 -6q-56 -6 -78 -27t-22 -53q0 -30 22.5 -48t63.5 -18q47 0 88 19.5zM141.5 610q-23.5 -13 -43.5 -34v90q48 37 92 37q23 0 44 -8.5t49 -23.5q21 -12 35.5 -18t27.5 -6
q25 0 48.5 13t43.5 34v-89q-47 -38 -92 -38q-24 0 -45 8.5t-49 24.5q-4 2 -18 9.5t-24.5 11t-19.5 3.5q-25 -1 -48.5 -14z" />
    <glyph glyph-name="adieresis" unicode="&#xe4;" horiz-adv-x="564" 
d="M530 90v-90h-48q-37 0 -58 18.5t-25 53.5q-32 -37 -82.5 -59.5t-106.5 -22.5q-81 0 -125.5 40t-44.5 107q0 61 48 104.5t135 52.5l56 6q47 5 70 12.5t29.5 16.5t6.5 24q0 34 -32.5 53.5t-89.5 19.5q-37 0 -71 -19.5t-47 -55.5h-101q14 70 76 114.5t148 44.5q95 0 156 -52
t61 -149v-192q0 -13 7 -20t19 -7h19zM308 91.5q41 19.5 65.5 52t24.5 69.5v45q-34 -26 -108 -34l-56 -6q-56 -6 -78 -27t-22 -53q0 -30 22.5 -48t63.5 -18q47 0 88 19.5zM218 690v-110h-110v110h110zM428 690v-110h-110v110h110z" />
    <glyph glyph-name="aring" unicode="&#xe5;" horiz-adv-x="564" 
d="M530 90v-90h-48q-37 0 -58 18.5t-25 53.5q-32 -37 -82.5 -59.5t-106.5 -22.5q-81 0 -125.5 40t-44.5 107q0 61 48 104.5t135 52.5l56 6q47 5 70 12.5t29.5 16.5t6.5 24q0 34 -32.5 53.5t-89.5 19.5q-37 0 -71 -19.5t-47 -55.5h-101q14 70 76 114.5t148 44.5q95 0 156 -52
t61 -149v-192q0 -13 7 -20t19 -7h19zM308 91.5q41 19.5 65.5 52t24.5 69.5v45q-34 -26 -108 -34l-56 -6q-56 -6 -78 -27t-22 -53q0 -30 22.5 -48t63.5 -18q47 0 88 19.5zM215.5 605.5q-38.5 38.5 -38.5 94.5t38.5 94.5t94.5 38.5t94.5 -38.5t38.5 -94.5t-38.5 -94.5
t-94.5 -38.5t-94.5 38.5zM357 653q19 19 19 47t-19 47.5t-47 19.5q-29 0 -48 -19t-19 -48q0 -28 19.5 -47t47.5 -19t47 19z" />
    <glyph glyph-name="ae" unicode="&#xe6;" horiz-adv-x="944" 
d="M789.5 477q57.5 -33 88.5 -93.5t31 -141.5q0 -21 -1 -31h-410q10 -58 54.5 -95.5t103.5 -37.5q97 0 138 71h98q-24 -70 -89 -114.5t-147 -44.5q-67 0 -120.5 32.5t-83.5 89.5q-33 -54 -92 -88t-146 -34q-84 0 -129 40t-45 107q0 61 49 104.5t138 52.5l58 6q48 5 71 12.5
t30 16.5t7 24q0 34 -33.5 53.5t-91.5 19.5q-39 0 -74.5 -19.5t-48.5 -55.5h-100q9 46 41 82t81 56.5t107 20.5q65 0 116.5 -24.5t78.5 -70.5q32 45 80 70t106 25q77 0 134.5 -33zM551.5 389q-42.5 -37 -52.5 -95h307q-6 60 -48.5 96t-104.5 36q-59 0 -101.5 -37zM318 94.5
q42 22.5 65.5 58.5t23.5 74v31q-36 -26 -111 -34l-57 -6q-60 -6 -83 -27t-23 -53q0 -30 24 -48t67 -18q52 0 94 22.5z" />
    <glyph glyph-name="ccedilla" unicode="&#xe7;" horiz-adv-x="563" 
d="M379.5 101.5q37.5 23.5 54.5 63.5h104q-18 -67 -71.5 -113.5t-123.5 -57.5l-62 -144h-102l66 146q-61 12 -108.5 48t-74.5 89.5t-27 116.5q0 72 35 131.5t96 94t135 34.5q83 0 149.5 -48.5t87.5 -126.5h-104q-17 40 -54.5 63.5t-83.5 23.5q-47 0 -84 -22.5t-58 -62
t-21 -87.5t21 -87.5t58 -62t84 -22.5q46 0 83.5 23.5z" />
    <glyph glyph-name="egrave" unicode="&#xe8;" horiz-adv-x="580" 
d="M425.5 477q57.5 -33 88.5 -93.5t31 -141.5q0 -21 -1 -31h-410q10 -58 54.5 -95.5t103.5 -37.5q97 0 138 71h98q-24 -70 -89 -114.5t-147 -44.5q-73 0 -132 33.5t-92 93t-33 133.5t33 133.5t91.5 93t131.5 33.5q77 0 134.5 -33zM187.5 389q-42.5 -37 -52.5 -95h307
q-6 60 -48.5 96t-104.5 36q-59 0 -101.5 -37zM155 740h110l70 -150h-100z" />
    <glyph glyph-name="eacute" unicode="&#xe9;" horiz-adv-x="580" 
d="M425.5 477q57.5 -33 88.5 -93.5t31 -141.5q0 -21 -1 -31h-410q10 -58 54.5 -95.5t103.5 -37.5q97 0 138 71h98q-24 -70 -89 -114.5t-147 -44.5q-73 0 -132 33.5t-92 93t-33 133.5t33 133.5t91.5 93t131.5 33.5q77 0 134.5 -33zM187.5 389q-42.5 -37 -52.5 -95h307
q-6 60 -48.5 96t-104.5 36q-59 0 -101.5 -37zM415 740l-80 -150h-100l70 150h110z" />
    <glyph glyph-name="ecircumflex" unicode="&#xea;" horiz-adv-x="580" 
d="M425.5 477q57.5 -33 88.5 -93.5t31 -141.5q0 -21 -1 -31h-410q10 -58 54.5 -95.5t103.5 -37.5q97 0 138 71h98q-24 -70 -89 -114.5t-147 -44.5q-73 0 -132 33.5t-92 93t-33 133.5t33 133.5t91.5 93t131.5 33.5q77 0 134.5 -33zM187.5 389q-42.5 -37 -52.5 -95h307
q-6 60 -48.5 96t-104.5 36q-59 0 -101.5 -37zM370 590l-80 92l-80 -92h-110l140 150h100l140 -150h-110z" />
    <glyph glyph-name="edieresis" unicode="&#xeb;" horiz-adv-x="580" 
d="M425.5 477q57.5 -33 88.5 -93.5t31 -141.5q0 -21 -1 -31h-410q10 -58 54.5 -95.5t103.5 -37.5q97 0 138 71h98q-24 -70 -89 -114.5t-147 -44.5q-73 0 -132 33.5t-92 93t-33 133.5t33 133.5t91.5 93t131.5 33.5q77 0 134.5 -33zM187.5 389q-42.5 -37 -52.5 -95h307
q-6 60 -48.5 96t-104.5 36q-59 0 -101.5 -37zM240 700v-110h-110v110h110zM450 700v-110h-110v110h110z" />
    <glyph glyph-name="igrave" unicode="&#xec;" horiz-adv-x="255" 
d="M175 500v-500h-95v500h95zM-7 740h110l70 -150h-100z" />
    <glyph glyph-name="iacute" unicode="&#xed;" horiz-adv-x="255" 
d="M175 500v-500h-95v500h95zM253 740l-80 -150h-100l70 150h110z" />
    <glyph glyph-name="icircumflex" unicode="&#xee;" horiz-adv-x="255" 
d="M175 500v-500h-95v500h95zM208 590l-80 92l-80 -92h-110l140 150h100l140 -150h-110z" />
    <glyph glyph-name="idieresis" unicode="&#xef;" horiz-adv-x="255" 
d="M175 500v-500h-95v500h95zM78 700v-110h-110v110h110zM288 700v-110h-110v110h110z" />
    <glyph glyph-name="eth" unicode="&#xf0;" horiz-adv-x="580" 
d="M500.5 396.5q44.5 -71.5 44.5 -143.5q0 -76 -34 -136t-92.5 -93.5t-129.5 -33.5q-70 0 -128.5 33t-92 90.5t-33.5 126.5q0 68 32.5 124t89.5 88.5t125 32.5q31 0 59 -9l-72 83l-157 -73v82l106 50l-76 87h108l45 -51l142 66v-82l-91 -43l39 -45q71 -82 115.5 -153.5z
M374 99.5q37 21.5 58 58.5t21 82t-21 82t-58 58.5t-82 21.5q-44 0 -80.5 -21.5t-57.5 -58.5t-21 -82t21 -82t57.5 -58.5t80.5 -21.5q45 0 82 21.5z" />
    <glyph glyph-name="ntilde" unicode="&#xf1;" 
d="M444.5 484q48.5 -26 77 -78.5t28.5 -128.5v-277h-95v275q0 66 -39 105t-98 39q-43 0 -75.5 -20.5t-50 -55.5t-17.5 -76v-267h-95v500h90v-80q28 41 71.5 65.5t93.5 24.5q61 0 109.5 -26zM176.5 610q-23.5 -13 -43.5 -34v90q48 37 92 37q23 0 44 -8.5t49 -23.5
q21 -12 35.5 -18t27.5 -6q25 0 48.5 13t43.5 34v-89q-47 -38 -92 -38q-24 0 -45 8.5t-49 24.5q-4 2 -18 9.5t-24.5 11t-19.5 3.5q-25 -1 -48.5 -14z" />
    <glyph glyph-name="ograve" unicode="&#xf2;" horiz-adv-x="600" 
d="M166 24.5q-61 34.5 -96 94t-35 131.5t35 131.5t96 94t135 34.5q73 0 133.5 -34.5t95.5 -94t35 -131.5t-35 -131.5t-95.5 -94t-133.5 -34.5q-74 0 -135 34.5zM385 100.5q38 22.5 60 62t22 87.5t-22 87.5t-60 62t-84 22.5q-47 0 -85.5 -22.5t-60.5 -62t-22 -87.5t22 -87.5
t60.5 -62t85.5 -22.5q46 0 84 22.5zM168 730h110l70 -150h-100z" />
    <glyph glyph-name="oacute" unicode="&#xf3;" horiz-adv-x="600" 
d="M166 24.5q-61 34.5 -96 94t-35 131.5t35 131.5t96 94t135 34.5q73 0 133.5 -34.5t95.5 -94t35 -131.5t-35 -131.5t-95.5 -94t-133.5 -34.5q-74 0 -135 34.5zM385 100.5q38 22.5 60 62t22 87.5t-22 87.5t-60 62t-84 22.5q-47 0 -85.5 -22.5t-60.5 -62t-22 -87.5t22 -87.5
t60.5 -62t85.5 -22.5q46 0 84 22.5zM428 730l-80 -150h-100l70 150h110z" />
    <glyph glyph-name="ocircumflex" unicode="&#xf4;" horiz-adv-x="600" 
d="M166 24.5q-61 34.5 -96 94t-35 131.5t35 131.5t96 94t135 34.5q73 0 133.5 -34.5t95.5 -94t35 -131.5t-35 -131.5t-95.5 -94t-133.5 -34.5q-74 0 -135 34.5zM385 100.5q38 22.5 60 62t22 87.5t-22 87.5t-60 62t-84 22.5q-47 0 -85.5 -22.5t-60.5 -62t-22 -87.5t22 -87.5
t60.5 -62t85.5 -22.5q46 0 84 22.5zM383 580l-80 92l-80 -92h-110l140 150h100l140 -150h-110z" />
    <glyph glyph-name="otilde" unicode="&#xf5;" horiz-adv-x="600" 
d="M166 24.5q-61 34.5 -96 94t-35 131.5t35 131.5t96 94t135 34.5q73 0 133.5 -34.5t95.5 -94t35 -131.5t-35 -131.5t-95.5 -94t-133.5 -34.5q-74 0 -135 34.5zM385 100.5q38 22.5 60 62t22 87.5t-22 87.5t-60 62t-84 22.5q-47 0 -85.5 -22.5t-60.5 -62t-22 -87.5t22 -87.5
t60.5 -62t85.5 -22.5q46 0 84 22.5zM176.5 610q-23.5 -13 -43.5 -34v90q48 37 92 37q23 0 44 -8.5t49 -23.5q21 -12 35.5 -18t27.5 -6q25 0 48.5 13t43.5 34v-89q-47 -38 -92 -38q-24 0 -45 8.5t-49 24.5q-4 2 -18 9.5t-24.5 11t-19.5 3.5q-25 -1 -48.5 -14z" />
    <glyph glyph-name="odieresis" unicode="&#xf6;" horiz-adv-x="600" 
d="M166 24.5q-61 34.5 -96 94t-35 131.5t35 131.5t96 94t135 34.5q73 0 133.5 -34.5t95.5 -94t35 -131.5t-35 -131.5t-95.5 -94t-133.5 -34.5q-74 0 -135 34.5zM385 100.5q38 22.5 60 62t22 87.5t-22 87.5t-60 62t-84 22.5q-47 0 -85.5 -22.5t-60.5 -62t-22 -87.5t22 -87.5
t60.5 -62t85.5 -22.5q46 0 84 22.5zM253 690v-110h-110v110h110zM463 690v-110h-110v110h110z" />
    <glyph glyph-name="divide" unicode="&#xf7;" horiz-adv-x="700" 
d="M405 604v-110h-110v110h110zM600 395v-90h-500v90h500zM405 206v-110h-110v110h110z" />
    <glyph glyph-name="oslash" unicode="&#xf8;" horiz-adv-x="600" 
d="M545.5 351.5q19.5 -47.5 19.5 -101.5q0 -72 -35 -131.5t-95.5 -94t-133.5 -34.5q-70 0 -129 31l-16 -21h-96l51 66q-36 35 -56 82.5t-20 101.5q0 72 35 131.5t96 94t135 34.5q70 0 127 -31l16 21h96l-50 -66q36 -35 55.5 -82.5zM169 142l203 264q-34 16 -71 16
q-47 0 -85.5 -22.5t-60.5 -62t-22 -87.5q0 -63 36 -108zM385 100.5q38 22.5 60 62t22 87.5q0 63 -36 108l-203 -264q35 -16 73 -16q46 0 84 22.5z" />
    <glyph glyph-name="ugrave" unicode="&#xf9;" 
d="M540 500v-500h-90v80q-28 -41 -71.5 -65.5t-93.5 -24.5q-61 0 -109.5 26t-77 78.5t-28.5 128.5v277h95v-275q0 -66 39 -105t98 -39q43 0 75.5 20.5t50 55.5t17.5 76v267h95zM170 730h110l70 -150h-100z" />
    <glyph glyph-name="uacute" unicode="&#xfa;" 
d="M540 500v-500h-90v80q-28 -41 -71.5 -65.5t-93.5 -24.5q-61 0 -109.5 26t-77 78.5t-28.5 128.5v277h95v-275q0 -66 39 -105t98 -39q43 0 75.5 20.5t50 55.5t17.5 76v267h95zM430 730l-80 -150h-100l70 150h110z" />
    <glyph glyph-name="ucircumflex" unicode="&#xfb;" 
d="M540 500v-500h-90v80q-28 -41 -71.5 -65.5t-93.5 -24.5q-61 0 -109.5 26t-77 78.5t-28.5 128.5v277h95v-275q0 -66 39 -105t98 -39q43 0 75.5 20.5t50 55.5t17.5 76v267h95zM385 580l-80 92l-80 -92h-110l140 150h100l140 -150h-110z" />
    <glyph glyph-name="udieresis" unicode="&#xfc;" 
d="M540 500v-500h-90v80q-28 -41 -71.5 -65.5t-93.5 -24.5q-61 0 -109.5 26t-77 78.5t-28.5 128.5v277h95v-275q0 -66 39 -105t98 -39q43 0 75.5 20.5t50 55.5t17.5 76v267h95zM255 690v-110h-110v110h110zM465 690v-110h-110v110h110z" />
    <glyph glyph-name="yacute" unicode="&#xfd;" horiz-adv-x="576" 
d="M563 500l-243 -556q-19 -51 -53 -83.5t-100 -32.5q-47 0 -73 2v90q28 -2 67 -2q28 0 44.5 15t27.5 41l15 35l-243 491h111l179 -384l168 384h100zM409 740l-80 -150h-100l70 150h110z" />
    <glyph glyph-name="thorn" unicode="&#xfe;" horiz-adv-x="615" 
d="M464 476.5q54 -33.5 85 -92.5t31 -134t-31 -134t-85 -92.5t-120 -33.5q-50 0 -94 22.5t-75 62.5v-245h-95v875h90v-286q32 43 77 67t97 24q66 0 120 -33.5zM407 100q35 22 55 61.5t20 88.5t-20 88.5t-55 61.5t-79 22t-80 -22t-56 -61.5t-20 -88.5t20 -88.5t56 -61.5
t80 -22t79 22z" />
    <glyph glyph-name="ydieresis" unicode="&#xff;" horiz-adv-x="576" 
d="M563 500l-243 -556q-19 -51 -53 -83.5t-100 -32.5q-47 0 -73 2v90q28 -2 67 -2q28 0 44.5 15t27.5 41l15 35l-243 491h111l179 -384l168 384h100zM234 700v-110h-110v110h110zM444 700v-110h-110v110h110z" />
    <glyph glyph-name="Amacron" unicode="&#x100;" horiz-adv-x="760" 
d="M566 160h-378l-69 -160h-109l314 700h112l314 -700h-115zM527 252l-149 345l-150 -345h299zM220 880h320v-90h-320v90z" />
    <glyph glyph-name="amacron" unicode="&#x101;" horiz-adv-x="564" 
d="M530 90v-90h-48q-37 0 -58 18.5t-25 53.5q-32 -37 -82.5 -59.5t-106.5 -22.5q-81 0 -125.5 40t-44.5 107q0 61 48 104.5t135 52.5l56 6q47 5 70 12.5t29.5 16.5t6.5 24q0 34 -32.5 53.5t-89.5 19.5q-37 0 -71 -19.5t-47 -55.5h-101q14 70 76 114.5t148 44.5q95 0 156 -52
t61 -149v-192q0 -13 7 -20t19 -7h19zM308 91.5q41 19.5 65.5 52t24.5 69.5v45q-34 -26 -108 -34l-56 -6q-56 -6 -78 -27t-22 -53q0 -30 22.5 -48t63.5 -18q47 0 88 19.5zM108 680h320v-90h-320v90z" />
    <glyph glyph-name="Abreve" unicode="&#x102;" horiz-adv-x="760" 
d="M566 160h-378l-69 -160h-109l314 700h112l314 -700h-115zM527 252l-149 345l-150 -345h299zM252 813q-50 41 -56 110h82q5 -38 32 -59.5t70 -21.5t70 21.5t32 59.5h82q-6 -69 -56 -110t-128 -41t-128 41z" />
    <glyph glyph-name="abreve" unicode="&#x103;" horiz-adv-x="564" 
d="M530 90v-90h-48q-37 0 -58 18.5t-25 53.5q-32 -37 -82.5 -59.5t-106.5 -22.5q-81 0 -125.5 40t-44.5 107q0 61 48 104.5t135 52.5l56 6q47 5 70 12.5t29.5 16.5t6.5 24q0 34 -32.5 53.5t-89.5 19.5q-37 0 -71 -19.5t-47 -55.5h-101q14 70 76 114.5t148 44.5q95 0 156 -52
t61 -149v-192q0 -13 7 -20t19 -7h19zM308 91.5q41 19.5 65.5 52t24.5 69.5v45q-34 -26 -108 -34l-56 -6q-56 -6 -78 -27t-22 -53q0 -30 22.5 -48t63.5 -18q47 0 88 19.5zM140 613q-50 41 -56 110h82q5 -38 32 -59.5t70 -21.5t70 21.5t32 59.5h82q-6 -69 -56 -110t-128 -41
t-128 41z" />
    <glyph glyph-name="Aogonek" unicode="&#x104;" horiz-adv-x="760" 
d="M703 -127h47v-73h-64q-63 0 -93 27t-30 72q0 25 20.5 53t54.5 48h-3l-69 160h-378l-69 -160h-109l314 700h112l314 -700q-43 -14 -70.5 -38.5t-27.5 -47.5q0 -41 51 -41zM527 252l-149 345l-150 -345h299z" />
    <glyph glyph-name="aogonek" unicode="&#x105;" horiz-adv-x="564" 
d="M500 -127h47v-73h-64q-63 0 -93 27t-30 72q0 28 24 57.5t62 49.5q-42 15 -47 66q-32 -37 -82.5 -59.5t-106.5 -22.5q-81 0 -125.5 40t-44.5 107q0 61 48 104.5t135 52.5l56 6q47 5 70 12.5t29.5 16.5t6.5 24q0 34 -32.5 53.5t-89.5 19.5q-37 0 -71 -19.5t-47 -55.5h-101
q14 70 76 114.5t148 44.5q95 0 156 -52t61 -149v-192q0 -13 7 -20t19 -7h19v-88l17 -2q-43 -14 -70.5 -38.5t-27.5 -47.5q0 -41 51 -41zM308 91.5q41 19.5 65.5 52t24.5 69.5v45q-34 -26 -108 -34l-56 -6q-56 -6 -78 -27t-22 -53q0 -30 22.5 -48t63.5 -18q47 0 88 19.5z" />
    <glyph glyph-name="Cacute" unicode="&#x106;" horiz-adv-x="770" 
d="M92.5 532.5q47.5 82.5 129.5 130t182 47.5q77 0 144 -29.5t115.5 -84t71.5 -126.5h-111q-31 67 -87.5 105.5t-132.5 38.5q-71 0 -129 -35t-91.5 -95.5t-33.5 -133.5t33.5 -133.5t91.5 -95.5t129 -35q76 0 132.5 38.5t87.5 105.5h111q-23 -72 -71.5 -126.5t-115.5 -84
t-144 -29.5q-100 0 -182 47.5t-129.5 130t-47.5 182.5t47.5 182.5zM529 930l-80 -150h-100l70 150h110z" />
    <glyph glyph-name="cacute" unicode="&#x107;" horiz-adv-x="563" 
d="M70 381.5q35 59.5 96 94t135 34.5q83 0 149.5 -48.5t87.5 -126.5h-104q-17 40 -54.5 63.5t-83.5 23.5q-47 0 -84 -22.5t-58 -62t-21 -87.5t21 -87.5t58 -62t84 -22.5q46 0 83.5 23.5t54.5 63.5h104q-21 -78 -87.5 -126.5t-149.5 -48.5q-74 0 -135 34.5t-96 94t-35 131.5
t35 131.5zM421 730l-80 -150h-100l70 150h110z" />
    <glyph glyph-name="Cdotaccent" unicode="&#x10a;" horiz-adv-x="770" 
d="M92.5 532.5q47.5 82.5 129.5 130t182 47.5q77 0 144 -29.5t115.5 -84t71.5 -126.5h-111q-31 67 -87.5 105.5t-132.5 38.5q-71 0 -129 -35t-91.5 -95.5t-33.5 -133.5t33.5 -133.5t91.5 -95.5t129 -35q76 0 132.5 38.5t87.5 105.5h111q-23 -72 -71.5 -126.5t-115.5 -84
t-144 -29.5q-100 0 -182 47.5t-129.5 130t-47.5 182.5t47.5 182.5zM457 890v-110h-106v110h106z" />
    <glyph glyph-name="cdotaccent" unicode="&#x10b;" horiz-adv-x="563" 
d="M70 381.5q35 59.5 96 94t135 34.5q83 0 149.5 -48.5t87.5 -126.5h-104q-17 40 -54.5 63.5t-83.5 23.5q-47 0 -84 -22.5t-58 -62t-21 -87.5t21 -87.5t58 -62t84 -22.5q46 0 83.5 23.5t54.5 63.5h104q-21 -78 -87.5 -126.5t-149.5 -48.5q-74 0 -135 34.5t-96 94t-35 131.5
t35 131.5zM349 690v-110h-106v110h106z" />
    <glyph glyph-name="Ccaron" unicode="&#x10c;" horiz-adv-x="770" 
d="M92.5 532.5q47.5 82.5 129.5 130t182 47.5q77 0 144 -29.5t115.5 -84t71.5 -126.5h-111q-31 67 -87.5 105.5t-132.5 38.5q-71 0 -129 -35t-91.5 -95.5t-33.5 -133.5t33.5 -133.5t91.5 -95.5t129 -35q76 0 132.5 38.5t87.5 105.5h111q-23 -72 -71.5 -126.5t-115.5 -84
t-144 -29.5q-100 0 -182 47.5t-129.5 130t-47.5 182.5t47.5 182.5zM594 930l-140 -150h-100l-140 150h110l80 -92l80 92h110z" />
    <glyph glyph-name="ccaron" unicode="&#x10d;" horiz-adv-x="563" 
d="M70 381.5q35 59.5 96 94t135 34.5q83 0 149.5 -48.5t87.5 -126.5h-104q-17 40 -54.5 63.5t-83.5 23.5q-47 0 -84 -22.5t-58 -62t-21 -87.5t21 -87.5t58 -62t84 -22.5q46 0 83.5 23.5t54.5 63.5h104q-21 -78 -87.5 -126.5t-149.5 -48.5q-74 0 -135 34.5t-96 94t-35 131.5
t35 131.5zM486 730l-140 -150h-100l-140 150h110l80 -92l80 92h110z" />
    <glyph glyph-name="Dcaron" unicode="&#x10e;" horiz-adv-x="740" 
d="M524.5 654q82.5 -46 126.5 -125.5t44 -178.5t-44 -178.5t-126.5 -125.5t-194.5 -46h-240v700h240q112 0 194.5 -46zM468 127q59 31 90.5 88.5t31.5 134.5t-31.5 134.5t-90.5 88.5t-138 31h-140v-508h140q79 0 138 31zM520 930l-140 -150h-100l-140 150h110l80 -92l80 92
h110z" />
    <glyph glyph-name="dcaron" unicode="&#x10f;" horiz-adv-x="673" 
d="M535 705v-705h-95v75q-31 -40 -75 -62.5t-94 -22.5q-66 0 -120 33.5t-85 92.5t-31 134t31 134t85 92.5t120 33.5q52 0 97 -24t77 -67v286h90zM367 100q36 22 56 61.5t20 88.5t-20 88.5t-56 61.5t-80 22t-79 -22t-55 -61.5t-20 -88.5t20 -88.5t55 -61.5t79 -22t80 22z
M703 705l-28 -170h-70v170h98z" />
    <glyph glyph-name="Dcroat" unicode="&#x110;" horiz-adv-x="760" 
d="M544.5 654q82.5 -46 126.5 -125.5t44 -178.5t-44 -178.5t-126.5 -125.5t-194.5 -46h-240v308h-80v85h80v307h240q112 0 194.5 -46zM488 127q59 31 90.5 88.5t31.5 134.5t-31.5 134.5t-90.5 88.5t-138 31h-140v-211h170v-85h-170v-212h140q79 0 138 31z" />
    <glyph glyph-name="dcroat" unicode="&#x111;" horiz-adv-x="615" 
d="M615 553h-80v-553h-95v75q-31 -40 -75 -62.5t-94 -22.5q-66 0 -120 33.5t-85 92.5t-31 134t31 134t85 92.5t120 33.5q52 0 97 -24t77 -67v134h-170v80h170v72h90v-72h80v-80zM367 100q36 22 56 61.5t20 88.5t-20 88.5t-56 61.5t-80 22t-79 -22t-55 -61.5t-20 -88.5
t20 -88.5t55 -61.5t79 -22t80 22z" />
    <glyph glyph-name="Emacron" unicode="&#x112;" 
d="M190 606v-209h340v-94h-340v-209h370v-94h-470v700h470v-94h-370zM170 880h320v-90h-320v90z" />
    <glyph glyph-name="emacron" unicode="&#x113;" horiz-adv-x="580" 
d="M425.5 477q57.5 -33 88.5 -93.5t31 -141.5q0 -21 -1 -31h-410q10 -58 54.5 -95.5t103.5 -37.5q97 0 138 71h98q-24 -70 -89 -114.5t-147 -44.5q-73 0 -132 33.5t-92 93t-33 133.5t33 133.5t91.5 93t131.5 33.5q77 0 134.5 -33zM187.5 389q-42.5 -37 -52.5 -95h307
q-6 60 -48.5 96t-104.5 36q-59 0 -101.5 -37zM130 690h320v-90h-320v90z" />
    <glyph glyph-name="Edotaccent" unicode="&#x116;" 
d="M190 606v-209h340v-94h-340v-209h370v-94h-470v700h470v-94h-370zM383 890v-110h-106v110h106z" />
    <glyph glyph-name="edotaccent" unicode="&#x117;" horiz-adv-x="580" 
d="M425.5 477q57.5 -33 88.5 -93.5t31 -141.5q0 -21 -1 -31h-410q10 -58 54.5 -95.5t103.5 -37.5q97 0 138 71h98q-24 -70 -89 -114.5t-147 -44.5q-73 0 -132 33.5t-92 93t-33 133.5t33 133.5t91.5 93t131.5 33.5q77 0 134.5 -33zM187.5 389q-42.5 -37 -52.5 -95h307
q-6 60 -48.5 96t-104.5 36q-59 0 -101.5 -37zM343 700v-110h-106v110h106z" />
    <glyph glyph-name="Eogonek" unicode="&#x118;" 
d="M190 606v-209h340v-94h-340v-209h370v-94q-43 -14 -70.5 -38.5t-27.5 -47.5q0 -41 51 -41h47v-73h-64q-63 0 -93 27t-30 72q0 25 20.5 53t54.5 48h-358v700h470v-94h-370z" />
    <glyph glyph-name="eogonek" unicode="&#x119;" horiz-adv-x="580" 
d="M425.5 477q57.5 -33 88.5 -93.5t31 -141.5q0 -21 -1 -31h-410q10 -58 54.5 -95.5t103.5 -37.5q97 0 138 71h98q-11 -36 -47.5 -76.5t-84.5 -67.5q-45 -25 -68 -47t-23 -44q0 -41 51 -41h47v-73h-64q-63 0 -93 27t-30 72q0 22 16.5 46.5t44.5 44.5q-70 4 -125 38.5t-86 92
t-31 129.5q0 74 33 133.5t91.5 93t131.5 33.5q77 0 134.5 -33zM442 294q-6 60 -48.5 96t-104.5 36q-59 0 -101.5 -37t-52.5 -95h307zM443 178q-8 -20 -13 -29h-17z" />
    <glyph glyph-name="Ecaron" unicode="&#x11a;" 
d="M190 606v-209h340v-94h-340v-209h370v-94h-470v700h470v-94h-370zM520 930l-140 -150h-100l-140 150h110l80 -92l80 92h110z" />
    <glyph glyph-name="ecaron" unicode="&#x11b;" horiz-adv-x="580" 
d="M425.5 477q57.5 -33 88.5 -93.5t31 -141.5q0 -21 -1 -31h-410q10 -58 54.5 -95.5t103.5 -37.5q97 0 138 71h98q-24 -70 -89 -114.5t-147 -44.5q-73 0 -132 33.5t-92 93t-33 133.5t33 133.5t91.5 93t131.5 33.5q77 0 134.5 -33zM187.5 389q-42.5 -37 -52.5 -95h307
q-6 60 -48.5 96t-104.5 36q-59 0 -101.5 -37zM480 740l-140 -150h-100l-140 150h110l80 -92l80 92h110z" />
    <glyph glyph-name="Gbreve" unicode="&#x11e;" horiz-adv-x="770" 
d="M716 350v-195q-21 -45 -66.5 -82.5t-107.5 -60t-131 -22.5q-102 0 -185.5 47.5t-132 130t-48.5 182.5t47.5 182.5t129.5 130t182 47.5q105 0 189.5 -57t121.5 -153h-114q-31 53 -82 83.5t-115 30.5q-71 0 -129 -35t-91.5 -95.5t-33.5 -133.5t34.5 -133.5t94 -95.5
t132.5 -35q71 0 125.5 26t82.5 68v170h97zM272 813q-50 41 -56 110h82q5 -38 32 -59.5t70 -21.5t70 21.5t32 59.5h82q-6 -69 -56 -110t-128 -41t-128 41z" />
    <glyph glyph-name="gbreve" unicode="&#x11f;" horiz-adv-x="615" 
d="M535 500v-460q0 -106 -65.5 -163t-177.5 -57q-92 0 -152.5 41.5t-73.5 114.5h94q11 -37 46 -56.5t91 -19.5q143 0 143 130v58q-32 -39 -77 -61t-97 -22q-65 0 -118 33t-83 91t-30 129q0 70 30.5 128t83 91t117.5 33q54 0 100.5 -23.5t78.5 -65.5v79h90zM367 109.5
q36 21.5 56 59.5t20 86t-20 86t-56 59.5t-80 21.5t-79 -21.5t-55 -59.5t-20 -86t20 -86t55 -59.5t79 -21.5t80 21.5zM184 613q-50 41 -56 110h82q5 -38 32 -59.5t70 -21.5t70 21.5t32 59.5h82q-6 -69 -56 -110t-128 -41t-128 41z" />
    <glyph glyph-name="Gdotaccent" unicode="&#x120;" horiz-adv-x="770" 
d="M716 350v-195q-21 -45 -66.5 -82.5t-107.5 -60t-131 -22.5q-102 0 -185.5 47.5t-132 130t-48.5 182.5t47.5 182.5t129.5 130t182 47.5q105 0 189.5 -57t121.5 -153h-114q-31 53 -82 83.5t-115 30.5q-71 0 -129 -35t-91.5 -95.5t-33.5 -133.5t34.5 -133.5t94 -95.5
t132.5 -35q71 0 125.5 26t82.5 68v170h97zM453 890v-110h-106v110h106z" />
    <glyph glyph-name="gdotaccent" unicode="&#x121;" horiz-adv-x="615" 
d="M535 500v-460q0 -106 -65.5 -163t-177.5 -57q-92 0 -152.5 41.5t-73.5 114.5h94q11 -37 46 -56.5t91 -19.5q143 0 143 130v58q-32 -39 -77 -61t-97 -22q-65 0 -118 33t-83 91t-30 129q0 70 30.5 128t83 91t117.5 33q54 0 100.5 -23.5t78.5 -65.5v79h90zM367 109.5
q36 21.5 56 59.5t20 86t-20 86t-56 59.5t-80 21.5t-79 -21.5t-55 -59.5t-20 -86t20 -86t55 -59.5t79 -21.5t80 21.5zM365 690v-110h-106v110h106z" />
    <glyph glyph-name="uni0122" unicode="&#x122;" horiz-adv-x="770" 
d="M716 350v-195q-21 -45 -66.5 -82.5t-107.5 -60t-131 -22.5q-102 0 -185.5 47.5t-132 130t-48.5 182.5t47.5 182.5t129.5 130t182 47.5q105 0 189.5 -57t121.5 -153h-114q-31 53 -82 83.5t-115 30.5q-71 0 -129 -35t-91.5 -95.5t-33.5 -133.5t34.5 -133.5t94 -95.5
t132.5 -35q71 0 125.5 26t82.5 68v170h97zM464 -70l-28 -190h-70v190h98z" />
    <glyph glyph-name="uni0123" unicode="&#x123;" horiz-adv-x="615" 
d="M357 570h-98l28 190h70v-190zM535 500v-460q0 -106 -65.5 -163t-177.5 -57q-92 0 -152.5 41.5t-73.5 114.5h94q11 -37 46 -56.5t91 -19.5q143 0 143 130v58q-32 -39 -77 -61t-97 -22q-65 0 -118 33t-83 91t-30 129q0 70 30.5 128t83 91t117.5 33q54 0 100.5 -23.5
t78.5 -65.5v79h90zM367 109.5q36 21.5 56 59.5t20 86t-20 86t-56 59.5t-80 21.5t-79 -21.5t-55 -59.5t-20 -86t20 -86t55 -59.5t79 -21.5t80 21.5z" />
    <glyph glyph-name="Hbar" unicode="&#x126;" horiz-adv-x="820" 
d="M790 519h-80v-519h-100v302h-400v-302h-100v519h-80v85h80v96h100v-96h400v96h100v-96h80v-85zM610 519h-400v-121h400v121z" />
    <glyph glyph-name="hbar" unicode="&#x127;" 
d="M441.5 484q50.5 -26 79.5 -78.5t29 -128.5v-277h-95v275q0 66 -39 105t-98 39q-40 0 -73 -21t-51.5 -56.5t-18.5 -76.5v-265h-95v553h-80v80h80v72h90v-72h170v-80h-170v-120q29 35 71 56t87 21q63 0 113.5 -26z" />
    <glyph glyph-name="Imacron" unicode="&#x12a;" horiz-adv-x="280" 
d="M190 700v-700h-100v700h100zM-20 880h320v-90h-320v90z" />
    <glyph glyph-name="imacron" unicode="&#x12b;" horiz-adv-x="255" 
d="M175 500v-500h-95v500h95zM-32 690h320v-90h-320v90z" />
    <glyph glyph-name="Iogonek" unicode="&#x12e;" horiz-adv-x="280" 
d="M119.5 -38.5q-27.5 -24.5 -27.5 -47.5q0 -41 51 -41h47v-73h-64q-63 0 -93 27t-30 72q0 28 24.5 58t62.5 50v693h100v-700q-43 -14 -70.5 -38.5z" />
    <glyph glyph-name="iogonek" unicode="&#x12f;" horiz-adv-x="255" 
d="M181 700v-110h-106v110h106zM80 500h95v-500q-43 -14 -70.5 -38.5t-27.5 -47.5q0 -41 51 -41h47v-73h-64q-63 0 -93 27t-30 72q0 29 26 60t66 50v491z" />
    <glyph glyph-name="Idotaccent" unicode="&#x130;" horiz-adv-x="280" 
d="M190 700v-700h-100v700h100zM193 890v-110h-106v110h106z" />
    <glyph glyph-name="dotlessi" unicode="&#x131;" horiz-adv-x="255" 
d="M175 500v-500h-95v500h95z" />
    <glyph glyph-name="uni0136" unicode="&#x136;" horiz-adv-x="699" 
d="M377.5 317.5q36.5 -30.5 93.5 -86.5q70 -69 113.5 -102t86.5 -33h13v-96h-23q-52 0 -99.5 24.5t-86 59.5t-91.5 90q-60 64 -100 95.5t-80 31.5h-14v-301h-100v700h100v-324l359 324h135l-380 -337q37 -15 73.5 -45.5zM403 -70l-28 -190h-70v190h98z" />
    <glyph glyph-name="uni0137" unicode="&#x137;" horiz-adv-x="548" 
d="M543 89v-89h-27q-43 0 -81.5 18.5t-68.5 44t-70 65.5t-64 58.5t-47 18.5h-10v-205h-95v705h95v-426l239 221h119l-262 -238q27 -12 53.5 -33t62.5 -54q49 -44 79.5 -65t61.5 -21h15zM330 -70l-28 -190h-70v190h98z" />
    <glyph glyph-name="Lacute" unicode="&#x139;" horiz-adv-x="575" 
d="M560 96v-96h-470v700h100v-604h370zM265 930l-80 -150h-100l70 150h110z" />
    <glyph glyph-name="lacute" unicode="&#x13a;" horiz-adv-x="255" 
d="M175 705v-705h-95v705h95zM253 930l-80 -150h-100l70 150h110z" />
    <glyph glyph-name="uni013B" unicode="&#x13b;" horiz-adv-x="575" 
d="M560 96v-96h-470v700h100v-604h370zM371 -70l-28 -190h-70v190h98z" />
    <glyph glyph-name="uni013C" unicode="&#x13c;" horiz-adv-x="255" 
d="M175 705v-705h-95v705h95zM181 -70l-28 -190h-70v190h98z" />
    <glyph glyph-name="Lcaron" unicode="&#x13d;" horiz-adv-x="575" 
d="M560 96v-96h-470v700h100v-604h370zM448 700l-30 -230h-70v230h100z" />
    <glyph glyph-name="lcaron" unicode="&#x13e;" horiz-adv-x="313" 
d="M175 705v-705h-95v705h95zM343 705l-28 -170h-70v170h98z" />
    <glyph glyph-name="Lslash" unicode="&#x141;" horiz-adv-x="595" 
d="M580 96v-96h-470v286l-110 -58v93l110 58v321h100v-268l190 101v-93l-190 -101v-243h370z" />
    <glyph glyph-name="lslash" unicode="&#x142;" horiz-adv-x="275" 
d="M310 407l-125 -72v-335h-95v281l-115 -66v93l115 66v331h95v-277l125 72v-93z" />
    <glyph glyph-name="Nacute" unicode="&#x143;" horiz-adv-x="800" 
d="M710 700v-700h-110l-412 566v-566h-98v700h123l399 -553v553h98zM525 930l-80 -150h-100l70 150h110z" />
    <glyph glyph-name="nacute" unicode="&#x144;" 
d="M444.5 484q48.5 -26 77 -78.5t28.5 -128.5v-277h-95v275q0 66 -39 105t-98 39q-43 0 -75.5 -20.5t-50 -55.5t-17.5 -76v-267h-95v500h90v-80q28 41 71.5 65.5t93.5 24.5q61 0 109.5 -26zM428 730l-80 -150h-100l70 150h110z" />
    <glyph glyph-name="uni0145" unicode="&#x145;" horiz-adv-x="800" 
d="M710 700v-700h-110l-412 566v-566h-98v700h123l399 -553v553h98zM453 -70l-28 -190h-70v190h98z" />
    <glyph glyph-name="uni0146" unicode="&#x146;" 
d="M444.5 484q48.5 -26 77 -78.5t28.5 -128.5v-277h-95v275q0 66 -39 105t-98 39q-43 0 -75.5 -20.5t-50 -55.5t-17.5 -76v-267h-95v500h90v-80q28 41 71.5 65.5t93.5 24.5q61 0 109.5 -26zM356 -70l-28 -190h-70v190h98z" />
    <glyph glyph-name="Ncaron" unicode="&#x147;" horiz-adv-x="800" 
d="M710 700v-700h-110l-412 566v-566h-98v700h123l399 -553v553h98zM590 930l-140 -150h-100l-140 150h110l80 -92l80 92h110z" />
    <glyph glyph-name="ncaron" unicode="&#x148;" 
d="M444.5 484q48.5 -26 77 -78.5t28.5 -128.5v-277h-95v275q0 66 -39 105t-98 39q-43 0 -75.5 -20.5t-50 -55.5t-17.5 -76v-267h-95v500h90v-80q28 41 71.5 65.5t93.5 24.5q61 0 109.5 -26zM493 730l-140 -150h-100l-140 150h110l80 -92l80 92h110z" />
    <glyph glyph-name="Eng" unicode="&#x14a;" horiz-adv-x="800" 
d="M710 700v-765q0 -85 -85 -85h-132v91h92q25 0 25 25v33l-420 570v-569h-100v700h123l397 -549v549h100z" />
    <glyph glyph-name="eng" unicode="&#x14b;" 
d="M444.5 484q48.5 -26 77 -78.5t28.5 -128.5v-301q0 -156 -159 -156q-39 0 -66 9v87q25 -6 61 -6q38 0 53.5 17t15.5 49v299q0 66 -39 105t-98 39q-43 0 -75.5 -20.5t-50 -55.5t-17.5 -76v-267h-95v500h90v-80q28 41 71.5 65.5t93.5 24.5q61 0 109.5 -26z" />
    <glyph glyph-name="Omacron" unicode="&#x14c;" horiz-adv-x="820" 
d="M225 37.5q-84 47.5 -132 130t-48 182.5t48 182.5t132 130t185 47.5t185 -47.5t132 -130t48 -182.5t-48 -182.5t-132 -130t-185 -47.5t-185 47.5zM541.5 121q59.5 35 94 95.5t34.5 133.5t-34.5 133.5t-94 95.5t-131.5 35t-131.5 -35t-94 -95.5t-34.5 -133.5t34.5 -133.5
t94 -95.5t131.5 -35t131.5 35zM250 880h320v-90h-320v90z" />
    <glyph glyph-name="omacron" unicode="&#x14d;" horiz-adv-x="600" 
d="M166 24.5q-61 34.5 -96 94t-35 131.5t35 131.5t96 94t135 34.5q73 0 133.5 -34.5t95.5 -94t35 -131.5t-35 -131.5t-95.5 -94t-133.5 -34.5q-74 0 -135 34.5zM385 100.5q38 22.5 60 62t22 87.5t-22 87.5t-60 62t-84 22.5q-47 0 -85.5 -22.5t-60.5 -62t-22 -87.5t22 -87.5
t60.5 -62t85.5 -22.5q46 0 84 22.5zM143 680h320v-90h-320v90z" />
    <glyph glyph-name="Ohungarumlaut" unicode="&#x150;" horiz-adv-x="820" 
d="M225 37.5q-84 47.5 -132 130t-48 182.5t48 182.5t132 130t185 47.5t185 -47.5t132 -130t48 -182.5t-48 -182.5t-132 -130t-185 -47.5t-185 47.5zM541.5 121q59.5 35 94 95.5t34.5 133.5t-34.5 133.5t-94 95.5t-131.5 35t-131.5 -35t-94 -95.5t-34.5 -133.5t34.5 -133.5
t94 -95.5t131.5 -35t131.5 35zM455 930l-80 -150h-100l70 150h110zM625 930l-80 -150h-100l70 150h110z" />
    <glyph glyph-name="ohungarumlaut" unicode="&#x151;" horiz-adv-x="600" 
d="M166 24.5q-61 34.5 -96 94t-35 131.5t35 131.5t96 94t135 34.5q73 0 133.5 -34.5t95.5 -94t35 -131.5t-35 -131.5t-95.5 -94t-133.5 -34.5q-74 0 -135 34.5zM385 100.5q38 22.5 60 62t22 87.5t-22 87.5t-60 62t-84 22.5q-47 0 -85.5 -22.5t-60.5 -62t-22 -87.5t22 -87.5
t60.5 -62t85.5 -22.5q46 0 84 22.5zM348 730l-80 -150h-100l70 150h110zM518 730l-80 -150h-100l70 150h110z" />
    <glyph glyph-name="OE" unicode="&#x152;" horiz-adv-x="1196" 
d="M766 606v-209h340v-94h-340v-209h370v-94h-470v97q-49 -51 -115 -79t-141 -28q-101 0 -185 47.5t-132 130t-48 182.5t48 182.5t132 130t185 47.5q75 0 141 -28t115 -79v97h470v-94h-370zM541.5 121q59.5 35 94 95.5t34.5 133.5t-34.5 133.5t-94 95.5t-131.5 35
t-131.5 -35t-94 -95.5t-34.5 -133.5t34.5 -133.5t94 -95.5t131.5 -35t131.5 35z" />
    <glyph glyph-name="oe" unicode="&#x153;" horiz-adv-x="1002" 
d="M847.5 477q57.5 -33 88.5 -93.5t31 -141.5q0 -21 -1 -31h-410q10 -58 54.5 -95.5t103.5 -37.5q97 0 138 71h98q-24 -70 -89 -114.5t-147 -44.5q-67 0 -120.5 31t-83.5 87q-32 -56 -87 -87t-122 -31q-74 0 -135 34.5t-96 94t-35 131.5t35 131.5t96 94t135 34.5
q67 0 122 -31t87 -87q30 56 83 87t120 31q77 0 134.5 -33zM609.5 389q-42.5 -37 -52.5 -95h307q-6 60 -48.5 96t-104.5 36q-59 0 -101.5 -37zM385 100.5q38 22.5 60 62t22 87.5t-22 87.5t-60 62t-84 22.5q-47 0 -85.5 -22.5t-60.5 -62t-22 -87.5t22 -87.5t60.5 -62
t85.5 -22.5q46 0 84 22.5z" />
    <glyph glyph-name="Racute" unicode="&#x154;" horiz-adv-x="684" 
d="M684 96v-96h-23q-50 0 -97.5 24t-87 58t-94.5 89q-64 65 -105 95.5t-80 30.5h-7v-297h-100v700h306q70 0 120.5 -25.5t77 -71.5t26.5 -104q0 -59 -26.5 -104.5t-77 -71.5t-120.5 -26h-18q25 -15 48.5 -35.5t57.5 -53.5q58 -56 99 -84t88 -28h13zM390 381q60 0 92.5 29.5
t32.5 84.5t-32.5 84.5t-92.5 29.5h-200v-228h200zM455 930l-80 -150h-100l70 150h110z" />
    <glyph glyph-name="racute" unicode="&#x155;" horiz-adv-x="400" 
d="M380 507v-93q-18 4 -57 4q-44 0 -77.5 -20t-52 -53.5t-18.5 -73.5v-271h-95v500h90v-77q28 40 71.5 63.5t93.5 23.5q24 0 45 -3zM348 730l-80 -150h-100l70 150h110z" />
    <glyph glyph-name="uni0156" unicode="&#x156;" horiz-adv-x="684" 
d="M684 96v-96h-23q-50 0 -97.5 24t-87 58t-94.5 89q-64 65 -105 95.5t-80 30.5h-7v-297h-100v700h306q70 0 120.5 -25.5t77 -71.5t26.5 -104q0 -59 -26.5 -104.5t-77 -71.5t-120.5 -26h-18q25 -15 48.5 -35.5t57.5 -53.5q58 -56 99 -84t88 -28h13zM390 381q60 0 92.5 29.5
t32.5 84.5t-32.5 84.5t-92.5 29.5h-200v-228h200zM413 -70l-28 -190h-70v190h98z" />
    <glyph glyph-name="uni0157" unicode="&#x157;" horiz-adv-x="400" 
d="M380 507v-93q-18 4 -57 4q-44 0 -77.5 -20t-52 -53.5t-18.5 -73.5v-271h-95v500h90v-77q28 40 71.5 63.5t93.5 23.5q24 0 45 -3zM178 -70l-28 -190h-70v190h98z" />
    <glyph glyph-name="Rcaron" unicode="&#x158;" horiz-adv-x="684" 
d="M684 96v-96h-23q-50 0 -97.5 24t-87 58t-94.5 89q-64 65 -105 95.5t-80 30.5h-7v-297h-100v700h306q70 0 120.5 -25.5t77 -71.5t26.5 -104q0 -59 -26.5 -104.5t-77 -71.5t-120.5 -26h-18q25 -15 48.5 -35.5t57.5 -53.5q58 -56 99 -84t88 -28h13zM390 381q60 0 92.5 29.5
t32.5 84.5t-32.5 84.5t-92.5 29.5h-200v-228h200zM520 930l-140 -150h-100l-140 150h110l80 -92l80 92h110z" />
    <glyph glyph-name="rcaron" unicode="&#x159;" horiz-adv-x="400" 
d="M380 507v-93q-18 4 -57 4q-44 0 -77.5 -20t-52 -53.5t-18.5 -73.5v-271h-95v500h90v-77q28 40 71.5 63.5t93.5 23.5q24 0 45 -3zM413 730l-140 -150h-100l-140 150h110l80 -92l80 92h110z" />
    <glyph glyph-name="Sacute" unicode="&#x15a;" horiz-adv-x="652" 
d="M129.5 50.5q-83.5 60.5 -101.5 168.5h100q25 -69 75.5 -101t134.5 -32q81 0 131 29.5t50 76.5q0 41 -37 66.5t-122 42.5l-76 14q-119 21 -178 72.5t-59 127.5q0 58 35 102t98 68.5t145 24.5q107 0 186 -52.5t104 -147.5h-105q-20 51 -71.5 77.5t-118.5 26.5
q-79 0 -124.5 -27.5t-45.5 -75.5q0 -39 36.5 -63t115.5 -38l76 -13q126 -21 185 -72t59 -131q0 -60 -36.5 -106t-101.5 -72t-149 -26q-122 0 -205.5 60.5zM453 930l-80 -150h-100l70 150h110z" />
    <glyph glyph-name="sacute" unicode="&#x15b;" horiz-adv-x="509" 
d="M97.5 34.5q-64.5 44.5 -74.5 123.5h95q13 -43 48.5 -63.5t93.5 -20.5q54 0 87 17.5t33 45.5t-22.5 44.5t-83.5 26.5l-57 10q-180 32 -180 145q0 66 58 106.5t152 40.5q85 0 145 -39.5t76 -109.5h-101q-12 30 -46 46.5t-75 16.5q-52 0 -82.5 -15.5t-30.5 -42.5
q0 -24 23 -39.5t74 -23.5l58 -10q102 -17 144 -55.5t42 -100.5q0 -66 -58.5 -106.5t-159.5 -40.5q-94 0 -158.5 44.5zM372 730l-80 -150h-100l70 150h110z" />
    <glyph glyph-name="Scedilla" unicode="&#x15e;" horiz-adv-x="652" 
d="M591 95.5q-31 -43.5 -87 -70.5t-130 -33l-61 -142h-102l65 144q-99 14 -165.5 72.5t-82.5 152.5h100q25 -69 75.5 -101t134.5 -32q81 0 131 29.5t50 76.5q0 41 -37 66.5t-122 42.5l-76 14q-119 21 -178 72.5t-59 127.5q0 58 35 102t98 68.5t145 24.5q107 0 186 -52.5
t104 -147.5h-105q-20 51 -71.5 77.5t-118.5 26.5q-79 0 -124.5 -27.5t-45.5 -75.5q0 -39 36.5 -63t115.5 -38l76 -13q126 -21 185 -72t59 -131q0 -55 -31 -98.5z" />
    <glyph glyph-name="scedilla" unicode="&#x15f;" horiz-adv-x="509" 
d="M429 41q-45 -39 -125 -48l-62 -143h-102l65 144q-75 12 -124 54.5t-58 109.5h95q13 -43 48.5 -63.5t93.5 -20.5q54 0 87 17.5t33 45.5t-22.5 44.5t-83.5 26.5l-57 10q-180 32 -180 145q0 66 58 106.5t152 40.5q85 0 145 -39.5t76 -109.5h-101q-12 30 -46 46.5t-75 16.5
q-52 0 -82.5 -15.5t-30.5 -42.5q0 -24 23 -39.5t74 -23.5l58 -10q102 -17 144 -55.5t42 -100.5q0 -57 -45 -96z" />
    <glyph glyph-name="Scaron" unicode="&#x160;" horiz-adv-x="652" 
d="M129.5 50.5q-83.5 60.5 -101.5 168.5h100q25 -69 75.5 -101t134.5 -32q81 0 131 29.5t50 76.5q0 41 -37 66.5t-122 42.5l-76 14q-119 21 -178 72.5t-59 127.5q0 58 35 102t98 68.5t145 24.5q107 0 186 -52.5t104 -147.5h-105q-20 51 -71.5 77.5t-118.5 26.5
q-79 0 -124.5 -27.5t-45.5 -75.5q0 -39 36.5 -63t115.5 -38l76 -13q126 -21 185 -72t59 -131q0 -60 -36.5 -106t-101.5 -72t-149 -26q-122 0 -205.5 60.5zM518 930l-140 -150h-100l-140 150h110l80 -92l80 92h110z" />
    <glyph glyph-name="scaron" unicode="&#x161;" horiz-adv-x="509" 
d="M97.5 34.5q-64.5 44.5 -74.5 123.5h95q13 -43 48.5 -63.5t93.5 -20.5q54 0 87 17.5t33 45.5t-22.5 44.5t-83.5 26.5l-57 10q-180 32 -180 145q0 66 58 106.5t152 40.5q85 0 145 -39.5t76 -109.5h-101q-12 30 -46 46.5t-75 16.5q-52 0 -82.5 -15.5t-30.5 -42.5
q0 -24 23 -39.5t74 -23.5l58 -10q102 -17 144 -55.5t42 -100.5q0 -66 -58.5 -106.5t-159.5 -40.5q-94 0 -158.5 44.5zM437 730l-140 -150h-100l-140 150h110l80 -92l80 92h110z" />
    <glyph glyph-name="uni0162" unicode="&#x162;" horiz-adv-x="630" 
d="M615 604h-250v-604l-65 -150h-102l68 150h-1v604h-250v96h600v-96z" />
    <glyph glyph-name="uni0163" unicode="&#x163;" horiz-adv-x="375" 
d="M205 410v-264q0 -32 15.5 -49t53.5 -17q36 0 61 6v-87q-14 -5 -45 -8l-61 -141h-102l68 151q-85 31 -85 145v264h-100v90h100v130h95v-130h140v-90h-140z" />
    <glyph glyph-name="Tcaron" unicode="&#x164;" horiz-adv-x="630" 
d="M615 604h-250v-604h-100v604h-250v96h600v-96zM505 930l-140 -150h-100l-140 150h110l80 -92l80 92h110z" />
    <glyph glyph-name="tcaron" unicode="&#x165;" horiz-adv-x="375" 
d="M205 410v-264q0 -32 15.5 -49t53.5 -17q36 0 61 6v-87q-27 -9 -66 -9q-159 0 -159 156v264h-100v90h100v130h95v-130h140v-90h-140zM373 705l-28 -170h-70v170h98z" />
    <glyph glyph-name="Tbar" unicode="&#x166;" horiz-adv-x="630" 
d="M365 604v-211h175v-85h-175v-308h-100v308h-175v85h175v211h-250v96h600v-96h-250z" />
    <glyph glyph-name="tbar" unicode="&#x167;" horiz-adv-x="365" 
d="M205 410v-115h140v-80h-140v-69q0 -32 15.5 -49t53.5 -17q36 0 61 6v-87q-27 -9 -66 -9q-159 0 -159 156v69h-100v80h100v115h-100v90h100v130h95v-130h140v-90h-140z" />
    <glyph glyph-name="Umacron" unicode="&#x16a;" horiz-adv-x="770" 
d="M229.5 28.5q-69.5 38.5 -109.5 106.5t-40 151v414h100v-414q0 -56 27 -102t73.5 -72t104.5 -26t104.5 26t73.5 72t27 102v414h100v-414q0 -83 -40 -151t-109.5 -106.5t-155.5 -38.5t-155.5 38.5zM225 880h320v-90h-320v90z" />
    <glyph glyph-name="umacron" unicode="&#x16b;" 
d="M540 500v-500h-90v80q-28 -41 -71.5 -65.5t-93.5 -24.5q-61 0 -109.5 26t-77 78.5t-28.5 128.5v277h95v-275q0 -66 39 -105t98 -39q43 0 75.5 20.5t50 55.5t17.5 76v267h95zM145 680h320v-90h-320v90z" />
    <glyph glyph-name="Uring" unicode="&#x16e;" horiz-adv-x="770" 
d="M229.5 28.5q-69.5 38.5 -109.5 106.5t-40 151v414h100v-414q0 -56 27 -102t73.5 -72t104.5 -26t104.5 26t73.5 72t27 102v414h100v-414q0 -83 -40 -151t-109.5 -106.5t-155.5 -38.5t-155.5 38.5zM290.5 725.5q-38.5 38.5 -38.5 94.5t38.5 94.5t94.5 38.5t94.5 -38.5
t38.5 -94.5t-38.5 -94.5t-94.5 -38.5t-94.5 38.5zM432 773q19 19 19 47t-19 47.5t-47 19.5q-29 0 -48 -19t-19 -48q0 -28 19.5 -47t47.5 -19t47 19z" />
    <glyph glyph-name="uring" unicode="&#x16f;" 
d="M540 500v-500h-90v80q-28 -41 -71.5 -65.5t-93.5 -24.5q-61 0 -109.5 26t-77 78.5t-28.5 128.5v277h95v-275q0 -66 39 -105t98 -39q43 0 75.5 20.5t50 55.5t17.5 76v267h95zM222.5 605.5q-38.5 38.5 -38.5 94.5t38.5 94.5t94.5 38.5t94.5 -38.5t38.5 -94.5t-38.5 -94.5
t-94.5 -38.5t-94.5 38.5zM364 653q19 19 19 47t-19 47.5t-47 19.5q-29 0 -48 -19t-19 -48q0 -28 19.5 -47t47.5 -19t47 19z" />
    <glyph glyph-name="Uhungarumlaut" unicode="&#x170;" horiz-adv-x="770" 
d="M229.5 28.5q-69.5 38.5 -109.5 106.5t-40 151v414h100v-414q0 -56 27 -102t73.5 -72t104.5 -26t104.5 26t73.5 72t27 102v414h100v-414q0 -83 -40 -151t-109.5 -106.5t-155.5 -38.5t-155.5 38.5zM430 930l-80 -150h-100l70 150h110zM600 930l-80 -150h-100l70 150h110z
" />
    <glyph glyph-name="uhungarumlaut" unicode="&#x171;" 
d="M540 500v-500h-90v80q-28 -41 -71.5 -65.5t-93.5 -24.5q-61 0 -109.5 26t-77 78.5t-28.5 128.5v277h95v-275q0 -66 39 -105t98 -39q43 0 75.5 20.5t50 55.5t17.5 76v267h95zM350 730l-80 -150h-100l70 150h110zM520 730l-80 -150h-100l70 150h110z" />
    <glyph glyph-name="Uogonek" unicode="&#x172;" horiz-adv-x="770" 
d="M690 700v-414q0 -69 -28.5 -128.5t-79 -100.5t-116.5 -57q-42 -14 -69.5 -38.5t-27.5 -47.5q0 -41 51 -41h47v-73h-64q-63 0 -93 27t-30 72q0 23 17.5 48t46.5 45q-76 9 -136 49.5t-94 104.5t-34 140v414h100v-414q0 -56 27 -102t73.5 -72t104.5 -26t104.5 26t73.5 72
t27 102v414h100z" />
    <glyph glyph-name="uogonek" unicode="&#x173;" 
d="M469.5 -38.5q-27.5 -24.5 -27.5 -47.5q0 -41 51 -41h47v-73h-64q-63 0 -93 27t-30 72q0 29 27 61t69 51h1v69q-28 -41 -71.5 -65.5t-93.5 -24.5q-61 0 -109.5 26t-77 78.5t-28.5 128.5v277h95v-275q0 -66 39 -105t98 -39q43 0 75.5 20.5t50 55.5t17.5 76v267h95v-500
q-43 -14 -70.5 -38.5z" />
    <glyph glyph-name="Wcircumflex" unicode="&#x174;" horiz-adv-x="1106" 
d="M1086 700l-306 -700h-125l-102 235l-103 -235h-125l-305 700h112l258 -596l110 253l-150 343h112l93 -215l93 215h108l-148 -339l111 -257l259 596h108zM633 780l-80 92l-80 -92h-110l140 150h100l140 -150h-110z" />
    <glyph glyph-name="wcircumflex" unicode="&#x175;" horiz-adv-x="834" 
d="M809 500l-152 -500h-116l-124 385l-128 -385h-113l-151 500h103l107 -394l131 394h105l129 -393l107 393h102zM497 580l-80 92l-80 -92h-110l140 150h100l140 -150h-110z" />
    <glyph glyph-name="Ycircumflex" unicode="&#x176;" horiz-adv-x="760" 
d="M750 700l-313 -737q-29 -69 -73 -101t-111 -32h-96v99h89q29 0 45 5.5t28 21t29 49.5l-338 695h114l278 -571l238 571h110zM460 780l-80 92l-80 -92h-110l140 150h100l140 -150h-110z" />
    <glyph glyph-name="ycircumflex" unicode="&#x177;" horiz-adv-x="576" 
d="M563 500l-243 -556q-19 -51 -53 -83.5t-100 -32.5q-47 0 -73 2v90q28 -2 67 -2q28 0 44.5 15t27.5 41l15 35l-243 491h111l179 -384l168 384h100zM364 590l-80 92l-80 -92h-110l140 150h100l140 -150h-110z" />
    <glyph glyph-name="Ydieresis" unicode="&#x178;" horiz-adv-x="760" 
d="M750 700l-313 -737q-29 -69 -73 -101t-111 -32h-96v99h89q29 0 45 5.5t28 21t29 49.5l-338 695h114l278 -571l238 571h110zM330 890v-110h-110v110h110zM540 890v-110h-110v110h110z" />
    <glyph glyph-name="Zacute" unicode="&#x179;" horiz-adv-x="670" 
d="M45 96l456 508h-446v96h570v-96l-456 -508h461v-96h-585v96zM485 930l-80 -150h-100l70 150h110z" />
    <glyph glyph-name="zacute" unicode="&#x17a;" horiz-adv-x="507" 
d="M472 90v-90h-437v90l315 320h-306v90h423v-90l-314 -320h319zM391 730l-80 -150h-100l70 150h110z" />
    <glyph glyph-name="Zdotaccent" unicode="&#x17b;" horiz-adv-x="670" 
d="M45 96l456 508h-446v96h570v-96l-456 -508h461v-96h-585v96zM413 890v-110h-106v110h106z" />
    <glyph glyph-name="zdotaccent" unicode="&#x17c;" horiz-adv-x="507" 
d="M472 90v-90h-437v90l315 320h-306v90h423v-90l-314 -320h319zM319 690v-110h-106v110h106z" />
    <glyph glyph-name="Zcaron" unicode="&#x17d;" horiz-adv-x="670" 
d="M45 96l456 508h-446v96h570v-96l-456 -508h461v-96h-585v96zM550 930l-140 -150h-100l-140 150h110l80 -92l80 92h110z" />
    <glyph glyph-name="zcaron" unicode="&#x17e;" horiz-adv-x="507" 
d="M472 90v-90h-437v90l315 320h-306v90h423v-90l-314 -320h319zM456 730l-140 -150h-100l-140 150h110l80 -92l80 92h110z" />
    <glyph glyph-name="uni0218" unicode="&#x218;" horiz-adv-x="652" 
d="M129.5 50.5q-83.5 60.5 -101.5 168.5h100q25 -69 75.5 -101t134.5 -32q81 0 131 29.5t50 76.5q0 41 -37 66.5t-122 42.5l-76 14q-119 21 -178 72.5t-59 127.5q0 58 35 102t98 68.5t145 24.5q107 0 186 -52.5t104 -147.5h-105q-20 51 -71.5 77.5t-118.5 26.5
q-79 0 -124.5 -27.5t-45.5 -75.5q0 -39 36.5 -63t115.5 -38l76 -13q126 -21 185 -72t59 -131q0 -60 -36.5 -106t-101.5 -72t-149 -26q-122 0 -205.5 60.5zM381 -70l-28 -190h-70v190h98z" />
    <glyph glyph-name="uni0219" unicode="&#x219;" horiz-adv-x="509" 
d="M97.5 34.5q-64.5 44.5 -74.5 123.5h95q13 -43 48.5 -63.5t93.5 -20.5q54 0 87 17.5t33 45.5t-22.5 44.5t-83.5 26.5l-57 10q-180 32 -180 145q0 66 58 106.5t152 40.5q85 0 145 -39.5t76 -109.5h-101q-12 30 -46 46.5t-75 16.5q-52 0 -82.5 -15.5t-30.5 -42.5
q0 -24 23 -39.5t74 -23.5l58 -10q102 -17 144 -55.5t42 -100.5q0 -66 -58.5 -106.5t-159.5 -40.5q-94 0 -158.5 44.5zM310 -70l-28 -190h-70v190h98z" />
    <glyph glyph-name="uni021A" unicode="&#x21a;" horiz-adv-x="630" 
d="M615 604h-250v-604h-100v604h-250v96h600v-96zM368 -70l-28 -190h-70v190h98z" />
    <glyph glyph-name="uni021B" unicode="&#x21b;" horiz-adv-x="375" 
d="M205 410v-264q0 -32 15.5 -49t53.5 -17q36 0 61 6v-87q-27 -9 -66 -9q-159 0 -159 156v264h-100v90h100v130h95v-130h140v-90h-140zM297 -70l-28 -190h-70v190h98z" />
    <glyph glyph-name="uni02BC" unicode="&#x2bc;" horiz-adv-x="240" 
d="M170 700l-30 -230h-70v230h100z" />
    <glyph glyph-name="gravecomb" unicode="&#x300;" horiz-adv-x="0" 
d="M-435 930h110l70 -150h-100z" />
    <glyph glyph-name="acutecomb" unicode="&#x301;" horiz-adv-x="0" 
d="M-175 930l-80 -150h-100l70 150h110z" />
    <glyph glyph-name="uni0302" unicode="&#x302;" horiz-adv-x="0" 
d="M-220 780l-80 92l-80 -92h-110l140 150h100l140 -150h-110z" />
    <glyph glyph-name="tildecomb" unicode="&#x303;" horiz-adv-x="0" 
d="M-426.5 810q-23.5 -13 -43.5 -34v90q48 37 92 37q23 0 44 -8.5t49 -23.5q21 -12 35.5 -18t27.5 -6q25 0 48.5 13t43.5 34v-89q-47 -38 -92 -38q-24 0 -45 8.5t-49 24.5q-4 2 -18 9.5t-24.5 11t-19.5 3.5q-25 -1 -48.5 -14z" />
    <glyph glyph-name="uni0304" unicode="&#x304;" horiz-adv-x="0" 
d="M-460 880h320v-90h-320v90z" />
    <glyph glyph-name="uni0306" unicode="&#x306;" horiz-adv-x="0" 
d="M-428 813q-50 41 -56 110h82q5 -38 32 -59.5t70 -21.5t70 21.5t32 59.5h82q-6 -69 -56 -110t-128 -41t-128 41z" />
    <glyph glyph-name="uni0307" unicode="&#x307;" horiz-adv-x="0" 
d="M-247 890v-110h-106v110h106z" />
    <glyph glyph-name="uni0308" unicode="&#x308;" horiz-adv-x="0" 
d="M-350 890v-110h-110v110h110zM-140 890v-110h-110v110h110z" />
    <glyph glyph-name="uni030A" unicode="&#x30a;" horiz-adv-x="0" 
d="M-394.5 725.5q-38.5 38.5 -38.5 94.5t38.5 94.5t94.5 38.5t94.5 -38.5t38.5 -94.5t-38.5 -94.5t-94.5 -38.5t-94.5 38.5zM-253 773q19 19 19 47t-19 47.5t-47 19.5q-29 0 -48 -19t-19 -48q0 -28 19.5 -47t47.5 -19t47 19z" />
    <glyph glyph-name="uni030B" unicode="&#x30b;" horiz-adv-x="0" 
d="M-255 930l-80 -150h-100l70 150h110zM-85 930l-80 -150h-100l70 150h110z" />
    <glyph glyph-name="uni030C" unicode="&#x30c;" horiz-adv-x="0" 
d="M-110 930l-140 -150h-100l-140 150h110l80 -92l80 92h110z" />
    <glyph glyph-name="uni030F" unicode="&#x30f;" horiz-adv-x="0" 
d="M-315 580h-100l-80 150h110zM-145 580h-100l-80 150h110z" />
    <glyph glyph-name="uni0311" unicode="&#x311;" horiz-adv-x="0" 
d="M-172 895q50 -41 56 -110h-82q-5 38 -32 59.5t-70 21.5t-70 -21.5t-32 -59.5h-82q6 69 56 110t128 41t128 -41z" />
    <glyph glyph-name="uni0326" unicode="&#x326;" horiz-adv-x="0" 
d="M-247 -70l-28 -190h-70v190h98z" />
    <glyph glyph-name="uni0327" unicode="&#x327;" horiz-adv-x="0" 
d="M-417 -150l73 162l94 -12l-65 -150h-102z" />
    <glyph glyph-name="uni0328" unicode="&#x328;" horiz-adv-x="0" 
d="M-457 -173q-30 27 -30 72q0 29 27 61t69 51l91 -11q-43 -14 -70.5 -38.5t-27.5 -47.5q0 -41 51 -41h47v-73h-64q-63 0 -93 27z" />
    <glyph glyph-name="uni0374" unicode="&#x374;" horiz-adv-x="600" 
 />
    <glyph glyph-name="uni0375" unicode="&#x375;" horiz-adv-x="600" 
 />
    <glyph glyph-name="uni037E" unicode="&#x37e;" horiz-adv-x="600" 
d="M170 110l-30 -230h-70v230h100zM180 500v-110h-110v110h110z" />
    <glyph glyph-name="tonos" unicode="&#x384;" horiz-adv-x="600" 
d="M425 930l-80 -150h-100l70 150h110z" />
    <glyph glyph-name="dieresistonos" unicode="&#x385;" horiz-adv-x="600" 
d="M402 930l-80 -150h-100l70 150h110zM207 890v-110h-110v110h110zM504 890v-110h-110v110h110z" />
    <glyph glyph-name="Alphatonos" unicode="&#x386;" horiz-adv-x="760" 
d="M566 160h-378l-69 -160h-109l314 700h112l314 -700h-115zM527 252l-149 345l-150 -345h299zM236 700l-80 -150h-100l70 150h110z" />
    <glyph glyph-name="anoteleia" unicode="&#x387;" horiz-adv-x="600" 
d="M180 355v-110h-110v110h110z" />
    <glyph glyph-name="Epsilontonos" unicode="&#x388;" 
d="M190 606v-209h340v-94h-340v-209h370v-94h-470v700h470v-94h-370zM50 700l-80 -150h-100l70 150h110z" />
    <glyph glyph-name="Etatonos" unicode="&#x389;" horiz-adv-x="780" 
d="M690 700v-700h-100v302h-400v-302h-100v700h100v-302h400v302h100zM50 700l-80 -150h-100l70 150h110z" />
    <glyph glyph-name="Iotatonos" unicode="&#x38a;" horiz-adv-x="280" 
d="M190 700v-700h-100v700h100zM50 700l-80 -150h-100l70 150h110z" />
    <glyph glyph-name="Omicrontonos" unicode="&#x38c;" horiz-adv-x="820" 
d="M225 37.5q-84 47.5 -132 130t-48 182.5t48 182.5t132 130t185 47.5t185 -47.5t132 -130t48 -182.5t-48 -182.5t-132 -130t-185 -47.5t-185 47.5zM541.5 121q59.5 35 94 95.5t34.5 133.5t-34.5 133.5t-94 95.5t-131.5 35t-131.5 -35t-94 -95.5t-34.5 -133.5t34.5 -133.5
t94 -95.5t131.5 -35t131.5 35zM110 700l-80 -150h-100l70 150h110z" />
    <glyph glyph-name="Upsilontonos" unicode="&#x38e;" horiz-adv-x="700" 
d="M400 283v-283h-100v282l-290 418h120l222 -324l223 324h115zM0 700l-80 -150h-100l70 150h110z" />
    <glyph glyph-name="Omegatonos" unicode="&#x38f;" horiz-adv-x="820" 
d="M647 93h123v-93h-293v94q56 15 100 53t68.5 93.5t24.5 119.5q0 70 -34.5 128.5t-94 92t-131.5 33.5t-131.5 -33.5t-94 -92t-34.5 -128.5q0 -64 24.5 -119.5t68.5 -93.5t100 -53v-94h-293v93h123q-128 103 -128 267q0 97 48 177t132 126.5t185 46.5t185 -46.5t132 -126.5
t48 -177q0 -164 -128 -267zM110 700l-80 -150h-100l70 150h110z" />
    <glyph glyph-name="iotadieresistonos" unicode="&#x390;" horiz-adv-x="255" 
d="M175 500v-500h-95v500h95zM230 740l-80 -150h-100l70 150h110zM35 700v-110h-110v110h110zM332 700v-110h-110v110h110z" />
    <glyph glyph-name="Alpha" unicode="&#x391;" horiz-adv-x="760" 
d="M566 160h-378l-69 -160h-109l314 700h112l314 -700h-115zM527 252l-149 345l-150 -345h299z" />
    <glyph glyph-name="Beta" unicode="&#x392;" horiz-adv-x="675" 
d="M605 290.5q25 -40.5 25 -92.5q0 -57 -26.5 -101.5t-77.5 -70.5t-122 -26h-314v700h313q68 0 117 -25t74.5 -68t25.5 -97q0 -50 -22 -89t-67 -64q49 -26 74 -66.5zM398 394q60 0 90.5 28.5t30.5 82.5q0 103 -121 103h-208v-214h208zM493 120q32 28 32 82q0 52 -32 78.5
t-94 26.5h-209v-215h209q62 0 94 28z" />
    <glyph glyph-name="Gamma" unicode="&#x393;" horiz-adv-x="575" 
d="M560 604h-370v-604h-100v700h470v-96z" />
    <glyph glyph-name="uni0394" unicode="&#x394;" horiz-adv-x="760" 
d="M750 0h-740l314 700h112zM595 92l-217 505l-219 -505h436z" />
    <glyph glyph-name="Epsilon" unicode="&#x395;" 
d="M190 606v-209h340v-94h-340v-209h370v-94h-470v700h470v-94h-370z" />
    <glyph glyph-name="Zeta" unicode="&#x396;" horiz-adv-x="670" 
d="M45 96l456 508h-446v96h570v-96l-456 -508h461v-96h-585v96z" />
    <glyph glyph-name="Eta" unicode="&#x397;" horiz-adv-x="780" 
d="M690 700v-700h-100v302h-400v-302h-100v700h100v-302h400v302h100z" />
    <glyph glyph-name="Theta" unicode="&#x398;" horiz-adv-x="820" 
d="M225 37.5q-84 47.5 -132 130t-48 182.5t48 182.5t132 130t185 47.5t185 -47.5t132 -130t48 -182.5t-48 -182.5t-132 -130t-185 -47.5t-185 47.5zM541.5 121q59.5 35 94 95.5t34.5 133.5t-34.5 133.5t-94 95.5t-131.5 35t-131.5 -35t-94 -95.5t-34.5 -133.5t34.5 -133.5
t94 -95.5t131.5 -35t131.5 35zM580 398v-96h-340v96h340z" />
    <glyph glyph-name="Iota" unicode="&#x399;" horiz-adv-x="280" 
d="M190 700v-700h-100v700h100z" />
    <glyph glyph-name="Kappa" unicode="&#x39a;" horiz-adv-x="724" 
d="M292 331l-102 -95v-236h-100v700h100v-348l371 348h123l-320 -300l330 -400h-131z" />
    <glyph glyph-name="Lambda" unicode="&#x39b;" horiz-adv-x="760" 
d="M637 0l-258 592l-259 -592h-110l314 700h112l314 -700h-113z" />
    <glyph glyph-name="Mu" unicode="&#x39c;" horiz-adv-x="1006" 
d="M916 0h-98v575l-266 -575h-100l-264 570v-570h-98v700h144l271 -582l270 582h141v-700z" />
    <glyph glyph-name="Nu" unicode="&#x39d;" horiz-adv-x="800" 
d="M710 700v-700h-110l-412 566v-566h-98v700h123l399 -553v553h98z" />
    <glyph glyph-name="Xi" unicode="&#x39e;" horiz-adv-x="600" 
d="M560 700v-96h-520v96h520zM530 398v-96h-460v96h460zM560 96v-96h-520v96h520z" />
    <glyph glyph-name="Omicron" unicode="&#x39f;" horiz-adv-x="820" 
d="M225 37.5q-84 47.5 -132 130t-48 182.5t48 182.5t132 130t185 47.5t185 -47.5t132 -130t48 -182.5t-48 -182.5t-132 -130t-185 -47.5t-185 47.5zM541.5 121q59.5 35 94 95.5t34.5 133.5t-34.5 133.5t-94 95.5t-131.5 35t-131.5 -35t-94 -95.5t-34.5 -133.5t34.5 -133.5
t94 -95.5t131.5 -35t131.5 35z" />
    <glyph glyph-name="Pi" unicode="&#x3a0;" horiz-adv-x="780" 
d="M690 0h-100v604h-400v-604h-100v700h600v-700z" />
    <glyph glyph-name="Rho" unicode="&#x3a1;" horiz-adv-x="650" 
d="M516.5 673.5q50.5 -26.5 77 -73t26.5 -105.5t-26.5 -105.5t-77 -73t-120.5 -26.5h-206v-290h-100v700h306q70 0 120.5 -26.5zM484 411.5q31 28.5 31 83.5t-31 83t-91 28h-203v-223h203q60 0 91 28.5z" />
    <glyph glyph-name="Sigma" unicode="&#x3a3;" horiz-adv-x="635" 
d="M600 604h-424l220 -254l-227 -254h431v-96h-555v96l227 254l-220 254v96h548v-96z" />
    <glyph glyph-name="Tau" unicode="&#x3a4;" horiz-adv-x="630" 
d="M615 604h-250v-604h-100v604h-250v96h600v-96z" />
    <glyph glyph-name="Upsilon" unicode="&#x3a5;" horiz-adv-x="700" 
d="M400 283v-283h-100v282l-290 418h120l222 -324l223 324h115z" />
    <glyph glyph-name="Phi" unicode="&#x3a6;" horiz-adv-x="920" 
d="M695 659q84 -47 132 -128.5t48 -180.5t-48 -180.5t-132 -128.5t-185 -47v-74h-100v74q-101 0 -185 47t-132 128.5t-48 180.5t48 180.5t132 128.5t185 47v74h100v-74q101 0 185 -47zM410 614q-72 0 -131.5 -35t-94 -95.5t-34.5 -133.5t34.5 -133.5t94 -95.5t131.5 -35v528
zM641.5 121q59.5 35 94 95.5t34.5 133.5t-34.5 133.5t-94 95.5t-131.5 35v-528q72 0 131.5 35z" />
    <glyph glyph-name="Chi" unicode="&#x3a7;" horiz-adv-x="700" 
d="M568 0l-219 286l-218 -286h-121l277 356l-265 344h123l206 -268l204 268h122l-264 -339l277 -361h-122z" />
    <glyph glyph-name="Psi" unicode="&#x3a8;" horiz-adv-x="870" 
d="M820 700v-235q0 -59 -26 -105.5t-75.5 -73t-118.5 -26.5h-115v-260h-100v260h-115q-69 0 -118.5 26.5t-75.5 73t-26 105.5v235h100v-235q0 -55 31 -83.5t92 -28.5h112v347h100v-347h112q61 0 92 28.5t31 83.5v235h100z" />
    <glyph glyph-name="uni03A9" unicode="&#x3a9;" horiz-adv-x="820" 
d="M647 93h123v-93h-293v94q56 15 100 53t68.5 93.5t24.5 119.5q0 70 -34.5 128.5t-94 92t-131.5 33.5t-131.5 -33.5t-94 -92t-34.5 -128.5q0 -64 24.5 -119.5t68.5 -93.5t100 -53v-94h-293v93h123q-128 103 -128 267q0 97 48 177t132 126.5t185 46.5t185 -46.5t132 -126.5
t48 -177q0 -164 -128 -267z" />
    <glyph glyph-name="Iotadieresis" unicode="&#x3aa;" horiz-adv-x="280" 
d="M190 700v-700h-100v700h100zM90 890v-110h-110v110h110zM300 890v-110h-110v110h110z" />
    <glyph glyph-name="Upsilondieresis" unicode="&#x3ab;" horiz-adv-x="700" 
d="M400 283v-283h-100v282l-290 418h120l222 -324l223 324h115zM300 890v-110h-110v110h110zM510 890v-110h-110v110h110z" />
    <glyph glyph-name="alphatonos" unicode="&#x3ac;" horiz-adv-x="615" 
d="M535 500v-500h-95v75q-31 -40 -75 -62.5t-94 -22.5q-66 0 -120 33.5t-85 92.5t-31 134t31 134t85 92.5t120 33.5q52 0 97 -24t77 -67v81h90zM367 100q36 22 56 61.5t20 88.5t-20 88.5t-56 61.5t-80 22t-79 -22t-55 -61.5t-20 -88.5t20 -88.5t55 -61.5t79 -22t80 22z
M435 730l-80 -150h-100l70 150h110z" />
    <glyph glyph-name="epsilontonos" unicode="&#x3ad;" horiz-adv-x="506" 
d="M481 158q-10 -78 -74 -123t-156 -45q-102 0 -161.5 42t-59.5 111q0 80 83 113q-36 17 -54 45.5t-18 61.5q0 66 58 106.5t152 40.5q85 0 147 -42.5t75 -117.5h-94q-10 41 -43.5 60t-84.5 19q-53 0 -83.5 -20t-30.5 -54q0 -27 22.5 -46t74.5 -19h83v-82h-87
q-58 0 -82 -19.5t-24 -46.5q0 -31 33 -50.5t87 -19.5q58 0 93.5 21t48.5 65h95zM376 730l-80 -150h-100l70 150h110z" />
    <glyph glyph-name="etatonos" unicode="&#x3ae;" 
d="M444.5 484q48.5 -26 77 -78.5t28.5 -128.5v-447h-95v445q0 66 -39 105t-98 39q-43 0 -75.5 -20.5t-50 -55.5t-17.5 -76v-267h-95v500h90v-80q28 41 71.5 65.5t93.5 24.5q61 0 109.5 -26zM428 730l-80 -150h-100l70 150h110z" />
    <glyph glyph-name="iotatonos" unicode="&#x3af;" horiz-adv-x="255" 
d="M175 500v-500h-95v500h95zM253 740l-80 -150h-100l70 150h110z" />
    <glyph glyph-name="upsilondieresistonos" unicode="&#x3b0;" horiz-adv-x="604" 
d="M179.5 17.5q-52.5 27.5 -81 78t-28.5 117.5v287h95v-285q0 -62 36.5 -98t100.5 -36t100.5 36t36.5 98v285h95v-287q0 -67 -28.5 -117.5t-81 -78t-122.5 -27.5t-122.5 27.5zM404 740l-80 -150h-100l70 150h110zM209 700v-110h-110v110h110zM506 700v-110h-110v110h110z
" />
    <glyph glyph-name="alpha" unicode="&#x3b1;" horiz-adv-x="615" 
d="M535 500v-500h-95v75q-31 -40 -75 -62.5t-94 -22.5q-66 0 -120 33.5t-85 92.5t-31 134t31 134t85 92.5t120 33.5q52 0 97 -24t77 -67v81h90zM367 100q36 22 56 61.5t20 88.5t-20 88.5t-56 61.5t-80 22t-79 -22t-55 -61.5t-20 -88.5t20 -88.5t55 -61.5t79 -22t80 22z" />
    <glyph glyph-name="beta" unicode="&#x3b2;" horiz-adv-x="605" 
d="M535.5 302.5q34.5 -46.5 34.5 -101.5q0 -62 -28.5 -109.5t-82 -74.5t-125.5 -27q-52 0 -91.5 17t-66.5 46v-223h-96v656q0 68 30 119t82.5 78.5t116.5 27.5q62 0 112.5 -23t80 -64t29.5 -93q0 -50 -22.5 -92.5t-61.5 -70.5q54 -19 88.5 -65.5zM435.5 109.5
q38.5 32.5 38.5 91.5q0 31 -19 56.5t-50.5 40t-65.5 14.5h-58v81h32q52 0 86 35.5t34 89.5q0 45 -36.5 75t-91.5 30q-58 0 -93.5 -37.5t-35.5 -107.5v-249q0 -68 43 -110t115 -42q63 0 101.5 32.5z" />
    <glyph glyph-name="gamma" unicode="&#x3b3;" horiz-adv-x="574" 
d="M335 7v-177h-95v177l-230 493h106l173 -382l172 382h103z" />
    <glyph glyph-name="delta" unicode="&#x3b4;" horiz-adv-x="580" 
d="M465.5 411.5q33.5 -33.5 56.5 -76.5t23 -92q0 -73 -34 -130.5t-92.5 -90t-129.5 -32.5q-70 0 -128.5 32t-92 87t-33.5 122q0 65 32.5 119t88.5 85.5t124 31.5l-177 153v80h381v-90h-245l137 -117q56 -48 89.5 -81.5zM374 97.5q37 20.5 58 56.5t21 79t-21 79t-58 57
t-82 21q-44 0 -80.5 -21t-57.5 -57t-21 -79t21 -79t57.5 -56.5t80.5 -20.5q45 0 82 20.5z" />
    <glyph glyph-name="epsilon" unicode="&#x3b5;" horiz-adv-x="506" 
d="M481 158q-10 -78 -74 -123t-156 -45q-102 0 -161.5 42t-59.5 111q0 80 83 113q-36 17 -54 45.5t-18 61.5q0 66 58 106.5t152 40.5q85 0 147 -42.5t75 -117.5h-94q-10 41 -43.5 60t-84.5 19q-53 0 -83.5 -20t-30.5 -54q0 -27 22.5 -46t74.5 -19h83v-82h-87
q-58 0 -82 -19.5t-24 -46.5q0 -31 33 -50.5t87 -19.5q58 0 93.5 21t48.5 65h95z" />
    <glyph glyph-name="zeta" unicode="&#x3b6;" horiz-adv-x="488" 
d="M295.5 463.5q-83.5 -82.5 -132.5 -161t-49 -130.5q0 -32 11 -48t35.5 -23t74.5 -12l75 -7q81 -7 116.5 -35.5t35.5 -82.5q0 -29 -9 -66l-14 -58h-94l15 63q6 24 6 39q0 26 -19.5 36.5t-72.5 15.5l-60 6q-107 11 -151.5 50t-44.5 112q0 64 44.5 144.5t121 162t169.5 146.5
h-288v90h413v-95q-99 -64 -182.5 -146.5z" />
    <glyph glyph-name="eta" unicode="&#x3b7;" 
d="M444.5 484q48.5 -26 77 -78.5t28.5 -128.5v-447h-95v445q0 66 -39 105t-98 39q-43 0 -75.5 -20.5t-50 -55.5t-17.5 -76v-267h-95v500h90v-80q28 41 71.5 65.5t93.5 24.5q61 0 109.5 -26z" />
    <glyph glyph-name="theta" unicode="&#x3b8;" horiz-adv-x="600" 
d="M441.5 666.5q59.5 -43.5 91.5 -124.5t32 -192t-32 -192t-91.5 -124.5t-140.5 -43.5q-82 0 -142 43.5t-92 124.5t-32 192t32 192t92 124.5t142 43.5q81 0 140.5 -43.5zM187 562q-44 -60 -52 -167h330q-8 107 -51 167t-113 60t-114 -60zM414 138q43 60 51 167h-330
q8 -107 52 -167t114 -60t113 60z" />
    <glyph glyph-name="iota" unicode="&#x3b9;" horiz-adv-x="255" 
d="M175 500v-500h-95v500h95z" />
    <glyph glyph-name="kappa" unicode="&#x3ba;" horiz-adv-x="560" 
d="M244 232l-71 -66v-166h-93v500h93v-224l235 224h126l-219 -202l240 -298h-127z" />
    <glyph glyph-name="lambda" unicode="&#x3bb;" horiz-adv-x="576" 
d="M459 0l-163 384l-180 -384h-107l240 495l-14 32q-22 52 -41.5 70t-53.5 18q-30 0 -51 -2v87q38 5 56 5q46 0 77.5 -13t56.5 -45t50 -90l237 -557h-107z" />
    <glyph glyph-name="uni03BC" unicode="&#x3bc;" horiz-adv-x="630" 
d="M550 500v-500h-90v75q-24 -39 -63 -62t-82 -23q-49 0 -86 16t-59 46v-222h-90v670h95v-267q0 -41 17.5 -76t49.5 -55.5t73 -20.5t73 20.5t49.5 55.5t17.5 76v267h95z" />
    <glyph glyph-name="nu" unicode="&#x3bd;" horiz-adv-x="574" 
d="M564 500l-215 -500h-124l-215 500h106l173 -406l172 406h103z" />
    <glyph glyph-name="xi" unicode="&#x3be;" horiz-adv-x="515" 
d="M229.5 584q-37.5 -26 -37.5 -74q0 -36 27 -62t88 -26h150v-90h-158q-88 0 -124 -36.5t-36 -89.5q0 -48 32 -78t104 -39l75 -7q79 -7 115 -36.5t36 -85.5q0 -25 -8 -62l-21 -58h-94l22 63q6 22 6 38q0 25 -19.5 36t-72.5 17l-35 4q-131 15 -185 68.5t-54 134.5
q0 53 35 106.5t106 76.5q-41 18 -63 49.5t-22 70.5q0 34 19 61t54 45h-77v90h418v-90h-167q-76 0 -113.5 -26z" />
    <glyph glyph-name="omicron" unicode="&#x3bf;" horiz-adv-x="600" 
d="M166 24.5q-61 34.5 -96 94t-35 131.5t35 131.5t96 94t135 34.5q73 0 133.5 -34.5t95.5 -94t35 -131.5t-35 -131.5t-95.5 -94t-133.5 -34.5q-74 0 -135 34.5zM385 100.5q38 22.5 60 62t22 87.5t-22 87.5t-60 62t-84 22.5q-47 0 -85.5 -22.5t-60.5 -62t-22 -87.5t22 -87.5
t60.5 -62t85.5 -22.5q46 0 84 22.5z" />
    <glyph glyph-name="pi" unicode="&#x3c0;" horiz-adv-x="610" 
d="M530 0h-95v410h-260v-410h-95v500h450v-500z" />
    <glyph glyph-name="rho" unicode="&#x3c1;" horiz-adv-x="605" 
d="M444.5 476.5q58.5 -33.5 92 -92.5t33.5 -134t-32 -134t-87.5 -92.5t-123.5 -33.5q-47 0 -89 17.5t-73 48.5v-226h-95v420q0 78 32.5 137t88.5 91t124 32q71 0 129.5 -33.5zM397 100q35 22 55 61.5t20 88.5t-20 88.5t-55 61.5t-79 22t-80 -22t-56 -61.5t-20 -88.5
t20 -88.5t56 -61.5t80 -22t79 22z" />
    <glyph glyph-name="uni03C2" unicode="&#x3c2;" horiz-adv-x="563" 
d="M432 -160h-98l15 63q2 6 2 17q0 22 -20 39t-68 36l-38 15q-58 24 -98 51.5t-66 76t-26 122.5q0 69 35 126.5t94.5 90.5t130.5 33q87 0 154.5 -48.5t88.5 -126.5h-104q-17 40 -54.5 63.5t-85.5 23.5q-46 0 -82.5 -21.5t-57.5 -58.5t-21 -82q0 -51 15.5 -82t43 -49.5
t80.5 -41.5l39 -16q70 -28 105 -58t35 -78q0 -15 -5 -37z" />
    <glyph glyph-name="sigma" unicode="&#x3c3;" horiz-adv-x="588" 
d="M570 410h-108q40 -31 63 -78t23 -96q0 -69 -32.5 -125t-91 -88.5t-131.5 -32.5q-71 0 -130.5 33.5t-93.5 92t-34 129.5t35.5 129.5t99 92t143.5 33.5h257v-90zM407.5 123.5q43.5 46.5 43.5 121.5t-43.5 121.5t-114.5 46.5t-116 -46.5t-45 -121.5t45 -121.5t116 -46.5
t114.5 46.5z" />
    <glyph glyph-name="tau" unicode="&#x3c4;" horiz-adv-x="475" 
d="M460 410h-175v-410h-95v410h-175v90h445v-90z" />
    <glyph glyph-name="upsilon" unicode="&#x3c5;" horiz-adv-x="604" 
d="M179.5 17.5q-52.5 27.5 -81 78t-28.5 117.5v287h95v-285q0 -62 36.5 -98t100.5 -36t100.5 36t36.5 98v285h95v-287q0 -67 -28.5 -117.5t-81 -78t-122.5 -27.5t-122.5 27.5z" />
    <glyph glyph-name="phi" unicode="&#x3c6;" horiz-adv-x="795" 
d="M631 467q60 -33 94.5 -90.5t34.5 -126.5t-34.5 -126.5t-94.5 -90.5t-132 -33h-54v-170h-95v170h-52q-73 0 -133 33t-95 90.5t-35 126.5t35 126.5t95 90.5t133 33h52v205h95v-205h54q72 0 132 -33zM350 88v324h-49q-47 0 -85.5 -21.5t-60.5 -58.5t-22 -82t22 -82
t60.5 -58.5t85.5 -21.5h49zM580 109.5q38 21.5 60 58.5t22 82t-22 82t-60 58.5t-84 21.5h-51v-324h51q46 0 84 21.5z" />
    <glyph glyph-name="chi" unicode="&#x3c7;" horiz-adv-x="544" 
d="M416 0l-145 189l-146 -189h-115l200 254l-192 246h118l137 -179l134 179h118l-191 -243l200 -257h-118z" />
    <glyph glyph-name="psi" unicode="&#x3c8;" horiz-adv-x="845" 
d="M775 500v-250q0 -69 -34 -126.5t-93.5 -90.5t-130.5 -33h-47v-170h-95v170h-47q-71 0 -130.5 33t-93.5 90.5t-34 126.5v250h95v-250q0 -45 22 -82t60 -58.5t84 -21.5h44v617h95v-617h44q46 0 84 21.5t60 58.5t22 82v250h95z" />
    <glyph glyph-name="omega" unicode="&#x3c9;" horiz-adv-x="753" 
d="M603 474.5q53 -35.5 84 -98.5t31 -143q0 -121 -53 -182t-140 -61q-50 0 -88 23t-60 68q-23 -45 -61 -68t-88 -23q-87 0 -140 61t-53 182q0 80 31 143t84 98.5t119 35.5v-88q-38 0 -69 -25t-49 -68t-18 -96q0 -80 26 -117.5t69 -37.5q47 0 74 35t27 113v117h95v-117
q0 -78 27 -113t74 -35q43 0 69 37.5t26 117.5q0 53 -18 96t-49 68t-69 25v88q66 0 119 -35.5z" />
    <glyph glyph-name="iotadieresis" unicode="&#x3ca;" horiz-adv-x="255" 
d="M175 500v-500h-95v500h95zM78 700v-110h-110v110h110zM288 700v-110h-110v110h110z" />
    <glyph glyph-name="upsilondieresis" unicode="&#x3cb;" horiz-adv-x="604" 
d="M179.5 17.5q-52.5 27.5 -81 78t-28.5 117.5v287h95v-285q0 -62 36.5 -98t100.5 -36t100.5 36t36.5 98v285h95v-287q0 -67 -28.5 -117.5t-81 -78t-122.5 -27.5t-122.5 27.5zM252 700v-110h-110v110h110zM462 700v-110h-110v110h110z" />
    <glyph glyph-name="omicrontonos" unicode="&#x3cc;" horiz-adv-x="600" 
d="M166 24.5q-61 34.5 -96 94t-35 131.5t35 131.5t96 94t135 34.5q73 0 133.5 -34.5t95.5 -94t35 -131.5t-35 -131.5t-95.5 -94t-133.5 -34.5q-74 0 -135 34.5zM385 100.5q38 22.5 60 62t22 87.5t-22 87.5t-60 62t-84 22.5q-47 0 -85.5 -22.5t-60.5 -62t-22 -87.5t22 -87.5
t60.5 -62t85.5 -22.5q46 0 84 22.5zM428 730l-80 -150h-100l70 150h110z" />
    <glyph glyph-name="upsilontonos" unicode="&#x3cd;" horiz-adv-x="604" 
d="M179.5 17.5q-52.5 27.5 -81 78t-28.5 117.5v287h95v-285q0 -62 36.5 -98t100.5 -36t100.5 36t36.5 98v285h95v-287q0 -67 -28.5 -117.5t-81 -78t-122.5 -27.5t-122.5 27.5zM427 740l-80 -150h-100l70 150h110z" />
    <glyph glyph-name="omegatonos" unicode="&#x3ce;" horiz-adv-x="753" 
d="M603 474.5q53 -35.5 84 -98.5t31 -143q0 -121 -53 -182t-140 -61q-50 0 -88 23t-60 68q-23 -45 -61 -68t-88 -23q-87 0 -140 61t-53 182q0 80 31 143t84 98.5t119 35.5v-88q-38 0 -69 -25t-49 -68t-18 -96q0 -80 26 -117.5t69 -37.5q47 0 74 35t27 113v117h95v-117
q0 -78 27 -113t74 -35q43 0 69 37.5t26 117.5q0 53 -18 96t-49 68t-69 25v88q66 0 119 -35.5zM502 730l-80 -150h-100l70 150h110z" />
    <glyph glyph-name="uni0401" unicode="&#x401;" 
d="M190 606v-209h340v-94h-340v-209h370v-94h-470v700h470v-94h-370zM280 890v-110h-110v110h110zM490 890v-110h-110v110h110z" />
    <glyph glyph-name="uni0402" unicode="&#x402;" horiz-adv-x="870" 
d="M780 50q-1 -58 -27.5 -103t-75.5 -71t-117 -26h-16v93h13q61 0 92 28.5t31 83.5v150q0 55 -31 83.5t-92 28.5h-227v-317h-100v604h-215v96h620v-96h-305v-194h230q68 0 117 -26t75.5 -71t27.5 -103v-160z" />
    <glyph glyph-name="uni0403" unicode="&#x403;" horiz-adv-x="575" 
d="M560 604h-370v-604h-100v700h470v-96zM425 930l-80 -150h-100l70 150h110z" />
    <glyph glyph-name="uni0404" unicode="&#x404;" horiz-adv-x="767" 
d="M700.5 100q33.5 -37 33.5 -100h-99q0 40 -40 40q-15 0 -33 -5t-37 -12q-38 -14 -72 -21.5t-78 -7.5q-89 0 -164.5 47t-120.5 128.5t-45 180.5q0 100 47 182.5t128.5 130t180.5 47.5q77 0 144 -29.5t115.5 -84t71.5 -126.5h-111q-31 67 -87.5 105.5t-132.5 38.5
q-63 0 -116.5 -28t-88.5 -77.5t-45 -111.5h305v-94h-305q10 -62 43.5 -111.5t82.5 -77.5t105 -28q32 0 57.5 6.5t60.5 19.5q31 12 56.5 18.5t55.5 6.5q55 0 88.5 -37z" />
    <glyph glyph-name="uni0405" unicode="&#x405;" horiz-adv-x="652" 
d="M129.5 50.5q-83.5 60.5 -101.5 168.5h100q25 -69 75.5 -101t134.5 -32q81 0 131 29.5t50 76.5q0 41 -37 66.5t-122 42.5l-76 14q-119 21 -178 72.5t-59 127.5q0 58 35 102t98 68.5t145 24.5q107 0 186 -52.5t104 -147.5h-105q-20 51 -71.5 77.5t-118.5 26.5
q-79 0 -124.5 -27.5t-45.5 -75.5q0 -39 36.5 -63t115.5 -38l76 -13q126 -21 185 -72t59 -131q0 -60 -36.5 -106t-101.5 -72t-149 -26q-122 0 -205.5 60.5z" />
    <glyph glyph-name="uni0406" unicode="&#x406;" horiz-adv-x="280" 
d="M190 700v-700h-100v700h100z" />
    <glyph glyph-name="uni0407" unicode="&#x407;" horiz-adv-x="280" 
d="M190 700v-700h-100v700h100zM90 890v-110h-110v110h110zM300 890v-110h-110v110h110z" />
    <glyph glyph-name="uni0408" unicode="&#x408;" horiz-adv-x="310" 
d="M22 -74q88 0 88 110v664h100v-668q0 -105 -50.5 -153.5t-137.5 -48.5h-29v96h29z" />
    <glyph glyph-name="uni0409" unicode="&#x409;" horiz-adv-x="1130" 
d="M996.5 383.5q50.5 -26.5 77 -73t26.5 -105.5t-26.5 -105.5t-77 -73t-120.5 -26.5h-306v604h-308v-168q0 -149 -14 -241.5t-59.5 -145.5t-135.5 -53q-17 0 -53 4v96q30 -4 42 -4q47 0 72 26t37 102t12 228v252h507v-290h206q70 0 120.5 -26.5zM964 122.5q31 28.5 31 83.5
t-31 83t-91 28h-203v-223h203q60 0 91 28.5z" />
    <glyph glyph-name="uni040A" unicode="&#x40a;" horiz-adv-x="1140" 
d="M1006.5 383.5q50.5 -26.5 77 -73t26.5 -105.5t-26.5 -105.5t-77 -73t-120.5 -26.5h-306v314h-390v-314h-100v700h100v-290h390v290h100v-290h206q70 0 120.5 -26.5zM974 122.5q31 28.5 31 83.5t-31 83t-91 28h-203v-223h203q60 0 91 28.5z" />
    <glyph glyph-name="uni040B" unicode="&#x40b;" horiz-adv-x="870" 
d="M678.5 383.5q49.5 -26.5 75.5 -73t26 -105.5v-205h-100v205q0 55 -31 83.5t-92 28.5h-227v-317h-100v604h-215v96h620v-96h-305v-194h230q69 0 118.5 -26.5z" />
    <glyph glyph-name="uni040C" unicode="&#x40c;" horiz-adv-x="699" 
d="M377.5 317.5q36.5 -30.5 93.5 -86.5q70 -69 113.5 -102t86.5 -33h13v-96h-23q-52 0 -99.5 24.5t-86 59.5t-91.5 90q-60 64 -100 95.5t-80 31.5h-14v-301h-100v700h100v-324l359 324h135l-380 -337q37 -15 73.5 -45.5zM475 930l-80 -150h-100l70 150h110z" />
    <glyph glyph-name="uni040E" unicode="&#x40e;" horiz-adv-x="760" 
d="M750 700l-313 -737q-29 -69 -73 -101t-111 -32h-96v99h89q29 0 45 5.5t28 21t29 49.5l-338 695h114l278 -571l238 571h110zM262 780q-50 41 -56 110h82q5 -38 32 -59.5t70 -21.5t70 21.5t32 59.5h82q-6 -69 -56 -110t-128 -41t-128 41z" />
    <glyph glyph-name="uni040F" unicode="&#x40f;" horiz-adv-x="780" 
d="M690 700v-700h-252v-170h-96v170h-252v700h100v-604h400v604h100z" />
    <glyph glyph-name="uni0410" unicode="&#x410;" horiz-adv-x="760" 
d="M566 160h-378l-69 -160h-109l314 700h112l314 -700h-115zM527 252l-149 345l-150 -345h299z" />
    <glyph glyph-name="uni0411" unicode="&#x411;" horiz-adv-x="670" 
d="M516.5 383.5q50.5 -26.5 77 -73t26.5 -105.5t-26.5 -105.5t-77 -73t-120.5 -26.5h-306v700h490v-94h-390v-196h206q70 0 120.5 -26.5zM484 122.5q31 28.5 31 83.5t-31 83t-91 28h-203v-223h203q60 0 91 28.5z" />
    <glyph glyph-name="uni0412" unicode="&#x412;" horiz-adv-x="675" 
d="M605 290.5q25 -40.5 25 -92.5q0 -57 -26.5 -101.5t-77.5 -70.5t-122 -26h-314v700h313q68 0 117 -25t74.5 -68t25.5 -97q0 -50 -22 -89t-67 -64q49 -26 74 -66.5zM398 394q60 0 90.5 28.5t30.5 82.5q0 103 -121 103h-208v-214h208zM493 120q32 28 32 82q0 52 -32 78.5
t-94 26.5h-209v-215h209q62 0 94 28z" />
    <glyph glyph-name="uni0413" unicode="&#x413;" horiz-adv-x="575" 
d="M560 604h-370v-604h-100v700h470v-96z" />
    <glyph glyph-name="uni0414" unicode="&#x414;" horiz-adv-x="780" 
d="M780 96v-246h-96v150h-588v-150h-96v246h72l262 604h112l262 -604h72zM595 96l-207 500l-209 -500h416z" />
    <glyph glyph-name="uni0415" unicode="&#x415;" 
d="M190 606v-209h340v-94h-340v-209h370v-94h-470v700h470v-94h-370z" />
    <glyph glyph-name="uni0416" unicode="&#x416;" horiz-adv-x="1068" 
d="M1048 96v-96h-22q-51 0 -95 25t-79 60t-81 92q-55 67 -92.5 99.5t-77.5 32.5h-17v-309h-100v309h-17q-41 0 -78.5 -32.5t-92.5 -99.5q-47 -57 -82 -92t-79.5 -60t-95.5 -25h-19v96h22q37 0 74 31t95 95q56 61 92.5 94.5t76.5 48.5l-353 335h130l327 -307v307h100v-307
l331 307h126l-352 -333q41 -14 79 -48t95 -96q55 -63 93.5 -95t75.5 -32h16z" />
    <glyph glyph-name="uni0417" unicode="&#x417;" horiz-adv-x="667" 
d="M622 202q0 -65 -31.5 -113t-87 -73.5t-126.5 -25.5q-47 0 -90.5 12.5t-92.5 32.5q-3 1 -21 8.5t-26 7.5q-26 0 -34 -12.5t-8 -38.5h-90q0 70 31.5 107t99.5 37q28 0 52.5 -7.5t59.5 -23.5q37 -17 65.5 -25.5t62.5 -8.5q61 0 97 34t36 90q0 45 -36.5 73.5t-122.5 28.5
h-102v91h102q68 0 104.5 32t36.5 77q0 54 -45 84t-126 30q-71 0 -123 -32.5t-64 -96.5h-103q12 70 54 120t103.5 75t131.5 25q83 0 145.5 -24.5t97 -68.5t34.5 -102q0 -49 -23.5 -88.5t-70.5 -65.5q110 -47 110 -159z" />
    <glyph glyph-name="uni0418" unicode="&#x418;" horiz-adv-x="790" 
d="M90 700h100v-471l410 366v105h100v-700h-100v471l-410 -366v-105h-100v700z" />
    <glyph glyph-name="uni0419" unicode="&#x419;" horiz-adv-x="790" 
d="M90 700h100v-471l410 366v105h100v-700h-100v471l-410 -366v-105h-100v700zM267 780q-50 41 -56 110h82q5 -38 32 -59.5t70 -21.5t70 21.5t32 59.5h82q-6 -69 -56 -110t-128 -41t-128 41z" />
    <glyph glyph-name="uni041A" unicode="&#x41a;" horiz-adv-x="699" 
d="M377.5 317.5q36.5 -30.5 93.5 -86.5q70 -69 113.5 -102t86.5 -33h13v-96h-23q-52 0 -99.5 24.5t-86 59.5t-91.5 90q-60 64 -100 95.5t-80 31.5h-14v-301h-100v700h100v-324l359 324h135l-380 -337q37 -15 73.5 -45.5z" />
    <glyph glyph-name="uni041B" unicode="&#x41b;" horiz-adv-x="760" 
d="M637 0l-258 592l-259 -592h-110l314 700h112l314 -700h-113z" />
    <glyph glyph-name="uni041C" unicode="&#x41c;" horiz-adv-x="1006" 
d="M916 0h-98v575l-266 -575h-100l-264 570v-570h-98v700h144l271 -582l270 582h141v-700z" />
    <glyph glyph-name="uni041D" unicode="&#x41d;" horiz-adv-x="780" 
d="M690 700v-700h-100v302h-400v-302h-100v700h100v-302h400v302h100z" />
    <glyph glyph-name="uni041E" unicode="&#x41e;" horiz-adv-x="820" 
d="M225 37.5q-84 47.5 -132 130t-48 182.5t48 182.5t132 130t185 47.5t185 -47.5t132 -130t48 -182.5t-48 -182.5t-132 -130t-185 -47.5t-185 47.5zM541.5 121q59.5 35 94 95.5t34.5 133.5t-34.5 133.5t-94 95.5t-131.5 35t-131.5 -35t-94 -95.5t-34.5 -133.5t34.5 -133.5
t94 -95.5t131.5 -35t131.5 35z" />
    <glyph glyph-name="uni041F" unicode="&#x41f;" horiz-adv-x="780" 
d="M690 0h-100v604h-400v-604h-100v700h600v-700z" />
    <glyph glyph-name="uni0420" unicode="&#x420;" horiz-adv-x="650" 
d="M516.5 673.5q50.5 -26.5 77 -73t26.5 -105.5t-26.5 -105.5t-77 -73t-120.5 -26.5h-206v-290h-100v700h306q70 0 120.5 -26.5zM484 411.5q31 28.5 31 83.5t-31 83t-91 28h-203v-223h203q60 0 91 28.5z" />
    <glyph glyph-name="uni0421" unicode="&#x421;" horiz-adv-x="770" 
d="M92.5 532.5q47.5 82.5 129.5 130t182 47.5q77 0 144 -29.5t115.5 -84t71.5 -126.5h-111q-31 67 -87.5 105.5t-132.5 38.5q-71 0 -129 -35t-91.5 -95.5t-33.5 -133.5t33.5 -133.5t91.5 -95.5t129 -35q76 0 132.5 38.5t87.5 105.5h111q-23 -72 -71.5 -126.5t-115.5 -84
t-144 -29.5q-100 0 -182 47.5t-129.5 130t-47.5 182.5t47.5 182.5z" />
    <glyph glyph-name="uni0422" unicode="&#x422;" horiz-adv-x="630" 
d="M615 604h-250v-604h-100v604h-250v96h600v-96z" />
    <glyph glyph-name="uni0423" unicode="&#x423;" horiz-adv-x="760" 
d="M750 700l-313 -737q-29 -69 -73 -101t-111 -32h-96v99h89q29 0 45 5.5t28 21t29 49.5l-338 695h114l278 -571l238 571h110z" />
    <glyph glyph-name="uni0424" unicode="&#x424;" horiz-adv-x="920" 
d="M695 659q84 -47 132 -128.5t48 -180.5t-48 -180.5t-132 -128.5t-185 -47v-74h-100v74q-101 0 -185 47t-132 128.5t-48 180.5t48 180.5t132 128.5t185 47v74h100v-74q101 0 185 -47zM410 614q-72 0 -131.5 -35t-94 -95.5t-34.5 -133.5t34.5 -133.5t94 -95.5t131.5 -35v528
zM641.5 121q59.5 35 94 95.5t34.5 133.5t-34.5 133.5t-94 95.5t-131.5 35v-528q72 0 131.5 35z" />
    <glyph glyph-name="uni0425" unicode="&#x425;" horiz-adv-x="700" 
d="M568 0l-219 286l-218 -286h-121l277 356l-265 344h123l206 -268l204 268h122l-264 -339l277 -361h-122z" />
    <glyph glyph-name="uni0426" unicode="&#x426;" horiz-adv-x="803" 
d="M781.5 32.5q31.5 -35.5 31.5 -80.5q0 -65 -42.5 -108t-144.5 -43q-38 0 -81 6t-104 18q-53 10 -88 15.5t-63 5.5q-29 0 -38.5 -10t-9.5 -28v-7h-97v14q0 57 36 91t105 34q36 0 74 -6t101 -19q60 -12 97 -18t71 -6q82 0 82 57q0 22 -23 37t-71 15h-527v700h100v-604h400
v604h100v-619q60 -13 91.5 -48.5z" />
    <glyph glyph-name="uni0427" unicode="&#x427;" horiz-adv-x="690" 
d="M600 700v-700h-100v290h-230q-69 0 -118.5 26.5t-75.5 73t-26 105.5v205h100v-205q0 -55 31 -83.5t92 -28.5h227v317h100z" />
    <glyph glyph-name="uni0428" unicode="&#x428;" horiz-adv-x="1120" 
d="M1030 700v-700h-940v700h100v-604h320v604h100v-604h320v604h100z" />
    <glyph glyph-name="uni0429" unicode="&#x429;" horiz-adv-x="1143" 
d="M1121.5 32.5q31.5 -35.5 31.5 -80.5q0 -63 -50.5 -107t-159.5 -44q-47 0 -100 6t-129 18q-136 21 -194 21q-25 0 -36.5 -10.5t-11.5 -27.5v-7h-97v14q0 58 37.5 92.5t108.5 34.5q49 0 95 -6.5t108 -18.5q67 -13 118 -19.5t107 -6.5q102 0 102 57q0 22 -23 37t-71 15h-867
v700h100v-604h320v604h100v-604h320v604h100v-619q60 -13 91.5 -48.5z" />
    <glyph glyph-name="uni042A" unicode="&#x42a;" horiz-adv-x="770" 
d="M636.5 383.5q50.5 -26.5 77 -73t26.5 -105.5t-26.5 -105.5t-77 -73t-120.5 -26.5h-306v604h-195v96h295v-290h206q70 0 120.5 -26.5zM604 122.5q31 28.5 31 83.5t-31 83t-91 28h-203v-223h203q60 0 91 28.5z" />
    <glyph glyph-name="uni042B" unicode="&#x42b;" horiz-adv-x="920" 
d="M516.5 383.5q50.5 -26.5 77 -73t26.5 -105.5t-26.5 -105.5t-77 -73t-120.5 -26.5h-306v700h100v-290h206q70 0 120.5 -26.5zM484 122.5q31 28.5 31 83.5t-31 83t-91 28h-203v-223h203q60 0 91 28.5zM830 700v-700h-100v700h100z" />
    <glyph glyph-name="uni042C" unicode="&#x42c;" horiz-adv-x="650" 
d="M516.5 383.5q50.5 -26.5 77 -73t26.5 -105.5t-26.5 -105.5t-77 -73t-120.5 -26.5h-306v700h100v-290h206q70 0 120.5 -26.5zM484 122.5q31 28.5 31 83.5t-31 83t-91 28h-203v-223h203q60 0 91 28.5z" />
    <glyph glyph-name="uni042D" unicode="&#x42d;" horiz-adv-x="767" 
d="M552 662.5q79 -47.5 124.5 -130t45.5 -182.5q0 -98 -44 -179.5t-116 -128.5t-150 -47q-45 0 -76.5 8.5t-71.5 24.5q-28 11 -45.5 16t-36.5 5q-24 0 -32 -12t-8 -37h-97q0 68 33 105t96 37q29 0 53.5 -7t58.5 -22q36 -15 62 -22.5t59 -7.5q49 0 95.5 29t77.5 79t36 112
h-326v94h326q-6 62 -40 111.5t-86.5 77.5t-112.5 28q-161 0 -230 -144h-107q35 110 125 175t212 65q96 0 175 -47.5z" />
    <glyph glyph-name="uni042E" unicode="&#x42e;" horiz-adv-x="1080" 
d="M860 662.5q81 -47.5 128 -130t47 -182.5t-47 -182.5t-128 -130t-180 -47.5q-91 0 -167 40.5t-125 111.5t-60 160h-138v-302h-100v700h100v-302h138q11 89 60 160t125 111.5t167 40.5q99 0 180 -47.5zM806.5 121q57.5 35 90.5 95.5t33 133.5t-33 133.5t-90.5 95.5
t-126.5 35t-126.5 -35t-90.5 -95.5t-33 -133.5t33 -133.5t90.5 -95.5t126.5 -35t126.5 35z" />
    <glyph glyph-name="uni042F" unicode="&#x42f;" horiz-adv-x="684" 
d="M594 0h-100v297h-24q-44 0 -88 -34t-110 -102q-53 -53 -88 -84.5t-77 -54t-84 -22.5h-23v96h13q32 0 65.5 23.5t85.5 71.5q51 45 78.5 67t60.5 39h-15q-70 0 -120.5 26t-77 71.5t-26.5 104.5q0 58 26.5 104t77 71.5t120.5 25.5h306v-700zM494 381v228h-200
q-60 0 -92.5 -29.5t-32.5 -84.5t32.5 -84.5t92.5 -29.5h200z" />
    <glyph glyph-name="uni0430" unicode="&#x430;" horiz-adv-x="564" 
d="M530 90v-90h-48q-37 0 -58 18.5t-25 53.5q-32 -37 -82.5 -59.5t-106.5 -22.5q-81 0 -125.5 40t-44.5 107q0 61 48 104.5t135 52.5l56 6q47 5 70 12.5t29.5 16.5t6.5 24q0 34 -32.5 53.5t-89.5 19.5q-37 0 -71 -19.5t-47 -55.5h-101q14 70 76 114.5t148 44.5q95 0 156 -52
t61 -149v-192q0 -13 7 -20t19 -7h19zM308 91.5q41 19.5 65.5 52t24.5 69.5v45q-34 -26 -108 -34l-56 -6q-56 -6 -78 -27t-22 -53q0 -30 22.5 -48t63.5 -18q47 0 88 19.5z" />
    <glyph glyph-name="uni0431" unicode="&#x431;" horiz-adv-x="600" 
d="M443 452.5q57 -32.5 89.5 -88.5t32.5 -124q0 -69 -33.5 -126.5t-92 -90.5t-128.5 -33q-71 0 -129.5 33.5t-92.5 93.5t-34 136v192q0 94 47.5 141.5t134.5 58.5l179 23q25 3 25 25v12h96v-24q0 -41 -25.5 -65.5t-59.5 -28.5l-206 -27q-56 -7 -82.5 -30.5t-26.5 -73.5v-70
q31 47 78.5 73t102.5 26q68 0 125 -32.5zM388.5 99.5q36.5 21.5 57.5 58.5t21 82t-21 82t-57.5 58.5t-80.5 21.5q-45 0 -82 -21.5t-58 -58.5t-21 -82t21 -82t58 -58.5t82 -21.5q44 0 80.5 21.5z" />
    <glyph glyph-name="uni0432" unicode="&#x432;" horiz-adv-x="540" 
d="M500 141q0 -62 -45 -101.5t-124 -39.5h-251v500h251q75 0 118.5 -38.5t43.5 -97.5q0 -35 -16.5 -63.5t-50.5 -45.5q74 -37 74 -114zM320 292q37 0 56 17t19 50q0 61 -75 61h-147v-128h147zM381.5 97.5q20.5 17.5 20.5 50.5q0 31 -20.5 47.5t-60.5 16.5h-148v-132h148
q40 0 60.5 17.5z" />
    <glyph glyph-name="uni0433" unicode="&#x433;" horiz-adv-x="445" 
d="M430 410h-255v-410h-95v500h350v-90z" />
    <glyph glyph-name="uni0434" unicode="&#x434;" horiz-adv-x="616" 
d="M601 90v-200h-92v110h-402v-110h-92v200h55l176 410h124l176 -410h55zM442 88l-135 318l-136 -318h271z" />
    <glyph glyph-name="uni0435" unicode="&#x435;" horiz-adv-x="580" 
d="M425.5 477q57.5 -33 88.5 -93.5t31 -141.5q0 -21 -1 -31h-410q10 -58 54.5 -95.5t103.5 -37.5q97 0 138 71h98q-24 -70 -89 -114.5t-147 -44.5q-73 0 -132 33.5t-92 93t-33 133.5t33 133.5t91.5 93t131.5 33.5q77 0 134.5 -33zM187.5 389q-42.5 -37 -52.5 -95h307
q-6 60 -48.5 96t-104.5 36q-59 0 -101.5 -37z" />
    <glyph glyph-name="uni0436" unicode="&#x436;" horiz-adv-x="766" 
d="M562.5 228.5q22.5 -20.5 51.5 -50.5q46 -46 74 -67.5t56 -21.5h17v-89h-24q-56 0 -101 34.5t-100 96.5q-38 42 -60 61t-43 19h-3v-211h-94v211h-3q-21 0 -43 -19t-60 -61q-55 -62 -100 -96.5t-101 -34.5h-24v89h17q29 0 58 22t74 67q56 58 93 81l-242 241h124l207 -214
v214h94v-214l209 214h122l-243 -238q22 -13 44.5 -33.5z" />
    <glyph glyph-name="uni0437" unicode="&#x437;" horiz-adv-x="504" 
d="M346.5 89.5q25.5 20.5 25.5 48.5q0 32 -24 51t-84 19h-77v82h73q52 0 74.5 19t22.5 46q0 34 -30.5 54t-83.5 20q-51 0 -84.5 -19t-43.5 -60h-94q13 75 75 117.5t147 42.5q94 0 152 -40.5t58 -106.5q0 -33 -18 -61.5t-54 -45.5q83 -33 83 -113q0 -44 -23.5 -79t-64 -54.5
t-89.5 -19.5q-35 0 -59 6.5t-55 18.5q-36 16 -58 16q-18 0 -25 -8.5t-7 -22.5h-78q0 57 27 87t78 30q27 0 47 -6t46 -18q28 -13 46.5 -18.5t43.5 -5.5q28 0 53.5 20.5z" />
    <glyph glyph-name="uni0438" unicode="&#x438;" horiz-adv-x="610" 
d="M530 500v-500h-95v308l-260 -220v-88h-95v500h95v-302l260 220v82h95z" />
    <glyph glyph-name="uni0439" unicode="&#x439;" horiz-adv-x="610" 
d="M530 500v-500h-95v308l-260 -220v-88h-95v500h95v-302l260 220v82h95zM182 590q-50 41 -56 110h82q5 -38 32 -59.5t70 -21.5t70 21.5t32 59.5h82q-6 -69 -56 -110t-128 -41t-128 41z" />
    <glyph glyph-name="uni043A" unicode="&#x43a;" horiz-adv-x="548" 
d="M543 89v-89h-27q-43 0 -81.5 18.5t-68.5 44t-70 65.5t-64 58.5t-47 18.5h-10v-205h-95v500h95v-221l239 221h119l-262 -238q27 -12 53.5 -33t62.5 -54q49 -44 79.5 -65t61.5 -21h15z" />
    <glyph glyph-name="uni043B" unicode="&#x43b;" horiz-adv-x="574" 
d="M458 0l-172 406l-173 -406h-103l218 500h118l218 -500h-106z" />
    <glyph glyph-name="uni043C" unicode="&#x43c;" horiz-adv-x="780" 
d="M700 0h-95v365l-168 -365h-94l-168 362v-362h-95v500h130l182 -401l180 401h128v-500z" />
    <glyph glyph-name="uni043D" unicode="&#x43d;" horiz-adv-x="610" 
d="M530 500v-500h-95v205h-260v-205h-95v500h95v-205h260v205h95z" />
    <glyph glyph-name="uni043E" unicode="&#x43e;" horiz-adv-x="600" 
d="M166 24.5q-61 34.5 -96 94t-35 131.5t35 131.5t96 94t135 34.5q73 0 133.5 -34.5t95.5 -94t35 -131.5t-35 -131.5t-95.5 -94t-133.5 -34.5q-74 0 -135 34.5zM385 100.5q38 22.5 60 62t22 87.5t-22 87.5t-60 62t-84 22.5q-47 0 -85.5 -22.5t-60.5 -62t-22 -87.5t22 -87.5
t60.5 -62t85.5 -22.5q46 0 84 22.5z" />
    <glyph glyph-name="uni043F" unicode="&#x43f;" horiz-adv-x="610" 
d="M530 0h-95v410h-260v-410h-95v500h450v-500z" />
    <glyph glyph-name="uni0440" unicode="&#x440;" horiz-adv-x="615" 
d="M464 476.5q54 -33.5 85 -92.5t31 -134t-31 -134t-85 -92.5t-120 -33.5q-50 0 -94 22.5t-75 62.5v-245h-95v670h90v-81q32 43 77 67t97 24q66 0 120 -33.5zM407 100q35 22 55 61.5t20 88.5t-20 88.5t-55 61.5t-79 22t-80 -22t-56 -61.5t-20 -88.5t20 -88.5t56 -61.5
t80 -22t79 22z" />
    <glyph glyph-name="uni0441" unicode="&#x441;" horiz-adv-x="563" 
d="M70 381.5q35 59.5 96 94t135 34.5q83 0 149.5 -48.5t87.5 -126.5h-104q-17 40 -54.5 63.5t-83.5 23.5q-47 0 -84 -22.5t-58 -62t-21 -87.5t21 -87.5t58 -62t84 -22.5q46 0 83.5 23.5t54.5 63.5h104q-21 -78 -87.5 -126.5t-149.5 -48.5q-74 0 -135 34.5t-96 94t-35 131.5
t35 131.5z" />
    <glyph glyph-name="uni0442" unicode="&#x442;" horiz-adv-x="475" 
d="M460 410h-175v-410h-95v410h-175v90h445v-90z" />
    <glyph glyph-name="uni0443" unicode="&#x443;" horiz-adv-x="576" 
d="M563 500l-243 -556q-19 -51 -53 -83.5t-100 -32.5q-47 0 -73 2v90q28 -2 67 -2q28 0 44.5 15t27.5 41l15 35l-243 491h111l179 -384l168 384h100z" />
    <glyph glyph-name="uni0444" unicode="&#x444;" horiz-adv-x="795" 
d="M631 467q60 -33 94.5 -90.5t34.5 -126.5t-34.5 -126.5t-94.5 -90.5t-132 -33h-54v-170h-95v170h-52q-73 0 -133 33t-95 90.5t-35 126.5t35 126.5t95 90.5t133 33h52v205h95v-205h54q72 0 132 -33zM350 88v324h-49q-47 0 -85.5 -21.5t-60.5 -58.5t-22 -82t22 -82
t60.5 -58.5t85.5 -21.5h49zM580 109.5q38 21.5 60 58.5t22 82t-22 82t-60 58.5t-84 21.5h-51v-324h51q46 0 84 21.5z" />
    <glyph glyph-name="uni0445" unicode="&#x445;" horiz-adv-x="544" 
d="M416 0l-145 189l-146 -189h-115l200 254l-192 246h118l137 -179l134 179h118l-191 -243l200 -257h-118z" />
    <glyph glyph-name="uni0446" unicode="&#x446;" horiz-adv-x="630" 
d="M612.5 32q29.5 -33 29.5 -75q0 -58 -39 -97.5t-123 -39.5q-40 0 -76.5 6.5t-84.5 17.5q-24 6 -46 10.5t-37 4.5q-23 0 -30 -8t-7 -24v-7h-89v13q0 114 113 114q33 0 60.5 -5.5t70.5 -17.5q41 -11 67.5 -16.5t57.5 -5.5q35 0 50.5 14t15.5 36q0 20 -18 34t-55 14h-392v500
h95v-410h260v410h95v-426q53 -9 82.5 -42z" />
    <glyph glyph-name="uni0447" unicode="&#x447;" horiz-adv-x="550" 
d="M470 500v-500h-95v194h-160q-77 0 -121 45t-44 115v146h95v-143q0 -39 20.5 -58t64.5 -19h145v220h95z" />
    <glyph glyph-name="uni0448" unicode="&#x448;" horiz-adv-x="855" 
d="M775 500v-500h-695v500h95v-410h205v410h95v-410h205v410h95z" />
    <glyph glyph-name="uni0449" unicode="&#x449;" horiz-adv-x="875" 
d="M857.5 32q29.5 -33 29.5 -75q0 -56 -41 -96.5t-121 -40.5q-46 0 -83.5 5.5t-97.5 16.5q-41 8 -68.5 12.5t-54.5 4.5q-23 0 -30 -8t-7 -24v-7h-89v13q0 55 30 84.5t83 29.5q37 0 68.5 -5.5t79.5 -16.5q50 -12 87.5 -18t80.5 -6q29 0 47.5 14t18.5 36q0 21 -21 35t-52 14
h-637v500h95v-410h205v410h95v-410h205v410h95v-426q53 -9 82.5 -42z" />
    <glyph glyph-name="uni044A" unicode="&#x44a;" horiz-adv-x="590" 
d="M515.5 259.5q44.5 -42.5 44.5 -108.5t-44.5 -108.5t-123.5 -42.5h-237v410h-145v90h240v-198h142q79 0 123.5 -42.5zM441 100q21 17 21 51t-21 51t-62 17h-129v-136h129q41 0 62 17z" />
    <glyph glyph-name="uni044B" unicode="&#x44b;" horiz-adv-x="760" 
d="M450.5 259.5q44.5 -42.5 44.5 -108.5t-44.5 -108.5t-123.5 -42.5h-247v500h95v-198h152q79 0 123.5 -42.5zM376 100q21 17 21 51t-21 51t-62 17h-139v-136h139q41 0 62 17zM680 500v-500h-95v500h95z" />
    <glyph glyph-name="uni044C" unicode="&#x44c;" horiz-adv-x="525" 
d="M450.5 259.5q44.5 -42.5 44.5 -108.5t-44.5 -108.5t-123.5 -42.5h-247v500h95v-198h152q79 0 123.5 -42.5zM376 100q21 17 21 51t-21 51t-62 17h-139v-136h139q41 0 62 17z" />
    <glyph glyph-name="uni044D" unicode="&#x44d;" horiz-adv-x="566" 
d="M400.5 476.5q59.5 -33.5 93 -93t33.5 -133.5q0 -77 -31.5 -135t-82 -89.5t-106.5 -31.5q-35 0 -61 6.5t-56 17.5q-35 14 -56 14q-29 0 -29 -32h-86q0 59 28.5 91t82.5 32q21 0 36.5 -5t39.5 -15q28 -12 50 -18.5t53 -6.5q26 0 51.5 14.5t43.5 44t21 70.5h-212v86h211
q-8 56 -53 92.5t-103 36.5q-49 0 -87.5 -23.5t-54.5 -63.5h-96q13 51 48 91t85 62t104 22q74 0 133.5 -33.5z" />
    <glyph glyph-name="uni044E" unicode="&#x44e;" horiz-adv-x="808" 
d="M645.5 475.5q59.5 -34.5 93.5 -94t34 -131.5t-34 -131.5t-93.5 -94t-131.5 -34.5q-64 0 -118.5 28t-90 77t-44.5 110h-86v-205h-95v500h95v-205h86q9 61 44.5 110t90 77t118.5 28q72 0 131.5 -34.5zM596 100.5q37 22.5 58 62t21 87.5t-21 87.5t-58 62t-82 22.5
t-82.5 -22.5t-59 -62t-21.5 -87.5t21.5 -87.5t59 -62t82.5 -22.5t82 22.5z" />
    <glyph glyph-name="uni044F" unicode="&#x44f;" horiz-adv-x="546" 
d="M466 0h-95v193h-12q-26 0 -53 -18.5t-72 -58.5q-63 -56 -112 -86t-108 -30h-14v90h18q34 0 62.5 15t68.5 45q4 3 23.5 18t39.5 25q-76 2 -118.5 44.5t-42.5 108.5q0 68 44.5 111t123.5 43h247v-500zM171 287q22 -19 64 -19h136v150h-136q-42 0 -64 -19t-22 -56t22 -56z
" />
    <glyph glyph-name="uni0451" unicode="&#x451;" horiz-adv-x="580" 
d="M425.5 477q57.5 -33 88.5 -93.5t31 -141.5q0 -21 -1 -31h-410q10 -58 54.5 -95.5t103.5 -37.5q97 0 138 71h98q-24 -70 -89 -114.5t-147 -44.5q-73 0 -132 33.5t-92 93t-33 133.5t33 133.5t91.5 93t131.5 33.5q77 0 134.5 -33zM187.5 389q-42.5 -37 -52.5 -95h307
q-6 60 -48.5 96t-104.5 36q-59 0 -101.5 -37zM240 700v-110h-110v110h110zM450 700v-110h-110v110h110z" />
    <glyph glyph-name="uni0452" unicode="&#x452;" horiz-adv-x="670" 
d="M491.5 434q50.5 -26 79.5 -78.5t29 -128.5v-202q0 -56 -24.5 -100t-72 -69.5t-112.5 -25.5h-15v89h12q58 0 87.5 27t29.5 79v200q0 66 -39 105t-98 39q-40 0 -73 -21t-51.5 -56.5t-18.5 -76.5v-215h-95v543h-140v80h140v82h90v-82h220v-80h-220v-160q29 35 71 56t87 21
q63 0 113.5 -26z" />
    <glyph glyph-name="uni0453" unicode="&#x453;" horiz-adv-x="445" 
d="M430 410h-255v-410h-95v500h350v-90zM365 730l-80 -150h-100l70 150h110z" />
    <glyph glyph-name="uni0454" unicode="&#x454;" horiz-adv-x="565" 
d="M525.5 91.5q27.5 -32.5 23.5 -91.5h-83q0 14 -8 23.5t-21 9.5q-14 0 -49 -14q-32 -12 -56.5 -18.5t-49.5 -6.5q-73 0 -129 33t-87 91t-31 132t34.5 133.5t96 93t137.5 33.5q85 0 153 -48.5t89 -126.5h-104q-18 40 -56.5 63.5t-86.5 23.5q-60 0 -105.5 -36t-56.5 -93h217
v-86h-217q9 -55 47.5 -89.5t92.5 -34.5q24 0 42 5t45 15q23 10 43.5 15.5t46.5 5.5q45 0 72.5 -32.5z" />
    <glyph glyph-name="uni0455" unicode="&#x455;" horiz-adv-x="509" 
d="M97.5 34.5q-64.5 44.5 -74.5 123.5h95q13 -43 48.5 -63.5t93.5 -20.5q54 0 87 17.5t33 45.5t-22.5 44.5t-83.5 26.5l-57 10q-180 32 -180 145q0 66 58 106.5t152 40.5q85 0 145 -39.5t76 -109.5h-101q-12 30 -46 46.5t-75 16.5q-52 0 -82.5 -15.5t-30.5 -42.5
q0 -24 23 -39.5t74 -23.5l58 -10q102 -17 144 -55.5t42 -100.5q0 -66 -58.5 -106.5t-159.5 -40.5q-94 0 -158.5 44.5z" />
    <glyph glyph-name="uni0456" unicode="&#x456;" horiz-adv-x="255" 
d="M175 500v-500h-95v500h95zM181 700v-110h-106v110h106z" />
    <glyph glyph-name="uni0457" unicode="&#x457;" horiz-adv-x="255" 
d="M175 500v-500h-95v500h95zM78 700v-110h-110v110h110zM288 700v-110h-110v110h110z" />
    <glyph glyph-name="uni0458" unicode="&#x458;" horiz-adv-x="265" 
d="M191 700v-110h-106v110h106zM185 500v-524q0 -156 -159 -156q-39 0 -66 9v87q25 -6 61 -6q38 0 53.5 17t15.5 49v524h95z" />
    <glyph glyph-name="uni0459" unicode="&#x459;" horiz-adv-x="845" 
d="M770.5 259.5q44.5 -42.5 44.5 -108.5t-44.5 -108.5t-123.5 -42.5h-240v410h-155q-1 -146 -23 -236.5t-67.5 -133.5t-118.5 -43q-17 0 -28 3v87q14 -2 21 -2q44 0 70.5 33.5t38.5 107t12 195.5v79h345v-198h145q79 0 123.5 -42.5zM696 100q21 17 21 51t-21 51t-62 17h-132
v-136h132q41 0 62 17z" />
    <glyph glyph-name="uni045A" unicode="&#x45a;" horiz-adv-x="866" 
d="M791.5 259.5q44.5 -42.5 44.5 -108.5t-44.5 -108.5t-123.5 -42.5h-233v216h-260v-216h-95v500h95v-198h260v198h95v-198h138q79 0 123.5 -42.5zM717 100q21 17 21 51t-21 51t-62 17h-125v-136h125q41 0 62 17z" />
    <glyph glyph-name="uni045B" unicode="&#x45b;" horiz-adv-x="670" 
d="M491.5 434q50.5 -26 79.5 -78.5t29 -128.5v-227h-95v225q0 66 -39 105t-98 39q-40 0 -73 -21t-51.5 -56.5t-18.5 -76.5v-215h-95v543h-140v80h140v82h90v-82h220v-80h-220v-160q29 35 71 56t87 21q63 0 113.5 -26z" />
    <glyph glyph-name="uni045C" unicode="&#x45c;" horiz-adv-x="548" 
d="M543 89v-89h-27q-43 0 -81.5 18.5t-68.5 44t-70 65.5t-64 58.5t-47 18.5h-10v-205h-95v500h95v-221l239 221h119l-262 -238q27 -12 53.5 -33t62.5 -54q49 -44 79.5 -65t61.5 -21h15zM417 730l-80 -150h-100l70 150h110z" />
    <glyph glyph-name="uni045E" unicode="&#x45e;" horiz-adv-x="576" 
d="M563 500l-243 -556q-19 -51 -53 -83.5t-100 -32.5q-47 0 -73 2v90q28 -2 67 -2q28 0 44.5 15t27.5 41l15 35l-243 491h111l179 -384l168 384h100zM164 590q-50 41 -56 110h82q5 -38 32 -59.5t70 -21.5t70 21.5t32 59.5h82q-6 -69 -56 -110t-128 -41t-128 41z" />
    <glyph glyph-name="uni045F" unicode="&#x45f;" horiz-adv-x="610" 
d="M530 500v-500h-174v-170h-92v170h-184v500h95v-410h260v410h95z" />
    <glyph glyph-name="uni0460" unicode="&#x460;" horiz-adv-x="1044" 
d="M877.5 669q51.5 -41 79 -117t27.5 -178q0 -121 -34 -208t-91.5 -131.5t-127.5 -44.5q-72 0 -125.5 37t-83.5 107q-30 -70 -83.5 -107t-125.5 -37q-70 0 -127.5 44.5t-91.5 131.5t-34 208q0 102 27.5 178t79 117t121.5 41q64 0 105.5 -41.5t52.5 -118.5h-97q-12 67 -61 67
q-60 0 -94 -63.5t-34 -179.5q0 -94 21 -159.5t57 -98.5t80 -33q71 0 114 53t43 134v80h94v-80q0 -81 43 -134t114 -53q44 0 80 33t57 98.5t21 159.5q0 116 -34 179.5t-94 63.5q-49 0 -61 -67h-97q11 77 52.5 118.5t105.5 41.5q70 0 121.5 -41z" />
    <glyph glyph-name="uni0461" unicode="&#x461;" horiz-adv-x="753" 
d="M603 474.5q53 -35.5 84 -98.5t31 -143q0 -121 -53 -182t-140 -61q-50 0 -88 23t-60 68q-23 -45 -61 -68t-88 -23q-87 0 -140 61t-53 182q0 80 31 143t84 98.5t119 35.5v-88q-38 0 -69 -25t-49 -68t-18 -96q0 -80 26 -117.5t69 -37.5q47 0 74 35t27 113v117h95v-117
q0 -78 27 -113t74 -35q43 0 69 37.5t26 117.5q0 53 -18 96t-49 68t-69 25v88q66 0 119 -35.5z" />
    <glyph glyph-name="uni0462" unicode="&#x462;" horiz-adv-x="770" 
d="M636.5 383.5q50.5 -26.5 77 -73t26.5 -105.5t-26.5 -105.5t-77 -73t-120.5 -26.5h-306v534h-195v96h195v120h100v-120h245v-96h-245v-124h206q70 0 120.5 -26.5zM604 122.5q31 28.5 31 83.5t-31 83t-91 28h-203v-223h203q60 0 91 28.5z" />
    <glyph glyph-name="uni0463" unicode="&#x463;" horiz-adv-x="590" 
d="M515.5 259.5q44.5 -42.5 44.5 -108.5t-44.5 -108.5t-123.5 -42.5h-237v410h-145v90h145v205h95v-205h215v-90h-215v-108h142q79 0 123.5 -42.5zM441 100q21 17 21 51t-21 51t-62 17h-129v-136h129q41 0 62 17z" />
    <glyph glyph-name="uni0464" unicode="&#x464;" horiz-adv-x="1047" 
d="M980.5 100q33.5 -37 33.5 -100h-99q0 40 -40 40q-15 0 -33 -5t-37 -12q-38 -14 -72 -21.5t-78 -7.5q-82 0 -152.5 40t-117 110t-57.5 158h-138v-302h-100v700h100v-302h138q11 89 60 160t125.5 111.5t167.5 40.5q77 0 144 -29.5t115.5 -84t71.5 -126.5h-111
q-31 67 -87.5 105.5t-132.5 38.5q-63 0 -116.5 -28t-88.5 -77.5t-45 -111.5h305v-94h-305q10 -62 43.5 -111.5t82.5 -77.5t105 -28q32 0 57.5 6.5t60.5 19.5q31 12 56.5 18.5t55.5 6.5q55 0 88.5 -37z" />
    <glyph glyph-name="uni0465" unicode="&#x465;" horiz-adv-x="792" 
d="M747.5 91.5q27.5 -32.5 23.5 -91.5h-83q0 14 -8 23.5t-21 9.5q-14 0 -49 -14q-32 -12 -56.5 -18.5t-49.5 -6.5q-99 0 -165 58.5t-79 154.5h-85v-207h-95v500h95v-207h85q10 64 46.5 113t93 76.5t125.5 27.5q85 0 153 -48.5t89 -126.5h-104q-18 40 -56.5 63.5t-86.5 23.5
q-60 0 -105.5 -36t-56.5 -93h217v-86h-217q9 -55 47.5 -89.5t92.5 -34.5q24 0 42 5t45 15q23 10 43.5 15.5t46.5 5.5q45 0 72.5 -32.5z" />
    <glyph glyph-name="uni0466" unicode="&#x466;" horiz-adv-x="800" 
d="M587 190h-139v-190h-96v190h-145l-88 -190h-109l334 700h112l334 -700h-115zM545 282l-147 318l-148 -318h295z" />
    <glyph glyph-name="uni0467" unicode="&#x467;" horiz-adv-x="604" 
d="M432 129h-85v-129h-90v129h-88l-59 -129h-100l236 500h113l235 -500h-103zM395 210l-94 205l-95 -205h189z" />
    <glyph glyph-name="uni0468" unicode="&#x468;" horiz-adv-x="1110" 
d="M897 190h-139v-190h-96v190h-145l-88 -190h-109l144 302h-274v-302h-100v700h100v-302h320l144 302h112l334 -700h-115zM855 282l-147 318l-148 -318h295z" />
    <glyph glyph-name="uni0469" unicode="&#x469;" horiz-adv-x="844" 
d="M672 129h-85v-129h-90v129h-88l-59 -129h-100l97 205h-172v-205h-95v500h95v-205h214l97 205h113l235 -500h-103zM635 210l-94 205l-95 -205h189z" />
    <glyph glyph-name="uni046A" unicode="&#x46a;" horiz-adv-x="1078" 
d="M683 351l-94 -100v-251h-100v251l-97 103l-262 -354h-120l316 425l-257 275h940l-257 -275l316 -425h-120zM277 610l262 -284l264 284h-526z" />
    <glyph glyph-name="uni046B" unicode="&#x46b;" horiz-adv-x="764" 
d="M487 234l-58 -61v-173h-94v173l-60 63l-157 -236h-113l206 304l-186 196h714l-186 -196l206 -304h-116zM222 415l160 -176l162 176h-322z" />
    <glyph glyph-name="uni046C" unicode="&#x46c;" horiz-adv-x="1327" 
d="M952 351l-94 -100v-251h-100v251l-97 103l-246 -354h-116l211 302h-320v-302h-100v700h100v-302h387l18 27l-257 275h940l-258 -276l297 -424h-116zM546 610l262 -284l264 284h-526z" />
    <glyph glyph-name="uni046D" unicode="&#x46d;" horiz-adv-x="1004" 
d="M727 234l-58 -61v-173h-94v173l-60 63l-157 -236h-113l140 207h-210v-207h-95v500h95v-207h268l8 11l-186 196h714l-186 -196l206 -304h-116zM462 415l160 -176l162 176h-322z" />
    <glyph glyph-name="uni046E" unicode="&#x46e;" horiz-adv-x="760" 
d="M568 44.5q31 -12.5 50.5 -36.5t19.5 -55q0 -62 -45 -97.5t-114 -35.5q-39 0 -77 6.5t-100 19.5q-61 13 -75 13q-20 0 -28.5 -6.5t-8.5 -20.5h-90v13q0 44 28 69.5t69 25.5q34 0 66.5 -5.5t75.5 -15.5q7 -1 35 -7t52 -9t44 -3q38 0 58.5 11t20.5 30q0 17 -16.5 27
t-46.5 10q-20 0 -76 -8q-27 -4 -56.5 -7.5t-54.5 -3.5q-78 0 -111 27.5t-33 79.5q0 27 19.5 48.5t51 33t63.5 9.5l-279 543h114l258 -526l258 526h110l-316 -616h-123q-34 0 -52 -8t-18 -23q0 -22 43 -22q29 0 91 11q43 7 71.5 11t58.5 4q32 0 63 -12.5z" />
    <glyph glyph-name="uni046F" unicode="&#x46f;" horiz-adv-x="506" 
d="M165.5 -11q-17.5 -11 -17.5 -33q0 -23 16.5 -33.5t58.5 -10.5h158l1 -82h-171q-81 0 -118 33.5t-37 90.5q0 55 40 89.5t115 34.5h61q50 0 80 17t30 47q0 27 -24 46.5t-82 19.5h-87v82h83q52 0 74.5 19t22.5 46q0 34 -30.5 54t-83.5 20q-51 0 -84.5 -19t-43.5 -60h-94
q11 63 58 103.5t115 52.5h-4l-140 150h110l80 -92l80 92h110l-139 -149q74 -10 118 -48.5t44 -95.5q0 -33 -18 -61.5t-54 -45.5q83 -33 83 -113q0 -67 -50 -105t-132 -38h-71q-40 0 -57.5 -11z" />
    <glyph glyph-name="uni0470" unicode="&#x470;" horiz-adv-x="836" 
d="M547 287h-79v-287h-100v287h-78l-285 413h114l211 -317h38v397h100v-397h41l210 317h112z" />
    <glyph glyph-name="uni0471" unicode="&#x471;" horiz-adv-x="721" 
d="M506 0h-98v-170h-95v170h-98l-215 500h106l164 -410h43v615h95v-615h47l163 410h103z" />
    <glyph glyph-name="uni0472" unicode="&#x472;" horiz-adv-x="820" 
d="M595 662.5q84 -47.5 132 -130t48 -182.5t-48 -182.5t-132 -130t-185 -47.5t-185 47.5t-132 130t-48 182.5t48 182.5t132 130t185 47.5t185 -47.5zM291 586q-55 -28 -91 -77t-46 -111h512q-10 62 -46 111t-91 77t-119 28t-119 -28zM529 114q55 28 91 77t46 111h-512
q10 -62 46 -111t91 -77t119 -28t119 28z" />
    <glyph glyph-name="uni0473" unicode="&#x473;" horiz-adv-x="600" 
d="M434.5 475.5q60.5 -34.5 95.5 -94t35 -131.5t-35 -131.5t-95.5 -94t-133.5 -34.5q-74 0 -135 34.5t-96 94t-35 131.5t35 131.5t96 94t135 34.5q73 0 133.5 -34.5zM197 386.5q-45 -35.5 -59 -92.5h324q-14 57 -58 92.5t-103 35.5t-104 -35.5zM406 115.5q45 37.5 57 95.5
h-326q13 -58 58 -95.5t106 -37.5q60 0 105 37.5z" />
    <glyph glyph-name="uni0474" unicode="&#x474;" horiz-adv-x="760" 
d="M631.5 676.5q33.5 28.5 88.5 28.5q19 0 51 -5v-94h-30q-24 0 -40 -9.5t-26 -33.5l-231 -563h-129l-305 700h114l259 -599l190 482q25 65 58.5 93.5z" />
    <glyph glyph-name="uni0475" unicode="&#x475;" horiz-adv-x="574" 
d="M462.5 477.5q29.5 25.5 76.5 25.5q16 0 32 -3v-90h-24q-18 0 -31 -12.5t-20 -30.5l-145 -367h-126l-215 500h106l176 -415l123 319q18 48 47.5 73.5z" />
    <glyph glyph-name="uni0476" unicode="&#x476;" horiz-adv-x="760" 
d="M631.5 676.5q33.5 28.5 88.5 28.5q19 0 51 -5v-94h-30q-24 0 -40 -9.5t-26 -33.5l-231 -563h-129l-305 700h114l259 -599l190 482q25 65 58.5 93.5zM369 780h-100l-80 150h110zM539 780h-100l-80 150h110z" />
    <glyph glyph-name="uni0477" unicode="&#x477;" horiz-adv-x="574" 
d="M462.5 477.5q29.5 25.5 76.5 25.5q16 0 32 -3v-90h-24q-18 0 -31 -12.5t-20 -30.5l-145 -367h-126l-215 500h106l176 -415l123 319q18 48 47.5 73.5zM277 580h-100l-80 150h110zM447 580h-100l-80 150h110z" />
    <glyph glyph-name="uni0478" unicode="&#x478;" horiz-adv-x="1366" 
d="M225 37.5q-84 47.5 -132 130t-48 182.5t48 182.5t132 130t185 47.5t185 -47.5t132 -130t48 -182.5t-48 -182.5t-132 -130t-185 -47.5t-185 47.5zM541.5 121q59.5 35 94 95.5t34.5 133.5t-34.5 133.5t-94 95.5t-131.5 35t-131.5 -35t-94 -95.5t-34.5 -133.5t34.5 -133.5
t94 -95.5t131.5 -35t131.5 35zM1353 500l-243 -556q-19 -51 -53 -83.5t-100 -32.5q-47 0 -73 2v90q28 -2 67 -2q28 0 44.5 15t27.5 41l15 35l-243 491h111l179 -384l168 384h100z" />
    <glyph glyph-name="uni0479" unicode="&#x479;" horiz-adv-x="1136" 
d="M166 24.5q-61 34.5 -96 94t-35 131.5t35 131.5t96 94t135 34.5q73 0 133.5 -34.5t95.5 -94t35 -131.5t-35 -131.5t-95.5 -94t-133.5 -34.5q-74 0 -135 34.5zM385 100.5q38 22.5 60 62t22 87.5t-22 87.5t-60 62t-84 22.5q-47 0 -85.5 -22.5t-60.5 -62t-22 -87.5t22 -87.5
t60.5 -62t85.5 -22.5q46 0 84 22.5zM1123 500l-243 -556q-19 -51 -53 -83.5t-100 -32.5q-47 0 -73 2v90q28 -2 67 -2q28 0 44.5 15t27.5 41l15 35l-243 491h111l179 -384l168 384h100z" />
    <glyph glyph-name="uni047A" unicode="&#x47a;" horiz-adv-x="840" 
d="M752.5 179.5q-42.5 -77.5 -117 -126t-167.5 -57.5v-56h-96v56q-93 9 -167.5 57.5t-117 126t-42.5 170.5t42.5 170.5t117 126t167.5 57.5v56h96v-56q93 -9 167.5 -57.5t117 -126t42.5 -170.5t-42.5 -170.5zM582 134q51 36 79.5 92.5t28.5 123.5t-28.5 123.5t-79.5 92.5
t-114 45v-71h-96v71q-63 -9 -114 -45t-79.5 -92.5t-28.5 -123.5t28.5 -123.5t79.5 -92.5t114 -45v71h96v-71q63 9 114 45z" />
    <glyph glyph-name="uni047B" unicode="&#x47b;" 
d="M555 127q-30 -56 -82.5 -91.5t-117.5 -43.5v-32h-90v32q-65 8 -117.5 44t-82.5 92t-30 122t30 122t82.5 92t117.5 44v32h90v-32q65 -8 117.5 -43.5t82.5 -91.5t30 -123t-30 -123zM451 135q36 47 36 115t-36 115t-96 55v-31h-90v31q-60 -9 -96 -55.5t-36 -114.5t36 -114.5
t96 -55.5v31h90v-31q60 8 96 55z" />
    <glyph glyph-name="uni047C" unicode="&#x47c;" horiz-adv-x="1044" 
d="M877.5 669q51.5 -41 79 -117t27.5 -178q0 -121 -34 -208t-91.5 -131.5t-127.5 -44.5q-72 0 -125.5 37t-83.5 107q-30 -70 -83.5 -107t-125.5 -37q-70 0 -127.5 44.5t-91.5 131.5t-34 208q0 102 27.5 178t79 117t121.5 41q64 0 105.5 -41.5t52.5 -118.5h-97q-12 67 -61 67
q-60 0 -94 -63.5t-34 -179.5q0 -94 21 -159.5t57 -98.5t80 -33q71 0 114 53t43 134v80h94v-80q0 -81 43 -134t114 -53q44 0 80 33t57 98.5t21 159.5q0 116 -34 179.5t-94 63.5q-49 0 -61 -67h-97q11 77 52.5 118.5t105.5 41.5q70 0 121.5 -41zM478 693h19q12 0 19 5.5
t7 14.5q0 10 -7 16t-19 6h-56v65h74q39 0 62.5 -20.5t23.5 -54.5t-23.5 -54.5t-62.5 -20.5h-37v43zM355.5 888.5q52.5 42.5 136.5 42.5q54 0 90.5 -13.5t78.5 -37.5q28 -16 45 -23.5t37 -7.5h20v-74h-28q-33 0 -58 10t-57 31q-37 22 -65.5 33.5t-70.5 11.5q-44 0 -72 -23
t-33 -63h-81q5 71 57.5 113.5z" />
    <glyph glyph-name="uni047D" unicode="&#x47d;" horiz-adv-x="753" 
d="M603 474.5q53 -35.5 84 -98.5t31 -143q0 -121 -53 -182t-140 -61q-50 0 -88 23t-60 68q-23 -45 -61 -68t-88 -23q-87 0 -140 61t-53 182q0 80 31 143t84 98.5t119 35.5v-88q-38 0 -69 -25t-49 -68t-18 -96q0 -80 26 -117.5t69 -37.5q47 0 74 35t27 113v117h95v-117
q0 -78 27 -113t74 -35q43 0 69 37.5t26 117.5q0 53 -18 96t-49 68t-69 25v88q66 0 119 -35.5zM333 513h19q12 0 19 5.5t7 14.5q0 10 -7 16t-19 6h-56v65h74q39 0 62.5 -20.5t23.5 -54.5t-23.5 -54.5t-62.5 -20.5h-37v43zM210.5 688.5q52.5 42.5 136.5 42.5q54 0 90.5 -13.5
t78.5 -37.5q28 -16 45 -23.5t37 -7.5h20v-74h-28q-33 0 -58 10t-57 31q-37 22 -65.5 33.5t-70.5 11.5q-44 0 -72 -23t-33 -63h-81q5 71 57.5 113.5z" />
    <glyph glyph-name="uni047E" unicode="&#x47e;" horiz-adv-x="1044" 
d="M877.5 669q51.5 -41 79 -117t27.5 -178q0 -121 -34 -208t-91.5 -131.5t-127.5 -44.5q-72 0 -125.5 37t-83.5 107q-30 -70 -83.5 -107t-125.5 -37q-70 0 -127.5 44.5t-91.5 131.5t-34 208q0 102 27.5 178t79 117t121.5 41q64 0 105.5 -41.5t52.5 -118.5h-97q-12 67 -61 67
q-60 0 -94 -63.5t-34 -179.5q0 -94 21 -159.5t57 -98.5t80 -33q71 0 114 53t43 134v80h94v-80q0 -81 43 -134t114 -53q44 0 80 33t57 98.5t21 159.5q0 116 -34 179.5t-94 63.5q-49 0 -61 -67h-97q11 77 52.5 118.5t105.5 41.5q70 0 121.5 -41zM772 750h-80v110h-128v-110
h-84v110h-128v-110h-80v180h500v-180z" />
    <glyph glyph-name="uni047F" unicode="&#x47f;" horiz-adv-x="753" 
d="M603 474.5q53 -35.5 84 -98.5t31 -143q0 -121 -53 -182t-140 -61q-50 0 -88 23t-60 68q-23 -45 -61 -68t-88 -23q-87 0 -140 61t-53 182q0 80 31 143t84 98.5t119 35.5v-88q-38 0 -69 -25t-49 -68t-18 -96q0 -80 26 -117.5t69 -37.5q47 0 74 35t27 113v117h95v-117
q0 -78 27 -113t74 -35q43 0 69 37.5t26 117.5q0 53 -18 96t-49 68t-69 25v88q66 0 119 -35.5zM627 550h-80v110h-128v-110h-84v110h-128v-110h-80v180h500v-180z" />
    <glyph glyph-name="uni0480" unicode="&#x480;" horiz-adv-x="770" 
d="M721 230v-380h-95v238q-43 -47 -100 -72.5t-122 -25.5q-100 0 -182 47.5t-129.5 130t-47.5 182.5t47.5 182.5t129.5 130t182 47.5q77 0 144 -29.5t115.5 -84t71.5 -126.5h-111q-31 67 -87.5 105.5t-132.5 38.5q-71 0 -129 -35t-91.5 -95.5t-33.5 -133.5t33.5 -133.5
t91.5 -95.5t129 -35q78 0 136 38.5t91 105.5h90z" />
    <glyph glyph-name="uni0481" unicode="&#x481;" horiz-adv-x="563" 
d="M532 165v-275h-92v161q-64 -61 -158 -61q-69 0 -125.5 34.5t-89 94t-32.5 131.5t35 131.5t96 94t135 34.5q83 0 149.5 -48.5t87.5 -126.5h-104q-17 40 -54.5 63.5t-83.5 23.5q-47 0 -84 -22.5t-58 -62t-21 -87.5t21 -87.5t58 -62t84 -22.5q49 0 87.5 23.5t56.5 63.5h92z
" />
    <glyph glyph-name="uni0482" unicode="&#x482;" horiz-adv-x="636" 
d="M384 225l-56 -154l182 -66l-29 -81l-183 67l-62 -171l-86 31l62 171l-182 67l29 80l182 -66l56 154l-182 66l30 81l182 -66l62 171l87 -32l-62 -171l182 -66l-30 -81z" />
    <glyph glyph-name="uni0483" unicode="&#x483;" horiz-adv-x="0" 
d="M-126 950v-130h-268v-60h-80v130h268v60h80z" />
    <glyph glyph-name="uni0484" unicode="&#x484;" horiz-adv-x="0" 
d="M-55 895q50 -41 56 -110h-82q-5 38 -32 59.5t-70 21.5t-70 -21.5t-32 -59.5h-82q6 69 56 110t128 41t128 -41z" />
    <glyph glyph-name="uni0485" unicode="&#x485;" horiz-adv-x="0" 
d="M-305 780q-39 0 -62.5 20.5t-23.5 54.5t23.5 54.5t62.5 20.5h74v-65h-56q-12 0 -19 -6t-7 -16q0 -9 7 -14.5t19 -5.5h19v-43h-37z" />
    <glyph glyph-name="uni0486" unicode="&#x486;" horiz-adv-x="0" 
d="M-344 823h19q12 0 19 5.5t7 14.5q0 10 -7 16t-19 6h-56v65h74q39 0 62.5 -20.5t23.5 -54.5t-23.5 -54.5t-62.5 -20.5h-37v43z" />
    <glyph glyph-name="uni0487" unicode="&#x487;" horiz-adv-x="0" 
d="M-466.5 888.5q52.5 42.5 136.5 42.5q54 0 90.5 -13.5t78.5 -37.5q28 -16 45 -23.5t37 -7.5h20v-74h-28q-33 0 -58 10t-57 31q-37 22 -65.5 33.5t-70.5 11.5q-44 0 -72 -23t-33 -63h-81q5 71 57.5 113.5z" />
    <glyph glyph-name="uni0488" unicode="&#x488;" horiz-adv-x="0" 
d="M-235 656q24 -20 27 -53h-40q-2 18 -15.5 28.5t-33.5 10.5t-33.5 -10.5t-15.5 -28.5h-39q2 33 26 53t62 20t62 -20zM-526 552q24 -20 27 -53h-40q-2 18 -15.5 28.5t-33.5 10.5t-33.5 -10.5t-15.5 -28.5h-39q2 33 26 53t62 20t62 -20zM53 552q24 -20 27 -53h-40
q-2 18 -15.5 28.5t-33.5 10.5t-33.5 -10.5t-15.5 -28.5h-39q2 33 26 53t62 20t62 -20zM-630 276q24 -20 27 -53h-40q-2 18 -15.5 28.5t-33.5 10.5t-33.5 -10.5t-15.5 -28.5h-39q2 33 26 53t62 20t62 -20zM153 276q24 -20 27 -53h-40q-2 18 -15.5 28.5t-33.5 10.5
t-33.5 -10.5t-15.5 -28.5h-39q2 33 26 53t62 20t62 -20zM-526 -18q24 -20 27 -53h-40q-2 18 -15.5 28.5t-33.5 10.5t-33.5 -10.5t-15.5 -28.5h-39q2 33 26 53t62 20t62 -20zM53 -18q24 -20 27 -53h-40q-2 18 -15.5 28.5t-33.5 10.5t-33.5 -10.5t-15.5 -28.5h-39q2 33 26 53
t62 20t62 -20zM-235 -124q24 -20 27 -53h-40q-2 18 -15.5 28.5t-33.5 10.5t-33.5 -10.5t-15.5 -28.5h-39q2 33 26 53t62 20t62 -20z" />
    <glyph glyph-name="uni0489" unicode="&#x489;" horiz-adv-x="0" 
d="M-266 525h-14q-8 0 -13.5 -4t-5.5 -11t5.5 -11.5t13.5 -4.5h42v-48h-55q-29 0 -46.5 15t-17.5 41q0 25 17.5 40t46.5 15h27v-32zM-469 468l-9 -9q-8 -8 -8 -15q0 -4 4 -10q4 -4 11 -4q8 0 14 7l30 29l34 -34l-39 -39q-22 -22 -47 -22q-21 0 -37 16q-17 17 -17 38
q0 24 23 47l19 19zM-82 424l-9 9q-8 8 -15 8q-4 0 -10 -4q-4 -4 -4 -11q0 -8 7 -14l29 -30l-34 -34l-39 39q-22 22 -22 47q0 21 16 37q17 17 38 17q24 0 47 -23l19 -19zM-571 284v-14q0 -8 4 -13.5t11 -5.5t11.5 5.5t4.5 13.5v42h48v-55q0 -29 -15 -46.5t-41 -17.5
q-25 0 -40 17.5t-15 46.5v27h32zM-24 221v14q0 8 -4 13.5t-11 5.5t-11.5 -5.5t-4.5 -13.5v-42h-48v55q0 29 15 46.5t41 17.5q25 0 40 -17.5t15 -46.5v-27h-32zM-513 81l9 -9q8 -8 15 -8q4 0 10 4q4 4 4 11q0 8 -7 14l-29 30l34 34l39 -39q22 -22 22 -47q0 -21 -16 -37
q-17 -17 -38 -17q-24 0 -47 23l-19 19zM-126 37l9 9q8 8 8 15q0 4 -4 10q-4 4 -11 4q-8 0 -14 -7l-30 -29l-34 34l39 39q22 22 47 22q21 0 37 -16q17 -17 17 -38q0 -24 -23 -47l-19 -19zM-329 -21h14q8 0 13.5 4t5.5 11t-5.5 11.5t-13.5 4.5h-42v48h55q29 0 46.5 -15
t17.5 -41q0 -25 -17.5 -40t-46.5 -15h-27v32z" />
    <glyph glyph-name="uni0490" unicode="&#x490;" horiz-adv-x="575" 
d="M560 830v-226h-370v-604h-100v700h374v130h96z" />
    <glyph glyph-name="uni0491" unicode="&#x491;" horiz-adv-x="445" 
d="M430 600v-190h-255v-410h-95v500h258v100h92z" />
    <glyph glyph-name="uni1C85" unicode="&#x1c85;" horiz-adv-x="855" 
d="M775 0h-95v410h-205v-410h-95v410h-205v-410h-95v500h695v-500z" />
    <glyph glyph-name="Wgrave" unicode="&#x1e80;" horiz-adv-x="1106" 
d="M1086 700l-306 -700h-125l-102 235l-103 -235h-125l-305 700h112l258 -596l110 253l-150 343h112l93 -215l93 215h108l-148 -339l111 -257l259 596h108zM418 930h110l70 -150h-100z" />
    <glyph glyph-name="wgrave" unicode="&#x1e81;" horiz-adv-x="834" 
d="M809 500l-152 -500h-116l-124 385l-128 -385h-113l-151 500h103l107 -394l131 394h105l129 -393l107 393h102zM282 730h110l70 -150h-100z" />
    <glyph glyph-name="Wacute" unicode="&#x1e82;" horiz-adv-x="1106" 
d="M1086 700l-306 -700h-125l-102 235l-103 -235h-125l-305 700h112l258 -596l110 253l-150 343h112l93 -215l93 215h108l-148 -339l111 -257l259 596h108zM678 930l-80 -150h-100l70 150h110z" />
    <glyph glyph-name="wacute" unicode="&#x1e83;" horiz-adv-x="834" 
d="M809 500l-152 -500h-116l-124 385l-128 -385h-113l-151 500h103l107 -394l131 394h105l129 -393l107 393h102zM542 730l-80 -150h-100l70 150h110z" />
    <glyph glyph-name="Wdieresis" unicode="&#x1e84;" horiz-adv-x="1106" 
d="M1086 700l-306 -700h-125l-102 235l-103 -235h-125l-305 700h112l258 -596l110 253l-150 343h112l93 -215l93 215h108l-148 -339l111 -257l259 596h108zM503 890v-110h-110v110h110zM713 890v-110h-110v110h110z" />
    <glyph glyph-name="wdieresis" unicode="&#x1e85;" horiz-adv-x="834" 
d="M809 500l-152 -500h-116l-124 385l-128 -385h-113l-151 500h103l107 -394l131 394h105l129 -393l107 393h102zM367 690v-110h-110v110h110zM577 690v-110h-110v110h110z" />
    <glyph glyph-name="uni1E9E" unicode="&#x1e9e;" horiz-adv-x="764" 
d="M612 380.5q54 -29.5 78 -74t24 -91.5q0 -105 -64.5 -165t-174.5 -60q-105 0 -164 56.5t-73 136.5h95q31 -97 142 -97q67 0 101.5 34t34.5 92q0 48 -37.5 80.5t-111.5 32.5h-122v79l221 200h-243q-61 0 -99.5 -35t-38.5 -90v-479h-100v479q0 62 31 112.5t85.5 79.5
t121.5 29h369v-96l-220 -194h5q86 0 140 -29.5z" />
    <glyph glyph-name="Ygrave" unicode="&#x1ef2;" horiz-adv-x="760" 
d="M750 700l-313 -737q-29 -69 -73 -101t-111 -32h-96v99h89q29 0 45 5.5t28 21t29 49.5l-338 695h114l278 -571l238 571h110zM245 930h110l70 -150h-100z" />
    <glyph glyph-name="ygrave" unicode="&#x1ef3;" horiz-adv-x="576" 
d="M563 500l-243 -556q-19 -51 -53 -83.5t-100 -32.5q-47 0 -73 2v90q28 -2 67 -2q28 0 44.5 15t27.5 41l15 35l-243 491h111l179 -384l168 384h100zM149 740h110l70 -150h-100z" />
    <glyph glyph-name="uni1FCD" unicode="&#x1fcd;" horiz-adv-x="0" 
d="M-430 823h19q12 0 19 5.5t7 14.5q0 10 -7 16t-19 6h-56v65h74q39 0 62.5 -20.5t23.5 -54.5t-23.5 -54.5t-62.5 -20.5h-37v43zM-301 930h110l70 -150h-100z" />
    <glyph glyph-name="uni1FCE" unicode="&#x1fce;" horiz-adv-x="0" 
d="M-430 823h19q12 0 19 5.5t7 14.5q0 10 -7 16t-19 6h-56v65h74q39 0 62.5 -20.5t23.5 -54.5t-23.5 -54.5t-62.5 -20.5h-37v43zM-115 930l-80 -150h-100l70 150h110z" />
    <glyph glyph-name="uni1FEF" unicode="&#x1fef;" horiz-adv-x="0" 
d="M-435 930h110l70 -150h-100z" />
    <glyph glyph-name="uni1FFD" unicode="&#x1ffd;" horiz-adv-x="0" 
d="M-175 930l-80 -150h-100l70 150h110z" />
    <glyph glyph-name="endash" unicode="&#x2013;" horiz-adv-x="640" 
d="M570 345v-90h-500v90h500z" />
    <glyph glyph-name="emdash" unicode="&#x2014;" horiz-adv-x="940" 
d="M870 345v-90h-800v90h800z" />
    <glyph glyph-name="quoteleft" unicode="&#x2018;" horiz-adv-x="400" 
d="M70 470l30 230h70v-230h-100z" />
    <glyph glyph-name="quoteright" unicode="&#x2019;" horiz-adv-x="240" 
d="M170 700l-30 -230h-70v230h100z" />
    <glyph glyph-name="quotesinglbase" unicode="&#x201a;" horiz-adv-x="240" 
d="M170 110l-30 -230h-70v230h100z" />
    <glyph glyph-name="quotedblleft" unicode="&#x201c;" horiz-adv-x="400" 
d="M70 470l30 230h70v-230h-100zM230 470l30 230h70v-230h-100z" />
    <glyph glyph-name="quotedblright" unicode="&#x201d;" horiz-adv-x="400" 
d="M170 700l-30 -230h-70v230h100zM330 700l-30 -230h-70v230h100z" />
    <glyph glyph-name="quotedblbase" unicode="&#x201e;" horiz-adv-x="400" 
d="M170 110l-30 -230h-70v230h100zM330 110l-30 -230h-70v230h100z" />
    <glyph glyph-name="dagger" unicode="&#x2020;" horiz-adv-x="600" 
d="M540 432h-194v-432h-92v432h-194v86h194v182h92v-182h194v-86z" />
    <glyph glyph-name="daggerdbl" unicode="&#x2021;" horiz-adv-x="600" 
d="M346 432v-164h194v-86h-194v-182h-92v182h-194v86h194v164h-194v86h194v182h92v-182h194v-86h-194z" />
    <glyph glyph-name="bullet" unicode="&#x2022;" horiz-adv-x="450" 
d="M135.5 210.5q-35.5 35.5 -35.5 89.5t35.5 89.5t89.5 35.5t89.5 -35.5t35.5 -89.5t-35.5 -89.5t-89.5 -35.5t-89.5 35.5z" />
    <glyph glyph-name="ellipsis" unicode="&#x2026;" horiz-adv-x="650" 
d="M180 110v-110h-110v110h110zM380 110v-110h-110v110h110zM580 110v-110h-110v110h110z" />
    <glyph glyph-name="perthousand" unicode="&#x2030;" horiz-adv-x="1140" 
d="M110.5 401.5q-37.5 21.5 -59 59.5t-21.5 85t21.5 84.5t59 58.5t84.5 21t84.5 -21t59 -58.5t21.5 -84.5t-21.5 -85t-59 -59.5t-84.5 -21.5t-84.5 21.5zM162 0h-92l528 700h92zM256 480.5q24 25.5 24 65.5q0 38 -24 63.5t-61 25.5t-61 -25.5t-24 -63.5q0 -40 24 -65.5
t61 -25.5t61 25.5zM480.5 11.5q-37.5 21.5 -59 59.5t-21.5 85t21.5 84.5t59 58.5t84.5 21t84.5 -21t59 -58.5t21.5 -84.5t-21.5 -85t-59 -59.5t-84.5 -21.5t-84.5 21.5zM860.5 11.5q-37.5 21.5 -59 59.5t-21.5 85t21.5 84.5t59 58.5t84.5 21t84.5 -21t59 -58.5t21.5 -84.5
t-21.5 -85t-59 -59.5t-84.5 -21.5t-84.5 21.5zM626 90.5q24 25.5 24 65.5q0 38 -24 63.5t-61 25.5t-61 -25.5t-24 -63.5q0 -40 24 -65.5t61 -25.5t61 25.5zM1006 90.5q24 25.5 24 65.5q0 38 -24 63.5t-61 25.5t-61 -25.5t-24 -63.5q0 -40 24 -65.5t61 -25.5t61 25.5z" />
    <glyph glyph-name="guilsinglleft" unicode="&#x2039;" horiz-adv-x="355" 
d="M315 100h-112l-143 161v78l143 161h110l-173 -199z" />
    <glyph glyph-name="guilsinglright" unicode="&#x203a;" horiz-adv-x="355" 
d="M315 339v-78l-143 -161h-110l173 199l-175 201h112z" />
    <glyph glyph-name="fraction" unicode="&#x2044;" horiz-adv-x="640" 
d="M104 0h-104l536 700h104z" />
    <glyph glyph-name="Euro" unicode="&#x20ac;" horiz-adv-x="700" 
d="M491 118q44 35 61 106h103q-20 -109 -93.5 -171.5t-181.5 -62.5q-107 0 -181.5 61.5t-103.5 170.5h-75v90h61q-1 12 -1 38t1 38h-61v90h75q29 109 103.5 170.5t181.5 61.5q108 0 181.5 -62.5t93.5 -171.5h-103q-17 71 -61 106t-111 35q-65 0 -111.5 -36t-69.5 -103h191
v-90h-209q-1 -12 -1 -38t1 -38h209v-90h-191q23 -67 69.5 -103t111.5 -36q67 0 111 35z" />
    <glyph glyph-name="uni20B4" unicode="&#x20b4;" horiz-adv-x="599" 
d="M569 219q-7 -73 -43.5 -124.5t-94 -78t-127.5 -26.5q-66 0 -117.5 25.5t-80.5 72t-29 106.5q0 62 61 112h-91v89h258q58 17 96 51.5t38 68.5q0 47 -36 73.5t-99 26.5q-52 0 -91 -26.5t-55 -78.5h-95q9 62 43.5 107.5t86 69t109.5 23.5q68 0 120 -23.5t80.5 -66
t28.5 -98.5q0 -71 -70 -127h91v-89h-266q-116 -28 -116 -114q0 -47 36.5 -76.5t94.5 -29.5q73 0 120.5 32.5t57.5 100.5h90z" />
    <glyph glyph-name="uni2116" unicode="&#x2116;" horiz-adv-x="1120" 
d="M1009.5 689q37.5 -21 59 -58.5t21.5 -84.5t-21.5 -85t-59 -59.5t-84.5 -21.5t-84.5 21.5t-59 59.5t-21.5 85t21.5 84.5t59 58.5t84.5 21t84.5 -21zM570 700h100v-700h-110l-370 556v-556h-100v700h123l357 -541v541zM986 480.5q24 25.5 24 65.5q0 38 -24 63.5t-61 25.5
t-61 -25.5t-24 -63.5q0 -40 24 -65.5t61 -25.5t61 25.5z" />
    <glyph glyph-name="arrowleft" unicode="&#x2190;" horiz-adv-x="700" 
d="M700 301h-514l232 -232l-68 -69l-350 350l350 350l67 -68l-234 -234h517v-97z" />
    <glyph glyph-name="arrowup" unicode="&#x2191;" horiz-adv-x="700" 
d="M631 282l-232 232v-514h-97v517l-234 -234l-68 67l350 350l350 -350z" />
    <glyph glyph-name="arrowright" unicode="&#x2192;" horiz-adv-x="700" 
d="M700 350l-350 -350l-67 68l234 234h-517v97h514l-232 232l68 69z" />
    <glyph glyph-name="arrowdown" unicode="&#x2193;" horiz-adv-x="700" 
d="M700 350l-350 -350l-350 350l69 68l232 -232v514h97v-517l234 234z" />
    <glyph glyph-name="uni2196" unicode="&#x2196;" horiz-adv-x="700" 
d="M600 31l-404 404v-329h-96v494h495v-96h-331l404 -405z" />
    <glyph glyph-name="uni2197" unicode="&#x2197;" horiz-adv-x="700" 
d="M600 600v-494h-96v329l-404 -404l-68 68l404 405h-331v96h495z" />
    <glyph glyph-name="uni2198" unicode="&#x2198;" horiz-adv-x="700" 
d="M600 494v-494h-495v96h331l-404 405l68 68l404 -404v329h96z" />
    <glyph glyph-name="uni2199" unicode="&#x2199;" horiz-adv-x="700" 
d="M264 96h331v-96h-495v494h96v-329l404 404l68 -68z" />
    <glyph glyph-name="summation" unicode="&#x2211;" horiz-adv-x="635" 
d="M600 604h-424l220 -254l-227 -254h431v-96h-555v96l227 254l-220 254v96h548v-96z" />
    <glyph glyph-name="minus" unicode="&#x2212;" horiz-adv-x="700" 
d="M600 395v-90h-500v90h500z" />
    <glyph glyph-name="approxequal" unicode="&#x2248;" horiz-adv-x="700" 
d="M164 224q-35 -15 -64 -38v97q68 42 136 42q34 0 64 -9t72 -27q35 -14 54.5 -20.5t38.5 -6.5q36 0 71 15t64 38v-97q-68 -42 -136 -42q-34 0 -64 9t-72 27q-35 14 -54.5 20.5t-38.5 6.5q-36 0 -71 -15zM164 424q-35 -15 -64 -38v97q68 42 136 42q34 0 64 -9t72 -27
q35 -14 54.5 -20.5t38.5 -6.5q36 0 71 15t64 38v-97q-68 -42 -136 -42q-34 0 -64 9t-72 27q-35 14 -54.5 20.5t-38.5 6.5q-36 0 -71 -15z" />
    <glyph glyph-name="notequal" unicode="&#x2260;" horiz-adv-x="700" 
d="M419 405l-48 -110h229v-90h-269l-46 -105h-90l46 105h-141v90h181l48 110h-229v90h269l46 105h90l-46 -105h141v-90h-181z" />
    <glyph glyph-name="lessequal" unicode="&#x2264;" horiz-adv-x="700" 
d="M600 604l-377 -158l377 -158v-98l-500 210v90l500 210v-96zM100 98h500v-90h-500v90z" />
    <glyph glyph-name="greaterequal" unicode="&#x2265;" horiz-adv-x="700" 
d="M600 490v-90l-500 -210v96l377 158l-377 158v98zM600 98v-90h-500v90h500z" />
    <glyph glyph-name="uni2DE1" unicode="&#x2de1;" horiz-adv-x="0" 
d="M-59 819v-74h-28q-33 0 -58 10t-57 31q-37 22 -65.5 33.5t-70.5 11.5q-44 0 -72 -23t-33 -63h-81q5 71 57.5 113.5t136.5 42.5q54 0 90.5 -13.5t78.5 -37.5q28 -16 45 -23.5t37 -7.5h20zM-186 550h-229v180h229v-180zM-248 609v62h-104v-62h104z" />
    <glyph glyph-name="uni2DE2" unicode="&#x2de2;" horiz-adv-x="0" 
d="M-59 819v-74h-28q-33 0 -58 10t-57 31q-37 22 -65.5 33.5t-70.5 11.5q-44 0 -72 -23t-33 -63h-81q5 71 57.5 113.5t136.5 42.5q54 0 90.5 -13.5t78.5 -37.5q28 -16 45 -23.5t37 -7.5h20zM-210 671h-132v-121h-63v180h195v-59z" />
    <glyph glyph-name="uni2DE3" unicode="&#x2de3;" horiz-adv-x="0" 
d="M-59 819v-74h-28q-33 0 -58 10t-57 31q-37 22 -65.5 33.5t-70.5 11.5q-44 0 -72 -23t-33 -63h-81q5 71 57.5 113.5t136.5 42.5q54 0 90.5 -13.5t78.5 -37.5q28 -16 45 -23.5t37 -7.5h20zM-183 605h46v-55h-324v55h46l85 125h62zM-251 605l-49 72l-48 -72h97z" />
    <glyph glyph-name="uni2DE4" unicode="&#x2de4;" horiz-adv-x="0" 
d="M-59 819v-74h-28q-33 0 -58 10t-57 31q-37 22 -65.5 33.5t-70.5 11.5q-44 0 -72 -23t-33 -63h-81q5 71 57.5 113.5t136.5 42.5q54 0 90.5 -13.5t78.5 -37.5q28 -16 45 -23.5t37 -7.5h20zM-122 730l-62 -67q24 -6 37.5 -22t13.5 -40v-51h-58v38q0 11 -7.5 18t-23.5 7h-42
v-63h-62v63h-42q-16 0 -23.5 -7t-7.5 -18v-38h-59v51q0 24 13.5 40t37.5 21l-61 68h74l51 -65h17v65h62v-65h17l52 65h73z" />
    <glyph glyph-name="uni2DE5" unicode="&#x2de5;" horiz-adv-x="0" 
d="M-59 819v-74h-28q-33 0 -58 10t-57 31q-37 22 -65.5 33.5t-70.5 11.5q-44 0 -72 -23t-33 -63h-81q5 71 57.5 113.5t136.5 42.5q54 0 90.5 -13.5t78.5 -37.5q28 -16 45 -23.5t37 -7.5h20zM-200 602q0 -25 -30 -40t-81 -15q-49 0 -81.5 19.5t-35.5 57.5h63q0 -13 15 -21.5
t37 -8.5q26 0 35.5 4t9.5 11q0 5 -8.5 8.5t-25.5 3.5h-38v39h43q11 0 16.5 2.5t5.5 10.5q0 5 -11 8.5t-26 3.5q-55 0 -55 -29h-61q0 40 33.5 58.5t83.5 18.5q47 0 76 -14.5t29 -37.5q0 -28 -30 -39q36 -12 36 -40z" />
    <glyph glyph-name="uni2DE9" unicode="&#x2de9;" horiz-adv-x="0" 
d="M-59 819v-74h-28q-33 0 -58 10t-57 31q-37 22 -65.5 33.5t-70.5 11.5q-44 0 -72 -23t-33 -63h-81q5 71 57.5 113.5t136.5 42.5q54 0 90.5 -13.5t78.5 -37.5q28 -16 45 -23.5t37 -7.5h20zM-248 730h62v-180h-62v60h-104v-60h-63v180h63v-60h104v60z" />
    <glyph glyph-name="uni2DEA" unicode="&#x2dea;" horiz-adv-x="0" 
d="M-466.5 858.5q52.5 42.5 136.5 42.5q54 0 90.5 -13.5t78.5 -37.5q28 -16 45 -23.5t37 -7.5h20v-74h-28q-33 0 -58 10t-57 31q-37 22 -65.5 33.5t-70.5 11.5q-44 0 -72 -23t-33 -63h-81q5 71 57.5 113.5zM-387 573q-37 26 -37 67t37 67t96 26t96 -26t37 -67t-37 -67
t-96 -26t-96 26zM-245.5 614q17.5 10 17.5 26t-17.5 26t-45.5 10t-46 -10t-18 -26t18 -26t46 -10t45.5 10z" />
    <glyph glyph-name="uni2DEC" unicode="&#x2dec;" horiz-adv-x="0" 
d="M-59 819v-74h-28q-33 0 -58 10t-57 31q-37 22 -65.5 33.5t-70.5 11.5q-44 0 -72 -23t-33 -63h-81q5 71 57.5 113.5t136.5 42.5q54 0 90.5 -13.5t78.5 -37.5q28 -16 45 -23.5t37 -7.5h20zM-196 710.5q24 -19.5 24 -52.5t-24 -52.5t-64 -19.5h-70v-36h-55v180h125
q40 0 64 -19.5zM-245.5 642.5q9.5 5.5 9.5 14.5q0 8 -9.5 13.5t-23.5 5.5h-61v-39h61q14 0 23.5 5.5z" />
    <glyph glyph-name="uni2DED" unicode="&#x2ded;" horiz-adv-x="0" 
d="M-466.5 858.5q52.5 42.5 136.5 42.5q54 0 90.5 -13.5t78.5 -37.5q28 -16 45 -23.5t37 -7.5h20v-74h-28q-33 0 -58 10t-57 31q-37 22 -65.5 33.5t-70.5 11.5q-44 0 -72 -23t-33 -63h-81q5 71 57.5 113.5zM-387.5 707q34.5 26 89.5 26q54 0 88 -19.5t41 -54.5h-76
q-6 9 -18.5 13t-34.5 4q-25 0 -41 -10t-16 -26t16 -26t41 -10q42 0 55 17h74q-7 -36 -40.5 -55t-88.5 -19t-89.5 26t-34.5 67t34.5 67z" />
    <glyph glyph-name="uni2DEE" unicode="&#x2dee;" 
d="M560 550h-80v110h-128v-110h-84v110h-128v-110h-80v180h500v-180z" />
    <glyph glyph-name="uni2DEF" unicode="&#x2def;" horiz-adv-x="0" 
d="M-59 819v-74h-28q-33 0 -58 10t-57 31q-37 22 -65.5 33.5t-70.5 11.5q-44 0 -72 -23t-33 -63h-81q5 71 57.5 113.5t136.5 42.5q54 0 90.5 -13.5t78.5 -37.5q28 -16 45 -23.5t37 -7.5h20zM-272 642l104 -92h-86l-62 56l-62 -56h-87l105 91l-101 89h87l58 -52l57 52h88z
" />
    <glyph glyph-name="uni2DF1" unicode="&#x2df1;" horiz-adv-x="0" 
d="M-59 819v-74h-28q-33 0 -58 10t-57 31q-37 22 -65.5 33.5t-70.5 11.5q-44 0 -72 -23t-33 -63h-81q5 71 57.5 113.5t136.5 42.5q54 0 90.5 -13.5t78.5 -37.5q28 -16 45 -23.5t37 -7.5h20zM-254 730h62v-180h-62v60h-71q-45 0 -68.5 19.5t-23.5 56.5v44h62v-38q0 -10 7 -16
t20 -6h74v60z" />
    <glyph glyph-name="uni2E2F" unicode="&#x2e2f;" horiz-adv-x="190" 
d="M80 579q0 11 -5 23t-16 32q-14 25 -21.5 44.5t-7.5 40.5q0 40 34 81h78q-41 -39 -41 -81q0 -11 5 -23t16 -32q13 -25 20.5 -43.5t7.5 -39.5q0 -39 -33 -81h-79q42 42 42 79z" />
    <glyph glyph-name="uniA640" unicode="&#xa640;" horiz-adv-x="670" 
d="M45 96l456 508h-446v96h570v-96l-456 -508h304q108 0 159 -41t51 -103q0 -65 -42.5 -108t-144.5 -43q-23 0 -55 5.5t-84 16.5q-40 9 -81 16t-66 7q-29 0 -38.5 -10t-9.5 -28v-7h-97v14q0 57 36 91t105 34q32 0 67 -6.5t82 -18.5q51 -12 82.5 -18t61.5 -6q82 0 82 57
q0 22 -23 37t-71 15h-442v96z" />
    <glyph glyph-name="uniA641" unicode="&#xa641;" horiz-adv-x="507" 
d="M451.5 70q36.5 -17 56 -45.5t19.5 -60.5q0 -59 -39.5 -101.5t-120.5 -42.5q-28 0 -57 6.5t-67 17.5q-53 15 -71 15q-23 0 -30 -8t-7 -24v-7h-89v13q0 114 113 114q26 0 49 -5.5t58 -17.5q33 -11 54 -16.5t44 -5.5q35 0 50.5 15t15.5 37q0 19 -18.5 32.5t-54.5 13.5h-322
v78l319 335h-310v87h423v-90l-317 -323h215q50 0 86.5 -17z" />
    <glyph glyph-name="uniA642" unicode="&#xa642;" horiz-adv-x="670" 
d="M632 55q51 -41 51 -103q0 -65 -42.5 -108t-144.5 -43q-23 0 -55 5.5t-84 16.5q-40 9 -81 16t-66 7q-29 0 -38.5 -10t-9.5 -28v-7h-97v14q0 57 36 91t105 34q32 0 67 -6.5t82 -18.5q51 -12 82.5 -18t61.5 -6q82 0 82 57q0 22 -23 37t-71 15h-442v96l190 212h-150v85h227
l189 211h-446v96h570v-96l-189 -211h159v-85h-236l-190 -212h304q108 0 159 -41z" />
    <glyph glyph-name="uniA643" unicode="&#xa643;" horiz-adv-x="507" 
d="M451.5 70q36.5 -17 56 -45.5t19.5 -60.5q0 -59 -39.5 -101.5t-120.5 -42.5q-28 0 -57 6.5t-67 17.5q-53 15 -71 15q-23 0 -30 -8t-7 -24v-7h-89v13q0 114 113 114q26 0 49 -5.5t58 -17.5q33 -11 54 -16.5t44 -5.5q35 0 50.5 15t15.5 37q0 19 -18.5 32.5t-54.5 13.5h-322
v78l130 137h-96v80h172l113 118h-310v87h423v-90l-113 -115h100v-80h-178l-126 -128h215q50 0 86.5 -17z" />
    <glyph glyph-name="uniA644" unicode="&#xa644;" horiz-adv-x="652" 
d="M105.5 42.5q-75.5 52.5 -75.5 143.5q0 82 59 134t185 74l76 13q78 14 114 39t36 65q0 50 -45 79t-123 29q-66 0 -116 -28t-70 -81h-109q25 95 105 147.5t189 52.5q81 0 143.5 -24.5t96.5 -68.5t34 -102q0 -75 -57.5 -124t-179.5 -71l-76 -14q-84 -18 -120.5 -45
t-36.5 -71q0 -48 47 -77.5t125 -29.5q88 0 140 32.5t77 103.5h100q-18 -108 -101.5 -168.5t-205.5 -60.5q-136 0 -211.5 52.5z" />
    <glyph glyph-name="uniA645" unicode="&#xa645;" horiz-adv-x="516" 
d="M96 27.5q-56 37.5 -56 104.5q0 59 45.5 99t133.5 57l58 11q50 10 72 24.5t22 38.5q0 29 -31 47.5t-81 18.5q-46 0 -78 -18t-42 -50h-101q14 70 72 110t148 40q62 0 109.5 -18t74 -50t26.5 -74q0 -109 -179 -145l-56 -11q-49 -10 -72.5 -27t-23.5 -43q0 -34 30 -51.5
t88 -17.5q59 0 91.5 21t41.5 65h98q-9 -77 -72.5 -123t-163.5 -46q-98 0 -154 37.5z" />
    <glyph glyph-name="uniA646" unicode="&#xa646;" horiz-adv-x="287" 
d="M190 121q0 -25 25 -25h22v-96h-42q-52 0 -78.5 26.5t-26.5 78.5v595h100v-579z" />
    <glyph glyph-name="uniA647" unicode="&#xa647;" horiz-adv-x="262" 
d="M173 115q0 -11 6.5 -17.5t17.5 -6.5h17v-91h-40q-47 0 -71.5 25.5t-24.5 75.5v399h95v-385z" />
    <glyph glyph-name="uniA648" unicode="&#xa648;" horiz-adv-x="680" 
d="M510.5 388q53.5 -31 84 -80.5t30.5 -104.5v-203h-100v203q0 33 -19 61.5t-51 45.5t-71 17h-88q-39 0 -71 -17t-51 -45.5t-19 -61.5v-203h-100v203q0 55 30.5 104.5t84 80.5t120.5 32v125h-175v85h175v120h100v-120h175v-85h-175v-125q67 -1 120.5 -32z" />
    <glyph glyph-name="uniA649" unicode="&#xa649;" horiz-adv-x="604" 
d="M484.5 254.5q49.5 -58.5 49.5 -147.5v-107h-95v105q0 62 -36.5 98t-100.5 36t-100.5 -36t-36.5 -98v-105h-95v107q0 89 49.5 147.5t135.5 71.5v84h-156v90h155v205h95v-205h155v-90h-154v-84q85 -13 134.5 -71.5z" />
    <glyph glyph-name="uniA64A" unicode="&#xa64a;" horiz-adv-x="698" 
d="M609.5 325q58.5 -52 58.5 -128q0 -61 -39 -107.5t-111 -72t-168 -25.5t-168.5 25.5t-112 72t-39.5 107.5q0 76 59.5 128.5t165.5 69.5l-222 305h117l202 -303l198 303h117l-221 -305q105 -18 163.5 -70zM506 113q57 32 57 88q0 47 -43 78t-119 38l-35 -50q-7 -10 -7 -19
q0 -8 5 -12.5t14 -4.5h43v-83h-83q-40 0 -63.5 20.5t-23.5 52.5q0 31 22 62l25 34q-77 -8 -120 -38.5t-43 -77.5q0 -56 57.5 -88t157.5 -32q99 0 156 32z" />
    <glyph glyph-name="uniA64B" unicode="&#xa64b;" horiz-adv-x="562" 
d="M497 304.5q30 -47.5 30 -104.5q0 -61 -31 -109t-87 -74.5t-128 -26.5t-128 26.5t-87 74.5t-31 109q0 57 30 104.5t80 72.5q-49 25 -78 73.5t-29 109.5v70h93v-67q0 -64 41.5 -104t108.5 -40t108.5 40t41.5 104v142h93v-145q0 -61 -29 -109.5t-78 -73.5q50 -25 80 -72.5z
M388.5 113q42.5 38 42.5 96t-42.5 95.5t-107.5 37.5t-107.5 -37.5t-42.5 -95.5t42.5 -96t107.5 -38t107.5 38z" />
    <glyph glyph-name="uniA64E" unicode="&#xa64e;" horiz-adv-x="770" 
d="M636.5 383.5q50.5 -26.5 77 -73t26.5 -105.5t-26.5 -105.5t-77 -73t-120.5 -26.5h-306v545q0 29 -15 44t-44 15h-136v96h170q61 0 93 -32t32 -93v-165h206q70 0 120.5 -26.5zM604 122.5q31 28.5 31 83.5t-31 83t-91 28h-203v-223h203q60 0 91 28.5z" />
    <glyph glyph-name="uniA64F" unicode="&#xa64f;" horiz-adv-x="590" 
d="M515.5 259.5q44.5 -42.5 44.5 -108.5t-44.5 -108.5t-123.5 -42.5h-237v365q0 22 -11.5 33.5t-33.5 11.5h-100v90h135q51 0 78 -27t27 -78v-93h142q79 0 123.5 -42.5zM441 100q21 17 21 51t-21 51t-62 17h-129v-136h129q41 0 62 17z" />
    <glyph glyph-name="uniA650" unicode="&#xa650;" horiz-adv-x="1040" 
d="M636.5 383.5q50.5 -26.5 77 -73t26.5 -105.5t-26.5 -105.5t-77 -73t-120.5 -26.5h-306v604h-195v96h295v-290h206q70 0 120.5 -26.5zM604 122.5q31 28.5 31 83.5t-31 83t-91 28h-203v-223h203q60 0 91 28.5zM950 700v-700h-100v700h100z" />
    <glyph glyph-name="uniA651" unicode="&#xa651;" horiz-adv-x="825" 
d="M515.5 259.5q44.5 -42.5 44.5 -108.5t-44.5 -108.5t-123.5 -42.5h-237v410h-145v90h240v-198h142q79 0 123.5 -42.5zM441 100q21 17 21 51t-21 51t-62 17h-129v-136h129q41 0 62 17zM745 500v-500h-95v500h95z" />
    <glyph glyph-name="uniA652" unicode="&#xa652;" horiz-adv-x="942" 
d="M808.5 383.5q50.5 -26.5 77 -73t26.5 -105.5t-26.5 -105.5t-77 -73t-120.5 -26.5h-306v534h-192v-534h-100v750h100v-120h192v120h100v-120h245v-96h-245v-124h206q70 0 120.5 -26.5zM776 122.5q31 28.5 31 83.5t-31 83t-91 28h-203v-223h203q60 0 91 28.5z" />
    <glyph glyph-name="uniA653" unicode="&#xa653;" horiz-adv-x="753" 
d="M678.5 259.5q44.5 -42.5 44.5 -108.5t-44.5 -108.5t-123.5 -42.5h-237v410h-143v-410h-95v705h95v-205h143v205h95v-205h215v-90h-215v-108h142q79 0 123.5 -42.5zM604 100q21 17 21 51t-21 51t-62 17h-129v-136h129q41 0 62 17z" />
    </font>
</defs>
</svg>
